<svg xmlns="http://www.w3.org/2000/svg" viewBox="0 0 840 500" role="img">
  <title>Architecture environment and tool interface</title>
  <desc>A diagram showing how an architecture environment connects an architecture question and workload, an action schema, and declared constraints and metric definitions to a wrapper and harness. The wrapper checks the request, calls the tool, and parses the result. The harness records the run and provenance. Four tool-path outcomes remain separate: invalid action before execution, valid observation returned including a declared constraint failure, execution or tool-path failure, and unsupported or out-of-scope observation. Raw tool output and every outcome feed a run record containing metric meaning, cost, fidelity, provenance, and status.</desc>
  <defs>
    <marker id="arrow" viewBox="0 0 10 10" refX="9" refY="5" markerWidth="8" markerHeight="8" orient="auto">
      <path d="M 0 0 L 10 5 L 0 10 z" fill="#333333"/>
    </marker>
    <marker id="arrow-red" viewBox="0 0 10 10" refX="9" refY="5" markerWidth="8" markerHeight="8" orient="auto">
      <path d="M 0 0 L 10 5 L 0 10 z" fill="#DE3D3C"/>
    </marker>
    <style>
      .font { font-family: Arial, Helvetica, sans-serif; }
      .panel-title { font-size: 13.5px; font-weight: 700; fill: #20252B; }
      .section-title { font-size: 11.5px; font-weight: 700; fill: #555F68; letter-spacing: 0.5px; }
      .label { font-size: 12.7px; font-weight: 700; fill: #222222; }
      .small { font-size: 11.1px; fill: #444444; }
      .note { font-size: 11.7px; font-weight: 700; fill: #1683A6; }
      .bar { fill: #F5F8FA; stroke: #9AA8B5; stroke-width: 1.1; }
      .input { fill: #FBF0DE; stroke: #E68A17; stroke-width: 1.4; }
      .env { fill: #FBF0DE; stroke: #E68A17; stroke-width: 1.4; }
      .tool { fill: #FBF0DE; stroke: #E68A17; stroke-width: 1.4; }
      .feedback { fill: #E4F1F6; stroke: #1683A6; stroke-width: 1.4; }
      .reject { fill: #FDECEC; stroke: #DE3D3C; stroke-width: 1.4; }
      .review { fill: #E4F1F6; stroke: #1683A6; stroke-width: 1.4; }
      .arrow { stroke: #333333; stroke-width: 2; fill: none; stroke-linecap: square; stroke-linejoin: miter; }
      .reject-arrow { stroke: #DE3D3C; stroke-width: 1.8; fill: none; stroke-linecap: square; stroke-linejoin: miter; }
      .record-arrow { stroke: #9AA8B5; stroke-width: 1.2; fill: none; stroke-linecap: square; stroke-linejoin: miter; }
      .glyph { fill: none; stroke: currentColor; stroke-width: 1.55; stroke-linecap: round; stroke-linejoin: round; }
      .glyph-input { color: #E68A17; }
    </style>
  </defs>

  <rect width="840" height="500" fill="#FFFFFF"/>
  <g class="font">
    <rect class="input" x="30" y="82" width="215" height="58"/>
    <g class="glyph glyph-input" transform="translate(45 97)">
      <rect x="0" y="0" width="16" height="20"/>
      <path d="M 4 7 L 12 7"/>
      <path d="M 4 13 L 10 13"/>
    </g>
    <text class="label" x="75" y="106">question + workload</text>
    <text class="small" x="75" y="125">comparison + fixed context</text>

    <rect class="input" x="30" y="187" width="215" height="58"/>
    <g class="glyph glyph-input" transform="translate(45 202)">
      <path d="M 2 10 L 15 10"/>
      <path d="M 11 5 L 16 10 L 11 15"/>
      <path d="M 2 4 L 8 4"/>
      <path d="M 2 16 L 8 16"/>
    </g>
    <text class="label" x="75" y="211">action schema</text>
    <text class="small" x="75" y="230">knobs, edits, commands</text>

    <rect class="input" x="30" y="292" width="215" height="58"/>
    <g class="glyph glyph-input" transform="translate(45 307)">
      <path d="M 8 1 L 16 9 L 16 19 L 0 19 L 0 9 Z"/>
      <path d="M 5 11 L 11 11"/>
    </g>
    <text class="label" x="75" y="316">constraints + metrics</text>
    <text class="small" x="75" y="335">legal states, units, scope</text>

    <rect class="env" x="270" y="40" width="225" height="370"/>
    <text class="panel-title" x="382.5" y="65" text-anchor="middle">environment boundary</text>
    <text class="small" x="382.5" y="81" text-anchor="middle">wrapper acts; harness records</text>

    <rect class="env" x="295" y="96" width="175" height="42"/>
    <text class="label" x="382.5" y="121" text-anchor="middle">check request</text>

    <rect class="tool" x="295" y="164" width="175" height="42"/>
    <text class="label" x="382.5" y="189" text-anchor="middle">call tool</text>

    <rect class="feedback" x="295" y="232" width="175" height="42"/>
    <text class="label" x="382.5" y="257" text-anchor="middle">parse observation + status</text>

    <rect class="feedback" x="295" y="300" width="175" height="42"/>
    <text class="label" x="382.5" y="325" text-anchor="middle">record run + provenance</text>

    <text class="section-title" x="670" y="43" text-anchor="middle">FOUR TOOL-PATH OUTCOMES</text>

    <rect class="reject" x="535" y="55" width="270" height="40"/>
    <text class="label" x="670" y="72" text-anchor="middle">invalid action before execution</text>
    <text class="small" x="670" y="87" text-anchor="middle">wrapper declines the request</text>

    <rect class="reject" x="535" y="105" width="270" height="40"/>
    <text class="label" x="670" y="122" text-anchor="middle">execution or tool-path failure</text>
    <text class="small" x="670" y="137" text-anchor="middle">repair tool, setup, or harness</text>

    <rect class="feedback" x="535" y="155" width="270" height="40"/>
    <text class="label" x="670" y="172" text-anchor="middle">valid observation returned</text>
    <text class="small" x="670" y="187" text-anchor="middle">including a declared constraint failure</text>

    <rect class="review" x="535" y="205" width="270" height="40"/>
    <text class="label" x="670" y="222" text-anchor="middle">unsupported or out of scope</text>
    <text class="small" x="670" y="237" text-anchor="middle">follow up with review or a stronger tool</text>

    <rect class="feedback" x="535" y="270" width="270" height="48"/>
    <text class="label" x="670" y="289" text-anchor="middle">raw tool output</text>
    <text class="small" x="670" y="307" text-anchor="middle">metrics, logs, reports, warnings</text>

    <rect class="feedback" x="535" y="340" width="270" height="68"/>
    <text class="label" x="670" y="359" text-anchor="middle">run record</text>
    <text class="small" x="670" y="378" text-anchor="middle">request, output, metric meaning, cost, fidelity</text>
    <text class="small" x="670" y="394" text-anchor="middle">provenance + outcome status</text>

    <line class="arrow" x1="245" y1="111" x2="270" y2="111" marker-end="url(#arrow)"/>
    <line class="arrow" x1="245" y1="216" x2="270" y2="216" marker-end="url(#arrow)"/>
    <line class="arrow" x1="245" y1="321" x2="270" y2="321" marker-end="url(#arrow)"/>

    <line class="arrow" x1="382.5" y1="138" x2="382.5" y2="164" marker-end="url(#arrow)"/>
    <line class="arrow" x1="382.5" y1="206" x2="382.5" y2="232" marker-end="url(#arrow)"/>
    <line class="arrow" x1="382.5" y1="274" x2="382.5" y2="300" marker-end="url(#arrow)"/>

    <path class="reject-arrow" d="M 470 117 H 510 V 75 H 535" marker-end="url(#arrow-red)"/>
    <path class="reject-arrow" d="M 470 185 H 515 V 125 H 535" marker-end="url(#arrow-red)"/>
    <path class="arrow" d="M 470 253 H 520 V 175 H 535" marker-end="url(#arrow)"/>
    <path class="arrow" d="M 470 253 H 510 V 225 H 535" marker-end="url(#arrow)"/>
    <path class="arrow" d="M 470 253 H 500 V 294 H 535" marker-end="url(#arrow)"/>
    <path class="arrow" d="M 470 321 H 505 V 374 H 535" marker-end="url(#arrow)"/>
    <line class="arrow" x1="670" y1="318" x2="670" y2="340" marker-end="url(#arrow)"/>

    <line class="record-arrow" x1="805" y1="75" x2="826" y2="75"/>
    <line class="record-arrow" x1="805" y1="125" x2="826" y2="125"/>
    <line class="record-arrow" x1="805" y1="175" x2="826" y2="175"/>
    <line class="record-arrow" x1="805" y1="225" x2="826" y2="225"/>
    <line class="record-arrow" x1="826" y1="75" x2="826" y2="374"/>
    <line class="record-arrow" x1="826" y1="374" x2="805" y2="374" marker-end="url(#arrow)"/>

    <rect class="bar" x="30" y="437" width="775" height="42"/>
    <text class="note" x="417.5" y="454" text-anchor="middle">the contract makes permitted actions, fixed context, metric meaning, cost, provenance,</text>
    <text class="note" x="417.5" y="470" text-anchor="middle">outcome status, and follow-up paths explicit before execution</text>
  </g>
</svg>
