<svg xmlns="http://www.w3.org/2000/svg" viewBox="0 0 960 390" role="img">
  <title>Design pressure outgrows trusted feedback capacity</title>
  <desc>A clean conceptual plot showing architecture demand rising faster than credible feedback capacity, leaving a shaded feedback gap.</desc>
  <defs>
    <style>
      .font { font-family: sans-serif; }
      .axis { stroke: #333333; stroke-width: 1.4; fill: none; stroke-linecap: square; }
      .grid { stroke: #1F5F7A; stroke-width: 1; fill: none; }
      .demand { stroke: #C44E52; stroke-width: 4.2; fill: none; stroke-linecap: square; }
      .capacity { stroke: #1F5F7A; stroke-width: 4.2; fill: none; stroke-linecap: square; }
      .gap { fill: #F4F1FA; stroke: #1F5F7A; stroke-width: 1; opacity: 0.9; }
      .label { font-size: 21px; font-weight: 700; fill: #222222; }
      .small { font-size: 18px; fill: #333333; }
      .tiny { font-size: 16px; fill: #555555; }
      .gap-label { font-size: 19px; font-weight: 700; fill: #1F5F7A; }
      .gap-small { font-size: 14px; fill: #555555; }
      .red { fill: #C44E52; font-weight: 700; }
      .blue { fill: #1F5F7A; font-weight: 700; }
      .callout { fill: #F4F1FA; stroke: #1F5F7A; stroke-width: 1.2; }
      .note { font-size: 16px; font-weight: 700; fill: #1F5F7A; }
    </style>
  </defs>

  <rect width="960" height="390" fill="#FFFFFF"/>

  <g class="font">
    <g>
      <line class="grid" x1="156" y1="84" x2="795" y2="84"/>
      <line class="grid" x1="156" y1="130" x2="795" y2="130"/>
      <line class="grid" x1="156" y1="176" x2="795" y2="176"/>
      <line class="grid" x1="156" y1="222" x2="795" y2="222"/>
      <line class="grid" x1="296" y1="58" x2="296" y2="270"/>
      <line class="grid" x1="456" y1="58" x2="456" y2="270"/>
      <line class="grid" x1="616" y1="58" x2="616" y2="270"/>
      <line class="grid" x1="776" y1="58" x2="776" y2="270"/>
    </g>

    <line class="axis" x1="156" y1="270" x2="814" y2="270"/>
    <line class="axis" x1="156" y1="58" x2="156" y2="270"/>
    <text class="tiny" x="142" y="166" text-anchor="middle" transform="rotate(-90 142 166)">relative burden</text>
    <text class="tiny" x="160" y="312" text-anchor="start">bounded loop</text>
    <text class="tiny" x="486" y="312" text-anchor="middle">design-loop pressure</text>
    <text class="tiny" x="812" y="312" text-anchor="end">higher commitment</text>

    <path class="gap" d="M 180 232 C 352 196 536 126 790 68 L 790 216 C 550 220 352 226 180 236 Z"/>
    <path class="demand" d="M 180 232 C 352 196 536 126 790 68"/>
    <path class="capacity" d="M 180 236 C 352 226 550 220 790 216"/>

    <circle cx="180" cy="232" r="6" fill="#FFFFFF" stroke="#C44E52" stroke-width="2.2"/>
    <circle cx="180" cy="242" r="6" fill="#FFFFFF" stroke="#1F5F7A" stroke-width="2.2"/>
    <circle cx="790" cy="68" r="6" fill="#FFFFFF" stroke="#C44E52" stroke-width="2.2"/>
    <circle cx="790" cy="216" r="6" fill="#FFFFFF" stroke="#1F5F7A" stroke-width="2.2"/>

    <path d="M 318 49 H 786 V 81 H 318 Z" fill="#FFFFFF" opacity="0.88"/>
    <text class="label red" x="552" y="74" text-anchor="middle">choices + constraints + evidence demand</text>
    <rect x="282" y="228" width="444" height="42" fill="#FFFFFF" opacity="0.88"/>
    <text class="label blue" x="504" y="254" text-anchor="middle">credible feedback and review capacity</text>

    <line x1="824" y1="74" x2="824" y2="216" stroke="#1F5F7A" stroke-width="2"/>
    <line x1="812" y1="74" x2="836" y2="74" stroke="#1F5F7A" stroke-width="2"/>
    <line x1="812" y1="216" x2="836" y2="216" stroke="#1F5F7A" stroke-width="2"/>
    <text class="gap-label" x="886" y="129" text-anchor="middle">feedback</text>
    <text class="gap-label" x="886" y="153" text-anchor="middle">gap</text>
    <text class="gap-small" x="886" y="178" text-anchor="middle">evidence that</text>
    <text class="gap-small" x="886" y="194" text-anchor="middle">can reject</text>

    <rect class="callout" x="176" y="326" width="608" height="52"/>
    <text class="note" x="480" y="348" text-anchor="middle">The bottleneck is credible evaluation, rejection, and commitment,</text>
    <text class="note" x="480" y="368" text-anchor="middle">not idea generation.</text>
  </g>
</svg>
