<svg xmlns="http://www.w3.org/2000/svg" viewBox="0 0 720 446" role="img">
  <title>Evidence ledger with rejection gates</title>
  <desc>A clean rectangular diagram showing how an Architecture 2.0 claim moves from low-fidelity feedback to higher-fidelity evidence, rejection gates, and architect-owned commitment.</desc>
  <defs>
    <marker id="arrow" viewBox="0 0 10 10" refX="9" refY="5" markerWidth="8" markerHeight="8" orient="auto">
      <path d="M 0 0 L 10 5 L 0 10 z" fill="#333333"/>
    </marker>
    <style>
      .font { font-family: sans-serif; }
      .label { font-size: 14px; font-weight: 700; fill: #222222; }
      .small { font-size: 12px; fill: #444444; }
      .micro { font-size: 10.5px; fill: #555555; }
      .note { font-size: 12px; font-weight: 700; fill: #1F5F7A; }
      .claim { fill: #F4F1FA; stroke: #1F5F7A; stroke-width: 1.4; }
      .proxy { fill: #F4F1FA; stroke: #1F5F7A; stroke-width: 1.4; }
      .sim { fill: #F4F1FA; stroke: #C44E52; stroke-width: 1.4; }
      .impl { fill: #F4F1FA; stroke: #1F5F7A; stroke-width: 1.4; }
      .commit { fill: #F4F1FA; stroke: #1F5F7A; stroke-width: 1.4; }
      .reject { fill: #F4F1FA; stroke: #C44E52; stroke-width: 1.4; }
      .record { fill: #F4F1FA; stroke: #1F5F7A; stroke-width: 1.3; }
      .arrow { stroke: #333333; stroke-width: 2; fill: none; stroke-linecap: square; stroke-linejoin: miter; }
      .thin { stroke: #555555; stroke-width: 1.4; fill: none; stroke-linecap: square; stroke-linejoin: miter; }
      .glyph { fill: none; stroke: currentColor; stroke-width: 1.5; stroke-linecap: round; stroke-linejoin: round; }
      .glyph-claim { color: #1F5F7A; }
      .glyph-proxy { color: #1F5F7A; }
      .glyph-sim { color: #C44E52; }
      .glyph-impl { color: #1F5F7A; }
      .glyph-record { color: #6F7E86; }
    </style>
  </defs>

  <rect width="720" height="446" fill="#FFFFFF"/>
  <g class="font" transform="translate(0,-54)">


    <rect class="claim" x="62" y="126" width="102" height="72"/>
    <g class="glyph glyph-claim" transform="translate(73 143)">
      <rect x="0" y="0" width="14" height="18"/>
      <path d="M 4 7 L 11 7"/>
      <path d="M 4 12 L 9 12"/>
    </g>
    <text class="label" x="121" y="151" text-anchor="middle">claim</text>
    <text class="small" x="121" y="171" text-anchor="middle">task, intent,</text>
    <text class="small" x="121" y="188" text-anchor="middle">constraints</text>

    <rect class="proxy" x="192" y="126" width="112" height="72"/>
    <g class="glyph glyph-proxy" transform="translate(204 143)">
      <circle cx="8" cy="8" r="7"/>
      <path d="M 13 13 L 18 18"/>
    </g>
    <text class="label" x="257" y="151" text-anchor="middle">proxy</text>
    <text class="small" x="257" y="171" text-anchor="middle">models, rules,</text>
    <text class="small" x="257" y="188" text-anchor="middle">cheap runs</text>

    <rect class="sim" x="332" y="126" width="112" height="72"/>
    <g class="glyph glyph-sim" transform="translate(344 142)">
      <rect x="0" y="4" width="18" height="14"/>
      <path d="M 4 0 L 4 4"/>
      <path d="M 9 0 L 9 4"/>
      <path d="M 14 0 L 14 4"/>
    </g>
    <text class="label" x="398" y="151" text-anchor="middle">simulation</text>
    <text class="small" x="398" y="171" text-anchor="middle">workloads,</text>
    <text class="small" x="398" y="188" text-anchor="middle">configs, seeds</text>

    <rect class="impl" x="472" y="126" width="112" height="72"/>
    <g class="glyph glyph-impl" transform="translate(484 143)">
      <path d="M 2 4 L 8 10 L 2 16"/>
      <path d="M 10 16 L 18 16"/>
    </g>
    <text class="label" x="538" y="151" text-anchor="middle">build flow</text>
    <text class="small" x="538" y="171" text-anchor="middle">synthesis,</text>
    <text class="small" x="538" y="188" text-anchor="middle">emulation</text>

    <rect class="commit" x="602" y="126" width="84" height="72"/>
    <text class="label" x="644" y="151" text-anchor="middle">act</text>
    <text class="micro" x="644" y="171" text-anchor="middle">deploy</text>
    <text class="micro" x="644" y="188" text-anchor="middle">commit</text>

    <line class="arrow" x1="164" y1="162" x2="192" y2="162" marker-end="url(#arrow)"/>
    <line class="arrow" x1="304" y1="162" x2="332" y2="162" marker-end="url(#arrow)"/>
    <line class="arrow" x1="444" y1="162" x2="472" y2="162" marker-end="url(#arrow)"/>
    <line class="arrow" x1="584" y1="162" x2="602" y2="162" marker-end="url(#arrow)"/>

    <rect class="reject" x="190" y="230" width="116" height="50"/>
    <text class="small" x="248" y="250" text-anchor="middle">reject if proxy</text>
    <text class="small" x="248" y="267" text-anchor="middle">misses target</text>

    <rect class="reject" x="330" y="230" width="116" height="50"/>
    <text class="small" x="388" y="250" text-anchor="middle">reject if run</text>
    <text class="small" x="388" y="267" text-anchor="middle">is invalid</text>

    <rect class="reject" x="465" y="230" width="126" height="50"/>
    <text class="small" x="528" y="250" text-anchor="middle">reject if power/area</text>
    <text class="small" x="528" y="267" text-anchor="middle">or timing fails</text>

    <rect class="reject" x="601" y="230" width="86" height="50"/>
    <text class="micro" x="644" y="251" text-anchor="middle">human</text>
    <text class="micro" x="644" y="268" text-anchor="middle">hold</text>

    <line class="thin" x1="248" y1="198" x2="248" y2="230"/>
    <line class="thin" x1="388" y1="198" x2="388" y2="230"/>
    <line class="thin" x1="528" y1="198" x2="528" y2="230"/>
    <line class="thin" x1="644" y1="198" x2="644" y2="230"/>

    <rect class="record" x="82" y="312" width="556" height="70"/>
    <g class="glyph glyph-record" transform="translate(260 320)">
      <rect x="0" y="0" width="17" height="22"/>
      <path d="M 4 7 L 13 7"/>
      <path d="M 4 12 L 13 12"/>
      <path d="M 4 17 L 10 17"/>
    </g>
    <text class="label" x="374" y="334" text-anchor="middle">evidence record</text>
    <text class="small" x="360" y="354" text-anchor="middle">provenance, assumptions, workload versions, tool versions,</text>
    <text class="small" x="360" y="370" text-anchor="middle">uncertainty, rejected alternatives</text>

    <line class="arrow" x1="112" y1="412" x2="600" y2="412" marker-end="url(#arrow)"/>
    <text class="note" x="356" y="433" text-anchor="middle">fidelity, latency, cost, and commitment increase; acceptable autonomy narrows</text>
  </g>
</svg>
