<svg xmlns="http://www.w3.org/2000/svg" viewBox="0 0 720 390" role="img">
  <title>Evidence dispute anatomy</title>
  <desc>Diagram showing how a contested architecture claim becomes reviewable through feedback, fidelity, provenance, counterevidence, rejection authority, and human decision.</desc>
  <defs>
    <marker id="arrow" viewBox="0 0 10 10" refX="9" refY="5" markerWidth="8" markerHeight="8" orient="auto">
      <path d="M 0 0 L 10 5 L 0 10 z" fill="#333333"/>
    </marker>
    <style>
      .font { font-family: sans-serif; }
      .title { font-size: 17px; font-weight: 700; fill: #222222; }
      .label { font-size: 13.3px; font-weight: 700; fill: #222222; }
      .small { font-size: 11.2px; fill: #444444; }
      .note { font-size: 12px; font-weight: 700; fill: #1F5F7A; }
      .claim { fill: #EAF4F8; stroke: #1F5F7A; stroke-width: 1.5; }
      .packet { fill: #F4F1FA; stroke: #1F5F7A; stroke-width: 1.5; }
      .decision { fill: #FFF1F2; stroke: #C44E52; stroke-width: 1.5; }
      .reject { fill: #FFF1F2; stroke: #C44E52; stroke-width: 1.2; }
      .item { fill: #F8FAFC; stroke: #9AA8B5; stroke-width: 1.05; }
      .bar { fill: #F8FAFC; stroke: #9AA8B5; stroke-width: 1.1; }
      .arrow { stroke: #333333; stroke-width: 2; fill: none; stroke-linecap: square; }
      .glyph { fill: none; stroke: currentColor; stroke-width: 1.55; stroke-linecap: round; stroke-linejoin: round; }
      .glyph-claim { color: #1F5F7A; }
      .glyph-packet { color: #1F5F7A; }
      .glyph-accept { color: #1F5F7A; }
      .glyph-reject { color: #C44E52; }
    </style>
  </defs>

  <rect width="720" height="390" fill="#FFFFFF"/>
  <g class="font">
    <rect class="claim" x="48" y="105" width="145" height="96"/>
    <text class="title" x="120.5" y="136" text-anchor="middle">contested</text>
    <text class="title" x="120.5" y="157" text-anchor="middle">claim</text>
    <text class="small" x="120.5" y="178" text-anchor="middle">bounded task</text>
    <text class="small" x="120.5" y="191" text-anchor="middle">and commitment</text>

    <line class="arrow" x1="193" y1="153" x2="238" y2="153" marker-end="url(#arrow)"/>

    <rect class="packet" x="238" y="42" width="244" height="232"/>
    <g class="glyph glyph-packet" transform="translate(281 55)">
      <rect x="0" y="0" width="18" height="22"/>
      <path d="M 4 7 L 14 7"/>
      <path d="M 4 12 L 14 12"/>
      <path d="M 4 17 L 10 17"/>
    </g>
    <text class="title" x="370" y="72" text-anchor="middle">evidence packet</text>
    <rect class="item" x="266" y="94" width="188" height="27"/>
    <text class="label" x="360" y="112" text-anchor="middle">feedback and proxy</text>
    <rect class="item" x="266" y="130" width="188" height="27"/>
    <text class="label" x="360" y="148" text-anchor="middle">fidelity level</text>
    <rect class="item" x="266" y="166" width="188" height="27"/>
    <text class="label" x="360" y="184" text-anchor="middle">provenance and baseline</text>
    <rect class="item" x="266" y="202" width="188" height="27"/>
    <text class="label" x="360" y="220" text-anchor="middle">counterevidence</text>
    <rect class="item" x="266" y="238" width="188" height="27"/>
    <text class="label" x="360" y="256" text-anchor="middle">rejection authority</text>

    <line class="arrow" x1="482" y1="153" x2="527" y2="153" marker-end="url(#arrow)"/>

    <rect class="decision" x="527" y="76" width="145" height="54"/>
    <g class="glyph glyph-accept" transform="translate(544 91)">
      <path d="M 2 9 L 7 14 L 17 3"/>
    </g>
    <text class="label" x="610" y="98" text-anchor="middle">accept</text>
    <text class="small" x="610" y="116" text-anchor="middle">at stated level</text>

    <rect class="reject" x="527" y="146" width="145" height="54"/>
    <g class="glyph glyph-reject" transform="translate(544 160)">
      <path d="M 4 4 L 16 16"/>
      <path d="M 16 4 L 4 16"/>
    </g>
    <text class="label" x="610" y="168" text-anchor="middle">reject</text>
    <text class="small" x="610" y="186" text-anchor="middle">or invalidate</text>

    <rect class="decision" x="527" y="216" width="145" height="54"/>
    <g class="glyph glyph-accept" transform="translate(544 230)">
      <path d="M 3 15 L 15 3"/>
      <path d="M 15 3 L 15 11"/>
      <path d="M 15 3 L 7 3"/>
    </g>
    <text class="label" x="610" y="238" text-anchor="middle">escalate</text>
    <text class="small" x="610" y="256" text-anchor="middle">to stronger check</text>

    <rect class="bar" x="72" y="321" width="576" height="42"/>
    <text class="note" x="360" y="339" text-anchor="middle">trust disputes become tractable when evidence and baselines are visible</text>
    <text class="note" x="360" y="355" text-anchor="middle">the loop must also name the authority that can say no</text>
  </g>
</svg>
