<svg xmlns="http://www.w3.org/2000/svg" viewBox="0 0 900 370" role="img" aria-labelledby="title desc">
  <title id="title">Architecture 2.0 loop diagram</title>
  <desc id="desc">A human-governed architecture loop drawn as four circular nodes connected in a cycle. The architect's intent, a human goal, flows to agent synthesis, which explores alternatives with tools. Agent synthesis flows down to system evidence, the fidelity and metrics the tools return. Evidence flows to the loop decision, which accepts, rejects, or escalates, and the decision returns upward to the architect's intent, closing the loop. The two left nodes sit in a human-governed band; the two right nodes sit in an agent-and-tools band.</desc>
  <defs>
    <style>
      .font { font-family: Arial, Helvetica, sans-serif; }
      .section { fill: #136680; font-size: 13px; font-weight: 700; letter-spacing: 0.6px; }
      .label { fill: #20252B; font-size: 13px; font-weight: 700; }
      .sub { fill: #444444; font-size: 11.5px; }
      .arrow { fill: none; stroke: #333333; stroke-width: 2; stroke-linecap: square; }
      .return { fill: none; stroke: #1683A6; stroke-width: 2; stroke-linecap: square; }
      .ico { fill: none; stroke: #FFFFFF; stroke-linecap: round; stroke-linejoin: round; }
    </style>
    <marker id="arrowDark" viewBox="0 0 10 10" refX="9" refY="5" markerWidth="7" markerHeight="7" orient="auto">
      <path d="M 0 0 L 10 5 L 0 10 z" fill="#333333"/>
    </marker>
    <marker id="arrowTeal" viewBox="0 0 10 10" refX="9" refY="5" markerWidth="7" markerHeight="7" orient="auto">
      <path d="M 0 0 L 10 5 L 0 10 z" fill="#1683A6"/>
    </marker>
  </defs>

  <rect width="900" height="370" fill="#FFFFFF"/>
  <rect x="1" y="1" width="898" height="368" fill="#F5F8FA" stroke="#9AA8B5" stroke-width="1.1"/>

  <rect x="266" y="66" width="184" height="254" fill="#E4F1F6"/>
  <rect x="450" y="66" width="184" height="254" fill="#FBF0DE"/>

  <g class="font">
    <text x="42" y="43" class="section">HUMAN-GOVERNED ARCHITECTURE LOOP</text>
    <text x="858" y="43" class="section" text-anchor="end">AGENT + TOOLS</text>

    <path class="arrow" d="M 400 116 L 500 116" marker-end="url(#arrowDark)"/>
    <path class="arrow" d="M 540 156 L 540 244" marker-end="url(#arrowDark)"/>
    <path class="arrow" d="M 500 284 L 400 284" marker-end="url(#arrowDark)"/>
    <path class="return" d="M 360 244 L 360 156" marker-end="url(#arrowTeal)"/>

    <g>
      <circle cx="360" cy="116" r="40" fill="#1683A6"/>
      <circle cx="360" cy="116" r="14" class="ico" stroke-width="3.5"/>
      <circle cx="360" cy="116" r="4" fill="#FFFFFF"/>
      <text x="292" y="112" class="label" text-anchor="end">Architect's Intent</text>
      <text x="292" y="130" class="sub" text-anchor="end">Human goal</text>
    </g>
    <g>
      <circle cx="540" cy="116" r="40" fill="#E68A17"/>
      <rect x="525" y="105" width="30" height="24" class="ico" stroke-width="3.5"/>
      <path d="M533 105V96M547 105V96M521 116H511M559 116H569" class="ico" stroke-width="3.5"/>
      <circle cx="534" cy="118" r="3" fill="#FFFFFF"/>
      <circle cx="546" cy="118" r="3" fill="#FFFFFF"/>
      <text x="608" y="112" class="label">Agent Synthesis</text>
      <text x="608" y="130" class="sub">Exploration &amp; tools</text>
    </g>
    <g>
      <circle cx="540" cy="284" r="40" fill="#1E9E48"/>
      <path d="M522 283L535 296L562 266" class="ico" stroke-width="4.5"/>
      <text x="608" y="280" class="label">System Evidence</text>
      <text x="608" y="298" class="sub">Fidelity &amp; metrics</text>
    </g>
    <g>
      <circle cx="360" cy="284" r="40" fill="#D24D96"/>
      <path d="M351 270V300" class="ico" stroke-width="3.5"/>
      <path d="M372 276C372 287 364 290 354 290" class="ico" stroke-width="3.5"/>
      <circle cx="351" cy="270" r="4.2" fill="#FFFFFF"/>
      <circle cx="351" cy="300" r="4.2" fill="#FFFFFF"/>
      <circle cx="372" cy="272" r="4.2" fill="#FFFFFF"/>
      <text x="292" y="280" class="label" text-anchor="end">Loop Decision</text>
      <text x="292" y="298" class="sub" text-anchor="end">Accept, reject, escalate</text>
    </g>
  </g>
</svg>
