<svg xmlns="http://www.w3.org/2000/svg" viewBox="0 0 1200 630" role="img" aria-labelledby="title desc">
  <title id="title">Architecture 2.0 social card</title>
  <desc id="desc">Social preview card for Architecture 2.0: Designing AI-Assisted Loops for Computing Systems.</desc>
  <defs>
    <style>
      .serif { font-family: Georgia, "Times New Roman", serif; }
      .sans { font-family: Inter, -apple-system, BlinkMacSystemFont, "Segoe UI", sans-serif; }
      .title { fill: #20252B; font-weight: 700; }
      .muted { fill: #59636D; }
      .blue { fill: #1F5F7A; }
      .smallcaps { fill: #1F5F7A; font-family: Inter, -apple-system, BlinkMacSystemFont, "Segoe UI", sans-serif; font-size: 24px; font-weight: 750; letter-spacing: 5px; }
      .diagram-label { fill: #59636D; font-family: Inter, -apple-system, BlinkMacSystemFont, "Segoe UI", sans-serif; font-size: 16px; font-weight: 750; letter-spacing: 2px; }
    </style>
    <marker id="arrow" markerWidth="11" markerHeight="11" refX="9.5" refY="5.5" orient="auto" markerUnits="userSpaceOnUse">
      <path d="M0 0L11 5.5L0 11Z" fill="#1F5F7A"/>
    </marker>
  </defs>

  <rect width="1200" height="630" fill="#FFFFFF"/>
  <rect x="70" y="78" width="8" height="474" rx="4" fill="#12384A"/>

  <text x="118" y="150" class="smallcaps">PREVIEW EDITION</text>
  <rect x="118" y="178" width="92" height="4" rx="2" fill="#1F5F7A"/>

  <text x="118" y="300" class="serif title" font-size="80">Architecture 2.0</text>
  <text x="118" y="362" class="serif muted" font-size="28">Designing AI-Assisted Loops for Computing Systems</text>
  <text x="118" y="482" class="serif title" font-size="30">Vijay Janapa Reddi</text>
  <rect x="118" y="520" width="620" height="1.5" fill="#CCD6DD"/>
  <text x="118" y="556" class="sans muted" font-size="23">arch2.mlsysbook.ai</text>
  <text x="594" y="556" class="sans muted" font-size="23">Preview v0.1.0</text>

  <g transform="translate(792 150)">
    <rect x="0" y="0" width="360" height="336" rx="18" fill="#F7FAFB" stroke="#D2DCE3" stroke-width="1.5"/>
    <text x="26" y="40" class="diagram-label">HUMAN</text>
    <text x="196" y="40" class="diagram-label">AGENT + TOOLS</text>
    <circle cx="132" cy="143" r="20" fill="#FFFFFF" stroke="#20252B" stroke-width="2.5"/>
    <circle cx="132" cy="143" r="10" fill="none" stroke="#20252B" stroke-width="2.5"/>
    <circle cx="132" cy="143" r="3" fill="#20252B"/>
    <circle cx="230" cy="143" r="22" fill="#FFFFFF" stroke="#1F5F7A" stroke-width="2.5"/>
    <path d="M223 136h10a5 5 0 0 1 5 5v11a5 5 0 0 1-5 5h-10a5 5 0 0 1-5-5v-11a5 5 0 0 1 5-5z" fill="none" stroke="#1F5F7A" stroke-width="2.5"/>
    <path d="M222 136v-8M232 136v-8M218 145h-8M238 145h8" fill="none" stroke="#1F5F7A" stroke-width="2.5" stroke-linecap="round"/>
    <circle cx="132" cy="240" r="21" fill="#FFFFFF" stroke="#20252B" stroke-width="2.5"/>
    <path d="M125 231l7-7 7 7-7 7z" fill="none" stroke="#20252B" stroke-width="2.5" stroke-linejoin="round"/>
    <circle cx="230" cy="240" r="22" fill="#FFFFFF" stroke="#1F5F7A" stroke-width="2.5"/>
    <path d="M218 239l10 10 19-24" fill="none" stroke="#1F5F7A" stroke-width="4" stroke-linecap="round" stroke-linejoin="round"/>
    <path d="M153 143H202" fill="none" stroke="#1F5F7A" stroke-width="2.5" marker-end="url(#arrow)"/>
    <path d="M230 165V211" fill="none" stroke="#1F5F7A" stroke-width="2.5" marker-end="url(#arrow)"/>
    <path d="M208 240H161" fill="none" stroke="#1F5F7A" stroke-width="2.5" marker-end="url(#arrow)"/>
    <path d="M132 218V171" fill="none" stroke="#1F5F7A" stroke-width="2.5" marker-end="url(#arrow)"/>
  </g>
</svg>
