<svg xmlns="http://www.w3.org/2000/svg" viewBox="0 0 1200 1600" role="img" aria-labelledby="title desc">
  <title id="title">Architecture 2.0 cover</title>
  <desc id="desc">Preview cover for Architecture 2.0 showing a human-governed architecture loop connecting intent, agent synthesis, evidence, and decision.</desc>
  <defs>
    <style>
      .serif { font-family: Georgia, "Times New Roman", serif; }
      .sans { font-family: Inter, -apple-system, BlinkMacSystemFont, "Segoe UI", sans-serif; }
      .title { fill: #20252B; font-weight: 700; }
      .muted { fill: #59636D; }
      .blue { fill: #1F5F7A; }
      .blue-stroke { stroke: #1F5F7A; }
      .ink-stroke { stroke: #20252B; }
      .panel-stroke { stroke: #9AA8B5; }
      .grid { stroke: #E2E8ED; }
      .smallcaps { letter-spacing: 2.4px; font-weight: 700; }
    </style>
  </defs>

  <rect width="1200" height="1600" fill="#FFFFFF"/>
  <rect x="82" y="0" width="14" height="1600" fill="#1F5F7A"/>

  <text x="150" y="150" class="sans muted smallcaps" font-size="25">PREVIEW EDITION</text>
  <rect x="150" y="214" width="150" height="5" fill="#1F5F7A"/>
  <text x="150" y="330" class="serif title" font-size="88">Architecture 2.0</text>
  <text x="150" y="405" class="serif muted" font-size="38">AI-Assisted Computer Architecture</text>

  <g transform="translate(150 575)">
    <rect x="0" y="0" width="900" height="370" rx="0" fill="#F7FAFB" stroke="#9AA8B5" stroke-width="2"/>
    <g opacity="0.75">
      <path class="grid" d="M80 82H820M80 150H820M80 218H820M80 286H820" stroke-width="1"/>
      <path class="grid" d="M160 60V318M250 60V318M340 60V318M430 60V318M520 60V318M610 60V318M700 60V318" stroke-width="1"/>
    </g>
    <text x="45" y="48" class="sans muted smallcaps" font-size="15">HUMAN-GOVERNED ARCHITECTURE LOOP</text>
    <text x="750" y="48" class="sans muted smallcaps" font-size="15" text-anchor="end">AGENT + TOOLS</text>

    <path d="M270 70H450V330H270Z" fill="#EEF7FB" opacity="0.64"/>
    <path d="M450 70H630V330H450Z" fill="#F1F8F0" opacity="0.62"/>
    <circle cx="450" cy="200" r="104" fill="none" stroke="#9AA8B5" stroke-width="2" stroke-dasharray="8 7"/>

    <path d="M372 127C407 92 493 92 528 127" fill="none" stroke="#1F5F7A" stroke-width="4" marker-end="url(#arrow)"/>
    <path d="M575 152C610 190 610 250 575 288" fill="none" stroke="#1F5F7A" stroke-width="4" marker-end="url(#arrow)"/>
    <path d="M528 304C493 338 407 338 372 304" fill="none" stroke="#1F5F7A" stroke-width="4" marker-end="url(#arrow)"/>
    <path d="M325 288C290 250 290 190 325 152" fill="none" stroke="#1F5F7A" stroke-width="5" marker-end="url(#arrow)"/>

    <defs>
      <marker id="arrow" markerWidth="8" markerHeight="8" refX="7" refY="4" orient="auto">
        <path d="M0 0L8 4L0 8Z" fill="#1F5F7A"/>
      </marker>
    </defs>

    <g>
      <circle cx="360" cy="118" r="42" fill="#FFFFFF" stroke="#20252B" stroke-width="4"/>
      <circle cx="360" cy="118" r="14" fill="none" stroke="#20252B" stroke-width="4"/>
      <circle cx="360" cy="118" r="4" fill="#20252B"/>
      <text x="292" y="128" class="sans title" font-size="18" text-anchor="end">Architect's Intent</text>
      <text x="292" y="151" class="serif muted" font-size="13" text-anchor="end">Human goal</text>
    </g>

    <g>
      <circle cx="540" cy="118" r="42" fill="#FFFFFF" stroke="#1F5F7A" stroke-width="4"/>
      <rect x="524" y="106" width="32" height="25" rx="4" fill="none" stroke="#1F5F7A" stroke-width="4"/>
      <path d="M532 106V96M548 106V96M520 116H510M560 116H570" stroke="#1F5F7A" stroke-width="4" stroke-linecap="round"/>
      <circle cx="534" cy="119" r="3" fill="#1F5F7A"/>
      <circle cx="546" cy="119" r="3" fill="#1F5F7A"/>
      <text x="608" y="128" class="sans title" font-size="18">Agent Synthesis</text>
      <text x="608" y="151" class="serif muted" font-size="13">Exploration and tools</text>
    </g>

    <g>
      <circle cx="540" cy="282" r="42" fill="#FFFFFF" stroke="#1F5F7A" stroke-width="4"/>
      <path d="M521 281L535 295L562 265" fill="none" stroke="#1F5F7A" stroke-width="6" stroke-linecap="round" stroke-linejoin="round"/>
      <text x="608" y="290" class="sans title" font-size="18">System Evidence</text>
      <text x="608" y="313" class="serif muted" font-size="13">Fidelity and metrics</text>
    </g>

    <g>
      <circle cx="360" cy="282" r="42" fill="#FFFFFF" stroke="#20252B" stroke-width="4"/>
      <path d="M351 263V301M351 282H369M369 270V294" fill="none" stroke="#20252B" stroke-width="5" stroke-linecap="round"/>
      <circle cx="351" cy="263" r="5" fill="#20252B"/>
      <circle cx="351" cy="301" r="5" fill="#20252B"/>
      <circle cx="369" cy="270" r="5" fill="#20252B"/>
      <circle cx="369" cy="294" r="5" fill="#20252B"/>
      <text x="292" y="290" class="sans title" font-size="18" text-anchor="end">Loop Decision</text>
      <text x="292" y="313" class="serif muted" font-size="13" text-anchor="end">Accept, reject, escalate</text>
    </g>

    <path d="M78 236c0-34 19-60 52-60s52 26 52 60" fill="none" stroke="#20252B" stroke-width="4"/>
    <circle cx="130" cy="138" r="24" fill="none" stroke="#20252B" stroke-width="4"/>
    <rect x="710" y="166" width="60" height="50" rx="8" fill="none" stroke="#1F5F7A" stroke-width="4"/>
    <path d="M730 166V148M750 166V148M700 188H680M780 188H800" stroke="#1F5F7A" stroke-width="4" stroke-linecap="round"/>
    <circle cx="730" cy="190" r="5" fill="#1F5F7A"/>
    <circle cx="750" cy="190" r="5" fill="#1F5F7A"/>
  </g>

  <text x="150" y="1155" class="sans title" font-size="28">Work in progress</text>
  <text x="150" y="1220" class="serif muted" font-size="25">Preview edition for the ISCA 2026 Architecture 2.0 workshop.</text>
  <text x="150" y="1275" class="serif muted" font-size="23">arch2.mlsysbook.ai</text>
  <text x="150" y="1435" class="serif title" font-size="29">Vijay Janapa Reddi</text>
</svg>
