<svg xmlns="http://www.w3.org/2000/svg" width="64" height="64" viewBox="0 0 64 64"><rect width="64" height="64" rx="14" fill="#12384a"/><line x1="24.20" y1="19.00" x2="37.80" y2="19.00" stroke="#ffffff" stroke-width="2.20" stroke-linecap="round"/><path d="M 40.09 19.00 L 37.34 20.72 L 37.34 17.28 Z" fill="#ffffff"/><line x1="45.00" y1="24.20" x2="45.00" y2="37.80" stroke="#ffffff" stroke-width="2.20" stroke-linecap="round"/><path d="M 45.00 40.09 L 43.28 37.34 L 46.72 37.34 Z" fill="#ffffff"/><line x1="39.80" y1="45.00" x2="26.20" y2="45.00" stroke="#ffffff" stroke-width="2.20" stroke-linecap="round"/><path d="M 23.91 45.00 L 26.66 43.28 L 26.66 46.72 Z" fill="#ffffff"/><line x1="19.00" y1="39.80" x2="19.00" y2="26.20" stroke="#ffffff" stroke-width="2.20" stroke-linecap="round"/><path d="M 19.00 23.91 L 20.72 26.66 L 17.28 26.66 Z" fill="#ffffff"/><circle cx="19.00" cy="19.00" r="3.70" fill="#ffffff" stroke="#ffffff" stroke-width="2.40"/><circle cx="45.00" cy="19.00" r="3.70" fill="#ffffff" stroke="#ffffff" stroke-width="2.40"/><circle cx="45.00" cy="45.00" r="3.70" fill="#ffffff" stroke="#ffffff" stroke-width="2.40"/><circle cx="19.00" cy="45.00" r="3.70" fill="#ffffff" stroke="#ffffff" stroke-width="2.40"/><rect x="26.40" y="26.40" width="11.20" height="11.20" rx="1.12" fill="none" stroke="#ffffff" stroke-width="2.00"/><rect x="29.48" y="29.48" width="5.04" height="5.04" rx="0.55" fill="none" stroke="#ffffff" stroke-width="1.60"/><line x1="29.20" y1="26.40" x2="29.20" y2="23.60" stroke="#ffffff" stroke-width="2.00" stroke-linecap="round"/><line x1="29.20" y1="37.60" x2="29.20" y2="40.40" stroke="#ffffff" stroke-width="2.00" stroke-linecap="round"/><line x1="26.40" y1="29.20" x2="23.60" y2="29.20" stroke="#ffffff" stroke-width="2.00" stroke-linecap="round"/><line x1="37.60" y1="29.20" x2="40.40" y2="29.20" stroke="#ffffff" stroke-width="2.00" stroke-linecap="round"/><line x1="34.80" y1="26.40" x2="34.80" y2="23.60" stroke="#ffffff" stroke-width="2.00" stroke-linecap="round"/><line x1="34.80" y1="37.60" x2="34.80" y2="40.40" stroke="#ffffff" stroke-width="2.00" stroke-linecap="round"/><line x1="26.40" y1="34.80" x2="23.60" y2="34.80" stroke="#ffffff" stroke-width="2.00" stroke-linecap="round"/><line x1="37.60" y1="34.80" x2="40.40" y2="34.80" stroke="#ffffff" stroke-width="2.00" stroke-linecap="round"/></svg>
