<svg xmlns="http://www.w3.org/2000/svg" viewBox="0 0 740 390" role="img">
  <title>Evidence dispute anatomy</title>
  <desc>Flow diagram separating the evidence that makes a contested architecture claim reviewable from the named role authorized to decide it. A contested architecture claim box feeds an evidence packet containing feedback and proxy, fidelity and scope, provenance and baseline, and counterevidence with failed checks. The packet feeds a named review role that applies the declared rules and owns disposition. Three evenly spaced arrows leave the review role and land on three outcome boxes: accept at the stated level, reject or invalidate, and escalate to a stronger check. A bottom bar states that evidence makes the claim reviewable while a named role owns disposition, and that support, authority, and outcome remain separate.</desc>
  <defs>
    <marker id="arrow" viewBox="0 0 10 10" refX="9" refY="5" markerWidth="8" markerHeight="8" orient="auto">
      <path d="M 0 0 L 10 5 L 0 10 z" fill="#333333"/>
    </marker>
    <style>
      .font { font-family: Arial, Helvetica, sans-serif; }
      .title { font-size: 13.5px; font-weight: 700; fill: #222222; }
      .label { font-size: 13.3px; font-weight: 700; fill: #222222; }
      .small { font-size: 11.2px; fill: #444444; }
      .note { font-size: 12px; font-weight: 700; fill: #1683A6; }
      .claim { fill: #E4F1F6; stroke: #1683A6; stroke-width: 1.5; }
      .packet { fill: #F0ECFA; stroke: #6A4FC7; stroke-width: 1.5; }
      .review { fill: #FBF0DE; stroke: #E68A17; stroke-width: 1.5; }
      .accept { fill: #E7F5EC; stroke: #1E9E48; stroke-width: 1.5; }
      .escalate { fill: #FBF0DE; stroke: #E68A17; stroke-width: 1.5; }
      .reject { fill: #FDECEC; stroke: #DE3D3C; stroke-width: 1.5; }
      .item { fill: #F5F8FA; stroke: #9AA8B5; stroke-width: 1.05; }
      .bar { fill: #F5F8FA; stroke: #9AA8B5; stroke-width: 1.1; }
      .arrow { stroke: #333333; stroke-width: 2; fill: none; stroke-linecap: square; }
      .glyph { fill: none; stroke: currentColor; stroke-width: 1.55; stroke-linecap: round; stroke-linejoin: round; }
      .glyph-claim { color: #1683A6; }
      .glyph-packet { color: #6A4FC7; }
      .glyph-accept { color: #157A38; }
      .glyph-escalate { color: #8A5310; }
      .glyph-reject { color: #DE3D3C; }
    </style>
  </defs>

  <rect width="740" height="390" fill="#FFFFFF"/>
  <g class="font">
    <rect class="claim" x="30" y="105" width="130" height="100"/>
    <text class="title" x="95" y="134" text-anchor="middle">contested</text>
    <text class="title" x="95" y="152" text-anchor="middle">architecture</text>
    <text class="title" x="95" y="170" text-anchor="middle">claim</text>
    <text class="small" x="95" y="190" text-anchor="middle">scope + commitment</text>

    <line class="arrow" x1="160" y1="155" x2="185" y2="155" marker-end="url(#arrow)"/>

    <rect class="packet" x="185" y="45" width="240" height="220"/>
    <text class="title" x="305" y="73" text-anchor="middle">evidence packet</text>
    <rect class="item" x="208" y="94" width="194" height="28"/>
    <text class="label" x="305" y="113" text-anchor="middle">feedback + proxy</text>
    <rect class="item" x="208" y="132" width="194" height="28"/>
    <text class="label" x="305" y="151" text-anchor="middle">fidelity + scope</text>
    <rect class="item" x="208" y="170" width="194" height="28"/>
    <text class="label" x="305" y="189" text-anchor="middle">provenance + baseline</text>
    <rect class="item" x="208" y="204" width="194" height="46"/>
    <text class="label" x="305" y="222" text-anchor="middle">counterevidence</text>
    <text class="small" x="305" y="240" text-anchor="middle">+ failed checks</text>

    <line class="arrow" x1="425" y1="155" x2="445" y2="155" marker-end="url(#arrow)"/>

    <rect class="review" x="445" y="105" width="110" height="100"/>
    <text class="label" x="500" y="132" text-anchor="middle">named</text>
    <text class="label" x="500" y="149" text-anchor="middle">review role</text>
    <text class="small" x="500" y="174" text-anchor="middle">applies rules</text>
    <text class="small" x="500" y="190" text-anchor="middle">owns disposition</text>

    <path class="arrow" d="M 555 125 H 572.5 V 84 H 590" marker-end="url(#arrow)"/>
    <line class="arrow" x1="555" y1="155" x2="590" y2="155" marker-end="url(#arrow)"/>
    <path class="arrow" d="M 555 185 H 572.5 V 226 H 590" marker-end="url(#arrow)"/>

    <rect class="accept" x="590" y="55" width="130" height="58"/>
    <g class="glyph glyph-accept" transform="translate(604 70)">
      <path d="M 2 9 L 7 14 L 17 3"/>
    </g>
    <text class="label" x="664" y="78" text-anchor="middle">accept</text>
    <text class="small" x="664" y="96" text-anchor="middle">at stated level</text>

    <rect class="reject" x="590" y="126" width="130" height="58"/>
    <g class="glyph glyph-reject" transform="translate(604 141)">
      <path d="M 4 4 L 16 16"/>
      <path d="M 16 4 L 4 16"/>
    </g>
    <text class="label" x="664" y="149" text-anchor="middle">reject</text>
    <text class="small" x="664" y="167" text-anchor="middle">or invalidate</text>

    <rect class="escalate" x="590" y="197" width="130" height="58"/>
    <g class="glyph glyph-escalate" transform="translate(604 212)">
      <path d="M 3 15 L 15 3"/>
      <path d="M 15 3 L 15 11"/>
      <path d="M 15 3 L 7 3"/>
    </g>
    <text class="label" x="664" y="220" text-anchor="middle">escalate</text>
    <text class="small" x="664" y="238" text-anchor="middle">stronger check</text>

    <rect class="bar" x="82" y="321" width="576" height="42"/>
    <text class="note" x="370" y="339" text-anchor="middle">evidence makes the claim reviewable; a named role owns disposition</text>
    <text class="note" x="370" y="355" text-anchor="middle">support, authority, and outcome remain separate</text>
  </g>
</svg>
