<?xml version="1.0" encoding="utf-8" standalone="no"?>
<!DOCTYPE svg PUBLIC "-//W3C//DTD SVG 1.1//EN"
  "http://www.w3.org/Graphics/SVG/1.1/DTD/svg11.dtd">
<svg xmlns:xlink="http://www.w3.org/1999/xlink" width="403.2pt" height="216pt" viewBox="0 0 403.2 216" xmlns="http://www.w3.org/2000/svg" version="1.1">
 <metadata>
  <rdf:RDF xmlns:dc="http://purl.org/dc/elements/1.1/" xmlns:cc="http://creativecommons.org/ns#" xmlns:rdf="http://www.w3.org/1999/02/22-rdf-syntax-ns#">
   <cc:Work>
    <dc:type rdf:resource="http://purl.org/dc/dcmitype/StillImage"/>
    <dc:date>2026-07-20T18:48:02.226807</dc:date>
    <dc:format>image/svg+xml</dc:format>
    <dc:creator>
     <cc:Agent>
      <dc:title>Matplotlib v3.11.0, https://matplotlib.org/</dc:title>
     </cc:Agent>
    </dc:creator>
   </cc:Work>
  </rdf:RDF>
 </metadata>
 <defs>
  <style type="text/css">*{stroke-linejoin: round; stroke-linecap: butt}</style>
 </defs>
 <g id="figure_1">
  <g id="patch_1">
   <path d="M 0 216
L 403.2 216
L 403.2 0
L 0 0
z
" style="fill: #ffffff"/>
  </g>
  <g id="axes_1">
   <g id="patch_2">
    <path d="M 88.704 183.6
L 391.104 183.6
L 391.104 12.96
L 88.704 12.96
z
" style="fill: #ffffff"/>
   </g>
   <g id="matplotlib.axis_1">
    <g id="xtick_1">
     <g id="line2d_1">
      <path d="M 93.661377 183.6
L 93.661377 12.96
" clip-path="url(#pb69d285a0d)" style="fill: none; stroke: #e4e8ed; stroke-width: 0.4; stroke-linecap: square"/>
     </g>
     <g id="line2d_2">
      <defs>
       <path id="m772c1cb2bc" d="M 0 0
L 0 2.5
" style="stroke: #000000; stroke-width: 0.6"/>
      </defs>
      <g>
       <use xlink:href="#m772c1cb2bc" x="93.661377" y="183.6" style="stroke: #000000; stroke-width: 0.6"/>
      </g>
     </g>
     <g id="text_1">
      <!-- 0 -->
      <g transform="translate(91.881877 194.259375) scale(0.064 -0.064)">
       <defs>
        <path id="ArialMT-13" d="M 266 2259
Q 266 3072 433 3567
Q 600 4063 929 4331
Q 1259 4600 1759 4600
Q 2128 4600 2406 4451
Q 2684 4303 2865 4023
Q 3047 3744 3150 3342
Q 3253 2941 3253 2259
Q 3253 1453 3087 958
Q 2922 463 2592 192
Q 2263 -78 1759 -78
Q 1097 -78 719 397
Q 266 969 266 2259
z
M 844 2259
Q 844 1131 1108 757
Q 1372 384 1759 384
Q 2147 384 2411 759
Q 2675 1134 2675 2259
Q 2675 3391 2411 3762
Q 2147 4134 1753 4134
Q 1366 4134 1134 3806
Q 844 3388 844 2259
z
" transform="scale(0.015625)"/>
       </defs>
       <use xlink:href="#ArialMT-13"/>
      </g>
     </g>
    </g>
    <g id="xtick_2">
     <g id="line2d_3">
      <path d="M 143.235148 183.6
L 143.235148 12.96
" clip-path="url(#pb69d285a0d)" style="fill: none; stroke: #e4e8ed; stroke-width: 0.4; stroke-linecap: square"/>
     </g>
     <g id="line2d_4">
      <g>
       <use xlink:href="#m772c1cb2bc" x="143.235148" y="183.6" style="stroke: #000000; stroke-width: 0.6"/>
      </g>
     </g>
     <g id="text_2">
      <!-- 10 -->
      <g transform="translate(139.676148 194.259375) scale(0.064 -0.064)">
       <defs>
        <path id="ArialMT-14" d="M 2384 0
L 1822 0
L 1822 3584
Q 1619 3391 1289 3197
Q 959 3003 697 2906
L 697 3450
Q 1169 3672 1522 3987
Q 1875 4303 2022 4600
L 2384 4600
L 2384 0
z
" transform="scale(0.015625)"/>
       </defs>
       <use xlink:href="#ArialMT-14"/>
       <use xlink:href="#ArialMT-13" transform="translate(55.609375 0)"/>
      </g>
     </g>
    </g>
    <g id="xtick_3">
     <g id="line2d_5">
      <path d="M 192.808918 183.6
L 192.808918 12.96
" clip-path="url(#pb69d285a0d)" style="fill: none; stroke: #e4e8ed; stroke-width: 0.4; stroke-linecap: square"/>
     </g>
     <g id="line2d_6">
      <g>
       <use xlink:href="#m772c1cb2bc" x="192.808918" y="183.6" style="stroke: #000000; stroke-width: 0.6"/>
      </g>
     </g>
     <g id="text_3">
      <!-- 20 -->
      <g transform="translate(189.249918 194.259375) scale(0.064 -0.064)">
       <defs>
        <path id="ArialMT-15" d="M 3222 541
L 3222 0
L 194 0
Q 188 203 259 391
Q 375 700 629 1000
Q 884 1300 1366 1694
Q 2113 2306 2375 2664
Q 2638 3022 2638 3341
Q 2638 3675 2398 3904
Q 2159 4134 1775 4134
Q 1369 4134 1125 3890
Q 881 3647 878 3216
L 300 3275
Q 359 3922 746 4261
Q 1134 4600 1788 4600
Q 2447 4600 2831 4234
Q 3216 3869 3216 3328
Q 3216 3053 3103 2787
Q 2991 2522 2730 2228
Q 2469 1934 1863 1422
Q 1356 997 1212 845
Q 1069 694 975 541
L 3222 541
z
" transform="scale(0.015625)"/>
       </defs>
       <use xlink:href="#ArialMT-15"/>
       <use xlink:href="#ArialMT-13" transform="translate(55.609375 0)"/>
      </g>
     </g>
    </g>
    <g id="xtick_4">
     <g id="line2d_7">
      <path d="M 242.382689 183.6
L 242.382689 12.96
" clip-path="url(#pb69d285a0d)" style="fill: none; stroke: #e4e8ed; stroke-width: 0.4; stroke-linecap: square"/>
     </g>
     <g id="line2d_8">
      <g>
       <use xlink:href="#m772c1cb2bc" x="242.382689" y="183.6" style="stroke: #000000; stroke-width: 0.6"/>
      </g>
     </g>
     <g id="text_4">
      <!-- 30 -->
      <g transform="translate(238.823689 194.259375) scale(0.064 -0.064)">
       <defs>
        <path id="ArialMT-16" d="M 269 1209
L 831 1284
Q 928 806 1161 595
Q 1394 384 1728 384
Q 2125 384 2398 659
Q 2672 934 2672 1341
Q 2672 1728 2419 1979
Q 2166 2231 1775 2231
Q 1616 2231 1378 2169
L 1441 2663
Q 1497 2656 1531 2656
Q 1891 2656 2178 2843
Q 2466 3031 2466 3422
Q 2466 3731 2256 3934
Q 2047 4138 1716 4138
Q 1388 4138 1169 3931
Q 950 3725 888 3313
L 325 3413
Q 428 3978 793 4289
Q 1159 4600 1703 4600
Q 2078 4600 2393 4439
Q 2709 4278 2876 4000
Q 3044 3722 3044 3409
Q 3044 3113 2884 2869
Q 2725 2625 2413 2481
Q 2819 2388 3044 2092
Q 3269 1797 3269 1353
Q 3269 753 2831 336
Q 2394 -81 1725 -81
Q 1122 -81 723 278
Q 325 638 269 1209
z
" transform="scale(0.015625)"/>
       </defs>
       <use xlink:href="#ArialMT-16"/>
       <use xlink:href="#ArialMT-13" transform="translate(55.609375 0)"/>
      </g>
     </g>
    </g>
    <g id="xtick_5">
     <g id="line2d_9">
      <path d="M 291.956459 183.6
L 291.956459 12.96
" clip-path="url(#pb69d285a0d)" style="fill: none; stroke: #e4e8ed; stroke-width: 0.4; stroke-linecap: square"/>
     </g>
     <g id="line2d_10">
      <g>
       <use xlink:href="#m772c1cb2bc" x="291.956459" y="183.6" style="stroke: #000000; stroke-width: 0.6"/>
      </g>
     </g>
     <g id="text_5">
      <!-- 40 -->
      <g transform="translate(288.397459 194.259375) scale(0.064 -0.064)">
       <defs>
        <path id="ArialMT-17" d="M 2069 0
L 2069 1097
L 81 1097
L 81 1613
L 2172 4581
L 2631 4581
L 2631 1613
L 3250 1613
L 3250 1097
L 2631 1097
L 2631 0
L 2069 0
z
M 2069 1613
L 2069 3678
L 634 1613
L 2069 1613
z
" transform="scale(0.015625)"/>
       </defs>
       <use xlink:href="#ArialMT-17"/>
       <use xlink:href="#ArialMT-13" transform="translate(55.609375 0)"/>
      </g>
     </g>
    </g>
    <g id="xtick_6">
     <g id="line2d_11">
      <path d="M 341.53023 183.6
L 341.53023 12.96
" clip-path="url(#pb69d285a0d)" style="fill: none; stroke: #e4e8ed; stroke-width: 0.4; stroke-linecap: square"/>
     </g>
     <g id="line2d_12">
      <g>
       <use xlink:href="#m772c1cb2bc" x="341.53023" y="183.6" style="stroke: #000000; stroke-width: 0.6"/>
      </g>
     </g>
     <g id="text_6">
      <!-- 50 -->
      <g transform="translate(337.97123 194.259375) scale(0.064 -0.064)">
       <defs>
        <path id="ArialMT-18" d="M 266 1200
L 856 1250
Q 922 819 1161 601
Q 1400 384 1738 384
Q 2144 384 2425 690
Q 2706 997 2706 1503
Q 2706 1984 2436 2262
Q 2166 2541 1728 2541
Q 1456 2541 1237 2417
Q 1019 2294 894 2097
L 366 2166
L 809 4519
L 3088 4519
L 3088 3981
L 1259 3981
L 1013 2750
Q 1425 3038 1878 3038
Q 2478 3038 2890 2622
Q 3303 2206 3303 1553
Q 3303 931 2941 478
Q 2500 -78 1738 -78
Q 1113 -78 717 272
Q 322 622 266 1200
z
" transform="scale(0.015625)"/>
       </defs>
       <use xlink:href="#ArialMT-18"/>
       <use xlink:href="#ArialMT-13" transform="translate(55.609375 0)"/>
      </g>
     </g>
    </g>
    <g id="text_7">
     <!-- Reported slowdown vs. unmitigated (%) -->
     <g transform="translate(176.47875 204.848047) scale(0.072 -0.072)">
      <defs>
       <path id="ArialMT-35" d="M 503 0
L 503 4581
L 2534 4581
Q 3147 4581 3465 4457
Q 3784 4334 3975 4021
Q 4166 3709 4166 3331
Q 4166 2844 3850 2509
Q 3534 2175 2875 2084
Q 3116 1969 3241 1856
Q 3506 1613 3744 1247
L 4541 0
L 3778 0
L 3172 953
Q 2906 1366 2734 1584
Q 2563 1803 2427 1890
Q 2291 1978 2150 2013
Q 2047 2034 1813 2034
L 1109 2034
L 1109 0
L 503 0
z
M 1109 2559
L 2413 2559
Q 2828 2559 3062 2645
Q 3297 2731 3419 2920
Q 3541 3109 3541 3331
Q 3541 3656 3305 3865
Q 3069 4075 2559 4075
L 1109 4075
L 1109 2559
z
" transform="scale(0.015625)"/>
       <path id="ArialMT-48" d="M 2694 1069
L 3275 997
Q 3138 488 2766 206
Q 2394 -75 1816 -75
Q 1088 -75 661 373
Q 234 822 234 1631
Q 234 2469 665 2931
Q 1097 3394 1784 3394
Q 2450 3394 2872 2941
Q 3294 2488 3294 1666
Q 3294 1616 3291 1516
L 816 1516
Q 847 969 1125 678
Q 1403 388 1819 388
Q 2128 388 2347 550
Q 2566 713 2694 1069
z
M 847 1978
L 2700 1978
Q 2663 2397 2488 2606
Q 2219 2931 1791 2931
Q 1403 2931 1139 2672
Q 875 2413 847 1978
z
" transform="scale(0.015625)"/>
       <path id="ArialMT-53" d="M 422 -1272
L 422 3319
L 934 3319
L 934 2888
Q 1116 3141 1344 3267
Q 1572 3394 1897 3394
Q 2322 3394 2647 3175
Q 2972 2956 3137 2557
Q 3303 2159 3303 1684
Q 3303 1175 3120 767
Q 2938 359 2589 142
Q 2241 -75 1856 -75
Q 1575 -75 1351 44
Q 1128 163 984 344
L 984 -1272
L 422 -1272
z
M 931 1641
Q 931 1000 1190 694
Q 1450 388 1819 388
Q 2194 388 2461 705
Q 2728 1022 2728 1688
Q 2728 2322 2467 2637
Q 2206 2953 1844 2953
Q 1484 2953 1207 2617
Q 931 2281 931 1641
z
" transform="scale(0.015625)"/>
       <path id="ArialMT-52" d="M 213 1659
Q 213 2581 725 3025
Q 1153 3394 1769 3394
Q 2453 3394 2887 2945
Q 3322 2497 3322 1706
Q 3322 1066 3130 698
Q 2938 331 2570 128
Q 2203 -75 1769 -75
Q 1072 -75 642 372
Q 213 819 213 1659
z
M 791 1659
Q 791 1022 1069 705
Q 1347 388 1769 388
Q 2188 388 2466 706
Q 2744 1025 2744 1678
Q 2744 2294 2464 2611
Q 2184 2928 1769 2928
Q 1347 2928 1069 2612
Q 791 2297 791 1659
z
" transform="scale(0.015625)"/>
       <path id="ArialMT-55" d="M 416 0
L 416 3319
L 922 3319
L 922 2816
Q 1116 3169 1280 3281
Q 1444 3394 1641 3394
Q 1925 3394 2219 3213
L 2025 2691
Q 1819 2813 1613 2813
Q 1428 2813 1281 2702
Q 1134 2591 1072 2394
Q 978 2094 978 1738
L 978 0
L 416 0
z
" transform="scale(0.015625)"/>
       <path id="ArialMT-57" d="M 1650 503
L 1731 6
Q 1494 -44 1306 -44
Q 1000 -44 831 53
Q 663 150 594 308
Q 525 466 525 972
L 525 2881
L 113 2881
L 113 3319
L 525 3319
L 525 4141
L 1084 4478
L 1084 3319
L 1650 3319
L 1650 2881
L 1084 2881
L 1084 941
Q 1084 700 1114 631
Q 1144 563 1211 522
Q 1278 481 1403 481
Q 1497 481 1650 503
z
" transform="scale(0.015625)"/>
       <path id="ArialMT-47" d="M 2575 0
L 2575 419
Q 2259 -75 1647 -75
Q 1250 -75 917 144
Q 584 363 401 755
Q 219 1147 219 1656
Q 219 2153 384 2558
Q 550 2963 881 3178
Q 1213 3394 1622 3394
Q 1922 3394 2156 3267
Q 2391 3141 2538 2938
L 2538 4581
L 3097 4581
L 3097 0
L 2575 0
z
M 797 1656
Q 797 1019 1065 703
Q 1334 388 1700 388
Q 2069 388 2326 689
Q 2584 991 2584 1609
Q 2584 2291 2321 2609
Q 2059 2928 1675 2928
Q 1300 2928 1048 2622
Q 797 2316 797 1656
z
" transform="scale(0.015625)"/>
       <path id="ArialMT-3" transform="scale(0.015625)"/>
       <path id="ArialMT-56" d="M 197 991
L 753 1078
Q 800 744 1014 566
Q 1228 388 1613 388
Q 2000 388 2187 545
Q 2375 703 2375 916
Q 2375 1106 2209 1216
Q 2094 1291 1634 1406
Q 1016 1563 777 1677
Q 538 1791 414 1992
Q 291 2194 291 2438
Q 291 2659 392 2848
Q 494 3038 669 3163
Q 800 3259 1026 3326
Q 1253 3394 1513 3394
Q 1903 3394 2198 3281
Q 2494 3169 2634 2976
Q 2775 2784 2828 2463
L 2278 2388
Q 2241 2644 2061 2787
Q 1881 2931 1553 2931
Q 1166 2931 1000 2803
Q 834 2675 834 2503
Q 834 2394 903 2306
Q 972 2216 1119 2156
Q 1203 2125 1616 2013
Q 2213 1853 2448 1751
Q 2684 1650 2818 1456
Q 2953 1263 2953 975
Q 2953 694 2789 445
Q 2625 197 2315 61
Q 2006 -75 1616 -75
Q 969 -75 630 194
Q 291 463 197 991
z
" transform="scale(0.015625)"/>
       <path id="ArialMT-4f" d="M 409 0
L 409 4581
L 972 4581
L 972 0
L 409 0
z
" transform="scale(0.015625)"/>
       <path id="ArialMT-5a" d="M 1034 0
L 19 3319
L 600 3319
L 1128 1403
L 1325 691
Q 1338 744 1497 1375
L 2025 3319
L 2603 3319
L 3100 1394
L 3266 759
L 3456 1400
L 4025 3319
L 4572 3319
L 3534 0
L 2950 0
L 2422 1988
L 2294 2553
L 1622 0
L 1034 0
z
" transform="scale(0.015625)"/>
       <path id="ArialMT-51" d="M 422 0
L 422 3319
L 928 3319
L 928 2847
Q 1294 3394 1984 3394
Q 2284 3394 2536 3286
Q 2788 3178 2913 3003
Q 3038 2828 3088 2588
Q 3119 2431 3119 2041
L 3119 0
L 2556 0
L 2556 2019
Q 2556 2363 2490 2533
Q 2425 2703 2258 2804
Q 2091 2906 1866 2906
Q 1506 2906 1245 2678
Q 984 2450 984 1813
L 984 0
L 422 0
z
" transform="scale(0.015625)"/>
       <path id="ArialMT-59" d="M 1344 0
L 81 3319
L 675 3319
L 1388 1331
Q 1503 1009 1600 663
Q 1675 925 1809 1294
L 2547 3319
L 3125 3319
L 1869 0
L 1344 0
z
" transform="scale(0.015625)"/>
       <path id="ArialMT-11" d="M 581 0
L 581 641
L 1222 641
L 1222 0
L 581 0
z
" transform="scale(0.015625)"/>
       <path id="ArialMT-58" d="M 2597 0
L 2597 488
Q 2209 -75 1544 -75
Q 1250 -75 995 37
Q 741 150 617 320
Q 494 491 444 738
Q 409 903 409 1263
L 409 3319
L 972 3319
L 972 1478
Q 972 1038 1006 884
Q 1059 663 1231 536
Q 1403 409 1656 409
Q 1909 409 2131 539
Q 2353 669 2445 892
Q 2538 1116 2538 1541
L 2538 3319
L 3100 3319
L 3100 0
L 2597 0
z
" transform="scale(0.015625)"/>
       <path id="ArialMT-50" d="M 422 0
L 422 3319
L 925 3319
L 925 2853
Q 1081 3097 1340 3245
Q 1600 3394 1931 3394
Q 2300 3394 2536 3241
Q 2772 3088 2869 2813
Q 3263 3394 3894 3394
Q 4388 3394 4653 3120
Q 4919 2847 4919 2278
L 4919 0
L 4359 0
L 4359 2091
Q 4359 2428 4304 2576
Q 4250 2725 4106 2815
Q 3963 2906 3769 2906
Q 3419 2906 3187 2673
Q 2956 2441 2956 1928
L 2956 0
L 2394 0
L 2394 2156
Q 2394 2531 2256 2718
Q 2119 2906 1806 2906
Q 1569 2906 1367 2781
Q 1166 2656 1075 2415
Q 984 2175 984 1722
L 984 0
L 422 0
z
" transform="scale(0.015625)"/>
       <path id="ArialMT-4c" d="M 425 3934
L 425 4581
L 988 4581
L 988 3934
L 425 3934
z
M 425 0
L 425 3319
L 988 3319
L 988 0
L 425 0
z
" transform="scale(0.015625)"/>
       <path id="ArialMT-4a" d="M 319 -275
L 866 -356
Q 900 -609 1056 -725
Q 1266 -881 1628 -881
Q 2019 -881 2231 -725
Q 2444 -569 2519 -288
Q 2563 -116 2559 434
Q 2191 0 1641 0
Q 956 0 581 494
Q 206 988 206 1678
Q 206 2153 378 2554
Q 550 2956 876 3175
Q 1203 3394 1644 3394
Q 2231 3394 2613 2919
L 2613 3319
L 3131 3319
L 3131 450
Q 3131 -325 2973 -648
Q 2816 -972 2473 -1159
Q 2131 -1347 1631 -1347
Q 1038 -1347 672 -1080
Q 306 -813 319 -275
z
M 784 1719
Q 784 1066 1043 766
Q 1303 466 1694 466
Q 2081 466 2343 764
Q 2606 1063 2606 1700
Q 2606 2309 2336 2618
Q 2066 2928 1684 2928
Q 1309 2928 1046 2623
Q 784 2319 784 1719
z
" transform="scale(0.015625)"/>
       <path id="ArialMT-44" d="M 2588 409
Q 2275 144 1986 34
Q 1697 -75 1366 -75
Q 819 -75 525 192
Q 231 459 231 875
Q 231 1119 342 1320
Q 453 1522 633 1644
Q 813 1766 1038 1828
Q 1203 1872 1538 1913
Q 2219 1994 2541 2106
Q 2544 2222 2544 2253
Q 2544 2597 2384 2738
Q 2169 2928 1744 2928
Q 1347 2928 1158 2789
Q 969 2650 878 2297
L 328 2372
Q 403 2725 575 2942
Q 747 3159 1072 3276
Q 1397 3394 1825 3394
Q 2250 3394 2515 3294
Q 2781 3194 2906 3042
Q 3031 2891 3081 2659
Q 3109 2516 3109 2141
L 3109 1391
Q 3109 606 3145 398
Q 3181 191 3288 0
L 2700 0
Q 2613 175 2588 409
z
M 2541 1666
Q 2234 1541 1622 1453
Q 1275 1403 1131 1340
Q 988 1278 909 1158
Q 831 1038 831 891
Q 831 666 1001 516
Q 1172 366 1500 366
Q 1825 366 2078 508
Q 2331 650 2450 897
Q 2541 1088 2541 1459
L 2541 1666
z
" transform="scale(0.015625)"/>
       <path id="ArialMT-b" d="M 1497 -1347
Q 1031 -759 709 28
Q 388 816 388 1659
Q 388 2403 628 3084
Q 909 3875 1497 4659
L 1900 4659
Q 1522 4009 1400 3731
Q 1209 3300 1100 2831
Q 966 2247 966 1656
Q 966 153 1900 -1347
L 1497 -1347
z
" transform="scale(0.015625)"/>
       <path id="ArialMT-8" d="M 372 3481
Q 372 3972 619 4315
Q 866 4659 1334 4659
Q 1766 4659 2048 4351
Q 2331 4044 2331 3447
Q 2331 2866 2045 2552
Q 1759 2238 1341 2238
Q 925 2238 648 2547
Q 372 2856 372 3481
z
M 1350 4272
Q 1141 4272 1002 4090
Q 863 3909 863 3425
Q 863 2984 1003 2804
Q 1144 2625 1350 2625
Q 1563 2625 1702 2806
Q 1841 2988 1841 3469
Q 1841 3913 1700 4092
Q 1559 4272 1350 4272
z
M 1353 -169
L 3859 4659
L 4316 4659
L 1819 -169
L 1353 -169
z
M 3334 1075
Q 3334 1569 3581 1911
Q 3828 2253 4300 2253
Q 4731 2253 5014 1945
Q 5297 1638 5297 1041
Q 5297 459 5011 145
Q 4725 -169 4303 -169
Q 3888 -169 3611 142
Q 3334 453 3334 1075
z
M 4316 1866
Q 4103 1866 3964 1684
Q 3825 1503 3825 1019
Q 3825 581 3965 400
Q 4106 219 4313 219
Q 4528 219 4667 400
Q 4806 581 4806 1063
Q 4806 1506 4665 1686
Q 4525 1866 4316 1866
z
" transform="scale(0.015625)"/>
       <path id="ArialMT-c" d="M 791 -1347
L 388 -1347
Q 1322 153 1322 1656
Q 1322 2244 1188 2822
Q 1081 3291 891 3722
Q 769 4003 388 4659
L 791 4659
Q 1378 3875 1659 3084
Q 1900 2403 1900 1659
Q 1900 816 1576 28
Q 1253 -759 791 -1347
z
" transform="scale(0.015625)"/>
      </defs>
      <use xlink:href="#ArialMT-35"/>
      <use xlink:href="#ArialMT-48" transform="translate(72.21875 0)"/>
      <use xlink:href="#ArialMT-53" transform="translate(127.828125 0)"/>
      <use xlink:href="#ArialMT-52" transform="translate(183.4375 0)"/>
      <use xlink:href="#ArialMT-55" transform="translate(239.046875 0)"/>
      <use xlink:href="#ArialMT-57" transform="translate(272.34375 0)"/>
      <use xlink:href="#ArialMT-48" transform="translate(300.125 0)"/>
      <use xlink:href="#ArialMT-47" transform="translate(355.734375 0)"/>
      <use xlink:href="#ArialMT-3" transform="translate(411.34375 0)"/>
      <use xlink:href="#ArialMT-56" transform="translate(439.125 0)"/>
      <use xlink:href="#ArialMT-4f" transform="translate(489.125 0)"/>
      <use xlink:href="#ArialMT-52" transform="translate(511.34375 0)"/>
      <use xlink:href="#ArialMT-5a" transform="translate(566.953125 0)"/>
      <use xlink:href="#ArialMT-47" transform="translate(639.171875 0)"/>
      <use xlink:href="#ArialMT-52" transform="translate(694.78125 0)"/>
      <use xlink:href="#ArialMT-5a" transform="translate(750.390625 0)"/>
      <use xlink:href="#ArialMT-51" transform="translate(822.609375 0)"/>
      <use xlink:href="#ArialMT-3" transform="translate(878.21875 0)"/>
      <use xlink:href="#ArialMT-59" transform="translate(906 0)"/>
      <use xlink:href="#ArialMT-56" transform="translate(956 0)"/>
      <use xlink:href="#ArialMT-11" transform="translate(1006 0)"/>
      <use xlink:href="#ArialMT-3" transform="translate(1033.78125 0)"/>
      <use xlink:href="#ArialMT-58" transform="translate(1061.5625 0)"/>
      <use xlink:href="#ArialMT-51" transform="translate(1117.171875 0)"/>
      <use xlink:href="#ArialMT-50" transform="translate(1172.78125 0)"/>
      <use xlink:href="#ArialMT-4c" transform="translate(1256.078125 0)"/>
      <use xlink:href="#ArialMT-57" transform="translate(1278.296875 0)"/>
      <use xlink:href="#ArialMT-4c" transform="translate(1306.078125 0)"/>
      <use xlink:href="#ArialMT-4a" transform="translate(1328.296875 0)"/>
      <use xlink:href="#ArialMT-44" transform="translate(1383.90625 0)"/>
      <use xlink:href="#ArialMT-57" transform="translate(1439.515625 0)"/>
      <use xlink:href="#ArialMT-48" transform="translate(1467.296875 0)"/>
      <use xlink:href="#ArialMT-47" transform="translate(1522.90625 0)"/>
      <use xlink:href="#ArialMT-3" transform="translate(1578.515625 0)"/>
      <use xlink:href="#ArialMT-b" transform="translate(1606.296875 0)"/>
      <use xlink:href="#ArialMT-8" transform="translate(1639.59375 0)"/>
      <use xlink:href="#ArialMT-c" transform="translate(1728.515625 0)"/>
     </g>
    </g>
   </g>
   <g id="matplotlib.axis_2">
    <g id="ytick_1">
     <g id="line2d_13">
      <defs>
       <path id="m3acb3aab2c" d="M 0 0
L -2.5 0
" style="stroke: #000000; stroke-width: 0.6"/>
      </defs>
      <g>
       <use xlink:href="#m3acb3aab2c" x="88.704" y="167.21856" style="stroke: #000000; stroke-width: 0.6"/>
      </g>
     </g>
     <g id="text_8">
      <!-- KPTI (Meltdown) -->
      <g transform="translate(35.05 169.548248) scale(0.064 -0.064)">
       <defs>
        <path id="ArialMT-2e" d="M 469 0
L 469 4581
L 1075 4581
L 1075 2309
L 3350 4581
L 4172 4581
L 2250 2725
L 4256 0
L 3456 0
L 1825 2319
L 1075 1588
L 1075 0
L 469 0
z
" transform="scale(0.015625)"/>
        <path id="ArialMT-33" d="M 494 0
L 494 4581
L 2222 4581
Q 2678 4581 2919 4538
Q 3256 4481 3484 4323
Q 3713 4166 3852 3881
Q 3991 3597 3991 3256
Q 3991 2672 3619 2267
Q 3247 1863 2275 1863
L 1100 1863
L 1100 0
L 494 0
z
M 1100 2403
L 2284 2403
Q 2872 2403 3119 2622
Q 3366 2841 3366 3238
Q 3366 3525 3220 3729
Q 3075 3934 2838 4000
Q 2684 4041 2272 4041
L 1100 4041
L 1100 2403
z
" transform="scale(0.015625)"/>
        <path id="ArialMT-37" d="M 1659 0
L 1659 4041
L 150 4041
L 150 4581
L 3781 4581
L 3781 4041
L 2266 4041
L 2266 0
L 1659 0
z
" transform="scale(0.015625)"/>
        <path id="ArialMT-2c" d="M 597 0
L 597 4581
L 1203 4581
L 1203 0
L 597 0
z
" transform="scale(0.015625)"/>
        <path id="ArialMT-30" d="M 475 0
L 475 4581
L 1388 4581
L 2472 1338
Q 2622 884 2691 659
Q 2769 909 2934 1394
L 4031 4581
L 4847 4581
L 4847 0
L 4263 0
L 4263 3834
L 2931 0
L 2384 0
L 1059 3900
L 1059 0
L 475 0
z
" transform="scale(0.015625)"/>
       </defs>
       <use xlink:href="#ArialMT-2e"/>
       <use xlink:href="#ArialMT-33" transform="translate(66.703125 0)"/>
       <use xlink:href="#ArialMT-37" transform="translate(133.40625 0)"/>
       <use xlink:href="#ArialMT-2c" transform="translate(194.484375 0)"/>
       <use xlink:href="#ArialMT-3" transform="translate(222.265625 0)"/>
       <use xlink:href="#ArialMT-b" transform="translate(250.046875 0)"/>
       <use xlink:href="#ArialMT-30" transform="translate(283.34375 0)"/>
       <use xlink:href="#ArialMT-48" transform="translate(366.640625 0)"/>
       <use xlink:href="#ArialMT-4f" transform="translate(422.25 0)"/>
       <use xlink:href="#ArialMT-57" transform="translate(444.46875 0)"/>
       <use xlink:href="#ArialMT-47" transform="translate(472.25 0)"/>
       <use xlink:href="#ArialMT-52" transform="translate(527.859375 0)"/>
       <use xlink:href="#ArialMT-5a" transform="translate(583.46875 0)"/>
       <use xlink:href="#ArialMT-51" transform="translate(655.6875 0)"/>
       <use xlink:href="#ArialMT-c" transform="translate(711.296875 0)"/>
      </g>
     </g>
    </g>
    <g id="ytick_2">
     <g id="line2d_14">
      <g>
       <use xlink:href="#m3acb3aab2c" x="88.704" y="139.91616" style="stroke: #000000; stroke-width: 0.6"/>
      </g>
     </g>
     <g id="text_9">
      <!-- SSBD (Spectre-v4) -->
      <g transform="translate(28.29 142.245847) scale(0.064 -0.064)">
       <defs>
        <path id="ArialMT-36" d="M 288 1472
L 859 1522
Q 900 1178 1048 958
Q 1197 738 1509 602
Q 1822 466 2213 466
Q 2559 466 2825 569
Q 3091 672 3220 851
Q 3350 1031 3350 1244
Q 3350 1459 3225 1620
Q 3100 1781 2813 1891
Q 2628 1963 1997 2114
Q 1366 2266 1113 2400
Q 784 2572 623 2826
Q 463 3081 463 3397
Q 463 3744 659 4045
Q 856 4347 1234 4503
Q 1613 4659 2075 4659
Q 2584 4659 2973 4495
Q 3363 4331 3572 4012
Q 3781 3694 3797 3291
L 3216 3247
Q 3169 3681 2898 3903
Q 2628 4125 2100 4125
Q 1550 4125 1298 3923
Q 1047 3722 1047 3438
Q 1047 3191 1225 3031
Q 1400 2872 2139 2705
Q 2878 2538 3153 2413
Q 3553 2228 3743 1945
Q 3934 1663 3934 1294
Q 3934 928 3725 604
Q 3516 281 3123 101
Q 2731 -78 2241 -78
Q 1619 -78 1198 103
Q 778 284 539 648
Q 300 1013 288 1472
z
" transform="scale(0.015625)"/>
        <path id="ArialMT-25" d="M 469 0
L 469 4581
L 2188 4581
Q 2713 4581 3030 4442
Q 3347 4303 3526 4014
Q 3706 3725 3706 3409
Q 3706 3116 3547 2856
Q 3388 2597 3066 2438
Q 3481 2316 3704 2022
Q 3928 1728 3928 1328
Q 3928 1006 3792 729
Q 3656 453 3456 303
Q 3256 153 2954 76
Q 2653 0 2216 0
L 469 0
z
M 1075 2656
L 2066 2656
Q 2469 2656 2644 2709
Q 2875 2778 2992 2937
Q 3109 3097 3109 3338
Q 3109 3566 3000 3739
Q 2891 3913 2687 3977
Q 2484 4041 1991 4041
L 1075 4041
L 1075 2656
z
M 1075 541
L 2216 541
Q 2509 541 2628 563
Q 2838 600 2978 687
Q 3119 775 3209 942
Q 3300 1109 3300 1328
Q 3300 1584 3169 1773
Q 3038 1963 2805 2039
Q 2572 2116 2134 2116
L 1075 2116
L 1075 541
z
" transform="scale(0.015625)"/>
        <path id="ArialMT-27" d="M 494 0
L 494 4581
L 2072 4581
Q 2606 4581 2888 4516
Q 3281 4425 3559 4188
Q 3922 3881 4101 3404
Q 4281 2928 4281 2316
Q 4281 1794 4159 1391
Q 4038 988 3847 723
Q 3656 459 3429 307
Q 3203 156 2883 78
Q 2563 0 2147 0
L 494 0
z
M 1100 541
L 2078 541
Q 2531 541 2789 625
Q 3047 709 3200 863
Q 3416 1078 3536 1442
Q 3656 1806 3656 2325
Q 3656 3044 3420 3430
Q 3184 3816 2847 3947
Q 2603 4041 2063 4041
L 1100 4041
L 1100 541
z
" transform="scale(0.015625)"/>
        <path id="ArialMT-46" d="M 2588 1216
L 3141 1144
Q 3050 572 2676 248
Q 2303 -75 1759 -75
Q 1078 -75 664 370
Q 250 816 250 1647
Q 250 2184 428 2587
Q 606 2991 970 3192
Q 1334 3394 1763 3394
Q 2303 3394 2647 3120
Q 2991 2847 3088 2344
L 2541 2259
Q 2463 2594 2264 2762
Q 2066 2931 1784 2931
Q 1359 2931 1093 2626
Q 828 2322 828 1663
Q 828 994 1084 691
Q 1341 388 1753 388
Q 2084 388 2306 591
Q 2528 794 2588 1216
z
" transform="scale(0.015625)"/>
        <path id="ArialMT-10" d="M 203 1375
L 203 1941
L 1931 1941
L 1931 1375
L 203 1375
z
" transform="scale(0.015625)"/>
       </defs>
       <use xlink:href="#ArialMT-36"/>
       <use xlink:href="#ArialMT-36" transform="translate(66.703125 0)"/>
       <use xlink:href="#ArialMT-25" transform="translate(133.40625 0)"/>
       <use xlink:href="#ArialMT-27" transform="translate(200.109375 0)"/>
       <use xlink:href="#ArialMT-3" transform="translate(272.328125 0)"/>
       <use xlink:href="#ArialMT-b" transform="translate(300.109375 0)"/>
       <use xlink:href="#ArialMT-36" transform="translate(333.40625 0)"/>
       <use xlink:href="#ArialMT-53" transform="translate(400.109375 0)"/>
       <use xlink:href="#ArialMT-48" transform="translate(455.71875 0)"/>
       <use xlink:href="#ArialMT-46" transform="translate(511.328125 0)"/>
       <use xlink:href="#ArialMT-57" transform="translate(561.328125 0)"/>
       <use xlink:href="#ArialMT-55" transform="translate(589.109375 0)"/>
       <use xlink:href="#ArialMT-48" transform="translate(622.40625 0)"/>
       <use xlink:href="#ArialMT-10" transform="translate(678.015625 0)"/>
       <use xlink:href="#ArialMT-59" transform="translate(711.3125 0)"/>
       <use xlink:href="#ArialMT-17" transform="translate(761.3125 0)"/>
       <use xlink:href="#ArialMT-c" transform="translate(816.921875 0)"/>
      </g>
     </g>
    </g>
    <g id="ytick_3">
     <g id="line2d_15">
      <g>
       <use xlink:href="#m3acb3aab2c" x="88.704" y="112.61376" style="stroke: #000000; stroke-width: 0.6"/>
      </g>
     </g>
     <g id="text_10">
      <!-- Retpoline (Spectre-v2) -->
      <g transform="translate(18.68 114.943448) scale(0.064 -0.064)">
       <use xlink:href="#ArialMT-35"/>
       <use xlink:href="#ArialMT-48" transform="translate(72.21875 0)"/>
       <use xlink:href="#ArialMT-57" transform="translate(127.828125 0)"/>
       <use xlink:href="#ArialMT-53" transform="translate(155.609375 0)"/>
       <use xlink:href="#ArialMT-52" transform="translate(211.21875 0)"/>
       <use xlink:href="#ArialMT-4f" transform="translate(266.828125 0)"/>
       <use xlink:href="#ArialMT-4c" transform="translate(289.046875 0)"/>
       <use xlink:href="#ArialMT-51" transform="translate(311.265625 0)"/>
       <use xlink:href="#ArialMT-48" transform="translate(366.875 0)"/>
       <use xlink:href="#ArialMT-3" transform="translate(422.484375 0)"/>
       <use xlink:href="#ArialMT-b" transform="translate(450.265625 0)"/>
       <use xlink:href="#ArialMT-36" transform="translate(483.5625 0)"/>
       <use xlink:href="#ArialMT-53" transform="translate(550.265625 0)"/>
       <use xlink:href="#ArialMT-48" transform="translate(605.875 0)"/>
       <use xlink:href="#ArialMT-46" transform="translate(661.484375 0)"/>
       <use xlink:href="#ArialMT-57" transform="translate(711.484375 0)"/>
       <use xlink:href="#ArialMT-55" transform="translate(739.265625 0)"/>
       <use xlink:href="#ArialMT-48" transform="translate(772.5625 0)"/>
       <use xlink:href="#ArialMT-10" transform="translate(828.171875 0)"/>
       <use xlink:href="#ArialMT-59" transform="translate(861.46875 0)"/>
       <use xlink:href="#ArialMT-15" transform="translate(911.46875 0)"/>
       <use xlink:href="#ArialMT-c" transform="translate(967.078125 0)"/>
      </g>
     </g>
    </g>
    <g id="ytick_4">
     <g id="line2d_16">
      <g>
       <use xlink:href="#m3acb3aab2c" x="88.704" y="85.31136" style="stroke: #000000; stroke-width: 0.6"/>
      </g>
     </g>
     <g id="text_11">
      <!-- All mitigations (combined) -->
      <g transform="translate(9.436 87.641048) scale(0.064 -0.064)">
       <defs>
        <path id="ArialMT-24" d="M -9 0
L 1750 4581
L 2403 4581
L 4278 0
L 3588 0
L 3053 1388
L 1138 1388
L 634 0
L -9 0
z
M 1313 1881
L 2866 1881
L 2388 3150
Q 2169 3728 2063 4100
Q 1975 3659 1816 3225
L 1313 1881
z
" transform="scale(0.015625)"/>
        <path id="ArialMT-45" d="M 941 0
L 419 0
L 419 4581
L 981 4581
L 981 2947
Q 1338 3394 1891 3394
Q 2197 3394 2470 3270
Q 2744 3147 2920 2923
Q 3097 2700 3197 2384
Q 3297 2069 3297 1709
Q 3297 856 2875 390
Q 2453 -75 1863 -75
Q 1275 -75 941 416
L 941 0
z
M 934 1684
Q 934 1088 1097 822
Q 1363 388 1816 388
Q 2184 388 2453 708
Q 2722 1028 2722 1663
Q 2722 2313 2464 2622
Q 2206 2931 1841 2931
Q 1472 2931 1203 2611
Q 934 2291 934 1684
z
" transform="scale(0.015625)"/>
       </defs>
       <use xlink:href="#ArialMT-24"/>
       <use xlink:href="#ArialMT-4f" transform="translate(66.703125 0)"/>
       <use xlink:href="#ArialMT-4f" transform="translate(88.921875 0)"/>
       <use xlink:href="#ArialMT-3" transform="translate(111.140625 0)"/>
       <use xlink:href="#ArialMT-50" transform="translate(138.921875 0)"/>
       <use xlink:href="#ArialMT-4c" transform="translate(222.21875 0)"/>
       <use xlink:href="#ArialMT-57" transform="translate(244.4375 0)"/>
       <use xlink:href="#ArialMT-4c" transform="translate(272.21875 0)"/>
       <use xlink:href="#ArialMT-4a" transform="translate(294.4375 0)"/>
       <use xlink:href="#ArialMT-44" transform="translate(350.046875 0)"/>
       <use xlink:href="#ArialMT-57" transform="translate(405.65625 0)"/>
       <use xlink:href="#ArialMT-4c" transform="translate(433.4375 0)"/>
       <use xlink:href="#ArialMT-52" transform="translate(455.65625 0)"/>
       <use xlink:href="#ArialMT-51" transform="translate(511.265625 0)"/>
       <use xlink:href="#ArialMT-56" transform="translate(566.875 0)"/>
       <use xlink:href="#ArialMT-3" transform="translate(616.875 0)"/>
       <use xlink:href="#ArialMT-b" transform="translate(644.65625 0)"/>
       <use xlink:href="#ArialMT-46" transform="translate(677.953125 0)"/>
       <use xlink:href="#ArialMT-52" transform="translate(727.953125 0)"/>
       <use xlink:href="#ArialMT-50" transform="translate(783.5625 0)"/>
       <use xlink:href="#ArialMT-45" transform="translate(866.859375 0)"/>
       <use xlink:href="#ArialMT-4c" transform="translate(922.46875 0)"/>
       <use xlink:href="#ArialMT-51" transform="translate(944.6875 0)"/>
       <use xlink:href="#ArialMT-48" transform="translate(1000.296875 0)"/>
       <use xlink:href="#ArialMT-47" transform="translate(1055.90625 0)"/>
       <use xlink:href="#ArialMT-c" transform="translate(1111.515625 0)"/>
      </g>
     </g>
    </g>
    <g id="ytick_5">
     <g id="line2d_17">
      <g>
       <use xlink:href="#m3acb3aab2c" x="88.704" y="58.00896" style="stroke: #000000; stroke-width: 0.6"/>
      </g>
     </g>
     <g id="text_12">
      <!-- IBRS (Spectre-v2) -->
      <g transform="translate(30.781 60.338648) scale(0.064 -0.064)">
       <use xlink:href="#ArialMT-2c"/>
       <use xlink:href="#ArialMT-25" transform="translate(27.78125 0)"/>
       <use xlink:href="#ArialMT-35" transform="translate(94.484375 0)"/>
       <use xlink:href="#ArialMT-36" transform="translate(166.703125 0)"/>
       <use xlink:href="#ArialMT-3" transform="translate(233.40625 0)"/>
       <use xlink:href="#ArialMT-b" transform="translate(261.1875 0)"/>
       <use xlink:href="#ArialMT-36" transform="translate(294.484375 0)"/>
       <use xlink:href="#ArialMT-53" transform="translate(361.1875 0)"/>
       <use xlink:href="#ArialMT-48" transform="translate(416.796875 0)"/>
       <use xlink:href="#ArialMT-46" transform="translate(472.40625 0)"/>
       <use xlink:href="#ArialMT-57" transform="translate(522.40625 0)"/>
       <use xlink:href="#ArialMT-55" transform="translate(550.1875 0)"/>
       <use xlink:href="#ArialMT-48" transform="translate(583.484375 0)"/>
       <use xlink:href="#ArialMT-10" transform="translate(639.09375 0)"/>
       <use xlink:href="#ArialMT-59" transform="translate(672.390625 0)"/>
       <use xlink:href="#ArialMT-15" transform="translate(722.390625 0)"/>
       <use xlink:href="#ArialMT-c" transform="translate(778 0)"/>
      </g>
     </g>
    </g>
    <g id="ytick_6">
     <g id="line2d_18">
      <g>
       <use xlink:href="#m3acb3aab2c" x="88.704" y="30.70656" style="stroke: #000000; stroke-width: 0.6"/>
      </g>
     </g>
     <g id="text_13">
      <!-- STIBP (Spectre-v2) -->
      <g transform="translate(27.341 33.036248) scale(0.064 -0.064)">
       <use xlink:href="#ArialMT-36"/>
       <use xlink:href="#ArialMT-37" transform="translate(66.703125 0)"/>
       <use xlink:href="#ArialMT-2c" transform="translate(127.78125 0)"/>
       <use xlink:href="#ArialMT-25" transform="translate(155.5625 0)"/>
       <use xlink:href="#ArialMT-33" transform="translate(222.265625 0)"/>
       <use xlink:href="#ArialMT-3" transform="translate(287.15625 0)"/>
       <use xlink:href="#ArialMT-b" transform="translate(314.9375 0)"/>
       <use xlink:href="#ArialMT-36" transform="translate(348.234375 0)"/>
       <use xlink:href="#ArialMT-53" transform="translate(414.9375 0)"/>
       <use xlink:href="#ArialMT-48" transform="translate(470.546875 0)"/>
       <use xlink:href="#ArialMT-46" transform="translate(526.15625 0)"/>
       <use xlink:href="#ArialMT-57" transform="translate(576.15625 0)"/>
       <use xlink:href="#ArialMT-55" transform="translate(603.9375 0)"/>
       <use xlink:href="#ArialMT-48" transform="translate(637.234375 0)"/>
       <use xlink:href="#ArialMT-10" transform="translate(692.84375 0)"/>
       <use xlink:href="#ArialMT-59" transform="translate(726.140625 0)"/>
       <use xlink:href="#ArialMT-15" transform="translate(776.140625 0)"/>
       <use xlink:href="#ArialMT-c" transform="translate(831.75 0)"/>
      </g>
     </g>
    </g>
   </g>
   <g id="LineCollection_1">
    <path d="M 93.661377 167.21856
L 118.448262 167.21856
" clip-path="url(#pb69d285a0d)" style="fill: none; stroke: #de3d3c; stroke-width: 3"/>
   </g>
   <g id="LineCollection_2">
    <path d="M 103.576131 139.91616
L 133.320393 139.91616
" clip-path="url(#pb69d285a0d)" style="fill: none; stroke: #de3d3c; stroke-width: 3"/>
   </g>
   <g id="LineCollection_3">
    <path d="M 118.448262 112.61376
L 143.235148 112.61376
" clip-path="url(#pb69d285a0d)" style="fill: none; stroke: #de3d3c; stroke-width: 3"/>
   </g>
   <g id="LineCollection_4">
    <path d="M 128.363016 85.31136
L 172.97941 85.31136
" clip-path="url(#pb69d285a0d)" style="fill: none; stroke: #de3d3c; stroke-width: 3"/>
   </g>
   <g id="LineCollection_5">
    <path d="M 192.808918 58.00896
L 242.382689 58.00896
" clip-path="url(#pb69d285a0d)" style="fill: none; stroke: #de3d3c; stroke-width: 3"/>
   </g>
   <g id="LineCollection_6">
    <path d="M 242.382689 30.70656
L 341.53023 30.70656
" clip-path="url(#pb69d285a0d)" style="fill: none; stroke: #de3d3c; stroke-width: 3"/>
   </g>
   <g id="patch_3">
    <path d="M 88.704 183.6
L 88.704 12.96
" style="fill: none; stroke: #000000; stroke-width: 0.7; stroke-linejoin: miter; stroke-linecap: square"/>
   </g>
   <g id="patch_4">
    <path d="M 88.704 183.6
L 391.104 183.6
" style="fill: none; stroke: #000000; stroke-width: 0.7; stroke-linejoin: miter; stroke-linecap: square"/>
   </g>
   <g id="PathCollection_1">
    <defs>
     <path id="m4703ea2b2b" d="M -1.936492 1.936492
L 1.936492 1.936492
L 1.936492 -1.936492
L -1.936492 -1.936492
z
" style="stroke: #de3d3c; stroke-width: 0.9"/>
    </defs>
    <g clip-path="url(#pb69d285a0d)">
     <use xlink:href="#m4703ea2b2b" x="93.661377" y="167.21856" style="fill: #e4f1f6; stroke: #de3d3c; stroke-width: 0.9"/>
    </g>
   </g>
   <g id="PathCollection_2">
    <g clip-path="url(#pb69d285a0d)">
     <use xlink:href="#m4703ea2b2b" x="118.448262" y="167.21856" style="fill: #e4f1f6; stroke: #de3d3c; stroke-width: 0.9"/>
    </g>
   </g>
   <g id="text_14">
    <!-- 0–5% -->
    <g style="fill: #c62a2a" transform="translate(124.397115 168.745415) scale(0.059 -0.059)">
     <defs>
      <path id="Arial-BoldMT-13" d="M 1756 4600
Q 2422 4600 2797 4125
Q 3244 3563 3244 2259
Q 3244 959 2794 391
Q 2422 -78 1756 -78
Q 1088 -78 678 436
Q 269 950 269 2269
Q 269 3563 719 4131
Q 1091 4600 1756 4600
z
M 1756 3872
Q 1597 3872 1472 3770
Q 1347 3669 1278 3406
Q 1188 3066 1188 2259
Q 1188 1453 1269 1151
Q 1350 850 1473 750
Q 1597 650 1756 650
Q 1916 650 2041 751
Q 2166 853 2234 1116
Q 2325 1453 2325 2259
Q 2325 3066 2244 3367
Q 2163 3669 2039 3770
Q 1916 3872 1756 3872
z
" transform="scale(0.015625)"/>
      <path id="Arial-BoldMT-b1" d="M -13 1331
L -13 1988
L 3547 1988
L 3547 1331
L -13 1331
z
" transform="scale(0.015625)"/>
      <path id="Arial-BoldMT-18" d="M 284 1178
L 1159 1269
Q 1197 972 1381 798
Q 1566 625 1806 625
Q 2081 625 2272 848
Q 2463 1072 2463 1522
Q 2463 1944 2273 2155
Q 2084 2366 1781 2366
Q 1403 2366 1103 2031
L 391 2134
L 841 4519
L 3163 4519
L 3163 3697
L 1506 3697
L 1369 2919
Q 1663 3066 1969 3066
Q 2553 3066 2959 2641
Q 3366 2216 3366 1538
Q 3366 972 3038 528
Q 2591 -78 1797 -78
Q 1163 -78 763 262
Q 363 603 284 1178
z
" transform="scale(0.015625)"/>
      <path id="Arial-BoldMT-8" d="M 278 3450
Q 278 4066 548 4362
Q 819 4659 1281 4659
Q 1759 4659 2029 4364
Q 2300 4069 2300 3450
Q 2300 2834 2029 2537
Q 1759 2241 1297 2241
Q 819 2241 548 2536
Q 278 2831 278 3450
z
M 963 3456
Q 963 3009 1066 2856
Q 1144 2744 1281 2744
Q 1422 2744 1500 2856
Q 1600 3009 1600 3456
Q 1600 3903 1500 4053
Q 1422 4169 1281 4169
Q 1144 4169 1066 4056
Q 963 3903 963 3456
z
M 1950 -175
L 1300 -175
L 3741 4659
L 4372 4659
L 1950 -175
z
M 3369 1028
Q 3369 1644 3639 1941
Q 3909 2238 4378 2238
Q 4850 2238 5120 1941
Q 5391 1644 5391 1028
Q 5391 409 5120 112
Q 4850 -184 4388 -184
Q 3909 -184 3639 112
Q 3369 409 3369 1028
z
M 4053 1031
Q 4053 584 4156 434
Q 4234 319 4372 319
Q 4513 319 4588 431
Q 4691 584 4691 1031
Q 4691 1478 4591 1631
Q 4513 1744 4372 1744
Q 4231 1744 4156 1631
Q 4053 1478 4053 1031
z
" transform="scale(0.015625)"/>
     </defs>
     <use xlink:href="#Arial-BoldMT-13"/>
     <use xlink:href="#Arial-BoldMT-b1" transform="translate(55.609375 0)"/>
     <use xlink:href="#Arial-BoldMT-18" transform="translate(111.21875 0)"/>
     <use xlink:href="#Arial-BoldMT-8" transform="translate(166.828125 0)"/>
    </g>
   </g>
   <g id="PathCollection_3">
    <g clip-path="url(#pb69d285a0d)">
     <use xlink:href="#m4703ea2b2b" x="103.576131" y="139.91616" style="fill: #e4f1f6; stroke: #de3d3c; stroke-width: 0.9"/>
    </g>
   </g>
   <g id="PathCollection_4">
    <g clip-path="url(#pb69d285a0d)">
     <use xlink:href="#m4703ea2b2b" x="133.320393" y="139.91616" style="fill: #e4f1f6; stroke: #de3d3c; stroke-width: 0.9"/>
    </g>
   </g>
   <g id="text_15">
    <!-- 2–8% -->
    <g style="fill: #c62a2a" transform="translate(139.269246 141.443015) scale(0.059 -0.059)">
     <defs>
      <path id="Arial-BoldMT-15" d="M 3238 816
L 3238 0
L 159 0
Q 209 463 459 877
Q 709 1291 1447 1975
Q 2041 2528 2175 2725
Q 2356 2997 2356 3263
Q 2356 3556 2198 3714
Q 2041 3872 1763 3872
Q 1488 3872 1325 3706
Q 1163 3541 1138 3156
L 263 3244
Q 341 3969 753 4284
Q 1166 4600 1784 4600
Q 2463 4600 2850 4234
Q 3238 3869 3238 3325
Q 3238 3016 3127 2736
Q 3016 2456 2775 2150
Q 2616 1947 2200 1565
Q 1784 1184 1673 1059
Q 1563 934 1494 816
L 3238 816
z
" transform="scale(0.015625)"/>
      <path id="Arial-BoldMT-1b" d="M 1025 2472
Q 684 2616 529 2867
Q 375 3119 375 3419
Q 375 3931 733 4265
Q 1091 4600 1750 4600
Q 2403 4600 2764 4265
Q 3125 3931 3125 3419
Q 3125 3100 2959 2851
Q 2794 2603 2494 2472
Q 2875 2319 3073 2025
Q 3272 1731 3272 1347
Q 3272 713 2867 316
Q 2463 -81 1791 -81
Q 1166 -81 750 247
Q 259 634 259 1309
Q 259 1681 443 1992
Q 628 2303 1025 2472
z
M 1206 3356
Q 1206 3094 1354 2947
Q 1503 2800 1750 2800
Q 2000 2800 2150 2948
Q 2300 3097 2300 3359
Q 2300 3606 2151 3754
Q 2003 3903 1759 3903
Q 1506 3903 1356 3753
Q 1206 3603 1206 3356
z
M 1125 1394
Q 1125 1031 1311 828
Q 1497 625 1775 625
Q 2047 625 2225 820
Q 2403 1016 2403 1384
Q 2403 1706 2222 1901
Q 2041 2097 1763 2097
Q 1441 2097 1283 1875
Q 1125 1653 1125 1394
z
" transform="scale(0.015625)"/>
     </defs>
     <use xlink:href="#Arial-BoldMT-15"/>
     <use xlink:href="#Arial-BoldMT-b1" transform="translate(55.609375 0)"/>
     <use xlink:href="#Arial-BoldMT-1b" transform="translate(111.21875 0)"/>
     <use xlink:href="#Arial-BoldMT-8" transform="translate(166.828125 0)"/>
    </g>
   </g>
   <g id="PathCollection_5">
    <g clip-path="url(#pb69d285a0d)">
     <use xlink:href="#m4703ea2b2b" x="118.448262" y="112.61376" style="fill: #e4f1f6; stroke: #de3d3c; stroke-width: 0.9"/>
    </g>
   </g>
   <g id="PathCollection_6">
    <g clip-path="url(#pb69d285a0d)">
     <use xlink:href="#m4703ea2b2b" x="143.235148" y="112.61376" style="fill: #e4f1f6; stroke: #de3d3c; stroke-width: 0.9"/>
    </g>
   </g>
   <g id="text_16">
    <!-- 5–10% -->
    <g style="fill: #c62a2a" transform="translate(149.184 114.140615) scale(0.059 -0.059)">
     <defs>
      <path id="Arial-BoldMT-14" d="M 2519 0
L 1641 0
L 1641 3309
Q 1159 2859 506 2644
L 506 3441
Q 850 3553 1253 3867
Q 1656 4181 1806 4600
L 2519 4600
L 2519 0
z
" transform="scale(0.015625)"/>
     </defs>
     <use xlink:href="#Arial-BoldMT-18"/>
     <use xlink:href="#Arial-BoldMT-b1" transform="translate(55.609375 0)"/>
     <use xlink:href="#Arial-BoldMT-14" transform="translate(111.21875 0)"/>
     <use xlink:href="#Arial-BoldMT-13" transform="translate(166.828125 0)"/>
     <use xlink:href="#Arial-BoldMT-8" transform="translate(222.4375 0)"/>
    </g>
   </g>
   <g id="PathCollection_7">
    <g clip-path="url(#pb69d285a0d)">
     <use xlink:href="#m4703ea2b2b" x="128.363016" y="85.31136" style="fill: #e4f1f6; stroke: #de3d3c; stroke-width: 0.9"/>
    </g>
   </g>
   <g id="PathCollection_8">
    <g clip-path="url(#pb69d285a0d)">
     <use xlink:href="#m4703ea2b2b" x="172.97941" y="85.31136" style="fill: #e4f1f6; stroke: #de3d3c; stroke-width: 0.9"/>
    </g>
   </g>
   <g id="text_17">
    <!-- 7–16% -->
    <g style="fill: #c62a2a" transform="translate(178.928262 86.838215) scale(0.059 -0.059)">
     <defs>
      <path id="Arial-BoldMT-1a" d="M 272 3703
L 272 4519
L 3275 4519
L 3275 3881
Q 2903 3516 2518 2831
Q 2134 2147 1932 1376
Q 1731 606 1734 0
L 888 0
Q 909 950 1279 1937
Q 1650 2925 2269 3703
L 272 3703
z
" transform="scale(0.015625)"/>
      <path id="Arial-BoldMT-19" d="M 3247 3459
L 2397 3366
Q 2366 3628 2234 3753
Q 2103 3878 1894 3878
Q 1616 3878 1423 3628
Q 1231 3378 1181 2588
Q 1509 2975 1997 2975
Q 2547 2975 2939 2556
Q 3331 2138 3331 1475
Q 3331 772 2918 347
Q 2506 -78 1859 -78
Q 1166 -78 719 461
Q 272 1000 272 2228
Q 272 3488 737 4044
Q 1203 4600 1947 4600
Q 2469 4600 2811 4308
Q 3153 4016 3247 3459
z
M 1256 1544
Q 1256 1116 1453 883
Q 1650 650 1903 650
Q 2147 650 2309 840
Q 2472 1031 2472 1466
Q 2472 1913 2297 2120
Q 2122 2328 1859 2328
Q 1606 2328 1431 2129
Q 1256 1931 1256 1544
z
" transform="scale(0.015625)"/>
     </defs>
     <use xlink:href="#Arial-BoldMT-1a"/>
     <use xlink:href="#Arial-BoldMT-b1" transform="translate(55.609375 0)"/>
     <use xlink:href="#Arial-BoldMT-14" transform="translate(111.21875 0)"/>
     <use xlink:href="#Arial-BoldMT-19" transform="translate(166.828125 0)"/>
     <use xlink:href="#Arial-BoldMT-8" transform="translate(222.4375 0)"/>
    </g>
   </g>
   <g id="PathCollection_9">
    <g clip-path="url(#pb69d285a0d)">
     <use xlink:href="#m4703ea2b2b" x="192.808918" y="58.00896" style="fill: #e4f1f6; stroke: #de3d3c; stroke-width: 0.9"/>
    </g>
   </g>
   <g id="PathCollection_10">
    <g clip-path="url(#pb69d285a0d)">
     <use xlink:href="#m4703ea2b2b" x="242.382689" y="58.00896" style="fill: #e4f1f6; stroke: #de3d3c; stroke-width: 0.9"/>
    </g>
   </g>
   <g id="text_18">
    <!-- 20–30% -->
    <g style="fill: #c62a2a" transform="translate(248.331541 59.535815) scale(0.059 -0.059)">
     <defs>
      <path id="Arial-BoldMT-16" d="M 241 1216
L 1091 1319
Q 1131 994 1309 822
Q 1488 650 1741 650
Q 2013 650 2198 856
Q 2384 1063 2384 1413
Q 2384 1744 2206 1937
Q 2028 2131 1772 2131
Q 1603 2131 1369 2066
L 1466 2781
Q 1822 2772 2009 2936
Q 2197 3100 2197 3372
Q 2197 3603 2059 3740
Q 1922 3878 1694 3878
Q 1469 3878 1309 3722
Q 1150 3566 1116 3266
L 306 3403
Q 391 3819 561 4067
Q 731 4316 1036 4458
Q 1341 4600 1719 4600
Q 2366 4600 2756 4188
Q 3078 3850 3078 3425
Q 3078 2822 2419 2463
Q 2813 2378 3048 2084
Q 3284 1791 3284 1375
Q 3284 772 2843 347
Q 2403 -78 1747 -78
Q 1125 -78 715 280
Q 306 638 241 1216
z
" transform="scale(0.015625)"/>
     </defs>
     <use xlink:href="#Arial-BoldMT-15"/>
     <use xlink:href="#Arial-BoldMT-13" transform="translate(55.609375 0)"/>
     <use xlink:href="#Arial-BoldMT-b1" transform="translate(111.21875 0)"/>
     <use xlink:href="#Arial-BoldMT-16" transform="translate(166.828125 0)"/>
     <use xlink:href="#Arial-BoldMT-13" transform="translate(222.4375 0)"/>
     <use xlink:href="#Arial-BoldMT-8" transform="translate(278.046875 0)"/>
    </g>
   </g>
   <g id="PathCollection_11">
    <g clip-path="url(#pb69d285a0d)">
     <use xlink:href="#m4703ea2b2b" x="242.382689" y="30.70656" style="fill: #e4f1f6; stroke: #de3d3c; stroke-width: 0.9"/>
    </g>
   </g>
   <g id="PathCollection_12">
    <g clip-path="url(#pb69d285a0d)">
     <use xlink:href="#m4703ea2b2b" x="341.53023" y="30.70656" style="fill: #e4f1f6; stroke: #de3d3c; stroke-width: 0.9"/>
    </g>
   </g>
   <g id="text_19">
    <!-- 30–50% -->
    <g style="fill: #c62a2a" transform="translate(347.479082 32.233415) scale(0.059 -0.059)">
     <use xlink:href="#Arial-BoldMT-16"/>
     <use xlink:href="#Arial-BoldMT-13" transform="translate(55.609375 0)"/>
     <use xlink:href="#Arial-BoldMT-b1" transform="translate(111.21875 0)"/>
     <use xlink:href="#Arial-BoldMT-18" transform="translate(166.828125 0)"/>
     <use xlink:href="#Arial-BoldMT-13" transform="translate(222.4375 0)"/>
     <use xlink:href="#Arial-BoldMT-8" transform="translate(278.046875 0)"/>
    </g>
   </g>
   <g id="text_20">
    <!-- each bar: compute-bound → syscall / I/O-heavy -->
    <g style="fill: #3e474b" transform="translate(280.548185 25.174856) scale(0.05 -0.05)">
     <defs>
      <path id="Arial-ItalicMT-48" d="M 2650 1128
L 3200 1072
Q 3081 663 2654 294
Q 2228 -75 1638 -75
Q 1269 -75 961 95
Q 653 266 492 591
Q 331 916 331 1331
Q 331 1875 582 2386
Q 834 2897 1234 3145
Q 1634 3394 2100 3394
Q 2694 3394 3048 3025
Q 3403 2656 3403 2019
Q 3403 1775 3359 1519
L 916 1519
Q 903 1422 903 1344
Q 903 878 1117 633
Q 1331 388 1641 388
Q 1931 388 2212 578
Q 2494 769 2650 1128
z
M 1006 1950
L 2869 1950
Q 2872 2038 2872 2075
Q 2872 2500 2659 2726
Q 2447 2953 2113 2953
Q 1750 2953 1451 2703
Q 1153 2453 1006 1950
z
" transform="scale(0.015625)"/>
      <path id="Arial-ItalicMT-44" d="M 2450 413
Q 2156 159 1884 42
Q 1613 -75 1303 -75
Q 844 -75 562 195
Q 281 466 281 888
Q 281 1166 407 1380
Q 534 1594 743 1723
Q 953 1853 1256 1909
Q 1447 1947 1980 1969
Q 2513 1991 2744 2081
Q 2809 2313 2809 2466
Q 2809 2663 2666 2775
Q 2469 2931 2091 2931
Q 1734 2931 1507 2773
Q 1281 2616 1178 2325
L 606 2375
Q 781 2869 1161 3131
Q 1541 3394 2119 3394
Q 2734 3394 3094 3100
Q 3369 2881 3369 2531
Q 3369 2266 3291 1916
L 3106 1091
Q 3019 697 3019 450
Q 3019 294 3088 0
L 2516 0
Q 2469 163 2450 413
z
M 2659 1681
Q 2541 1634 2405 1609
Q 2269 1584 1950 1556
Q 1456 1513 1253 1445
Q 1050 1378 947 1231
Q 844 1084 844 906
Q 844 669 1008 516
Q 1172 363 1475 363
Q 1756 363 2015 511
Q 2275 659 2425 925
Q 2575 1191 2659 1681
z
" transform="scale(0.015625)"/>
      <path id="Arial-ItalicMT-46" d="M 2503 1209
L 3069 1150
Q 2856 528 2464 226
Q 2072 -75 1572 -75
Q 1031 -75 695 275
Q 359 625 359 1253
Q 359 1797 575 2322
Q 791 2847 1192 3120
Q 1594 3394 2109 3394
Q 2644 3394 2956 3092
Q 3269 2791 3269 2294
L 2713 2256
Q 2709 2572 2529 2750
Q 2350 2928 2056 2928
Q 1716 2928 1466 2712
Q 1216 2497 1073 2058
Q 931 1619 931 1213
Q 931 788 1118 575
Q 1306 363 1581 363
Q 1856 363 2107 572
Q 2359 781 2503 1209
z
" transform="scale(0.015625)"/>
      <path id="Arial-ItalicMT-4b" d="M 213 0
L 1169 4581
L 1734 4581
L 1369 2822
Q 1684 3128 1956 3261
Q 2228 3394 2516 3394
Q 2928 3394 3156 3176
Q 3384 2959 3384 2603
Q 3384 2428 3284 1959
L 2875 0
L 2309 0
L 2731 2009
Q 2822 2447 2822 2559
Q 2822 2722 2709 2825
Q 2597 2928 2384 2928
Q 2078 2928 1800 2767
Q 1522 2606 1364 2326
Q 1206 2047 1075 1425
L 778 0
L 213 0
z
" transform="scale(0.015625)"/>
      <path id="Arial-ItalicMT-3" transform="scale(0.015625)"/>
      <path id="Arial-ItalicMT-45" d="M 213 0
L 1169 4581
L 1734 4581
L 1394 2944
Q 1663 3191 1881 3292
Q 2100 3394 2338 3394
Q 2803 3394 3114 3047
Q 3425 2700 3425 2038
Q 3425 1597 3300 1231
Q 3175 866 2990 617
Q 2806 369 2609 220
Q 2413 72 2206 -1
Q 2000 -75 1809 -75
Q 1481 -75 1231 98
Q 981 272 841 628
L 709 0
L 213 0
z
M 1050 1363
L 1047 1256
Q 1047 831 1250 609
Q 1453 388 1756 388
Q 2053 388 2301 595
Q 2550 803 2709 1243
Q 2869 1684 2869 2056
Q 2869 2475 2667 2706
Q 2466 2938 2169 2938
Q 1863 2938 1606 2702
Q 1350 2466 1178 1975
Q 1050 1609 1050 1363
z
" transform="scale(0.015625)"/>
      <path id="Arial-ItalicMT-55" d="M 213 0
L 906 3319
L 1406 3319
L 1266 2641
Q 1522 3025 1767 3209
Q 2013 3394 2269 3394
Q 2438 3394 2684 3272
L 2453 2747
Q 2306 2853 2131 2853
Q 1834 2853 1521 2522
Q 1209 2191 1031 1331
L 750 0
L 213 0
z
" transform="scale(0.015625)"/>
      <path id="Arial-ItalicMT-1d" d="M 925 2678
L 1059 3319
L 1697 3319
L 1566 2678
L 925 2678
z
M 366 0
L 500 641
L 1141 641
L 1003 0
L 366 0
z
" transform="scale(0.015625)"/>
      <path id="Arial-ItalicMT-52" d="M 313 1259
Q 313 2231 884 2869
Q 1356 3394 2122 3394
Q 2722 3394 3089 3019
Q 3456 2644 3456 2006
Q 3456 1434 3225 942
Q 2994 450 2567 187
Q 2141 -75 1669 -75
Q 1281 -75 964 90
Q 647 256 480 559
Q 313 863 313 1259
z
M 878 1316
Q 878 847 1103 605
Q 1328 363 1675 363
Q 1856 363 2034 436
Q 2213 509 2366 659
Q 2519 809 2626 1001
Q 2734 1194 2800 1416
Q 2897 1725 2897 2009
Q 2897 2459 2670 2707
Q 2444 2956 2100 2956
Q 1834 2956 1615 2829
Q 1397 2703 1220 2459
Q 1044 2216 961 1892
Q 878 1569 878 1316
z
" transform="scale(0.015625)"/>
      <path id="Arial-ItalicMT-50" d="M 209 0
L 903 3319
L 1469 3319
L 1353 2772
Q 1669 3125 1917 3259
Q 2166 3394 2456 3394
Q 2766 3394 2973 3230
Q 3181 3066 3247 2772
Q 3500 3084 3779 3239
Q 4059 3394 4369 3394
Q 4784 3394 4992 3197
Q 5200 3000 5200 2644
Q 5200 2491 5128 2138
L 4681 0
L 4116 0
L 4572 2194
Q 4631 2463 4631 2578
Q 4631 2741 4528 2834
Q 4425 2928 4238 2928
Q 3984 2928 3721 2775
Q 3459 2622 3314 2373
Q 3169 2125 3059 1609
L 2722 0
L 2156 0
L 2625 2241
Q 2675 2469 2675 2566
Q 2675 2728 2573 2828
Q 2472 2928 2309 2928
Q 2069 2928 1805 2775
Q 1541 2622 1375 2348
Q 1209 2075 1103 1569
L 775 0
L 209 0
z
" transform="scale(0.015625)"/>
      <path id="Arial-ItalicMT-53" d="M -66 -1272
L 894 3319
L 1416 3319
L 1319 2856
Q 1609 3159 1839 3276
Q 2069 3394 2325 3394
Q 2800 3394 3112 3048
Q 3425 2703 3425 2059
Q 3425 1541 3253 1114
Q 3081 688 2831 428
Q 2581 169 2325 47
Q 2069 -75 1800 -75
Q 1203 -75 875 531
L 500 -1272
L -66 -1272
z
M 1053 1356
Q 1053 984 1106 841
Q 1184 638 1362 513
Q 1541 388 1775 388
Q 2263 388 2563 936
Q 2863 1484 2863 2056
Q 2863 2478 2661 2708
Q 2459 2938 2159 2938
Q 1944 2938 1759 2823
Q 1575 2709 1417 2482
Q 1259 2256 1156 1928
Q 1053 1600 1053 1356
z
" transform="scale(0.015625)"/>
      <path id="Arial-ItalicMT-58" d="M 2478 600
Q 1881 -75 1256 -75
Q 872 -75 636 145
Q 400 366 400 684
Q 400 894 506 1403
L 906 3319
L 1472 3319
L 1028 1197
Q 972 931 972 784
Q 972 597 1086 492
Q 1200 388 1422 388
Q 1659 388 1886 503
Q 2113 619 2277 816
Q 2441 1013 2544 1281
Q 2613 1453 2703 1884
L 3003 3319
L 3569 3319
L 2875 0
L 2353 0
L 2478 600
z
" transform="scale(0.015625)"/>
      <path id="Arial-ItalicMT-57" d="M 1534 459
L 1441 -3
Q 1238 -56 1047 -56
Q 709 -56 509 109
Q 359 234 359 450
Q 359 559 441 953
L 844 2881
L 397 2881
L 488 3319
L 934 3319
L 1106 4134
L 1753 4525
L 1500 3319
L 2056 3319
L 1963 2881
L 1409 2881
L 1025 1047
Q 953 697 953 628
Q 953 528 1011 475
Q 1069 422 1200 422
Q 1388 422 1534 459
z
" transform="scale(0.015625)"/>
      <path id="Arial-ItalicMT-10" d="M 297 1375
L 416 1941
L 2141 1941
L 2025 1375
L 297 1375
z
" transform="scale(0.015625)"/>
      <path id="Arial-ItalicMT-51" d="M 213 0
L 906 3319
L 1419 3319
L 1297 2741
Q 1631 3081 1922 3237
Q 2213 3394 2516 3394
Q 2919 3394 3148 3175
Q 3378 2956 3378 2591
Q 3378 2406 3297 2009
L 2875 0
L 2309 0
L 2750 2103
Q 2816 2409 2816 2556
Q 2816 2722 2702 2825
Q 2588 2928 2372 2928
Q 1938 2928 1598 2615
Q 1259 2303 1100 1544
L 778 0
L 213 0
z
" transform="scale(0.015625)"/>
      <path id="Arial-ItalicMT-47" d="M 2450 481
Q 1966 -75 1438 -75
Q 966 -75 652 273
Q 338 622 338 1284
Q 338 1891 586 2392
Q 834 2894 1207 3144
Q 1581 3394 1956 3394
Q 2575 3394 2891 2797
L 3266 4581
L 3828 4581
L 2872 0
L 2350 0
L 2450 481
z
M 900 1391
Q 900 1044 969 844
Q 1038 644 1203 511
Q 1369 378 1600 378
Q 1984 378 2297 778
Q 2716 1309 2716 2091
Q 2716 2484 2509 2706
Q 2303 2928 1991 2928
Q 1788 2928 1620 2837
Q 1453 2747 1289 2530
Q 1125 2313 1012 1978
Q 900 1644 900 1391
z
" transform="scale(0.015625)"/>
      <path id="Arial-ItalicMT-13a" d="M 4859 2738
Q 5275 2284 5578 2048
Q 5881 1813 6150 1697
L 6150 1556
Q 5841 1406 5550 1173
Q 5259 941 4856 491
L 4616 491
Q 4909 1119 5231 1456
L 247 1456
L 247 1772
L 5231 1772
Q 4994 2075 4900 2222
Q 4806 2369 4622 2738
L 4859 2738
z
" transform="scale(0.015625)"/>
      <path id="Arial-ItalicMT-56" d="M 266 1134
L 831 1169
Q 831 925 906 753
Q 981 581 1182 472
Q 1384 363 1653 363
Q 2028 363 2215 513
Q 2403 663 2403 866
Q 2403 1013 2291 1144
Q 2175 1275 1726 1467
Q 1278 1659 1153 1738
Q 944 1866 837 2039
Q 731 2213 731 2438
Q 731 2831 1043 3112
Q 1356 3394 1919 3394
Q 2544 3394 2870 3105
Q 3197 2816 3209 2344
L 2656 2306
Q 2644 2606 2444 2781
Q 2244 2956 1878 2956
Q 1584 2956 1421 2822
Q 1259 2688 1259 2531
Q 1259 2375 1400 2256
Q 1494 2175 1884 2006
Q 2534 1725 2703 1563
Q 2972 1303 2972 931
Q 2972 684 2820 446
Q 2669 209 2358 67
Q 2047 -75 1625 -75
Q 1050 -75 647 209
Q 244 494 266 1134
z
" transform="scale(0.015625)"/>
      <path id="Arial-ItalicMT-5c" d="M 0 -1281
L 34 -750
Q 209 -800 375 -800
Q 547 -800 653 -722
Q 791 -619 953 -334
L 1134 -9
L 581 3319
L 1138 3319
L 1388 1641
Q 1463 1144 1516 647
L 3000 3319
L 3591 3319
L 1475 -441
Q 1169 -991 931 -1169
Q 694 -1347 384 -1347
Q 188 -1347 0 -1281
z
" transform="scale(0.015625)"/>
      <path id="Arial-ItalicMT-4f" d="M 169 0
L 1125 4581
L 1691 4581
L 734 0
L 169 0
z
" transform="scale(0.015625)"/>
      <path id="Arial-ItalicMT-12" d="M -325 -75
L 2138 4659
L 2628 4659
L 166 -75
L -325 -75
z
" transform="scale(0.015625)"/>
      <path id="Arial-ItalicMT-2c" d="M 366 0
L 1325 4581
L 1934 4581
L 978 0
L 366 0
z
" transform="scale(0.015625)"/>
      <path id="Arial-ItalicMT-32" d="M 584 1919
Q 584 3144 1292 3901
Q 2000 4659 3009 4659
Q 3866 4659 4405 4101
Q 4944 3544 4944 2606
Q 4944 1938 4672 1366
Q 4469 938 4159 627
Q 3850 316 3497 147
Q 3028 -78 2503 -78
Q 1953 -78 1501 184
Q 1050 447 817 917
Q 584 1388 584 1919
z
M 1188 1888
Q 1188 1484 1355 1146
Q 1522 809 1853 618
Q 2184 428 2550 428
Q 2903 428 3222 595
Q 3541 763 3792 1061
Q 4044 1359 4189 1795
Q 4334 2231 4334 2653
Q 4334 3338 3951 3744
Q 3569 4150 3006 4150
Q 2288 4150 1738 3536
Q 1188 2922 1188 1888
z
" transform="scale(0.015625)"/>
      <path id="Arial-ItalicMT-59" d="M 1050 0
L 506 3319
L 1056 3319
L 1341 1491
Q 1388 1191 1456 513
Q 1619 866 1872 1322
L 2981 3319
L 3578 3319
L 1678 0
L 1050 0
z
" transform="scale(0.015625)"/>
     </defs>
     <use xlink:href="#Arial-ItalicMT-48"/>
     <use xlink:href="#Arial-ItalicMT-44" transform="translate(55.609375 0)"/>
     <use xlink:href="#Arial-ItalicMT-46" transform="translate(111.21875 0)"/>
     <use xlink:href="#Arial-ItalicMT-4b" transform="translate(161.21875 0)"/>
     <use xlink:href="#Arial-ItalicMT-3" transform="translate(216.828125 0)"/>
     <use xlink:href="#Arial-ItalicMT-45" transform="translate(244.609375 0)"/>
     <use xlink:href="#Arial-ItalicMT-44" transform="translate(300.21875 0)"/>
     <use xlink:href="#Arial-ItalicMT-55" transform="translate(355.828125 0)"/>
     <use xlink:href="#Arial-ItalicMT-1d" transform="translate(389.125 0)"/>
     <use xlink:href="#Arial-ItalicMT-3" transform="translate(416.90625 0)"/>
     <use xlink:href="#Arial-ItalicMT-46" transform="translate(444.6875 0)"/>
     <use xlink:href="#Arial-ItalicMT-52" transform="translate(494.6875 0)"/>
     <use xlink:href="#Arial-ItalicMT-50" transform="translate(550.296875 0)"/>
     <use xlink:href="#Arial-ItalicMT-53" transform="translate(633.59375 0)"/>
     <use xlink:href="#Arial-ItalicMT-58" transform="translate(689.203125 0)"/>
     <use xlink:href="#Arial-ItalicMT-57" transform="translate(744.8125 0)"/>
     <use xlink:href="#Arial-ItalicMT-48" transform="translate(772.59375 0)"/>
     <use xlink:href="#Arial-ItalicMT-10" transform="translate(828.203125 0)"/>
     <use xlink:href="#Arial-ItalicMT-45" transform="translate(861.5 0)"/>
     <use xlink:href="#Arial-ItalicMT-52" transform="translate(917.109375 0)"/>
     <use xlink:href="#Arial-ItalicMT-58" transform="translate(972.71875 0)"/>
     <use xlink:href="#Arial-ItalicMT-51" transform="translate(1028.328125 0)"/>
     <use xlink:href="#Arial-ItalicMT-47" transform="translate(1083.9375 0)"/>
     <use xlink:href="#Arial-ItalicMT-3" transform="translate(1139.546875 0)"/>
     <use xlink:href="#Arial-ItalicMT-13a" transform="translate(1167.328125 0)"/>
     <use xlink:href="#Arial-ItalicMT-3" transform="translate(1267.328125 0)"/>
     <use xlink:href="#Arial-ItalicMT-56" transform="translate(1295.109375 0)"/>
     <use xlink:href="#Arial-ItalicMT-5c" transform="translate(1345.109375 0)"/>
     <use xlink:href="#Arial-ItalicMT-56" transform="translate(1395.109375 0)"/>
     <use xlink:href="#Arial-ItalicMT-46" transform="translate(1445.109375 0)"/>
     <use xlink:href="#Arial-ItalicMT-44" transform="translate(1495.109375 0)"/>
     <use xlink:href="#Arial-ItalicMT-4f" transform="translate(1550.71875 0)"/>
     <use xlink:href="#Arial-ItalicMT-4f" transform="translate(1572.9375 0)"/>
     <use xlink:href="#Arial-ItalicMT-3" transform="translate(1595.15625 0)"/>
     <use xlink:href="#Arial-ItalicMT-12" transform="translate(1622.9375 0)"/>
     <use xlink:href="#Arial-ItalicMT-3" transform="translate(1650.71875 0)"/>
     <use xlink:href="#Arial-ItalicMT-2c" transform="translate(1678.5 0)"/>
     <use xlink:href="#Arial-ItalicMT-12" transform="translate(1706.28125 0)"/>
     <use xlink:href="#Arial-ItalicMT-32" transform="translate(1734.0625 0)"/>
     <use xlink:href="#Arial-ItalicMT-10" transform="translate(1811.84375 0)"/>
     <use xlink:href="#Arial-ItalicMT-4b" transform="translate(1845.140625 0)"/>
     <use xlink:href="#Arial-ItalicMT-48" transform="translate(1900.75 0)"/>
     <use xlink:href="#Arial-ItalicMT-44" transform="translate(1956.359375 0)"/>
     <use xlink:href="#Arial-ItalicMT-59" transform="translate(2011.96875 0)"/>
     <use xlink:href="#Arial-ItalicMT-5c" transform="translate(2061.96875 0)"/>
    </g>
   </g>
  </g>
 </g>
 <defs>
  <clipPath id="pb69d285a0d">
   <rect x="88.704" y="12.96" width="302.4" height="170.64"/>
  </clipPath>
 </defs>
</svg>
