<?xml version="1.0" encoding="utf-8"?>
<svg xmlns="http://www.w3.org/2000/svg" viewBox="0 0 720 446" role="img">
  <title>AI method roles inside a bounded architecture study</title>
  <desc>A diagram mapping generation, prediction, optimization, critique, repair, verification, explanation, and coordination to bounded study outputs and review by an authorized decision holder.</desc>
  <defs>
    <marker id="arrow" viewBox="0 0 10 10" refX="9" refY="5" markerWidth="8" markerHeight="8" orient="auto">
      <path d="M 0 0 L 10 5 L 0 10 z" fill="#333333"/>
    </marker>
    <style>
      .font { font-family: Arial, Helvetica, sans-serif; }
      .panel-title { font-size: 13.5px; font-weight: 700; fill: #222222; }
      .label { font-size: 13px; font-weight: 700; fill: #222222; }
      .small { font-size: 12.5px; fill: #444444; }
      .note { font-size: 12.5px; font-weight: 700; fill: #1683A6; }
      .bar { fill: #F5F8FA; stroke: #9AA8B5; stroke-width: 1.1; }
      .state { fill: #E4F1F6; stroke: #1683A6; stroke-width: 1.4; }
      .method { fill: #F0ECFA; stroke: #6A4FC7; stroke-width: 1.4; }
      .output { fill: #F0ECFA; stroke: #6A4FC7; stroke-width: 1.4; }
      .decision { fill: #FDECEC; stroke: #DE3D3C; stroke-width: 1.4; }
      .coordination { fill: #F0ECFA; stroke: #6A4FC7; stroke-width: 1.4; }
      .arrow { stroke: #333333; stroke-width: 2; fill: none; stroke-linecap: square; stroke-linejoin: miter; }
      .glyph { fill: none; stroke: currentColor; stroke-width: 1.55; stroke-linecap: round; stroke-linejoin: round; }
      .glyph-state { color: #1683A6; }
      .glyph-method { color: #6A4FC7; }
      .glyph-decision { color: #DE3D3C; }
    </style>
  </defs>
  <rect width="720" height="446" fill="#FFFFFF"/>
  <g class="font">
    <rect class="state" x="65" y="76" width="175" height="225"/>
    <text class="panel-title" x="152.5" y="106" text-anchor="middle" style="white-space: pre;">bounded study</text>
    <text class="small" x="152.5" y="133" text-anchor="middle" style="white-space: pre;">task + claim</text>
    <text class="small" x="152.5" y="161" text-anchor="middle" style="white-space: pre;">representation</text>
    <text class="small" x="152.5" y="189" text-anchor="middle" style="white-space: pre;">environment</text>
    <text class="small" x="152.5" y="217" text-anchor="middle" style="white-space: pre;">feedback budget</text>
    <text class="small" x="152.5" y="245" text-anchor="middle" style="white-space: pre;">constraints</text>
    <text class="small" x="152.5" y="273" text-anchor="middle" style="white-space: pre;">decision boundary</text>
    <rect class="coordination" x="290" y="28" width="350" height="26"/>
    <text class="small" x="465" y="46" text-anchor="middle" style="white-space: pre;">coordination routes state, actions, and evidence</text>
    <rect class="method" x="290" y="61" width="160" height="42"/>
    <g class="glyph glyph-method" transform="translate(309 73)">
      <path d="M 2 9 L 16 2 L 13 17 Z"/>
      <path d="M 7 11 L 13 17"/>
    </g>
    <text class="label" x="338" y="87" style="white-space: pre;">generate</text>
    <rect class="method" x="290" y="116" width="160" height="42"/>
    <g class="glyph glyph-method" transform="translate(309 128)">
      <path d="M 1 14 C 5 5, 11 5, 17 14"/>
      <circle cx="9" cy="12" r="2.5"/>
    </g>
    <text class="label" x="338" y="142" style="white-space: pre;">predict</text>
    <rect class="method" x="290" y="171" width="160" height="42"/>
    <g class="glyph glyph-method" transform="translate(309 183)">
      <circle cx="9" cy="9" r="8"/>
      <circle cx="9" cy="9" r="3"/>
    </g>
    <text class="label" x="338" y="197" style="white-space: pre;">optimize</text>
    <rect class="method" x="290" y="226" width="160" height="42"/>
    <g class="glyph glyph-method" transform="translate(309 238)">
      <path d="M 3 4 L 15 16"/>
      <path d="M 15 4 L 3 16"/>
    </g>
    <text class="label" x="386" y="252" text-anchor="middle" style="white-space: pre;">critique / repair</text>
    <rect class="method" x="290" y="281" width="160" height="42"/>
    <g class="glyph glyph-method" transform="translate(309 293)">
      <path d="M 2 10 L 7 15 L 16 4"/>
      <path d="M 2 19 L 16 19"/>
    </g>
    <text class="label" x="338" y="307" style="white-space: pre;">verify / explain</text>
    <rect class="output" x="505" y="61" width="135" height="42"/>
    <text class="small" x="572.5" y="86" text-anchor="middle" style="white-space: pre;">candidates</text>
    <rect class="output" x="505" y="116" width="135" height="42"/>
    <text class="small" x="572.5" y="141" text-anchor="middle" style="white-space: pre;">estimates</text>
    <rect class="output" x="505" y="171" width="135" height="42"/>
    <text class="small" x="572.5" y="196" text-anchor="middle" style="white-space: pre;">next experiment</text>
    <rect class="output" x="505" y="226" width="135" height="42"/>
    <text class="small" x="572.5" y="251" text-anchor="middle" style="white-space: pre;">revisions</text>
    <rect class="output" x="505" y="281" width="135" height="42"/>
    <text class="small" x="572.5" y="306" text-anchor="middle" style="white-space: pre;">evidence</text>
    <rect class="decision" x="240" y="351" width="440" height="28"/>
    <text class="label" x="460" y="370" text-anchor="middle" style="white-space: pre;">authorized review: accept, reject, escalate, or revise</text>
    <line class="arrow" x1="240" y1="189" x2="290" y2="189" marker-end="url(#arrow)"/>
    <line class="arrow" x1="450" y1="82" x2="505" y2="82" marker-end="url(#arrow)"/>
    <line class="arrow" x1="450" y1="137" x2="505" y2="137" marker-end="url(#arrow)"/>
    <line class="arrow" x1="450" y1="192" x2="505" y2="192" marker-end="url(#arrow)"/>
    <line class="arrow" x1="450" y1="247" x2="505" y2="247" marker-end="url(#arrow)"/>
    <line class="arrow" x1="450" y1="302" x2="505" y2="302" marker-end="url(#arrow)"/>
    <polyline class="arrow" points="572.5 323 572.5 332 465 332 465 351" marker-end="url(#arrow)"/>
    <rect class="bar" x="118" y="392" width="484" height="32"/>
    <text class="note" x="360" y="412" text-anchor="middle" style="white-space: pre;">AI roles support the study; evidence and risk bound the decision</text>
  </g>
</svg>
