<?xml version="1.0" encoding="utf-8" standalone="no"?>
<!DOCTYPE svg PUBLIC "-//W3C//DTD SVG 1.1//EN"
  "http://www.w3.org/Graphics/SVG/1.1/DTD/svg11.dtd">
<svg xmlns:xlink="http://www.w3.org/1999/xlink" width="384.96pt" height="212.16pt" viewBox="0 0 384.96 212.16" xmlns="http://www.w3.org/2000/svg" version="1.1">
 <metadata>
  <rdf:RDF xmlns:dc="http://purl.org/dc/elements/1.1/" xmlns:cc="http://creativecommons.org/ns#" xmlns:rdf="http://www.w3.org/1999/02/22-rdf-syntax-ns#">
   <cc:Work>
    <dc:type rdf:resource="http://purl.org/dc/dcmitype/StillImage"/>
    <dc:date>2026-07-20T18:45:09.477450</dc:date>
    <dc:format>image/svg+xml</dc:format>
    <dc:creator>
     <cc:Agent>
      <dc:title>Matplotlib v3.11.0, https://matplotlib.org/</dc:title>
     </cc:Agent>
    </dc:creator>
   </cc:Work>
  </rdf:RDF>
 </metadata>
 <defs>
  <style type="text/css">*{stroke-linejoin: round; stroke-linecap: butt}</style>
 </defs>
 <g id="figure_1">
  <g id="patch_1">
   <path d="M 0 212.16
L 384.96 212.16
L 384.96 0
L 0 0
z
" style="fill: #ffffff"/>
  </g>
  <g id="patch_2">
   <path d="M 46.1952 204.7344
L 338.7648 204.7344
L 338.7648 183.5184
L 46.1952 183.5184
z
" style="fill: #e4f1f6; stroke: #136680; stroke-width: 0.6; stroke-linejoin: miter"/>
  </g>
  <g id="axes_1">
   <g id="patch_3">
    <path d="M 146.2848 154.8768
L 327.216 154.8768
L 327.216 38.1888
L 146.2848 38.1888
z
" style="fill: #ffffff"/>
   </g>
   <g id="line2d_1">
    <path d="M 146.2848 99.311086
L 327.216 99.311086
" clip-path="url(#pf0cad35de6)" style="fill: none; stroke-dasharray: 2.405,1.04; stroke-dashoffset: 0; stroke: #3e474b; stroke-width: 0.65"/>
   </g>
   <g id="line2d_2">
    <path d="M 146.2848 53.7472
L 327.216 53.7472
" clip-path="url(#pf0cad35de6)" style="fill: none; stroke: #e4e8ed; stroke-width: 0.65; stroke-linecap: square"/>
   </g>
   <g id="line2d_3">
    <path d="M 146.2848 64.860343
L 327.216 64.860343
" clip-path="url(#pf0cad35de6)" style="fill: none; stroke: #e4e8ed; stroke-width: 0.65; stroke-linecap: square"/>
   </g>
   <g id="line2d_4">
    <path d="M 146.2848 75.973486
L 327.216 75.973486
" clip-path="url(#pf0cad35de6)" style="fill: none; stroke: #e4e8ed; stroke-width: 0.65; stroke-linecap: square"/>
   </g>
   <g id="line2d_5">
    <path d="M 146.2848 87.086629
L 327.216 87.086629
" clip-path="url(#pf0cad35de6)" style="fill: none; stroke: #e4e8ed; stroke-width: 0.65; stroke-linecap: square"/>
   </g>
   <g id="line2d_6">
    <path d="M 146.2848 114.313829
L 327.216 114.313829
" clip-path="url(#pf0cad35de6)" style="fill: none; stroke: #e4e8ed; stroke-width: 0.65; stroke-linecap: square"/>
   </g>
   <g id="line2d_7">
    <path d="M 146.2848 125.426971
L 327.216 125.426971
" clip-path="url(#pf0cad35de6)" style="fill: none; stroke: #e4e8ed; stroke-width: 0.65; stroke-linecap: square"/>
   </g>
   <g id="line2d_8">
    <path d="M 146.2848 136.540114
L 327.216 136.540114
" clip-path="url(#pf0cad35de6)" style="fill: none; stroke: #e4e8ed; stroke-width: 0.65; stroke-linecap: square"/>
   </g>
   <g id="line2d_9">
    <path d="M 146.2848 147.653257
L 327.216 147.653257
" clip-path="url(#pf0cad35de6)" style="fill: none; stroke: #e4e8ed; stroke-width: 0.65; stroke-linecap: square"/>
   </g>
   <g id="matplotlib.axis_1">
    <g id="xtick_1">
     <g id="line2d_10">
      <path d="M 147.202961 154.8768
L 147.202961 38.1888
" clip-path="url(#pf0cad35de6)" style="fill: none; stroke: #d5dee3; stroke-width: 0.55; stroke-linecap: square"/>
     </g>
     <g id="line2d_11">
      <defs>
       <path id="m74530240e1" d="M 0 0
L 0 -2.5
" style="stroke: #000000; stroke-width: 0.6"/>
      </defs>
      <g>
       <use xlink:href="#m74530240e1" x="147.202961" y="38.1888" style="stroke: #000000; stroke-width: 0.6"/>
      </g>
     </g>
     <g id="text_1">
      <!-- 1 -->
      <g transform="translate(145.53468 32.426105) scale(0.06 -0.06)">
       <defs>
        <path id="ArialMT-14" d="M 2384 0
L 1822 0
L 1822 3584
Q 1619 3391 1289 3197
Q 959 3003 697 2906
L 697 3450
Q 1169 3672 1522 3987
Q 1875 4303 2022 4600
L 2384 4600
L 2384 0
z
" transform="scale(0.015625)"/>
       </defs>
       <use xlink:href="#ArialMT-14"/>
      </g>
     </g>
    </g>
    <g id="xtick_2">
     <g id="line2d_12">
      <path d="M 166.151702 154.8768
L 166.151702 38.1888
" clip-path="url(#pf0cad35de6)" style="fill: none; stroke: #d5dee3; stroke-width: 0.55; stroke-linecap: square"/>
     </g>
     <g id="line2d_13">
      <g>
       <use xlink:href="#m74530240e1" x="166.151702" y="38.1888" style="stroke: #000000; stroke-width: 0.6"/>
      </g>
     </g>
     <g id="text_2">
      <!-- $10^2$ -->
      <g transform="translate(160.871702 32.426105) scale(0.06 -0.06)">
       <defs>
        <path id="DejaVuSans-14" d="M 794 531
L 1825 531
L 1825 4091
L 703 3866
L 703 4441
L 1819 4666
L 2450 4666
L 2450 531
L 3481 531
L 3481 0
L 794 0
L 794 531
z
" transform="scale(0.015625)"/>
        <path id="DejaVuSans-13" d="M 2034 4250
Q 1547 4250 1301 3770
Q 1056 3291 1056 2328
Q 1056 1369 1301 889
Q 1547 409 2034 409
Q 2525 409 2770 889
Q 3016 1369 3016 2328
Q 3016 3291 2770 3770
Q 2525 4250 2034 4250
z
M 2034 4750
Q 2819 4750 3233 4129
Q 3647 3509 3647 2328
Q 3647 1150 3233 529
Q 2819 -91 2034 -91
Q 1250 -91 836 529
Q 422 1150 422 2328
Q 422 3509 836 4129
Q 1250 4750 2034 4750
z
" transform="scale(0.015625)"/>
        <path id="DejaVuSans-15" d="M 1228 531
L 3431 531
L 3431 0
L 469 0
L 469 531
Q 828 903 1448 1529
Q 2069 2156 2228 2338
Q 2531 2678 2651 2914
Q 2772 3150 2772 3378
Q 2772 3750 2511 3984
Q 2250 4219 1831 4219
Q 1534 4219 1204 4116
Q 875 4013 500 3803
L 500 4441
Q 881 4594 1212 4672
Q 1544 4750 1819 4750
Q 2544 4750 2975 4387
Q 3406 4025 3406 3419
Q 3406 3131 3298 2873
Q 3191 2616 2906 2266
Q 2828 2175 2409 1742
Q 1991 1309 1228 531
z
" transform="scale(0.015625)"/>
       </defs>
       <use xlink:href="#DejaVuSans-14" transform="translate(0 0.746875)"/>
       <use xlink:href="#DejaVuSans-13" transform="translate(63.623047 0.746875)"/>
       <use xlink:href="#DejaVuSans-15" transform="translate(128.203125 42.046875) scale(0.7)"/>
      </g>
     </g>
    </g>
    <g id="xtick_3">
     <g id="line2d_14">
      <path d="M 185.100443 154.8768
L 185.100443 38.1888
" clip-path="url(#pf0cad35de6)" style="fill: none; stroke: #d5dee3; stroke-width: 0.55; stroke-linecap: square"/>
     </g>
     <g id="line2d_15">
      <g>
       <use xlink:href="#m74530240e1" x="185.100443" y="38.1888" style="stroke: #000000; stroke-width: 0.6"/>
      </g>
     </g>
     <g id="text_3">
      <!-- $10^4$ -->
      <g transform="translate(179.820443 32.426105) scale(0.06 -0.06)">
       <defs>
        <path id="DejaVuSans-17" d="M 2419 4116
L 825 1625
L 2419 1625
L 2419 4116
z
M 2253 4666
L 3047 4666
L 3047 1625
L 3713 1625
L 3713 1100
L 3047 1100
L 3047 0
L 2419 0
L 2419 1100
L 313 1100
L 313 1709
L 2253 4666
z
" transform="scale(0.015625)"/>
       </defs>
       <use xlink:href="#DejaVuSans-14" transform="translate(0 0.665625)"/>
       <use xlink:href="#DejaVuSans-13" transform="translate(63.623047 0.665625)"/>
       <use xlink:href="#DejaVuSans-17" transform="translate(128.203125 41.965625) scale(0.7)"/>
      </g>
     </g>
    </g>
    <g id="xtick_4">
     <g id="line2d_16">
      <path d="M 204.049184 154.8768
L 204.049184 38.1888
" clip-path="url(#pf0cad35de6)" style="fill: none; stroke: #d5dee3; stroke-width: 0.55; stroke-linecap: square"/>
     </g>
     <g id="line2d_17">
      <g>
       <use xlink:href="#m74530240e1" x="204.049184" y="38.1888" style="stroke: #000000; stroke-width: 0.6"/>
      </g>
     </g>
     <g id="text_4">
      <!-- $10^6$ -->
      <g transform="translate(198.769184 32.426105) scale(0.06 -0.06)">
       <defs>
        <path id="DejaVuSans-19" d="M 2113 2584
Q 1688 2584 1439 2293
Q 1191 2003 1191 1497
Q 1191 994 1439 701
Q 1688 409 2113 409
Q 2538 409 2786 701
Q 3034 994 3034 1497
Q 3034 2003 2786 2293
Q 2538 2584 2113 2584
z
M 3366 4563
L 3366 3988
Q 3128 4100 2886 4159
Q 2644 4219 2406 4219
Q 1781 4219 1451 3797
Q 1122 3375 1075 2522
Q 1259 2794 1537 2939
Q 1816 3084 2150 3084
Q 2853 3084 3261 2657
Q 3669 2231 3669 1497
Q 3669 778 3244 343
Q 2819 -91 2113 -91
Q 1303 -91 875 529
Q 447 1150 447 2328
Q 447 3434 972 4092
Q 1497 4750 2381 4750
Q 2619 4750 2861 4703
Q 3103 4656 3366 4563
z
" transform="scale(0.015625)"/>
       </defs>
       <use xlink:href="#DejaVuSans-14" transform="translate(0 0.746875)"/>
       <use xlink:href="#DejaVuSans-13" transform="translate(63.623047 0.746875)"/>
       <use xlink:href="#DejaVuSans-19" transform="translate(128.203125 42.046875) scale(0.7)"/>
      </g>
     </g>
    </g>
    <g id="xtick_5">
     <g id="line2d_18">
      <path d="M 232.472295 154.8768
L 232.472295 38.1888
" clip-path="url(#pf0cad35de6)" style="fill: none; stroke: #d5dee3; stroke-width: 0.55; stroke-linecap: square"/>
     </g>
     <g id="line2d_19">
      <g>
       <use xlink:href="#m74530240e1" x="232.472295" y="38.1888" style="stroke: #000000; stroke-width: 0.6"/>
      </g>
     </g>
     <g id="text_5">
      <!-- $10^9$ -->
      <g transform="translate(227.192295 32.426105) scale(0.06 -0.06)">
       <defs>
        <path id="DejaVuSans-1c" d="M 703 97
L 703 672
Q 941 559 1184 500
Q 1428 441 1663 441
Q 2288 441 2617 861
Q 2947 1281 2994 2138
Q 2813 1869 2534 1725
Q 2256 1581 1919 1581
Q 1219 1581 811 2004
Q 403 2428 403 3163
Q 403 3881 828 4315
Q 1253 4750 1959 4750
Q 2769 4750 3195 4129
Q 3622 3509 3622 2328
Q 3622 1225 3098 567
Q 2575 -91 1691 -91
Q 1453 -91 1209 -44
Q 966 3 703 97
z
M 1959 2075
Q 2384 2075 2632 2365
Q 2881 2656 2881 3163
Q 2881 3666 2632 3958
Q 2384 4250 1959 4250
Q 1534 4250 1286 3958
Q 1038 3666 1038 3163
Q 1038 2656 1286 2365
Q 1534 2075 1959 2075
z
" transform="scale(0.015625)"/>
       </defs>
       <use xlink:href="#DejaVuSans-14" transform="translate(0 0.746875)"/>
       <use xlink:href="#DejaVuSans-13" transform="translate(63.623047 0.746875)"/>
       <use xlink:href="#DejaVuSans-1c" transform="translate(128.203125 42.046875) scale(0.7)"/>
      </g>
     </g>
    </g>
    <g id="xtick_6">
     <g id="line2d_20">
      <path d="M 260.895407 154.8768
L 260.895407 38.1888
" clip-path="url(#pf0cad35de6)" style="fill: none; stroke: #d5dee3; stroke-width: 0.55; stroke-linecap: square"/>
     </g>
     <g id="line2d_21">
      <g>
       <use xlink:href="#m74530240e1" x="260.895407" y="38.1888" style="stroke: #000000; stroke-width: 0.6"/>
      </g>
     </g>
     <g id="text_6">
      <!-- $10^{12}$ -->
      <g transform="translate(254.265407 32.426105) scale(0.06 -0.06)">
       <use xlink:href="#DejaVuSans-14" transform="translate(0 0.746875)"/>
       <use xlink:href="#DejaVuSans-13" transform="translate(63.623047 0.746875)"/>
       <use xlink:href="#DejaVuSans-14" transform="translate(128.203125 42.046875) scale(0.7)"/>
       <use xlink:href="#DejaVuSans-15" transform="translate(172.739258 42.046875) scale(0.7)"/>
      </g>
     </g>
    </g>
    <g id="xtick_7">
     <g id="line2d_22">
      <path d="M 289.318518 154.8768
L 289.318518 38.1888
" clip-path="url(#pf0cad35de6)" style="fill: none; stroke: #d5dee3; stroke-width: 0.55; stroke-linecap: square"/>
     </g>
     <g id="line2d_23">
      <g>
       <use xlink:href="#m74530240e1" x="289.318518" y="38.1888" style="stroke: #000000; stroke-width: 0.6"/>
      </g>
     </g>
     <g id="text_7">
      <!-- $10^{15}$ -->
      <g transform="translate(282.688518 32.426105) scale(0.06 -0.06)">
       <defs>
        <path id="DejaVuSans-18" d="M 691 4666
L 3169 4666
L 3169 4134
L 1269 4134
L 1269 2991
Q 1406 3038 1543 3061
Q 1681 3084 1819 3084
Q 2600 3084 3056 2656
Q 3513 2228 3513 1497
Q 3513 744 3044 326
Q 2575 -91 1722 -91
Q 1428 -91 1123 -41
Q 819 9 494 109
L 494 744
Q 775 591 1075 516
Q 1375 441 1709 441
Q 2250 441 2565 725
Q 2881 1009 2881 1497
Q 2881 1984 2565 2268
Q 2250 2553 1709 2553
Q 1456 2553 1204 2497
Q 953 2441 691 2322
L 691 4666
z
" transform="scale(0.015625)"/>
       </defs>
       <use xlink:href="#DejaVuSans-14" transform="translate(0 0.665625)"/>
       <use xlink:href="#DejaVuSans-13" transform="translate(63.623047 0.665625)"/>
       <use xlink:href="#DejaVuSans-14" transform="translate(128.203125 41.965625) scale(0.7)"/>
       <use xlink:href="#DejaVuSans-18" transform="translate(172.739258 41.965625) scale(0.7)"/>
      </g>
     </g>
    </g>
    <g id="xtick_8">
     <g id="line2d_24">
      <path d="M 317.74163 154.8768
L 317.74163 38.1888
" clip-path="url(#pf0cad35de6)" style="fill: none; stroke: #d5dee3; stroke-width: 0.55; stroke-linecap: square"/>
     </g>
     <g id="line2d_25">
      <g>
       <use xlink:href="#m74530240e1" x="317.74163" y="38.1888" style="stroke: #000000; stroke-width: 0.6"/>
      </g>
     </g>
     <g id="text_8">
      <!-- $10^{18}$ -->
      <g transform="translate(311.11163 32.426105) scale(0.06 -0.06)">
       <defs>
        <path id="DejaVuSans-1b" d="M 2034 2216
Q 1584 2216 1326 1975
Q 1069 1734 1069 1313
Q 1069 891 1326 650
Q 1584 409 2034 409
Q 2484 409 2743 651
Q 3003 894 3003 1313
Q 3003 1734 2745 1975
Q 2488 2216 2034 2216
z
M 1403 2484
Q 997 2584 770 2862
Q 544 3141 544 3541
Q 544 4100 942 4425
Q 1341 4750 2034 4750
Q 2731 4750 3128 4425
Q 3525 4100 3525 3541
Q 3525 3141 3298 2862
Q 3072 2584 2669 2484
Q 3125 2378 3379 2068
Q 3634 1759 3634 1313
Q 3634 634 3220 271
Q 2806 -91 2034 -91
Q 1263 -91 848 271
Q 434 634 434 1313
Q 434 1759 690 2068
Q 947 2378 1403 2484
z
M 1172 3481
Q 1172 3119 1398 2916
Q 1625 2713 2034 2713
Q 2441 2713 2670 2916
Q 2900 3119 2900 3481
Q 2900 3844 2670 4047
Q 2441 4250 2034 4250
Q 1625 4250 1398 4047
Q 1172 3844 1172 3481
z
" transform="scale(0.015625)"/>
       </defs>
       <use xlink:href="#DejaVuSans-14" transform="translate(0 0.746875)"/>
       <use xlink:href="#DejaVuSans-13" transform="translate(63.623047 0.746875)"/>
       <use xlink:href="#DejaVuSans-14" transform="translate(128.203125 42.046875) scale(0.7)"/>
       <use xlink:href="#DejaVuSans-1b" transform="translate(172.739258 42.046875) scale(0.7)"/>
      </g>
     </g>
    </g>
    <g id="text_9">
     <!-- count scale: candidates or affordable evaluations -->
     <g transform="translate(160.937119 20.786105) scale(0.07 -0.07)">
      <defs>
       <path id="ArialMT-46" d="M 2588 1216
L 3141 1144
Q 3050 572 2676 248
Q 2303 -75 1759 -75
Q 1078 -75 664 370
Q 250 816 250 1647
Q 250 2184 428 2587
Q 606 2991 970 3192
Q 1334 3394 1763 3394
Q 2303 3394 2647 3120
Q 2991 2847 3088 2344
L 2541 2259
Q 2463 2594 2264 2762
Q 2066 2931 1784 2931
Q 1359 2931 1093 2626
Q 828 2322 828 1663
Q 828 994 1084 691
Q 1341 388 1753 388
Q 2084 388 2306 591
Q 2528 794 2588 1216
z
" transform="scale(0.015625)"/>
       <path id="ArialMT-52" d="M 213 1659
Q 213 2581 725 3025
Q 1153 3394 1769 3394
Q 2453 3394 2887 2945
Q 3322 2497 3322 1706
Q 3322 1066 3130 698
Q 2938 331 2570 128
Q 2203 -75 1769 -75
Q 1072 -75 642 372
Q 213 819 213 1659
z
M 791 1659
Q 791 1022 1069 705
Q 1347 388 1769 388
Q 2188 388 2466 706
Q 2744 1025 2744 1678
Q 2744 2294 2464 2611
Q 2184 2928 1769 2928
Q 1347 2928 1069 2612
Q 791 2297 791 1659
z
" transform="scale(0.015625)"/>
       <path id="ArialMT-58" d="M 2597 0
L 2597 488
Q 2209 -75 1544 -75
Q 1250 -75 995 37
Q 741 150 617 320
Q 494 491 444 738
Q 409 903 409 1263
L 409 3319
L 972 3319
L 972 1478
Q 972 1038 1006 884
Q 1059 663 1231 536
Q 1403 409 1656 409
Q 1909 409 2131 539
Q 2353 669 2445 892
Q 2538 1116 2538 1541
L 2538 3319
L 3100 3319
L 3100 0
L 2597 0
z
" transform="scale(0.015625)"/>
       <path id="ArialMT-51" d="M 422 0
L 422 3319
L 928 3319
L 928 2847
Q 1294 3394 1984 3394
Q 2284 3394 2536 3286
Q 2788 3178 2913 3003
Q 3038 2828 3088 2588
Q 3119 2431 3119 2041
L 3119 0
L 2556 0
L 2556 2019
Q 2556 2363 2490 2533
Q 2425 2703 2258 2804
Q 2091 2906 1866 2906
Q 1506 2906 1245 2678
Q 984 2450 984 1813
L 984 0
L 422 0
z
" transform="scale(0.015625)"/>
       <path id="ArialMT-57" d="M 1650 503
L 1731 6
Q 1494 -44 1306 -44
Q 1000 -44 831 53
Q 663 150 594 308
Q 525 466 525 972
L 525 2881
L 113 2881
L 113 3319
L 525 3319
L 525 4141
L 1084 4478
L 1084 3319
L 1650 3319
L 1650 2881
L 1084 2881
L 1084 941
Q 1084 700 1114 631
Q 1144 563 1211 522
Q 1278 481 1403 481
Q 1497 481 1650 503
z
" transform="scale(0.015625)"/>
       <path id="ArialMT-3" transform="scale(0.015625)"/>
       <path id="ArialMT-56" d="M 197 991
L 753 1078
Q 800 744 1014 566
Q 1228 388 1613 388
Q 2000 388 2187 545
Q 2375 703 2375 916
Q 2375 1106 2209 1216
Q 2094 1291 1634 1406
Q 1016 1563 777 1677
Q 538 1791 414 1992
Q 291 2194 291 2438
Q 291 2659 392 2848
Q 494 3038 669 3163
Q 800 3259 1026 3326
Q 1253 3394 1513 3394
Q 1903 3394 2198 3281
Q 2494 3169 2634 2976
Q 2775 2784 2828 2463
L 2278 2388
Q 2241 2644 2061 2787
Q 1881 2931 1553 2931
Q 1166 2931 1000 2803
Q 834 2675 834 2503
Q 834 2394 903 2306
Q 972 2216 1119 2156
Q 1203 2125 1616 2013
Q 2213 1853 2448 1751
Q 2684 1650 2818 1456
Q 2953 1263 2953 975
Q 2953 694 2789 445
Q 2625 197 2315 61
Q 2006 -75 1616 -75
Q 969 -75 630 194
Q 291 463 197 991
z
" transform="scale(0.015625)"/>
       <path id="ArialMT-44" d="M 2588 409
Q 2275 144 1986 34
Q 1697 -75 1366 -75
Q 819 -75 525 192
Q 231 459 231 875
Q 231 1119 342 1320
Q 453 1522 633 1644
Q 813 1766 1038 1828
Q 1203 1872 1538 1913
Q 2219 1994 2541 2106
Q 2544 2222 2544 2253
Q 2544 2597 2384 2738
Q 2169 2928 1744 2928
Q 1347 2928 1158 2789
Q 969 2650 878 2297
L 328 2372
Q 403 2725 575 2942
Q 747 3159 1072 3276
Q 1397 3394 1825 3394
Q 2250 3394 2515 3294
Q 2781 3194 2906 3042
Q 3031 2891 3081 2659
Q 3109 2516 3109 2141
L 3109 1391
Q 3109 606 3145 398
Q 3181 191 3288 0
L 2700 0
Q 2613 175 2588 409
z
M 2541 1666
Q 2234 1541 1622 1453
Q 1275 1403 1131 1340
Q 988 1278 909 1158
Q 831 1038 831 891
Q 831 666 1001 516
Q 1172 366 1500 366
Q 1825 366 2078 508
Q 2331 650 2450 897
Q 2541 1088 2541 1459
L 2541 1666
z
" transform="scale(0.015625)"/>
       <path id="ArialMT-4f" d="M 409 0
L 409 4581
L 972 4581
L 972 0
L 409 0
z
" transform="scale(0.015625)"/>
       <path id="ArialMT-48" d="M 2694 1069
L 3275 997
Q 3138 488 2766 206
Q 2394 -75 1816 -75
Q 1088 -75 661 373
Q 234 822 234 1631
Q 234 2469 665 2931
Q 1097 3394 1784 3394
Q 2450 3394 2872 2941
Q 3294 2488 3294 1666
Q 3294 1616 3291 1516
L 816 1516
Q 847 969 1125 678
Q 1403 388 1819 388
Q 2128 388 2347 550
Q 2566 713 2694 1069
z
M 847 1978
L 2700 1978
Q 2663 2397 2488 2606
Q 2219 2931 1791 2931
Q 1403 2931 1139 2672
Q 875 2413 847 1978
z
" transform="scale(0.015625)"/>
       <path id="ArialMT-1d" d="M 578 2678
L 578 3319
L 1219 3319
L 1219 2678
L 578 2678
z
M 578 0
L 578 641
L 1219 641
L 1219 0
L 578 0
z
" transform="scale(0.015625)"/>
       <path id="ArialMT-47" d="M 2575 0
L 2575 419
Q 2259 -75 1647 -75
Q 1250 -75 917 144
Q 584 363 401 755
Q 219 1147 219 1656
Q 219 2153 384 2558
Q 550 2963 881 3178
Q 1213 3394 1622 3394
Q 1922 3394 2156 3267
Q 2391 3141 2538 2938
L 2538 4581
L 3097 4581
L 3097 0
L 2575 0
z
M 797 1656
Q 797 1019 1065 703
Q 1334 388 1700 388
Q 2069 388 2326 689
Q 2584 991 2584 1609
Q 2584 2291 2321 2609
Q 2059 2928 1675 2928
Q 1300 2928 1048 2622
Q 797 2316 797 1656
z
" transform="scale(0.015625)"/>
       <path id="ArialMT-4c" d="M 425 3934
L 425 4581
L 988 4581
L 988 3934
L 425 3934
z
M 425 0
L 425 3319
L 988 3319
L 988 0
L 425 0
z
" transform="scale(0.015625)"/>
       <path id="ArialMT-55" d="M 416 0
L 416 3319
L 922 3319
L 922 2816
Q 1116 3169 1280 3281
Q 1444 3394 1641 3394
Q 1925 3394 2219 3213
L 2025 2691
Q 1819 2813 1613 2813
Q 1428 2813 1281 2702
Q 1134 2591 1072 2394
Q 978 2094 978 1738
L 978 0
L 416 0
z
" transform="scale(0.015625)"/>
       <path id="ArialMT-49" d="M 556 0
L 556 2881
L 59 2881
L 59 3319
L 556 3319
L 556 3672
Q 556 4006 616 4169
Q 697 4388 901 4523
Q 1106 4659 1475 4659
Q 1713 4659 2000 4603
L 1916 4113
Q 1741 4144 1584 4144
Q 1328 4144 1222 4034
Q 1116 3925 1116 3625
L 1116 3319
L 1763 3319
L 1763 2881
L 1116 2881
L 1116 0
L 556 0
z
" transform="scale(0.015625)"/>
       <path id="ArialMT-45" d="M 941 0
L 419 0
L 419 4581
L 981 4581
L 981 2947
Q 1338 3394 1891 3394
Q 2197 3394 2470 3270
Q 2744 3147 2920 2923
Q 3097 2700 3197 2384
Q 3297 2069 3297 1709
Q 3297 856 2875 390
Q 2453 -75 1863 -75
Q 1275 -75 941 416
L 941 0
z
M 934 1684
Q 934 1088 1097 822
Q 1363 388 1816 388
Q 2184 388 2453 708
Q 2722 1028 2722 1663
Q 2722 2313 2464 2622
Q 2206 2931 1841 2931
Q 1472 2931 1203 2611
Q 934 2291 934 1684
z
" transform="scale(0.015625)"/>
       <path id="ArialMT-59" d="M 1344 0
L 81 3319
L 675 3319
L 1388 1331
Q 1503 1009 1600 663
Q 1675 925 1809 1294
L 2547 3319
L 3125 3319
L 1869 0
L 1344 0
z
" transform="scale(0.015625)"/>
      </defs>
      <use xlink:href="#ArialMT-46"/>
      <use xlink:href="#ArialMT-52" transform="translate(50 0)"/>
      <use xlink:href="#ArialMT-58" transform="translate(105.609375 0)"/>
      <use xlink:href="#ArialMT-51" transform="translate(161.21875 0)"/>
      <use xlink:href="#ArialMT-57" transform="translate(216.828125 0)"/>
      <use xlink:href="#ArialMT-3" transform="translate(244.609375 0)"/>
      <use xlink:href="#ArialMT-56" transform="translate(272.390625 0)"/>
      <use xlink:href="#ArialMT-46" transform="translate(322.390625 0)"/>
      <use xlink:href="#ArialMT-44" transform="translate(372.390625 0)"/>
      <use xlink:href="#ArialMT-4f" transform="translate(428 0)"/>
      <use xlink:href="#ArialMT-48" transform="translate(450.21875 0)"/>
      <use xlink:href="#ArialMT-1d" transform="translate(505.828125 0)"/>
      <use xlink:href="#ArialMT-3" transform="translate(533.609375 0)"/>
      <use xlink:href="#ArialMT-46" transform="translate(561.390625 0)"/>
      <use xlink:href="#ArialMT-44" transform="translate(611.390625 0)"/>
      <use xlink:href="#ArialMT-51" transform="translate(667 0)"/>
      <use xlink:href="#ArialMT-47" transform="translate(722.609375 0)"/>
      <use xlink:href="#ArialMT-4c" transform="translate(778.21875 0)"/>
      <use xlink:href="#ArialMT-47" transform="translate(800.4375 0)"/>
      <use xlink:href="#ArialMT-44" transform="translate(856.046875 0)"/>
      <use xlink:href="#ArialMT-57" transform="translate(911.65625 0)"/>
      <use xlink:href="#ArialMT-48" transform="translate(939.4375 0)"/>
      <use xlink:href="#ArialMT-56" transform="translate(995.046875 0)"/>
      <use xlink:href="#ArialMT-3" transform="translate(1045.046875 0)"/>
      <use xlink:href="#ArialMT-52" transform="translate(1072.828125 0)"/>
      <use xlink:href="#ArialMT-55" transform="translate(1128.4375 0)"/>
      <use xlink:href="#ArialMT-3" transform="translate(1161.734375 0)"/>
      <use xlink:href="#ArialMT-44" transform="translate(1189.515625 0)"/>
      <use xlink:href="#ArialMT-49" transform="translate(1245.125 0)"/>
      <use xlink:href="#ArialMT-49" transform="translate(1271.09375 0)"/>
      <use xlink:href="#ArialMT-52" transform="translate(1298.875 0)"/>
      <use xlink:href="#ArialMT-55" transform="translate(1354.484375 0)"/>
      <use xlink:href="#ArialMT-47" transform="translate(1387.78125 0)"/>
      <use xlink:href="#ArialMT-44" transform="translate(1443.390625 0)"/>
      <use xlink:href="#ArialMT-45" transform="translate(1499 0)"/>
      <use xlink:href="#ArialMT-4f" transform="translate(1554.609375 0)"/>
      <use xlink:href="#ArialMT-48" transform="translate(1576.828125 0)"/>
      <use xlink:href="#ArialMT-3" transform="translate(1632.4375 0)"/>
      <use xlink:href="#ArialMT-48" transform="translate(1660.21875 0)"/>
      <use xlink:href="#ArialMT-59" transform="translate(1715.828125 0)"/>
      <use xlink:href="#ArialMT-44" transform="translate(1765.828125 0)"/>
      <use xlink:href="#ArialMT-4f" transform="translate(1821.4375 0)"/>
      <use xlink:href="#ArialMT-58" transform="translate(1843.65625 0)"/>
      <use xlink:href="#ArialMT-44" transform="translate(1899.265625 0)"/>
      <use xlink:href="#ArialMT-57" transform="translate(1954.875 0)"/>
      <use xlink:href="#ArialMT-4c" transform="translate(1982.65625 0)"/>
      <use xlink:href="#ArialMT-52" transform="translate(2004.875 0)"/>
      <use xlink:href="#ArialMT-51" transform="translate(2060.484375 0)"/>
      <use xlink:href="#ArialMT-56" transform="translate(2116.09375 0)"/>
     </g>
    </g>
   </g>
   <g id="matplotlib.axis_2"/>
   <g id="LineCollection_1">
    <path d="M 186.167305 53.7472
L 186.167305 53.7472
" clip-path="url(#pf0cad35de6)" style="fill: none; stroke: #e68a17; stroke-width: 2.2"/>
   </g>
   <g id="LineCollection_2">
    <path d="M 229.452257 64.860343
L 229.452257 64.860343
" clip-path="url(#pf0cad35de6)" style="fill: none; stroke: #e68a17; stroke-width: 2.2"/>
   </g>
   <g id="LineCollection_3">
    <path d="M 232.472295 75.973486
L 232.472295 75.973486
" clip-path="url(#pf0cad35de6)" style="fill: none; stroke: #e68a17; stroke-width: 2.2"/>
   </g>
   <g id="LineCollection_4">
    <path d="M 321.673241 87.086629
L 321.673241 87.086629
" clip-path="url(#pf0cad35de6)" style="fill: none; stroke: #e68a17; stroke-width: 2.2"/>
   </g>
   <g id="LineCollection_5">
    <path d="M 194.574814 114.313829
L 204.049184 114.313829
" clip-path="url(#pf0cad35de6)" style="fill: none; stroke: #1683a6; stroke-width: 2.2"/>
   </g>
   <g id="LineCollection_6">
    <path d="M 156.677332 125.426971
L 166.151702 125.426971
" clip-path="url(#pf0cad35de6)" style="fill: none; stroke: #1683a6; stroke-width: 2.2"/>
   </g>
   <g id="LineCollection_7">
    <path d="M 151.723385 136.540114
L 159.529402 136.540114
" clip-path="url(#pf0cad35de6)" style="fill: none; stroke: #1683a6; stroke-width: 2.2"/>
   </g>
   <g id="LineCollection_8">
    <path d="M 147.202961 147.653257
L 153.825262 147.653257
" clip-path="url(#pf0cad35de6)" style="fill: none; stroke: #1683a6; stroke-width: 2.2"/>
   </g>
   <g id="patch_4">
    <path d="M 146.2848 38.1888
L 327.216 38.1888
" style="fill: none; stroke: #20252b; stroke-width: 0.7; stroke-linejoin: miter; stroke-linecap: square"/>
   </g>
   <g id="text_10">
    <!-- design-space anchors -->
    <g style="fill: #8a5310" transform="translate(12.395712 45.246291) scale(0.058 -0.058)">
     <defs>
      <path id="Arial-BoldMT-47" d="M 3503 0
L 2688 0
L 2688 488
Q 2484 203 2207 64
Q 1931 -75 1650 -75
Q 1078 -75 670 386
Q 263 847 263 1672
Q 263 2516 659 2955
Q 1056 3394 1663 3394
Q 2219 3394 2625 2931
L 2625 4581
L 3503 4581
L 3503 0
z
M 1159 1731
Q 1159 1200 1306 963
Q 1519 619 1900 619
Q 2203 619 2415 876
Q 2628 1134 2628 1647
Q 2628 2219 2422 2470
Q 2216 2722 1894 2722
Q 1581 2722 1370 2473
Q 1159 2225 1159 1731
z
" transform="scale(0.015625)"/>
      <path id="Arial-BoldMT-48" d="M 2381 1056
L 3256 909
Q 3088 428 2723 176
Q 2359 -75 1813 -75
Q 947 -75 531 491
Q 203 944 203 1634
Q 203 2459 634 2926
Q 1066 3394 1725 3394
Q 2466 3394 2894 2905
Q 3322 2416 3303 1406
L 1103 1406
Q 1113 1016 1316 798
Q 1519 581 1822 581
Q 2028 581 2168 693
Q 2309 806 2381 1056
z
M 2431 1944
Q 2422 2325 2234 2523
Q 2047 2722 1778 2722
Q 1491 2722 1303 2513
Q 1116 2303 1119 1944
L 2431 1944
z
" transform="scale(0.015625)"/>
      <path id="Arial-BoldMT-56" d="M 150 947
L 1031 1081
Q 1088 825 1259 692
Q 1431 559 1741 559
Q 2081 559 2253 684
Q 2369 772 2369 919
Q 2369 1019 2306 1084
Q 2241 1147 2013 1200
Q 950 1434 666 1628
Q 272 1897 272 2375
Q 272 2806 612 3100
Q 953 3394 1669 3394
Q 2350 3394 2681 3172
Q 3013 2950 3138 2516
L 2309 2363
Q 2256 2556 2107 2659
Q 1959 2763 1684 2763
Q 1338 2763 1188 2666
Q 1088 2597 1088 2488
Q 1088 2394 1175 2328
Q 1294 2241 1995 2081
Q 2697 1922 2975 1691
Q 3250 1456 3250 1038
Q 3250 581 2869 253
Q 2488 -75 1741 -75
Q 1063 -75 667 200
Q 272 475 150 947
z
" transform="scale(0.015625)"/>
      <path id="Arial-BoldMT-4c" d="M 459 3769
L 459 4581
L 1338 4581
L 1338 3769
L 459 3769
z
M 459 0
L 459 3319
L 1338 3319
L 1338 0
L 459 0
z
" transform="scale(0.015625)"/>
      <path id="Arial-BoldMT-4a" d="M 378 -219
L 1381 -341
Q 1406 -516 1497 -581
Q 1622 -675 1891 -675
Q 2234 -675 2406 -572
Q 2522 -503 2581 -350
Q 2622 -241 2622 53
L 2622 538
Q 2228 0 1628 0
Q 959 0 569 566
Q 263 1013 263 1678
Q 263 2513 664 2953
Q 1066 3394 1663 3394
Q 2278 3394 2678 2853
L 2678 3319
L 3500 3319
L 3500 341
Q 3500 -247 3403 -537
Q 3306 -828 3131 -993
Q 2956 -1159 2664 -1253
Q 2372 -1347 1925 -1347
Q 1081 -1347 728 -1058
Q 375 -769 375 -325
Q 375 -281 378 -219
z
M 1163 1728
Q 1163 1200 1367 954
Q 1572 709 1872 709
Q 2194 709 2416 961
Q 2638 1213 2638 1706
Q 2638 2222 2425 2472
Q 2213 2722 1888 2722
Q 1572 2722 1367 2476
Q 1163 2231 1163 1728
z
" transform="scale(0.015625)"/>
      <path id="Arial-BoldMT-51" d="M 3478 0
L 2600 0
L 2600 1694
Q 2600 2231 2544 2389
Q 2488 2547 2361 2634
Q 2234 2722 2056 2722
Q 1828 2722 1647 2597
Q 1466 2472 1398 2265
Q 1331 2059 1331 1503
L 1331 0
L 453 0
L 453 3319
L 1269 3319
L 1269 2831
Q 1703 3394 2363 3394
Q 2653 3394 2893 3289
Q 3134 3184 3257 3021
Q 3381 2859 3429 2653
Q 3478 2447 3478 2063
L 3478 0
z
" transform="scale(0.015625)"/>
      <path id="Arial-BoldMT-10" d="M 359 1222
L 359 2100
L 2084 2100
L 2084 1222
L 359 1222
z
" transform="scale(0.015625)"/>
      <path id="Arial-BoldMT-53" d="M 434 3319
L 1253 3319
L 1253 2831
Q 1413 3081 1684 3237
Q 1956 3394 2288 3394
Q 2866 3394 3269 2941
Q 3672 2488 3672 1678
Q 3672 847 3265 386
Q 2859 -75 2281 -75
Q 2006 -75 1782 34
Q 1559 144 1313 409
L 1313 -1263
L 434 -1263
L 434 3319
z
M 1303 1716
Q 1303 1156 1525 889
Q 1747 622 2066 622
Q 2372 622 2575 867
Q 2778 1113 2778 1672
Q 2778 2194 2568 2447
Q 2359 2700 2050 2700
Q 1728 2700 1515 2451
Q 1303 2203 1303 1716
z
" transform="scale(0.015625)"/>
      <path id="Arial-BoldMT-44" d="M 1116 2306
L 319 2450
Q 453 2931 781 3162
Q 1109 3394 1756 3394
Q 2344 3394 2631 3255
Q 2919 3116 3036 2902
Q 3153 2688 3153 2116
L 3144 1091
Q 3144 653 3186 445
Q 3228 238 3344 0
L 2475 0
Q 2441 88 2391 259
Q 2369 338 2359 363
Q 2134 144 1878 34
Q 1622 -75 1331 -75
Q 819 -75 523 203
Q 228 481 228 906
Q 228 1188 362 1408
Q 497 1628 739 1745
Q 981 1863 1438 1950
Q 2053 2066 2291 2166
L 2291 2253
Q 2291 2506 2166 2614
Q 2041 2722 1694 2722
Q 1459 2722 1328 2630
Q 1197 2538 1116 2306
z
M 2291 1594
Q 2122 1538 1756 1459
Q 1391 1381 1278 1306
Q 1106 1184 1106 997
Q 1106 813 1243 678
Q 1381 544 1594 544
Q 1831 544 2047 700
Q 2206 819 2256 991
Q 2291 1103 2291 1419
L 2291 1594
z
" transform="scale(0.015625)"/>
      <path id="Arial-BoldMT-46" d="M 3353 2338
L 2488 2181
Q 2444 2441 2289 2572
Q 2134 2703 1888 2703
Q 1559 2703 1364 2476
Q 1169 2250 1169 1719
Q 1169 1128 1367 884
Q 1566 641 1900 641
Q 2150 641 2309 783
Q 2469 925 2534 1272
L 3397 1125
Q 3263 531 2881 228
Q 2500 -75 1859 -75
Q 1131 -75 698 384
Q 266 844 266 1656
Q 266 2478 700 2936
Q 1134 3394 1875 3394
Q 2481 3394 2839 3133
Q 3197 2872 3353 2338
z
" transform="scale(0.015625)"/>
      <path id="Arial-BoldMT-3" transform="scale(0.015625)"/>
      <path id="Arial-BoldMT-4b" d="M 1334 4581
L 1334 2897
Q 1759 3394 2350 3394
Q 2653 3394 2897 3281
Q 3141 3169 3264 2994
Q 3388 2819 3433 2606
Q 3478 2394 3478 1947
L 3478 0
L 2600 0
L 2600 1753
Q 2600 2275 2550 2415
Q 2500 2556 2373 2639
Q 2247 2722 2056 2722
Q 1838 2722 1666 2615
Q 1494 2509 1414 2295
Q 1334 2081 1334 1663
L 1334 0
L 456 0
L 456 4581
L 1334 4581
z
" transform="scale(0.015625)"/>
      <path id="Arial-BoldMT-52" d="M 256 1706
Q 256 2144 472 2553
Q 688 2963 1083 3178
Q 1478 3394 1966 3394
Q 2719 3394 3200 2905
Q 3681 2416 3681 1669
Q 3681 916 3195 420
Q 2709 -75 1972 -75
Q 1516 -75 1102 131
Q 688 338 472 736
Q 256 1134 256 1706
z
M 1156 1659
Q 1156 1166 1390 903
Q 1625 641 1969 641
Q 2313 641 2545 903
Q 2778 1166 2778 1666
Q 2778 2153 2545 2415
Q 2313 2678 1969 2678
Q 1625 2678 1390 2415
Q 1156 2153 1156 1659
z
" transform="scale(0.015625)"/>
      <path id="Arial-BoldMT-55" d="M 1300 0
L 422 0
L 422 3319
L 1238 3319
L 1238 2847
Q 1447 3181 1614 3287
Q 1781 3394 1994 3394
Q 2294 3394 2572 3228
L 2300 2463
Q 2078 2606 1888 2606
Q 1703 2606 1575 2504
Q 1447 2403 1373 2137
Q 1300 1872 1300 1025
L 1300 0
z
" transform="scale(0.015625)"/>
     </defs>
     <use xlink:href="#Arial-BoldMT-47"/>
     <use xlink:href="#Arial-BoldMT-48" transform="translate(61.078125 0)"/>
     <use xlink:href="#Arial-BoldMT-56" transform="translate(116.6875 0)"/>
     <use xlink:href="#Arial-BoldMT-4c" transform="translate(172.296875 0)"/>
     <use xlink:href="#Arial-BoldMT-4a" transform="translate(200.078125 0)"/>
     <use xlink:href="#Arial-BoldMT-51" transform="translate(261.15625 0)"/>
     <use xlink:href="#Arial-BoldMT-10" transform="translate(322.234375 0)"/>
     <use xlink:href="#Arial-BoldMT-56" transform="translate(355.53125 0)"/>
     <use xlink:href="#Arial-BoldMT-53" transform="translate(411.140625 0)"/>
     <use xlink:href="#Arial-BoldMT-44" transform="translate(472.21875 0)"/>
     <use xlink:href="#Arial-BoldMT-46" transform="translate(527.828125 0)"/>
     <use xlink:href="#Arial-BoldMT-48" transform="translate(583.4375 0)"/>
     <use xlink:href="#Arial-BoldMT-3" transform="translate(639.046875 0)"/>
     <use xlink:href="#Arial-BoldMT-44" transform="translate(666.828125 0)"/>
     <use xlink:href="#Arial-BoldMT-51" transform="translate(722.4375 0)"/>
     <use xlink:href="#Arial-BoldMT-46" transform="translate(783.515625 0)"/>
     <use xlink:href="#Arial-BoldMT-4b" transform="translate(839.125 0)"/>
     <use xlink:href="#Arial-BoldMT-52" transform="translate(900.203125 0)"/>
     <use xlink:href="#Arial-BoldMT-55" transform="translate(961.28125 0)"/>
     <use xlink:href="#Arial-BoldMT-56" transform="translate(1000.203125 0)"/>
    </g>
   </g>
   <g id="text_11">
    <!-- affordable feedback budgets -->
    <g style="fill: #136680" transform="translate(12.395712 108.035548) scale(0.058 -0.058)">
     <defs>
      <path id="Arial-BoldMT-49" d="M 75 3319
L 563 3319
L 563 3569
Q 563 3988 652 4194
Q 741 4400 980 4529
Q 1219 4659 1584 4659
Q 1959 4659 2319 4547
L 2200 3934
Q 1991 3984 1797 3984
Q 1606 3984 1523 3895
Q 1441 3806 1441 3553
L 1441 3319
L 2097 3319
L 2097 2628
L 1441 2628
L 1441 0
L 563 0
L 563 2628
L 75 2628
L 75 3319
z
" transform="scale(0.015625)"/>
      <path id="Arial-BoldMT-45" d="M 422 0
L 422 4581
L 1300 4581
L 1300 2931
Q 1706 3394 2263 3394
Q 2869 3394 3266 2955
Q 3663 2516 3663 1694
Q 3663 844 3258 384
Q 2853 -75 2275 -75
Q 1991 -75 1714 67
Q 1438 209 1238 488
L 1238 0
L 422 0
z
M 1294 1731
Q 1294 1216 1456 969
Q 1684 619 2063 619
Q 2353 619 2558 867
Q 2763 1116 2763 1650
Q 2763 2219 2556 2470
Q 2350 2722 2028 2722
Q 1713 2722 1503 2476
Q 1294 2231 1294 1731
z
" transform="scale(0.015625)"/>
      <path id="Arial-BoldMT-4f" d="M 459 0
L 459 4581
L 1338 4581
L 1338 0
L 459 0
z
" transform="scale(0.015625)"/>
      <path id="Arial-BoldMT-4e" d="M 428 0
L 428 4581
L 1306 4581
L 1306 2150
L 2334 3319
L 3416 3319
L 2281 2106
L 3497 0
L 2550 0
L 1716 1491
L 1306 1063
L 1306 0
L 428 0
z
" transform="scale(0.015625)"/>
      <path id="Arial-BoldMT-58" d="M 2644 0
L 2644 497
Q 2463 231 2167 78
Q 1872 -75 1544 -75
Q 1209 -75 943 72
Q 678 219 559 484
Q 441 750 441 1219
L 441 3319
L 1319 3319
L 1319 1794
Q 1319 1094 1367 936
Q 1416 778 1544 686
Q 1672 594 1869 594
Q 2094 594 2272 717
Q 2450 841 2515 1023
Q 2581 1206 2581 1919
L 2581 3319
L 3459 3319
L 3459 0
L 2644 0
z
" transform="scale(0.015625)"/>
      <path id="Arial-BoldMT-57" d="M 1981 3319
L 1981 2619
L 1381 2619
L 1381 1281
Q 1381 875 1398 808
Q 1416 741 1477 697
Q 1538 653 1625 653
Q 1747 653 1978 738
L 2053 56
Q 1747 -75 1359 -75
Q 1122 -75 931 4
Q 741 84 652 211
Q 563 338 528 553
Q 500 706 500 1172
L 500 2619
L 97 2619
L 97 3319
L 500 3319
L 500 3978
L 1381 4491
L 1381 3319
L 1981 3319
z
" transform="scale(0.015625)"/>
     </defs>
     <use xlink:href="#Arial-BoldMT-44"/>
     <use xlink:href="#Arial-BoldMT-49" transform="translate(55.609375 0)"/>
     <use xlink:href="#Arial-BoldMT-49" transform="translate(88.90625 0)"/>
     <use xlink:href="#Arial-BoldMT-52" transform="translate(122.203125 0)"/>
     <use xlink:href="#Arial-BoldMT-55" transform="translate(183.28125 0)"/>
     <use xlink:href="#Arial-BoldMT-47" transform="translate(222.203125 0)"/>
     <use xlink:href="#Arial-BoldMT-44" transform="translate(283.28125 0)"/>
     <use xlink:href="#Arial-BoldMT-45" transform="translate(338.890625 0)"/>
     <use xlink:href="#Arial-BoldMT-4f" transform="translate(399.96875 0)"/>
     <use xlink:href="#Arial-BoldMT-48" transform="translate(427.75 0)"/>
     <use xlink:href="#Arial-BoldMT-3" transform="translate(483.359375 0)"/>
     <use xlink:href="#Arial-BoldMT-49" transform="translate(511.140625 0)"/>
     <use xlink:href="#Arial-BoldMT-48" transform="translate(544.4375 0)"/>
     <use xlink:href="#Arial-BoldMT-48" transform="translate(600.046875 0)"/>
     <use xlink:href="#Arial-BoldMT-47" transform="translate(655.65625 0)"/>
     <use xlink:href="#Arial-BoldMT-45" transform="translate(716.734375 0)"/>
     <use xlink:href="#Arial-BoldMT-44" transform="translate(777.8125 0)"/>
     <use xlink:href="#Arial-BoldMT-46" transform="translate(833.421875 0)"/>
     <use xlink:href="#Arial-BoldMT-4e" transform="translate(889.03125 0)"/>
     <use xlink:href="#Arial-BoldMT-3" transform="translate(944.640625 0)"/>
     <use xlink:href="#Arial-BoldMT-45" transform="translate(972.421875 0)"/>
     <use xlink:href="#Arial-BoldMT-58" transform="translate(1033.5 0)"/>
     <use xlink:href="#Arial-BoldMT-47" transform="translate(1094.578125 0)"/>
     <use xlink:href="#Arial-BoldMT-4a" transform="translate(1155.65625 0)"/>
     <use xlink:href="#Arial-BoldMT-48" transform="translate(1216.734375 0)"/>
     <use xlink:href="#Arial-BoldMT-57" transform="translate(1272.34375 0)"/>
     <use xlink:href="#Arial-BoldMT-56" transform="translate(1305.640625 0)"/>
    </g>
   </g>
   <g id="PathCollection_1">
    <defs>
     <path id="m3c49a957fc" d="M -2.061553 2.061553
L 2.061553 2.061553
L 2.061553 -2.061553
L -2.061553 -2.061553
z
" style="stroke: #e68a17; stroke-width: 0.9"/>
    </defs>
    <g clip-path="url(#pf0cad35de6)">
     <use xlink:href="#m3c49a957fc" x="186.167305" y="53.7472" style="fill: #e4f1f6; stroke: #e68a17; stroke-width: 0.9"/>
     <use xlink:href="#m3c49a957fc" x="186.167305" y="53.7472" style="fill: #e4f1f6; stroke: #e68a17; stroke-width: 0.9"/>
    </g>
   </g>
   <g id="text_12">
    <!-- 12,960 candidate-evaluation pairs -->
    <g style="fill: #20252b" transform="translate(23.251584 55.338753) scale(0.0615 -0.0615)">
     <defs>
      <path id="Arial-BoldMT-14" d="M 2519 0
L 1641 0
L 1641 3309
Q 1159 2859 506 2644
L 506 3441
Q 850 3553 1253 3867
Q 1656 4181 1806 4600
L 2519 4600
L 2519 0
z
" transform="scale(0.015625)"/>
      <path id="Arial-BoldMT-15" d="M 3238 816
L 3238 0
L 159 0
Q 209 463 459 877
Q 709 1291 1447 1975
Q 2041 2528 2175 2725
Q 2356 2997 2356 3263
Q 2356 3556 2198 3714
Q 2041 3872 1763 3872
Q 1488 3872 1325 3706
Q 1163 3541 1138 3156
L 263 3244
Q 341 3969 753 4284
Q 1166 4600 1784 4600
Q 2463 4600 2850 4234
Q 3238 3869 3238 3325
Q 3238 3016 3127 2736
Q 3016 2456 2775 2150
Q 2616 1947 2200 1565
Q 1784 1184 1673 1059
Q 1563 934 1494 816
L 3238 816
z
" transform="scale(0.015625)"/>
      <path id="Arial-BoldMT-f" d="M 438 878
L 1316 878
L 1316 250
Q 1316 -131 1250 -351
Q 1184 -572 1001 -747
Q 819 -922 538 -1022
L 366 -659
Q 631 -572 743 -419
Q 856 -266 863 0
L 438 0
L 438 878
z
" transform="scale(0.015625)"/>
      <path id="Arial-BoldMT-1c" d="M 291 1059
L 1141 1153
Q 1172 894 1303 769
Q 1434 644 1650 644
Q 1922 644 2112 894
Q 2303 1144 2356 1931
Q 2025 1547 1528 1547
Q 988 1547 595 1964
Q 203 2381 203 3050
Q 203 3747 617 4173
Q 1031 4600 1672 4600
Q 2369 4600 2816 4061
Q 3263 3522 3263 2288
Q 3263 1031 2797 475
Q 2331 -81 1584 -81
Q 1047 -81 715 205
Q 384 491 291 1059
z
M 2278 2978
Q 2278 3403 2083 3637
Q 1888 3872 1631 3872
Q 1388 3872 1227 3680
Q 1066 3488 1066 3050
Q 1066 2606 1241 2398
Q 1416 2191 1678 2191
Q 1931 2191 2104 2391
Q 2278 2591 2278 2978
z
" transform="scale(0.015625)"/>
      <path id="Arial-BoldMT-19" d="M 3247 3459
L 2397 3366
Q 2366 3628 2234 3753
Q 2103 3878 1894 3878
Q 1616 3878 1423 3628
Q 1231 3378 1181 2588
Q 1509 2975 1997 2975
Q 2547 2975 2939 2556
Q 3331 2138 3331 1475
Q 3331 772 2918 347
Q 2506 -78 1859 -78
Q 1166 -78 719 461
Q 272 1000 272 2228
Q 272 3488 737 4044
Q 1203 4600 1947 4600
Q 2469 4600 2811 4308
Q 3153 4016 3247 3459
z
M 1256 1544
Q 1256 1116 1453 883
Q 1650 650 1903 650
Q 2147 650 2309 840
Q 2472 1031 2472 1466
Q 2472 1913 2297 2120
Q 2122 2328 1859 2328
Q 1606 2328 1431 2129
Q 1256 1931 1256 1544
z
" transform="scale(0.015625)"/>
      <path id="Arial-BoldMT-13" d="M 1756 4600
Q 2422 4600 2797 4125
Q 3244 3563 3244 2259
Q 3244 959 2794 391
Q 2422 -78 1756 -78
Q 1088 -78 678 436
Q 269 950 269 2269
Q 269 3563 719 4131
Q 1091 4600 1756 4600
z
M 1756 3872
Q 1597 3872 1472 3770
Q 1347 3669 1278 3406
Q 1188 3066 1188 2259
Q 1188 1453 1269 1151
Q 1350 850 1473 750
Q 1597 650 1756 650
Q 1916 650 2041 751
Q 2166 853 2234 1116
Q 2325 1453 2325 2259
Q 2325 3066 2244 3367
Q 2163 3669 2039 3770
Q 1916 3872 1756 3872
z
" transform="scale(0.015625)"/>
      <path id="Arial-BoldMT-59" d="M 1372 0
L 34 3319
L 956 3319
L 1581 1625
L 1763 1059
Q 1834 1275 1853 1344
Q 1897 1484 1947 1625
L 2578 3319
L 3481 3319
L 2163 0
L 1372 0
z
" transform="scale(0.015625)"/>
     </defs>
     <use xlink:href="#Arial-BoldMT-14"/>
     <use xlink:href="#Arial-BoldMT-15" transform="translate(55.609375 0)"/>
     <use xlink:href="#Arial-BoldMT-f" transform="translate(111.21875 0)"/>
     <use xlink:href="#Arial-BoldMT-1c" transform="translate(139 0)"/>
     <use xlink:href="#Arial-BoldMT-19" transform="translate(194.609375 0)"/>
     <use xlink:href="#Arial-BoldMT-13" transform="translate(250.21875 0)"/>
     <use xlink:href="#Arial-BoldMT-3" transform="translate(305.828125 0)"/>
     <use xlink:href="#Arial-BoldMT-46" transform="translate(333.609375 0)"/>
     <use xlink:href="#Arial-BoldMT-44" transform="translate(389.21875 0)"/>
     <use xlink:href="#Arial-BoldMT-51" transform="translate(444.828125 0)"/>
     <use xlink:href="#Arial-BoldMT-47" transform="translate(505.90625 0)"/>
     <use xlink:href="#Arial-BoldMT-4c" transform="translate(566.984375 0)"/>
     <use xlink:href="#Arial-BoldMT-47" transform="translate(594.765625 0)"/>
     <use xlink:href="#Arial-BoldMT-44" transform="translate(655.84375 0)"/>
     <use xlink:href="#Arial-BoldMT-57" transform="translate(711.453125 0)"/>
     <use xlink:href="#Arial-BoldMT-48" transform="translate(744.75 0)"/>
     <use xlink:href="#Arial-BoldMT-10" transform="translate(800.359375 0)"/>
     <use xlink:href="#Arial-BoldMT-48" transform="translate(833.65625 0)"/>
     <use xlink:href="#Arial-BoldMT-59" transform="translate(889.265625 0)"/>
     <use xlink:href="#Arial-BoldMT-44" transform="translate(944.875 0)"/>
     <use xlink:href="#Arial-BoldMT-4f" transform="translate(1000.484375 0)"/>
     <use xlink:href="#Arial-BoldMT-58" transform="translate(1028.265625 0)"/>
     <use xlink:href="#Arial-BoldMT-44" transform="translate(1089.34375 0)"/>
     <use xlink:href="#Arial-BoldMT-57" transform="translate(1144.953125 0)"/>
     <use xlink:href="#Arial-BoldMT-4c" transform="translate(1178.25 0)"/>
     <use xlink:href="#Arial-BoldMT-52" transform="translate(1206.03125 0)"/>
     <use xlink:href="#Arial-BoldMT-51" transform="translate(1267.109375 0)"/>
     <use xlink:href="#Arial-BoldMT-3" transform="translate(1328.1875 0)"/>
     <use xlink:href="#Arial-BoldMT-53" transform="translate(1355.96875 0)"/>
     <use xlink:href="#Arial-BoldMT-44" transform="translate(1417.046875 0)"/>
     <use xlink:href="#Arial-BoldMT-4c" transform="translate(1472.65625 0)"/>
     <use xlink:href="#Arial-BoldMT-55" transform="translate(1500.4375 0)"/>
     <use xlink:href="#Arial-BoldMT-56" transform="translate(1539.359375 0)"/>
    </g>
   </g>
   <g id="text_13">
    <!-- ~1.3e4 -->
    <g style="fill: #e68a17" transform="translate(334.453248 55.261116) scale(0.0585 -0.0585)">
     <defs>
      <path id="Arial-BoldMT-61" d="M 209 1622
L 209 2431
Q 606 2863 1134 2863
Q 1331 2863 1497 2823
Q 1663 2784 2092 2611
Q 2522 2438 2675 2438
Q 2850 2438 3079 2545
Q 3309 2653 3528 2888
L 3528 2044
Q 3384 1894 3126 1762
Q 2869 1631 2594 1631
Q 2438 1631 2289 1668
Q 2141 1706 1819 1847
Q 1338 2056 1063 2056
Q 625 2056 209 1622
z
" transform="scale(0.015625)"/>
      <path id="Arial-BoldMT-11" d="M 459 0
L 459 878
L 1338 878
L 1338 0
L 459 0
z
" transform="scale(0.015625)"/>
      <path id="Arial-BoldMT-16" d="M 241 1216
L 1091 1319
Q 1131 994 1309 822
Q 1488 650 1741 650
Q 2013 650 2198 856
Q 2384 1063 2384 1413
Q 2384 1744 2206 1937
Q 2028 2131 1772 2131
Q 1603 2131 1369 2066
L 1466 2781
Q 1822 2772 2009 2936
Q 2197 3100 2197 3372
Q 2197 3603 2059 3740
Q 1922 3878 1694 3878
Q 1469 3878 1309 3722
Q 1150 3566 1116 3266
L 306 3403
Q 391 3819 561 4067
Q 731 4316 1036 4458
Q 1341 4600 1719 4600
Q 2366 4600 2756 4188
Q 3078 3850 3078 3425
Q 3078 2822 2419 2463
Q 2813 2378 3048 2084
Q 3284 1791 3284 1375
Q 3284 772 2843 347
Q 2403 -78 1747 -78
Q 1125 -78 715 280
Q 306 638 241 1216
z
" transform="scale(0.015625)"/>
      <path id="Arial-BoldMT-17" d="M 1994 0
L 1994 922
L 119 922
L 119 1691
L 2106 4600
L 2844 4600
L 2844 1694
L 3413 1694
L 3413 922
L 2844 922
L 2844 0
L 1994 0
z
M 1994 1694
L 1994 3259
L 941 1694
L 1994 1694
z
" transform="scale(0.015625)"/>
     </defs>
     <use xlink:href="#Arial-BoldMT-61"/>
     <use xlink:href="#Arial-BoldMT-14" transform="translate(58.40625 0)"/>
     <use xlink:href="#Arial-BoldMT-11" transform="translate(114.015625 0)"/>
     <use xlink:href="#Arial-BoldMT-16" transform="translate(141.796875 0)"/>
     <use xlink:href="#Arial-BoldMT-48" transform="translate(197.40625 0)"/>
     <use xlink:href="#Arial-BoldMT-17" transform="translate(253.015625 0)"/>
    </g>
   </g>
   <g id="PathCollection_2">
    <g clip-path="url(#pf0cad35de6)">
     <use xlink:href="#m3c49a957fc" x="229.452257" y="64.860343" style="fill: #e4f1f6; stroke: #e68a17; stroke-width: 0.9"/>
     <use xlink:href="#m3c49a957fc" x="229.452257" y="64.860343" style="fill: #e4f1f6; stroke: #e68a17; stroke-width: 0.9"/>
    </g>
   </g>
   <g id="text_14">
    <!-- MAESTRO accelerator DSE -->
    <g style="fill: #20252b" transform="translate(23.251584 66.451896) scale(0.0615 -0.0615)">
     <defs>
      <path id="Arial-BoldMT-30" d="M 453 0
L 453 4581
L 1838 4581
L 2669 1456
L 3491 4581
L 4878 4581
L 4878 0
L 4019 0
L 4019 3606
L 3109 0
L 2219 0
L 1313 3606
L 1313 0
L 453 0
z
" transform="scale(0.015625)"/>
      <path id="Arial-BoldMT-24" d="M 4597 0
L 3591 0
L 3191 1041
L 1359 1041
L 981 0
L 0 0
L 1784 4581
L 2763 4581
L 4597 0
z
M 2894 1813
L 2263 3513
L 1644 1813
L 2894 1813
z
" transform="scale(0.015625)"/>
      <path id="Arial-BoldMT-28" d="M 466 0
L 466 4581
L 3863 4581
L 3863 3806
L 1391 3806
L 1391 2791
L 3691 2791
L 3691 2019
L 1391 2019
L 1391 772
L 3950 772
L 3950 0
L 466 0
z
" transform="scale(0.015625)"/>
      <path id="Arial-BoldMT-36" d="M 231 1491
L 1131 1578
Q 1213 1125 1461 912
Q 1709 700 2131 700
Q 2578 700 2804 889
Q 3031 1078 3031 1331
Q 3031 1494 2936 1608
Q 2841 1722 2603 1806
Q 2441 1863 1863 2006
Q 1119 2191 819 2459
Q 397 2838 397 3381
Q 397 3731 595 4036
Q 794 4341 1167 4500
Q 1541 4659 2069 4659
Q 2931 4659 3367 4281
Q 3803 3903 3825 3272
L 2900 3231
Q 2841 3584 2645 3739
Q 2450 3894 2059 3894
Q 1656 3894 1428 3728
Q 1281 3622 1281 3444
Q 1281 3281 1419 3166
Q 1594 3019 2269 2859
Q 2944 2700 3267 2529
Q 3591 2359 3773 2064
Q 3956 1769 3956 1334
Q 3956 941 3737 597
Q 3519 253 3119 86
Q 2719 -81 2122 -81
Q 1253 -81 787 320
Q 322 722 231 1491
z
" transform="scale(0.015625)"/>
      <path id="Arial-BoldMT-37" d="M 1497 0
L 1497 3806
L 138 3806
L 138 4581
L 3778 4581
L 3778 3806
L 2422 3806
L 2422 0
L 1497 0
z
" transform="scale(0.015625)"/>
      <path id="Arial-BoldMT-35" d="M 469 0
L 469 4581
L 2416 4581
Q 3150 4581 3483 4457
Q 3816 4334 4016 4018
Q 4216 3703 4216 3297
Q 4216 2781 3912 2445
Q 3609 2109 3006 2022
Q 3306 1847 3501 1637
Q 3697 1428 4028 894
L 4588 0
L 3481 0
L 2813 997
Q 2456 1531 2325 1670
Q 2194 1809 2047 1861
Q 1900 1913 1581 1913
L 1394 1913
L 1394 0
L 469 0
z
M 1394 2644
L 2078 2644
Q 2744 2644 2909 2700
Q 3075 2756 3169 2893
Q 3263 3031 3263 3238
Q 3263 3469 3139 3611
Q 3016 3753 2791 3791
Q 2678 3806 2116 3806
L 1394 3806
L 1394 2644
z
" transform="scale(0.015625)"/>
      <path id="Arial-BoldMT-32" d="M 278 2263
Q 278 2963 488 3438
Q 644 3788 914 4066
Q 1184 4344 1506 4478
Q 1934 4659 2494 4659
Q 3506 4659 4114 4031
Q 4722 3403 4722 2284
Q 4722 1175 4119 548
Q 3516 -78 2506 -78
Q 1484 -78 881 545
Q 278 1169 278 2263
z
M 1231 2294
Q 1231 1516 1590 1114
Q 1950 713 2503 713
Q 3056 713 3411 1111
Q 3766 1509 3766 2306
Q 3766 3094 3420 3481
Q 3075 3869 2503 3869
Q 1931 3869 1581 3476
Q 1231 3084 1231 2294
z
" transform="scale(0.015625)"/>
      <path id="Arial-BoldMT-27" d="M 463 4581
L 2153 4581
Q 2725 4581 3025 4494
Q 3428 4375 3715 4072
Q 4003 3769 4153 3330
Q 4303 2891 4303 2247
Q 4303 1681 4163 1272
Q 3991 772 3672 463
Q 3431 228 3022 97
Q 2716 0 2203 0
L 463 0
L 463 4581
z
M 1388 3806
L 1388 772
L 2078 772
Q 2466 772 2638 816
Q 2863 872 3011 1006
Q 3159 1141 3253 1448
Q 3347 1756 3347 2288
Q 3347 2819 3253 3103
Q 3159 3388 2990 3547
Q 2822 3706 2563 3763
Q 2369 3806 1803 3806
L 1388 3806
z
" transform="scale(0.015625)"/>
     </defs>
     <use xlink:href="#Arial-BoldMT-30"/>
     <use xlink:href="#Arial-BoldMT-24" transform="translate(83.296875 0)"/>
     <use xlink:href="#Arial-BoldMT-28" transform="translate(155.515625 0)"/>
     <use xlink:href="#Arial-BoldMT-36" transform="translate(222.21875 0)"/>
     <use xlink:href="#Arial-BoldMT-37" transform="translate(288.921875 0)"/>
     <use xlink:href="#Arial-BoldMT-35" transform="translate(350 0)"/>
     <use xlink:href="#Arial-BoldMT-32" transform="translate(422.21875 0)"/>
     <use xlink:href="#Arial-BoldMT-3" transform="translate(500 0)"/>
     <use xlink:href="#Arial-BoldMT-44" transform="translate(527.78125 0)"/>
     <use xlink:href="#Arial-BoldMT-46" transform="translate(583.390625 0)"/>
     <use xlink:href="#Arial-BoldMT-46" transform="translate(639 0)"/>
     <use xlink:href="#Arial-BoldMT-48" transform="translate(694.609375 0)"/>
     <use xlink:href="#Arial-BoldMT-4f" transform="translate(750.21875 0)"/>
     <use xlink:href="#Arial-BoldMT-48" transform="translate(778 0)"/>
     <use xlink:href="#Arial-BoldMT-55" transform="translate(833.609375 0)"/>
     <use xlink:href="#Arial-BoldMT-44" transform="translate(872.53125 0)"/>
     <use xlink:href="#Arial-BoldMT-57" transform="translate(928.140625 0)"/>
     <use xlink:href="#Arial-BoldMT-52" transform="translate(961.4375 0)"/>
     <use xlink:href="#Arial-BoldMT-55" transform="translate(1022.515625 0)"/>
     <use xlink:href="#Arial-BoldMT-3" transform="translate(1061.4375 0)"/>
     <use xlink:href="#Arial-BoldMT-27" transform="translate(1089.21875 0)"/>
     <use xlink:href="#Arial-BoldMT-36" transform="translate(1161.4375 0)"/>
     <use xlink:href="#Arial-BoldMT-28" transform="translate(1228.140625 0)"/>
    </g>
   </g>
   <g id="text_15">
    <!-- 480M -->
    <g style="fill: #e68a17" transform="translate(334.453248 66.374259) scale(0.0585 -0.0585)">
     <defs>
      <path id="Arial-BoldMT-1b" d="M 1025 2472
Q 684 2616 529 2867
Q 375 3119 375 3419
Q 375 3931 733 4265
Q 1091 4600 1750 4600
Q 2403 4600 2764 4265
Q 3125 3931 3125 3419
Q 3125 3100 2959 2851
Q 2794 2603 2494 2472
Q 2875 2319 3073 2025
Q 3272 1731 3272 1347
Q 3272 713 2867 316
Q 2463 -81 1791 -81
Q 1166 -81 750 247
Q 259 634 259 1309
Q 259 1681 443 1992
Q 628 2303 1025 2472
z
M 1206 3356
Q 1206 3094 1354 2947
Q 1503 2800 1750 2800
Q 2000 2800 2150 2948
Q 2300 3097 2300 3359
Q 2300 3606 2151 3754
Q 2003 3903 1759 3903
Q 1506 3903 1356 3753
Q 1206 3603 1206 3356
z
M 1125 1394
Q 1125 1031 1311 828
Q 1497 625 1775 625
Q 2047 625 2225 820
Q 2403 1016 2403 1384
Q 2403 1706 2222 1901
Q 2041 2097 1763 2097
Q 1441 2097 1283 1875
Q 1125 1653 1125 1394
z
" transform="scale(0.015625)"/>
     </defs>
     <use xlink:href="#Arial-BoldMT-17"/>
     <use xlink:href="#Arial-BoldMT-1b" transform="translate(55.609375 0)"/>
     <use xlink:href="#Arial-BoldMT-13" transform="translate(111.21875 0)"/>
     <use xlink:href="#Arial-BoldMT-30" transform="translate(166.828125 0)"/>
    </g>
   </g>
   <g id="PathCollection_3">
    <g clip-path="url(#pf0cad35de6)">
     <use xlink:href="#m3c49a957fc" x="232.472295" y="75.973486" style="fill: #e4f1f6; stroke: #e68a17; stroke-width: 0.9"/>
     <use xlink:href="#m3c49a957fc" x="232.472295" y="75.973486" style="fill: #e4f1f6; stroke: #e68a17; stroke-width: 0.9"/>
    </g>
   </g>
   <g id="text_16">
    <!-- AutoTVM operator tuning -->
    <g style="fill: #20252b" transform="translate(23.251584 77.564978) scale(0.0615 -0.0615)">
     <defs>
      <path id="Arial-BoldMT-39" d="M 1634 0
L -3 4581
L 1000 4581
L 2159 1191
L 3281 4581
L 4263 4581
L 2622 0
L 1634 0
z
" transform="scale(0.015625)"/>
     </defs>
     <use xlink:href="#Arial-BoldMT-24"/>
     <use xlink:href="#Arial-BoldMT-58" transform="translate(72.21875 0)"/>
     <use xlink:href="#Arial-BoldMT-57" transform="translate(133.296875 0)"/>
     <use xlink:href="#Arial-BoldMT-52" transform="translate(166.59375 0)"/>
     <use xlink:href="#Arial-BoldMT-37" transform="translate(227.671875 0)"/>
     <use xlink:href="#Arial-BoldMT-39" transform="translate(288.75 0)"/>
     <use xlink:href="#Arial-BoldMT-30" transform="translate(355.453125 0)"/>
     <use xlink:href="#Arial-BoldMT-3" transform="translate(438.75 0)"/>
     <use xlink:href="#Arial-BoldMT-52" transform="translate(466.53125 0)"/>
     <use xlink:href="#Arial-BoldMT-53" transform="translate(527.609375 0)"/>
     <use xlink:href="#Arial-BoldMT-48" transform="translate(588.6875 0)"/>
     <use xlink:href="#Arial-BoldMT-55" transform="translate(644.296875 0)"/>
     <use xlink:href="#Arial-BoldMT-44" transform="translate(683.21875 0)"/>
     <use xlink:href="#Arial-BoldMT-57" transform="translate(738.828125 0)"/>
     <use xlink:href="#Arial-BoldMT-52" transform="translate(772.125 0)"/>
     <use xlink:href="#Arial-BoldMT-55" transform="translate(833.203125 0)"/>
     <use xlink:href="#Arial-BoldMT-3" transform="translate(872.125 0)"/>
     <use xlink:href="#Arial-BoldMT-57" transform="translate(899.90625 0)"/>
     <use xlink:href="#Arial-BoldMT-58" transform="translate(933.203125 0)"/>
     <use xlink:href="#Arial-BoldMT-51" transform="translate(994.28125 0)"/>
     <use xlink:href="#Arial-BoldMT-4c" transform="translate(1055.359375 0)"/>
     <use xlink:href="#Arial-BoldMT-51" transform="translate(1083.140625 0)"/>
     <use xlink:href="#Arial-BoldMT-4a" transform="translate(1144.21875 0)"/>
    </g>
   </g>
   <g id="text_17">
    <!-- ~1B -->
    <g style="fill: #e68a17" transform="translate(334.453248 77.487402) scale(0.0585 -0.0585)">
     <defs>
      <path id="Arial-BoldMT-25" d="M 469 4581
L 2300 4581
Q 2844 4581 3111 4536
Q 3378 4491 3589 4347
Q 3800 4203 3940 3964
Q 4081 3725 4081 3428
Q 4081 3106 3907 2837
Q 3734 2569 3438 2434
Q 3856 2313 4081 2019
Q 4306 1725 4306 1328
Q 4306 1016 4161 720
Q 4016 425 3764 248
Q 3513 72 3144 31
Q 2913 6 2028 0
L 469 0
L 469 4581
z
M 1394 3819
L 1394 2759
L 2000 2759
Q 2541 2759 2672 2775
Q 2909 2803 3045 2939
Q 3181 3075 3181 3297
Q 3181 3509 3064 3642
Q 2947 3775 2716 3803
Q 2578 3819 1925 3819
L 1394 3819
z
M 1394 1997
L 1394 772
L 2250 772
Q 2750 772 2884 800
Q 3091 838 3220 983
Q 3350 1128 3350 1372
Q 3350 1578 3250 1722
Q 3150 1866 2961 1931
Q 2772 1997 2141 1997
L 1394 1997
z
" transform="scale(0.015625)"/>
     </defs>
     <use xlink:href="#Arial-BoldMT-61"/>
     <use xlink:href="#Arial-BoldMT-14" transform="translate(58.40625 0)"/>
     <use xlink:href="#Arial-BoldMT-25" transform="translate(114.015625 0)"/>
    </g>
   </g>
   <g id="PathCollection_4">
    <g clip-path="url(#pf0cad35de6)">
     <use xlink:href="#m3c49a957fc" x="321.673241" y="87.086629" style="fill: #e4f1f6; stroke: #e68a17; stroke-width: 0.9"/>
     <use xlink:href="#m3c49a957fc" x="321.673241" y="87.086629" style="fill: #e4f1f6; stroke: #e68a17; stroke-width: 0.9"/>
    </g>
   </g>
   <g id="text_18">
    <!-- Timeloop mapspace core -->
    <g style="fill: #20252b" transform="translate(23.251584 88.678181) scale(0.0615 -0.0615)">
     <defs>
      <path id="Arial-BoldMT-50" d="M 394 3319
L 1203 3319
L 1203 2866
Q 1638 3394 2238 3394
Q 2556 3394 2790 3262
Q 3025 3131 3175 2866
Q 3394 3131 3647 3262
Q 3900 3394 4188 3394
Q 4553 3394 4806 3245
Q 5059 3097 5184 2809
Q 5275 2597 5275 2122
L 5275 0
L 4397 0
L 4397 1897
Q 4397 2391 4306 2534
Q 4184 2722 3931 2722
Q 3747 2722 3584 2609
Q 3422 2497 3350 2280
Q 3278 2063 3278 1594
L 3278 0
L 2400 0
L 2400 1819
Q 2400 2303 2353 2443
Q 2306 2584 2207 2653
Q 2109 2722 1941 2722
Q 1738 2722 1575 2612
Q 1413 2503 1342 2297
Q 1272 2091 1272 1613
L 1272 0
L 394 0
L 394 3319
z
" transform="scale(0.015625)"/>
     </defs>
     <use xlink:href="#Arial-BoldMT-37"/>
     <use xlink:href="#Arial-BoldMT-4c" transform="translate(59.265625 0)"/>
     <use xlink:href="#Arial-BoldMT-50" transform="translate(87.046875 0)"/>
     <use xlink:href="#Arial-BoldMT-48" transform="translate(175.96875 0)"/>
     <use xlink:href="#Arial-BoldMT-4f" transform="translate(231.578125 0)"/>
     <use xlink:href="#Arial-BoldMT-52" transform="translate(259.359375 0)"/>
     <use xlink:href="#Arial-BoldMT-52" transform="translate(320.4375 0)"/>
     <use xlink:href="#Arial-BoldMT-53" transform="translate(381.515625 0)"/>
     <use xlink:href="#Arial-BoldMT-3" transform="translate(442.59375 0)"/>
     <use xlink:href="#Arial-BoldMT-50" transform="translate(470.375 0)"/>
     <use xlink:href="#Arial-BoldMT-44" transform="translate(559.296875 0)"/>
     <use xlink:href="#Arial-BoldMT-53" transform="translate(614.90625 0)"/>
     <use xlink:href="#Arial-BoldMT-56" transform="translate(675.984375 0)"/>
     <use xlink:href="#Arial-BoldMT-53" transform="translate(731.59375 0)"/>
     <use xlink:href="#Arial-BoldMT-44" transform="translate(792.671875 0)"/>
     <use xlink:href="#Arial-BoldMT-46" transform="translate(848.28125 0)"/>
     <use xlink:href="#Arial-BoldMT-48" transform="translate(903.890625 0)"/>
     <use xlink:href="#Arial-BoldMT-3" transform="translate(959.5 0)"/>
     <use xlink:href="#Arial-BoldMT-46" transform="translate(987.28125 0)"/>
     <use xlink:href="#Arial-BoldMT-52" transform="translate(1042.890625 0)"/>
     <use xlink:href="#Arial-BoldMT-55" transform="translate(1103.96875 0)"/>
     <use xlink:href="#Arial-BoldMT-48" transform="translate(1142.890625 0)"/>
    </g>
   </g>
   <g id="text_19">
    <!-- &gt;2e18 -->
    <g style="fill: #e68a17" transform="translate(334.453248 88.600545) scale(0.0585 -0.0585)">
     <defs>
      <path id="Arial-BoldMT-21" d="M 297 519
L 297 1403
L 2491 2266
L 297 3119
L 297 3997
L 3441 2638
L 3441 1888
L 297 519
z
" transform="scale(0.015625)"/>
     </defs>
     <use xlink:href="#Arial-BoldMT-21"/>
     <use xlink:href="#Arial-BoldMT-15" transform="translate(58.40625 0)"/>
     <use xlink:href="#Arial-BoldMT-48" transform="translate(114.015625 0)"/>
     <use xlink:href="#Arial-BoldMT-14" transform="translate(169.625 0)"/>
     <use xlink:href="#Arial-BoldMT-1b" transform="translate(225.234375 0)"/>
    </g>
   </g>
   <g id="PathCollection_5">
    <defs>
     <path id="mb74957478c" d="M -2.061553 2.061553
L 2.061553 2.061553
L 2.061553 -2.061553
L -2.061553 -2.061553
z
" style="stroke: #1683a6; stroke-width: 0.9"/>
    </defs>
    <g clip-path="url(#pf0cad35de6)">
     <use xlink:href="#mb74957478c" x="194.574814" y="114.313829" style="fill: #e4f1f6; stroke: #1683a6; stroke-width: 0.9"/>
     <use xlink:href="#mb74957478c" x="204.049184" y="114.313829" style="fill: #e4f1f6; stroke: #1683a6; stroke-width: 0.9"/>
    </g>
   </g>
   <g id="text_20">
    <!-- cheap proxy screening -->
    <g style="fill: #20252b" transform="translate(23.251584 115.905321) scale(0.0615 -0.0615)">
     <defs>
      <path id="Arial-BoldMT-5b" d="M 38 0
L 1234 1709
L 88 3319
L 1159 3319
L 1747 2406
L 2366 3319
L 3397 3319
L 2272 1747
L 3500 0
L 2422 0
L 1747 1028
L 1066 0
L 38 0
z
" transform="scale(0.015625)"/>
      <path id="Arial-BoldMT-5c" d="M 44 3319
L 978 3319
L 1772 963
L 2547 3319
L 3456 3319
L 2284 125
L 2075 -453
Q 1959 -744 1854 -897
Q 1750 -1050 1614 -1145
Q 1478 -1241 1279 -1294
Q 1081 -1347 831 -1347
Q 578 -1347 334 -1294
L 256 -606
Q 463 -647 628 -647
Q 934 -647 1081 -467
Q 1228 -288 1306 -9
L 44 3319
z
" transform="scale(0.015625)"/>
     </defs>
     <use xlink:href="#Arial-BoldMT-46"/>
     <use xlink:href="#Arial-BoldMT-4b" transform="translate(55.609375 0)"/>
     <use xlink:href="#Arial-BoldMT-48" transform="translate(116.6875 0)"/>
     <use xlink:href="#Arial-BoldMT-44" transform="translate(172.296875 0)"/>
     <use xlink:href="#Arial-BoldMT-53" transform="translate(227.90625 0)"/>
     <use xlink:href="#Arial-BoldMT-3" transform="translate(288.984375 0)"/>
     <use xlink:href="#Arial-BoldMT-53" transform="translate(316.765625 0)"/>
     <use xlink:href="#Arial-BoldMT-55" transform="translate(377.84375 0)"/>
     <use xlink:href="#Arial-BoldMT-52" transform="translate(416.765625 0)"/>
     <use xlink:href="#Arial-BoldMT-5b" transform="translate(477.84375 0)"/>
     <use xlink:href="#Arial-BoldMT-5c" transform="translate(533.453125 0)"/>
     <use xlink:href="#Arial-BoldMT-3" transform="translate(589.0625 0)"/>
     <use xlink:href="#Arial-BoldMT-56" transform="translate(616.84375 0)"/>
     <use xlink:href="#Arial-BoldMT-46" transform="translate(672.453125 0)"/>
     <use xlink:href="#Arial-BoldMT-55" transform="translate(728.0625 0)"/>
     <use xlink:href="#Arial-BoldMT-48" transform="translate(766.984375 0)"/>
     <use xlink:href="#Arial-BoldMT-48" transform="translate(822.59375 0)"/>
     <use xlink:href="#Arial-BoldMT-51" transform="translate(878.203125 0)"/>
     <use xlink:href="#Arial-BoldMT-4c" transform="translate(939.28125 0)"/>
     <use xlink:href="#Arial-BoldMT-51" transform="translate(967.0625 0)"/>
     <use xlink:href="#Arial-BoldMT-4a" transform="translate(1028.140625 0)"/>
    </g>
   </g>
   <g id="text_21">
    <!-- 1e5-1e6 -->
    <g style="fill: #1683a6" transform="translate(334.453248 115.827745) scale(0.0585 -0.0585)">
     <defs>
      <path id="Arial-BoldMT-18" d="M 284 1178
L 1159 1269
Q 1197 972 1381 798
Q 1566 625 1806 625
Q 2081 625 2272 848
Q 2463 1072 2463 1522
Q 2463 1944 2273 2155
Q 2084 2366 1781 2366
Q 1403 2366 1103 2031
L 391 2134
L 841 4519
L 3163 4519
L 3163 3697
L 1506 3697
L 1369 2919
Q 1663 3066 1969 3066
Q 2553 3066 2959 2641
Q 3366 2216 3366 1538
Q 3366 972 3038 528
Q 2591 -78 1797 -78
Q 1163 -78 763 262
Q 363 603 284 1178
z
" transform="scale(0.015625)"/>
     </defs>
     <use xlink:href="#Arial-BoldMT-14"/>
     <use xlink:href="#Arial-BoldMT-48" transform="translate(55.609375 0)"/>
     <use xlink:href="#Arial-BoldMT-18" transform="translate(111.21875 0)"/>
     <use xlink:href="#Arial-BoldMT-10" transform="translate(166.828125 0)"/>
     <use xlink:href="#Arial-BoldMT-14" transform="translate(200.125 0)"/>
     <use xlink:href="#Arial-BoldMT-48" transform="translate(255.734375 0)"/>
     <use xlink:href="#Arial-BoldMT-19" transform="translate(311.34375 0)"/>
    </g>
   </g>
   <g id="PathCollection_6">
    <g clip-path="url(#pf0cad35de6)">
     <use xlink:href="#mb74957478c" x="156.677332" y="125.426971" style="fill: #e4f1f6; stroke: #1683a6; stroke-width: 0.9"/>
     <use xlink:href="#mb74957478c" x="166.151702" y="125.426971" style="fill: #e4f1f6; stroke: #1683a6; stroke-width: 0.9"/>
    </g>
   </g>
   <g id="text_22">
    <!-- cycle-level comparisons -->
    <g style="fill: #20252b" transform="translate(23.251584 127.018464) scale(0.0615 -0.0615)">
     <use xlink:href="#Arial-BoldMT-46"/>
     <use xlink:href="#Arial-BoldMT-5c" transform="translate(55.609375 0)"/>
     <use xlink:href="#Arial-BoldMT-46" transform="translate(111.21875 0)"/>
     <use xlink:href="#Arial-BoldMT-4f" transform="translate(166.828125 0)"/>
     <use xlink:href="#Arial-BoldMT-48" transform="translate(194.609375 0)"/>
     <use xlink:href="#Arial-BoldMT-10" transform="translate(250.21875 0)"/>
     <use xlink:href="#Arial-BoldMT-4f" transform="translate(283.515625 0)"/>
     <use xlink:href="#Arial-BoldMT-48" transform="translate(311.296875 0)"/>
     <use xlink:href="#Arial-BoldMT-59" transform="translate(366.90625 0)"/>
     <use xlink:href="#Arial-BoldMT-48" transform="translate(422.515625 0)"/>
     <use xlink:href="#Arial-BoldMT-4f" transform="translate(478.125 0)"/>
     <use xlink:href="#Arial-BoldMT-3" transform="translate(505.90625 0)"/>
     <use xlink:href="#Arial-BoldMT-46" transform="translate(533.6875 0)"/>
     <use xlink:href="#Arial-BoldMT-52" transform="translate(589.296875 0)"/>
     <use xlink:href="#Arial-BoldMT-50" transform="translate(650.375 0)"/>
     <use xlink:href="#Arial-BoldMT-53" transform="translate(739.296875 0)"/>
     <use xlink:href="#Arial-BoldMT-44" transform="translate(800.375 0)"/>
     <use xlink:href="#Arial-BoldMT-55" transform="translate(855.984375 0)"/>
     <use xlink:href="#Arial-BoldMT-4c" transform="translate(894.90625 0)"/>
     <use xlink:href="#Arial-BoldMT-56" transform="translate(922.6875 0)"/>
     <use xlink:href="#Arial-BoldMT-52" transform="translate(978.296875 0)"/>
     <use xlink:href="#Arial-BoldMT-51" transform="translate(1039.375 0)"/>
     <use xlink:href="#Arial-BoldMT-56" transform="translate(1100.453125 0)"/>
    </g>
   </g>
   <g id="text_23">
    <!-- 10-100 -->
    <g style="fill: #1683a6" transform="translate(334.453248 126.940887) scale(0.0585 -0.0585)">
     <use xlink:href="#Arial-BoldMT-14"/>
     <use xlink:href="#Arial-BoldMT-13" transform="translate(55.609375 0)"/>
     <use xlink:href="#Arial-BoldMT-10" transform="translate(111.21875 0)"/>
     <use xlink:href="#Arial-BoldMT-14" transform="translate(144.515625 0)"/>
     <use xlink:href="#Arial-BoldMT-13" transform="translate(200.125 0)"/>
     <use xlink:href="#Arial-BoldMT-13" transform="translate(255.734375 0)"/>
    </g>
   </g>
   <g id="PathCollection_7">
    <g clip-path="url(#pf0cad35de6)">
     <use xlink:href="#mb74957478c" x="151.723385" y="136.540114" style="fill: #e4f1f6; stroke: #1683a6; stroke-width: 0.9"/>
     <use xlink:href="#mb74957478c" x="159.529402" y="136.540114" style="fill: #e4f1f6; stroke: #1683a6; stroke-width: 0.9"/>
    </g>
   </g>
   <g id="text_24">
    <!-- RTL / physical feedback -->
    <g style="fill: #20252b" transform="translate(23.251584 138.131607) scale(0.0615 -0.0615)">
     <defs>
      <path id="Arial-BoldMT-2f" d="M 491 0
L 491 4544
L 1416 4544
L 1416 772
L 3716 772
L 3716 0
L 491 0
z
" transform="scale(0.015625)"/>
      <path id="Arial-BoldMT-12" d="M -9 -78
L 1125 4659
L 1784 4659
L 638 -78
L -9 -78
z
" transform="scale(0.015625)"/>
     </defs>
     <use xlink:href="#Arial-BoldMT-35"/>
     <use xlink:href="#Arial-BoldMT-37" transform="translate(72.21875 0)"/>
     <use xlink:href="#Arial-BoldMT-2f" transform="translate(133.296875 0)"/>
     <use xlink:href="#Arial-BoldMT-3" transform="translate(192.5625 0)"/>
     <use xlink:href="#Arial-BoldMT-12" transform="translate(220.34375 0)"/>
     <use xlink:href="#Arial-BoldMT-3" transform="translate(248.125 0)"/>
     <use xlink:href="#Arial-BoldMT-53" transform="translate(275.90625 0)"/>
     <use xlink:href="#Arial-BoldMT-4b" transform="translate(336.984375 0)"/>
     <use xlink:href="#Arial-BoldMT-5c" transform="translate(398.0625 0)"/>
     <use xlink:href="#Arial-BoldMT-56" transform="translate(453.671875 0)"/>
     <use xlink:href="#Arial-BoldMT-4c" transform="translate(509.28125 0)"/>
     <use xlink:href="#Arial-BoldMT-46" transform="translate(537.0625 0)"/>
     <use xlink:href="#Arial-BoldMT-44" transform="translate(592.671875 0)"/>
     <use xlink:href="#Arial-BoldMT-4f" transform="translate(648.28125 0)"/>
     <use xlink:href="#Arial-BoldMT-3" transform="translate(676.0625 0)"/>
     <use xlink:href="#Arial-BoldMT-49" transform="translate(703.84375 0)"/>
     <use xlink:href="#Arial-BoldMT-48" transform="translate(737.140625 0)"/>
     <use xlink:href="#Arial-BoldMT-48" transform="translate(792.75 0)"/>
     <use xlink:href="#Arial-BoldMT-47" transform="translate(848.359375 0)"/>
     <use xlink:href="#Arial-BoldMT-45" transform="translate(909.4375 0)"/>
     <use xlink:href="#Arial-BoldMT-44" transform="translate(970.515625 0)"/>
     <use xlink:href="#Arial-BoldMT-46" transform="translate(1026.125 0)"/>
     <use xlink:href="#Arial-BoldMT-4e" transform="translate(1081.734375 0)"/>
    </g>
   </g>
   <g id="text_25">
    <!-- 3-20 -->
    <g style="fill: #1683a6" transform="translate(334.453248 138.05403) scale(0.0585 -0.0585)">
     <use xlink:href="#Arial-BoldMT-16"/>
     <use xlink:href="#Arial-BoldMT-10" transform="translate(55.609375 0)"/>
     <use xlink:href="#Arial-BoldMT-15" transform="translate(88.90625 0)"/>
     <use xlink:href="#Arial-BoldMT-13" transform="translate(144.515625 0)"/>
    </g>
   </g>
   <g id="PathCollection_8">
    <g clip-path="url(#pf0cad35de6)">
     <use xlink:href="#mb74957478c" x="147.202961" y="147.653257" style="fill: #e4f1f6; stroke: #1683a6; stroke-width: 0.9"/>
     <use xlink:href="#mb74957478c" x="153.825262" y="147.653257" style="fill: #e4f1f6; stroke: #1683a6; stroke-width: 0.9"/>
    </g>
   </g>
   <g id="text_26">
    <!-- silicon / deployment checks -->
    <g style="fill: #20252b" transform="translate(23.251584 149.24475) scale(0.0615 -0.0615)">
     <use xlink:href="#Arial-BoldMT-56"/>
     <use xlink:href="#Arial-BoldMT-4c" transform="translate(55.609375 0)"/>
     <use xlink:href="#Arial-BoldMT-4f" transform="translate(83.390625 0)"/>
     <use xlink:href="#Arial-BoldMT-4c" transform="translate(111.171875 0)"/>
     <use xlink:href="#Arial-BoldMT-46" transform="translate(138.953125 0)"/>
     <use xlink:href="#Arial-BoldMT-52" transform="translate(194.5625 0)"/>
     <use xlink:href="#Arial-BoldMT-51" transform="translate(255.640625 0)"/>
     <use xlink:href="#Arial-BoldMT-3" transform="translate(316.71875 0)"/>
     <use xlink:href="#Arial-BoldMT-12" transform="translate(344.5 0)"/>
     <use xlink:href="#Arial-BoldMT-3" transform="translate(372.28125 0)"/>
     <use xlink:href="#Arial-BoldMT-47" transform="translate(400.0625 0)"/>
     <use xlink:href="#Arial-BoldMT-48" transform="translate(461.140625 0)"/>
     <use xlink:href="#Arial-BoldMT-53" transform="translate(516.75 0)"/>
     <use xlink:href="#Arial-BoldMT-4f" transform="translate(577.828125 0)"/>
     <use xlink:href="#Arial-BoldMT-52" transform="translate(605.609375 0)"/>
     <use xlink:href="#Arial-BoldMT-5c" transform="translate(666.6875 0)"/>
     <use xlink:href="#Arial-BoldMT-50" transform="translate(722.296875 0)"/>
     <use xlink:href="#Arial-BoldMT-48" transform="translate(811.21875 0)"/>
     <use xlink:href="#Arial-BoldMT-51" transform="translate(866.828125 0)"/>
     <use xlink:href="#Arial-BoldMT-57" transform="translate(927.90625 0)"/>
     <use xlink:href="#Arial-BoldMT-3" transform="translate(961.203125 0)"/>
     <use xlink:href="#Arial-BoldMT-46" transform="translate(988.984375 0)"/>
     <use xlink:href="#Arial-BoldMT-4b" transform="translate(1044.59375 0)"/>
     <use xlink:href="#Arial-BoldMT-48" transform="translate(1105.671875 0)"/>
     <use xlink:href="#Arial-BoldMT-46" transform="translate(1161.28125 0)"/>
     <use xlink:href="#Arial-BoldMT-4e" transform="translate(1216.890625 0)"/>
     <use xlink:href="#Arial-BoldMT-56" transform="translate(1272.5 0)"/>
    </g>
   </g>
   <g id="text_27">
    <!-- 1-5 -->
    <g style="fill: #1683a6" transform="translate(334.453248 149.167173) scale(0.0585 -0.0585)">
     <use xlink:href="#Arial-BoldMT-14"/>
     <use xlink:href="#Arial-BoldMT-10" transform="translate(55.609375 0)"/>
     <use xlink:href="#Arial-BoldMT-18" transform="translate(88.90625 0)"/>
    </g>
   </g>
  </g>
  <g id="text_28">
   <!-- High-fidelity tools can evaluate only a tiny slice -->
   <g style="fill: #136680" transform="translate(131.870062 192.60968) scale(0.054 -0.054)">
    <defs>
     <path id="Arial-BoldMT-2b" d="M 469 0
L 469 4581
L 1394 4581
L 1394 2778
L 3206 2778
L 3206 4581
L 4131 4581
L 4131 0
L 3206 0
L 3206 2003
L 1394 2003
L 1394 0
L 469 0
z
" transform="scale(0.015625)"/>
    </defs>
    <use xlink:href="#Arial-BoldMT-2b"/>
    <use xlink:href="#Arial-BoldMT-4c" transform="translate(72.21875 0)"/>
    <use xlink:href="#Arial-BoldMT-4a" transform="translate(100 0)"/>
    <use xlink:href="#Arial-BoldMT-4b" transform="translate(161.078125 0)"/>
    <use xlink:href="#Arial-BoldMT-10" transform="translate(222.15625 0)"/>
    <use xlink:href="#Arial-BoldMT-49" transform="translate(255.453125 0)"/>
    <use xlink:href="#Arial-BoldMT-4c" transform="translate(288.75 0)"/>
    <use xlink:href="#Arial-BoldMT-47" transform="translate(316.53125 0)"/>
    <use xlink:href="#Arial-BoldMT-48" transform="translate(377.609375 0)"/>
    <use xlink:href="#Arial-BoldMT-4f" transform="translate(433.21875 0)"/>
    <use xlink:href="#Arial-BoldMT-4c" transform="translate(461 0)"/>
    <use xlink:href="#Arial-BoldMT-57" transform="translate(488.78125 0)"/>
    <use xlink:href="#Arial-BoldMT-5c" transform="translate(522.078125 0)"/>
    <use xlink:href="#Arial-BoldMT-3" transform="translate(577.6875 0)"/>
    <use xlink:href="#Arial-BoldMT-57" transform="translate(605.46875 0)"/>
    <use xlink:href="#Arial-BoldMT-52" transform="translate(638.765625 0)"/>
    <use xlink:href="#Arial-BoldMT-52" transform="translate(699.84375 0)"/>
    <use xlink:href="#Arial-BoldMT-4f" transform="translate(760.921875 0)"/>
    <use xlink:href="#Arial-BoldMT-56" transform="translate(788.703125 0)"/>
    <use xlink:href="#Arial-BoldMT-3" transform="translate(844.3125 0)"/>
    <use xlink:href="#Arial-BoldMT-46" transform="translate(872.09375 0)"/>
    <use xlink:href="#Arial-BoldMT-44" transform="translate(927.703125 0)"/>
    <use xlink:href="#Arial-BoldMT-51" transform="translate(983.3125 0)"/>
    <use xlink:href="#Arial-BoldMT-3" transform="translate(1044.390625 0)"/>
    <use xlink:href="#Arial-BoldMT-48" transform="translate(1072.171875 0)"/>
    <use xlink:href="#Arial-BoldMT-59" transform="translate(1127.78125 0)"/>
    <use xlink:href="#Arial-BoldMT-44" transform="translate(1183.390625 0)"/>
    <use xlink:href="#Arial-BoldMT-4f" transform="translate(1239 0)"/>
    <use xlink:href="#Arial-BoldMT-58" transform="translate(1266.78125 0)"/>
    <use xlink:href="#Arial-BoldMT-44" transform="translate(1327.859375 0)"/>
    <use xlink:href="#Arial-BoldMT-57" transform="translate(1383.46875 0)"/>
    <use xlink:href="#Arial-BoldMT-48" transform="translate(1416.765625 0)"/>
    <use xlink:href="#Arial-BoldMT-3" transform="translate(1472.375 0)"/>
    <use xlink:href="#Arial-BoldMT-52" transform="translate(1500.15625 0)"/>
    <use xlink:href="#Arial-BoldMT-51" transform="translate(1561.234375 0)"/>
    <use xlink:href="#Arial-BoldMT-4f" transform="translate(1622.3125 0)"/>
    <use xlink:href="#Arial-BoldMT-5c" transform="translate(1650.09375 0)"/>
    <use xlink:href="#Arial-BoldMT-3" transform="translate(1705.703125 0)"/>
    <use xlink:href="#Arial-BoldMT-44" transform="translate(1733.484375 0)"/>
    <use xlink:href="#Arial-BoldMT-3" transform="translate(1789.09375 0)"/>
    <use xlink:href="#Arial-BoldMT-57" transform="translate(1816.875 0)"/>
    <use xlink:href="#Arial-BoldMT-4c" transform="translate(1850.171875 0)"/>
    <use xlink:href="#Arial-BoldMT-51" transform="translate(1877.953125 0)"/>
    <use xlink:href="#Arial-BoldMT-5c" transform="translate(1939.03125 0)"/>
    <use xlink:href="#Arial-BoldMT-3" transform="translate(1994.640625 0)"/>
    <use xlink:href="#Arial-BoldMT-56" transform="translate(2022.421875 0)"/>
    <use xlink:href="#Arial-BoldMT-4f" transform="translate(2078.03125 0)"/>
    <use xlink:href="#Arial-BoldMT-4c" transform="translate(2105.8125 0)"/>
    <use xlink:href="#Arial-BoldMT-46" transform="translate(2133.59375 0)"/>
    <use xlink:href="#Arial-BoldMT-48" transform="translate(2189.203125 0)"/>
   </g>
   <!-- of the plausible candidate space. -->
   <g style="fill: #136680" transform="translate(150.172687 198.473057) scale(0.054 -0.054)">
    <use xlink:href="#Arial-BoldMT-52"/>
    <use xlink:href="#Arial-BoldMT-49" transform="translate(61.078125 0)"/>
    <use xlink:href="#Arial-BoldMT-3" transform="translate(94.375 0)"/>
    <use xlink:href="#Arial-BoldMT-57" transform="translate(122.15625 0)"/>
    <use xlink:href="#Arial-BoldMT-4b" transform="translate(155.453125 0)"/>
    <use xlink:href="#Arial-BoldMT-48" transform="translate(216.53125 0)"/>
    <use xlink:href="#Arial-BoldMT-3" transform="translate(272.140625 0)"/>
    <use xlink:href="#Arial-BoldMT-53" transform="translate(299.921875 0)"/>
    <use xlink:href="#Arial-BoldMT-4f" transform="translate(361 0)"/>
    <use xlink:href="#Arial-BoldMT-44" transform="translate(388.78125 0)"/>
    <use xlink:href="#Arial-BoldMT-58" transform="translate(444.390625 0)"/>
    <use xlink:href="#Arial-BoldMT-56" transform="translate(505.46875 0)"/>
    <use xlink:href="#Arial-BoldMT-4c" transform="translate(561.078125 0)"/>
    <use xlink:href="#Arial-BoldMT-45" transform="translate(588.859375 0)"/>
    <use xlink:href="#Arial-BoldMT-4f" transform="translate(649.9375 0)"/>
    <use xlink:href="#Arial-BoldMT-48" transform="translate(677.71875 0)"/>
    <use xlink:href="#Arial-BoldMT-3" transform="translate(733.328125 0)"/>
    <use xlink:href="#Arial-BoldMT-46" transform="translate(761.109375 0)"/>
    <use xlink:href="#Arial-BoldMT-44" transform="translate(816.71875 0)"/>
    <use xlink:href="#Arial-BoldMT-51" transform="translate(872.328125 0)"/>
    <use xlink:href="#Arial-BoldMT-47" transform="translate(933.40625 0)"/>
    <use xlink:href="#Arial-BoldMT-4c" transform="translate(994.484375 0)"/>
    <use xlink:href="#Arial-BoldMT-47" transform="translate(1022.265625 0)"/>
    <use xlink:href="#Arial-BoldMT-44" transform="translate(1083.34375 0)"/>
    <use xlink:href="#Arial-BoldMT-57" transform="translate(1138.953125 0)"/>
    <use xlink:href="#Arial-BoldMT-48" transform="translate(1172.25 0)"/>
    <use xlink:href="#Arial-BoldMT-3" transform="translate(1227.859375 0)"/>
    <use xlink:href="#Arial-BoldMT-56" transform="translate(1255.640625 0)"/>
    <use xlink:href="#Arial-BoldMT-53" transform="translate(1311.25 0)"/>
    <use xlink:href="#Arial-BoldMT-44" transform="translate(1372.328125 0)"/>
    <use xlink:href="#Arial-BoldMT-46" transform="translate(1427.9375 0)"/>
    <use xlink:href="#Arial-BoldMT-48" transform="translate(1483.546875 0)"/>
    <use xlink:href="#Arial-BoldMT-11" transform="translate(1539.15625 0)"/>
   </g>
  </g>
 </g>
 <defs>
  <clipPath id="pf0cad35de6">
   <rect x="146.2848" y="38.1888" width="180.9312" height="116.688"/>
  </clipPath>
 </defs>
</svg>
