<?xml version="1.0" encoding="utf-8" standalone="no"?>
<!DOCTYPE svg PUBLIC "-//W3C//DTD SVG 1.1//EN"
  "http://www.w3.org/Graphics/SVG/1.1/DTD/svg11.dtd">
<svg xmlns:xlink="http://www.w3.org/1999/xlink" width="352.8pt" height="183.36pt" viewBox="0 0 352.8 183.36" xmlns="http://www.w3.org/2000/svg" version="1.1">
 <metadata>
  <rdf:RDF xmlns:dc="http://purl.org/dc/elements/1.1/" xmlns:cc="http://creativecommons.org/ns#" xmlns:rdf="http://www.w3.org/1999/02/22-rdf-syntax-ns#">
   <cc:Work>
    <dc:type rdf:resource="http://purl.org/dc/dcmitype/StillImage"/>
    <dc:date>2026-07-20T18:43:50.129364</dc:date>
    <dc:format>image/svg+xml</dc:format>
    <dc:creator>
     <cc:Agent>
      <dc:title>Matplotlib v3.11.0, https://matplotlib.org/</dc:title>
     </cc:Agent>
    </dc:creator>
   </cc:Work>
  </rdf:RDF>
 </metadata>
 <defs>
  <style type="text/css">*{stroke-linejoin: round; stroke-linecap: butt}</style>
 </defs>
 <g id="figure_1">
  <g id="patch_1">
   <path d="M 0 183.36
L 352.8 183.36
L 352.8 0
L 0 0
z
" style="fill: #ffffff"/>
  </g>
  <g id="axes_1">
   <g id="patch_2">
    <path d="M 38.808 148.5216
L 342.216 148.5216
L 342.216 25.6704
L 38.808 25.6704
z
" style="fill: #ffffff"/>
   </g>
   <g id="FillBetweenPolyCollection_1">
    <defs>
     <path id="m024d3e5c2a" d="M 38.808 -55.386827
L 38.808 -44.662003
L 39.56652 -45.094858
L 40.32504 -45.527524
L 41.08356 -45.959809
L 41.84208 -46.391526
L 42.6006 -46.822484
L 43.35912 -47.252495
L 44.11764 -47.681371
L 44.87616 -48.108923
L 45.63468 -48.534965
L 46.3932 -48.959309
L 47.15172 -49.381771
L 47.91024 -49.802167
L 48.66876 -50.220311
L 49.42728 -50.636023
L 50.1858 -51.04912
L 50.94432 -51.459424
L 51.70284 -51.866756
L 52.46136 -52.270938
L 53.21988 -52.671796
L 53.9784 -53.069155
L 54.73692 -53.462845
L 55.49544 -53.852694
L 56.25396 -54.238536
L 57.01248 -54.620203
L 57.771 -54.997533
L 58.52952 -55.370362
L 59.28804 -55.738533
L 60.04656 -56.101887
L 60.80508 -56.46027
L 61.5636 -56.813531
L 62.32212 -57.161519
L 63.08064 -57.504087
L 63.83916 -57.841092
L 64.59768 -58.172392
L 65.3562 -58.497849
L 66.11472 -58.817327
L 66.87324 -59.130694
L 67.63176 -59.43782
L 68.39028 -59.73858
L 69.1488 -60.03285
L 69.90732 -60.320511
L 70.66584 -60.601446
L 71.42436 -60.875543
L 72.18288 -61.142691
L 72.9414 -61.402786
L 73.69992 -61.655724
L 74.45844 -61.901408
L 75.21696 -62.139741
L 75.97548 -62.370633
L 76.734 -62.593995
L 77.49252 -62.809745
L 78.25104 -63.017802
L 79.00956 -63.218091
L 79.76808 -63.410538
L 80.5266 -63.595076
L 81.28512 -63.771642
L 82.04364 -63.940174
L 82.80216 -64.100616
L 83.56068 -64.252918
L 84.3192 -64.39703
L 85.07772 -64.53291
L 85.83624 -64.660518
L 86.59476 -64.779819
L 87.35328 -64.89078
L 88.1118 -64.993377
L 88.87032 -65.087585
L 89.62884 -65.173387
L 90.38736 -65.250769
L 91.14588 -65.31972
L 91.9044 -65.380235
L 92.66292 -65.432312
L 93.42144 -65.475956
L 94.17996 -65.511171
L 94.93848 -65.537971
L 95.697 -65.556371
L 96.45552 -65.566391
L 97.21404 -65.568056
L 97.97256 -65.561392
L 98.73108 -65.546434
L 99.4896 -65.523218
L 100.24812 -65.491786
L 101.00664 -65.452181
L 101.76516 -65.404455
L 102.52368 -65.34866
L 103.2822 -65.284853
L 104.04072 -65.213097
L 104.79924 -65.133457
L 105.55776 -65.046002
L 106.31628 -64.950806
L 107.0748 -64.847948
L 107.83332 -64.737507
L 108.59184 -64.619569
L 109.35036 -64.494224
L 110.10888 -64.361563
L 110.8674 -64.221684
L 111.62592 -64.074687
L 112.38444 -63.920674
L 113.14296 -63.759754
L 113.90148 -63.592038
L 114.66 -63.417639
L 115.41852 -63.236675
L 116.17704 -63.049266
L 116.93556 -62.855538
L 117.69408 -62.655618
L 118.4526 -62.449635
L 119.21112 -62.237724
L 119.96964 -62.020021
L 120.72816 -61.796666
L 121.48668 -61.567801
L 122.2452 -61.333571
L 123.00372 -61.094123
L 123.76224 -60.84961
L 124.52076 -60.600183
L 125.27928 -60.345998
L 126.0378 -60.087213
L 126.79632 -59.823989
L 127.55484 -59.556488
L 128.31336 -59.284874
L 129.07188 -59.009315
L 129.8304 -58.72998
L 130.58892 -58.447038
L 131.34744 -58.160663
L 132.10596 -57.871028
L 132.86448 -57.57831
L 133.623 -57.282687
L 134.38152 -56.984336
L 135.14004 -56.68344
L 135.89856 -56.380178
L 136.65708 -56.074734
L 137.4156 -55.767292
L 138.17412 -55.458036
L 138.93264 -55.147154
L 139.69116 -54.83483
L 140.44968 -54.521254
L 141.2082 -54.206612
L 141.96672 -53.891093
L 142.72524 -53.574887
L 143.48376 -53.258182
L 144.24228 -52.941169
L 145.0008 -52.624036
L 145.75932 -52.306975
L 146.51784 -51.990174
L 147.27636 -51.673824
L 148.03488 -51.358114
L 148.7934 -51.043233
L 149.55192 -50.729369
L 150.31044 -50.416711
L 151.06896 -50.105447
L 151.82748 -49.795763
L 152.586 -49.487845
L 153.34452 -49.181879
L 154.10304 -48.878048
L 154.86156 -48.576537
L 155.62008 -48.277526
L 156.3786 -47.981196
L 157.13712 -47.687727
L 157.89564 -47.397297
L 158.65416 -47.110082
L 159.41268 -46.826256
L 160.1712 -46.545993
L 160.92972 -46.269464
L 161.68824 -45.996837
L 162.44676 -45.728281
L 163.20528 -45.463961
L 163.9638 -45.204039
L 164.72232 -44.948677
L 165.48084 -44.698033
L 166.23936 -44.452264
L 166.99788 -44.211522
L 167.7564 -43.975959
L 168.51492 -43.745725
L 169.27344 -43.520964
L 170.03196 -43.301819
L 170.79048 -43.088432
L 171.549 -42.880938
L 172.30752 -42.679474
L 173.06604 -42.484169
L 173.82456 -42.295152
L 174.58308 -42.112548
L 175.3416 -41.936479
L 176.10012 -41.767063
L 176.85864 -41.604415
L 177.61716 -41.448647
L 178.37568 -41.299867
L 179.1342 -41.158179
L 179.89272 -41.023686
L 180.65124 -40.896483
L 181.40976 -40.776665
L 182.16828 -40.664322
L 182.9268 -40.559539
L 183.68532 -40.4624
L 184.44384 -40.372982
L 185.20236 -40.291361
L 185.96088 -40.217606
L 186.7194 -40.151785
L 187.47792 -40.093959
L 188.23644 -40.044189
L 188.99496 -40.002527
L 189.75348 -39.969026
L 190.512 -39.943729
L 191.27052 -39.926681
L 192.02904 -39.917919
L 192.78756 -39.917476
L 193.54608 -39.925382
L 194.3046 -39.941662
L 195.06312 -39.966338
L 195.82164 -39.999426
L 196.58016 -40.040939
L 197.33868 -40.090885
L 198.0972 -40.149268
L 198.85572 -40.216088
L 199.61424 -40.29134
L 200.37276 -40.375015
L 201.13128 -40.467101
L 201.8898 -40.56758
L 202.64832 -40.676431
L 203.40684 -40.793627
L 204.16536 -40.919139
L 204.92388 -41.052932
L 205.6824 -41.194968
L 206.44092 -41.345205
L 207.19944 -41.503595
L 207.95796 -41.670089
L 208.71648 -41.844629
L 209.475 -42.027159
L 210.23352 -42.217614
L 210.99204 -42.415928
L 211.75056 -42.622029
L 212.50908 -42.835842
L 213.2676 -43.057289
L 214.02612 -43.286287
L 214.78464 -43.522748
L 215.54316 -43.766583
L 216.30168 -44.017697
L 217.0602 -44.275993
L 217.81872 -44.54137
L 218.57724 -44.813721
L 219.33576 -45.092939
L 220.09428 -45.378911
L 220.8528 -45.671522
L 221.61132 -45.970654
L 222.36984 -46.276183
L 223.12836 -46.587985
L 223.88688 -46.905931
L 224.6454 -47.22989
L 225.40392 -47.559727
L 226.16244 -47.895303
L 226.92096 -48.236479
L 227.67948 -48.583112
L 228.438 -48.935054
L 229.19652 -49.292157
L 229.95504 -49.65427
L 230.71356 -50.021238
L 231.47208 -50.392905
L 232.2306 -50.769113
L 232.98912 -51.149699
L 233.74764 -51.534502
L 234.50616 -51.923354
L 235.26468 -52.31609
L 236.0232 -52.712538
L 236.78172 -53.112528
L 237.54024 -53.515887
L 238.29876 -53.922439
L 239.05728 -54.332009
L 239.8158 -54.744417
L 240.57432 -55.159485
L 241.33284 -55.577032
L 242.09136 -55.996876
L 242.84988 -56.418833
L 243.6084 -56.84272
L 244.36692 -57.26835
L 245.12544 -57.695538
L 245.88396 -58.124097
L 246.64248 -58.553839
L 247.401 -58.984576
L 248.15952 -59.416119
L 248.91804 -59.848279
L 249.67656 -60.280866
L 250.43508 -60.713691
L 251.1936 -61.146564
L 251.95212 -61.579295
L 252.71064 -62.011695
L 253.46916 -62.443573
L 254.22768 -62.874741
L 254.9862 -63.305009
L 255.74472 -63.73419
L 256.50324 -64.162094
L 257.26176 -64.588535
L 258.02028 -65.013326
L 258.7788 -65.436281
L 259.53732 -65.857216
L 260.29584 -66.275946
L 261.05436 -66.69229
L 261.81288 -67.106065
L 262.5714 -67.517092
L 263.32992 -67.925191
L 264.08844 -68.330185
L 264.84696 -68.7319
L 265.60548 -69.130159
L 266.364 -69.524792
L 267.12252 -69.915628
L 267.88104 -70.302498
L 268.63956 -70.685236
L 269.39808 -71.063677
L 270.1566 -71.437659
L 270.91512 -71.807021
L 271.67364 -72.171607
L 272.43216 -72.531261
L 273.19068 -72.88583
L 273.9492 -73.235164
L 274.70772 -73.579116
L 275.46624 -73.91754
L 276.22476 -74.250295
L 276.98328 -74.577241
L 277.7418 -74.898242
L 278.50032 -75.213166
L 279.25884 -75.521881
L 280.01736 -75.824261
L 280.77588 -76.120182
L 281.5344 -76.409524
L 282.29292 -76.69217
L 283.05144 -76.968005
L 283.80996 -77.236919
L 284.56848 -77.498806
L 285.327 -77.753563
L 286.08552 -78.001088
L 286.84404 -78.241287
L 287.60256 -78.474068
L 288.36108 -78.699341
L 289.1196 -78.917022
L 289.87812 -79.127031
L 290.63664 -79.329289
L 291.39516 -79.523724
L 292.15368 -79.710267
L 292.9122 -79.888853
L 293.67072 -80.05942
L 294.42924 -80.221912
L 295.18776 -80.376275
L 295.94628 -80.522461
L 296.7048 -80.660425
L 297.46332 -80.790127
L 298.22184 -80.911529
L 298.98036 -81.024601
L 299.73888 -81.129313
L 300.4974 -81.225643
L 301.25592 -81.313571
L 302.01444 -81.393081
L 302.77296 -81.464163
L 303.53148 -81.52681
L 304.29 -81.581019
L 305.04852 -81.626793
L 305.80704 -81.664138
L 306.56556 -81.693063
L 307.32408 -81.713584
L 308.0826 -81.725719
L 308.84112 -81.729492
L 309.59964 -81.72493
L 310.35816 -81.712065
L 311.11668 -81.690932
L 311.8752 -81.661571
L 312.63372 -81.624027
L 313.39224 -81.578348
L 314.15076 -81.524586
L 314.90928 -81.462798
L 315.6678 -81.393045
L 316.42632 -81.31539
L 317.18484 -81.229903
L 317.94336 -81.136657
L 318.70188 -81.035727
L 319.4604 -80.927194
L 320.21892 -80.811142
L 320.97744 -80.68766
L 321.73596 -80.556839
L 322.49448 -80.418774
L 323.253 -80.273566
L 324.01152 -80.121316
L 324.77004 -79.962131
L 325.52856 -79.796121
L 326.28708 -79.6234
L 327.0456 -79.444083
L 327.80412 -79.258292
L 328.56264 -79.066149
L 329.32116 -78.867781
L 330.07968 -78.663318
L 330.8382 -78.452892
L 331.59672 -78.236639
L 332.35524 -78.014699
L 333.11376 -77.787212
L 333.87228 -77.554324
L 334.6308 -77.316181
L 335.38932 -77.072933
L 336.14784 -76.824733
L 336.90636 -76.571736
L 337.66488 -76.314098
L 338.4234 -76.05198
L 339.18192 -75.785544
L 339.94044 -75.514954
L 340.69896 -75.240376
L 341.45748 -74.961979
L 342.216 -74.679932
L 342.216 -85.404756
L 342.216 -85.404756
L 341.45748 -85.686802
L 340.69896 -85.9652
L 339.94044 -86.239778
L 339.18192 -86.510368
L 338.4234 -86.776804
L 337.66488 -87.038922
L 336.90636 -87.296559
L 336.14784 -87.549556
L 335.38932 -87.797757
L 334.6308 -88.041004
L 333.87228 -88.279147
L 333.11376 -88.512036
L 332.35524 -88.739522
L 331.59672 -88.961463
L 330.8382 -89.177715
L 330.07968 -89.388141
L 329.32116 -89.592604
L 328.56264 -89.790972
L 327.80412 -89.983115
L 327.0456 -90.168907
L 326.28708 -90.348223
L 325.52856 -90.520945
L 324.77004 -90.686955
L 324.01152 -90.84614
L 323.253 -90.998389
L 322.49448 -91.143598
L 321.73596 -91.281662
L 320.97744 -91.412483
L 320.21892 -91.535966
L 319.4604 -91.652017
L 318.70188 -91.76055
L 317.94336 -91.86148
L 317.18484 -91.954727
L 316.42632 -92.040214
L 315.6678 -92.117868
L 314.90928 -92.187622
L 314.15076 -92.24941
L 313.39224 -92.303171
L 312.63372 -92.348851
L 311.8752 -92.386395
L 311.11668 -92.415755
L 310.35816 -92.436888
L 309.59964 -92.449753
L 308.84112 -92.454315
L 308.0826 -92.450543
L 307.32408 -92.438407
L 306.56556 -92.417886
L 305.80704 -92.388961
L 305.04852 -92.351617
L 304.29 -92.305843
L 303.53148 -92.251634
L 302.77296 -92.188987
L 302.01444 -92.117905
L 301.25592 -92.038394
L 300.4974 -91.950467
L 299.73888 -91.854137
L 298.98036 -91.749424
L 298.22184 -91.636353
L 297.46332 -91.51495
L 296.7048 -91.385249
L 295.94628 -91.247285
L 295.18776 -91.101099
L 294.42924 -90.946735
L 293.67072 -90.784243
L 292.9122 -90.613676
L 292.15368 -90.43509
L 291.39516 -90.248547
L 290.63664 -90.054112
L 289.87812 -89.851854
L 289.1196 -89.641846
L 288.36108 -89.424165
L 287.60256 -89.198891
L 286.84404 -88.966111
L 286.08552 -88.725912
L 285.327 -88.478386
L 284.56848 -88.22363
L 283.80996 -87.961743
L 283.05144 -87.692828
L 282.29292 -87.416993
L 281.5344 -87.134348
L 280.77588 -86.845006
L 280.01736 -86.549085
L 279.25884 -86.246704
L 278.50032 -85.937989
L 277.7418 -85.623066
L 276.98328 -85.302064
L 276.22476 -84.975118
L 275.46624 -84.642363
L 274.70772 -84.303939
L 273.9492 -83.959988
L 273.19068 -83.610654
L 272.43216 -83.256085
L 271.67364 -82.896431
L 270.91512 -82.531845
L 270.1566 -82.162482
L 269.39808 -81.7885
L 268.63956 -81.410059
L 267.88104 -81.027322
L 267.12252 -80.640452
L 266.364 -80.249616
L 265.60548 -79.854983
L 264.84696 -79.456723
L 264.08844 -79.055009
L 263.32992 -78.650014
L 262.5714 -78.241915
L 261.81288 -77.830889
L 261.05436 -77.417113
L 260.29584 -77.00077
L 259.53732 -76.582039
L 258.7788 -76.161104
L 258.02028 -75.738149
L 257.26176 -75.313358
L 256.50324 -74.886917
L 255.74472 -74.459013
L 254.9862 -74.029833
L 254.22768 -73.599565
L 253.46916 -73.168397
L 252.71064 -72.736518
L 251.95212 -72.304119
L 251.1936 -71.871388
L 250.43508 -71.438515
L 249.67656 -71.005689
L 248.91804 -70.573102
L 248.15952 -70.140942
L 247.401 -69.709399
L 246.64248 -69.278663
L 245.88396 -68.848921
L 245.12544 -68.420362
L 244.36692 -67.993174
L 243.6084 -67.567543
L 242.84988 -67.143657
L 242.09136 -66.7217
L 241.33284 -66.301856
L 240.57432 -65.884309
L 239.8158 -65.469241
L 239.05728 -65.056832
L 238.29876 -64.647263
L 237.54024 -64.24071
L 236.78172 -63.837352
L 236.0232 -63.437361
L 235.26468 -63.040913
L 234.50616 -62.648178
L 233.74764 -62.259325
L 232.98912 -61.874523
L 232.2306 -61.493936
L 231.47208 -61.117729
L 230.71356 -60.746061
L 229.95504 -60.379093
L 229.19652 -60.01698
L 228.438 -59.659877
L 227.67948 -59.307935
L 226.92096 -58.961303
L 226.16244 -58.620127
L 225.40392 -58.28455
L 224.6454 -57.954714
L 223.88688 -57.630755
L 223.12836 -57.312809
L 222.36984 -57.001007
L 221.61132 -56.695477
L 220.8528 -56.396346
L 220.09428 -56.103734
L 219.33576 -55.817762
L 218.57724 -55.538544
L 217.81872 -55.266193
L 217.0602 -55.000817
L 216.30168 -54.742521
L 215.54316 -54.491406
L 214.78464 -54.247572
L 214.02612 -54.01111
L 213.2676 -53.782113
L 212.50908 -53.560666
L 211.75056 -53.346852
L 210.99204 -53.140751
L 210.23352 -52.942438
L 209.475 -52.751983
L 208.71648 -52.569453
L 207.95796 -52.394912
L 207.19944 -52.228419
L 206.44092 -52.070029
L 205.6824 -51.919792
L 204.92388 -51.777756
L 204.16536 -51.643962
L 203.40684 -51.51845
L 202.64832 -51.401254
L 201.8898 -51.292404
L 201.13128 -51.191925
L 200.37276 -51.099839
L 199.61424 -51.016163
L 198.85572 -50.940911
L 198.0972 -50.874092
L 197.33868 -50.815709
L 196.58016 -50.765763
L 195.82164 -50.72425
L 195.06312 -50.691162
L 194.3046 -50.666486
L 193.54608 -50.650205
L 192.78756 -50.642299
L 192.02904 -50.642742
L 191.27052 -50.651505
L 190.512 -50.668553
L 189.75348 -50.693849
L 188.99496 -50.727351
L 188.23644 -50.769012
L 187.47792 -50.818783
L 186.7194 -50.876608
L 185.96088 -50.942429
L 185.20236 -51.016184
L 184.44384 -51.097806
L 183.68532 -51.187223
L 182.9268 -51.284363
L 182.16828 -51.389145
L 181.40976 -51.501488
L 180.65124 -51.621307
L 179.89272 -51.748509
L 179.1342 -51.883003
L 178.37568 -52.02469
L 177.61716 -52.17347
L 176.85864 -52.329238
L 176.10012 -52.491886
L 175.3416 -52.661302
L 174.58308 -52.837371
L 173.82456 -53.019975
L 173.06604 -53.208992
L 172.30752 -53.404297
L 171.549 -53.605762
L 170.79048 -53.813255
L 170.03196 -54.026643
L 169.27344 -54.245787
L 168.51492 -54.470548
L 167.7564 -54.700783
L 166.99788 -54.936345
L 166.23936 -55.177087
L 165.48084 -55.422857
L 164.72232 -55.673501
L 163.9638 -55.928863
L 163.20528 -56.188785
L 162.44676 -56.453105
L 161.68824 -56.721661
L 160.92972 -56.994287
L 160.1712 -57.270817
L 159.41268 -57.55108
L 158.65416 -57.834905
L 157.89564 -58.122121
L 157.13712 -58.412551
L 156.3786 -58.70602
L 155.62008 -59.002349
L 154.86156 -59.30136
L 154.10304 -59.602872
L 153.34452 -59.906702
L 152.586 -60.212668
L 151.82748 -60.520586
L 151.06896 -60.83027
L 150.31044 -61.141535
L 149.55192 -61.454192
L 148.7934 -61.768056
L 148.03488 -62.082937
L 147.27636 -62.398648
L 146.51784 -62.714998
L 145.75932 -63.031799
L 145.0008 -63.34886
L 144.24228 -63.665992
L 143.48376 -63.983005
L 142.72524 -64.29971
L 141.96672 -64.615916
L 141.2082 -64.931435
L 140.44968 -65.246077
L 139.69116 -65.559654
L 138.93264 -65.871977
L 138.17412 -66.18286
L 137.4156 -66.492115
L 136.65708 -66.799557
L 135.89856 -67.105001
L 135.14004 -67.408263
L 134.38152 -67.70916
L 133.623 -68.00751
L 132.86448 -68.303134
L 132.10596 -68.595852
L 131.34744 -68.885486
L 130.58892 -69.171861
L 129.8304 -69.454803
L 129.07188 -69.734139
L 128.31336 -70.009698
L 127.55484 -70.281311
L 126.79632 -70.548813
L 126.0378 -70.812037
L 125.27928 -71.070821
L 124.52076 -71.325006
L 123.76224 -71.574433
L 123.00372 -71.818947
L 122.2452 -72.058394
L 121.48668 -72.292624
L 120.72816 -72.521489
L 119.96964 -72.744845
L 119.21112 -72.962548
L 118.4526 -73.174459
L 117.69408 -73.380441
L 116.93556 -73.580362
L 116.17704 -73.77409
L 115.41852 -73.961498
L 114.66 -74.142462
L 113.90148 -74.316861
L 113.14296 -74.484578
L 112.38444 -74.645498
L 111.62592 -74.79951
L 110.8674 -74.946508
L 110.10888 -75.086387
L 109.35036 -75.219047
L 108.59184 -75.344393
L 107.83332 -75.46233
L 107.0748 -75.572771
L 106.31628 -75.67563
L 105.55776 -75.770825
L 104.79924 -75.85828
L 104.04072 -75.93792
L 103.2822 -76.009677
L 102.52368 -76.073483
L 101.76516 -76.129278
L 101.00664 -76.177005
L 100.24812 -76.216609
L 99.4896 -76.248042
L 98.73108 -76.271258
L 97.97256 -76.286216
L 97.21404 -76.292879
L 96.45552 -76.291215
L 95.697 -76.281195
L 94.93848 -76.262795
L 94.17996 -76.235995
L 93.42144 -76.200779
L 92.66292 -76.157136
L 91.9044 -76.105058
L 91.14588 -76.044543
L 90.38736 -75.975592
L 89.62884 -75.898211
L 88.87032 -75.812409
L 88.1118 -75.7182
L 87.35328 -75.615604
L 86.59476 -75.504642
L 85.83624 -75.385342
L 85.07772 -75.257734
L 84.3192 -75.121854
L 83.56068 -74.977741
L 82.80216 -74.82544
L 82.04364 -74.664997
L 81.28512 -74.496465
L 80.5266 -74.3199
L 79.76808 -74.135361
L 79.00956 -73.942914
L 78.25104 -73.742626
L 77.49252 -73.534569
L 76.734 -73.318819
L 75.97548 -73.095456
L 75.21696 -72.864565
L 74.45844 -72.626231
L 73.69992 -72.380548
L 72.9414 -72.127609
L 72.18288 -71.867515
L 71.42436 -71.600366
L 70.66584 -71.326269
L 69.90732 -71.045334
L 69.1488 -70.757673
L 68.39028 -70.463403
L 67.63176 -70.162643
L 66.87324 -69.855517
L 66.11472 -69.54215
L 65.3562 -69.222672
L 64.59768 -68.897215
L 63.83916 -68.565915
L 63.08064 -68.22891
L 62.32212 -67.886342
L 61.5636 -67.538354
L 60.80508 -67.185094
L 60.04656 -66.82671
L 59.28804 -66.463356
L 58.52952 -66.095186
L 57.771 -65.722356
L 57.01248 -65.345027
L 56.25396 -64.963359
L 55.49544 -64.577518
L 54.73692 -64.187668
L 53.9784 -63.793979
L 53.21988 -63.396619
L 52.46136 -62.995761
L 51.70284 -62.591579
L 50.94432 -62.184248
L 50.1858 -61.773944
L 49.42728 -61.360846
L 48.66876 -60.945135
L 47.91024 -60.52699
L 47.15172 -60.106595
L 46.3932 -59.684133
L 45.63468 -59.259788
L 44.87616 -58.833747
L 44.11764 -58.406194
L 43.35912 -57.977319
L 42.6006 -57.547308
L 41.84208 -57.116349
L 41.08356 -56.684633
L 40.32504 -56.252347
L 39.56652 -55.819682
L 38.808 -55.386827
z
"/>
    </defs>
    <g clip-path="url(#p2ed8b51924)">
     <use xlink:href="#m024d3e5c2a" x="0" y="183.36" style="fill: #1683a6; fill-opacity: 0.16"/>
    </g>
   </g>
   <g id="line2d_1">
    <path d="M 220.8528 148.5216
L 220.8528 25.6704
" clip-path="url(#p2ed8b51924)" style="fill: none; stroke-dasharray: 2.59,1.12; stroke-dashoffset: 0; stroke: #aab4bf; stroke-width: 0.7"/>
   </g>
   <g id="matplotlib.axis_1">
    <g id="xtick_1">
     <g id="line2d_2">
      <defs>
       <path id="m8712525c7b" d="M 0 0
L 0 2.5
" style="stroke: #000000; stroke-width: 0.6"/>
      </defs>
      <g>
       <use xlink:href="#m8712525c7b" x="38.808" y="148.5216" style="stroke: #000000; stroke-width: 0.6"/>
      </g>
     </g>
     <g id="text_1">
      <!-- 0 -->
      <g transform="translate(37.000695 157.753778) scale(0.065 -0.065)">
       <defs>
        <path id="ArialMT-13" d="M 266 2259
Q 266 3072 433 3567
Q 600 4063 929 4331
Q 1259 4600 1759 4600
Q 2128 4600 2406 4451
Q 2684 4303 2865 4023
Q 3047 3744 3150 3342
Q 3253 2941 3253 2259
Q 3253 1453 3087 958
Q 2922 463 2592 192
Q 2263 -78 1759 -78
Q 1097 -78 719 397
Q 266 969 266 2259
z
M 844 2259
Q 844 1131 1108 757
Q 1372 384 1759 384
Q 2147 384 2411 759
Q 2675 1134 2675 2259
Q 2675 3391 2411 3762
Q 2147 4134 1753 4134
Q 1366 4134 1134 3806
Q 844 3388 844 2259
z
" transform="scale(0.015625)"/>
       </defs>
       <use xlink:href="#ArialMT-13"/>
      </g>
     </g>
    </g>
    <g id="xtick_2">
     <g id="line2d_3">
      <g>
       <use xlink:href="#m8712525c7b" x="99.4896" y="148.5216" style="stroke: #000000; stroke-width: 0.6"/>
      </g>
     </g>
     <g id="text_2">
      <!-- 2 -->
      <g transform="translate(97.682295 157.753778) scale(0.065 -0.065)">
       <defs>
        <path id="ArialMT-15" d="M 3222 541
L 3222 0
L 194 0
Q 188 203 259 391
Q 375 700 629 1000
Q 884 1300 1366 1694
Q 2113 2306 2375 2664
Q 2638 3022 2638 3341
Q 2638 3675 2398 3904
Q 2159 4134 1775 4134
Q 1369 4134 1125 3890
Q 881 3647 878 3216
L 300 3275
Q 359 3922 746 4261
Q 1134 4600 1788 4600
Q 2447 4600 2831 4234
Q 3216 3869 3216 3328
Q 3216 3053 3103 2787
Q 2991 2522 2730 2228
Q 2469 1934 1863 1422
Q 1356 997 1212 845
Q 1069 694 975 541
L 3222 541
z
" transform="scale(0.015625)"/>
       </defs>
       <use xlink:href="#ArialMT-15"/>
      </g>
     </g>
    </g>
    <g id="xtick_3">
     <g id="line2d_4">
      <g>
       <use xlink:href="#m8712525c7b" x="160.1712" y="148.5216" style="stroke: #000000; stroke-width: 0.6"/>
      </g>
     </g>
     <g id="text_3">
      <!-- 4 -->
      <g transform="translate(158.363895 157.753778) scale(0.065 -0.065)">
       <defs>
        <path id="ArialMT-17" d="M 2069 0
L 2069 1097
L 81 1097
L 81 1613
L 2172 4581
L 2631 4581
L 2631 1613
L 3250 1613
L 3250 1097
L 2631 1097
L 2631 0
L 2069 0
z
M 2069 1613
L 2069 3678
L 634 1613
L 2069 1613
z
" transform="scale(0.015625)"/>
       </defs>
       <use xlink:href="#ArialMT-17"/>
      </g>
     </g>
    </g>
    <g id="xtick_4">
     <g id="line2d_5">
      <g>
       <use xlink:href="#m8712525c7b" x="220.8528" y="148.5216" style="stroke: #000000; stroke-width: 0.6"/>
      </g>
     </g>
     <g id="text_4">
      <!-- 6 -->
      <g transform="translate(219.045495 157.753778) scale(0.065 -0.065)">
       <defs>
        <path id="ArialMT-19" d="M 3184 3459
L 2625 3416
Q 2550 3747 2413 3897
Q 2184 4138 1850 4138
Q 1581 4138 1378 3988
Q 1113 3794 959 3422
Q 806 3050 800 2363
Q 1003 2672 1297 2822
Q 1591 2972 1913 2972
Q 2475 2972 2870 2558
Q 3266 2144 3266 1488
Q 3266 1056 3080 686
Q 2894 316 2569 119
Q 2244 -78 1831 -78
Q 1128 -78 684 439
Q 241 956 241 2144
Q 241 3472 731 4075
Q 1159 4600 1884 4600
Q 2425 4600 2770 4297
Q 3116 3994 3184 3459
z
M 888 1484
Q 888 1194 1011 928
Q 1134 663 1356 523
Q 1578 384 1822 384
Q 2178 384 2434 671
Q 2691 959 2691 1453
Q 2691 1928 2437 2201
Q 2184 2475 1800 2475
Q 1419 2475 1153 2201
Q 888 1928 888 1484
z
" transform="scale(0.015625)"/>
       </defs>
       <use xlink:href="#ArialMT-19"/>
      </g>
     </g>
    </g>
    <g id="xtick_5">
     <g id="line2d_6">
      <g>
       <use xlink:href="#m8712525c7b" x="281.5344" y="148.5216" style="stroke: #000000; stroke-width: 0.6"/>
      </g>
     </g>
     <g id="text_5">
      <!-- 8 -->
      <g transform="translate(279.727095 157.753778) scale(0.065 -0.065)">
       <defs>
        <path id="ArialMT-1b" d="M 1131 2484
Q 781 2613 612 2850
Q 444 3088 444 3419
Q 444 3919 803 4259
Q 1163 4600 1759 4600
Q 2359 4600 2725 4251
Q 3091 3903 3091 3403
Q 3091 3084 2923 2848
Q 2756 2613 2416 2484
Q 2838 2347 3058 2040
Q 3278 1734 3278 1309
Q 3278 722 2862 322
Q 2447 -78 1769 -78
Q 1091 -78 675 323
Q 259 725 259 1325
Q 259 1772 486 2073
Q 713 2375 1131 2484
z
M 1019 3438
Q 1019 3113 1228 2906
Q 1438 2700 1772 2700
Q 2097 2700 2305 2904
Q 2513 3109 2513 3406
Q 2513 3716 2298 3927
Q 2084 4138 1766 4138
Q 1444 4138 1231 3931
Q 1019 3725 1019 3438
z
M 838 1322
Q 838 1081 952 856
Q 1066 631 1291 507
Q 1516 384 1775 384
Q 2178 384 2440 643
Q 2703 903 2703 1303
Q 2703 1709 2433 1975
Q 2163 2241 1756 2241
Q 1359 2241 1098 1978
Q 838 1716 838 1322
z
" transform="scale(0.015625)"/>
       </defs>
       <use xlink:href="#ArialMT-1b"/>
      </g>
     </g>
    </g>
    <g id="xtick_6">
     <g id="line2d_7">
      <g>
       <use xlink:href="#m8712525c7b" x="342.216" y="148.5216" style="stroke: #000000; stroke-width: 0.6"/>
      </g>
     </g>
     <g id="text_6">
      <!-- 10 -->
      <g transform="translate(338.601391 157.753778) scale(0.065 -0.065)">
       <defs>
        <path id="ArialMT-14" d="M 2384 0
L 1822 0
L 1822 3584
Q 1619 3391 1289 3197
Q 959 3003 697 2906
L 697 3450
Q 1169 3672 1522 3987
Q 1875 4303 2022 4600
L 2384 4600
L 2384 0
z
" transform="scale(0.015625)"/>
       </defs>
       <use xlink:href="#ArialMT-14"/>
       <use xlink:href="#ArialMT-13" transform="translate(55.609375 0)"/>
      </g>
     </g>
    </g>
    <g id="text_7">
     <!-- workload / design parameter (synthetic units) -->
     <g transform="translate(120.874031 168.217889) scale(0.07 -0.07)">
      <defs>
       <path id="ArialMT-5a" d="M 1034 0
L 19 3319
L 600 3319
L 1128 1403
L 1325 691
Q 1338 744 1497 1375
L 2025 3319
L 2603 3319
L 3100 1394
L 3266 759
L 3456 1400
L 4025 3319
L 4572 3319
L 3534 0
L 2950 0
L 2422 1988
L 2294 2553
L 1622 0
L 1034 0
z
" transform="scale(0.015625)"/>
       <path id="ArialMT-52" d="M 213 1659
Q 213 2581 725 3025
Q 1153 3394 1769 3394
Q 2453 3394 2887 2945
Q 3322 2497 3322 1706
Q 3322 1066 3130 698
Q 2938 331 2570 128
Q 2203 -75 1769 -75
Q 1072 -75 642 372
Q 213 819 213 1659
z
M 791 1659
Q 791 1022 1069 705
Q 1347 388 1769 388
Q 2188 388 2466 706
Q 2744 1025 2744 1678
Q 2744 2294 2464 2611
Q 2184 2928 1769 2928
Q 1347 2928 1069 2612
Q 791 2297 791 1659
z
" transform="scale(0.015625)"/>
       <path id="ArialMT-55" d="M 416 0
L 416 3319
L 922 3319
L 922 2816
Q 1116 3169 1280 3281
Q 1444 3394 1641 3394
Q 1925 3394 2219 3213
L 2025 2691
Q 1819 2813 1613 2813
Q 1428 2813 1281 2702
Q 1134 2591 1072 2394
Q 978 2094 978 1738
L 978 0
L 416 0
z
" transform="scale(0.015625)"/>
       <path id="ArialMT-4e" d="M 425 0
L 425 4581
L 988 4581
L 988 1969
L 2319 3319
L 3047 3319
L 1778 2088
L 3175 0
L 2481 0
L 1384 1697
L 988 1316
L 988 0
L 425 0
z
" transform="scale(0.015625)"/>
       <path id="ArialMT-4f" d="M 409 0
L 409 4581
L 972 4581
L 972 0
L 409 0
z
" transform="scale(0.015625)"/>
       <path id="ArialMT-44" d="M 2588 409
Q 2275 144 1986 34
Q 1697 -75 1366 -75
Q 819 -75 525 192
Q 231 459 231 875
Q 231 1119 342 1320
Q 453 1522 633 1644
Q 813 1766 1038 1828
Q 1203 1872 1538 1913
Q 2219 1994 2541 2106
Q 2544 2222 2544 2253
Q 2544 2597 2384 2738
Q 2169 2928 1744 2928
Q 1347 2928 1158 2789
Q 969 2650 878 2297
L 328 2372
Q 403 2725 575 2942
Q 747 3159 1072 3276
Q 1397 3394 1825 3394
Q 2250 3394 2515 3294
Q 2781 3194 2906 3042
Q 3031 2891 3081 2659
Q 3109 2516 3109 2141
L 3109 1391
Q 3109 606 3145 398
Q 3181 191 3288 0
L 2700 0
Q 2613 175 2588 409
z
M 2541 1666
Q 2234 1541 1622 1453
Q 1275 1403 1131 1340
Q 988 1278 909 1158
Q 831 1038 831 891
Q 831 666 1001 516
Q 1172 366 1500 366
Q 1825 366 2078 508
Q 2331 650 2450 897
Q 2541 1088 2541 1459
L 2541 1666
z
" transform="scale(0.015625)"/>
       <path id="ArialMT-47" d="M 2575 0
L 2575 419
Q 2259 -75 1647 -75
Q 1250 -75 917 144
Q 584 363 401 755
Q 219 1147 219 1656
Q 219 2153 384 2558
Q 550 2963 881 3178
Q 1213 3394 1622 3394
Q 1922 3394 2156 3267
Q 2391 3141 2538 2938
L 2538 4581
L 3097 4581
L 3097 0
L 2575 0
z
M 797 1656
Q 797 1019 1065 703
Q 1334 388 1700 388
Q 2069 388 2326 689
Q 2584 991 2584 1609
Q 2584 2291 2321 2609
Q 2059 2928 1675 2928
Q 1300 2928 1048 2622
Q 797 2316 797 1656
z
" transform="scale(0.015625)"/>
       <path id="ArialMT-3" transform="scale(0.015625)"/>
       <path id="ArialMT-12" d="M 0 -78
L 1328 4659
L 1778 4659
L 453 -78
L 0 -78
z
" transform="scale(0.015625)"/>
       <path id="ArialMT-48" d="M 2694 1069
L 3275 997
Q 3138 488 2766 206
Q 2394 -75 1816 -75
Q 1088 -75 661 373
Q 234 822 234 1631
Q 234 2469 665 2931
Q 1097 3394 1784 3394
Q 2450 3394 2872 2941
Q 3294 2488 3294 1666
Q 3294 1616 3291 1516
L 816 1516
Q 847 969 1125 678
Q 1403 388 1819 388
Q 2128 388 2347 550
Q 2566 713 2694 1069
z
M 847 1978
L 2700 1978
Q 2663 2397 2488 2606
Q 2219 2931 1791 2931
Q 1403 2931 1139 2672
Q 875 2413 847 1978
z
" transform="scale(0.015625)"/>
       <path id="ArialMT-56" d="M 197 991
L 753 1078
Q 800 744 1014 566
Q 1228 388 1613 388
Q 2000 388 2187 545
Q 2375 703 2375 916
Q 2375 1106 2209 1216
Q 2094 1291 1634 1406
Q 1016 1563 777 1677
Q 538 1791 414 1992
Q 291 2194 291 2438
Q 291 2659 392 2848
Q 494 3038 669 3163
Q 800 3259 1026 3326
Q 1253 3394 1513 3394
Q 1903 3394 2198 3281
Q 2494 3169 2634 2976
Q 2775 2784 2828 2463
L 2278 2388
Q 2241 2644 2061 2787
Q 1881 2931 1553 2931
Q 1166 2931 1000 2803
Q 834 2675 834 2503
Q 834 2394 903 2306
Q 972 2216 1119 2156
Q 1203 2125 1616 2013
Q 2213 1853 2448 1751
Q 2684 1650 2818 1456
Q 2953 1263 2953 975
Q 2953 694 2789 445
Q 2625 197 2315 61
Q 2006 -75 1616 -75
Q 969 -75 630 194
Q 291 463 197 991
z
" transform="scale(0.015625)"/>
       <path id="ArialMT-4c" d="M 425 3934
L 425 4581
L 988 4581
L 988 3934
L 425 3934
z
M 425 0
L 425 3319
L 988 3319
L 988 0
L 425 0
z
" transform="scale(0.015625)"/>
       <path id="ArialMT-4a" d="M 319 -275
L 866 -356
Q 900 -609 1056 -725
Q 1266 -881 1628 -881
Q 2019 -881 2231 -725
Q 2444 -569 2519 -288
Q 2563 -116 2559 434
Q 2191 0 1641 0
Q 956 0 581 494
Q 206 988 206 1678
Q 206 2153 378 2554
Q 550 2956 876 3175
Q 1203 3394 1644 3394
Q 2231 3394 2613 2919
L 2613 3319
L 3131 3319
L 3131 450
Q 3131 -325 2973 -648
Q 2816 -972 2473 -1159
Q 2131 -1347 1631 -1347
Q 1038 -1347 672 -1080
Q 306 -813 319 -275
z
M 784 1719
Q 784 1066 1043 766
Q 1303 466 1694 466
Q 2081 466 2343 764
Q 2606 1063 2606 1700
Q 2606 2309 2336 2618
Q 2066 2928 1684 2928
Q 1309 2928 1046 2623
Q 784 2319 784 1719
z
" transform="scale(0.015625)"/>
       <path id="ArialMT-51" d="M 422 0
L 422 3319
L 928 3319
L 928 2847
Q 1294 3394 1984 3394
Q 2284 3394 2536 3286
Q 2788 3178 2913 3003
Q 3038 2828 3088 2588
Q 3119 2431 3119 2041
L 3119 0
L 2556 0
L 2556 2019
Q 2556 2363 2490 2533
Q 2425 2703 2258 2804
Q 2091 2906 1866 2906
Q 1506 2906 1245 2678
Q 984 2450 984 1813
L 984 0
L 422 0
z
" transform="scale(0.015625)"/>
       <path id="ArialMT-53" d="M 422 -1272
L 422 3319
L 934 3319
L 934 2888
Q 1116 3141 1344 3267
Q 1572 3394 1897 3394
Q 2322 3394 2647 3175
Q 2972 2956 3137 2557
Q 3303 2159 3303 1684
Q 3303 1175 3120 767
Q 2938 359 2589 142
Q 2241 -75 1856 -75
Q 1575 -75 1351 44
Q 1128 163 984 344
L 984 -1272
L 422 -1272
z
M 931 1641
Q 931 1000 1190 694
Q 1450 388 1819 388
Q 2194 388 2461 705
Q 2728 1022 2728 1688
Q 2728 2322 2467 2637
Q 2206 2953 1844 2953
Q 1484 2953 1207 2617
Q 931 2281 931 1641
z
" transform="scale(0.015625)"/>
       <path id="ArialMT-50" d="M 422 0
L 422 3319
L 925 3319
L 925 2853
Q 1081 3097 1340 3245
Q 1600 3394 1931 3394
Q 2300 3394 2536 3241
Q 2772 3088 2869 2813
Q 3263 3394 3894 3394
Q 4388 3394 4653 3120
Q 4919 2847 4919 2278
L 4919 0
L 4359 0
L 4359 2091
Q 4359 2428 4304 2576
Q 4250 2725 4106 2815
Q 3963 2906 3769 2906
Q 3419 2906 3187 2673
Q 2956 2441 2956 1928
L 2956 0
L 2394 0
L 2394 2156
Q 2394 2531 2256 2718
Q 2119 2906 1806 2906
Q 1569 2906 1367 2781
Q 1166 2656 1075 2415
Q 984 2175 984 1722
L 984 0
L 422 0
z
" transform="scale(0.015625)"/>
       <path id="ArialMT-57" d="M 1650 503
L 1731 6
Q 1494 -44 1306 -44
Q 1000 -44 831 53
Q 663 150 594 308
Q 525 466 525 972
L 525 2881
L 113 2881
L 113 3319
L 525 3319
L 525 4141
L 1084 4478
L 1084 3319
L 1650 3319
L 1650 2881
L 1084 2881
L 1084 941
Q 1084 700 1114 631
Q 1144 563 1211 522
Q 1278 481 1403 481
Q 1497 481 1650 503
z
" transform="scale(0.015625)"/>
       <path id="ArialMT-b" d="M 1497 -1347
Q 1031 -759 709 28
Q 388 816 388 1659
Q 388 2403 628 3084
Q 909 3875 1497 4659
L 1900 4659
Q 1522 4009 1400 3731
Q 1209 3300 1100 2831
Q 966 2247 966 1656
Q 966 153 1900 -1347
L 1497 -1347
z
" transform="scale(0.015625)"/>
       <path id="ArialMT-5c" d="M 397 -1278
L 334 -750
Q 519 -800 656 -800
Q 844 -800 956 -737
Q 1069 -675 1141 -563
Q 1194 -478 1313 -144
Q 1328 -97 1363 -6
L 103 3319
L 709 3319
L 1400 1397
Q 1534 1031 1641 628
Q 1738 1016 1872 1384
L 2581 3319
L 3144 3319
L 1881 -56
Q 1678 -603 1566 -809
Q 1416 -1088 1222 -1217
Q 1028 -1347 759 -1347
Q 597 -1347 397 -1278
z
" transform="scale(0.015625)"/>
       <path id="ArialMT-4b" d="M 422 0
L 422 4581
L 984 4581
L 984 2938
Q 1378 3394 1978 3394
Q 2347 3394 2619 3248
Q 2891 3103 3008 2847
Q 3125 2591 3125 2103
L 3125 0
L 2563 0
L 2563 2103
Q 2563 2525 2380 2717
Q 2197 2909 1863 2909
Q 1613 2909 1392 2779
Q 1172 2650 1078 2428
Q 984 2206 984 1816
L 984 0
L 422 0
z
" transform="scale(0.015625)"/>
       <path id="ArialMT-46" d="M 2588 1216
L 3141 1144
Q 3050 572 2676 248
Q 2303 -75 1759 -75
Q 1078 -75 664 370
Q 250 816 250 1647
Q 250 2184 428 2587
Q 606 2991 970 3192
Q 1334 3394 1763 3394
Q 2303 3394 2647 3120
Q 2991 2847 3088 2344
L 2541 2259
Q 2463 2594 2264 2762
Q 2066 2931 1784 2931
Q 1359 2931 1093 2626
Q 828 2322 828 1663
Q 828 994 1084 691
Q 1341 388 1753 388
Q 2084 388 2306 591
Q 2528 794 2588 1216
z
" transform="scale(0.015625)"/>
       <path id="ArialMT-58" d="M 2597 0
L 2597 488
Q 2209 -75 1544 -75
Q 1250 -75 995 37
Q 741 150 617 320
Q 494 491 444 738
Q 409 903 409 1263
L 409 3319
L 972 3319
L 972 1478
Q 972 1038 1006 884
Q 1059 663 1231 536
Q 1403 409 1656 409
Q 1909 409 2131 539
Q 2353 669 2445 892
Q 2538 1116 2538 1541
L 2538 3319
L 3100 3319
L 3100 0
L 2597 0
z
" transform="scale(0.015625)"/>
       <path id="ArialMT-c" d="M 791 -1347
L 388 -1347
Q 1322 153 1322 1656
Q 1322 2244 1188 2822
Q 1081 3291 891 3722
Q 769 4003 388 4659
L 791 4659
Q 1378 3875 1659 3084
Q 1900 2403 1900 1659
Q 1900 816 1576 28
Q 1253 -759 791 -1347
z
" transform="scale(0.015625)"/>
      </defs>
      <use xlink:href="#ArialMT-5a"/>
      <use xlink:href="#ArialMT-52" transform="translate(72.21875 0)"/>
      <use xlink:href="#ArialMT-55" transform="translate(127.828125 0)"/>
      <use xlink:href="#ArialMT-4e" transform="translate(161.125 0)"/>
      <use xlink:href="#ArialMT-4f" transform="translate(211.125 0)"/>
      <use xlink:href="#ArialMT-52" transform="translate(233.34375 0)"/>
      <use xlink:href="#ArialMT-44" transform="translate(288.953125 0)"/>
      <use xlink:href="#ArialMT-47" transform="translate(344.5625 0)"/>
      <use xlink:href="#ArialMT-3" transform="translate(400.171875 0)"/>
      <use xlink:href="#ArialMT-12" transform="translate(427.953125 0)"/>
      <use xlink:href="#ArialMT-3" transform="translate(455.734375 0)"/>
      <use xlink:href="#ArialMT-47" transform="translate(483.515625 0)"/>
      <use xlink:href="#ArialMT-48" transform="translate(539.125 0)"/>
      <use xlink:href="#ArialMT-56" transform="translate(594.734375 0)"/>
      <use xlink:href="#ArialMT-4c" transform="translate(644.734375 0)"/>
      <use xlink:href="#ArialMT-4a" transform="translate(666.953125 0)"/>
      <use xlink:href="#ArialMT-51" transform="translate(722.5625 0)"/>
      <use xlink:href="#ArialMT-3" transform="translate(778.171875 0)"/>
      <use xlink:href="#ArialMT-53" transform="translate(805.953125 0)"/>
      <use xlink:href="#ArialMT-44" transform="translate(861.5625 0)"/>
      <use xlink:href="#ArialMT-55" transform="translate(917.171875 0)"/>
      <use xlink:href="#ArialMT-44" transform="translate(950.46875 0)"/>
      <use xlink:href="#ArialMT-50" transform="translate(1006.078125 0)"/>
      <use xlink:href="#ArialMT-48" transform="translate(1089.375 0)"/>
      <use xlink:href="#ArialMT-57" transform="translate(1144.984375 0)"/>
      <use xlink:href="#ArialMT-48" transform="translate(1172.765625 0)"/>
      <use xlink:href="#ArialMT-55" transform="translate(1228.375 0)"/>
      <use xlink:href="#ArialMT-3" transform="translate(1261.671875 0)"/>
      <use xlink:href="#ArialMT-b" transform="translate(1289.453125 0)"/>
      <use xlink:href="#ArialMT-56" transform="translate(1322.75 0)"/>
      <use xlink:href="#ArialMT-5c" transform="translate(1372.75 0)"/>
      <use xlink:href="#ArialMT-51" transform="translate(1422.75 0)"/>
      <use xlink:href="#ArialMT-57" transform="translate(1478.359375 0)"/>
      <use xlink:href="#ArialMT-4b" transform="translate(1506.140625 0)"/>
      <use xlink:href="#ArialMT-48" transform="translate(1561.75 0)"/>
      <use xlink:href="#ArialMT-57" transform="translate(1617.359375 0)"/>
      <use xlink:href="#ArialMT-4c" transform="translate(1645.140625 0)"/>
      <use xlink:href="#ArialMT-46" transform="translate(1667.359375 0)"/>
      <use xlink:href="#ArialMT-3" transform="translate(1717.359375 0)"/>
      <use xlink:href="#ArialMT-58" transform="translate(1745.140625 0)"/>
      <use xlink:href="#ArialMT-51" transform="translate(1800.75 0)"/>
      <use xlink:href="#ArialMT-4c" transform="translate(1856.359375 0)"/>
      <use xlink:href="#ArialMT-57" transform="translate(1878.578125 0)"/>
      <use xlink:href="#ArialMT-56" transform="translate(1906.359375 0)"/>
      <use xlink:href="#ArialMT-c" transform="translate(1956.359375 0)"/>
     </g>
    </g>
   </g>
   <g id="matplotlib.axis_2">
    <g id="ytick_1">
     <g id="line2d_8">
      <path d="M 38.808 133.335585
L 342.216 133.335585
" clip-path="url(#p2ed8b51924)" style="fill: none; stroke: #d5dee3; stroke-width: 0.6; stroke-linecap: square"/>
     </g>
     <g id="line2d_9">
      <defs>
       <path id="m8fd5c3db9d" d="M 0 0
L -2.5 0
" style="stroke: #000000; stroke-width: 0.6"/>
      </defs>
      <g>
       <use xlink:href="#m8fd5c3db9d" x="38.808" y="133.335585" style="stroke: #000000; stroke-width: 0.6"/>
      </g>
     </g>
     <g id="text_8">
      <!-- 4 -->
      <g transform="translate(30.693391 135.701674) scale(0.065 -0.065)">
       <use xlink:href="#ArialMT-17"/>
      </g>
     </g>
    </g>
    <g id="ytick_2">
     <g id="line2d_10">
      <path d="M 38.808 114.816364
L 342.216 114.816364
" clip-path="url(#p2ed8b51924)" style="fill: none; stroke: #d5dee3; stroke-width: 0.6; stroke-linecap: square"/>
     </g>
     <g id="line2d_11">
      <g>
       <use xlink:href="#m8fd5c3db9d" x="38.808" y="114.816364" style="stroke: #000000; stroke-width: 0.6"/>
      </g>
     </g>
     <g id="text_9">
      <!-- 6 -->
      <g transform="translate(30.693391 117.182453) scale(0.065 -0.065)">
       <use xlink:href="#ArialMT-19"/>
      </g>
     </g>
    </g>
    <g id="ytick_3">
     <g id="line2d_12">
      <path d="M 38.808 96.297142
L 342.216 96.297142
" clip-path="url(#p2ed8b51924)" style="fill: none; stroke: #d5dee3; stroke-width: 0.6; stroke-linecap: square"/>
     </g>
     <g id="line2d_13">
      <g>
       <use xlink:href="#m8fd5c3db9d" x="38.808" y="96.297142" style="stroke: #000000; stroke-width: 0.6"/>
      </g>
     </g>
     <g id="text_10">
      <!-- 8 -->
      <g transform="translate(30.693391 98.663231) scale(0.065 -0.065)">
       <use xlink:href="#ArialMT-1b"/>
      </g>
     </g>
    </g>
    <g id="ytick_4">
     <g id="line2d_14">
      <path d="M 38.808 77.777921
L 342.216 77.777921
" clip-path="url(#p2ed8b51924)" style="fill: none; stroke: #d5dee3; stroke-width: 0.6; stroke-linecap: square"/>
     </g>
     <g id="line2d_15">
      <g>
       <use xlink:href="#m8fd5c3db9d" x="38.808" y="77.777921" style="stroke: #000000; stroke-width: 0.6"/>
      </g>
     </g>
     <g id="text_11">
      <!-- 10 -->
      <g transform="translate(27.078781 80.14401) scale(0.065 -0.065)">
       <use xlink:href="#ArialMT-14"/>
       <use xlink:href="#ArialMT-13" transform="translate(55.609375 0)"/>
      </g>
     </g>
    </g>
    <g id="ytick_5">
     <g id="line2d_16">
      <path d="M 38.808 59.258699
L 342.216 59.258699
" clip-path="url(#p2ed8b51924)" style="fill: none; stroke: #d5dee3; stroke-width: 0.6; stroke-linecap: square"/>
     </g>
     <g id="line2d_17">
      <g>
       <use xlink:href="#m8fd5c3db9d" x="38.808" y="59.258699" style="stroke: #000000; stroke-width: 0.6"/>
      </g>
     </g>
     <g id="text_12">
      <!-- 12 -->
      <g transform="translate(27.078781 61.624788) scale(0.065 -0.065)">
       <use xlink:href="#ArialMT-14"/>
       <use xlink:href="#ArialMT-15" transform="translate(55.609375 0)"/>
      </g>
     </g>
    </g>
    <g id="ytick_6">
     <g id="line2d_18">
      <path d="M 38.808 40.739478
L 342.216 40.739478
" clip-path="url(#p2ed8b51924)" style="fill: none; stroke: #d5dee3; stroke-width: 0.6; stroke-linecap: square"/>
     </g>
     <g id="line2d_19">
      <g>
       <use xlink:href="#m8fd5c3db9d" x="38.808" y="40.739478" style="stroke: #000000; stroke-width: 0.6"/>
      </g>
     </g>
     <g id="text_13">
      <!-- 14 -->
      <g transform="translate(27.078781 43.105567) scale(0.065 -0.065)">
       <use xlink:href="#ArialMT-14"/>
       <use xlink:href="#ArialMT-17" transform="translate(55.609375 0)"/>
      </g>
     </g>
    </g>
    <g id="text_14">
     <!-- latency-like metric -->
     <g transform="translate(13.462053 115.101469) rotate(-90) scale(0.07 -0.07)">
      <defs>
       <path id="ArialMT-10" d="M 203 1375
L 203 1941
L 1931 1941
L 1931 1375
L 203 1375
z
" transform="scale(0.015625)"/>
      </defs>
      <use xlink:href="#ArialMT-4f"/>
      <use xlink:href="#ArialMT-44" transform="translate(22.21875 0)"/>
      <use xlink:href="#ArialMT-57" transform="translate(77.828125 0)"/>
      <use xlink:href="#ArialMT-48" transform="translate(105.609375 0)"/>
      <use xlink:href="#ArialMT-51" transform="translate(161.21875 0)"/>
      <use xlink:href="#ArialMT-46" transform="translate(216.828125 0)"/>
      <use xlink:href="#ArialMT-5c" transform="translate(266.828125 0)"/>
      <use xlink:href="#ArialMT-10" transform="translate(316.828125 0)"/>
      <use xlink:href="#ArialMT-4f" transform="translate(350.125 0)"/>
      <use xlink:href="#ArialMT-4c" transform="translate(372.34375 0)"/>
      <use xlink:href="#ArialMT-4e" transform="translate(394.5625 0)"/>
      <use xlink:href="#ArialMT-48" transform="translate(444.5625 0)"/>
      <use xlink:href="#ArialMT-3" transform="translate(500.171875 0)"/>
      <use xlink:href="#ArialMT-50" transform="translate(527.953125 0)"/>
      <use xlink:href="#ArialMT-48" transform="translate(611.25 0)"/>
      <use xlink:href="#ArialMT-57" transform="translate(666.859375 0)"/>
      <use xlink:href="#ArialMT-55" transform="translate(694.640625 0)"/>
      <use xlink:href="#ArialMT-4c" transform="translate(727.9375 0)"/>
      <use xlink:href="#ArialMT-46" transform="translate(750.15625 0)"/>
     </g>
     <!-- (synthetic units) -->
     <g transform="translate(21.080842 111.603109) rotate(-90) scale(0.07 -0.07)">
      <use xlink:href="#ArialMT-b"/>
      <use xlink:href="#ArialMT-56" transform="translate(33.296875 0)"/>
      <use xlink:href="#ArialMT-5c" transform="translate(83.296875 0)"/>
      <use xlink:href="#ArialMT-51" transform="translate(133.296875 0)"/>
      <use xlink:href="#ArialMT-57" transform="translate(188.90625 0)"/>
      <use xlink:href="#ArialMT-4b" transform="translate(216.6875 0)"/>
      <use xlink:href="#ArialMT-48" transform="translate(272.296875 0)"/>
      <use xlink:href="#ArialMT-57" transform="translate(327.90625 0)"/>
      <use xlink:href="#ArialMT-4c" transform="translate(355.6875 0)"/>
      <use xlink:href="#ArialMT-46" transform="translate(377.90625 0)"/>
      <use xlink:href="#ArialMT-3" transform="translate(427.90625 0)"/>
      <use xlink:href="#ArialMT-58" transform="translate(455.6875 0)"/>
      <use xlink:href="#ArialMT-51" transform="translate(511.296875 0)"/>
      <use xlink:href="#ArialMT-4c" transform="translate(566.90625 0)"/>
      <use xlink:href="#ArialMT-57" transform="translate(589.125 0)"/>
      <use xlink:href="#ArialMT-56" transform="translate(616.90625 0)"/>
      <use xlink:href="#ArialMT-c" transform="translate(666.90625 0)"/>
     </g>
    </g>
   </g>
   <g id="line2d_20">
    <path d="M 38.808 133.335585
L 50.1858 126.948468
L 57.01248 123.377385
L 62.32212 120.83607
L 67.63176 118.559768
L 72.18288 116.854897
L 76.734 115.403593
L 80.5266 114.402512
L 84.3192 113.600558
L 88.1118 113.004211
L 91.9044 112.617353
L 95.697 112.441217
L 99.4896 112.47437
L 103.2822 112.712735
L 107.0748 113.149641
L 111.62592 113.922902
L 116.17704 114.948322
L 120.72816 116.200922
L 126.0378 117.910375
L 132.10596 120.12656
L 139.69116 123.162758
L 158.65416 130.887506
L 164.72232 133.048911
L 170.03196 134.695769
L 174.58308 135.88504
L 179.1342 136.839409
L 183.68532 137.535188
L 187.47792 137.903629
L 191.27052 138.070907
L 195.06312 138.03125
L 198.85572 137.7815
L 202.64832 137.321158
L 206.44092 136.652383
L 210.23352 135.779974
L 214.02612 134.711302
L 218.57724 133.183867
L 223.12836 131.409603
L 227.67948 129.414477
L 232.98912 126.847889
L 239.05728 123.66558
L 247.401 119.013012
L 263.32992 110.072397
L 269.39808 106.933911
L 274.70772 104.418472
L 279.25884 102.475707
L 283.80996 100.760669
L 288.36108 99.298247
L 292.15368 98.287321
L 295.94628 97.475127
L 299.73888 96.868275
L 303.53148 96.470778
L 307.32408 96.284005
L 311.11668 96.306657
L 314.90928 96.53479
L 318.70188 96.961862
L 323.253 97.724022
L 327.80412 98.739296
L 332.35524 99.982889
L 337.66488 101.68349
L 342.216 103.317656
L 342.216 103.317656
" clip-path="url(#p2ed8b51924)" style="fill: none; stroke: #1683a6; stroke-width: 1.1; stroke-linecap: square"/>
   </g>
   <g id="line2d_21">
    <path d="M 38.808 133.335585
L 50.1858 126.948468
L 57.01248 123.377385
L 62.32212 120.83607
L 67.63176 118.559768
L 72.18288 116.854897
L 76.734 115.403593
L 80.5266 114.402512
L 84.3192 113.600558
L 88.1118 113.004211
L 91.9044 112.617353
L 95.697 112.441217
L 99.4896 112.47437
L 103.2822 112.712735
L 107.0748 113.149641
L 111.62592 113.922902
L 116.17704 114.948322
L 120.72816 116.200922
L 126.0378 117.910375
L 132.10596 120.12656
L 139.69116 123.162758
L 158.65416 130.887506
L 164.72232 133.048911
L 170.03196 134.695769
L 174.58308 135.88504
L 179.1342 136.839409
L 183.68532 137.535188
L 187.47792 137.903629
L 191.27052 138.070907
L 195.06312 138.03125
L 198.85572 137.7815
L 202.64832 137.321158
L 206.44092 136.652383
L 210.23352 135.779974
L 214.02612 134.711302
L 218.57724 133.183867
L 220.8528 132.326066
L 223.12836 131.009831
L 226.16244 128.949408
L 229.95504 126.081869
L 234.50616 122.320175
L 239.8158 117.592923
L 245.88396 111.86496
L 254.22768 103.648545
L 270.91512 87.142963
L 277.7418 80.751431
L 283.80996 75.394315
L 289.1196 71.012431
L 293.67072 67.511846
L 298.22184 64.264391
L 302.77296 61.280909
L 307.32408 58.566627
L 311.8752 56.121118
L 316.42632 53.938351
L 320.97744 52.006837
L 325.52856 50.309874
L 330.07968 48.825879
L 335.38932 47.32875
L 341.45748 45.867105
L 342.216 45.699361
L 342.216 45.699361
" clip-path="url(#p2ed8b51924)" style="fill: none; stroke-dasharray: 3.6,2.7; stroke-dashoffset: 0; stroke: #3e474b; stroke-width: 0.9"/>
   </g>
   <g id="patch_3">
    <path d="M 38.808 148.5216
L 38.808 25.6704
" style="fill: none; stroke: #20252b; stroke-width: 0.7; stroke-linejoin: miter; stroke-linecap: square"/>
   </g>
   <g id="patch_4">
    <path d="M 38.808 148.5216
L 342.216 148.5216
" style="fill: none; stroke: #20252b; stroke-width: 0.7; stroke-linejoin: miter; stroke-linecap: square"/>
   </g>
   <g id="PathCollection_1">
    <defs>
     <path id="mcc5bd06bae" d="M 0 1.5
C 0.397805 1.5 0.77937 1.341951 1.06066 1.06066
C 1.341951 0.77937 1.5 0.397805 1.5 0
C 1.5 -0.397805 1.341951 -0.77937 1.06066 -1.06066
C 0.77937 -1.341951 0.397805 -1.5 0 -1.5
C -0.397805 -1.5 -0.77937 -1.341951 -1.06066 -1.06066
C -1.341951 -0.77937 -1.5 -0.397805 -1.5 0
C -1.5 0.397805 -1.341951 0.77937 -1.06066 1.06066
C -0.77937 1.341951 -0.397805 1.5 0 1.5
z
" style="stroke: #1683a6"/>
    </defs>
    <g clip-path="url(#p2ed8b51924)">
     <use xlink:href="#mcc5bd06bae" x="43.35912" y="131.129212" style="fill: #1683a6; stroke: #1683a6"/>
     <use xlink:href="#mcc5bd06bae" x="50.56506" y="127.375355" style="fill: #1683a6; stroke: #1683a6"/>
     <use xlink:href="#mcc5bd06bae" x="57.771" y="122.540387" style="fill: #1683a6; stroke: #1683a6"/>
     <use xlink:href="#mcc5bd06bae" x="64.97694" y="119.776608" style="fill: #1683a6; stroke: #1683a6"/>
     <use xlink:href="#mcc5bd06bae" x="72.18288" y="112.376503" style="fill: #1683a6; stroke: #1683a6"/>
     <use xlink:href="#mcc5bd06bae" x="79.38882" y="119.901779" style="fill: #1683a6; stroke: #1683a6"/>
     <use xlink:href="#mcc5bd06bae" x="86.59476" y="110.664953" style="fill: #1683a6; stroke: #1683a6"/>
     <use xlink:href="#mcc5bd06bae" x="93.8007" y="108.500547" style="fill: #1683a6; stroke: #1683a6"/>
     <use xlink:href="#mcc5bd06bae" x="101.00664" y="108.157716" style="fill: #1683a6; stroke: #1683a6"/>
     <use xlink:href="#mcc5bd06bae" x="108.21258" y="112.851758" style="fill: #1683a6; stroke: #1683a6"/>
     <use xlink:href="#mcc5bd06bae" x="115.41852" y="109.927252" style="fill: #1683a6; stroke: #1683a6"/>
     <use xlink:href="#mcc5bd06bae" x="122.62446" y="113.306871" style="fill: #1683a6; stroke: #1683a6"/>
     <use xlink:href="#mcc5bd06bae" x="129.8304" y="123.516567" style="fill: #1683a6; stroke: #1683a6"/>
     <use xlink:href="#mcc5bd06bae" x="137.03634" y="123.216654" style="fill: #1683a6; stroke: #1683a6"/>
     <use xlink:href="#mcc5bd06bae" x="144.24228" y="125.462782" style="fill: #1683a6; stroke: #1683a6"/>
     <use xlink:href="#mcc5bd06bae" x="151.44822" y="125.051752" style="fill: #1683a6; stroke: #1683a6"/>
     <use xlink:href="#mcc5bd06bae" x="158.65416" y="138.855569" style="fill: #1683a6; stroke: #1683a6"/>
     <use xlink:href="#mcc5bd06bae" x="165.8601" y="136.174004" style="fill: #1683a6; stroke: #1683a6"/>
     <use xlink:href="#mcc5bd06bae" x="173.06604" y="137.636149" style="fill: #1683a6; stroke: #1683a6"/>
     <use xlink:href="#mcc5bd06bae" x="180.27198" y="137.312893" style="fill: #1683a6; stroke: #1683a6"/>
     <use xlink:href="#mcc5bd06bae" x="187.47792" y="136.458016" style="fill: #1683a6; stroke: #1683a6"/>
     <use xlink:href="#mcc5bd06bae" x="194.68386" y="140.534361" style="fill: #1683a6; stroke: #1683a6"/>
     <use xlink:href="#mcc5bd06bae" x="201.8898" y="137.722953" style="fill: #1683a6; stroke: #1683a6"/>
     <use xlink:href="#mcc5bd06bae" x="209.09574" y="132.145108" style="fill: #1683a6; stroke: #1683a6"/>
     <use xlink:href="#mcc5bd06bae" x="216.30168" y="136.711075" style="fill: #1683a6; stroke: #1683a6"/>
    </g>
   </g>
   <g id="PathCollection_2">
    <g clip-path="url(#p2ed8b51924)">
     <use xlink:href="#mcc5bd06bae" x="225.40392" y="127.56" style="fill: #1683a6; stroke: #1683a6"/>
     <use xlink:href="#mcc5bd06bae" x="230.08146" y="126.13292" style="fill: #1683a6; stroke: #1683a6"/>
     <use xlink:href="#mcc5bd06bae" x="234.759" y="121.337829" style="fill: #1683a6; stroke: #1683a6"/>
     <use xlink:href="#mcc5bd06bae" x="239.43654" y="119.400398" style="fill: #1683a6; stroke: #1683a6"/>
    </g>
   </g>
   <g id="PathCollection_3">
    <defs>
     <path id="ma650cfeff1" d="M 0 1.658312
C 0.43979 1.658312 0.861626 1.483582 1.172604 1.172604
C 1.483582 0.861626 1.658312 0.43979 1.658312 0
C 1.658312 -0.43979 1.483582 -0.861626 1.172604 -1.172604
C 0.861626 -1.483582 0.43979 -1.658312 0 -1.658312
C -0.43979 -1.658312 -0.861626 -1.483582 -1.172604 -1.172604
C -1.483582 -0.861626 -1.658312 -0.43979 -1.658312 0
C -1.658312 0.43979 -1.483582 0.861626 -1.172604 1.172604
C -0.861626 1.483582 -0.43979 1.658312 0 1.658312
z
" style="stroke: #de3d3c"/>
    </defs>
    <g clip-path="url(#p2ed8b51924)">
     <use xlink:href="#ma650cfeff1" x="244.11408" y="109.266308" style="fill: #de3d3c; stroke: #de3d3c"/>
     <use xlink:href="#ma650cfeff1" x="248.79162" y="105.89276" style="fill: #de3d3c; stroke: #de3d3c"/>
     <use xlink:href="#ma650cfeff1" x="253.46916" y="102.387784" style="fill: #de3d3c; stroke: #de3d3c"/>
     <use xlink:href="#ma650cfeff1" x="258.1467" y="101.681913" style="fill: #de3d3c; stroke: #de3d3c"/>
     <use xlink:href="#ma650cfeff1" x="262.82424" y="96.020897" style="fill: #de3d3c; stroke: #de3d3c"/>
     <use xlink:href="#ma650cfeff1" x="267.50178" y="93.289594" style="fill: #de3d3c; stroke: #de3d3c"/>
     <use xlink:href="#ma650cfeff1" x="272.17932" y="78.958255" style="fill: #de3d3c; stroke: #de3d3c"/>
     <use xlink:href="#ma650cfeff1" x="276.85686" y="79.021059" style="fill: #de3d3c; stroke: #de3d3c"/>
     <use xlink:href="#ma650cfeff1" x="281.5344" y="84.364781" style="fill: #de3d3c; stroke: #de3d3c"/>
     <use xlink:href="#ma650cfeff1" x="286.21194" y="76.603378" style="fill: #de3d3c; stroke: #de3d3c"/>
     <use xlink:href="#ma650cfeff1" x="290.88948" y="68.345824" style="fill: #de3d3c; stroke: #de3d3c"/>
     <use xlink:href="#ma650cfeff1" x="295.56702" y="65.802943" style="fill: #de3d3c; stroke: #de3d3c"/>
     <use xlink:href="#ma650cfeff1" x="300.24456" y="67.877126" style="fill: #de3d3c; stroke: #de3d3c"/>
     <use xlink:href="#ma650cfeff1" x="304.9221" y="59.379079" style="fill: #de3d3c; stroke: #de3d3c"/>
     <use xlink:href="#ma650cfeff1" x="309.59964" y="55.213969" style="fill: #de3d3c; stroke: #de3d3c"/>
     <use xlink:href="#ma650cfeff1" x="314.27718" y="54.189688" style="fill: #de3d3c; stroke: #de3d3c"/>
     <use xlink:href="#ma650cfeff1" x="318.95472" y="50.672643" style="fill: #de3d3c; stroke: #de3d3c"/>
     <use xlink:href="#ma650cfeff1" x="323.63226" y="48.10218" style="fill: #de3d3c; stroke: #de3d3c"/>
     <use xlink:href="#ma650cfeff1" x="328.3098" y="51.763081" style="fill: #de3d3c; stroke: #de3d3c"/>
     <use xlink:href="#ma650cfeff1" x="332.98734" y="48.469002" style="fill: #de3d3c; stroke: #de3d3c"/>
     <use xlink:href="#ma650cfeff1" x="337.66488" y="41.861009" style="fill: #de3d3c; stroke: #de3d3c"/>
    </g>
   </g>
   <g id="text_15">
    <!-- calibrated support -->
    <g style="fill: #136680" transform="translate(103.661494 33.279428) scale(0.06 -0.06)">
     <defs>
      <path id="Arial-BoldMT-46" d="M 3353 2338
L 2488 2181
Q 2444 2441 2289 2572
Q 2134 2703 1888 2703
Q 1559 2703 1364 2476
Q 1169 2250 1169 1719
Q 1169 1128 1367 884
Q 1566 641 1900 641
Q 2150 641 2309 783
Q 2469 925 2534 1272
L 3397 1125
Q 3263 531 2881 228
Q 2500 -75 1859 -75
Q 1131 -75 698 384
Q 266 844 266 1656
Q 266 2478 700 2936
Q 1134 3394 1875 3394
Q 2481 3394 2839 3133
Q 3197 2872 3353 2338
z
" transform="scale(0.015625)"/>
      <path id="Arial-BoldMT-44" d="M 1116 2306
L 319 2450
Q 453 2931 781 3162
Q 1109 3394 1756 3394
Q 2344 3394 2631 3255
Q 2919 3116 3036 2902
Q 3153 2688 3153 2116
L 3144 1091
Q 3144 653 3186 445
Q 3228 238 3344 0
L 2475 0
Q 2441 88 2391 259
Q 2369 338 2359 363
Q 2134 144 1878 34
Q 1622 -75 1331 -75
Q 819 -75 523 203
Q 228 481 228 906
Q 228 1188 362 1408
Q 497 1628 739 1745
Q 981 1863 1438 1950
Q 2053 2066 2291 2166
L 2291 2253
Q 2291 2506 2166 2614
Q 2041 2722 1694 2722
Q 1459 2722 1328 2630
Q 1197 2538 1116 2306
z
M 2291 1594
Q 2122 1538 1756 1459
Q 1391 1381 1278 1306
Q 1106 1184 1106 997
Q 1106 813 1243 678
Q 1381 544 1594 544
Q 1831 544 2047 700
Q 2206 819 2256 991
Q 2291 1103 2291 1419
L 2291 1594
z
" transform="scale(0.015625)"/>
      <path id="Arial-BoldMT-4f" d="M 459 0
L 459 4581
L 1338 4581
L 1338 0
L 459 0
z
" transform="scale(0.015625)"/>
      <path id="Arial-BoldMT-4c" d="M 459 3769
L 459 4581
L 1338 4581
L 1338 3769
L 459 3769
z
M 459 0
L 459 3319
L 1338 3319
L 1338 0
L 459 0
z
" transform="scale(0.015625)"/>
      <path id="Arial-BoldMT-45" d="M 422 0
L 422 4581
L 1300 4581
L 1300 2931
Q 1706 3394 2263 3394
Q 2869 3394 3266 2955
Q 3663 2516 3663 1694
Q 3663 844 3258 384
Q 2853 -75 2275 -75
Q 1991 -75 1714 67
Q 1438 209 1238 488
L 1238 0
L 422 0
z
M 1294 1731
Q 1294 1216 1456 969
Q 1684 619 2063 619
Q 2353 619 2558 867
Q 2763 1116 2763 1650
Q 2763 2219 2556 2470
Q 2350 2722 2028 2722
Q 1713 2722 1503 2476
Q 1294 2231 1294 1731
z
" transform="scale(0.015625)"/>
      <path id="Arial-BoldMT-55" d="M 1300 0
L 422 0
L 422 3319
L 1238 3319
L 1238 2847
Q 1447 3181 1614 3287
Q 1781 3394 1994 3394
Q 2294 3394 2572 3228
L 2300 2463
Q 2078 2606 1888 2606
Q 1703 2606 1575 2504
Q 1447 2403 1373 2137
Q 1300 1872 1300 1025
L 1300 0
z
" transform="scale(0.015625)"/>
      <path id="Arial-BoldMT-57" d="M 1981 3319
L 1981 2619
L 1381 2619
L 1381 1281
Q 1381 875 1398 808
Q 1416 741 1477 697
Q 1538 653 1625 653
Q 1747 653 1978 738
L 2053 56
Q 1747 -75 1359 -75
Q 1122 -75 931 4
Q 741 84 652 211
Q 563 338 528 553
Q 500 706 500 1172
L 500 2619
L 97 2619
L 97 3319
L 500 3319
L 500 3978
L 1381 4491
L 1381 3319
L 1981 3319
z
" transform="scale(0.015625)"/>
      <path id="Arial-BoldMT-48" d="M 2381 1056
L 3256 909
Q 3088 428 2723 176
Q 2359 -75 1813 -75
Q 947 -75 531 491
Q 203 944 203 1634
Q 203 2459 634 2926
Q 1066 3394 1725 3394
Q 2466 3394 2894 2905
Q 3322 2416 3303 1406
L 1103 1406
Q 1113 1016 1316 798
Q 1519 581 1822 581
Q 2028 581 2168 693
Q 2309 806 2381 1056
z
M 2431 1944
Q 2422 2325 2234 2523
Q 2047 2722 1778 2722
Q 1491 2722 1303 2513
Q 1116 2303 1119 1944
L 2431 1944
z
" transform="scale(0.015625)"/>
      <path id="Arial-BoldMT-47" d="M 3503 0
L 2688 0
L 2688 488
Q 2484 203 2207 64
Q 1931 -75 1650 -75
Q 1078 -75 670 386
Q 263 847 263 1672
Q 263 2516 659 2955
Q 1056 3394 1663 3394
Q 2219 3394 2625 2931
L 2625 4581
L 3503 4581
L 3503 0
z
M 1159 1731
Q 1159 1200 1306 963
Q 1519 619 1900 619
Q 2203 619 2415 876
Q 2628 1134 2628 1647
Q 2628 2219 2422 2470
Q 2216 2722 1894 2722
Q 1581 2722 1370 2473
Q 1159 2225 1159 1731
z
" transform="scale(0.015625)"/>
      <path id="Arial-BoldMT-3" transform="scale(0.015625)"/>
      <path id="Arial-BoldMT-56" d="M 150 947
L 1031 1081
Q 1088 825 1259 692
Q 1431 559 1741 559
Q 2081 559 2253 684
Q 2369 772 2369 919
Q 2369 1019 2306 1084
Q 2241 1147 2013 1200
Q 950 1434 666 1628
Q 272 1897 272 2375
Q 272 2806 612 3100
Q 953 3394 1669 3394
Q 2350 3394 2681 3172
Q 3013 2950 3138 2516
L 2309 2363
Q 2256 2556 2107 2659
Q 1959 2763 1684 2763
Q 1338 2763 1188 2666
Q 1088 2597 1088 2488
Q 1088 2394 1175 2328
Q 1294 2241 1995 2081
Q 2697 1922 2975 1691
Q 3250 1456 3250 1038
Q 3250 581 2869 253
Q 2488 -75 1741 -75
Q 1063 -75 667 200
Q 272 475 150 947
z
" transform="scale(0.015625)"/>
      <path id="Arial-BoldMT-58" d="M 2644 0
L 2644 497
Q 2463 231 2167 78
Q 1872 -75 1544 -75
Q 1209 -75 943 72
Q 678 219 559 484
Q 441 750 441 1219
L 441 3319
L 1319 3319
L 1319 1794
Q 1319 1094 1367 936
Q 1416 778 1544 686
Q 1672 594 1869 594
Q 2094 594 2272 717
Q 2450 841 2515 1023
Q 2581 1206 2581 1919
L 2581 3319
L 3459 3319
L 3459 0
L 2644 0
z
" transform="scale(0.015625)"/>
      <path id="Arial-BoldMT-53" d="M 434 3319
L 1253 3319
L 1253 2831
Q 1413 3081 1684 3237
Q 1956 3394 2288 3394
Q 2866 3394 3269 2941
Q 3672 2488 3672 1678
Q 3672 847 3265 386
Q 2859 -75 2281 -75
Q 2006 -75 1782 34
Q 1559 144 1313 409
L 1313 -1263
L 434 -1263
L 434 3319
z
M 1303 1716
Q 1303 1156 1525 889
Q 1747 622 2066 622
Q 2372 622 2575 867
Q 2778 1113 2778 1672
Q 2778 2194 2568 2447
Q 2359 2700 2050 2700
Q 1728 2700 1515 2451
Q 1303 2203 1303 1716
z
" transform="scale(0.015625)"/>
      <path id="Arial-BoldMT-52" d="M 256 1706
Q 256 2144 472 2553
Q 688 2963 1083 3178
Q 1478 3394 1966 3394
Q 2719 3394 3200 2905
Q 3681 2416 3681 1669
Q 3681 916 3195 420
Q 2709 -75 1972 -75
Q 1516 -75 1102 131
Q 688 338 472 736
Q 256 1134 256 1706
z
M 1156 1659
Q 1156 1166 1390 903
Q 1625 641 1969 641
Q 2313 641 2545 903
Q 2778 1166 2778 1666
Q 2778 2153 2545 2415
Q 2313 2678 1969 2678
Q 1625 2678 1390 2415
Q 1156 2153 1156 1659
z
" transform="scale(0.015625)"/>
     </defs>
     <use xlink:href="#Arial-BoldMT-46"/>
     <use xlink:href="#Arial-BoldMT-44" transform="translate(55.609375 0)"/>
     <use xlink:href="#Arial-BoldMT-4f" transform="translate(111.21875 0)"/>
     <use xlink:href="#Arial-BoldMT-4c" transform="translate(139 0)"/>
     <use xlink:href="#Arial-BoldMT-45" transform="translate(166.78125 0)"/>
     <use xlink:href="#Arial-BoldMT-55" transform="translate(227.859375 0)"/>
     <use xlink:href="#Arial-BoldMT-44" transform="translate(266.78125 0)"/>
     <use xlink:href="#Arial-BoldMT-57" transform="translate(322.390625 0)"/>
     <use xlink:href="#Arial-BoldMT-48" transform="translate(355.6875 0)"/>
     <use xlink:href="#Arial-BoldMT-47" transform="translate(411.296875 0)"/>
     <use xlink:href="#Arial-BoldMT-3" transform="translate(472.375 0)"/>
     <use xlink:href="#Arial-BoldMT-56" transform="translate(500.15625 0)"/>
     <use xlink:href="#Arial-BoldMT-58" transform="translate(555.765625 0)"/>
     <use xlink:href="#Arial-BoldMT-53" transform="translate(616.84375 0)"/>
     <use xlink:href="#Arial-BoldMT-53" transform="translate(677.921875 0)"/>
     <use xlink:href="#Arial-BoldMT-52" transform="translate(739 0)"/>
     <use xlink:href="#Arial-BoldMT-55" transform="translate(800.078125 0)"/>
     <use xlink:href="#Arial-BoldMT-57" transform="translate(839 0)"/>
    </g>
   </g>
   <g id="text_16">
    <!-- workload shift to XR tracking -->
    <g style="fill: #c62a2a" transform="translate(240.032213 33.279428) scale(0.06 -0.06)">
     <defs>
      <path id="Arial-BoldMT-5a" d="M 1078 0
L 28 3319
L 881 3319
L 1503 1144
L 2075 3319
L 2922 3319
L 3475 1144
L 4109 3319
L 4975 3319
L 3909 0
L 3066 0
L 2494 2134
L 1931 0
L 1078 0
z
" transform="scale(0.015625)"/>
      <path id="Arial-BoldMT-4e" d="M 428 0
L 428 4581
L 1306 4581
L 1306 2150
L 2334 3319
L 3416 3319
L 2281 2106
L 3497 0
L 2550 0
L 1716 1491
L 1306 1063
L 1306 0
L 428 0
z
" transform="scale(0.015625)"/>
      <path id="Arial-BoldMT-4b" d="M 1334 4581
L 1334 2897
Q 1759 3394 2350 3394
Q 2653 3394 2897 3281
Q 3141 3169 3264 2994
Q 3388 2819 3433 2606
Q 3478 2394 3478 1947
L 3478 0
L 2600 0
L 2600 1753
Q 2600 2275 2550 2415
Q 2500 2556 2373 2639
Q 2247 2722 2056 2722
Q 1838 2722 1666 2615
Q 1494 2509 1414 2295
Q 1334 2081 1334 1663
L 1334 0
L 456 0
L 456 4581
L 1334 4581
z
" transform="scale(0.015625)"/>
      <path id="Arial-BoldMT-49" d="M 75 3319
L 563 3319
L 563 3569
Q 563 3988 652 4194
Q 741 4400 980 4529
Q 1219 4659 1584 4659
Q 1959 4659 2319 4547
L 2200 3934
Q 1991 3984 1797 3984
Q 1606 3984 1523 3895
Q 1441 3806 1441 3553
L 1441 3319
L 2097 3319
L 2097 2628
L 1441 2628
L 1441 0
L 563 0
L 563 2628
L 75 2628
L 75 3319
z
" transform="scale(0.015625)"/>
      <path id="Arial-BoldMT-3b" d="M 0 0
L 1566 2391
L 147 4581
L 1228 4581
L 2147 3109
L 3047 4581
L 4119 4581
L 2694 2356
L 4259 0
L 3144 0
L 2128 1584
L 1109 0
L 0 0
z
" transform="scale(0.015625)"/>
      <path id="Arial-BoldMT-35" d="M 469 0
L 469 4581
L 2416 4581
Q 3150 4581 3483 4457
Q 3816 4334 4016 4018
Q 4216 3703 4216 3297
Q 4216 2781 3912 2445
Q 3609 2109 3006 2022
Q 3306 1847 3501 1637
Q 3697 1428 4028 894
L 4588 0
L 3481 0
L 2813 997
Q 2456 1531 2325 1670
Q 2194 1809 2047 1861
Q 1900 1913 1581 1913
L 1394 1913
L 1394 0
L 469 0
z
M 1394 2644
L 2078 2644
Q 2744 2644 2909 2700
Q 3075 2756 3169 2893
Q 3263 3031 3263 3238
Q 3263 3469 3139 3611
Q 3016 3753 2791 3791
Q 2678 3806 2116 3806
L 1394 3806
L 1394 2644
z
" transform="scale(0.015625)"/>
      <path id="Arial-BoldMT-51" d="M 3478 0
L 2600 0
L 2600 1694
Q 2600 2231 2544 2389
Q 2488 2547 2361 2634
Q 2234 2722 2056 2722
Q 1828 2722 1647 2597
Q 1466 2472 1398 2265
Q 1331 2059 1331 1503
L 1331 0
L 453 0
L 453 3319
L 1269 3319
L 1269 2831
Q 1703 3394 2363 3394
Q 2653 3394 2893 3289
Q 3134 3184 3257 3021
Q 3381 2859 3429 2653
Q 3478 2447 3478 2063
L 3478 0
z
" transform="scale(0.015625)"/>
      <path id="Arial-BoldMT-4a" d="M 378 -219
L 1381 -341
Q 1406 -516 1497 -581
Q 1622 -675 1891 -675
Q 2234 -675 2406 -572
Q 2522 -503 2581 -350
Q 2622 -241 2622 53
L 2622 538
Q 2228 0 1628 0
Q 959 0 569 566
Q 263 1013 263 1678
Q 263 2513 664 2953
Q 1066 3394 1663 3394
Q 2278 3394 2678 2853
L 2678 3319
L 3500 3319
L 3500 341
Q 3500 -247 3403 -537
Q 3306 -828 3131 -993
Q 2956 -1159 2664 -1253
Q 2372 -1347 1925 -1347
Q 1081 -1347 728 -1058
Q 375 -769 375 -325
Q 375 -281 378 -219
z
M 1163 1728
Q 1163 1200 1367 954
Q 1572 709 1872 709
Q 2194 709 2416 961
Q 2638 1213 2638 1706
Q 2638 2222 2425 2472
Q 2213 2722 1888 2722
Q 1572 2722 1367 2476
Q 1163 2231 1163 1728
z
" transform="scale(0.015625)"/>
     </defs>
     <use xlink:href="#Arial-BoldMT-5a"/>
     <use xlink:href="#Arial-BoldMT-52" transform="translate(77.78125 0)"/>
     <use xlink:href="#Arial-BoldMT-55" transform="translate(138.859375 0)"/>
     <use xlink:href="#Arial-BoldMT-4e" transform="translate(177.78125 0)"/>
     <use xlink:href="#Arial-BoldMT-4f" transform="translate(233.390625 0)"/>
     <use xlink:href="#Arial-BoldMT-52" transform="translate(261.171875 0)"/>
     <use xlink:href="#Arial-BoldMT-44" transform="translate(322.25 0)"/>
     <use xlink:href="#Arial-BoldMT-47" transform="translate(377.859375 0)"/>
     <use xlink:href="#Arial-BoldMT-3" transform="translate(438.9375 0)"/>
     <use xlink:href="#Arial-BoldMT-56" transform="translate(466.71875 0)"/>
     <use xlink:href="#Arial-BoldMT-4b" transform="translate(522.328125 0)"/>
     <use xlink:href="#Arial-BoldMT-4c" transform="translate(583.40625 0)"/>
     <use xlink:href="#Arial-BoldMT-49" transform="translate(611.1875 0)"/>
     <use xlink:href="#Arial-BoldMT-57" transform="translate(644.484375 0)"/>
     <use xlink:href="#Arial-BoldMT-3" transform="translate(677.78125 0)"/>
     <use xlink:href="#Arial-BoldMT-57" transform="translate(705.5625 0)"/>
     <use xlink:href="#Arial-BoldMT-52" transform="translate(738.859375 0)"/>
     <use xlink:href="#Arial-BoldMT-3" transform="translate(799.9375 0)"/>
     <use xlink:href="#Arial-BoldMT-3b" transform="translate(827.71875 0)"/>
     <use xlink:href="#Arial-BoldMT-35" transform="translate(894.421875 0)"/>
     <use xlink:href="#Arial-BoldMT-3" transform="translate(966.640625 0)"/>
     <use xlink:href="#Arial-BoldMT-57" transform="translate(994.421875 0)"/>
     <use xlink:href="#Arial-BoldMT-55" transform="translate(1027.71875 0)"/>
     <use xlink:href="#Arial-BoldMT-44" transform="translate(1066.640625 0)"/>
     <use xlink:href="#Arial-BoldMT-46" transform="translate(1122.25 0)"/>
     <use xlink:href="#Arial-BoldMT-4e" transform="translate(1177.859375 0)"/>
     <use xlink:href="#Arial-BoldMT-4c" transform="translate(1233.46875 0)"/>
     <use xlink:href="#Arial-BoldMT-51" transform="translate(1261.25 0)"/>
     <use xlink:href="#Arial-BoldMT-4a" transform="translate(1322.328125 0)"/>
    </g>
   </g>
   <g id="text_17">
    <!-- empirical coverage ≈ 96% -->
    <g style="fill: #136680" transform="translate(98.785884 40.655036) scale(0.054 -0.054)">
     <defs>
      <path id="ArialMT-59" d="M 1344 0
L 81 3319
L 675 3319
L 1388 1331
Q 1503 1009 1600 663
Q 1675 925 1809 1294
L 2547 3319
L 3125 3319
L 1869 0
L 1344 0
z
" transform="scale(0.015625)"/>
      <path id="ArialMT-a7" d="M 159 2306
L 159 2947
Q 491 3322 1028 3322
Q 1216 3322 1420 3269
Q 1625 3216 2009 3050
Q 2225 2956 2333 2929
Q 2441 2903 2550 2903
Q 2753 2903 2970 3025
Q 3188 3147 3356 3331
L 3356 2669
Q 3156 2481 2951 2397
Q 2747 2313 2491 2313
Q 2303 2313 2134 2355
Q 1966 2397 1594 2564
Q 1222 2731 975 2731
Q 775 2731 598 2645
Q 422 2559 159 2306
z
M 159 1175
L 159 1816
Q 491 2191 1028 2191
Q 1216 2191 1420 2137
Q 1625 2084 2009 1919
Q 2225 1828 2333 1800
Q 2441 1772 2550 1772
Q 2753 1772 2970 1894
Q 3188 2016 3356 2200
L 3356 1538
Q 3156 1350 2951 1265
Q 2747 1181 2491 1181
Q 2303 1181 2134 1225
Q 1966 1269 1594 1434
Q 1222 1600 975 1600
Q 775 1600 598 1514
Q 422 1428 159 1175
z
" transform="scale(0.015625)"/>
      <path id="ArialMT-1c" d="M 350 1059
L 891 1109
Q 959 728 1153 556
Q 1347 384 1650 384
Q 1909 384 2104 503
Q 2300 622 2425 820
Q 2550 1019 2634 1356
Q 2719 1694 2719 2044
Q 2719 2081 2716 2156
Q 2547 1888 2255 1720
Q 1963 1553 1622 1553
Q 1053 1553 659 1965
Q 266 2378 266 3053
Q 266 3750 677 4175
Q 1088 4600 1706 4600
Q 2153 4600 2523 4359
Q 2894 4119 3086 3673
Q 3278 3228 3278 2384
Q 3278 1506 3087 986
Q 2897 466 2520 194
Q 2144 -78 1638 -78
Q 1100 -78 759 220
Q 419 519 350 1059
z
M 2653 3081
Q 2653 3566 2395 3850
Q 2138 4134 1775 4134
Q 1400 4134 1122 3828
Q 844 3522 844 3034
Q 844 2597 1108 2323
Q 1372 2050 1759 2050
Q 2150 2050 2401 2323
Q 2653 2597 2653 3081
z
" transform="scale(0.015625)"/>
      <path id="ArialMT-8" d="M 372 3481
Q 372 3972 619 4315
Q 866 4659 1334 4659
Q 1766 4659 2048 4351
Q 2331 4044 2331 3447
Q 2331 2866 2045 2552
Q 1759 2238 1341 2238
Q 925 2238 648 2547
Q 372 2856 372 3481
z
M 1350 4272
Q 1141 4272 1002 4090
Q 863 3909 863 3425
Q 863 2984 1003 2804
Q 1144 2625 1350 2625
Q 1563 2625 1702 2806
Q 1841 2988 1841 3469
Q 1841 3913 1700 4092
Q 1559 4272 1350 4272
z
M 1353 -169
L 3859 4659
L 4316 4659
L 1819 -169
L 1353 -169
z
M 3334 1075
Q 3334 1569 3581 1911
Q 3828 2253 4300 2253
Q 4731 2253 5014 1945
Q 5297 1638 5297 1041
Q 5297 459 5011 145
Q 4725 -169 4303 -169
Q 3888 -169 3611 142
Q 3334 453 3334 1075
z
M 4316 1866
Q 4103 1866 3964 1684
Q 3825 1503 3825 1019
Q 3825 581 3965 400
Q 4106 219 4313 219
Q 4528 219 4667 400
Q 4806 581 4806 1063
Q 4806 1506 4665 1686
Q 4525 1866 4316 1866
z
" transform="scale(0.015625)"/>
     </defs>
     <use xlink:href="#ArialMT-48"/>
     <use xlink:href="#ArialMT-50" transform="translate(55.609375 0)"/>
     <use xlink:href="#ArialMT-53" transform="translate(138.90625 0)"/>
     <use xlink:href="#ArialMT-4c" transform="translate(194.515625 0)"/>
     <use xlink:href="#ArialMT-55" transform="translate(216.734375 0)"/>
     <use xlink:href="#ArialMT-4c" transform="translate(250.03125 0)"/>
     <use xlink:href="#ArialMT-46" transform="translate(272.25 0)"/>
     <use xlink:href="#ArialMT-44" transform="translate(322.25 0)"/>
     <use xlink:href="#ArialMT-4f" transform="translate(377.859375 0)"/>
     <use xlink:href="#ArialMT-3" transform="translate(400.078125 0)"/>
     <use xlink:href="#ArialMT-46" transform="translate(427.859375 0)"/>
     <use xlink:href="#ArialMT-52" transform="translate(477.859375 0)"/>
     <use xlink:href="#ArialMT-59" transform="translate(533.46875 0)"/>
     <use xlink:href="#ArialMT-48" transform="translate(583.46875 0)"/>
     <use xlink:href="#ArialMT-55" transform="translate(639.078125 0)"/>
     <use xlink:href="#ArialMT-44" transform="translate(672.375 0)"/>
     <use xlink:href="#ArialMT-4a" transform="translate(727.984375 0)"/>
     <use xlink:href="#ArialMT-48" transform="translate(783.59375 0)"/>
     <use xlink:href="#ArialMT-3" transform="translate(839.203125 0)"/>
     <use xlink:href="#ArialMT-a7" transform="translate(866.984375 0)"/>
     <use xlink:href="#ArialMT-3" transform="translate(921.875 0)"/>
     <use xlink:href="#ArialMT-1c" transform="translate(949.65625 0)"/>
     <use xlink:href="#ArialMT-19" transform="translate(1005.265625 0)"/>
     <use xlink:href="#ArialMT-8" transform="translate(1060.875 0)"/>
    </g>
    <!-- (nominal 90%) -->
    <g style="fill: #136680" transform="translate(112.423837 46.532388) scale(0.054 -0.054)">
     <use xlink:href="#ArialMT-b"/>
     <use xlink:href="#ArialMT-51" transform="translate(33.296875 0)"/>
     <use xlink:href="#ArialMT-52" transform="translate(88.90625 0)"/>
     <use xlink:href="#ArialMT-50" transform="translate(144.515625 0)"/>
     <use xlink:href="#ArialMT-4c" transform="translate(227.8125 0)"/>
     <use xlink:href="#ArialMT-51" transform="translate(250.03125 0)"/>
     <use xlink:href="#ArialMT-44" transform="translate(305.640625 0)"/>
     <use xlink:href="#ArialMT-4f" transform="translate(361.25 0)"/>
     <use xlink:href="#ArialMT-3" transform="translate(383.46875 0)"/>
     <use xlink:href="#ArialMT-1c" transform="translate(411.25 0)"/>
     <use xlink:href="#ArialMT-13" transform="translate(466.859375 0)"/>
     <use xlink:href="#ArialMT-8" transform="translate(522.46875 0)"/>
     <use xlink:href="#ArialMT-c" transform="translate(611.390625 0)"/>
    </g>
   </g>
   <g id="text_18">
    <!-- same band width, -->
    <g style="fill: #c62a2a" transform="translate(260.373572 40.655036) scale(0.054 -0.054)">
     <defs>
      <path id="ArialMT-45" d="M 941 0
L 419 0
L 419 4581
L 981 4581
L 981 2947
Q 1338 3394 1891 3394
Q 2197 3394 2470 3270
Q 2744 3147 2920 2923
Q 3097 2700 3197 2384
Q 3297 2069 3297 1709
Q 3297 856 2875 390
Q 2453 -75 1863 -75
Q 1275 -75 941 416
L 941 0
z
M 934 1684
Q 934 1088 1097 822
Q 1363 388 1816 388
Q 2184 388 2453 708
Q 2722 1028 2722 1663
Q 2722 2313 2464 2622
Q 2206 2931 1841 2931
Q 1472 2931 1203 2611
Q 934 2291 934 1684
z
" transform="scale(0.015625)"/>
      <path id="ArialMT-f" d="M 569 0
L 569 641
L 1209 641
L 1209 0
Q 1209 -353 1084 -570
Q 959 -788 688 -906
L 531 -666
Q 709 -588 793 -436
Q 878 -284 888 0
L 569 0
z
" transform="scale(0.015625)"/>
     </defs>
     <use xlink:href="#ArialMT-56"/>
     <use xlink:href="#ArialMT-44" transform="translate(50 0)"/>
     <use xlink:href="#ArialMT-50" transform="translate(105.609375 0)"/>
     <use xlink:href="#ArialMT-48" transform="translate(188.90625 0)"/>
     <use xlink:href="#ArialMT-3" transform="translate(244.515625 0)"/>
     <use xlink:href="#ArialMT-45" transform="translate(272.296875 0)"/>
     <use xlink:href="#ArialMT-44" transform="translate(327.90625 0)"/>
     <use xlink:href="#ArialMT-51" transform="translate(383.515625 0)"/>
     <use xlink:href="#ArialMT-47" transform="translate(439.125 0)"/>
     <use xlink:href="#ArialMT-3" transform="translate(494.734375 0)"/>
     <use xlink:href="#ArialMT-5a" transform="translate(522.515625 0)"/>
     <use xlink:href="#ArialMT-4c" transform="translate(594.734375 0)"/>
     <use xlink:href="#ArialMT-47" transform="translate(616.953125 0)"/>
     <use xlink:href="#ArialMT-57" transform="translate(672.5625 0)"/>
     <use xlink:href="#ArialMT-4b" transform="translate(700.34375 0)"/>
     <use xlink:href="#ArialMT-f" transform="translate(755.953125 0)"/>
    </g>
    <!-- coverage ≈ 16% -->
    <g style="fill: #c62a2a" transform="translate(262.042087 46.532282) scale(0.054 -0.054)">
     <use xlink:href="#ArialMT-46"/>
     <use xlink:href="#ArialMT-52" transform="translate(50 0)"/>
     <use xlink:href="#ArialMT-59" transform="translate(105.609375 0)"/>
     <use xlink:href="#ArialMT-48" transform="translate(155.609375 0)"/>
     <use xlink:href="#ArialMT-55" transform="translate(211.21875 0)"/>
     <use xlink:href="#ArialMT-44" transform="translate(244.515625 0)"/>
     <use xlink:href="#ArialMT-4a" transform="translate(300.125 0)"/>
     <use xlink:href="#ArialMT-48" transform="translate(355.734375 0)"/>
     <use xlink:href="#ArialMT-3" transform="translate(411.34375 0)"/>
     <use xlink:href="#ArialMT-a7" transform="translate(439.125 0)"/>
     <use xlink:href="#ArialMT-3" transform="translate(494.015625 0)"/>
     <use xlink:href="#ArialMT-14" transform="translate(521.796875 0)"/>
     <use xlink:href="#ArialMT-19" transform="translate(577.40625 0)"/>
     <use xlink:href="#ArialMT-8" transform="translate(633.015625 0)"/>
    </g>
   </g>
   <g id="text_19">
    <!-- surrogate ± conformal band -->
    <g style="fill: #136680" transform="translate(88.38736 102.384408) scale(0.056 -0.056)">
     <defs>
      <path id="ArialMT-93" d="M 1491 813
L 1491 2072
L 244 2072
L 244 2594
L 1491 2594
L 1491 3841
L 2022 3841
L 2022 2594
L 3269 2594
L 3269 2072
L 2022 2072
L 2022 813
L 1491 813
z
M 3269 0
L 244 0
L 244 525
L 3269 525
L 3269 0
z
" transform="scale(0.015625)"/>
      <path id="ArialMT-49" d="M 556 0
L 556 2881
L 59 2881
L 59 3319
L 556 3319
L 556 3672
Q 556 4006 616 4169
Q 697 4388 901 4523
Q 1106 4659 1475 4659
Q 1713 4659 2000 4603
L 1916 4113
Q 1741 4144 1584 4144
Q 1328 4144 1222 4034
Q 1116 3925 1116 3625
L 1116 3319
L 1763 3319
L 1763 2881
L 1116 2881
L 1116 0
L 556 0
z
" transform="scale(0.015625)"/>
     </defs>
     <use xlink:href="#ArialMT-56"/>
     <use xlink:href="#ArialMT-58" transform="translate(50 0)"/>
     <use xlink:href="#ArialMT-55" transform="translate(105.609375 0)"/>
     <use xlink:href="#ArialMT-55" transform="translate(138.90625 0)"/>
     <use xlink:href="#ArialMT-52" transform="translate(172.203125 0)"/>
     <use xlink:href="#ArialMT-4a" transform="translate(227.8125 0)"/>
     <use xlink:href="#ArialMT-44" transform="translate(283.421875 0)"/>
     <use xlink:href="#ArialMT-57" transform="translate(339.03125 0)"/>
     <use xlink:href="#ArialMT-48" transform="translate(366.8125 0)"/>
     <use xlink:href="#ArialMT-3" transform="translate(422.421875 0)"/>
     <use xlink:href="#ArialMT-93" transform="translate(450.203125 0)"/>
     <use xlink:href="#ArialMT-3" transform="translate(505.09375 0)"/>
     <use xlink:href="#ArialMT-46" transform="translate(532.875 0)"/>
     <use xlink:href="#ArialMT-52" transform="translate(582.875 0)"/>
     <use xlink:href="#ArialMT-51" transform="translate(638.484375 0)"/>
     <use xlink:href="#ArialMT-49" transform="translate(694.09375 0)"/>
     <use xlink:href="#ArialMT-52" transform="translate(721.875 0)"/>
     <use xlink:href="#ArialMT-55" transform="translate(777.484375 0)"/>
     <use xlink:href="#ArialMT-50" transform="translate(810.78125 0)"/>
     <use xlink:href="#ArialMT-44" transform="translate(894.078125 0)"/>
     <use xlink:href="#ArialMT-4f" transform="translate(949.6875 0)"/>
     <use xlink:href="#ArialMT-3" transform="translate(971.90625 0)"/>
     <use xlink:href="#ArialMT-45" transform="translate(999.6875 0)"/>
     <use xlink:href="#ArialMT-44" transform="translate(1055.296875 0)"/>
     <use xlink:href="#ArialMT-51" transform="translate(1110.90625 0)"/>
     <use xlink:href="#ArialMT-47" transform="translate(1166.515625 0)"/>
    </g>
   </g>
   <g id="text_20">
    <!-- observed behavior -->
    <g style="fill: #3e474b" transform="translate(229.60256 70.232877) scale(0.056 -0.056)">
     <use xlink:href="#ArialMT-52"/>
     <use xlink:href="#ArialMT-45" transform="translate(55.609375 0)"/>
     <use xlink:href="#ArialMT-56" transform="translate(111.21875 0)"/>
     <use xlink:href="#ArialMT-48" transform="translate(161.21875 0)"/>
     <use xlink:href="#ArialMT-55" transform="translate(216.828125 0)"/>
     <use xlink:href="#ArialMT-59" transform="translate(250.125 0)"/>
     <use xlink:href="#ArialMT-48" transform="translate(300.125 0)"/>
     <use xlink:href="#ArialMT-47" transform="translate(355.734375 0)"/>
     <use xlink:href="#ArialMT-3" transform="translate(411.34375 0)"/>
     <use xlink:href="#ArialMT-45" transform="translate(439.125 0)"/>
     <use xlink:href="#ArialMT-48" transform="translate(494.734375 0)"/>
     <use xlink:href="#ArialMT-4b" transform="translate(550.34375 0)"/>
     <use xlink:href="#ArialMT-44" transform="translate(605.953125 0)"/>
     <use xlink:href="#ArialMT-59" transform="translate(661.5625 0)"/>
     <use xlink:href="#ArialMT-4c" transform="translate(711.5625 0)"/>
     <use xlink:href="#ArialMT-52" transform="translate(733.78125 0)"/>
     <use xlink:href="#ArialMT-55" transform="translate(789.390625 0)"/>
    </g>
   </g>
  </g>
 </g>
 <defs>
  <clipPath id="p2ed8b51924">
   <rect x="38.808" y="25.6704" width="303.408" height="122.8512"/>
  </clipPath>
 </defs>
</svg>
