<?xml version="1.0" encoding="utf-8" standalone="no"?>
<!DOCTYPE svg PUBLIC "-//W3C//DTD SVG 1.1//EN"
  "http://www.w3.org/Graphics/SVG/1.1/DTD/svg11.dtd">
<svg xmlns:xlink="http://www.w3.org/1999/xlink" width="374.4pt" height="252pt" viewBox="0 0 374.4 252" xmlns="http://www.w3.org/2000/svg" version="1.1">
 <metadata>
  <rdf:RDF xmlns:dc="http://purl.org/dc/elements/1.1/" xmlns:cc="http://creativecommons.org/ns#" xmlns:rdf="http://www.w3.org/1999/02/22-rdf-syntax-ns#">
   <cc:Work>
    <dc:type rdf:resource="http://purl.org/dc/dcmitype/StillImage"/>
    <dc:date>2026-07-20T18:43:50.172436</dc:date>
    <dc:format>image/svg+xml</dc:format>
    <dc:creator>
     <cc:Agent>
      <dc:title>Matplotlib v3.11.0, https://matplotlib.org/</dc:title>
     </cc:Agent>
    </dc:creator>
   </cc:Work>
  </rdf:RDF>
 </metadata>
 <defs>
  <style type="text/css">*{stroke-linejoin: round; stroke-linecap: butt}</style>
 </defs>
 <g id="figure_1">
  <g id="patch_1">
   <path d="M 0 252
L 374.4 252
L 374.4 0
L 0 0
z
" style="fill: #ffffff"/>
  </g>
  <g id="axes_1">
   <g id="patch_2">
    <path d="M 37.44 145.150773
L 366.912 145.150773
L 366.912 5.04
L 37.44 5.04
z
" style="fill: #ffffff"/>
   </g>
   <g id="FillBetweenPolyCollection_1">
    <defs>
     <path id="m67db185357" d="M 52.416 -202.651527
L 52.416 -148.573491
L 53.166677 -149.503794
L 53.917353 -150.452234
L 54.66803 -151.41787
L 55.418707 -152.399664
L 56.169383 -153.396477
L 56.92006 -154.407073
L 57.670737 -155.430113
L 58.421414 -156.464166
L 59.17209 -157.507703
L 59.922767 -158.559103
L 60.673444 -159.616658
L 61.42412 -160.678578
L 62.174797 -161.742991
L 62.925474 -162.807957
L 63.67615 -163.871468
L 64.426827 -164.931459
L 65.177504 -165.985817
L 65.92818 -167.032387
L 66.678857 -168.068985
L 67.429534 -169.093403
L 68.180211 -170.103428
L 68.930887 -171.096844
L 69.681564 -172.071449
L 70.432241 -173.025067
L 71.182917 -173.955556
L 71.933594 -174.860824
L 72.684271 -175.738839
L 73.434947 -176.587642
L 74.185624 -177.405359
L 74.936301 -178.190209
L 75.686977 -178.940522
L 76.437654 -179.654745
L 77.188331 -180.33145
L 77.939008 -180.969351
L 78.689684 -181.567305
L 79.440361 -182.124324
L 80.191038 -182.639582
L 80.941714 -183.11242
L 81.692391 -183.54235
L 82.443068 -183.929064
L 83.193744 -184.272429
L 83.944421 -184.572496
L 84.695098 -184.829499
L 85.445774 -185.04385
L 86.196451 -185.216144
L 86.947128 -185.347152
L 87.697805 -185.437821
L 88.448481 -185.489264
L 89.199158 -185.50276
L 89.949835 -185.479742
L 90.700511 -185.421796
L 91.451188 -185.330645
L 92.201865 -185.208146
L 92.952541 -185.056277
L 93.703218 -184.877128
L 94.453895 -184.672891
L 95.204571 -184.445847
L 95.955248 -184.198355
L 96.705925 -183.932842
L 97.456602 -183.651789
L 98.207278 -183.357721
L 98.957955 -183.053193
L 99.708632 -182.74078
L 100.459308 -182.423068
L 101.209985 -182.102636
L 101.960662 -181.782051
L 102.711338 -181.463856
L 103.462015 -181.15056
L 104.212692 -180.844626
L 104.963368 -180.548466
L 105.714045 -180.264429
L 106.464722 -179.994794
L 107.215398 -179.741765
L 107.966075 -179.50746
L 108.716752 -179.293908
L 109.467429 -179.103042
L 110.218105 -178.936693
L 110.968782 -178.79659
L 111.719459 -178.684349
L 112.470135 -178.601476
L 113.220812 -178.54936
L 113.971489 -178.529273
L 114.722165 -178.542366
L 115.472842 -178.58967
L 116.223519 -178.672092
L 116.974195 -178.790419
L 117.724872 -178.945311
L 118.475549 -179.137306
L 119.226226 -179.36682
L 119.976902 -179.634144
L 120.727579 -179.939448
L 121.478256 -180.282782
L 122.228932 -180.664077
L 122.979609 -181.083143
L 123.730286 -181.539676
L 124.480962 -182.033258
L 125.231639 -182.563355
L 125.982316 -183.129325
L 126.732992 -183.730417
L 127.483669 -184.365775
L 128.234346 -185.034437
L 128.985023 -185.735341
L 129.735699 -186.46733
L 130.486376 -187.229148
L 131.237053 -188.019449
L 131.987729 -188.836798
L 132.738406 -189.679674
L 133.489083 -190.546475
L 134.239759 -191.435519
L 134.990436 -192.345053
L 135.741113 -193.273249
L 136.491789 -194.218217
L 137.242466 -195.178003
L 137.993143 -196.150594
L 138.74382 -197.133927
L 139.494496 -198.125889
L 140.245173 -199.124324
L 140.99585 -200.127039
L 141.746526 -201.131806
L 142.497203 -202.13637
L 143.24788 -203.138457
L 143.998556 -204.135771
L 144.749233 -205.126008
L 145.49991 -206.106861
L 146.250586 -207.07602
L 147.001263 -208.031183
L 147.75194 -208.970061
L 148.502617 -209.890383
L 149.253293 -210.789904
L 150.00397 -211.666406
L 150.754647 -212.517711
L 151.505323 -213.341682
L 152.256 -214.136229
L 153.006677 -214.899317
L 153.757353 -215.628969
L 154.50803 -216.323273
L 155.258707 -216.980389
L 156.009383 -217.59855
L 156.76006 -218.176067
L 157.510737 -218.711341
L 158.261414 -219.202856
L 159.01209 -219.649194
L 159.762767 -220.049031
L 160.513444 -220.401144
L 161.26412 -220.704417
L 162.014797 -220.957836
L 162.765474 -221.160501
L 163.51615 -221.311622
L 164.266827 -221.410524
L 165.017504 -221.456645
L 165.76818 -221.449543
L 166.518857 -221.388892
L 167.269534 -221.274485
L 168.020211 -221.106233
L 168.770887 -220.884166
L 169.521564 -220.60843
L 170.272241 -220.27929
L 171.022917 -219.897125
L 171.773594 -219.462429
L 172.524271 -218.975805
L 173.274947 -218.437969
L 174.025624 -217.849742
L 174.776301 -217.21205
L 175.526977 -216.525917
L 176.277654 -215.792467
L 177.028331 -215.012917
L 177.779008 -214.18857
L 178.529684 -213.320819
L 179.280361 -212.411132
L 180.031038 -211.461057
L 180.781714 -210.472209
L 181.532391 -209.446272
L 182.283068 -208.384988
L 183.033744 -207.290154
L 183.784421 -206.163619
L 184.535098 -205.007273
L 185.285774 -203.823047
L 186.036451 -202.612904
L 186.787128 -201.378833
L 187.537805 -200.122847
L 188.288481 -198.846972
L 189.039158 -197.553248
L 189.789835 -196.243717
L 190.540511 -194.920422
L 191.291188 -193.585398
L 192.041865 -192.240673
L 192.792541 -190.888254
L 193.543218 -189.53013
L 194.293895 -188.168263
L 195.044571 -186.804585
L 195.795248 -185.440991
L 196.545925 -184.07934
L 197.296602 -182.721443
L 198.047278 -181.369069
L 198.797955 -180.023932
L 199.548632 -178.687694
L 200.299308 -177.361959
L 201.049985 -176.04827
L 201.800662 -174.748109
L 202.551338 -173.462891
L 203.302015 -172.193964
L 204.052692 -170.942606
L 204.803368 -169.710026
L 205.554045 -168.497359
L 206.304722 -167.305665
L 207.055398 -166.135934
L 207.806075 -164.989076
L 208.556752 -163.865929
L 209.307429 -162.767254
L 210.058105 -161.693737
L 210.808782 -160.645989
L 211.559459 -159.624545
L 212.310135 -158.629868
L 213.060812 -157.662347
L 213.811489 -156.7223
L 214.562165 -155.809975
L 215.312842 -154.925549
L 216.063519 -154.069135
L 216.814195 -153.240778
L 217.564872 -152.440462
L 218.315549 -151.66811
L 219.066226 -150.923585
L 219.816902 -150.206696
L 220.567579 -149.517195
L 221.318256 -148.854787
L 222.068932 -148.219126
L 222.819609 -147.609823
L 223.570286 -147.026444
L 224.320962 -146.468517
L 225.071639 -145.935533
L 225.822316 -145.426951
L 226.572992 -144.942197
L 227.323669 -144.480672
L 228.074346 -144.04175
L 228.825023 -143.624785
L 229.575699 -143.229113
L 230.326376 -142.854054
L 231.077053 -142.498915
L 231.827729 -142.162993
L 232.578406 -141.845579
L 233.329083 -141.545959
L 234.079759 -141.263416
L 234.830436 -140.997236
L 235.581113 -140.746707
L 236.331789 -140.511121
L 237.082466 -140.289778
L 237.833143 -140.081989
L 238.58382 -139.887074
L 239.334496 -139.704367
L 240.085173 -139.533217
L 240.83585 -139.372987
L 241.586526 -139.22306
L 242.337203 -139.082835
L 243.08788 -138.951731
L 243.838556 -138.829188
L 244.589233 -138.714665
L 245.33991 -138.607643
L 246.090586 -138.507627
L 246.841263 -138.414139
L 247.59194 -138.326727
L 248.342617 -138.24496
L 249.093293 -138.168426
L 249.84397 -138.096738
L 250.594647 -138.029527
L 251.345323 -137.966447
L 252.096 -137.907168
L 252.846677 -137.851383
L 253.597353 -137.7988
L 254.34803 -137.749145
L 255.098707 -137.702161
L 255.849383 -137.657605
L 256.60006 -137.61525
L 257.350737 -137.574879
L 258.101414 -137.536289
L 258.85209 -137.499288
L 259.602767 -137.463693
L 260.353444 -137.429328
L 261.10412 -137.396028
L 261.854797 -137.363631
L 262.605474 -137.331982
L 263.35615 -137.300929
L 264.106827 -137.270326
L 264.857504 -137.240028
L 265.60818 -137.20989
L 266.358857 -137.179771
L 267.109534 -137.14953
L 267.860211 -137.119025
L 268.610887 -137.088112
L 269.361564 -137.05665
L 270.112241 -137.024494
L 270.862917 -136.991497
L 271.613594 -136.957513
L 272.364271 -136.922393
L 273.114947 -136.885987
L 273.865624 -136.848144
L 274.616301 -136.808712
L 275.366977 -136.767538
L 276.117654 -136.724469
L 276.868331 -136.679355
L 277.619008 -136.632042
L 278.369684 -136.582381
L 279.120361 -136.530225
L 279.871038 -136.475429
L 280.621714 -136.417853
L 281.372391 -136.357358
L 282.123068 -136.293815
L 282.873744 -136.227098
L 283.624421 -136.157087
L 284.375098 -136.083673
L 285.125774 -136.006752
L 285.876451 -135.926231
L 286.627128 -135.842025
L 287.377805 -135.754062
L 288.128481 -135.662278
L 288.879158 -135.566622
L 289.629835 -135.467057
L 290.380511 -135.363556
L 291.131188 -135.256105
L 291.881865 -135.144704
L 292.632541 -135.029368
L 293.383218 -134.910123
L 294.133895 -134.78701
L 294.884571 -134.660085
L 295.635248 -134.529414
L 296.385925 -134.395081
L 297.136602 -134.257181
L 297.887278 -134.115821
L 298.637955 -133.971124
L 299.388632 -133.82322
L 300.139308 -133.672256
L 300.889985 -133.518387
L 301.640662 -133.36178
L 302.391338 -133.202609
L 303.142015 -133.04106
L 303.892692 -132.877325
L 304.643368 -132.711606
L 305.394045 -132.544108
L 306.144722 -132.375045
L 306.895398 -132.204633
L 307.646075 -132.033094
L 308.396752 -131.86065
L 309.147429 -131.687528
L 309.898105 -131.513955
L 310.648782 -131.340156
L 311.399459 -131.166359
L 312.150135 -130.992787
L 312.900812 -130.819662
L 313.651489 -130.647202
L 314.402165 -130.475621
L 315.152842 -130.305129
L 315.903519 -130.135928
L 316.654195 -129.968217
L 317.404872 -129.802186
L 318.155549 -129.638017
L 318.906226 -129.475885
L 319.656902 -129.315957
L 320.407579 -129.15839
L 321.158256 -129.003334
L 321.908932 -128.850925
L 322.659609 -128.701295
L 323.410286 -128.554561
L 324.160962 -128.410833
L 324.911639 -128.27021
L 325.662316 -128.132781
L 326.412992 -127.998624
L 327.163669 -127.867807
L 327.914346 -127.74039
L 328.665023 -127.616421
L 329.415699 -127.495938
L 330.166376 -127.378972
L 330.917053 -127.265542
L 331.667729 -127.155661
L 332.418406 -127.049331
L 333.169083 -126.946547
L 333.919759 -126.847296
L 334.670436 -126.751557
L 335.421113 -126.659302
L 336.171789 -126.570498
L 336.922466 -126.485103
L 337.673143 -126.403072
L 338.42382 -126.324352
L 339.174496 -126.248886
L 339.925173 -126.176614
L 340.67585 -126.107469
L 341.426526 -126.041384
L 342.177203 -125.978285
L 342.92788 -125.918097
L 343.678556 -125.860743
L 344.429233 -125.806143
L 345.17991 -125.754216
L 345.930586 -125.704879
L 346.681263 -125.658048
L 347.43194 -125.613638
L 348.182617 -125.571566
L 348.933293 -125.531746
L 349.68397 -125.494093
L 350.434647 -125.458523
L 351.185323 -125.424953
L 351.936 -125.3933
L 351.936 -215.981324
L 351.936 -215.981324
L 351.185323 -215.923549
L 350.434647 -215.861467
L 349.68397 -215.794806
L 348.933293 -215.723282
L 348.182617 -215.646597
L 347.43194 -215.56444
L 346.681263 -215.476488
L 345.930586 -215.382403
L 345.17991 -215.281833
L 344.429233 -215.174413
L 343.678556 -215.059764
L 342.92788 -214.937495
L 342.177203 -214.807198
L 341.426526 -214.668456
L 340.67585 -214.520834
L 339.925173 -214.363889
L 339.174496 -214.197161
L 338.42382 -214.020181
L 337.673143 -213.832469
L 336.922466 -213.633531
L 336.171789 -213.422865
L 335.421113 -213.199959
L 334.670436 -212.964294
L 333.919759 -212.715342
L 333.169083 -212.452569
L 332.418406 -212.175435
L 331.667729 -211.883398
L 330.917053 -211.575912
L 330.166376 -211.252432
L 329.415699 -210.912412
L 328.665023 -210.555308
L 327.914346 -210.180582
L 327.163669 -209.787702
L 326.412992 -209.376144
L 325.662316 -208.945395
L 324.911639 -208.494954
L 324.160962 -208.024335
L 323.410286 -207.533071
L 322.659609 -207.020714
L 321.908932 -206.48684
L 321.158256 -205.931049
L 320.407579 -205.352969
L 319.656902 -204.752262
L 318.906226 -204.128619
L 318.155549 -203.481772
L 317.404872 -202.811491
L 316.654195 -202.117587
L 315.903519 -201.399918
L 315.152842 -200.658389
L 314.402165 -199.892958
L 313.651489 -199.103635
L 312.900812 -198.290485
L 312.150135 -197.453635
L 311.399459 -196.593272
L 310.648782 -195.709647
L 309.898105 -194.803077
L 309.147429 -193.873948
L 308.396752 -192.922714
L 307.646075 -191.949903
L 306.895398 -190.956117
L 306.144722 -189.942029
L 305.394045 -188.908391
L 304.643368 -187.856031
L 303.892692 -186.785854
L 303.142015 -185.698841
L 302.391338 -184.596052
L 301.640662 -183.478624
L 300.889985 -182.347768
L 300.139308 -181.204774
L 299.388632 -180.051003
L 298.637955 -178.887889
L 297.887278 -177.716939
L 297.136602 -176.539723
L 296.385925 -175.357881
L 295.635248 -174.173112
L 294.884571 -172.987178
L 294.133895 -171.801891
L 293.383218 -170.619118
L 292.632541 -169.440771
L 291.881865 -168.268805
L 291.131188 -167.105213
L 290.380511 -165.952017
L 289.629835 -164.811268
L 288.879158 -163.685037
L 288.128481 -162.575409
L 287.377805 -161.484479
L 286.627128 -160.414342
L 285.876451 -159.367092
L 285.125774 -158.344808
L 284.375098 -157.349556
L 283.624421 -156.383373
L 282.873744 -155.448268
L 282.123068 -154.546213
L 281.372391 -153.679131
L 280.621714 -152.848899
L 279.871038 -152.057333
L 279.120361 -151.306185
L 278.369684 -150.597139
L 277.619008 -149.931799
L 276.868331 -149.31169
L 276.117654 -148.738247
L 275.366977 -148.212812
L 274.616301 -147.73663
L 273.865624 -147.310844
L 273.114947 -146.936488
L 272.364271 -146.614487
L 271.613594 -146.34565
L 270.862917 -146.130672
L 270.112241 -145.970127
L 269.361564 -145.864465
L 268.610887 -145.814016
L 267.860211 -145.818985
L 267.109534 -145.879451
L 266.358857 -145.995368
L 265.60818 -146.166566
L 264.857504 -146.392751
L 264.106827 -146.673505
L 263.35615 -147.008291
L 262.605474 -147.396453
L 261.854797 -147.837219
L 261.10412 -148.329704
L 260.353444 -148.872914
L 259.602767 -149.465751
L 258.85209 -150.107014
L 258.101414 -150.795409
L 257.350737 -151.529548
L 256.60006 -152.307959
L 255.849383 -153.12909
L 255.098707 -153.991312
L 254.34803 -154.892932
L 253.597353 -155.832192
L 252.846677 -156.807278
L 252.096 -157.816328
L 251.345323 -158.857436
L 250.594647 -159.92866
L 249.84397 -161.02803
L 249.093293 -162.153551
L 248.342617 -163.303211
L 247.59194 -164.47499
L 246.841263 -165.666861
L 246.090586 -166.876801
L 245.33991 -168.102797
L 244.589233 -169.342846
L 243.838556 -170.594968
L 243.08788 -171.857207
L 242.337203 -173.127637
L 241.586526 -174.404366
L 240.83585 -175.685543
L 240.085173 -176.96936
L 239.334496 -178.254057
L 238.58382 -179.537925
L 237.833143 -180.81931
L 237.082466 -182.096615
L 236.331789 -183.368304
L 235.581113 -184.632902
L 234.830436 -185.889001
L 234.079759 -187.135256
L 233.329083 -188.370392
L 232.578406 -189.593201
L 231.827729 -190.802544
L 231.077053 -191.997353
L 230.326376 -193.176626
L 229.575699 -194.339435
L 228.825023 -195.484918
L 228.074346 -196.612282
L 227.323669 -197.720801
L 226.572992 -198.809815
L 225.822316 -199.87873
L 225.071639 -200.927014
L 224.320962 -201.954198
L 223.570286 -202.959872
L 222.819609 -203.943684
L 222.068932 -204.905337
L 221.318256 -205.844589
L 220.567579 -206.76125
L 219.816902 -207.655176
L 219.066226 -208.526274
L 218.315549 -209.374492
L 217.564872 -210.199822
L 216.814195 -211.002295
L 216.063519 -211.781979
L 215.312842 -212.538977
L 214.562165 -213.273424
L 213.811489 -213.985487
L 213.060812 -214.67536
L 212.310135 -215.343262
L 211.559459 -215.989437
L 210.808782 -216.61415
L 210.058105 -217.217686
L 209.307429 -217.800349
L 208.556752 -218.362456
L 207.806075 -218.904342
L 207.055398 -219.426353
L 206.304722 -219.928845
L 205.554045 -220.412187
L 204.803368 -220.876752
L 204.052692 -221.322924
L 203.302015 -221.751091
L 202.551338 -222.161647
L 201.800662 -222.554987
L 201.049985 -222.931512
L 200.299308 -223.291623
L 199.548632 -223.635723
L 198.797955 -223.964213
L 198.047278 -224.277496
L 197.296602 -224.575971
L 196.545925 -224.860038
L 195.795248 -225.130093
L 195.044571 -225.386527
L 194.293895 -225.629729
L 193.543218 -225.860084
L 192.792541 -226.077971
L 192.041865 -226.283764
L 191.291188 -226.47783
L 190.540511 -226.660531
L 189.789835 -226.83222
L 189.039158 -226.993244
L 188.288481 -227.143941
L 187.537805 -227.284641
L 186.787128 -227.415662
L 186.036451 -227.537317
L 185.285774 -227.649905
L 184.535098 -227.753714
L 183.784421 -227.849021
L 183.033744 -227.936093
L 182.283068 -228.015182
L 181.532391 -228.086526
L 180.781714 -228.15035
L 180.031038 -228.206867
L 179.280361 -228.25627
L 178.529684 -228.298739
L 177.779008 -228.33444
L 177.028331 -228.363518
L 176.277654 -228.386102
L 175.526977 -228.402306
L 174.776301 -228.412223
L 174.025624 -228.415927
L 173.274947 -228.413475
L 172.524271 -228.404904
L 171.773594 -228.390231
L 171.022917 -228.369453
L 170.272241 -228.342548
L 169.521564 -228.309474
L 168.770887 -228.270167
L 168.020211 -228.224545
L 167.269534 -228.172506
L 166.518857 -228.113928
L 165.76818 -228.048669
L 165.017504 -227.976569
L 164.266827 -227.89745
L 163.51615 -227.811115
L 162.765474 -227.71735
L 162.014797 -227.615926
L 161.26412 -227.506598
L 160.513444 -227.389104
L 159.762767 -227.263173
L 159.01209 -227.128518
L 158.261414 -226.984844
L 157.510737 -226.831845
L 156.76006 -226.669206
L 156.009383 -226.496609
L 155.258707 -226.313727
L 154.50803 -226.120234
L 153.757353 -225.9158
L 153.006677 -225.700098
L 152.256 -225.472803
L 151.505323 -225.233594
L 150.754647 -224.98216
L 150.00397 -224.718197
L 149.253293 -224.441414
L 148.502617 -224.151533
L 147.75194 -223.848295
L 147.001263 -223.531458
L 146.250586 -223.200801
L 145.49991 -222.856128
L 144.749233 -222.497269
L 143.998556 -222.124084
L 143.24788 -221.736462
L 142.497203 -221.334326
L 141.746526 -220.917638
L 140.99585 -220.486394
L 140.245173 -220.040633
L 139.494496 -219.580436
L 138.74382 -219.105929
L 137.993143 -218.617283
L 137.242466 -218.114719
L 136.491789 -217.598506
L 135.741113 -217.068966
L 134.990436 -216.526471
L 134.239759 -215.971448
L 133.489083 -215.404378
L 132.738406 -214.825796
L 131.987729 -214.23629
L 131.237053 -213.636507
L 130.486376 -213.027143
L 129.735699 -212.40895
L 128.985023 -211.782735
L 128.234346 -211.149352
L 127.483669 -210.509707
L 126.732992 -209.864752
L 125.982316 -209.215486
L 125.231639 -208.562948
L 124.480962 -207.908219
L 123.730286 -207.252412
L 122.979609 -206.596674
L 122.228932 -205.94218
L 121.478256 -205.290127
L 120.727579 -204.641731
L 119.976902 -203.998219
L 119.226226 -203.360829
L 118.475549 -202.730799
L 117.724872 -202.109364
L 116.974195 -201.497747
L 116.223519 -200.89716
L 115.472842 -200.308787
L 114.722165 -199.733788
L 113.971489 -199.173286
L 113.220812 -198.628365
L 112.470135 -198.10006
L 111.719459 -197.589354
L 110.968782 -197.097173
L 110.218105 -196.624377
L 109.467429 -196.171757
L 108.716752 -195.740031
L 107.966075 -195.32984
L 107.215398 -194.94174
L 106.464722 -194.576205
L 105.714045 -194.233619
L 104.963368 -193.914278
L 104.212692 -193.618385
L 103.462015 -193.346052
L 102.711338 -193.097297
L 101.960662 -192.872049
L 101.209985 -192.670145
L 100.459308 -192.491333
L 99.708632 -192.335276
L 98.957955 -192.201557
L 98.207278 -192.089678
L 97.456602 -191.999069
L 96.705925 -191.929091
L 95.955248 -191.879043
L 95.204571 -191.848168
L 94.453895 -191.83566
L 93.703218 -191.84067
L 92.952541 -191.862316
L 92.201865 -191.899687
L 91.451188 -191.951852
L 90.700511 -192.01787
L 89.949835 -192.096797
L 89.199158 -192.18769
L 88.448481 -192.28962
L 87.697805 -192.401674
L 86.947128 -192.522968
L 86.196451 -192.652649
L 85.445774 -192.7899
L 84.695098 -192.933951
L 83.944421 -193.084079
L 83.193744 -193.239614
L 82.443068 -193.399945
L 81.692391 -193.564517
L 80.941714 -193.732841
L 80.191038 -193.904489
L 79.440361 -194.079097
L 78.689684 -194.256368
L 77.939008 -194.436066
L 77.188331 -194.618017
L 76.437654 -194.802109
L 75.686977 -194.988287
L 74.936301 -195.176549
L 74.185624 -195.366944
L 73.434947 -195.559568
L 72.684271 -195.754555
L 71.933594 -195.95208
L 71.182917 -196.152346
L 70.432241 -196.355581
L 69.681564 -196.562033
L 68.930887 -196.771965
L 68.180211 -196.985648
L 67.429534 -197.203354
L 66.678857 -197.425354
L 65.92818 -197.651907
L 65.177504 -197.883263
L 64.426827 -198.119651
L 63.67615 -198.361277
L 62.925474 -198.608322
L 62.174797 -198.860936
L 61.42412 -199.119234
L 60.673444 -199.383298
L 59.922767 -199.653169
L 59.17209 -199.92885
L 58.421414 -200.210303
L 57.670737 -200.497446
L 56.92006 -200.79016
L 56.169383 -201.08828
L 55.418707 -201.391604
L 54.66803 -201.699888
L 53.917353 -202.012853
L 53.166677 -202.330182
L 52.416 -202.651527
z
"/>
    </defs>
    <g clip-path="url(#pc073d7d381)">
     <use xlink:href="#m67db185357" x="0" y="252" style="fill: #1683a6; fill-opacity: 0.15"/>
    </g>
   </g>
   <g id="matplotlib.axis_1">
    <g id="xtick_1">
     <g id="line2d_1">
      <defs>
       <path id="m1a1f1398d2" d="M 0 0
L 0 2.5
" style="stroke: #000000; stroke-width: 0.6"/>
      </defs>
      <g>
       <use xlink:href="#m1a1f1398d2" x="52.416" y="145.150773" style="stroke: #000000; stroke-width: 0.6"/>
      </g>
     </g>
    </g>
    <g id="xtick_2">
     <g id="line2d_2">
      <g>
       <use xlink:href="#m1a1f1398d2" x="112.32" y="145.150773" style="stroke: #000000; stroke-width: 0.6"/>
      </g>
     </g>
    </g>
    <g id="xtick_3">
     <g id="line2d_3">
      <g>
       <use xlink:href="#m1a1f1398d2" x="172.224" y="145.150773" style="stroke: #000000; stroke-width: 0.6"/>
      </g>
     </g>
    </g>
    <g id="xtick_4">
     <g id="line2d_4">
      <g>
       <use xlink:href="#m1a1f1398d2" x="232.128" y="145.150773" style="stroke: #000000; stroke-width: 0.6"/>
      </g>
     </g>
    </g>
    <g id="xtick_5">
     <g id="line2d_5">
      <g>
       <use xlink:href="#m1a1f1398d2" x="292.032" y="145.150773" style="stroke: #000000; stroke-width: 0.6"/>
      </g>
     </g>
    </g>
    <g id="xtick_6">
     <g id="line2d_6">
      <g>
       <use xlink:href="#m1a1f1398d2" x="351.936" y="145.150773" style="stroke: #000000; stroke-width: 0.6"/>
      </g>
     </g>
    </g>
   </g>
   <g id="matplotlib.axis_2">
    <g id="ytick_1">
     <g id="line2d_7">
      <defs>
       <path id="m6fa27eb9c5" d="M 0 0
L -2.5 0
" style="stroke: #000000; stroke-width: 0.6"/>
      </defs>
      <g>
       <use xlink:href="#m6fa27eb9c5" x="37.44" y="135.13177" style="stroke: #000000; stroke-width: 0.6"/>
      </g>
     </g>
     <g id="text_1">
      <!-- −1.0 -->
      <g transform="translate(19.595625 137.315852) scale(0.06 -0.06)">
       <defs>
        <path id="ArialMT-ed" d="M 3381 1997
L 356 1997
L 356 2522
L 3381 2522
L 3381 1997
z
" transform="scale(0.015625)"/>
        <path id="ArialMT-14" d="M 2384 0
L 1822 0
L 1822 3584
Q 1619 3391 1289 3197
Q 959 3003 697 2906
L 697 3450
Q 1169 3672 1522 3987
Q 1875 4303 2022 4600
L 2384 4600
L 2384 0
z
" transform="scale(0.015625)"/>
        <path id="ArialMT-11" d="M 581 0
L 581 641
L 1222 641
L 1222 0
L 581 0
z
" transform="scale(0.015625)"/>
        <path id="ArialMT-13" d="M 266 2259
Q 266 3072 433 3567
Q 600 4063 929 4331
Q 1259 4600 1759 4600
Q 2128 4600 2406 4451
Q 2684 4303 2865 4023
Q 3047 3744 3150 3342
Q 3253 2941 3253 2259
Q 3253 1453 3087 958
Q 2922 463 2592 192
Q 2263 -78 1759 -78
Q 1097 -78 719 397
Q 266 969 266 2259
z
M 844 2259
Q 844 1131 1108 757
Q 1372 384 1759 384
Q 2147 384 2411 759
Q 2675 1134 2675 2259
Q 2675 3391 2411 3762
Q 2147 4134 1753 4134
Q 1366 4134 1134 3806
Q 844 3388 844 2259
z
" transform="scale(0.015625)"/>
       </defs>
       <use xlink:href="#ArialMT-ed"/>
       <use xlink:href="#ArialMT-14" transform="translate(58.40625 0)"/>
       <use xlink:href="#ArialMT-11" transform="translate(114.015625 0)"/>
       <use xlink:href="#ArialMT-13" transform="translate(141.796875 0)"/>
      </g>
     </g>
    </g>
    <g id="ytick_2">
     <g id="line2d_8">
      <g>
       <use xlink:href="#m6fa27eb9c5" x="37.44" y="108.158137" style="stroke: #000000; stroke-width: 0.6"/>
      </g>
     </g>
     <g id="text_2">
      <!-- −0.5 -->
      <g transform="translate(19.595625 110.342219) scale(0.06 -0.06)">
       <defs>
        <path id="ArialMT-18" d="M 266 1200
L 856 1250
Q 922 819 1161 601
Q 1400 384 1738 384
Q 2144 384 2425 690
Q 2706 997 2706 1503
Q 2706 1984 2436 2262
Q 2166 2541 1728 2541
Q 1456 2541 1237 2417
Q 1019 2294 894 2097
L 366 2166
L 809 4519
L 3088 4519
L 3088 3981
L 1259 3981
L 1013 2750
Q 1425 3038 1878 3038
Q 2478 3038 2890 2622
Q 3303 2206 3303 1553
Q 3303 931 2941 478
Q 2500 -78 1738 -78
Q 1113 -78 717 272
Q 322 622 266 1200
z
" transform="scale(0.015625)"/>
       </defs>
       <use xlink:href="#ArialMT-ed"/>
       <use xlink:href="#ArialMT-13" transform="translate(58.40625 0)"/>
       <use xlink:href="#ArialMT-11" transform="translate(114.015625 0)"/>
       <use xlink:href="#ArialMT-18" transform="translate(141.796875 0)"/>
      </g>
     </g>
    </g>
    <g id="ytick_3">
     <g id="line2d_9">
      <g>
       <use xlink:href="#m6fa27eb9c5" x="37.44" y="81.184504" style="stroke: #000000; stroke-width: 0.6"/>
      </g>
     </g>
     <g id="text_3">
      <!-- 0.0 -->
      <g transform="translate(23.1 83.368586) scale(0.06 -0.06)">
       <use xlink:href="#ArialMT-13"/>
       <use xlink:href="#ArialMT-11" transform="translate(55.609375 0)"/>
       <use xlink:href="#ArialMT-13" transform="translate(83.390625 0)"/>
      </g>
     </g>
    </g>
    <g id="ytick_4">
     <g id="line2d_10">
      <g>
       <use xlink:href="#m6fa27eb9c5" x="37.44" y="54.210871" style="stroke: #000000; stroke-width: 0.6"/>
      </g>
     </g>
     <g id="text_4">
      <!-- 0.5 -->
      <g transform="translate(23.1 56.394953) scale(0.06 -0.06)">
       <use xlink:href="#ArialMT-13"/>
       <use xlink:href="#ArialMT-11" transform="translate(55.609375 0)"/>
       <use xlink:href="#ArialMT-18" transform="translate(83.390625 0)"/>
      </g>
     </g>
    </g>
    <g id="ytick_5">
     <g id="line2d_11">
      <g>
       <use xlink:href="#m6fa27eb9c5" x="37.44" y="27.237238" style="stroke: #000000; stroke-width: 0.6"/>
      </g>
     </g>
     <g id="text_5">
      <!-- 1.0 -->
      <g transform="translate(23.1 29.42132) scale(0.06 -0.06)">
       <use xlink:href="#ArialMT-14"/>
       <use xlink:href="#ArialMT-11" transform="translate(55.609375 0)"/>
       <use xlink:href="#ArialMT-13" transform="translate(83.390625 0)"/>
      </g>
     </g>
    </g>
    <g id="text_6">
     <!-- Objective -->
     <g transform="translate(14.164438 89.267543) rotate(-90) scale(0.068 -0.068)">
      <defs>
       <path id="ArialMT-32" d="M 309 2231
Q 309 3372 921 4017
Q 1534 4663 2503 4663
Q 3138 4663 3647 4359
Q 4156 4056 4423 3514
Q 4691 2972 4691 2284
Q 4691 1588 4409 1038
Q 4128 488 3612 205
Q 3097 -78 2500 -78
Q 1853 -78 1343 234
Q 834 547 571 1087
Q 309 1628 309 2231
z
M 934 2222
Q 934 1394 1379 917
Q 1825 441 2497 441
Q 3181 441 3623 922
Q 4066 1403 4066 2288
Q 4066 2847 3877 3264
Q 3688 3681 3323 3911
Q 2959 4141 2506 4141
Q 1863 4141 1398 3698
Q 934 3256 934 2222
z
" transform="scale(0.015625)"/>
       <path id="ArialMT-45" d="M 941 0
L 419 0
L 419 4581
L 981 4581
L 981 2947
Q 1338 3394 1891 3394
Q 2197 3394 2470 3270
Q 2744 3147 2920 2923
Q 3097 2700 3197 2384
Q 3297 2069 3297 1709
Q 3297 856 2875 390
Q 2453 -75 1863 -75
Q 1275 -75 941 416
L 941 0
z
M 934 1684
Q 934 1088 1097 822
Q 1363 388 1816 388
Q 2184 388 2453 708
Q 2722 1028 2722 1663
Q 2722 2313 2464 2622
Q 2206 2931 1841 2931
Q 1472 2931 1203 2611
Q 934 2291 934 1684
z
" transform="scale(0.015625)"/>
       <path id="ArialMT-4d" d="M 419 3928
L 419 4581
L 981 4581
L 981 3928
L 419 3928
z
M -294 -1288
L -188 -809
Q -19 -853 78 -853
Q 250 -853 334 -739
Q 419 -625 419 -169
L 419 3319
L 981 3319
L 981 -181
Q 981 -794 822 -1034
Q 619 -1347 147 -1347
Q -81 -1347 -294 -1288
z
" transform="scale(0.015625)"/>
       <path id="ArialMT-48" d="M 2694 1069
L 3275 997
Q 3138 488 2766 206
Q 2394 -75 1816 -75
Q 1088 -75 661 373
Q 234 822 234 1631
Q 234 2469 665 2931
Q 1097 3394 1784 3394
Q 2450 3394 2872 2941
Q 3294 2488 3294 1666
Q 3294 1616 3291 1516
L 816 1516
Q 847 969 1125 678
Q 1403 388 1819 388
Q 2128 388 2347 550
Q 2566 713 2694 1069
z
M 847 1978
L 2700 1978
Q 2663 2397 2488 2606
Q 2219 2931 1791 2931
Q 1403 2931 1139 2672
Q 875 2413 847 1978
z
" transform="scale(0.015625)"/>
       <path id="ArialMT-46" d="M 2588 1216
L 3141 1144
Q 3050 572 2676 248
Q 2303 -75 1759 -75
Q 1078 -75 664 370
Q 250 816 250 1647
Q 250 2184 428 2587
Q 606 2991 970 3192
Q 1334 3394 1763 3394
Q 2303 3394 2647 3120
Q 2991 2847 3088 2344
L 2541 2259
Q 2463 2594 2264 2762
Q 2066 2931 1784 2931
Q 1359 2931 1093 2626
Q 828 2322 828 1663
Q 828 994 1084 691
Q 1341 388 1753 388
Q 2084 388 2306 591
Q 2528 794 2588 1216
z
" transform="scale(0.015625)"/>
       <path id="ArialMT-57" d="M 1650 503
L 1731 6
Q 1494 -44 1306 -44
Q 1000 -44 831 53
Q 663 150 594 308
Q 525 466 525 972
L 525 2881
L 113 2881
L 113 3319
L 525 3319
L 525 4141
L 1084 4478
L 1084 3319
L 1650 3319
L 1650 2881
L 1084 2881
L 1084 941
Q 1084 700 1114 631
Q 1144 563 1211 522
Q 1278 481 1403 481
Q 1497 481 1650 503
z
" transform="scale(0.015625)"/>
       <path id="ArialMT-4c" d="M 425 3934
L 425 4581
L 988 4581
L 988 3934
L 425 3934
z
M 425 0
L 425 3319
L 988 3319
L 988 0
L 425 0
z
" transform="scale(0.015625)"/>
       <path id="ArialMT-59" d="M 1344 0
L 81 3319
L 675 3319
L 1388 1331
Q 1503 1009 1600 663
Q 1675 925 1809 1294
L 2547 3319
L 3125 3319
L 1869 0
L 1344 0
z
" transform="scale(0.015625)"/>
      </defs>
      <use xlink:href="#ArialMT-32"/>
      <use xlink:href="#ArialMT-45" transform="translate(77.78125 0)"/>
      <use xlink:href="#ArialMT-4d" transform="translate(133.390625 0)"/>
      <use xlink:href="#ArialMT-48" transform="translate(155.609375 0)"/>
      <use xlink:href="#ArialMT-46" transform="translate(211.21875 0)"/>
      <use xlink:href="#ArialMT-57" transform="translate(261.21875 0)"/>
      <use xlink:href="#ArialMT-4c" transform="translate(289 0)"/>
      <use xlink:href="#ArialMT-59" transform="translate(311.21875 0)"/>
      <use xlink:href="#ArialMT-48" transform="translate(361.21875 0)"/>
     </g>
    </g>
   </g>
   <g id="line2d_12">
    <path d="M 52.416 76.387491
L 56.169383 74.757621
L 60.673444 72.500022
L 71.933594 66.593548
L 74.936301 65.316621
L 77.939008 64.297292
L 80.191038 63.727965
L 82.443068 63.335496
L 84.695098 63.118275
L 87.697805 63.080253
L 90.700511 63.280167
L 95.204571 63.852993
L 101.209985 64.61361
L 104.212692 64.768494
L 107.215398 64.658248
L 109.467429 64.362601
L 111.719459 63.863148
L 113.971489 63.148721
L 116.223519 62.215374
L 118.475549 61.065947
L 120.727579 59.709411
L 123.730286 57.603956
L 126.732992 55.202415
L 130.486376 51.871855
L 135.741113 46.828893
L 143.998556 38.870073
L 147.75194 35.590822
L 150.754647 33.250064
L 153.757353 31.227616
L 156.009383 29.952421
L 158.261414 28.90615
L 160.513444 28.104876
L 162.765474 27.561074
L 165.017504 27.283393
L 167.269534 27.276505
L 169.521564 27.541048
L 171.773594 28.07367
L 174.025624 28.867165
L 176.277654 29.910715
L 178.529684 31.190221
L 180.781714 32.68872
L 183.784421 34.99368
L 186.787128 37.602752
L 190.540511 41.209524
L 195.044571 45.904444
L 201.800662 53.348452
L 214.562165 67.458301
L 222.819609 76.223247
L 233.329083 87.041825
L 240.085173 93.748712
L 244.589233 97.971245
L 248.342617 101.225915
L 251.345323 103.588059
L 254.34803 105.678961
L 257.350737 107.447787
L 259.602767 108.535278
L 261.854797 109.399575
L 264.106827 110.028084
L 266.358857 110.41243
L 268.610887 110.548936
L 270.862917 110.438915
L 273.114947 110.088763
L 275.366977 109.509825
L 277.619008 108.71808
L 279.871038 107.733619
L 282.873744 106.162317
L 286.627128 103.871816
L 291.131188 100.819341
L 301.640662 93.579798
L 305.394045 91.27375
L 309.147429 89.219262
L 312.900812 87.444927
L 316.654195 85.957098
L 320.407579 84.74432
L 324.160962 83.782416
L 327.914346 83.039514
L 332.418406 82.387617
L 337.673143 81.88223
L 343.678556 81.539746
L 351.936 81.312688
L 351.936 81.312688
" clip-path="url(#pc073d7d381)" style="fill: none; stroke: #1683a6; stroke-width: 1.8; stroke-linecap: square"/>
   </g>
   <g id="patch_3">
    <path d="M 37.44 145.150773
L 37.44 5.04
" style="fill: none; stroke: #000000; stroke-width: 0.7; stroke-linejoin: miter; stroke-linecap: square"/>
   </g>
   <g id="patch_4">
    <path d="M 366.912 145.150773
L 366.912 5.04
" style="fill: none; stroke: #000000; stroke-width: 0.7; stroke-linejoin: miter; stroke-linecap: square"/>
   </g>
   <g id="patch_5">
    <path d="M 37.44 145.150773
L 366.912 145.150773
" style="fill: none; stroke: #000000; stroke-width: 0.7; stroke-linejoin: miter; stroke-linecap: square"/>
   </g>
   <g id="patch_6">
    <path d="M 37.44 5.04
L 366.912 5.04
" style="fill: none; stroke: #000000; stroke-width: 0.7; stroke-linejoin: miter; stroke-linecap: square"/>
   </g>
   <g id="PathCollection_1">
    <defs>
     <path id="m36ad705280" d="M 0 2.915476
C 0.773193 2.915476 1.514823 2.608283 2.061553 2.061553
C 2.608283 1.514823 2.915476 0.773193 2.915476 0
C 2.915476 -0.773193 2.608283 -1.514823 2.061553 -2.061553
C 1.514823 -2.608283 0.773193 -2.915476 0 -2.915476
C -0.773193 -2.915476 -1.514823 -2.608283 -2.061553 -2.061553
C -2.608283 -1.514823 -2.915476 -0.773193 -2.915476 0
C -2.915476 0.773193 -2.608283 1.514823 -2.061553 2.061553
C -1.514823 2.608283 -0.773193 2.915476 0 2.915476
z
" style="stroke: #157a38"/>
    </defs>
    <g clip-path="url(#pc073d7d381)">
     <use xlink:href="#m36ad705280" x="88.3584" y="63.106165" style="fill: #1e9e48; stroke: #157a38"/>
     <use xlink:href="#m36ad705280" x="166.2336" y="27.245906" style="fill: #1e9e48; stroke: #157a38"/>
     <use xlink:href="#m36ad705280" x="268.0704" y="110.538791" style="fill: #1e9e48; stroke: #157a38"/>
    </g>
   </g>
   <g id="legend_1">
    <g id="patch_7">
     <path d="M 309.084187 12.742559
L 317.204187 12.742559
L 317.204187 8.682559
L 309.084187 8.682559
z
" style="fill: #1683a6; fill-opacity: 0.15"/>
    </g>
    <g id="text_7">
     <!-- Uncertainty -->
     <g transform="translate(321.844187 12.742559) scale(0.058 -0.058)">
      <defs>
       <path id="ArialMT-38" d="M 3500 4581
L 4106 4581
L 4106 1934
Q 4106 1244 3950 837
Q 3794 431 3386 176
Q 2978 -78 2316 -78
Q 1672 -78 1262 144
Q 853 366 678 786
Q 503 1206 503 1934
L 503 4581
L 1109 4581
L 1109 1938
Q 1109 1341 1220 1058
Q 1331 775 1601 622
Q 1872 469 2263 469
Q 2931 469 3215 772
Q 3500 1075 3500 1938
L 3500 4581
z
" transform="scale(0.015625)"/>
       <path id="ArialMT-51" d="M 422 0
L 422 3319
L 928 3319
L 928 2847
Q 1294 3394 1984 3394
Q 2284 3394 2536 3286
Q 2788 3178 2913 3003
Q 3038 2828 3088 2588
Q 3119 2431 3119 2041
L 3119 0
L 2556 0
L 2556 2019
Q 2556 2363 2490 2533
Q 2425 2703 2258 2804
Q 2091 2906 1866 2906
Q 1506 2906 1245 2678
Q 984 2450 984 1813
L 984 0
L 422 0
z
" transform="scale(0.015625)"/>
       <path id="ArialMT-55" d="M 416 0
L 416 3319
L 922 3319
L 922 2816
Q 1116 3169 1280 3281
Q 1444 3394 1641 3394
Q 1925 3394 2219 3213
L 2025 2691
Q 1819 2813 1613 2813
Q 1428 2813 1281 2702
Q 1134 2591 1072 2394
Q 978 2094 978 1738
L 978 0
L 416 0
z
" transform="scale(0.015625)"/>
       <path id="ArialMT-44" d="M 2588 409
Q 2275 144 1986 34
Q 1697 -75 1366 -75
Q 819 -75 525 192
Q 231 459 231 875
Q 231 1119 342 1320
Q 453 1522 633 1644
Q 813 1766 1038 1828
Q 1203 1872 1538 1913
Q 2219 1994 2541 2106
Q 2544 2222 2544 2253
Q 2544 2597 2384 2738
Q 2169 2928 1744 2928
Q 1347 2928 1158 2789
Q 969 2650 878 2297
L 328 2372
Q 403 2725 575 2942
Q 747 3159 1072 3276
Q 1397 3394 1825 3394
Q 2250 3394 2515 3294
Q 2781 3194 2906 3042
Q 3031 2891 3081 2659
Q 3109 2516 3109 2141
L 3109 1391
Q 3109 606 3145 398
Q 3181 191 3288 0
L 2700 0
Q 2613 175 2588 409
z
M 2541 1666
Q 2234 1541 1622 1453
Q 1275 1403 1131 1340
Q 988 1278 909 1158
Q 831 1038 831 891
Q 831 666 1001 516
Q 1172 366 1500 366
Q 1825 366 2078 508
Q 2331 650 2450 897
Q 2541 1088 2541 1459
L 2541 1666
z
" transform="scale(0.015625)"/>
       <path id="ArialMT-5c" d="M 397 -1278
L 334 -750
Q 519 -800 656 -800
Q 844 -800 956 -737
Q 1069 -675 1141 -563
Q 1194 -478 1313 -144
Q 1328 -97 1363 -6
L 103 3319
L 709 3319
L 1400 1397
Q 1534 1031 1641 628
Q 1738 1016 1872 1384
L 2581 3319
L 3144 3319
L 1881 -56
Q 1678 -603 1566 -809
Q 1416 -1088 1222 -1217
Q 1028 -1347 759 -1347
Q 597 -1347 397 -1278
z
" transform="scale(0.015625)"/>
      </defs>
      <use xlink:href="#ArialMT-38"/>
      <use xlink:href="#ArialMT-51" transform="translate(72.21875 0)"/>
      <use xlink:href="#ArialMT-46" transform="translate(127.828125 0)"/>
      <use xlink:href="#ArialMT-48" transform="translate(177.828125 0)"/>
      <use xlink:href="#ArialMT-55" transform="translate(233.4375 0)"/>
      <use xlink:href="#ArialMT-57" transform="translate(266.734375 0)"/>
      <use xlink:href="#ArialMT-44" transform="translate(294.515625 0)"/>
      <use xlink:href="#ArialMT-4c" transform="translate(350.125 0)"/>
      <use xlink:href="#ArialMT-51" transform="translate(372.34375 0)"/>
      <use xlink:href="#ArialMT-57" transform="translate(427.953125 0)"/>
      <use xlink:href="#ArialMT-5c" transform="translate(455.734375 0)"/>
     </g>
    </g>
    <g id="line2d_13">
     <path d="M 309.084187 18.185836
L 313.144187 18.185836
L 317.204187 18.185836
" style="fill: none; stroke: #1683a6; stroke-width: 1.8; stroke-linecap: square"/>
    </g>
    <g id="text_8">
     <!-- Surrogate mean -->
     <g transform="translate(321.844187 20.215836) scale(0.058 -0.058)">
      <defs>
       <path id="ArialMT-36" d="M 288 1472
L 859 1522
Q 900 1178 1048 958
Q 1197 738 1509 602
Q 1822 466 2213 466
Q 2559 466 2825 569
Q 3091 672 3220 851
Q 3350 1031 3350 1244
Q 3350 1459 3225 1620
Q 3100 1781 2813 1891
Q 2628 1963 1997 2114
Q 1366 2266 1113 2400
Q 784 2572 623 2826
Q 463 3081 463 3397
Q 463 3744 659 4045
Q 856 4347 1234 4503
Q 1613 4659 2075 4659
Q 2584 4659 2973 4495
Q 3363 4331 3572 4012
Q 3781 3694 3797 3291
L 3216 3247
Q 3169 3681 2898 3903
Q 2628 4125 2100 4125
Q 1550 4125 1298 3923
Q 1047 3722 1047 3438
Q 1047 3191 1225 3031
Q 1400 2872 2139 2705
Q 2878 2538 3153 2413
Q 3553 2228 3743 1945
Q 3934 1663 3934 1294
Q 3934 928 3725 604
Q 3516 281 3123 101
Q 2731 -78 2241 -78
Q 1619 -78 1198 103
Q 778 284 539 648
Q 300 1013 288 1472
z
" transform="scale(0.015625)"/>
       <path id="ArialMT-58" d="M 2597 0
L 2597 488
Q 2209 -75 1544 -75
Q 1250 -75 995 37
Q 741 150 617 320
Q 494 491 444 738
Q 409 903 409 1263
L 409 3319
L 972 3319
L 972 1478
Q 972 1038 1006 884
Q 1059 663 1231 536
Q 1403 409 1656 409
Q 1909 409 2131 539
Q 2353 669 2445 892
Q 2538 1116 2538 1541
L 2538 3319
L 3100 3319
L 3100 0
L 2597 0
z
" transform="scale(0.015625)"/>
       <path id="ArialMT-52" d="M 213 1659
Q 213 2581 725 3025
Q 1153 3394 1769 3394
Q 2453 3394 2887 2945
Q 3322 2497 3322 1706
Q 3322 1066 3130 698
Q 2938 331 2570 128
Q 2203 -75 1769 -75
Q 1072 -75 642 372
Q 213 819 213 1659
z
M 791 1659
Q 791 1022 1069 705
Q 1347 388 1769 388
Q 2188 388 2466 706
Q 2744 1025 2744 1678
Q 2744 2294 2464 2611
Q 2184 2928 1769 2928
Q 1347 2928 1069 2612
Q 791 2297 791 1659
z
" transform="scale(0.015625)"/>
       <path id="ArialMT-4a" d="M 319 -275
L 866 -356
Q 900 -609 1056 -725
Q 1266 -881 1628 -881
Q 2019 -881 2231 -725
Q 2444 -569 2519 -288
Q 2563 -116 2559 434
Q 2191 0 1641 0
Q 956 0 581 494
Q 206 988 206 1678
Q 206 2153 378 2554
Q 550 2956 876 3175
Q 1203 3394 1644 3394
Q 2231 3394 2613 2919
L 2613 3319
L 3131 3319
L 3131 450
Q 3131 -325 2973 -648
Q 2816 -972 2473 -1159
Q 2131 -1347 1631 -1347
Q 1038 -1347 672 -1080
Q 306 -813 319 -275
z
M 784 1719
Q 784 1066 1043 766
Q 1303 466 1694 466
Q 2081 466 2343 764
Q 2606 1063 2606 1700
Q 2606 2309 2336 2618
Q 2066 2928 1684 2928
Q 1309 2928 1046 2623
Q 784 2319 784 1719
z
" transform="scale(0.015625)"/>
       <path id="ArialMT-3" transform="scale(0.015625)"/>
       <path id="ArialMT-50" d="M 422 0
L 422 3319
L 925 3319
L 925 2853
Q 1081 3097 1340 3245
Q 1600 3394 1931 3394
Q 2300 3394 2536 3241
Q 2772 3088 2869 2813
Q 3263 3394 3894 3394
Q 4388 3394 4653 3120
Q 4919 2847 4919 2278
L 4919 0
L 4359 0
L 4359 2091
Q 4359 2428 4304 2576
Q 4250 2725 4106 2815
Q 3963 2906 3769 2906
Q 3419 2906 3187 2673
Q 2956 2441 2956 1928
L 2956 0
L 2394 0
L 2394 2156
Q 2394 2531 2256 2718
Q 2119 2906 1806 2906
Q 1569 2906 1367 2781
Q 1166 2656 1075 2415
Q 984 2175 984 1722
L 984 0
L 422 0
z
" transform="scale(0.015625)"/>
      </defs>
      <use xlink:href="#ArialMT-36"/>
      <use xlink:href="#ArialMT-58" transform="translate(66.703125 0)"/>
      <use xlink:href="#ArialMT-55" transform="translate(122.3125 0)"/>
      <use xlink:href="#ArialMT-55" transform="translate(155.609375 0)"/>
      <use xlink:href="#ArialMT-52" transform="translate(188.90625 0)"/>
      <use xlink:href="#ArialMT-4a" transform="translate(244.515625 0)"/>
      <use xlink:href="#ArialMT-44" transform="translate(300.125 0)"/>
      <use xlink:href="#ArialMT-57" transform="translate(355.734375 0)"/>
      <use xlink:href="#ArialMT-48" transform="translate(383.515625 0)"/>
      <use xlink:href="#ArialMT-3" transform="translate(439.125 0)"/>
      <use xlink:href="#ArialMT-50" transform="translate(466.90625 0)"/>
      <use xlink:href="#ArialMT-48" transform="translate(550.203125 0)"/>
      <use xlink:href="#ArialMT-44" transform="translate(605.8125 0)"/>
      <use xlink:href="#ArialMT-51" transform="translate(661.421875 0)"/>
     </g>
    </g>
    <g id="PathCollection_2">
     <g>
      <use xlink:href="#m36ad705280" x="313.144187" y="26.169898" style="fill: #1e9e48; stroke: #157a38"/>
     </g>
    </g>
    <g id="text_9">
     <!-- Observations -->
     <g transform="translate(321.844187 27.692398) scale(0.058 -0.058)">
      <defs>
       <path id="ArialMT-56" d="M 197 991
L 753 1078
Q 800 744 1014 566
Q 1228 388 1613 388
Q 2000 388 2187 545
Q 2375 703 2375 916
Q 2375 1106 2209 1216
Q 2094 1291 1634 1406
Q 1016 1563 777 1677
Q 538 1791 414 1992
Q 291 2194 291 2438
Q 291 2659 392 2848
Q 494 3038 669 3163
Q 800 3259 1026 3326
Q 1253 3394 1513 3394
Q 1903 3394 2198 3281
Q 2494 3169 2634 2976
Q 2775 2784 2828 2463
L 2278 2388
Q 2241 2644 2061 2787
Q 1881 2931 1553 2931
Q 1166 2931 1000 2803
Q 834 2675 834 2503
Q 834 2394 903 2306
Q 972 2216 1119 2156
Q 1203 2125 1616 2013
Q 2213 1853 2448 1751
Q 2684 1650 2818 1456
Q 2953 1263 2953 975
Q 2953 694 2789 445
Q 2625 197 2315 61
Q 2006 -75 1616 -75
Q 969 -75 630 194
Q 291 463 197 991
z
" transform="scale(0.015625)"/>
      </defs>
      <use xlink:href="#ArialMT-32"/>
      <use xlink:href="#ArialMT-45" transform="translate(77.78125 0)"/>
      <use xlink:href="#ArialMT-56" transform="translate(133.390625 0)"/>
      <use xlink:href="#ArialMT-48" transform="translate(183.390625 0)"/>
      <use xlink:href="#ArialMT-55" transform="translate(239 0)"/>
      <use xlink:href="#ArialMT-59" transform="translate(272.296875 0)"/>
      <use xlink:href="#ArialMT-44" transform="translate(322.296875 0)"/>
      <use xlink:href="#ArialMT-57" transform="translate(377.90625 0)"/>
      <use xlink:href="#ArialMT-4c" transform="translate(405.6875 0)"/>
      <use xlink:href="#ArialMT-52" transform="translate(427.90625 0)"/>
      <use xlink:href="#ArialMT-51" transform="translate(483.515625 0)"/>
      <use xlink:href="#ArialMT-56" transform="translate(539.125 0)"/>
     </g>
    </g>
   </g>
  </g>
  <g id="axes_2">
   <g id="patch_8">
    <path d="M 37.44 224.28
L 366.912 224.28
L 366.912 157.560584
L 37.44 157.560584
z
" style="fill: #ffffff"/>
   </g>
   <g id="FillBetweenPolyCollection_2">
    <defs>
     <path id="ma3d91f26b1" d="M 52.416 -76.289118
L 52.416 -30.752701
L 53.166677 -30.752701
L 53.917353 -30.752701
L 54.66803 -30.752701
L 55.418707 -30.752701
L 56.169383 -30.752701
L 56.92006 -30.752701
L 57.670737 -30.752701
L 58.421414 -30.752701
L 59.17209 -30.752701
L 59.922767 -30.752701
L 60.673444 -30.752701
L 61.42412 -30.752701
L 62.174797 -30.752701
L 62.925474 -30.752701
L 63.67615 -30.752701
L 64.426827 -30.752701
L 65.177504 -30.752701
L 65.92818 -30.752701
L 66.678857 -30.752701
L 67.429534 -30.752701
L 68.180211 -30.752701
L 68.930887 -30.752701
L 69.681564 -30.752701
L 70.432241 -30.752701
L 71.182917 -30.752701
L 71.933594 -30.752701
L 72.684271 -30.752701
L 73.434947 -30.752701
L 74.185624 -30.752701
L 74.936301 -30.752701
L 75.686977 -30.752701
L 76.437654 -30.752701
L 77.188331 -30.752701
L 77.939008 -30.752701
L 78.689684 -30.752701
L 79.440361 -30.752701
L 80.191038 -30.752701
L 80.941714 -30.752701
L 81.692391 -30.752701
L 82.443068 -30.752701
L 83.193744 -30.752701
L 83.944421 -30.752701
L 84.695098 -30.752701
L 85.445774 -30.752701
L 86.196451 -30.752701
L 86.947128 -30.752701
L 87.697805 -30.752701
L 88.448481 -30.752701
L 89.199158 -30.752701
L 89.949835 -30.752701
L 90.700511 -30.752701
L 91.451188 -30.752701
L 92.201865 -30.752701
L 92.952541 -30.752701
L 93.703218 -30.752701
L 94.453895 -30.752701
L 95.204571 -30.752701
L 95.955248 -30.752701
L 96.705925 -30.752701
L 97.456602 -30.752701
L 98.207278 -30.752701
L 98.957955 -30.752701
L 99.708632 -30.752701
L 100.459308 -30.752701
L 101.209985 -30.752701
L 101.960662 -30.752701
L 102.711338 -30.752701
L 103.462015 -30.752701
L 104.212692 -30.752701
L 104.963368 -30.752701
L 105.714045 -30.752701
L 106.464722 -30.752701
L 107.215398 -30.752701
L 107.966075 -30.752701
L 108.716752 -30.752701
L 109.467429 -30.752701
L 110.218105 -30.752701
L 110.968782 -30.752701
L 111.719459 -30.752701
L 112.470135 -30.752701
L 113.220812 -30.752701
L 113.971489 -30.752701
L 114.722165 -30.752701
L 115.472842 -30.752701
L 116.223519 -30.752701
L 116.974195 -30.752701
L 117.724872 -30.752701
L 118.475549 -30.752701
L 119.226226 -30.752701
L 119.976902 -30.752701
L 120.727579 -30.752701
L 121.478256 -30.752701
L 122.228932 -30.752701
L 122.979609 -30.752701
L 123.730286 -30.752701
L 124.480962 -30.752701
L 125.231639 -30.752701
L 125.982316 -30.752701
L 126.732992 -30.752701
L 127.483669 -30.752701
L 128.234346 -30.752701
L 128.985023 -30.752701
L 129.735699 -30.752701
L 130.486376 -30.752701
L 131.237053 -30.752701
L 131.987729 -30.752701
L 132.738406 -30.752701
L 133.489083 -30.752701
L 134.239759 -30.752701
L 134.990436 -30.752701
L 135.741113 -30.752701
L 136.491789 -30.752701
L 137.242466 -30.752701
L 137.993143 -30.752701
L 138.74382 -30.752701
L 139.494496 -30.752701
L 140.245173 -30.752701
L 140.99585 -30.752701
L 141.746526 -30.752701
L 142.497203 -30.752701
L 143.24788 -30.752701
L 143.998556 -30.752701
L 144.749233 -30.752701
L 145.49991 -30.752701
L 146.250586 -30.752701
L 147.001263 -30.752701
L 147.75194 -30.752701
L 148.502617 -30.752701
L 149.253293 -30.752701
L 150.00397 -30.752701
L 150.754647 -30.752701
L 151.505323 -30.752701
L 152.256 -30.752701
L 153.006677 -30.752701
L 153.757353 -30.752701
L 154.50803 -30.752701
L 155.258707 -30.752701
L 156.009383 -30.752701
L 156.76006 -30.752701
L 157.510737 -30.752701
L 158.261414 -30.752701
L 159.01209 -30.752701
L 159.762767 -30.752701
L 160.513444 -30.752701
L 161.26412 -30.752701
L 162.014797 -30.752701
L 162.765474 -30.752701
L 163.51615 -30.752701
L 164.266827 -30.752701
L 165.017504 -30.752701
L 165.76818 -30.752701
L 166.518857 -30.752701
L 167.269534 -30.752701
L 168.020211 -30.752701
L 168.770887 -30.752701
L 169.521564 -30.752701
L 170.272241 -30.752701
L 171.022917 -30.752701
L 171.773594 -30.752701
L 172.524271 -30.752701
L 173.274947 -30.752701
L 174.025624 -30.752701
L 174.776301 -30.752701
L 175.526977 -30.752701
L 176.277654 -30.752701
L 177.028331 -30.752701
L 177.779008 -30.752701
L 178.529684 -30.752701
L 179.280361 -30.752701
L 180.031038 -30.752701
L 180.781714 -30.752701
L 181.532391 -30.752701
L 182.283068 -30.752701
L 183.033744 -30.752701
L 183.784421 -30.752701
L 184.535098 -30.752701
L 185.285774 -30.752701
L 186.036451 -30.752701
L 186.787128 -30.752701
L 187.537805 -30.752701
L 188.288481 -30.752701
L 189.039158 -30.752701
L 189.789835 -30.752701
L 190.540511 -30.752701
L 191.291188 -30.752701
L 192.041865 -30.752701
L 192.792541 -30.752701
L 193.543218 -30.752701
L 194.293895 -30.752701
L 195.044571 -30.752701
L 195.795248 -30.752701
L 196.545925 -30.752701
L 197.296602 -30.752701
L 198.047278 -30.752701
L 198.797955 -30.752701
L 199.548632 -30.752701
L 200.299308 -30.752701
L 201.049985 -30.752701
L 201.800662 -30.752701
L 202.551338 -30.752701
L 203.302015 -30.752701
L 204.052692 -30.752701
L 204.803368 -30.752701
L 205.554045 -30.752701
L 206.304722 -30.752701
L 207.055398 -30.752701
L 207.806075 -30.752701
L 208.556752 -30.752701
L 209.307429 -30.752701
L 210.058105 -30.752701
L 210.808782 -30.752701
L 211.559459 -30.752701
L 212.310135 -30.752701
L 213.060812 -30.752701
L 213.811489 -30.752701
L 214.562165 -30.752701
L 215.312842 -30.752701
L 216.063519 -30.752701
L 216.814195 -30.752701
L 217.564872 -30.752701
L 218.315549 -30.752701
L 219.066226 -30.752701
L 219.816902 -30.752701
L 220.567579 -30.752701
L 221.318256 -30.752701
L 222.068932 -30.752701
L 222.819609 -30.752701
L 223.570286 -30.752701
L 224.320962 -30.752701
L 225.071639 -30.752701
L 225.822316 -30.752701
L 226.572992 -30.752701
L 227.323669 -30.752701
L 228.074346 -30.752701
L 228.825023 -30.752701
L 229.575699 -30.752701
L 230.326376 -30.752701
L 231.077053 -30.752701
L 231.827729 -30.752701
L 232.578406 -30.752701
L 233.329083 -30.752701
L 234.079759 -30.752701
L 234.830436 -30.752701
L 235.581113 -30.752701
L 236.331789 -30.752701
L 237.082466 -30.752701
L 237.833143 -30.752701
L 238.58382 -30.752701
L 239.334496 -30.752701
L 240.085173 -30.752701
L 240.83585 -30.752701
L 241.586526 -30.752701
L 242.337203 -30.752701
L 243.08788 -30.752701
L 243.838556 -30.752701
L 244.589233 -30.752701
L 245.33991 -30.752701
L 246.090586 -30.752701
L 246.841263 -30.752701
L 247.59194 -30.752701
L 248.342617 -30.752701
L 249.093293 -30.752701
L 249.84397 -30.752701
L 250.594647 -30.752701
L 251.345323 -30.752701
L 252.096 -30.752701
L 252.846677 -30.752701
L 253.597353 -30.752701
L 254.34803 -30.752701
L 255.098707 -30.752701
L 255.849383 -30.752701
L 256.60006 -30.752701
L 257.350737 -30.752701
L 258.101414 -30.752701
L 258.85209 -30.752701
L 259.602767 -30.752701
L 260.353444 -30.752701
L 261.10412 -30.752701
L 261.854797 -30.752701
L 262.605474 -30.752701
L 263.35615 -30.752701
L 264.106827 -30.752701
L 264.857504 -30.752701
L 265.60818 -30.752701
L 266.358857 -30.752701
L 267.109534 -30.752701
L 267.860211 -30.752701
L 268.610887 -30.752701
L 269.361564 -30.752701
L 270.112241 -30.752701
L 270.862917 -30.752701
L 271.613594 -30.752701
L 272.364271 -30.752701
L 273.114947 -30.752701
L 273.865624 -30.752701
L 274.616301 -30.752701
L 275.366977 -30.752701
L 276.117654 -30.752701
L 276.868331 -30.752701
L 277.619008 -30.752701
L 278.369684 -30.752701
L 279.120361 -30.752701
L 279.871038 -30.752701
L 280.621714 -30.752701
L 281.372391 -30.752701
L 282.123068 -30.752701
L 282.873744 -30.752701
L 283.624421 -30.752701
L 284.375098 -30.752701
L 285.125774 -30.752701
L 285.876451 -30.752701
L 286.627128 -30.752701
L 287.377805 -30.752701
L 288.128481 -30.752701
L 288.879158 -30.752701
L 289.629835 -30.752701
L 290.380511 -30.752701
L 291.131188 -30.752701
L 291.881865 -30.752701
L 292.632541 -30.752701
L 293.383218 -30.752701
L 294.133895 -30.752701
L 294.884571 -30.752701
L 295.635248 -30.752701
L 296.385925 -30.752701
L 297.136602 -30.752701
L 297.887278 -30.752701
L 298.637955 -30.752701
L 299.388632 -30.752701
L 300.139308 -30.752701
L 300.889985 -30.752701
L 301.640662 -30.752701
L 302.391338 -30.752701
L 303.142015 -30.752701
L 303.892692 -30.752701
L 304.643368 -30.752701
L 305.394045 -30.752701
L 306.144722 -30.752701
L 306.895398 -30.752701
L 307.646075 -30.752701
L 308.396752 -30.752701
L 309.147429 -30.752701
L 309.898105 -30.752701
L 310.648782 -30.752701
L 311.399459 -30.752701
L 312.150135 -30.752701
L 312.900812 -30.752701
L 313.651489 -30.752701
L 314.402165 -30.752701
L 315.152842 -30.752701
L 315.903519 -30.752701
L 316.654195 -30.752701
L 317.404872 -30.752701
L 318.155549 -30.752701
L 318.906226 -30.752701
L 319.656902 -30.752701
L 320.407579 -30.752701
L 321.158256 -30.752701
L 321.908932 -30.752701
L 322.659609 -30.752701
L 323.410286 -30.752701
L 324.160962 -30.752701
L 324.911639 -30.752701
L 325.662316 -30.752701
L 326.412992 -30.752701
L 327.163669 -30.752701
L 327.914346 -30.752701
L 328.665023 -30.752701
L 329.415699 -30.752701
L 330.166376 -30.752701
L 330.917053 -30.752701
L 331.667729 -30.752701
L 332.418406 -30.752701
L 333.169083 -30.752701
L 333.919759 -30.752701
L 334.670436 -30.752701
L 335.421113 -30.752701
L 336.171789 -30.752701
L 336.922466 -30.752701
L 337.673143 -30.752701
L 338.42382 -30.752701
L 339.174496 -30.752701
L 339.925173 -30.752701
L 340.67585 -30.752701
L 341.426526 -30.752701
L 342.177203 -30.752701
L 342.92788 -30.752701
L 343.678556 -30.752701
L 344.429233 -30.752701
L 345.17991 -30.752701
L 345.930586 -30.752701
L 346.681263 -30.752701
L 347.43194 -30.752701
L 348.182617 -30.752701
L 348.933293 -30.752701
L 349.68397 -30.752701
L 350.434647 -30.752701
L 351.185323 -30.752701
L 351.936 -30.752701
L 351.936 -91.406715
L 351.936 -91.406715
L 351.185323 -91.354044
L 350.434647 -91.297529
L 349.68397 -91.236935
L 348.933293 -91.172015
L 348.182617 -91.102514
L 347.43194 -91.028165
L 346.681263 -90.948688
L 345.930586 -90.863795
L 345.17991 -90.773185
L 344.429233 -90.676548
L 343.678556 -90.573562
L 342.92788 -90.463893
L 342.177203 -90.347199
L 341.426526 -90.223125
L 340.67585 -90.091307
L 339.925173 -89.951372
L 339.174496 -89.802935
L 338.42382 -89.645605
L 337.673143 -89.47898
L 336.922466 -89.302652
L 336.171789 -89.116204
L 335.421113 -88.919213
L 334.670436 -88.711251
L 333.919759 -88.491885
L 333.169083 -88.260676
L 332.418406 -88.017186
L 331.667729 -87.760972
L 330.917053 -87.491591
L 330.166376 -87.208602
L 329.415699 -86.911567
L 328.665023 -86.600048
L 327.914346 -86.273616
L 327.163669 -85.931848
L 326.412992 -85.574328
L 325.662316 -85.200652
L 324.911639 -84.810427
L 324.160962 -84.403275
L 323.410286 -83.978835
L 322.659609 -83.536762
L 321.908932 -83.076733
L 321.158256 -82.598448
L 320.407579 -82.101629
L 319.656902 -81.586028
L 318.906226 -81.051423
L 318.155549 -80.497627
L 317.404872 -79.924484
L 316.654195 -79.331875
L 315.903519 -78.719718
L 315.152842 -78.087973
L 314.402165 -77.436641
L 313.651489 -76.765769
L 312.900812 -76.07545
L 312.150135 -75.365825
L 311.399459 -74.637086
L 310.648782 -73.889479
L 309.898105 -73.123302
L 309.147429 -72.338908
L 308.396752 -71.536709
L 307.646075 -70.717173
L 306.895398 -69.88083
L 306.144722 -69.028267
L 305.394045 -68.160134
L 304.643368 -67.27714
L 303.892692 -66.380059
L 303.142015 -65.469722
L 302.391338 -64.547026
L 301.640662 -63.612925
L 300.889985 -62.668437
L 300.139308 -61.714635
L 299.388632 -60.752654
L 298.637955 -59.783684
L 297.887278 -58.808969
L 297.136602 -57.829807
L 296.385925 -56.847548
L 295.635248 -55.863586
L 294.884571 -54.879364
L 294.133895 -53.896366
L 293.383218 -52.916114
L 292.632541 -51.940168
L 291.881865 -50.970115
L 291.131188 -50.007575
L 290.380511 -49.054186
L 289.629835 -48.111609
L 288.879158 -47.181517
L 288.128481 -46.265592
L 287.377805 -45.365524
L 286.627128 -44.482997
L 285.876451 -43.619696
L 285.125774 -42.777289
L 284.375098 -41.957431
L 283.624421 -41.161755
L 282.873744 -40.391868
L 282.123068 -39.649343
L 281.372391 -38.935717
L 280.621714 -38.252484
L 279.871038 -37.60109
L 279.120361 -36.982927
L 278.369684 -36.399331
L 277.619008 -35.851574
L 276.868331 -35.340862
L 276.117654 -34.868329
L 275.366977 -34.435033
L 274.616301 -34.041954
L 273.865624 -33.689986
L 273.114947 -33.379939
L 272.364271 -33.112533
L 271.613594 -32.888396
L 270.862917 -32.70806
L 270.112241 -32.571962
L 269.361564 -32.48044
L 268.610887 -32.433734
L 267.860211 -32.431983
L 267.109534 -32.475222
L 266.358857 -32.56339
L 265.60818 -32.696321
L 264.857504 -32.873751
L 264.106827 -33.095316
L 263.35615 -33.360554
L 262.605474 -33.668907
L 261.854797 -34.019722
L 261.10412 -34.412255
L 260.353444 -34.845674
L 259.602767 -35.319058
L 258.85209 -35.831406
L 258.101414 -36.381636
L 257.350737 -36.968592
L 256.60006 -37.591046
L 255.849383 -38.247704
L 255.098707 -38.937208
L 254.34803 -39.658144
L 253.597353 -40.409045
L 252.846677 -41.188393
L 252.096 -41.994632
L 251.345323 -42.826164
L 250.594647 -43.681361
L 249.84397 -44.558565
L 249.093293 -45.456097
L 248.342617 -46.372261
L 247.59194 -47.305349
L 246.841263 -48.253644
L 246.090586 -49.215429
L 245.33991 -50.188988
L 244.589233 -51.172614
L 243.838556 -52.164609
L 243.08788 -53.163293
L 242.337203 -54.167008
L 241.586526 -55.174118
L 240.83585 -56.183016
L 240.085173 -57.192126
L 239.334496 -58.199909
L 238.58382 -59.204862
L 237.833143 -60.205525
L 237.082466 -61.200483
L 236.331789 -62.188363
L 235.581113 -63.167844
L 234.830436 -64.137656
L 234.079759 -65.096578
L 233.329083 -66.043444
L 232.578406 -66.977145
L 231.827729 -67.896623
L 231.077053 -68.800882
L 230.326376 -69.688978
L 229.575699 -70.560029
L 228.825023 -71.413207
L 228.074346 -72.247744
L 227.323669 -73.062929
L 226.572992 -73.858105
L 225.822316 -74.632677
L 225.071639 -75.386101
L 224.320962 -76.11789
L 223.570286 -76.827612
L 222.819609 -77.514887
L 222.068932 -78.179385
L 221.318256 -78.820832
L 220.567579 -79.438998
L 219.816902 -80.033706
L 219.066226 -80.604821
L 218.315549 -81.152259
L 217.564872 -81.675974
L 216.814195 -82.175968
L 216.063519 -82.65228
L 215.312842 -83.104992
L 214.562165 -83.534221
L 213.811489 -83.940123
L 213.060812 -84.322889
L 212.310135 -84.682741
L 211.559459 -85.019937
L 210.808782 -85.334764
L 210.058105 -85.627539
L 209.307429 -85.898607
L 208.556752 -86.148341
L 207.806075 -86.377138
L 207.055398 -86.585421
L 206.304722 -86.773635
L 205.554045 -86.942247
L 204.803368 -87.091747
L 204.052692 -87.222641
L 203.302015 -87.335456
L 202.551338 -87.430735
L 201.800662 -87.50904
L 201.049985 -87.570944
L 200.299308 -87.617037
L 199.548632 -87.647922
L 198.797955 -87.664211
L 198.047278 -87.666531
L 197.296602 -87.655516
L 196.545925 -87.631807
L 195.795248 -87.596057
L 195.044571 -87.54892
L 194.293895 -87.491059
L 193.543218 -87.423138
L 192.792541 -87.345826
L 192.041865 -87.25979
L 191.291188 -87.165701
L 190.540511 -87.064226
L 189.789835 -86.956029
L 189.039158 -86.84177
L 188.288481 -86.722107
L 187.537805 -86.597685
L 186.787128 -86.469146
L 186.036451 -86.337119
L 185.285774 -86.202222
L 184.535098 -86.065061
L 183.784421 -85.926227
L 183.033744 -85.786295
L 182.283068 -85.645823
L 181.532391 -85.505349
L 180.781714 -85.365391
L 180.031038 -85.226445
L 179.280361 -85.088983
L 178.529684 -84.953454
L 177.779008 -84.820278
L 177.028331 -84.689849
L 176.277654 -84.562532
L 175.526977 -84.43866
L 174.776301 -84.318538
L 174.025624 -84.202434
L 173.274947 -84.090587
L 172.524271 -83.983199
L 171.773594 -83.880437
L 171.022917 -83.782433
L 170.272241 -83.689281
L 169.521564 -83.60104
L 168.770887 -83.517728
L 168.020211 -83.43933
L 167.269534 -83.365789
L 166.518857 -83.297012
L 165.76818 -83.232868
L 165.017504 -83.173189
L 164.266827 -83.117769
L 163.51615 -83.066367
L 162.765474 -83.018705
L 162.014797 -82.97447
L 161.26412 -82.933318
L 160.513444 -82.894869
L 159.762767 -82.858712
L 159.01209 -82.824409
L 158.261414 -82.791491
L 157.510737 -82.759463
L 156.76006 -82.727807
L 156.009383 -82.695981
L 155.258707 -82.663422
L 154.50803 -82.62955
L 153.757353 -82.59377
L 153.006677 -82.555472
L 152.256 -82.514035
L 151.505323 -82.468833
L 150.754647 -82.419231
L 150.00397 -82.364594
L 149.253293 -82.304288
L 148.502617 -82.237681
L 147.75194 -82.164148
L 147.001263 -82.083075
L 146.250586 -81.993858
L 145.49991 -81.895912
L 144.749233 -81.788669
L 143.998556 -81.671583
L 143.24788 -81.544135
L 142.497203 -81.405833
L 141.746526 -81.256214
L 140.99585 -81.094854
L 140.245173 -80.921361
L 139.494496 -80.735385
L 138.74382 -80.536618
L 137.993143 -80.324797
L 137.242466 -80.099706
L 136.491789 -79.861176
L 135.741113 -79.609092
L 134.990436 -79.343392
L 134.239759 -79.064066
L 133.489083 -78.771164
L 132.738406 -78.464789
L 131.987729 -78.145106
L 131.237053 -77.812336
L 130.486376 -77.466762
L 129.735699 -77.108722
L 128.985023 -76.738618
L 128.234346 -76.356908
L 127.483669 -75.964107
L 126.732992 -75.560789
L 125.982316 -75.147582
L 125.231639 -74.725167
L 124.480962 -74.294278
L 123.730286 -73.855697
L 122.979609 -73.410253
L 122.228932 -72.958818
L 121.478256 -72.502304
L 120.727579 -72.041659
L 119.976902 -71.577865
L 119.226226 -71.111932
L 118.475549 -70.644894
L 117.724872 -70.177804
L 116.974195 -69.711732
L 116.223519 -69.247756
L 115.472842 -68.78696
L 114.722165 -68.330429
L 113.971489 -67.879242
L 113.220812 -67.434467
L 112.470135 -66.997158
L 111.719459 -66.568349
L 110.968782 -66.149047
L 110.218105 -65.74023
L 109.467429 -65.342841
L 108.716752 -64.957783
L 107.966075 -64.585917
L 107.215398 -64.228053
L 106.464722 -63.884956
L 105.714045 -63.55733
L 104.963368 -63.245827
L 104.212692 -62.951038
L 103.462015 -62.67349
L 102.711338 -62.413651
L 101.960662 -62.171921
L 101.209985 -61.948637
L 100.459308 -61.744072
L 99.708632 -61.558432
L 98.957955 -61.391859
L 98.207278 -61.244435
L 97.456602 -61.116179
L 96.705925 -61.007051
L 95.955248 -60.916956
L 95.204571 -60.845744
L 94.453895 -60.793216
L 93.703218 -60.759126
L 92.952541 -60.743185
L 92.201865 -60.745066
L 91.451188 -60.764406
L 90.700511 -60.800813
L 89.949835 -60.853868
L 89.199158 -60.923132
L 88.448481 -61.008148
L 87.697805 -61.108445
L 86.947128 -61.223547
L 86.196451 -61.35297
L 85.445774 -61.496231
L 84.695098 -61.65285
L 83.944421 -61.822354
L 83.193744 -62.004277
L 82.443068 -62.198168
L 81.692391 -62.403588
L 80.941714 -62.620116
L 80.191038 -62.847348
L 79.440361 -63.084899
L 78.689684 -63.332404
L 77.939008 -63.589519
L 77.188331 -63.855919
L 76.437654 -64.131298
L 75.686977 -64.415373
L 74.936301 -64.707875
L 74.185624 -65.008554
L 73.434947 -65.317175
L 72.684271 -65.633516
L 71.933594 -65.957366
L 71.182917 -66.288523
L 70.432241 -66.626795
L 69.681564 -66.97199
L 68.930887 -67.323922
L 68.180211 -67.682402
L 67.429534 -68.04724
L 66.678857 -68.418242
L 65.92818 -68.795204
L 65.177504 -69.177915
L 64.426827 -69.566153
L 63.67615 -69.959683
L 62.925474 -70.358256
L 62.174797 -70.761607
L 61.42412 -71.169457
L 60.673444 -71.581506
L 59.922767 -71.997441
L 59.17209 -72.416928
L 58.421414 -72.839617
L 57.670737 -73.265142
L 56.92006 -73.693117
L 56.169383 -74.123144
L 55.418707 -74.554808
L 54.66803 -74.987682
L 53.917353 -75.421326
L 53.166677 -75.85529
L 52.416 -76.289118
z
"/>
    </defs>
    <g clip-path="url(#pd3fbb75f33)">
     <use xlink:href="#ma3d91f26b1" x="0" y="252" style="fill: #e68a17; fill-opacity: 0.18"/>
    </g>
   </g>
   <g id="matplotlib.axis_3">
    <g id="xtick_7">
     <g id="line2d_14">
      <g>
       <use xlink:href="#m1a1f1398d2" x="52.416" y="224.28" style="stroke: #000000; stroke-width: 0.6"/>
      </g>
     </g>
     <g id="text_10">
      <!-- 0 -->
      <g transform="translate(50.747719 234.648164) scale(0.06 -0.06)">
       <use xlink:href="#ArialMT-13"/>
      </g>
     </g>
    </g>
    <g id="xtick_8">
     <g id="line2d_15">
      <g>
       <use xlink:href="#m1a1f1398d2" x="112.32" y="224.28" style="stroke: #000000; stroke-width: 0.6"/>
      </g>
     </g>
     <g id="text_11">
      <!-- 2 -->
      <g transform="translate(110.651719 234.648164) scale(0.06 -0.06)">
       <defs>
        <path id="ArialMT-15" d="M 3222 541
L 3222 0
L 194 0
Q 188 203 259 391
Q 375 700 629 1000
Q 884 1300 1366 1694
Q 2113 2306 2375 2664
Q 2638 3022 2638 3341
Q 2638 3675 2398 3904
Q 2159 4134 1775 4134
Q 1369 4134 1125 3890
Q 881 3647 878 3216
L 300 3275
Q 359 3922 746 4261
Q 1134 4600 1788 4600
Q 2447 4600 2831 4234
Q 3216 3869 3216 3328
Q 3216 3053 3103 2787
Q 2991 2522 2730 2228
Q 2469 1934 1863 1422
Q 1356 997 1212 845
Q 1069 694 975 541
L 3222 541
z
" transform="scale(0.015625)"/>
       </defs>
       <use xlink:href="#ArialMT-15"/>
      </g>
     </g>
    </g>
    <g id="xtick_9">
     <g id="line2d_16">
      <g>
       <use xlink:href="#m1a1f1398d2" x="172.224" y="224.28" style="stroke: #000000; stroke-width: 0.6"/>
      </g>
     </g>
     <g id="text_12">
      <!-- 4 -->
      <g transform="translate(170.555719 234.648164) scale(0.06 -0.06)">
       <defs>
        <path id="ArialMT-17" d="M 2069 0
L 2069 1097
L 81 1097
L 81 1613
L 2172 4581
L 2631 4581
L 2631 1613
L 3250 1613
L 3250 1097
L 2631 1097
L 2631 0
L 2069 0
z
M 2069 1613
L 2069 3678
L 634 1613
L 2069 1613
z
" transform="scale(0.015625)"/>
       </defs>
       <use xlink:href="#ArialMT-17"/>
      </g>
     </g>
    </g>
    <g id="xtick_10">
     <g id="line2d_17">
      <g>
       <use xlink:href="#m1a1f1398d2" x="232.128" y="224.28" style="stroke: #000000; stroke-width: 0.6"/>
      </g>
     </g>
     <g id="text_13">
      <!-- 6 -->
      <g transform="translate(230.459719 234.648164) scale(0.06 -0.06)">
       <defs>
        <path id="ArialMT-19" d="M 3184 3459
L 2625 3416
Q 2550 3747 2413 3897
Q 2184 4138 1850 4138
Q 1581 4138 1378 3988
Q 1113 3794 959 3422
Q 806 3050 800 2363
Q 1003 2672 1297 2822
Q 1591 2972 1913 2972
Q 2475 2972 2870 2558
Q 3266 2144 3266 1488
Q 3266 1056 3080 686
Q 2894 316 2569 119
Q 2244 -78 1831 -78
Q 1128 -78 684 439
Q 241 956 241 2144
Q 241 3472 731 4075
Q 1159 4600 1884 4600
Q 2425 4600 2770 4297
Q 3116 3994 3184 3459
z
M 888 1484
Q 888 1194 1011 928
Q 1134 663 1356 523
Q 1578 384 1822 384
Q 2178 384 2434 671
Q 2691 959 2691 1453
Q 2691 1928 2437 2201
Q 2184 2475 1800 2475
Q 1419 2475 1153 2201
Q 888 1928 888 1484
z
" transform="scale(0.015625)"/>
       </defs>
       <use xlink:href="#ArialMT-19"/>
      </g>
     </g>
    </g>
    <g id="xtick_11">
     <g id="line2d_18">
      <g>
       <use xlink:href="#m1a1f1398d2" x="292.032" y="224.28" style="stroke: #000000; stroke-width: 0.6"/>
      </g>
     </g>
     <g id="text_14">
      <!-- 8 -->
      <g transform="translate(290.363719 234.648164) scale(0.06 -0.06)">
       <defs>
        <path id="ArialMT-1b" d="M 1131 2484
Q 781 2613 612 2850
Q 444 3088 444 3419
Q 444 3919 803 4259
Q 1163 4600 1759 4600
Q 2359 4600 2725 4251
Q 3091 3903 3091 3403
Q 3091 3084 2923 2848
Q 2756 2613 2416 2484
Q 2838 2347 3058 2040
Q 3278 1734 3278 1309
Q 3278 722 2862 322
Q 2447 -78 1769 -78
Q 1091 -78 675 323
Q 259 725 259 1325
Q 259 1772 486 2073
Q 713 2375 1131 2484
z
M 1019 3438
Q 1019 3113 1228 2906
Q 1438 2700 1772 2700
Q 2097 2700 2305 2904
Q 2513 3109 2513 3406
Q 2513 3716 2298 3927
Q 2084 4138 1766 4138
Q 1444 4138 1231 3931
Q 1019 3725 1019 3438
z
M 838 1322
Q 838 1081 952 856
Q 1066 631 1291 507
Q 1516 384 1775 384
Q 2178 384 2440 643
Q 2703 903 2703 1303
Q 2703 1709 2433 1975
Q 2163 2241 1756 2241
Q 1359 2241 1098 1978
Q 838 1716 838 1322
z
" transform="scale(0.015625)"/>
       </defs>
       <use xlink:href="#ArialMT-1b"/>
      </g>
     </g>
    </g>
    <g id="xtick_12">
     <g id="line2d_19">
      <g>
       <use xlink:href="#m1a1f1398d2" x="351.936" y="224.28" style="stroke: #000000; stroke-width: 0.6"/>
      </g>
     </g>
     <g id="text_15">
      <!-- 10 -->
      <g transform="translate(348.599438 234.648164) scale(0.06 -0.06)">
       <use xlink:href="#ArialMT-14"/>
       <use xlink:href="#ArialMT-13" transform="translate(55.609375 0)"/>
      </g>
     </g>
    </g>
    <g id="text_16">
     <!-- Design space (one parameter) -->
     <g transform="translate(156.256344 244.861445) scale(0.068 -0.068)">
      <defs>
       <path id="ArialMT-27" d="M 494 0
L 494 4581
L 2072 4581
Q 2606 4581 2888 4516
Q 3281 4425 3559 4188
Q 3922 3881 4101 3404
Q 4281 2928 4281 2316
Q 4281 1794 4159 1391
Q 4038 988 3847 723
Q 3656 459 3429 307
Q 3203 156 2883 78
Q 2563 0 2147 0
L 494 0
z
M 1100 541
L 2078 541
Q 2531 541 2789 625
Q 3047 709 3200 863
Q 3416 1078 3536 1442
Q 3656 1806 3656 2325
Q 3656 3044 3420 3430
Q 3184 3816 2847 3947
Q 2603 4041 2063 4041
L 1100 4041
L 1100 541
z
" transform="scale(0.015625)"/>
       <path id="ArialMT-53" d="M 422 -1272
L 422 3319
L 934 3319
L 934 2888
Q 1116 3141 1344 3267
Q 1572 3394 1897 3394
Q 2322 3394 2647 3175
Q 2972 2956 3137 2557
Q 3303 2159 3303 1684
Q 3303 1175 3120 767
Q 2938 359 2589 142
Q 2241 -75 1856 -75
Q 1575 -75 1351 44
Q 1128 163 984 344
L 984 -1272
L 422 -1272
z
M 931 1641
Q 931 1000 1190 694
Q 1450 388 1819 388
Q 2194 388 2461 705
Q 2728 1022 2728 1688
Q 2728 2322 2467 2637
Q 2206 2953 1844 2953
Q 1484 2953 1207 2617
Q 931 2281 931 1641
z
" transform="scale(0.015625)"/>
       <path id="ArialMT-b" d="M 1497 -1347
Q 1031 -759 709 28
Q 388 816 388 1659
Q 388 2403 628 3084
Q 909 3875 1497 4659
L 1900 4659
Q 1522 4009 1400 3731
Q 1209 3300 1100 2831
Q 966 2247 966 1656
Q 966 153 1900 -1347
L 1497 -1347
z
" transform="scale(0.015625)"/>
       <path id="ArialMT-c" d="M 791 -1347
L 388 -1347
Q 1322 153 1322 1656
Q 1322 2244 1188 2822
Q 1081 3291 891 3722
Q 769 4003 388 4659
L 791 4659
Q 1378 3875 1659 3084
Q 1900 2403 1900 1659
Q 1900 816 1576 28
Q 1253 -759 791 -1347
z
" transform="scale(0.015625)"/>
      </defs>
      <use xlink:href="#ArialMT-27"/>
      <use xlink:href="#ArialMT-48" transform="translate(72.21875 0)"/>
      <use xlink:href="#ArialMT-56" transform="translate(127.828125 0)"/>
      <use xlink:href="#ArialMT-4c" transform="translate(177.828125 0)"/>
      <use xlink:href="#ArialMT-4a" transform="translate(200.046875 0)"/>
      <use xlink:href="#ArialMT-51" transform="translate(255.65625 0)"/>
      <use xlink:href="#ArialMT-3" transform="translate(311.265625 0)"/>
      <use xlink:href="#ArialMT-56" transform="translate(339.046875 0)"/>
      <use xlink:href="#ArialMT-53" transform="translate(389.046875 0)"/>
      <use xlink:href="#ArialMT-44" transform="translate(444.65625 0)"/>
      <use xlink:href="#ArialMT-46" transform="translate(500.265625 0)"/>
      <use xlink:href="#ArialMT-48" transform="translate(550.265625 0)"/>
      <use xlink:href="#ArialMT-3" transform="translate(605.875 0)"/>
      <use xlink:href="#ArialMT-b" transform="translate(633.65625 0)"/>
      <use xlink:href="#ArialMT-52" transform="translate(666.953125 0)"/>
      <use xlink:href="#ArialMT-51" transform="translate(722.5625 0)"/>
      <use xlink:href="#ArialMT-48" transform="translate(778.171875 0)"/>
      <use xlink:href="#ArialMT-3" transform="translate(833.78125 0)"/>
      <use xlink:href="#ArialMT-53" transform="translate(861.5625 0)"/>
      <use xlink:href="#ArialMT-44" transform="translate(917.171875 0)"/>
      <use xlink:href="#ArialMT-55" transform="translate(972.78125 0)"/>
      <use xlink:href="#ArialMT-44" transform="translate(1006.078125 0)"/>
      <use xlink:href="#ArialMT-50" transform="translate(1061.6875 0)"/>
      <use xlink:href="#ArialMT-48" transform="translate(1144.984375 0)"/>
      <use xlink:href="#ArialMT-57" transform="translate(1200.59375 0)"/>
      <use xlink:href="#ArialMT-48" transform="translate(1228.375 0)"/>
      <use xlink:href="#ArialMT-55" transform="translate(1283.984375 0)"/>
      <use xlink:href="#ArialMT-c" transform="translate(1317.28125 0)"/>
     </g>
    </g>
   </g>
   <g id="matplotlib.axis_4">
    <g id="text_17">
     <!-- Acquisition -->
     <g transform="translate(32.008945 207.361948) rotate(-90) scale(0.068 -0.068)">
      <defs>
       <path id="ArialMT-24" d="M -9 0
L 1750 4581
L 2403 4581
L 4278 0
L 3588 0
L 3053 1388
L 1138 1388
L 634 0
L -9 0
z
M 1313 1881
L 2866 1881
L 2388 3150
Q 2169 3728 2063 4100
Q 1975 3659 1816 3225
L 1313 1881
z
" transform="scale(0.015625)"/>
       <path id="ArialMT-54" d="M 2538 -1272
L 2538 353
Q 2406 169 2170 47
Q 1934 -75 1669 -75
Q 1078 -75 651 397
Q 225 869 225 1691
Q 225 2191 398 2587
Q 572 2984 901 3189
Q 1231 3394 1625 3394
Q 2241 3394 2594 2875
L 2594 3319
L 3100 3319
L 3100 -1272
L 2538 -1272
z
M 803 1669
Q 803 1028 1072 708
Q 1341 388 1716 388
Q 2075 388 2334 692
Q 2594 997 2594 1619
Q 2594 2281 2320 2615
Q 2047 2950 1678 2950
Q 1313 2950 1058 2639
Q 803 2328 803 1669
z
" transform="scale(0.015625)"/>
      </defs>
      <use xlink:href="#ArialMT-24"/>
      <use xlink:href="#ArialMT-46" transform="translate(66.703125 0)"/>
      <use xlink:href="#ArialMT-54" transform="translate(116.703125 0)"/>
      <use xlink:href="#ArialMT-58" transform="translate(172.3125 0)"/>
      <use xlink:href="#ArialMT-4c" transform="translate(227.921875 0)"/>
      <use xlink:href="#ArialMT-56" transform="translate(250.140625 0)"/>
      <use xlink:href="#ArialMT-4c" transform="translate(300.140625 0)"/>
      <use xlink:href="#ArialMT-57" transform="translate(322.359375 0)"/>
      <use xlink:href="#ArialMT-4c" transform="translate(350.140625 0)"/>
      <use xlink:href="#ArialMT-52" transform="translate(372.359375 0)"/>
      <use xlink:href="#ArialMT-51" transform="translate(427.96875 0)"/>
     </g>
    </g>
   </g>
   <g id="line2d_20">
    <path d="M 52.416 175.710882
L 62.174797 181.238393
L 67.429534 183.95276
L 71.933594 186.042634
L 76.437654 187.868702
L 80.191038 189.152652
L 83.944421 190.177646
L 86.947128 190.776453
L 89.949835 191.146132
L 92.952541 191.256815
L 95.955248 191.083044
L 98.207278 190.755565
L 100.459308 190.255928
L 103.462015 189.32651
L 106.464722 188.115044
L 109.467429 186.657159
L 113.220812 184.565533
L 119.226226 180.888068
L 125.231639 177.274833
L 128.985023 175.261382
L 131.987729 173.854894
L 134.990436 172.656608
L 137.993143 171.675203
L 140.99585 170.905146
L 144.749233 170.211331
L 148.502617 169.762319
L 153.757353 169.40623
L 166.518857 168.702988
L 171.773594 168.119563
L 177.028331 167.310151
L 192.792541 164.654174
L 196.545925 164.368193
L 199.548632 164.352078
L 202.551338 164.569265
L 205.554045 165.057753
L 207.806075 165.622862
L 210.058105 166.372461
L 212.310135 167.317259
L 214.562165 168.465779
L 216.814195 169.824032
L 219.066226 171.395179
L 221.318256 173.179168
L 224.320962 175.88211
L 227.323669 178.937071
L 230.326376 182.311022
L 234.079759 186.903422
L 238.58382 192.795138
L 247.59194 204.694651
L 250.594647 208.318639
L 253.597353 211.590955
L 255.849383 213.752296
L 258.101414 215.618364
L 260.353444 217.154326
L 262.605474 218.331093
L 264.106827 218.904684
L 265.60818 219.303679
L 267.109534 219.524778
L 268.610887 219.566266
L 270.112241 219.428038
L 271.613594 219.111604
L 273.114947 218.620061
L 274.616301 217.958046
L 276.868331 216.659138
L 279.120361 215.017073
L 281.372391 213.064283
L 283.624421 210.838245
L 286.627128 207.517003
L 290.380511 202.945814
L 296.385925 195.152452
L 302.391338 187.452974
L 306.144722 182.971733
L 309.898105 178.876698
L 312.900812 175.92455
L 315.903519 173.280282
L 318.906226 170.948577
L 321.908932 168.923267
L 324.911639 167.189573
L 327.914346 165.726384
L 330.917053 164.508409
L 333.919759 163.508115
L 337.673143 162.52102
L 341.426526 161.776875
L 345.930586 161.136205
L 351.185323 160.645956
L 351.936 160.593285
L 351.936 160.593285
" clip-path="url(#pd3fbb75f33)" style="fill: none; stroke: #e68a17; stroke-width: 1.7; stroke-linecap: square"/>
   </g>
   <g id="patch_9">
    <path d="M 37.44 224.28
L 37.44 157.560584
" style="fill: none; stroke: #000000; stroke-width: 0.7; stroke-linejoin: miter; stroke-linecap: square"/>
   </g>
   <g id="patch_10">
    <path d="M 366.912 224.28
L 366.912 157.560584
" style="fill: none; stroke: #000000; stroke-width: 0.7; stroke-linejoin: miter; stroke-linecap: square"/>
   </g>
   <g id="patch_11">
    <path d="M 37.44 224.28
L 366.912 224.28
" style="fill: none; stroke: #000000; stroke-width: 0.7; stroke-linejoin: miter; stroke-linecap: square"/>
   </g>
   <g id="patch_12">
    <path d="M 37.44 157.560584
L 366.912 157.560584
" style="fill: none; stroke: #000000; stroke-width: 0.7; stroke-linejoin: miter; stroke-linecap: square"/>
   </g>
   <g id="text_18">
    <!-- Exploit -->
    <g style="fill: #8a5310" transform="translate(156.900413 172.513437) scale(0.056 -0.056)">
     <defs>
      <path id="Arial-BoldMT-28" d="M 466 0
L 466 4581
L 3863 4581
L 3863 3806
L 1391 3806
L 1391 2791
L 3691 2791
L 3691 2019
L 1391 2019
L 1391 772
L 3950 772
L 3950 0
L 466 0
z
" transform="scale(0.015625)"/>
      <path id="Arial-BoldMT-5b" d="M 38 0
L 1234 1709
L 88 3319
L 1159 3319
L 1747 2406
L 2366 3319
L 3397 3319
L 2272 1747
L 3500 0
L 2422 0
L 1747 1028
L 1066 0
L 38 0
z
" transform="scale(0.015625)"/>
      <path id="Arial-BoldMT-53" d="M 434 3319
L 1253 3319
L 1253 2831
Q 1413 3081 1684 3237
Q 1956 3394 2288 3394
Q 2866 3394 3269 2941
Q 3672 2488 3672 1678
Q 3672 847 3265 386
Q 2859 -75 2281 -75
Q 2006 -75 1782 34
Q 1559 144 1313 409
L 1313 -1263
L 434 -1263
L 434 3319
z
M 1303 1716
Q 1303 1156 1525 889
Q 1747 622 2066 622
Q 2372 622 2575 867
Q 2778 1113 2778 1672
Q 2778 2194 2568 2447
Q 2359 2700 2050 2700
Q 1728 2700 1515 2451
Q 1303 2203 1303 1716
z
" transform="scale(0.015625)"/>
      <path id="Arial-BoldMT-4f" d="M 459 0
L 459 4581
L 1338 4581
L 1338 0
L 459 0
z
" transform="scale(0.015625)"/>
      <path id="Arial-BoldMT-52" d="M 256 1706
Q 256 2144 472 2553
Q 688 2963 1083 3178
Q 1478 3394 1966 3394
Q 2719 3394 3200 2905
Q 3681 2416 3681 1669
Q 3681 916 3195 420
Q 2709 -75 1972 -75
Q 1516 -75 1102 131
Q 688 338 472 736
Q 256 1134 256 1706
z
M 1156 1659
Q 1156 1166 1390 903
Q 1625 641 1969 641
Q 2313 641 2545 903
Q 2778 1166 2778 1666
Q 2778 2153 2545 2415
Q 2313 2678 1969 2678
Q 1625 2678 1390 2415
Q 1156 2153 1156 1659
z
" transform="scale(0.015625)"/>
      <path id="Arial-BoldMT-4c" d="M 459 3769
L 459 4581
L 1338 4581
L 1338 3769
L 459 3769
z
M 459 0
L 459 3319
L 1338 3319
L 1338 0
L 459 0
z
" transform="scale(0.015625)"/>
      <path id="Arial-BoldMT-57" d="M 1981 3319
L 1981 2619
L 1381 2619
L 1381 1281
Q 1381 875 1398 808
Q 1416 741 1477 697
Q 1538 653 1625 653
Q 1747 653 1978 738
L 2053 56
Q 1747 -75 1359 -75
Q 1122 -75 931 4
Q 741 84 652 211
Q 563 338 528 553
Q 500 706 500 1172
L 500 2619
L 97 2619
L 97 3319
L 500 3319
L 500 3978
L 1381 4491
L 1381 3319
L 1981 3319
z
" transform="scale(0.015625)"/>
     </defs>
     <use xlink:href="#Arial-BoldMT-28"/>
     <use xlink:href="#Arial-BoldMT-5b" transform="translate(66.703125 0)"/>
     <use xlink:href="#Arial-BoldMT-53" transform="translate(122.3125 0)"/>
     <use xlink:href="#Arial-BoldMT-4f" transform="translate(183.390625 0)"/>
     <use xlink:href="#Arial-BoldMT-52" transform="translate(211.171875 0)"/>
     <use xlink:href="#Arial-BoldMT-4c" transform="translate(272.25 0)"/>
     <use xlink:href="#Arial-BoldMT-57" transform="translate(300.03125 0)"/>
    </g>
    <!-- (high mean) -->
    <g style="fill: #8a5310" transform="translate(150.368538 178.608359) scale(0.056 -0.056)">
     <defs>
      <path id="Arial-BoldMT-b" d="M 1916 -1347
L 1313 -1347
Q 834 -625 584 153
Q 334 931 334 1659
Q 334 2563 644 3369
Q 913 4069 1325 4659
L 1925 4659
Q 1497 3713 1336 3048
Q 1175 2384 1175 1641
Q 1175 1128 1270 590
Q 1366 53 1531 -431
Q 1641 -750 1916 -1347
z
" transform="scale(0.015625)"/>
      <path id="Arial-BoldMT-4b" d="M 1334 4581
L 1334 2897
Q 1759 3394 2350 3394
Q 2653 3394 2897 3281
Q 3141 3169 3264 2994
Q 3388 2819 3433 2606
Q 3478 2394 3478 1947
L 3478 0
L 2600 0
L 2600 1753
Q 2600 2275 2550 2415
Q 2500 2556 2373 2639
Q 2247 2722 2056 2722
Q 1838 2722 1666 2615
Q 1494 2509 1414 2295
Q 1334 2081 1334 1663
L 1334 0
L 456 0
L 456 4581
L 1334 4581
z
" transform="scale(0.015625)"/>
      <path id="Arial-BoldMT-4a" d="M 378 -219
L 1381 -341
Q 1406 -516 1497 -581
Q 1622 -675 1891 -675
Q 2234 -675 2406 -572
Q 2522 -503 2581 -350
Q 2622 -241 2622 53
L 2622 538
Q 2228 0 1628 0
Q 959 0 569 566
Q 263 1013 263 1678
Q 263 2513 664 2953
Q 1066 3394 1663 3394
Q 2278 3394 2678 2853
L 2678 3319
L 3500 3319
L 3500 341
Q 3500 -247 3403 -537
Q 3306 -828 3131 -993
Q 2956 -1159 2664 -1253
Q 2372 -1347 1925 -1347
Q 1081 -1347 728 -1058
Q 375 -769 375 -325
Q 375 -281 378 -219
z
M 1163 1728
Q 1163 1200 1367 954
Q 1572 709 1872 709
Q 2194 709 2416 961
Q 2638 1213 2638 1706
Q 2638 2222 2425 2472
Q 2213 2722 1888 2722
Q 1572 2722 1367 2476
Q 1163 2231 1163 1728
z
" transform="scale(0.015625)"/>
      <path id="Arial-BoldMT-3" transform="scale(0.015625)"/>
      <path id="Arial-BoldMT-50" d="M 394 3319
L 1203 3319
L 1203 2866
Q 1638 3394 2238 3394
Q 2556 3394 2790 3262
Q 3025 3131 3175 2866
Q 3394 3131 3647 3262
Q 3900 3394 4188 3394
Q 4553 3394 4806 3245
Q 5059 3097 5184 2809
Q 5275 2597 5275 2122
L 5275 0
L 4397 0
L 4397 1897
Q 4397 2391 4306 2534
Q 4184 2722 3931 2722
Q 3747 2722 3584 2609
Q 3422 2497 3350 2280
Q 3278 2063 3278 1594
L 3278 0
L 2400 0
L 2400 1819
Q 2400 2303 2353 2443
Q 2306 2584 2207 2653
Q 2109 2722 1941 2722
Q 1738 2722 1575 2612
Q 1413 2503 1342 2297
Q 1272 2091 1272 1613
L 1272 0
L 394 0
L 394 3319
z
" transform="scale(0.015625)"/>
      <path id="Arial-BoldMT-48" d="M 2381 1056
L 3256 909
Q 3088 428 2723 176
Q 2359 -75 1813 -75
Q 947 -75 531 491
Q 203 944 203 1634
Q 203 2459 634 2926
Q 1066 3394 1725 3394
Q 2466 3394 2894 2905
Q 3322 2416 3303 1406
L 1103 1406
Q 1113 1016 1316 798
Q 1519 581 1822 581
Q 2028 581 2168 693
Q 2309 806 2381 1056
z
M 2431 1944
Q 2422 2325 2234 2523
Q 2047 2722 1778 2722
Q 1491 2722 1303 2513
Q 1116 2303 1119 1944
L 2431 1944
z
" transform="scale(0.015625)"/>
      <path id="Arial-BoldMT-44" d="M 1116 2306
L 319 2450
Q 453 2931 781 3162
Q 1109 3394 1756 3394
Q 2344 3394 2631 3255
Q 2919 3116 3036 2902
Q 3153 2688 3153 2116
L 3144 1091
Q 3144 653 3186 445
Q 3228 238 3344 0
L 2475 0
Q 2441 88 2391 259
Q 2369 338 2359 363
Q 2134 144 1878 34
Q 1622 -75 1331 -75
Q 819 -75 523 203
Q 228 481 228 906
Q 228 1188 362 1408
Q 497 1628 739 1745
Q 981 1863 1438 1950
Q 2053 2066 2291 2166
L 2291 2253
Q 2291 2506 2166 2614
Q 2041 2722 1694 2722
Q 1459 2722 1328 2630
Q 1197 2538 1116 2306
z
M 2291 1594
Q 2122 1538 1756 1459
Q 1391 1381 1278 1306
Q 1106 1184 1106 997
Q 1106 813 1243 678
Q 1381 544 1594 544
Q 1831 544 2047 700
Q 2206 819 2256 991
Q 2291 1103 2291 1419
L 2291 1594
z
" transform="scale(0.015625)"/>
      <path id="Arial-BoldMT-51" d="M 3478 0
L 2600 0
L 2600 1694
Q 2600 2231 2544 2389
Q 2488 2547 2361 2634
Q 2234 2722 2056 2722
Q 1828 2722 1647 2597
Q 1466 2472 1398 2265
Q 1331 2059 1331 1503
L 1331 0
L 453 0
L 453 3319
L 1269 3319
L 1269 2831
Q 1703 3394 2363 3394
Q 2653 3394 2893 3289
Q 3134 3184 3257 3021
Q 3381 2859 3429 2653
Q 3478 2447 3478 2063
L 3478 0
z
" transform="scale(0.015625)"/>
      <path id="Arial-BoldMT-c" d="M 216 -1347
Q 475 -791 581 -494
Q 688 -197 778 190
Q 869 578 912 926
Q 956 1275 956 1641
Q 956 2384 797 3048
Q 638 3713 209 4659
L 806 4659
Q 1278 3988 1539 3234
Q 1800 2481 1800 1706
Q 1800 1053 1594 306
Q 1359 -531 822 -1347
L 216 -1347
z
" transform="scale(0.015625)"/>
     </defs>
     <use xlink:href="#Arial-BoldMT-b"/>
     <use xlink:href="#Arial-BoldMT-4b" transform="translate(33.296875 0)"/>
     <use xlink:href="#Arial-BoldMT-4c" transform="translate(94.375 0)"/>
     <use xlink:href="#Arial-BoldMT-4a" transform="translate(122.15625 0)"/>
     <use xlink:href="#Arial-BoldMT-4b" transform="translate(183.234375 0)"/>
     <use xlink:href="#Arial-BoldMT-3" transform="translate(244.3125 0)"/>
     <use xlink:href="#Arial-BoldMT-50" transform="translate(272.09375 0)"/>
     <use xlink:href="#Arial-BoldMT-48" transform="translate(361.015625 0)"/>
     <use xlink:href="#Arial-BoldMT-44" transform="translate(416.625 0)"/>
     <use xlink:href="#Arial-BoldMT-51" transform="translate(472.234375 0)"/>
     <use xlink:href="#Arial-BoldMT-c" transform="translate(533.3125 0)"/>
    </g>
   </g>
   <g id="patch_13">
    <path d="M 328.557032 168.945861
Q 339.306163 165.105532 349.213008 161.566125
" style="fill: none; stroke: #8a5310; stroke-width: 0.8; stroke-linecap: round"/>
    <path d="M 346.726776 161.265045
L 349.213008 161.566125
L 347.480405 163.374463
" style="fill: none; stroke: #8a5310; stroke-width: 0.8; stroke-linecap: round"/>
   </g>
   <g id="text_19">
    <!-- Explore -->
    <g style="fill: #8a5310" transform="translate(293.742925 176.116452) scale(0.056 -0.056)">
     <defs>
      <path id="Arial-BoldMT-55" d="M 1300 0
L 422 0
L 422 3319
L 1238 3319
L 1238 2847
Q 1447 3181 1614 3287
Q 1781 3394 1994 3394
Q 2294 3394 2572 3228
L 2300 2463
Q 2078 2606 1888 2606
Q 1703 2606 1575 2504
Q 1447 2403 1373 2137
Q 1300 1872 1300 1025
L 1300 0
z
" transform="scale(0.015625)"/>
     </defs>
     <use xlink:href="#Arial-BoldMT-28"/>
     <use xlink:href="#Arial-BoldMT-5b" transform="translate(66.703125 0)"/>
     <use xlink:href="#Arial-BoldMT-53" transform="translate(122.3125 0)"/>
     <use xlink:href="#Arial-BoldMT-4f" transform="translate(183.390625 0)"/>
     <use xlink:href="#Arial-BoldMT-52" transform="translate(211.171875 0)"/>
     <use xlink:href="#Arial-BoldMT-55" transform="translate(272.25 0)"/>
     <use xlink:href="#Arial-BoldMT-48" transform="translate(311.171875 0)"/>
    </g>
    <!-- (high uncertainty) -->
    <g style="fill: #8a5310" transform="translate(280.370738 182.211374) scale(0.056 -0.056)">
     <defs>
      <path id="Arial-BoldMT-58" d="M 2644 0
L 2644 497
Q 2463 231 2167 78
Q 1872 -75 1544 -75
Q 1209 -75 943 72
Q 678 219 559 484
Q 441 750 441 1219
L 441 3319
L 1319 3319
L 1319 1794
Q 1319 1094 1367 936
Q 1416 778 1544 686
Q 1672 594 1869 594
Q 2094 594 2272 717
Q 2450 841 2515 1023
Q 2581 1206 2581 1919
L 2581 3319
L 3459 3319
L 3459 0
L 2644 0
z
" transform="scale(0.015625)"/>
      <path id="Arial-BoldMT-46" d="M 3353 2338
L 2488 2181
Q 2444 2441 2289 2572
Q 2134 2703 1888 2703
Q 1559 2703 1364 2476
Q 1169 2250 1169 1719
Q 1169 1128 1367 884
Q 1566 641 1900 641
Q 2150 641 2309 783
Q 2469 925 2534 1272
L 3397 1125
Q 3263 531 2881 228
Q 2500 -75 1859 -75
Q 1131 -75 698 384
Q 266 844 266 1656
Q 266 2478 700 2936
Q 1134 3394 1875 3394
Q 2481 3394 2839 3133
Q 3197 2872 3353 2338
z
" transform="scale(0.015625)"/>
      <path id="Arial-BoldMT-5c" d="M 44 3319
L 978 3319
L 1772 963
L 2547 3319
L 3456 3319
L 2284 125
L 2075 -453
Q 1959 -744 1854 -897
Q 1750 -1050 1614 -1145
Q 1478 -1241 1279 -1294
Q 1081 -1347 831 -1347
Q 578 -1347 334 -1294
L 256 -606
Q 463 -647 628 -647
Q 934 -647 1081 -467
Q 1228 -288 1306 -9
L 44 3319
z
" transform="scale(0.015625)"/>
     </defs>
     <use xlink:href="#Arial-BoldMT-b"/>
     <use xlink:href="#Arial-BoldMT-4b" transform="translate(33.296875 0)"/>
     <use xlink:href="#Arial-BoldMT-4c" transform="translate(94.375 0)"/>
     <use xlink:href="#Arial-BoldMT-4a" transform="translate(122.15625 0)"/>
     <use xlink:href="#Arial-BoldMT-4b" transform="translate(183.234375 0)"/>
     <use xlink:href="#Arial-BoldMT-3" transform="translate(244.3125 0)"/>
     <use xlink:href="#Arial-BoldMT-58" transform="translate(272.09375 0)"/>
     <use xlink:href="#Arial-BoldMT-51" transform="translate(333.171875 0)"/>
     <use xlink:href="#Arial-BoldMT-46" transform="translate(394.25 0)"/>
     <use xlink:href="#Arial-BoldMT-48" transform="translate(449.859375 0)"/>
     <use xlink:href="#Arial-BoldMT-55" transform="translate(505.46875 0)"/>
     <use xlink:href="#Arial-BoldMT-57" transform="translate(544.390625 0)"/>
     <use xlink:href="#Arial-BoldMT-44" transform="translate(577.6875 0)"/>
     <use xlink:href="#Arial-BoldMT-4c" transform="translate(633.296875 0)"/>
     <use xlink:href="#Arial-BoldMT-51" transform="translate(661.078125 0)"/>
     <use xlink:href="#Arial-BoldMT-57" transform="translate(722.15625 0)"/>
     <use xlink:href="#Arial-BoldMT-5c" transform="translate(755.453125 0)"/>
     <use xlink:href="#Arial-BoldMT-c" transform="translate(811.0625 0)"/>
    </g>
   </g>
   <g id="PathCollection_3">
    <defs>
     <path id="m339375b768" d="M -2.738613 2.738613
L 2.738613 2.738613
L 2.738613 -2.738613
L -2.738613 -2.738613
z
" style="stroke: #8a5310"/>
    </defs>
    <g clip-path="url(#pd3fbb75f33)">
     <use xlink:href="#m339375b768" x="351.936" y="160.593285" style="fill: #e68a17; stroke: #8a5310"/>
    </g>
   </g>
  </g>
 </g>
 <defs>
  <clipPath id="pc073d7d381">
   <rect x="37.44" y="5.04" width="329.472" height="140.110773"/>
  </clipPath>
  <clipPath id="pd3fbb75f33">
   <rect x="37.44" y="157.560584" width="329.472" height="66.719416"/>
  </clipPath>
 </defs>
</svg>
