<svg xmlns="http://www.w3.org/2000/svg" viewBox="0 0 960 440" role="img">
  <title>Architecture 1.0 and Architecture 2.0 design loops</title>
  <desc>A two-panel comparison showing that Architecture 1.0 carries much loop state implicitly in human practice, while Architecture 2.0 represents loop state, evidence, rejection, method roles, and architect decisions explicitly.</desc>
  <defs>
    <marker id="arrow" viewBox="0 0 10 10" refX="9" refY="5" markerWidth="7" markerHeight="7" orient="auto">
      <path d="M 0 0 L 10 5 L 0 10 z" fill="#4A5560"/>
    </marker>
    <marker id="arrow-blue" viewBox="0 0 10 10" refX="9" refY="5" markerWidth="7" markerHeight="7" orient="auto">
      <path d="M 0 0 L 10 5 L 0 10 z" fill="#356C8C"/>
    </marker>
    <style>
      .font { font-family: Arial, Helvetica, sans-serif; }
      .title { font-size: 19px; font-weight: 700; fill: #202426; }
      .subtitle { font-size: 12px; fill: #536067; }
      .node-label { font-size: 13px; font-weight: 700; fill: #202426; }
      .node-body { font-size: 10.6px; fill: #3E474B; }
      .center-label { font-size: 12.8px; font-weight: 700; fill: #202426; }
      .center-body { font-size: 10.4px; fill: #4A5560; }
      .takeaway { font-size: 13.2px; font-weight: 700; fill: #356C8C; }
      .divider { stroke: #D8E1E5; stroke-width: 0.9; }
      .edge { stroke: #4A5560; stroke-width: 1.45; fill: none; stroke-linecap: round; stroke-linejoin: round; marker-end: url(#arrow); }
      .edge-blue { stroke: #356C8C; stroke-width: 1.55; fill: none; stroke-linecap: round; stroke-linejoin: round; marker-end: url(#arrow-blue); }
      .node { fill: #FFFFFF; stroke: #6E7A80; stroke-width: 1.2; }
      .state { fill: #F1F8FC; stroke: #356C8C; stroke-width: 1.35; }
      .evidence { fill: #F2F8F1; stroke: #5F8F4E; stroke-width: 1.3; }
      .human { fill: #FFFBF2; stroke: #B07021; stroke-width: 1.3; }
      .reject { fill: #FFF4F4; stroke: #A33A3A; stroke-width: 1.3; }
      .implicit { fill: #F7F8FA; stroke: #8A8A8A; stroke-width: 1.25; stroke-dasharray: 5 4; }
      .ghost-loop { stroke: #D8E1E5; stroke-width: 1.1; fill: none; stroke-dasharray: 4 5; }
    </style>
  </defs>

  <rect width="960" height="440" fill="#FFFFFF"/>

  <g class="font">
    <text class="title" x="240" y="44" text-anchor="middle">Architecture 1.0: human-carried loop</text>
    <text class="subtitle" x="240" y="66" text-anchor="middle">Much of the loop state remains implicit.</text>

    <text class="title" x="720" y="44" text-anchor="middle">Architecture 2.0: represented loop</text>
    <text class="subtitle" x="720" y="66" text-anchor="middle">State, evidence, and rejection are made explicit.</text>

    <line class="divider" x1="480" y1="86" x2="480" y2="385"/>

    <!-- Left: existing loop, with implicit state carried by human practice. -->
    <circle class="ghost-loop" cx="240" cy="231" r="151"/>
    <rect class="node" x="176" y="98" width="128" height="48" rx="5"/>
    <text class="node-label" x="240" y="118" text-anchor="middle">Intent</text>
    <text class="node-body" x="240" y="135" text-anchor="middle">workload + goal</text>

    <rect class="node" x="325" y="184" width="128" height="48" rx="5"/>
    <text class="node-label" x="389" y="204" text-anchor="middle">Model / scripts</text>
    <text class="node-body" x="389" y="221" text-anchor="middle">local assumptions</text>

    <rect class="node" x="285" y="312" width="128" height="48" rx="5"/>
    <text class="node-label" x="349" y="332" text-anchor="middle">Candidate</text>
    <text class="node-body" x="349" y="349" text-anchor="middle">design choice</text>

    <rect class="node" x="67" y="312" width="128" height="48" rx="5"/>
    <text class="node-label" x="131" y="332" text-anchor="middle">Tool feedback</text>
    <text class="node-body" x="131" y="349" text-anchor="middle">simulate, measure</text>

    <rect class="human" x="27" y="184" width="128" height="48" rx="5"/>
    <text class="node-label" x="91" y="204" text-anchor="middle">Expert review</text>
    <text class="node-body" x="91" y="221" text-anchor="middle">carries state</text>

    <rect class="implicit" x="169" y="194" width="142" height="74" rx="8"/>
    <text class="center-label" x="240" y="217" text-anchor="middle">implicit state</text>
    <text class="center-body" x="240" y="235" text-anchor="middle">assumptions, rationale</text>
    <text class="center-body" x="240" y="250" text-anchor="middle">why candidates failed</text>

    <path class="edge" d="M 279 146 A 150 150 0 0 1 366 184"/>
    <path class="edge" d="M 390 232 A 150 150 0 0 1 356 312"/>
    <path class="edge" d="M 285 339 A 150 150 0 0 1 195 344"/>
    <path class="edge" d="M 128 312 A 150 150 0 0 1 94 232"/>
    <path class="edge" d="M 116 184 A 150 150 0 0 1 176 134"/>

    <!-- Transition. -->
    <path class="edge-blue" d="M 424 78 L 536 78"/>
    <text class="subtitle" x="480" y="96" text-anchor="middle">make loop state explicit</text>

    <!-- Right: represented state, evidence, rejection, and decision authority. -->
    <circle class="ghost-loop" cx="720" cy="231" r="151"/>
    <rect class="state" x="646" y="102" width="148" height="54" rx="5"/>
    <text class="node-label" x="720" y="123" text-anchor="middle">Representation</text>
    <text class="node-body" x="720" y="140" text-anchor="middle">workload, design</text>

    <rect class="state" x="817" y="184" width="128" height="54" rx="5"/>
    <text class="node-label" x="881" y="205" text-anchor="middle">Environment</text>
    <text class="node-body" x="881" y="222" text-anchor="middle">actions + feedback</text>

    <rect class="state" x="783" y="315" width="132" height="54" rx="5"/>
    <text class="node-label" x="849" y="336" text-anchor="middle">Method roles</text>
    <text class="node-body" x="849" y="353" text-anchor="middle">generate, predict</text>

    <rect class="evidence" x="525" y="315" width="132" height="54" rx="5"/>
    <text class="node-label" x="591" y="336" text-anchor="middle">Evidence ledger</text>
    <text class="node-body" x="591" y="353" text-anchor="middle">cost, provenance</text>

    <rect class="reject" x="495" y="184" width="128" height="54" rx="5"/>
    <text class="node-label" x="559" y="205" text-anchor="middle">Reject / revise</text>
    <text class="node-body" x="559" y="222" text-anchor="middle">weak evidence</text>

    <rect class="human" x="637" y="195" width="166" height="72" rx="8"/>
    <text class="center-label" x="720" y="218" text-anchor="middle">Architect decision</text>
    <text class="center-body" x="720" y="236" text-anchor="middle">accept, revise, escalate</text>
    <text class="center-body" x="720" y="251" text-anchor="middle">or commit</text>

    <path class="edge-blue" d="M 794 128 A 150 150 0 0 1 873 184"/>
    <path class="edge-blue" d="M 881 238 A 150 150 0 0 1 856 315"/>
    <path class="edge" d="M 783 346 A 150 150 0 0 1 661 347"/>
    <path class="edge" d="M 552 315 A 150 150 0 0 1 558 240"/>
    <path class="edge" d="M 623 211 A 150 150 0 0 1 646 156"/>
    <path class="edge" d="M 626 315 C 650 298 668 285 690 268"/>
    <path class="edge-blue" d="M 720 195 C 718 176 718 166 720 156"/>

    <text class="takeaway" x="480" y="414" text-anchor="middle">The shift is not automation of the architect; it is representation and governance of the design loop.</text>
  </g>
</svg>
