<?xml version="1.0" encoding="utf-8" standalone="no"?>
<!DOCTYPE svg PUBLIC "-//W3C//DTD SVG 1.1//EN"
  "http://www.w3.org/Graphics/SVG/1.1/DTD/svg11.dtd">
<svg xmlns:xlink="http://www.w3.org/1999/xlink" width="703.296273pt" height="345.052102pt" viewBox="0 0 703.296273 345.052102" xmlns="http://www.w3.org/2000/svg" version="1.1">
 <metadata>
  <rdf:RDF xmlns:dc="http://purl.org/dc/elements/1.1/" xmlns:cc="http://creativecommons.org/ns#" xmlns:rdf="http://www.w3.org/1999/02/22-rdf-syntax-ns#">
   <cc:Work>
    <dc:type rdf:resource="http://purl.org/dc/dcmitype/StillImage"/>
    <dc:date>2026-07-18T15:53:44.348973</dc:date>
    <dc:format>image/svg+xml</dc:format>
    <dc:creator>
     <cc:Agent>
      <dc:title>Matplotlib v3.11.0, https://matplotlib.org/</dc:title>
     </cc:Agent>
    </dc:creator>
   </cc:Work>
  </rdf:RDF>
 </metadata>
 <defs>
  <style type="text/css">*{stroke-linejoin: round; stroke-linecap: butt}</style>
 </defs>
 <g id="figure_1">
  <g id="patch_1">
   <path d="M 0 345.052102
L 703.296273 345.052102
L 703.296273 0
L 0 0
z
" style="fill: #ffffff"/>
  </g>
  <g id="axes_1">
   <g id="patch_2">
    <path d="M 24.338945 320.713157
L 696.096273 320.713157
L 696.096273 127.381236
L 24.338945 127.381236
z
" style="fill: #ffffff"/>
   </g>
   <g id="matplotlib.axis_1">
    <g id="text_1">
     <!-- Intrinsic Agent Capability (e.g., Model Parameters) -->
     <g style="fill: #262626" transform="translate(193.229328 334.90554) scale(0.14 -0.14)">
      <defs>
       <path id="Arial-BoldMT-2c" d="M 438 0
L 438 4581
L 1363 4581
L 1363 0
L 438 0
z
" transform="scale(0.015625)"/>
       <path id="Arial-BoldMT-51" d="M 3478 0
L 2600 0
L 2600 1694
Q 2600 2231 2544 2389
Q 2488 2547 2361 2634
Q 2234 2722 2056 2722
Q 1828 2722 1647 2597
Q 1466 2472 1398 2265
Q 1331 2059 1331 1503
L 1331 0
L 453 0
L 453 3319
L 1269 3319
L 1269 2831
Q 1703 3394 2363 3394
Q 2653 3394 2893 3289
Q 3134 3184 3257 3021
Q 3381 2859 3429 2653
Q 3478 2447 3478 2063
L 3478 0
z
" transform="scale(0.015625)"/>
       <path id="Arial-BoldMT-57" d="M 1981 3319
L 1981 2619
L 1381 2619
L 1381 1281
Q 1381 875 1398 808
Q 1416 741 1477 697
Q 1538 653 1625 653
Q 1747 653 1978 738
L 2053 56
Q 1747 -75 1359 -75
Q 1122 -75 931 4
Q 741 84 652 211
Q 563 338 528 553
Q 500 706 500 1172
L 500 2619
L 97 2619
L 97 3319
L 500 3319
L 500 3978
L 1381 4491
L 1381 3319
L 1981 3319
z
" transform="scale(0.015625)"/>
       <path id="Arial-BoldMT-55" d="M 1300 0
L 422 0
L 422 3319
L 1238 3319
L 1238 2847
Q 1447 3181 1614 3287
Q 1781 3394 1994 3394
Q 2294 3394 2572 3228
L 2300 2463
Q 2078 2606 1888 2606
Q 1703 2606 1575 2504
Q 1447 2403 1373 2137
Q 1300 1872 1300 1025
L 1300 0
z
" transform="scale(0.015625)"/>
       <path id="Arial-BoldMT-4c" d="M 459 3769
L 459 4581
L 1338 4581
L 1338 3769
L 459 3769
z
M 459 0
L 459 3319
L 1338 3319
L 1338 0
L 459 0
z
" transform="scale(0.015625)"/>
       <path id="Arial-BoldMT-56" d="M 150 947
L 1031 1081
Q 1088 825 1259 692
Q 1431 559 1741 559
Q 2081 559 2253 684
Q 2369 772 2369 919
Q 2369 1019 2306 1084
Q 2241 1147 2013 1200
Q 950 1434 666 1628
Q 272 1897 272 2375
Q 272 2806 612 3100
Q 953 3394 1669 3394
Q 2350 3394 2681 3172
Q 3013 2950 3138 2516
L 2309 2363
Q 2256 2556 2107 2659
Q 1959 2763 1684 2763
Q 1338 2763 1188 2666
Q 1088 2597 1088 2488
Q 1088 2394 1175 2328
Q 1294 2241 1995 2081
Q 2697 1922 2975 1691
Q 3250 1456 3250 1038
Q 3250 581 2869 253
Q 2488 -75 1741 -75
Q 1063 -75 667 200
Q 272 475 150 947
z
" transform="scale(0.015625)"/>
       <path id="Arial-BoldMT-46" d="M 3353 2338
L 2488 2181
Q 2444 2441 2289 2572
Q 2134 2703 1888 2703
Q 1559 2703 1364 2476
Q 1169 2250 1169 1719
Q 1169 1128 1367 884
Q 1566 641 1900 641
Q 2150 641 2309 783
Q 2469 925 2534 1272
L 3397 1125
Q 3263 531 2881 228
Q 2500 -75 1859 -75
Q 1131 -75 698 384
Q 266 844 266 1656
Q 266 2478 700 2936
Q 1134 3394 1875 3394
Q 2481 3394 2839 3133
Q 3197 2872 3353 2338
z
" transform="scale(0.015625)"/>
       <path id="Arial-BoldMT-3" transform="scale(0.015625)"/>
       <path id="Arial-BoldMT-24" d="M 4597 0
L 3591 0
L 3191 1041
L 1359 1041
L 981 0
L 0 0
L 1784 4581
L 2763 4581
L 4597 0
z
M 2894 1813
L 2263 3513
L 1644 1813
L 2894 1813
z
" transform="scale(0.015625)"/>
       <path id="Arial-BoldMT-4a" d="M 378 -219
L 1381 -341
Q 1406 -516 1497 -581
Q 1622 -675 1891 -675
Q 2234 -675 2406 -572
Q 2522 -503 2581 -350
Q 2622 -241 2622 53
L 2622 538
Q 2228 0 1628 0
Q 959 0 569 566
Q 263 1013 263 1678
Q 263 2513 664 2953
Q 1066 3394 1663 3394
Q 2278 3394 2678 2853
L 2678 3319
L 3500 3319
L 3500 341
Q 3500 -247 3403 -537
Q 3306 -828 3131 -993
Q 2956 -1159 2664 -1253
Q 2372 -1347 1925 -1347
Q 1081 -1347 728 -1058
Q 375 -769 375 -325
Q 375 -281 378 -219
z
M 1163 1728
Q 1163 1200 1367 954
Q 1572 709 1872 709
Q 2194 709 2416 961
Q 2638 1213 2638 1706
Q 2638 2222 2425 2472
Q 2213 2722 1888 2722
Q 1572 2722 1367 2476
Q 1163 2231 1163 1728
z
" transform="scale(0.015625)"/>
       <path id="Arial-BoldMT-48" d="M 2381 1056
L 3256 909
Q 3088 428 2723 176
Q 2359 -75 1813 -75
Q 947 -75 531 491
Q 203 944 203 1634
Q 203 2459 634 2926
Q 1066 3394 1725 3394
Q 2466 3394 2894 2905
Q 3322 2416 3303 1406
L 1103 1406
Q 1113 1016 1316 798
Q 1519 581 1822 581
Q 2028 581 2168 693
Q 2309 806 2381 1056
z
M 2431 1944
Q 2422 2325 2234 2523
Q 2047 2722 1778 2722
Q 1491 2722 1303 2513
Q 1116 2303 1119 1944
L 2431 1944
z
" transform="scale(0.015625)"/>
       <path id="Arial-BoldMT-26" d="M 3397 1684
L 4294 1400
Q 4088 650 3608 286
Q 3128 -78 2391 -78
Q 1478 -78 890 545
Q 303 1169 303 2250
Q 303 3394 893 4026
Q 1484 4659 2447 4659
Q 3288 4659 3813 4163
Q 4125 3869 4281 3319
L 3366 3100
Q 3284 3456 3026 3662
Q 2769 3869 2400 3869
Q 1891 3869 1573 3503
Q 1256 3138 1256 2319
Q 1256 1450 1568 1081
Q 1881 713 2381 713
Q 2750 713 3015 947
Q 3281 1181 3397 1684
z
" transform="scale(0.015625)"/>
       <path id="Arial-BoldMT-44" d="M 1116 2306
L 319 2450
Q 453 2931 781 3162
Q 1109 3394 1756 3394
Q 2344 3394 2631 3255
Q 2919 3116 3036 2902
Q 3153 2688 3153 2116
L 3144 1091
Q 3144 653 3186 445
Q 3228 238 3344 0
L 2475 0
Q 2441 88 2391 259
Q 2369 338 2359 363
Q 2134 144 1878 34
Q 1622 -75 1331 -75
Q 819 -75 523 203
Q 228 481 228 906
Q 228 1188 362 1408
Q 497 1628 739 1745
Q 981 1863 1438 1950
Q 2053 2066 2291 2166
L 2291 2253
Q 2291 2506 2166 2614
Q 2041 2722 1694 2722
Q 1459 2722 1328 2630
Q 1197 2538 1116 2306
z
M 2291 1594
Q 2122 1538 1756 1459
Q 1391 1381 1278 1306
Q 1106 1184 1106 997
Q 1106 813 1243 678
Q 1381 544 1594 544
Q 1831 544 2047 700
Q 2206 819 2256 991
Q 2291 1103 2291 1419
L 2291 1594
z
" transform="scale(0.015625)"/>
       <path id="Arial-BoldMT-53" d="M 434 3319
L 1253 3319
L 1253 2831
Q 1413 3081 1684 3237
Q 1956 3394 2288 3394
Q 2866 3394 3269 2941
Q 3672 2488 3672 1678
Q 3672 847 3265 386
Q 2859 -75 2281 -75
Q 2006 -75 1782 34
Q 1559 144 1313 409
L 1313 -1263
L 434 -1263
L 434 3319
z
M 1303 1716
Q 1303 1156 1525 889
Q 1747 622 2066 622
Q 2372 622 2575 867
Q 2778 1113 2778 1672
Q 2778 2194 2568 2447
Q 2359 2700 2050 2700
Q 1728 2700 1515 2451
Q 1303 2203 1303 1716
z
" transform="scale(0.015625)"/>
       <path id="Arial-BoldMT-45" d="M 422 0
L 422 4581
L 1300 4581
L 1300 2931
Q 1706 3394 2263 3394
Q 2869 3394 3266 2955
Q 3663 2516 3663 1694
Q 3663 844 3258 384
Q 2853 -75 2275 -75
Q 1991 -75 1714 67
Q 1438 209 1238 488
L 1238 0
L 422 0
z
M 1294 1731
Q 1294 1216 1456 969
Q 1684 619 2063 619
Q 2353 619 2558 867
Q 2763 1116 2763 1650
Q 2763 2219 2556 2470
Q 2350 2722 2028 2722
Q 1713 2722 1503 2476
Q 1294 2231 1294 1731
z
" transform="scale(0.015625)"/>
       <path id="Arial-BoldMT-4f" d="M 459 0
L 459 4581
L 1338 4581
L 1338 0
L 459 0
z
" transform="scale(0.015625)"/>
       <path id="Arial-BoldMT-5c" d="M 44 3319
L 978 3319
L 1772 963
L 2547 3319
L 3456 3319
L 2284 125
L 2075 -453
Q 1959 -744 1854 -897
Q 1750 -1050 1614 -1145
Q 1478 -1241 1279 -1294
Q 1081 -1347 831 -1347
Q 578 -1347 334 -1294
L 256 -606
Q 463 -647 628 -647
Q 934 -647 1081 -467
Q 1228 -288 1306 -9
L 44 3319
z
" transform="scale(0.015625)"/>
       <path id="Arial-BoldMT-b" d="M 1916 -1347
L 1313 -1347
Q 834 -625 584 153
Q 334 931 334 1659
Q 334 2563 644 3369
Q 913 4069 1325 4659
L 1925 4659
Q 1497 3713 1336 3048
Q 1175 2384 1175 1641
Q 1175 1128 1270 590
Q 1366 53 1531 -431
Q 1641 -750 1916 -1347
z
" transform="scale(0.015625)"/>
       <path id="Arial-BoldMT-11" d="M 459 0
L 459 878
L 1338 878
L 1338 0
L 459 0
z
" transform="scale(0.015625)"/>
       <path id="Arial-BoldMT-f" d="M 438 878
L 1316 878
L 1316 250
Q 1316 -131 1250 -351
Q 1184 -572 1001 -747
Q 819 -922 538 -1022
L 366 -659
Q 631 -572 743 -419
Q 856 -266 863 0
L 438 0
L 438 878
z
" transform="scale(0.015625)"/>
       <path id="Arial-BoldMT-30" d="M 453 0
L 453 4581
L 1838 4581
L 2669 1456
L 3491 4581
L 4878 4581
L 4878 0
L 4019 0
L 4019 3606
L 3109 0
L 2219 0
L 1313 3606
L 1313 0
L 453 0
z
" transform="scale(0.015625)"/>
       <path id="Arial-BoldMT-52" d="M 256 1706
Q 256 2144 472 2553
Q 688 2963 1083 3178
Q 1478 3394 1966 3394
Q 2719 3394 3200 2905
Q 3681 2416 3681 1669
Q 3681 916 3195 420
Q 2709 -75 1972 -75
Q 1516 -75 1102 131
Q 688 338 472 736
Q 256 1134 256 1706
z
M 1156 1659
Q 1156 1166 1390 903
Q 1625 641 1969 641
Q 2313 641 2545 903
Q 2778 1166 2778 1666
Q 2778 2153 2545 2415
Q 2313 2678 1969 2678
Q 1625 2678 1390 2415
Q 1156 2153 1156 1659
z
" transform="scale(0.015625)"/>
       <path id="Arial-BoldMT-47" d="M 3503 0
L 2688 0
L 2688 488
Q 2484 203 2207 64
Q 1931 -75 1650 -75
Q 1078 -75 670 386
Q 263 847 263 1672
Q 263 2516 659 2955
Q 1056 3394 1663 3394
Q 2219 3394 2625 2931
L 2625 4581
L 3503 4581
L 3503 0
z
M 1159 1731
Q 1159 1200 1306 963
Q 1519 619 1900 619
Q 2203 619 2415 876
Q 2628 1134 2628 1647
Q 2628 2219 2422 2470
Q 2216 2722 1894 2722
Q 1581 2722 1370 2473
Q 1159 2225 1159 1731
z
" transform="scale(0.015625)"/>
       <path id="Arial-BoldMT-33" d="M 466 0
L 466 4581
L 1950 4581
Q 2794 4581 3050 4513
Q 3444 4409 3709 4064
Q 3975 3719 3975 3172
Q 3975 2750 3822 2462
Q 3669 2175 3433 2011
Q 3197 1847 2953 1794
Q 2622 1728 1994 1728
L 1391 1728
L 1391 0
L 466 0
z
M 1391 3806
L 1391 2506
L 1897 2506
Q 2444 2506 2628 2578
Q 2813 2650 2917 2803
Q 3022 2956 3022 3159
Q 3022 3409 2875 3571
Q 2728 3734 2503 3775
Q 2338 3806 1838 3806
L 1391 3806
z
" transform="scale(0.015625)"/>
       <path id="Arial-BoldMT-50" d="M 394 3319
L 1203 3319
L 1203 2866
Q 1638 3394 2238 3394
Q 2556 3394 2790 3262
Q 3025 3131 3175 2866
Q 3394 3131 3647 3262
Q 3900 3394 4188 3394
Q 4553 3394 4806 3245
Q 5059 3097 5184 2809
Q 5275 2597 5275 2122
L 5275 0
L 4397 0
L 4397 1897
Q 4397 2391 4306 2534
Q 4184 2722 3931 2722
Q 3747 2722 3584 2609
Q 3422 2497 3350 2280
Q 3278 2063 3278 1594
L 3278 0
L 2400 0
L 2400 1819
Q 2400 2303 2353 2443
Q 2306 2584 2207 2653
Q 2109 2722 1941 2722
Q 1738 2722 1575 2612
Q 1413 2503 1342 2297
Q 1272 2091 1272 1613
L 1272 0
L 394 0
L 394 3319
z
" transform="scale(0.015625)"/>
       <path id="Arial-BoldMT-c" d="M 216 -1347
Q 475 -791 581 -494
Q 688 -197 778 190
Q 869 578 912 926
Q 956 1275 956 1641
Q 956 2384 797 3048
Q 638 3713 209 4659
L 806 4659
Q 1278 3988 1539 3234
Q 1800 2481 1800 1706
Q 1800 1053 1594 306
Q 1359 -531 822 -1347
L 216 -1347
z
" transform="scale(0.015625)"/>
      </defs>
      <use xlink:href="#Arial-BoldMT-2c"/>
      <use xlink:href="#Arial-BoldMT-51" transform="translate(27.78125 0)"/>
      <use xlink:href="#Arial-BoldMT-57" transform="translate(88.859375 0)"/>
      <use xlink:href="#Arial-BoldMT-55" transform="translate(122.15625 0)"/>
      <use xlink:href="#Arial-BoldMT-4c" transform="translate(161.078125 0)"/>
      <use xlink:href="#Arial-BoldMT-51" transform="translate(188.859375 0)"/>
      <use xlink:href="#Arial-BoldMT-56" transform="translate(249.9375 0)"/>
      <use xlink:href="#Arial-BoldMT-4c" transform="translate(305.546875 0)"/>
      <use xlink:href="#Arial-BoldMT-46" transform="translate(333.328125 0)"/>
      <use xlink:href="#Arial-BoldMT-3" transform="translate(388.9375 0)"/>
      <use xlink:href="#Arial-BoldMT-24" transform="translate(413.015625 0)"/>
      <use xlink:href="#Arial-BoldMT-4a" transform="translate(485.234375 0)"/>
      <use xlink:href="#Arial-BoldMT-48" transform="translate(546.3125 0)"/>
      <use xlink:href="#Arial-BoldMT-51" transform="translate(601.921875 0)"/>
      <use xlink:href="#Arial-BoldMT-57" transform="translate(663 0)"/>
      <use xlink:href="#Arial-BoldMT-3" transform="translate(696.296875 0)"/>
      <use xlink:href="#Arial-BoldMT-26" transform="translate(724.078125 0)"/>
      <use xlink:href="#Arial-BoldMT-44" transform="translate(796.296875 0)"/>
      <use xlink:href="#Arial-BoldMT-53" transform="translate(851.90625 0)"/>
      <use xlink:href="#Arial-BoldMT-44" transform="translate(912.984375 0)"/>
      <use xlink:href="#Arial-BoldMT-45" transform="translate(968.59375 0)"/>
      <use xlink:href="#Arial-BoldMT-4c" transform="translate(1029.671875 0)"/>
      <use xlink:href="#Arial-BoldMT-4f" transform="translate(1057.453125 0)"/>
      <use xlink:href="#Arial-BoldMT-4c" transform="translate(1085.234375 0)"/>
      <use xlink:href="#Arial-BoldMT-57" transform="translate(1113.015625 0)"/>
      <use xlink:href="#Arial-BoldMT-5c" transform="translate(1146.3125 0)"/>
      <use xlink:href="#Arial-BoldMT-3" transform="translate(1201.921875 0)"/>
      <use xlink:href="#Arial-BoldMT-b" transform="translate(1229.703125 0)"/>
      <use xlink:href="#Arial-BoldMT-48" transform="translate(1263 0)"/>
      <use xlink:href="#Arial-BoldMT-11" transform="translate(1318.609375 0)"/>
      <use xlink:href="#Arial-BoldMT-4a" transform="translate(1346.390625 0)"/>
      <use xlink:href="#Arial-BoldMT-11" transform="translate(1407.46875 0)"/>
      <use xlink:href="#Arial-BoldMT-f" transform="translate(1435.25 0)"/>
      <use xlink:href="#Arial-BoldMT-3" transform="translate(1463.03125 0)"/>
      <use xlink:href="#Arial-BoldMT-30" transform="translate(1490.8125 0)"/>
      <use xlink:href="#Arial-BoldMT-52" transform="translate(1574.109375 0)"/>
      <use xlink:href="#Arial-BoldMT-47" transform="translate(1635.1875 0)"/>
      <use xlink:href="#Arial-BoldMT-48" transform="translate(1696.265625 0)"/>
      <use xlink:href="#Arial-BoldMT-4f" transform="translate(1751.875 0)"/>
      <use xlink:href="#Arial-BoldMT-3" transform="translate(1779.65625 0)"/>
      <use xlink:href="#Arial-BoldMT-33" transform="translate(1807.4375 0)"/>
      <use xlink:href="#Arial-BoldMT-44" transform="translate(1874.140625 0)"/>
      <use xlink:href="#Arial-BoldMT-55" transform="translate(1929.75 0)"/>
      <use xlink:href="#Arial-BoldMT-44" transform="translate(1968.671875 0)"/>
      <use xlink:href="#Arial-BoldMT-50" transform="translate(2024.28125 0)"/>
      <use xlink:href="#Arial-BoldMT-48" transform="translate(2113.203125 0)"/>
      <use xlink:href="#Arial-BoldMT-57" transform="translate(2168.8125 0)"/>
      <use xlink:href="#Arial-BoldMT-48" transform="translate(2202.109375 0)"/>
      <use xlink:href="#Arial-BoldMT-55" transform="translate(2257.71875 0)"/>
      <use xlink:href="#Arial-BoldMT-56" transform="translate(2296.640625 0)"/>
      <use xlink:href="#Arial-BoldMT-c" transform="translate(2352.25 0)"/>
     </g>
    </g>
   </g>
   <g id="matplotlib.axis_2">
    <g id="text_2">
     <!-- Total Computational Cost (Joules / Time) -->
     <g style="fill: #262626" transform="translate(17.392383 359.508134) rotate(-90) scale(0.14 -0.14)">
      <defs>
       <path id="Arial-BoldMT-37" d="M 1497 0
L 1497 3806
L 138 3806
L 138 4581
L 3778 4581
L 3778 3806
L 2422 3806
L 2422 0
L 1497 0
z
" transform="scale(0.015625)"/>
       <path id="Arial-BoldMT-58" d="M 2644 0
L 2644 497
Q 2463 231 2167 78
Q 1872 -75 1544 -75
Q 1209 -75 943 72
Q 678 219 559 484
Q 441 750 441 1219
L 441 3319
L 1319 3319
L 1319 1794
Q 1319 1094 1367 936
Q 1416 778 1544 686
Q 1672 594 1869 594
Q 2094 594 2272 717
Q 2450 841 2515 1023
Q 2581 1206 2581 1919
L 2581 3319
L 3459 3319
L 3459 0
L 2644 0
z
" transform="scale(0.015625)"/>
       <path id="Arial-BoldMT-2d" d="M 2119 4581
L 3041 4581
L 3041 1681
Q 3041 1113 2941 806
Q 2806 406 2453 164
Q 2100 -78 1522 -78
Q 844 -78 478 301
Q 113 681 109 1416
L 981 1516
Q 997 1122 1097 959
Q 1247 713 1553 713
Q 1863 713 1991 889
Q 2119 1066 2119 1622
L 2119 4581
z
" transform="scale(0.015625)"/>
       <path id="Arial-BoldMT-12" d="M -9 -78
L 1125 4659
L 1784 4659
L 638 -78
L -9 -78
z
" transform="scale(0.015625)"/>
      </defs>
      <use xlink:href="#Arial-BoldMT-37"/>
      <use xlink:href="#Arial-BoldMT-52" transform="translate(53.65625 0)"/>
      <use xlink:href="#Arial-BoldMT-57" transform="translate(114.734375 0)"/>
      <use xlink:href="#Arial-BoldMT-44" transform="translate(148.03125 0)"/>
      <use xlink:href="#Arial-BoldMT-4f" transform="translate(203.640625 0)"/>
      <use xlink:href="#Arial-BoldMT-3" transform="translate(231.421875 0)"/>
      <use xlink:href="#Arial-BoldMT-26" transform="translate(259.203125 0)"/>
      <use xlink:href="#Arial-BoldMT-52" transform="translate(331.421875 0)"/>
      <use xlink:href="#Arial-BoldMT-50" transform="translate(392.5 0)"/>
      <use xlink:href="#Arial-BoldMT-53" transform="translate(481.421875 0)"/>
      <use xlink:href="#Arial-BoldMT-58" transform="translate(542.5 0)"/>
      <use xlink:href="#Arial-BoldMT-57" transform="translate(603.578125 0)"/>
      <use xlink:href="#Arial-BoldMT-44" transform="translate(636.875 0)"/>
      <use xlink:href="#Arial-BoldMT-57" transform="translate(692.484375 0)"/>
      <use xlink:href="#Arial-BoldMT-4c" transform="translate(725.78125 0)"/>
      <use xlink:href="#Arial-BoldMT-52" transform="translate(753.5625 0)"/>
      <use xlink:href="#Arial-BoldMT-51" transform="translate(814.640625 0)"/>
      <use xlink:href="#Arial-BoldMT-44" transform="translate(875.71875 0)"/>
      <use xlink:href="#Arial-BoldMT-4f" transform="translate(931.328125 0)"/>
      <use xlink:href="#Arial-BoldMT-3" transform="translate(959.109375 0)"/>
      <use xlink:href="#Arial-BoldMT-26" transform="translate(986.890625 0)"/>
      <use xlink:href="#Arial-BoldMT-52" transform="translate(1059.109375 0)"/>
      <use xlink:href="#Arial-BoldMT-56" transform="translate(1120.1875 0)"/>
      <use xlink:href="#Arial-BoldMT-57" transform="translate(1175.796875 0)"/>
      <use xlink:href="#Arial-BoldMT-3" transform="translate(1209.09375 0)"/>
      <use xlink:href="#Arial-BoldMT-b" transform="translate(1236.875 0)"/>
      <use xlink:href="#Arial-BoldMT-2d" transform="translate(1270.171875 0)"/>
      <use xlink:href="#Arial-BoldMT-52" transform="translate(1325.78125 0)"/>
      <use xlink:href="#Arial-BoldMT-58" transform="translate(1386.859375 0)"/>
      <use xlink:href="#Arial-BoldMT-4f" transform="translate(1447.9375 0)"/>
      <use xlink:href="#Arial-BoldMT-48" transform="translate(1475.71875 0)"/>
      <use xlink:href="#Arial-BoldMT-56" transform="translate(1531.328125 0)"/>
      <use xlink:href="#Arial-BoldMT-3" transform="translate(1586.9375 0)"/>
      <use xlink:href="#Arial-BoldMT-12" transform="translate(1614.71875 0)"/>
      <use xlink:href="#Arial-BoldMT-3" transform="translate(1642.5 0)"/>
      <use xlink:href="#Arial-BoldMT-37" transform="translate(1670.28125 0)"/>
      <use xlink:href="#Arial-BoldMT-4c" transform="translate(1729.546875 0)"/>
      <use xlink:href="#Arial-BoldMT-50" transform="translate(1757.328125 0)"/>
      <use xlink:href="#Arial-BoldMT-48" transform="translate(1846.25 0)"/>
      <use xlink:href="#Arial-BoldMT-c" transform="translate(1901.859375 0)"/>
     </g>
    </g>
   </g>
   <g id="line2d_1">
    <path d="M 54.873369 137.206155
L 61.04194 146.369135
L 67.21051 155.045703
L 73.379081 163.26168
L 79.547651 171.041515
L 85.716222 178.408361
L 91.884792 185.384141
L 98.053363 191.989616
L 104.221933 198.244442
L 110.390504 204.167233
L 116.559074 209.775616
L 122.727645 215.086281
L 128.896215 220.115031
L 135.064786 224.876832
L 141.233356 229.385856
L 147.401927 233.65552
L 153.570497 237.698531
L 159.739068 241.52692
L 165.907638 245.152081
L 172.076209 248.584803
L 178.244779 251.835299
L 184.41335 254.913245
L 190.58192 257.8278
L 196.750491 260.587636
L 202.919061 263.200968
L 209.087632 265.675573
L 215.256202 268.018814
L 221.424773 270.237666
L 227.593343 272.33873
L 233.761914 274.328261
L 239.930485 276.212178
L 246.099055 277.996089
L 252.267626 279.685301
L 258.436196 281.284843
L 264.604767 282.799473
L 270.773337 284.2337
L 276.941908 285.591792
L 283.110478 286.87779
L 289.279049 288.095521
L 295.447619 289.24861
L 301.61619 290.340488
L 307.78476 291.374404
L 313.953331 292.353434
L 320.121901 293.280494
L 326.290472 294.158341
L 332.459042 294.989588
L 338.627613 295.776708
L 344.796183 296.522045
L 350.964754 297.227815
L 357.133324 297.896121
L 363.301895 298.528949
L 369.470465 299.128184
L 375.639036 299.695609
L 381.807606 300.232913
L 387.976177 300.741694
L 394.144747 301.223466
L 400.313318 301.679664
L 406.481888 302.111645
L 412.650459 302.520695
L 418.819029 302.90803
L 424.9876 303.274803
L 431.15617 303.622107
L 437.324741 303.950974
L 443.493311 304.262384
L 449.661882 304.557262
L 455.830452 304.836487
L 461.999023 305.100889
L 468.167593 305.351256
L 474.336164 305.588332
L 480.504734 305.812823
L 486.673305 306.025397
L 492.841875 306.226687
L 499.010446 306.417291
L 505.179016 306.597778
L 511.347587 306.768683
L 517.516157 306.930515
L 523.684728 307.083757
L 529.853298 307.228864
L 536.021869 307.366269
L 542.190439 307.496379
L 548.35901 307.619582
L 554.52758 307.736245
L 560.696151 307.846715
L 566.864721 307.951321
L 573.033292 308.050374
L 579.201862 308.144169
L 585.370433 308.232984
L 591.539003 308.317085
L 597.707574 308.396722
L 603.876144 308.472131
L 610.044715 308.543537
L 616.213285 308.611152
L 622.381856 308.675178
L 628.550426 308.735806
L 634.718997 308.793214
L 640.887567 308.847576
L 647.056138 308.899051
L 653.224708 308.947795
L 659.393279 308.99395
L 665.561849 309.037656
" clip-path="url(#p6a59967cc2)" style="fill: none; stroke: #e74c3c; stroke-width: 3; stroke-linecap: round"/>
   </g>
   <g id="line2d_2">
    <path d="M 54.873369 311.925342
L 61.04194 311.877113
L 67.21051 311.826642
L 73.379081 311.773823
L 79.547651 311.718548
L 85.716222 311.660702
L 91.884792 311.600166
L 98.053363 311.536816
L 104.221933 311.470519
L 110.390504 311.401139
L 116.559074 311.328533
L 122.727645 311.25255
L 128.896215 311.173034
L 135.064786 311.08982
L 141.233356 311.002737
L 147.401927 310.911604
L 153.570497 310.816232
L 159.739068 310.716426
L 165.907638 310.611978
L 172.076209 310.502673
L 178.244779 310.388285
L 184.41335 310.268578
L 190.58192 310.143304
L 196.750491 310.012204
L 202.919061 309.875008
L 209.087632 309.731431
L 215.256202 309.581178
L 221.424773 309.423937
L 227.593343 309.259384
L 233.761914 309.087179
L 239.930485 308.906966
L 246.099055 308.718372
L 252.267626 308.521008
L 258.436196 308.314466
L 264.604767 308.098318
L 270.773337 307.87212
L 276.941908 307.635402
L 283.110478 307.387676
L 289.279049 307.12843
L 295.447619 306.857128
L 301.61619 306.57321
L 307.78476 306.276089
L 313.953331 305.96515
L 320.121901 305.639752
L 326.290472 305.299221
L 332.459042 304.942855
L 338.627613 304.569916
L 344.796183 304.179635
L 350.964754 303.771204
L 357.133324 303.343779
L 363.301895 302.896478
L 369.470465 302.428376
L 375.639036 301.938505
L 381.807606 301.425854
L 387.976177 300.889363
L 394.144747 300.327923
L 400.313318 299.740374
L 406.481888 299.125503
L 412.650459 298.482037
L 418.819029 297.808648
L 424.9876 297.103945
L 431.15617 296.36647
L 437.324741 295.5947
L 443.493311 294.78704
L 449.661882 293.941821
L 455.830452 293.057297
L 461.999023 292.131639
L 468.167593 291.162935
L 474.336164 290.149182
L 480.504734 289.088287
L 486.673305 287.978057
L 492.841875 286.816197
L 499.010446 285.600306
L 505.179016 284.327873
L 511.347587 282.996267
L 517.516157 281.602736
L 523.684728 280.144402
L 529.853298 278.61825
L 536.021869 277.021127
L 542.190439 275.349732
L 548.35901 273.600612
L 554.52758 271.770151
L 560.696151 269.854568
L 566.864721 267.849904
L 573.033292 265.752015
L 579.201862 263.556568
L 585.370433 261.259025
L 591.539003 258.854638
L 597.707574 256.338439
L 603.876144 253.705228
L 610.044715 250.949564
L 616.213285 248.065752
L 622.381856 245.047833
L 628.550426 241.88957
L 634.718997 238.584437
L 640.887567 235.125604
L 647.056138 231.505924
L 653.224708 227.717915
L 659.393279 223.753752
L 665.561849 219.605241
" clip-path="url(#p6a59967cc2)" style="fill: none; stroke: #3498db; stroke-width: 3; stroke-linecap: round"/>
   </g>
   <g id="line2d_3">
    <path d="M 54.873369 136.16905
L 61.04194 145.283802
L 67.21051 153.909898
L 73.379081 162.073055
L 79.547651 169.797615
L 85.716222 177.106616
L 91.884792 184.021861
L 98.053363 190.563984
L 104.221933 196.752514
L 110.390504 202.605925
L 116.559074 208.141702
L 122.727645 213.376384
L 128.896215 218.325618
L 135.064786 223.004205
L 141.233356 227.426145
L 147.401927 231.604676
L 153.570497 235.552316
L 159.739068 239.280899
L 165.907638 242.801612
L 172.076209 246.125029
L 178.244779 249.261138
L 184.41335 252.219376
L 190.58192 255.008656
L 196.750491 257.637393
L 202.919061 260.113529
L 209.087632 262.444557
L 215.256202 264.637545
L 221.424773 266.699155
L 227.593343 268.635667
L 233.761914 270.452993
L 239.930485 272.156697
L 246.099055 273.752013
L 252.267626 275.243862
L 258.436196 276.636861
L 264.604767 277.935344
L 270.773337 279.143373
L 276.941908 280.264747
L 283.110478 281.303019
L 289.279049 282.261504
L 295.447619 283.143291
L 301.61619 283.951251
L 307.78476 284.688045
L 313.953331 285.356137
L 320.121901 285.957798
L 326.290472 286.495115
L 332.459042 286.969995
L 338.627613 287.384177
L 344.796183 287.739232
L 350.964754 288.036572
L 357.133324 288.277453
L 363.301895 288.46298
L 369.470465 288.594113
L 375.639036 288.671668
L 381.807606 288.69632
L 387.976177 288.66861
L 394.144747 288.588942
L 400.313318 288.457592
L 406.481888 288.274701
L 412.650459 288.040285
L 418.819029 287.754231
L 424.9876 287.416301
L 431.15617 287.02613
L 437.324741 286.583227
L 443.493311 286.086977
L 449.661882 285.536636
L 455.830452 284.931337
L 461.999023 284.270081
L 468.167593 283.551744
L 474.336164 282.775068
L 480.504734 281.938664
L 486.673305 281.041007
L 492.841875 280.080437
L 499.010446 279.055151
L 505.179016 277.963203
L 511.347587 276.802502
L 517.516157 275.570805
L 523.684728 274.265712
L 529.853298 272.884668
L 536.021869 271.424949
L 542.190439 269.883664
L 548.35901 268.257747
L 554.52758 266.543949
L 560.696151 264.738836
L 566.864721 262.838778
L 573.033292 260.839942
L 579.201862 258.73829
L 585.370433 256.529562
L 591.539003 254.209277
L 597.707574 251.772714
L 603.876144 249.214912
L 610.044715 246.530654
L 616.213285 243.714457
L 622.381856 240.760564
L 628.550426 237.662928
L 634.718997 234.415204
L 640.887567 231.010733
L 647.056138 227.442528
L 653.224708 223.703263
L 659.393279 219.785255
L 665.561849 215.680449
" clip-path="url(#p6a59967cc2)" style="fill: none; stroke-dasharray: 14.8,6.4; stroke-dashoffset: 0; stroke: #9b59b6; stroke-width: 4"/>
   </g>
   <g id="patch_3">
    <path d="M 24.338945 320.713157
L 24.338945 127.381236
" style="fill: none; stroke: #cccccc; stroke-linejoin: miter; stroke-linecap: square"/>
   </g>
   <g id="patch_4">
    <path d="M 696.096273 320.713157
L 696.096273 127.381236
" style="fill: none; stroke: #cccccc; stroke-linejoin: miter; stroke-linecap: square"/>
   </g>
   <g id="patch_5">
    <path d="M 24.338945 320.713157
L 696.096273 320.713157
" style="fill: none; stroke: #cccccc; stroke-linejoin: miter; stroke-linecap: square"/>
   </g>
   <g id="patch_6">
    <path d="M 24.338945 127.381236
L 696.096273 127.381236
" style="fill: none; stroke: #cccccc; stroke-linejoin: miter; stroke-linecap: square"/>
   </g>
   <g id="patch_7">
    <path d="M 382.557606 248.679507
Q 382.557606 261.580019 382.557606 274.480531
L 385.807606 274.480531
Q 383.807606 280.482004 381.807606 286.483476
Q 379.807606 280.482004 377.807606 274.480531
L 381.057606 274.480531
Q 381.057606 261.580019 381.057606 248.679507
L 382.557606 248.679507
z
" style="stroke: #000000; stroke-width: 0.8; stroke-linecap: round"/>
   </g>
   <g id="text_3">
    <!-- Optimal Balance -->
    <g style="fill: #262626" transform="translate(330.451669 241.518627) scale(0.14 -0.14)">
     <defs>
      <path id="ArialMT-32" d="M 309 2231
Q 309 3372 921 4017
Q 1534 4663 2503 4663
Q 3138 4663 3647 4359
Q 4156 4056 4423 3514
Q 4691 2972 4691 2284
Q 4691 1588 4409 1038
Q 4128 488 3612 205
Q 3097 -78 2500 -78
Q 1853 -78 1343 234
Q 834 547 571 1087
Q 309 1628 309 2231
z
M 934 2222
Q 934 1394 1379 917
Q 1825 441 2497 441
Q 3181 441 3623 922
Q 4066 1403 4066 2288
Q 4066 2847 3877 3264
Q 3688 3681 3323 3911
Q 2959 4141 2506 4141
Q 1863 4141 1398 3698
Q 934 3256 934 2222
z
" transform="scale(0.015625)"/>
      <path id="ArialMT-53" d="M 422 -1272
L 422 3319
L 934 3319
L 934 2888
Q 1116 3141 1344 3267
Q 1572 3394 1897 3394
Q 2322 3394 2647 3175
Q 2972 2956 3137 2557
Q 3303 2159 3303 1684
Q 3303 1175 3120 767
Q 2938 359 2589 142
Q 2241 -75 1856 -75
Q 1575 -75 1351 44
Q 1128 163 984 344
L 984 -1272
L 422 -1272
z
M 931 1641
Q 931 1000 1190 694
Q 1450 388 1819 388
Q 2194 388 2461 705
Q 2728 1022 2728 1688
Q 2728 2322 2467 2637
Q 2206 2953 1844 2953
Q 1484 2953 1207 2617
Q 931 2281 931 1641
z
" transform="scale(0.015625)"/>
      <path id="ArialMT-57" d="M 1650 503
L 1731 6
Q 1494 -44 1306 -44
Q 1000 -44 831 53
Q 663 150 594 308
Q 525 466 525 972
L 525 2881
L 113 2881
L 113 3319
L 525 3319
L 525 4141
L 1084 4478
L 1084 3319
L 1650 3319
L 1650 2881
L 1084 2881
L 1084 941
Q 1084 700 1114 631
Q 1144 563 1211 522
Q 1278 481 1403 481
Q 1497 481 1650 503
z
" transform="scale(0.015625)"/>
      <path id="ArialMT-4c" d="M 425 3934
L 425 4581
L 988 4581
L 988 3934
L 425 3934
z
M 425 0
L 425 3319
L 988 3319
L 988 0
L 425 0
z
" transform="scale(0.015625)"/>
      <path id="ArialMT-50" d="M 422 0
L 422 3319
L 925 3319
L 925 2853
Q 1081 3097 1340 3245
Q 1600 3394 1931 3394
Q 2300 3394 2536 3241
Q 2772 3088 2869 2813
Q 3263 3394 3894 3394
Q 4388 3394 4653 3120
Q 4919 2847 4919 2278
L 4919 0
L 4359 0
L 4359 2091
Q 4359 2428 4304 2576
Q 4250 2725 4106 2815
Q 3963 2906 3769 2906
Q 3419 2906 3187 2673
Q 2956 2441 2956 1928
L 2956 0
L 2394 0
L 2394 2156
Q 2394 2531 2256 2718
Q 2119 2906 1806 2906
Q 1569 2906 1367 2781
Q 1166 2656 1075 2415
Q 984 2175 984 1722
L 984 0
L 422 0
z
" transform="scale(0.015625)"/>
      <path id="ArialMT-44" d="M 2588 409
Q 2275 144 1986 34
Q 1697 -75 1366 -75
Q 819 -75 525 192
Q 231 459 231 875
Q 231 1119 342 1320
Q 453 1522 633 1644
Q 813 1766 1038 1828
Q 1203 1872 1538 1913
Q 2219 1994 2541 2106
Q 2544 2222 2544 2253
Q 2544 2597 2384 2738
Q 2169 2928 1744 2928
Q 1347 2928 1158 2789
Q 969 2650 878 2297
L 328 2372
Q 403 2725 575 2942
Q 747 3159 1072 3276
Q 1397 3394 1825 3394
Q 2250 3394 2515 3294
Q 2781 3194 2906 3042
Q 3031 2891 3081 2659
Q 3109 2516 3109 2141
L 3109 1391
Q 3109 606 3145 398
Q 3181 191 3288 0
L 2700 0
Q 2613 175 2588 409
z
M 2541 1666
Q 2234 1541 1622 1453
Q 1275 1403 1131 1340
Q 988 1278 909 1158
Q 831 1038 831 891
Q 831 666 1001 516
Q 1172 366 1500 366
Q 1825 366 2078 508
Q 2331 650 2450 897
Q 2541 1088 2541 1459
L 2541 1666
z
" transform="scale(0.015625)"/>
      <path id="ArialMT-4f" d="M 409 0
L 409 4581
L 972 4581
L 972 0
L 409 0
z
" transform="scale(0.015625)"/>
      <path id="ArialMT-3" transform="scale(0.015625)"/>
      <path id="ArialMT-25" d="M 469 0
L 469 4581
L 2188 4581
Q 2713 4581 3030 4442
Q 3347 4303 3526 4014
Q 3706 3725 3706 3409
Q 3706 3116 3547 2856
Q 3388 2597 3066 2438
Q 3481 2316 3704 2022
Q 3928 1728 3928 1328
Q 3928 1006 3792 729
Q 3656 453 3456 303
Q 3256 153 2954 76
Q 2653 0 2216 0
L 469 0
z
M 1075 2656
L 2066 2656
Q 2469 2656 2644 2709
Q 2875 2778 2992 2937
Q 3109 3097 3109 3338
Q 3109 3566 3000 3739
Q 2891 3913 2687 3977
Q 2484 4041 1991 4041
L 1075 4041
L 1075 2656
z
M 1075 541
L 2216 541
Q 2509 541 2628 563
Q 2838 600 2978 687
Q 3119 775 3209 942
Q 3300 1109 3300 1328
Q 3300 1584 3169 1773
Q 3038 1963 2805 2039
Q 2572 2116 2134 2116
L 1075 2116
L 1075 541
z
" transform="scale(0.015625)"/>
      <path id="ArialMT-51" d="M 422 0
L 422 3319
L 928 3319
L 928 2847
Q 1294 3394 1984 3394
Q 2284 3394 2536 3286
Q 2788 3178 2913 3003
Q 3038 2828 3088 2588
Q 3119 2431 3119 2041
L 3119 0
L 2556 0
L 2556 2019
Q 2556 2363 2490 2533
Q 2425 2703 2258 2804
Q 2091 2906 1866 2906
Q 1506 2906 1245 2678
Q 984 2450 984 1813
L 984 0
L 422 0
z
" transform="scale(0.015625)"/>
      <path id="ArialMT-46" d="M 2588 1216
L 3141 1144
Q 3050 572 2676 248
Q 2303 -75 1759 -75
Q 1078 -75 664 370
Q 250 816 250 1647
Q 250 2184 428 2587
Q 606 2991 970 3192
Q 1334 3394 1763 3394
Q 2303 3394 2647 3120
Q 2991 2847 3088 2344
L 2541 2259
Q 2463 2594 2264 2762
Q 2066 2931 1784 2931
Q 1359 2931 1093 2626
Q 828 2322 828 1663
Q 828 994 1084 691
Q 1341 388 1753 388
Q 2084 388 2306 591
Q 2528 794 2588 1216
z
" transform="scale(0.015625)"/>
      <path id="ArialMT-48" d="M 2694 1069
L 3275 997
Q 3138 488 2766 206
Q 2394 -75 1816 -75
Q 1088 -75 661 373
Q 234 822 234 1631
Q 234 2469 665 2931
Q 1097 3394 1784 3394
Q 2450 3394 2872 2941
Q 3294 2488 3294 1666
Q 3294 1616 3291 1516
L 816 1516
Q 847 969 1125 678
Q 1403 388 1819 388
Q 2128 388 2347 550
Q 2566 713 2694 1069
z
M 847 1978
L 2700 1978
Q 2663 2397 2488 2606
Q 2219 2931 1791 2931
Q 1403 2931 1139 2672
Q 875 2413 847 1978
z
" transform="scale(0.015625)"/>
     </defs>
     <use xlink:href="#ArialMT-32"/>
     <use xlink:href="#ArialMT-53" transform="translate(77.78125 0)"/>
     <use xlink:href="#ArialMT-57" transform="translate(133.390625 0)"/>
     <use xlink:href="#ArialMT-4c" transform="translate(161.171875 0)"/>
     <use xlink:href="#ArialMT-50" transform="translate(183.390625 0)"/>
     <use xlink:href="#ArialMT-44" transform="translate(266.6875 0)"/>
     <use xlink:href="#ArialMT-4f" transform="translate(322.296875 0)"/>
     <use xlink:href="#ArialMT-3" transform="translate(344.515625 0)"/>
     <use xlink:href="#ArialMT-25" transform="translate(372.296875 0)"/>
     <use xlink:href="#ArialMT-44" transform="translate(439 0)"/>
     <use xlink:href="#ArialMT-4f" transform="translate(494.609375 0)"/>
     <use xlink:href="#ArialMT-44" transform="translate(516.828125 0)"/>
     <use xlink:href="#ArialMT-51" transform="translate(572.4375 0)"/>
     <use xlink:href="#ArialMT-46" transform="translate(628.046875 0)"/>
     <use xlink:href="#ArialMT-48" transform="translate(678.046875 0)"/>
    </g>
   </g>
   <g id="text_4">
    <!-- Stochastic Brute-Force -->
    <g style="fill: #c0392b" transform="translate(88.800507 16.835742) scale(0.12 -0.12)">
     <defs>
      <path id="ArialMT-36" d="M 288 1472
L 859 1522
Q 900 1178 1048 958
Q 1197 738 1509 602
Q 1822 466 2213 466
Q 2559 466 2825 569
Q 3091 672 3220 851
Q 3350 1031 3350 1244
Q 3350 1459 3225 1620
Q 3100 1781 2813 1891
Q 2628 1963 1997 2114
Q 1366 2266 1113 2400
Q 784 2572 623 2826
Q 463 3081 463 3397
Q 463 3744 659 4045
Q 856 4347 1234 4503
Q 1613 4659 2075 4659
Q 2584 4659 2973 4495
Q 3363 4331 3572 4012
Q 3781 3694 3797 3291
L 3216 3247
Q 3169 3681 2898 3903
Q 2628 4125 2100 4125
Q 1550 4125 1298 3923
Q 1047 3722 1047 3438
Q 1047 3191 1225 3031
Q 1400 2872 2139 2705
Q 2878 2538 3153 2413
Q 3553 2228 3743 1945
Q 3934 1663 3934 1294
Q 3934 928 3725 604
Q 3516 281 3123 101
Q 2731 -78 2241 -78
Q 1619 -78 1198 103
Q 778 284 539 648
Q 300 1013 288 1472
z
" transform="scale(0.015625)"/>
      <path id="ArialMT-52" d="M 213 1659
Q 213 2581 725 3025
Q 1153 3394 1769 3394
Q 2453 3394 2887 2945
Q 3322 2497 3322 1706
Q 3322 1066 3130 698
Q 2938 331 2570 128
Q 2203 -75 1769 -75
Q 1072 -75 642 372
Q 213 819 213 1659
z
M 791 1659
Q 791 1022 1069 705
Q 1347 388 1769 388
Q 2188 388 2466 706
Q 2744 1025 2744 1678
Q 2744 2294 2464 2611
Q 2184 2928 1769 2928
Q 1347 2928 1069 2612
Q 791 2297 791 1659
z
" transform="scale(0.015625)"/>
      <path id="ArialMT-4b" d="M 422 0
L 422 4581
L 984 4581
L 984 2938
Q 1378 3394 1978 3394
Q 2347 3394 2619 3248
Q 2891 3103 3008 2847
Q 3125 2591 3125 2103
L 3125 0
L 2563 0
L 2563 2103
Q 2563 2525 2380 2717
Q 2197 2909 1863 2909
Q 1613 2909 1392 2779
Q 1172 2650 1078 2428
Q 984 2206 984 1816
L 984 0
L 422 0
z
" transform="scale(0.015625)"/>
      <path id="ArialMT-56" d="M 197 991
L 753 1078
Q 800 744 1014 566
Q 1228 388 1613 388
Q 2000 388 2187 545
Q 2375 703 2375 916
Q 2375 1106 2209 1216
Q 2094 1291 1634 1406
Q 1016 1563 777 1677
Q 538 1791 414 1992
Q 291 2194 291 2438
Q 291 2659 392 2848
Q 494 3038 669 3163
Q 800 3259 1026 3326
Q 1253 3394 1513 3394
Q 1903 3394 2198 3281
Q 2494 3169 2634 2976
Q 2775 2784 2828 2463
L 2278 2388
Q 2241 2644 2061 2787
Q 1881 2931 1553 2931
Q 1166 2931 1000 2803
Q 834 2675 834 2503
Q 834 2394 903 2306
Q 972 2216 1119 2156
Q 1203 2125 1616 2013
Q 2213 1853 2448 1751
Q 2684 1650 2818 1456
Q 2953 1263 2953 975
Q 2953 694 2789 445
Q 2625 197 2315 61
Q 2006 -75 1616 -75
Q 969 -75 630 194
Q 291 463 197 991
z
" transform="scale(0.015625)"/>
      <path id="ArialMT-55" d="M 416 0
L 416 3319
L 922 3319
L 922 2816
Q 1116 3169 1280 3281
Q 1444 3394 1641 3394
Q 1925 3394 2219 3213
L 2025 2691
Q 1819 2813 1613 2813
Q 1428 2813 1281 2702
Q 1134 2591 1072 2394
Q 978 2094 978 1738
L 978 0
L 416 0
z
" transform="scale(0.015625)"/>
      <path id="ArialMT-58" d="M 2597 0
L 2597 488
Q 2209 -75 1544 -75
Q 1250 -75 995 37
Q 741 150 617 320
Q 494 491 444 738
Q 409 903 409 1263
L 409 3319
L 972 3319
L 972 1478
Q 972 1038 1006 884
Q 1059 663 1231 536
Q 1403 409 1656 409
Q 1909 409 2131 539
Q 2353 669 2445 892
Q 2538 1116 2538 1541
L 2538 3319
L 3100 3319
L 3100 0
L 2597 0
z
" transform="scale(0.015625)"/>
      <path id="ArialMT-10" d="M 203 1375
L 203 1941
L 1931 1941
L 1931 1375
L 203 1375
z
" transform="scale(0.015625)"/>
      <path id="ArialMT-29" d="M 525 0
L 525 4581
L 3616 4581
L 3616 4041
L 1131 4041
L 1131 2622
L 3281 2622
L 3281 2081
L 1131 2081
L 1131 0
L 525 0
z
" transform="scale(0.015625)"/>
     </defs>
     <use xlink:href="#ArialMT-36"/>
     <use xlink:href="#ArialMT-57" transform="translate(66.703125 0)"/>
     <use xlink:href="#ArialMT-52" transform="translate(94.484375 0)"/>
     <use xlink:href="#ArialMT-46" transform="translate(150.09375 0)"/>
     <use xlink:href="#ArialMT-4b" transform="translate(200.09375 0)"/>
     <use xlink:href="#ArialMT-44" transform="translate(255.703125 0)"/>
     <use xlink:href="#ArialMT-56" transform="translate(311.3125 0)"/>
     <use xlink:href="#ArialMT-57" transform="translate(361.3125 0)"/>
     <use xlink:href="#ArialMT-4c" transform="translate(389.09375 0)"/>
     <use xlink:href="#ArialMT-46" transform="translate(411.3125 0)"/>
     <use xlink:href="#ArialMT-3" transform="translate(461.3125 0)"/>
     <use xlink:href="#ArialMT-25" transform="translate(489.09375 0)"/>
     <use xlink:href="#ArialMT-55" transform="translate(555.796875 0)"/>
     <use xlink:href="#ArialMT-58" transform="translate(589.09375 0)"/>
     <use xlink:href="#ArialMT-57" transform="translate(644.703125 0)"/>
     <use xlink:href="#ArialMT-48" transform="translate(672.484375 0)"/>
     <use xlink:href="#ArialMT-10" transform="translate(728.09375 0)"/>
     <use xlink:href="#ArialMT-29" transform="translate(761.390625 0)"/>
     <use xlink:href="#ArialMT-52" transform="translate(822.46875 0)"/>
     <use xlink:href="#ArialMT-55" transform="translate(878.078125 0)"/>
     <use xlink:href="#ArialMT-46" transform="translate(911.375 0)"/>
     <use xlink:href="#ArialMT-48" transform="translate(961.375 0)"/>
    </g>
    <!-- (Weak Agent, High Sim Cost) -->
    <g style="fill: #c0392b" transform="translate(88.800507 29.896289) scale(0.12 -0.12)">
     <defs>
      <path id="ArialMT-b" d="M 1497 -1347
Q 1031 -759 709 28
Q 388 816 388 1659
Q 388 2403 628 3084
Q 909 3875 1497 4659
L 1900 4659
Q 1522 4009 1400 3731
Q 1209 3300 1100 2831
Q 966 2247 966 1656
Q 966 153 1900 -1347
L 1497 -1347
z
" transform="scale(0.015625)"/>
      <path id="ArialMT-3a" d="M 1294 0
L 78 4581
L 700 4581
L 1397 1578
Q 1509 1106 1591 641
Q 1766 1375 1797 1488
L 2669 4581
L 3400 4581
L 4056 2263
Q 4303 1400 4413 641
Q 4500 1075 4641 1638
L 5359 4581
L 5969 4581
L 4713 0
L 4128 0
L 3163 3491
Q 3041 3928 3019 4028
Q 2947 3713 2884 3491
L 1913 0
L 1294 0
z
" transform="scale(0.015625)"/>
      <path id="ArialMT-4e" d="M 425 0
L 425 4581
L 988 4581
L 988 1969
L 2319 3319
L 3047 3319
L 1778 2088
L 3175 0
L 2481 0
L 1384 1697
L 988 1316
L 988 0
L 425 0
z
" transform="scale(0.015625)"/>
      <path id="ArialMT-24" d="M -9 0
L 1750 4581
L 2403 4581
L 4278 0
L 3588 0
L 3053 1388
L 1138 1388
L 634 0
L -9 0
z
M 1313 1881
L 2866 1881
L 2388 3150
Q 2169 3728 2063 4100
Q 1975 3659 1816 3225
L 1313 1881
z
" transform="scale(0.015625)"/>
      <path id="ArialMT-4a" d="M 319 -275
L 866 -356
Q 900 -609 1056 -725
Q 1266 -881 1628 -881
Q 2019 -881 2231 -725
Q 2444 -569 2519 -288
Q 2563 -116 2559 434
Q 2191 0 1641 0
Q 956 0 581 494
Q 206 988 206 1678
Q 206 2153 378 2554
Q 550 2956 876 3175
Q 1203 3394 1644 3394
Q 2231 3394 2613 2919
L 2613 3319
L 3131 3319
L 3131 450
Q 3131 -325 2973 -648
Q 2816 -972 2473 -1159
Q 2131 -1347 1631 -1347
Q 1038 -1347 672 -1080
Q 306 -813 319 -275
z
M 784 1719
Q 784 1066 1043 766
Q 1303 466 1694 466
Q 2081 466 2343 764
Q 2606 1063 2606 1700
Q 2606 2309 2336 2618
Q 2066 2928 1684 2928
Q 1309 2928 1046 2623
Q 784 2319 784 1719
z
" transform="scale(0.015625)"/>
      <path id="ArialMT-f" d="M 569 0
L 569 641
L 1209 641
L 1209 0
Q 1209 -353 1084 -570
Q 959 -788 688 -906
L 531 -666
Q 709 -588 793 -436
Q 878 -284 888 0
L 569 0
z
" transform="scale(0.015625)"/>
      <path id="ArialMT-2b" d="M 513 0
L 513 4581
L 1119 4581
L 1119 2700
L 3500 2700
L 3500 4581
L 4106 4581
L 4106 0
L 3500 0
L 3500 2159
L 1119 2159
L 1119 0
L 513 0
z
" transform="scale(0.015625)"/>
      <path id="ArialMT-26" d="M 3763 1606
L 4369 1453
Q 4178 706 3683 314
Q 3188 -78 2472 -78
Q 1731 -78 1267 223
Q 803 525 561 1097
Q 319 1669 319 2325
Q 319 3041 592 3573
Q 866 4106 1370 4382
Q 1875 4659 2481 4659
Q 3169 4659 3637 4309
Q 4106 3959 4291 3325
L 3694 3184
Q 3534 3684 3231 3912
Q 2928 4141 2469 4141
Q 1941 4141 1586 3887
Q 1231 3634 1087 3207
Q 944 2781 944 2328
Q 944 1744 1114 1308
Q 1284 872 1643 656
Q 2003 441 2422 441
Q 2931 441 3284 734
Q 3638 1028 3763 1606
z
" transform="scale(0.015625)"/>
      <path id="ArialMT-c" d="M 791 -1347
L 388 -1347
Q 1322 153 1322 1656
Q 1322 2244 1188 2822
Q 1081 3291 891 3722
Q 769 4003 388 4659
L 791 4659
Q 1378 3875 1659 3084
Q 1900 2403 1900 1659
Q 1900 816 1576 28
Q 1253 -759 791 -1347
z
" transform="scale(0.015625)"/>
     </defs>
     <use xlink:href="#ArialMT-b"/>
     <use xlink:href="#ArialMT-3a" transform="translate(33.296875 0)"/>
     <use xlink:href="#ArialMT-48" transform="translate(125.875 0)"/>
     <use xlink:href="#ArialMT-44" transform="translate(181.484375 0)"/>
     <use xlink:href="#ArialMT-4e" transform="translate(237.09375 0)"/>
     <use xlink:href="#ArialMT-3" transform="translate(287.09375 0)"/>
     <use xlink:href="#ArialMT-24" transform="translate(309.359375 0)"/>
     <use xlink:href="#ArialMT-4a" transform="translate(376.0625 0)"/>
     <use xlink:href="#ArialMT-48" transform="translate(431.671875 0)"/>
     <use xlink:href="#ArialMT-51" transform="translate(487.28125 0)"/>
     <use xlink:href="#ArialMT-57" transform="translate(542.890625 0)"/>
     <use xlink:href="#ArialMT-f" transform="translate(570.671875 0)"/>
     <use xlink:href="#ArialMT-3" transform="translate(598.453125 0)"/>
     <use xlink:href="#ArialMT-2b" transform="translate(626.234375 0)"/>
     <use xlink:href="#ArialMT-4c" transform="translate(698.453125 0)"/>
     <use xlink:href="#ArialMT-4a" transform="translate(720.671875 0)"/>
     <use xlink:href="#ArialMT-4b" transform="translate(776.28125 0)"/>
     <use xlink:href="#ArialMT-3" transform="translate(831.890625 0)"/>
     <use xlink:href="#ArialMT-36" transform="translate(859.671875 0)"/>
     <use xlink:href="#ArialMT-4c" transform="translate(926.375 0)"/>
     <use xlink:href="#ArialMT-50" transform="translate(948.59375 0)"/>
     <use xlink:href="#ArialMT-3" transform="translate(1031.890625 0)"/>
     <use xlink:href="#ArialMT-26" transform="translate(1059.671875 0)"/>
     <use xlink:href="#ArialMT-52" transform="translate(1131.890625 0)"/>
     <use xlink:href="#ArialMT-56" transform="translate(1187.5 0)"/>
     <use xlink:href="#ArialMT-57" transform="translate(1237.5 0)"/>
     <use xlink:href="#ArialMT-c" transform="translate(1265.28125 0)"/>
    </g>
   </g>
   <g id="text_5">
    <!-- Zero-Shot Heavy -->
    <g style="fill: #2980b9" transform="translate(540.937212 205.54628) scale(0.12 -0.12)">
     <defs>
      <path id="ArialMT-3d" d="M 128 0
L 128 563
L 2475 3497
Q 2725 3809 2950 4041
L 394 4041
L 394 4581
L 3675 4581
L 3675 4041
L 1103 863
L 825 541
L 3750 541
L 3750 0
L 128 0
z
" transform="scale(0.015625)"/>
      <path id="ArialMT-59" d="M 1344 0
L 81 3319
L 675 3319
L 1388 1331
Q 1503 1009 1600 663
Q 1675 925 1809 1294
L 2547 3319
L 3125 3319
L 1869 0
L 1344 0
z
" transform="scale(0.015625)"/>
      <path id="ArialMT-5c" d="M 397 -1278
L 334 -750
Q 519 -800 656 -800
Q 844 -800 956 -737
Q 1069 -675 1141 -563
Q 1194 -478 1313 -144
Q 1328 -97 1363 -6
L 103 3319
L 709 3319
L 1400 1397
Q 1534 1031 1641 628
Q 1738 1016 1872 1384
L 2581 3319
L 3144 3319
L 1881 -56
Q 1678 -603 1566 -809
Q 1416 -1088 1222 -1217
Q 1028 -1347 759 -1347
Q 597 -1347 397 -1278
z
" transform="scale(0.015625)"/>
     </defs>
     <use xlink:href="#ArialMT-3d"/>
     <use xlink:href="#ArialMT-48" transform="translate(61.078125 0)"/>
     <use xlink:href="#ArialMT-55" transform="translate(116.6875 0)"/>
     <use xlink:href="#ArialMT-52" transform="translate(149.984375 0)"/>
     <use xlink:href="#ArialMT-10" transform="translate(205.59375 0)"/>
     <use xlink:href="#ArialMT-36" transform="translate(238.890625 0)"/>
     <use xlink:href="#ArialMT-4b" transform="translate(305.59375 0)"/>
     <use xlink:href="#ArialMT-52" transform="translate(361.203125 0)"/>
     <use xlink:href="#ArialMT-57" transform="translate(416.8125 0)"/>
     <use xlink:href="#ArialMT-3" transform="translate(444.59375 0)"/>
     <use xlink:href="#ArialMT-2b" transform="translate(472.375 0)"/>
     <use xlink:href="#ArialMT-48" transform="translate(544.59375 0)"/>
     <use xlink:href="#ArialMT-44" transform="translate(600.203125 0)"/>
     <use xlink:href="#ArialMT-59" transform="translate(655.8125 0)"/>
     <use xlink:href="#ArialMT-5c" transform="translate(705.8125 0)"/>
    </g>
    <!-- (Massive Model, High Inf Cost) -->
    <g style="fill: #2980b9" transform="translate(467.592837 218.607061) scale(0.12 -0.12)">
     <defs>
      <path id="ArialMT-30" d="M 475 0
L 475 4581
L 1388 4581
L 2472 1338
Q 2622 884 2691 659
Q 2769 909 2934 1394
L 4031 4581
L 4847 4581
L 4847 0
L 4263 0
L 4263 3834
L 2931 0
L 2384 0
L 1059 3900
L 1059 0
L 475 0
z
" transform="scale(0.015625)"/>
      <path id="ArialMT-47" d="M 2575 0
L 2575 419
Q 2259 -75 1647 -75
Q 1250 -75 917 144
Q 584 363 401 755
Q 219 1147 219 1656
Q 219 2153 384 2558
Q 550 2963 881 3178
Q 1213 3394 1622 3394
Q 1922 3394 2156 3267
Q 2391 3141 2538 2938
L 2538 4581
L 3097 4581
L 3097 0
L 2575 0
z
M 797 1656
Q 797 1019 1065 703
Q 1334 388 1700 388
Q 2069 388 2326 689
Q 2584 991 2584 1609
Q 2584 2291 2321 2609
Q 2059 2928 1675 2928
Q 1300 2928 1048 2622
Q 797 2316 797 1656
z
" transform="scale(0.015625)"/>
      <path id="ArialMT-2c" d="M 597 0
L 597 4581
L 1203 4581
L 1203 0
L 597 0
z
" transform="scale(0.015625)"/>
      <path id="ArialMT-49" d="M 556 0
L 556 2881
L 59 2881
L 59 3319
L 556 3319
L 556 3672
Q 556 4006 616 4169
Q 697 4388 901 4523
Q 1106 4659 1475 4659
Q 1713 4659 2000 4603
L 1916 4113
Q 1741 4144 1584 4144
Q 1328 4144 1222 4034
Q 1116 3925 1116 3625
L 1116 3319
L 1763 3319
L 1763 2881
L 1116 2881
L 1116 0
L 556 0
z
" transform="scale(0.015625)"/>
     </defs>
     <use xlink:href="#ArialMT-b"/>
     <use xlink:href="#ArialMT-30" transform="translate(33.296875 0)"/>
     <use xlink:href="#ArialMT-44" transform="translate(116.59375 0)"/>
     <use xlink:href="#ArialMT-56" transform="translate(172.203125 0)"/>
     <use xlink:href="#ArialMT-56" transform="translate(222.203125 0)"/>
     <use xlink:href="#ArialMT-4c" transform="translate(272.203125 0)"/>
     <use xlink:href="#ArialMT-59" transform="translate(294.421875 0)"/>
     <use xlink:href="#ArialMT-48" transform="translate(344.421875 0)"/>
     <use xlink:href="#ArialMT-3" transform="translate(400.03125 0)"/>
     <use xlink:href="#ArialMT-30" transform="translate(427.8125 0)"/>
     <use xlink:href="#ArialMT-52" transform="translate(511.109375 0)"/>
     <use xlink:href="#ArialMT-47" transform="translate(566.71875 0)"/>
     <use xlink:href="#ArialMT-48" transform="translate(622.328125 0)"/>
     <use xlink:href="#ArialMT-4f" transform="translate(677.9375 0)"/>
     <use xlink:href="#ArialMT-f" transform="translate(700.15625 0)"/>
     <use xlink:href="#ArialMT-3" transform="translate(727.9375 0)"/>
     <use xlink:href="#ArialMT-2b" transform="translate(755.71875 0)"/>
     <use xlink:href="#ArialMT-4c" transform="translate(827.9375 0)"/>
     <use xlink:href="#ArialMT-4a" transform="translate(850.15625 0)"/>
     <use xlink:href="#ArialMT-4b" transform="translate(905.765625 0)"/>
     <use xlink:href="#ArialMT-3" transform="translate(961.375 0)"/>
     <use xlink:href="#ArialMT-2c" transform="translate(989.15625 0)"/>
     <use xlink:href="#ArialMT-51" transform="translate(1016.9375 0)"/>
     <use xlink:href="#ArialMT-49" transform="translate(1072.546875 0)"/>
     <use xlink:href="#ArialMT-3" transform="translate(1100.328125 0)"/>
     <use xlink:href="#ArialMT-26" transform="translate(1128.109375 0)"/>
     <use xlink:href="#ArialMT-52" transform="translate(1200.328125 0)"/>
     <use xlink:href="#ArialMT-56" transform="translate(1255.9375 0)"/>
     <use xlink:href="#ArialMT-57" transform="translate(1305.9375 0)"/>
     <use xlink:href="#ArialMT-c" transform="translate(1333.71875 0)"/>
    </g>
   </g>
   <g id="text_6">
    <!-- The Economics of Agentic Evaluation -->
    <g style="fill: #262626" transform="translate(199.538078 107.381236) scale(0.18 -0.18)">
     <defs>
      <path id="Arial-BoldMT-4b" d="M 1334 4581
L 1334 2897
Q 1759 3394 2350 3394
Q 2653 3394 2897 3281
Q 3141 3169 3264 2994
Q 3388 2819 3433 2606
Q 3478 2394 3478 1947
L 3478 0
L 2600 0
L 2600 1753
Q 2600 2275 2550 2415
Q 2500 2556 2373 2639
Q 2247 2722 2056 2722
Q 1838 2722 1666 2615
Q 1494 2509 1414 2295
Q 1334 2081 1334 1663
L 1334 0
L 456 0
L 456 4581
L 1334 4581
z
" transform="scale(0.015625)"/>
      <path id="Arial-BoldMT-28" d="M 466 0
L 466 4581
L 3863 4581
L 3863 3806
L 1391 3806
L 1391 2791
L 3691 2791
L 3691 2019
L 1391 2019
L 1391 772
L 3950 772
L 3950 0
L 466 0
z
" transform="scale(0.015625)"/>
      <path id="Arial-BoldMT-49" d="M 75 3319
L 563 3319
L 563 3569
Q 563 3988 652 4194
Q 741 4400 980 4529
Q 1219 4659 1584 4659
Q 1959 4659 2319 4547
L 2200 3934
Q 1991 3984 1797 3984
Q 1606 3984 1523 3895
Q 1441 3806 1441 3553
L 1441 3319
L 2097 3319
L 2097 2628
L 1441 2628
L 1441 0
L 563 0
L 563 2628
L 75 2628
L 75 3319
z
" transform="scale(0.015625)"/>
      <path id="Arial-BoldMT-59" d="M 1372 0
L 34 3319
L 956 3319
L 1581 1625
L 1763 1059
Q 1834 1275 1853 1344
Q 1897 1484 1947 1625
L 2578 3319
L 3481 3319
L 2163 0
L 1372 0
z
" transform="scale(0.015625)"/>
     </defs>
     <use xlink:href="#Arial-BoldMT-37"/>
     <use xlink:href="#Arial-BoldMT-4b" transform="translate(61.078125 0)"/>
     <use xlink:href="#Arial-BoldMT-48" transform="translate(122.15625 0)"/>
     <use xlink:href="#Arial-BoldMT-3" transform="translate(177.765625 0)"/>
     <use xlink:href="#Arial-BoldMT-28" transform="translate(205.546875 0)"/>
     <use xlink:href="#Arial-BoldMT-46" transform="translate(272.25 0)"/>
     <use xlink:href="#Arial-BoldMT-52" transform="translate(327.859375 0)"/>
     <use xlink:href="#Arial-BoldMT-51" transform="translate(388.9375 0)"/>
     <use xlink:href="#Arial-BoldMT-52" transform="translate(450.015625 0)"/>
     <use xlink:href="#Arial-BoldMT-50" transform="translate(511.09375 0)"/>
     <use xlink:href="#Arial-BoldMT-4c" transform="translate(600.015625 0)"/>
     <use xlink:href="#Arial-BoldMT-46" transform="translate(627.796875 0)"/>
     <use xlink:href="#Arial-BoldMT-56" transform="translate(683.40625 0)"/>
     <use xlink:href="#Arial-BoldMT-3" transform="translate(739.015625 0)"/>
     <use xlink:href="#Arial-BoldMT-52" transform="translate(766.796875 0)"/>
     <use xlink:href="#Arial-BoldMT-49" transform="translate(827.875 0)"/>
     <use xlink:href="#Arial-BoldMT-3" transform="translate(861.171875 0)"/>
     <use xlink:href="#Arial-BoldMT-24" transform="translate(885.25 0)"/>
     <use xlink:href="#Arial-BoldMT-4a" transform="translate(957.46875 0)"/>
     <use xlink:href="#Arial-BoldMT-48" transform="translate(1018.546875 0)"/>
     <use xlink:href="#Arial-BoldMT-51" transform="translate(1074.15625 0)"/>
     <use xlink:href="#Arial-BoldMT-57" transform="translate(1135.234375 0)"/>
     <use xlink:href="#Arial-BoldMT-4c" transform="translate(1168.53125 0)"/>
     <use xlink:href="#Arial-BoldMT-46" transform="translate(1196.3125 0)"/>
     <use xlink:href="#Arial-BoldMT-3" transform="translate(1251.921875 0)"/>
     <use xlink:href="#Arial-BoldMT-28" transform="translate(1279.703125 0)"/>
     <use xlink:href="#Arial-BoldMT-59" transform="translate(1346.40625 0)"/>
     <use xlink:href="#Arial-BoldMT-44" transform="translate(1402.015625 0)"/>
     <use xlink:href="#Arial-BoldMT-4f" transform="translate(1457.625 0)"/>
     <use xlink:href="#Arial-BoldMT-58" transform="translate(1485.40625 0)"/>
     <use xlink:href="#Arial-BoldMT-44" transform="translate(1546.484375 0)"/>
     <use xlink:href="#Arial-BoldMT-57" transform="translate(1602.09375 0)"/>
     <use xlink:href="#Arial-BoldMT-4c" transform="translate(1635.390625 0)"/>
     <use xlink:href="#Arial-BoldMT-52" transform="translate(1663.171875 0)"/>
     <use xlink:href="#Arial-BoldMT-51" transform="translate(1724.25 0)"/>
    </g>
   </g>
   <g id="PathCollection_1">
    <defs>
     <path id="m0185f5e5c1" d="M 0 5
C 1.326016 5 2.597899 4.473168 3.535534 3.535534
C 4.473168 2.597899 5 1.326016 5 0
C 5 -1.326016 4.473168 -2.597899 3.535534 -3.535534
C 2.597899 -4.473168 1.326016 -5 0 -5
C -1.326016 -5 -2.597899 -4.473168 -3.535534 -3.535534
C -4.473168 -2.597899 -5 -1.326016 -5 0
C -5 1.326016 -4.473168 2.597899 -3.535534 3.535534
C -2.597899 4.473168 -1.326016 5 0 5
z
" style="stroke: #2c3e50; stroke-width: 0.8"/>
    </defs>
    <g clip-path="url(#p6a59967cc2)">
     <use xlink:href="#m0185f5e5c1" x="381.807606" y="288.69632" style="fill: #2c3e50; stroke: #2c3e50; stroke-width: 0.8"/>
    </g>
   </g>
   <g id="legend_1">
    <g id="patch_8">
     <path d="M 253.981359 190.766861
L 470.453859 190.766861
Q 472.853859 190.766861 472.853859 188.366861
L 472.853859 137.781236
Q 472.853859 135.381236 470.453859 135.381236
L 253.981359 135.381236
Q 251.581359 135.381236 251.581359 137.781236
L 251.581359 188.366861
Q 251.581359 190.766861 253.981359 190.766861
z
" style="fill: #4d4d4d; opacity: 0.5; stroke: #4d4d4d; stroke-width: 0.8; stroke-linejoin: miter"/>
    </g>
    <g id="patch_9">
     <path d="M 251.981359 188.766861
L 468.453859 188.766861
Q 470.853859 188.766861 470.853859 186.366861
L 470.853859 135.781236
Q 470.853859 133.381236 468.453859 133.381236
L 251.981359 133.381236
Q 249.581359 133.381236 249.581359 135.781236
L 249.581359 186.366861
Q 249.581359 188.766861 251.981359 188.766861
z
" style="fill: #ffffff; stroke: #cccccc; stroke-width: 0.8; stroke-linejoin: miter"/>
    </g>
    <g id="line2d_4">
     <path d="M 254.381359 142.717564
L 266.381359 142.717564
L 278.381359 142.717564
" style="fill: none; stroke: #e74c3c; stroke-width: 3; stroke-linecap: round"/>
    </g>
    <g id="text_7">
     <!-- Simulation Cost (Simulator Tax) -->
     <g style="fill: #262626" transform="translate(287.981359 146.917564) scale(0.12 -0.12)">
      <defs>
       <path id="ArialMT-37" d="M 1659 0
L 1659 4041
L 150 4041
L 150 4581
L 3781 4581
L 3781 4041
L 2266 4041
L 2266 0
L 1659 0
z
" transform="scale(0.015625)"/>
       <path id="ArialMT-5b" d="M 47 0
L 1259 1725
L 138 3319
L 841 3319
L 1350 2541
Q 1494 2319 1581 2169
Q 1719 2375 1834 2534
L 2394 3319
L 3066 3319
L 1919 1756
L 3153 0
L 2463 0
L 1781 1031
L 1600 1309
L 728 0
L 47 0
z
" transform="scale(0.015625)"/>
      </defs>
      <use xlink:href="#ArialMT-36"/>
      <use xlink:href="#ArialMT-4c" transform="translate(66.703125 0)"/>
      <use xlink:href="#ArialMT-50" transform="translate(88.921875 0)"/>
      <use xlink:href="#ArialMT-58" transform="translate(172.21875 0)"/>
      <use xlink:href="#ArialMT-4f" transform="translate(227.828125 0)"/>
      <use xlink:href="#ArialMT-44" transform="translate(250.046875 0)"/>
      <use xlink:href="#ArialMT-57" transform="translate(305.65625 0)"/>
      <use xlink:href="#ArialMT-4c" transform="translate(333.4375 0)"/>
      <use xlink:href="#ArialMT-52" transform="translate(355.65625 0)"/>
      <use xlink:href="#ArialMT-51" transform="translate(411.265625 0)"/>
      <use xlink:href="#ArialMT-3" transform="translate(466.875 0)"/>
      <use xlink:href="#ArialMT-26" transform="translate(494.65625 0)"/>
      <use xlink:href="#ArialMT-52" transform="translate(566.875 0)"/>
      <use xlink:href="#ArialMT-56" transform="translate(622.484375 0)"/>
      <use xlink:href="#ArialMT-57" transform="translate(672.484375 0)"/>
      <use xlink:href="#ArialMT-3" transform="translate(700.265625 0)"/>
      <use xlink:href="#ArialMT-b" transform="translate(728.046875 0)"/>
      <use xlink:href="#ArialMT-36" transform="translate(761.34375 0)"/>
      <use xlink:href="#ArialMT-4c" transform="translate(828.046875 0)"/>
      <use xlink:href="#ArialMT-50" transform="translate(850.265625 0)"/>
      <use xlink:href="#ArialMT-58" transform="translate(933.5625 0)"/>
      <use xlink:href="#ArialMT-4f" transform="translate(989.171875 0)"/>
      <use xlink:href="#ArialMT-44" transform="translate(1011.390625 0)"/>
      <use xlink:href="#ArialMT-57" transform="translate(1067 0)"/>
      <use xlink:href="#ArialMT-52" transform="translate(1094.78125 0)"/>
      <use xlink:href="#ArialMT-55" transform="translate(1150.390625 0)"/>
      <use xlink:href="#ArialMT-3" transform="translate(1183.6875 0)"/>
      <use xlink:href="#ArialMT-37" transform="translate(1209.65625 0)"/>
      <use xlink:href="#ArialMT-44" transform="translate(1259.65625 0)"/>
      <use xlink:href="#ArialMT-5b" transform="translate(1315.265625 0)"/>
      <use xlink:href="#ArialMT-c" transform="translate(1365.265625 0)"/>
     </g>
    </g>
    <g id="line2d_5">
     <path d="M 254.381359 159.979517
L 266.381359 159.979517
L 278.381359 159.979517
" style="fill: none; stroke: #3498db; stroke-width: 3; stroke-linecap: round"/>
    </g>
    <g id="text_8">
     <!-- Inference Cost (Model Execution) -->
     <g style="fill: #262626" transform="translate(287.981359 164.179517) scale(0.12 -0.12)">
      <defs>
       <path id="ArialMT-28" d="M 506 0
L 506 4581
L 3819 4581
L 3819 4041
L 1113 4041
L 1113 2638
L 3647 2638
L 3647 2100
L 1113 2100
L 1113 541
L 3925 541
L 3925 0
L 506 0
z
" transform="scale(0.015625)"/>
      </defs>
      <use xlink:href="#ArialMT-2c"/>
      <use xlink:href="#ArialMT-51" transform="translate(27.78125 0)"/>
      <use xlink:href="#ArialMT-49" transform="translate(83.390625 0)"/>
      <use xlink:href="#ArialMT-48" transform="translate(111.171875 0)"/>
      <use xlink:href="#ArialMT-55" transform="translate(166.78125 0)"/>
      <use xlink:href="#ArialMT-48" transform="translate(200.078125 0)"/>
      <use xlink:href="#ArialMT-51" transform="translate(255.6875 0)"/>
      <use xlink:href="#ArialMT-46" transform="translate(311.296875 0)"/>
      <use xlink:href="#ArialMT-48" transform="translate(361.296875 0)"/>
      <use xlink:href="#ArialMT-3" transform="translate(416.90625 0)"/>
      <use xlink:href="#ArialMT-26" transform="translate(444.6875 0)"/>
      <use xlink:href="#ArialMT-52" transform="translate(516.90625 0)"/>
      <use xlink:href="#ArialMT-56" transform="translate(572.515625 0)"/>
      <use xlink:href="#ArialMT-57" transform="translate(622.515625 0)"/>
      <use xlink:href="#ArialMT-3" transform="translate(650.296875 0)"/>
      <use xlink:href="#ArialMT-b" transform="translate(678.078125 0)"/>
      <use xlink:href="#ArialMT-30" transform="translate(711.375 0)"/>
      <use xlink:href="#ArialMT-52" transform="translate(794.671875 0)"/>
      <use xlink:href="#ArialMT-47" transform="translate(850.28125 0)"/>
      <use xlink:href="#ArialMT-48" transform="translate(905.890625 0)"/>
      <use xlink:href="#ArialMT-4f" transform="translate(961.5 0)"/>
      <use xlink:href="#ArialMT-3" transform="translate(983.71875 0)"/>
      <use xlink:href="#ArialMT-28" transform="translate(1011.5 0)"/>
      <use xlink:href="#ArialMT-5b" transform="translate(1078.203125 0)"/>
      <use xlink:href="#ArialMT-48" transform="translate(1128.203125 0)"/>
      <use xlink:href="#ArialMT-46" transform="translate(1183.8125 0)"/>
      <use xlink:href="#ArialMT-58" transform="translate(1233.8125 0)"/>
      <use xlink:href="#ArialMT-57" transform="translate(1289.421875 0)"/>
      <use xlink:href="#ArialMT-4c" transform="translate(1317.203125 0)"/>
      <use xlink:href="#ArialMT-52" transform="translate(1339.421875 0)"/>
      <use xlink:href="#ArialMT-51" transform="translate(1395.03125 0)"/>
      <use xlink:href="#ArialMT-c" transform="translate(1450.640625 0)"/>
     </g>
    </g>
    <g id="line2d_6">
     <path d="M 254.381359 177.24147
L 266.381359 177.24147
L 278.381359 177.24147
" style="fill: none; stroke-dasharray: 14.8,6.4; stroke-dashoffset: 0; stroke: #9b59b6; stroke-width: 4"/>
    </g>
    <g id="text_9">
     <!-- Total Search Compute -->
     <g style="fill: #262626" transform="translate(287.981359 181.44147) scale(0.12 -0.12)">
      <use xlink:href="#ArialMT-37"/>
      <use xlink:href="#ArialMT-52" transform="translate(50 0)"/>
      <use xlink:href="#ArialMT-57" transform="translate(105.609375 0)"/>
      <use xlink:href="#ArialMT-44" transform="translate(133.390625 0)"/>
      <use xlink:href="#ArialMT-4f" transform="translate(189 0)"/>
      <use xlink:href="#ArialMT-3" transform="translate(211.21875 0)"/>
      <use xlink:href="#ArialMT-36" transform="translate(239 0)"/>
      <use xlink:href="#ArialMT-48" transform="translate(305.703125 0)"/>
      <use xlink:href="#ArialMT-44" transform="translate(361.3125 0)"/>
      <use xlink:href="#ArialMT-55" transform="translate(416.921875 0)"/>
      <use xlink:href="#ArialMT-46" transform="translate(450.21875 0)"/>
      <use xlink:href="#ArialMT-4b" transform="translate(500.21875 0)"/>
      <use xlink:href="#ArialMT-3" transform="translate(555.828125 0)"/>
      <use xlink:href="#ArialMT-26" transform="translate(583.609375 0)"/>
      <use xlink:href="#ArialMT-52" transform="translate(655.828125 0)"/>
      <use xlink:href="#ArialMT-50" transform="translate(711.4375 0)"/>
      <use xlink:href="#ArialMT-53" transform="translate(794.734375 0)"/>
      <use xlink:href="#ArialMT-58" transform="translate(850.34375 0)"/>
      <use xlink:href="#ArialMT-57" transform="translate(905.953125 0)"/>
      <use xlink:href="#ArialMT-48" transform="translate(933.734375 0)"/>
     </g>
    </g>
   </g>
  </g>
 </g>
 <defs>
  <clipPath id="p6a59967cc2">
   <rect x="24.338945" y="127.381236" width="671.757328" height="193.331921"/>
  </clipPath>
 </defs>
</svg>
