<?xml version="1.0" encoding="utf-8"?>
<svg xmlns="http://www.w3.org/2000/svg" viewBox="50 60 650 290" role="img">
  <title>F10 Commitment Ladder</title>

  <defs>
    <marker id="arrow" viewBox="0 0 10 10" refX="9" refY="5" markerWidth="6" markerHeight="6" orient="auto-start-reverse">
      <path d="M 0 0 L 10 5 L 0 10 z" fill="#444444"/>
    </marker>

    <style>
      .font { font-family: sans-serif; }
      .title { font-size: 16px; font-weight: 700; fill: #202020; }
      .label { font-size: 14.4px; font-weight: 700; fill: #202020; }
      .label-white { font-size: 14.4px; font-weight: 700; fill: #FFFFFF; }
      .small { font-size: 9.2px; fill: #303030; }
      .center { font-size: 12.0px; font-weight: 700; fill: #202020; }
      .note { font-size: 10.4px; font-weight: 700; fill: #1683A6; }
      .muted { font-size: 8.8px; fill: #555555; }
      .line { stroke: #444444; stroke-width: 1.15; fill: none; }
      .line-dashed { stroke: #444444; stroke-width: 1.15; fill: none; stroke-dasharray: 4,4; }
      .thin { stroke: #6F7E86; stroke-width: 1.05; fill: none; }
      .arrow-end { marker-end: url(#arrow); }
    </style>
  </defs>
  <rect x="50" y="60" width="650" height="290" fill="#FFFFFF"/>

  <g class="font">

    <!-- Steps -->
    <path class="line" d="M 100 280 L 180 280 L 180 230 L 280 230 L 280 180 L 380 180 L 380 130 L 480 130 L 480 80 L 580 80" stroke-width="2"/>

    <rect x="110" y="285" width="70" height="25" fill="#FDECEC" stroke="#DE3D3C"/>
    <text class="small" x="145" y="302" text-anchor="middle">Analytical</text>

    <rect x="190" y="235" width="80" height="25" fill="#FDECEC" stroke="#DE3D3C"/>
    <text class="small" x="230" y="252" text-anchor="middle">Trace / Proxy</text>

    <rect x="290" y="185" width="80" height="25" fill="#E4F1F6" stroke="#1683A6"/>
    <text class="small" x="330" y="202" text-anchor="middle">Cycle-Accurate</text>

    <rect x="390" y="135" width="80" height="25" fill="#E4F1F6" stroke="#1683A6"/>
    <text class="small" x="430" y="152" text-anchor="middle">RTL Synthesis</text>

    <rect x="490" y="85" width="80" height="25" fill="#E4F1F6" stroke="#1683A6"/>
    <text class="small" x="530" y="102" text-anchor="middle">Silicon/FPGA</text>

    <!-- Axes Labels -->
    <text class="center" x="350" y="330" text-anchor="middle">Fidelity &amp; Engineering Cost</text>
    <text class="center" x="100" y="82" text-anchor="start">Human Commitment &amp; Risk</text>
  </g>
</svg>
