<?xml version="1.0" encoding="utf-8"?>
<svg xmlns="http://www.w3.org/2000/svg" viewBox="0 0 860 620" role="img" aria-labelledby="field-roadmap-title field-roadmap-desc">
  <title id="field-roadmap-title">Interdependent field-building layers for AI-assisted computer architecture</title>
  <desc id="field-roadmap-desc">Four reciprocal field-building layers connect through shared interfaces. Shared foundations, methods and reference practices, evaluation and challenge, and institutional durability jointly support comparable, cumulative, and contestable AI-assisted architecture studies.</desc>
  <defs>
    <marker id="roadmap-arrow" viewBox="0 0 10 10" refX="8.5" refY="5" markerWidth="6" markerHeight="6" orient="auto-start-reverse">
      <path d="M 0 0 L 10 5 L 0 10 z" fill="#64748B"/>
    </marker>
    <style>
      .font { font-family: Arial, Helvetica, sans-serif; }
      .title { font-size: 20px; font-weight: 700; fill: #20252B; }
      .subtitle { font-size: 13.5px; fill: #475569; }
      .panel-title { font-size: 16.5px; font-weight: 700; fill: #20252B; }
      .item { font-size: 13px; fill: #334155; }
      .hub { font-size: 13px; font-weight: 700; fill: #475569; }
      .outcome-label { font-size: 13px; font-weight: 700; fill: #64748B; }
      .outcome-title { font-size: 16px; font-weight: 700; fill: #20252B; }
      .outcome-body { font-size: 14px; fill: #475569; }
      .foundation { fill: #E7F4F7; stroke: #1F6F8B; stroke-width: 1.5; }
      .methods { fill: #F0ECFA; stroke: #6A4FC7; stroke-width: 1.5; }
      .evaluation { fill: #E7F5EC; stroke: #1E824C; stroke-width: 1.5; }
      .institution { fill: #FFF3E5; stroke: #C8751A; stroke-width: 1.5; }
      .hub-box { fill: #F8FAFC; stroke: #64748B; stroke-width: 1.3; }
      .outcome { fill: #F8FAFC; stroke: #334155; stroke-width: 1.5; }
      .divider { stroke-width: 1; opacity: 0.48; }
      .connector { stroke: #64748B; stroke-width: 1.6; fill: none; marker-start: url(#roadmap-arrow); marker-end: url(#roadmap-arrow); }
    </style>
  </defs>

  <rect width="860" height="620" fill="#FFFFFF"/>
  <g class="font">
    <text class="title" x="430" y="31" text-anchor="middle">Four interdependent layers for a durable field</text>
    <text class="subtitle" x="430" y="54" text-anchor="middle">Each layer constrains and depends on the other three.</text>

    <rect class="foundation" x="36" y="78" width="350" height="170" rx="3"/>
    <text class="panel-title" x="61" y="109">Shared foundations</text>
    <line class="divider" x1="61" y1="122" x2="361" y2="122" stroke="#1F6F8B"/>
    <rect x="61" y="142" width="6" height="6" fill="#1F6F8B"/>
    <text class="item" x="78" y="149">Datasets and benchmarks</text>
    <rect x="61" y="174" width="6" height="6" fill="#1F6F8B"/>
    <text class="item" x="78" y="181">Paired multi-fidelity trajectories</text>
    <rect x="61" y="206" width="6" height="6" fill="#1F6F8B"/>
    <text class="item" x="78" y="213">Versioned environments and tool contracts</text>

    <rect class="methods" x="474" y="78" width="350" height="170" rx="3"/>
    <text class="panel-title" x="499" y="109">Methods and reference practices</text>
    <line class="divider" x1="499" y1="122" x2="799" y2="122" stroke="#6A4FC7"/>
    <rect x="499" y="142" width="6" height="6" fill="#6A4FC7"/>
    <text class="item" x="516" y="149">Role-appropriate methods and matched baselines</text>
    <rect x="499" y="174" width="6" height="6" fill="#6A4FC7"/>
    <text class="item" x="516" y="181">AI-role ablations and experimental protocols</text>
    <rect x="499" y="206" width="6" height="6" fill="#6A4FC7"/>
    <text class="item" x="516" y="213">Failure analysis and reporting practices</text>

    <path class="connector" d="M 354 248 L 388 268"/>
    <path class="connector" d="M 506 248 L 472 268"/>
    <path class="connector" d="M 354 322 L 388 312"/>
    <path class="connector" d="M 506 322 L 472 312"/>
    <rect class="hub-box" x="388" y="268" width="84" height="44" rx="3"/>
    <text class="hub" x="430" y="286" text-anchor="middle">shared</text>
    <text class="hub" x="430" y="301" text-anchor="middle">interfaces</text>

    <rect class="evaluation" x="36" y="322" width="350" height="170" rx="3"/>
    <text class="panel-title" x="61" y="353">Evaluation and challenge</text>
    <line class="divider" x1="61" y1="366" x2="361" y2="366" stroke="#1E824C"/>
    <rect x="61" y="386" width="6" height="6" fill="#1E824C"/>
    <text class="item" x="78" y="393">Held-out tasks and calibration</text>
    <rect x="61" y="418" width="6" height="6" fill="#1E824C"/>
    <text class="item" x="78" y="425">Uncertainty and total feedback cost</text>
    <rect x="61" y="450" width="6" height="6" fill="#1E824C"/>
    <text class="item" x="78" y="457">Independent adjudication and challenge</text>

    <rect class="institution" x="474" y="322" width="350" height="170" rx="3"/>
    <text class="panel-title" x="499" y="353">Institutional durability</text>
    <line class="divider" x1="499" y1="366" x2="799" y2="366" stroke="#C8751A"/>
    <rect x="499" y="386" width="6" height="6" fill="#C8751A"/>
    <text class="item" x="516" y="393">Standards and governance</text>
    <rect x="499" y="418" width="6" height="6" fill="#C8751A"/>
    <text class="item" x="516" y="425">Maintenance and incentives</text>
    <rect x="499" y="450" width="6" height="6" fill="#C8751A"/>
    <text class="item" x="516" y="457">Confidentiality and education</text>

    <rect class="outcome" x="106" y="522" width="648" height="72" rx="3"/>
    <text class="outcome-label" x="430" y="543" text-anchor="middle">JOINT OUTCOME</text>
    <text class="outcome-title" x="430" y="566" text-anchor="middle">Comparable, cumulative, and contestable</text>
    <text class="outcome-body" x="430" y="585" text-anchor="middle">AI-assisted architecture studies</text>
  </g>
</svg>
