<?xml version="1.0" encoding="utf-8" standalone="no"?>
<!DOCTYPE svg PUBLIC "-//W3C//DTD SVG 1.1//EN"
  "http://www.w3.org/Graphics/SVG/1.1/DTD/svg11.dtd">
<svg xmlns:xlink="http://www.w3.org/1999/xlink" width="388.8pt" height="237.6pt" viewBox="0 0 388.8 237.6" xmlns="http://www.w3.org/2000/svg" version="1.1">
 <metadata>
  <rdf:RDF xmlns:dc="http://purl.org/dc/elements/1.1/" xmlns:cc="http://creativecommons.org/ns#" xmlns:rdf="http://www.w3.org/1999/02/22-rdf-syntax-ns#">
   <cc:Work>
    <dc:type rdf:resource="http://purl.org/dc/dcmitype/StillImage"/>
    <dc:date>2026-07-20T18:50:22.946922</dc:date>
    <dc:format>image/svg+xml</dc:format>
    <dc:creator>
     <cc:Agent>
      <dc:title>Matplotlib v3.11.0, https://matplotlib.org/</dc:title>
     </cc:Agent>
    </dc:creator>
   </cc:Work>
  </rdf:RDF>
 </metadata>
 <defs>
  <style type="text/css">*{stroke-linejoin: round; stroke-linecap: butt}</style>
 </defs>
 <g id="figure_1">
  <g id="patch_1">
   <path d="M 0 237.6
L 388.8 237.6
L 388.8 0
L 0 0
z
" style="fill: #ffffff"/>
  </g>
  <g id="axes_1">
   <g id="patch_2">
    <path d="M 46.656 210.276
L 377.136 210.276
L 377.136 4.752
L 46.656 4.752
z
" style="fill: #ffffff"/>
   </g>
   <g id="matplotlib.axis_1">
    <g id="xtick_1">
     <g id="line2d_1">
      <defs>
       <path id="mf7f6edaf9d" d="M 0 0
L 0 2.5
" style="stroke: #000000; stroke-width: 0.6"/>
      </defs>
      <g>
       <use xlink:href="#mf7f6edaf9d" x="64.360286" y="210.276" style="stroke: #000000; stroke-width: 0.6"/>
      </g>
     </g>
     <g id="text_1">
      <!-- 2016 -->
      <g transform="translate(57.242286 220.935375) scale(0.064 -0.064)">
       <defs>
        <path id="ArialMT-15" d="M 3222 541
L 3222 0
L 194 0
Q 188 203 259 391
Q 375 700 629 1000
Q 884 1300 1366 1694
Q 2113 2306 2375 2664
Q 2638 3022 2638 3341
Q 2638 3675 2398 3904
Q 2159 4134 1775 4134
Q 1369 4134 1125 3890
Q 881 3647 878 3216
L 300 3275
Q 359 3922 746 4261
Q 1134 4600 1788 4600
Q 2447 4600 2831 4234
Q 3216 3869 3216 3328
Q 3216 3053 3103 2787
Q 2991 2522 2730 2228
Q 2469 1934 1863 1422
Q 1356 997 1212 845
Q 1069 694 975 541
L 3222 541
z
" transform="scale(0.015625)"/>
        <path id="ArialMT-13" d="M 266 2259
Q 266 3072 433 3567
Q 600 4063 929 4331
Q 1259 4600 1759 4600
Q 2128 4600 2406 4451
Q 2684 4303 2865 4023
Q 3047 3744 3150 3342
Q 3253 2941 3253 2259
Q 3253 1453 3087 958
Q 2922 463 2592 192
Q 2263 -78 1759 -78
Q 1097 -78 719 397
Q 266 969 266 2259
z
M 844 2259
Q 844 1131 1108 757
Q 1372 384 1759 384
Q 2147 384 2411 759
Q 2675 1134 2675 2259
Q 2675 3391 2411 3762
Q 2147 4134 1753 4134
Q 1366 4134 1134 3806
Q 844 3388 844 2259
z
" transform="scale(0.015625)"/>
        <path id="ArialMT-14" d="M 2384 0
L 1822 0
L 1822 3584
Q 1619 3391 1289 3197
Q 959 3003 697 2906
L 697 3450
Q 1169 3672 1522 3987
Q 1875 4303 2022 4600
L 2384 4600
L 2384 0
z
" transform="scale(0.015625)"/>
        <path id="ArialMT-19" d="M 3184 3459
L 2625 3416
Q 2550 3747 2413 3897
Q 2184 4138 1850 4138
Q 1581 4138 1378 3988
Q 1113 3794 959 3422
Q 806 3050 800 2363
Q 1003 2672 1297 2822
Q 1591 2972 1913 2972
Q 2475 2972 2870 2558
Q 3266 2144 3266 1488
Q 3266 1056 3080 686
Q 2894 316 2569 119
Q 2244 -78 1831 -78
Q 1128 -78 684 439
Q 241 956 241 2144
Q 241 3472 731 4075
Q 1159 4600 1884 4600
Q 2425 4600 2770 4297
Q 3116 3994 3184 3459
z
M 888 1484
Q 888 1194 1011 928
Q 1134 663 1356 523
Q 1578 384 1822 384
Q 2178 384 2434 671
Q 2691 959 2691 1453
Q 2691 1928 2437 2201
Q 2184 2475 1800 2475
Q 1419 2475 1153 2201
Q 888 1928 888 1484
z
" transform="scale(0.015625)"/>
       </defs>
       <use xlink:href="#ArialMT-15"/>
       <use xlink:href="#ArialMT-13" transform="translate(55.609375 0)"/>
       <use xlink:href="#ArialMT-14" transform="translate(111.21875 0)"/>
       <use xlink:href="#ArialMT-19" transform="translate(166.828125 0)"/>
      </g>
     </g>
    </g>
    <g id="xtick_2">
     <g id="line2d_2">
      <g>
       <use xlink:href="#mf7f6edaf9d" x="123.374571" y="210.276" style="stroke: #000000; stroke-width: 0.6"/>
      </g>
     </g>
     <g id="text_2">
      <!-- 2018 -->
      <g transform="translate(116.256571 220.935375) scale(0.064 -0.064)">
       <defs>
        <path id="ArialMT-1b" d="M 1131 2484
Q 781 2613 612 2850
Q 444 3088 444 3419
Q 444 3919 803 4259
Q 1163 4600 1759 4600
Q 2359 4600 2725 4251
Q 3091 3903 3091 3403
Q 3091 3084 2923 2848
Q 2756 2613 2416 2484
Q 2838 2347 3058 2040
Q 3278 1734 3278 1309
Q 3278 722 2862 322
Q 2447 -78 1769 -78
Q 1091 -78 675 323
Q 259 725 259 1325
Q 259 1772 486 2073
Q 713 2375 1131 2484
z
M 1019 3438
Q 1019 3113 1228 2906
Q 1438 2700 1772 2700
Q 2097 2700 2305 2904
Q 2513 3109 2513 3406
Q 2513 3716 2298 3927
Q 2084 4138 1766 4138
Q 1444 4138 1231 3931
Q 1019 3725 1019 3438
z
M 838 1322
Q 838 1081 952 856
Q 1066 631 1291 507
Q 1516 384 1775 384
Q 2178 384 2440 643
Q 2703 903 2703 1303
Q 2703 1709 2433 1975
Q 2163 2241 1756 2241
Q 1359 2241 1098 1978
Q 838 1716 838 1322
z
" transform="scale(0.015625)"/>
       </defs>
       <use xlink:href="#ArialMT-15"/>
       <use xlink:href="#ArialMT-13" transform="translate(55.609375 0)"/>
       <use xlink:href="#ArialMT-14" transform="translate(111.21875 0)"/>
       <use xlink:href="#ArialMT-1b" transform="translate(166.828125 0)"/>
      </g>
     </g>
    </g>
    <g id="xtick_3">
     <g id="line2d_3">
      <g>
       <use xlink:href="#mf7f6edaf9d" x="182.388857" y="210.276" style="stroke: #000000; stroke-width: 0.6"/>
      </g>
     </g>
     <g id="text_3">
      <!-- 2020 -->
      <g transform="translate(175.270857 220.935375) scale(0.064 -0.064)">
       <use xlink:href="#ArialMT-15"/>
       <use xlink:href="#ArialMT-13" transform="translate(55.609375 0)"/>
       <use xlink:href="#ArialMT-15" transform="translate(111.21875 0)"/>
       <use xlink:href="#ArialMT-13" transform="translate(166.828125 0)"/>
      </g>
     </g>
    </g>
    <g id="xtick_4">
     <g id="line2d_4">
      <g>
       <use xlink:href="#mf7f6edaf9d" x="241.403143" y="210.276" style="stroke: #000000; stroke-width: 0.6"/>
      </g>
     </g>
     <g id="text_4">
      <!-- 2022 -->
      <g transform="translate(234.285143 220.935375) scale(0.064 -0.064)">
       <use xlink:href="#ArialMT-15"/>
       <use xlink:href="#ArialMT-13" transform="translate(55.609375 0)"/>
       <use xlink:href="#ArialMT-15" transform="translate(111.21875 0)"/>
       <use xlink:href="#ArialMT-15" transform="translate(166.828125 0)"/>
      </g>
     </g>
    </g>
    <g id="xtick_5">
     <g id="line2d_5">
      <g>
       <use xlink:href="#mf7f6edaf9d" x="300.417429" y="210.276" style="stroke: #000000; stroke-width: 0.6"/>
      </g>
     </g>
     <g id="text_5">
      <!-- 2024 -->
      <g transform="translate(293.299429 220.935375) scale(0.064 -0.064)">
       <defs>
        <path id="ArialMT-17" d="M 2069 0
L 2069 1097
L 81 1097
L 81 1613
L 2172 4581
L 2631 4581
L 2631 1613
L 3250 1613
L 3250 1097
L 2631 1097
L 2631 0
L 2069 0
z
M 2069 1613
L 2069 3678
L 634 1613
L 2069 1613
z
" transform="scale(0.015625)"/>
       </defs>
       <use xlink:href="#ArialMT-15"/>
       <use xlink:href="#ArialMT-13" transform="translate(55.609375 0)"/>
       <use xlink:href="#ArialMT-15" transform="translate(111.21875 0)"/>
       <use xlink:href="#ArialMT-17" transform="translate(166.828125 0)"/>
      </g>
     </g>
    </g>
    <g id="xtick_6">
     <g id="line2d_6">
      <g>
       <use xlink:href="#mf7f6edaf9d" x="359.431714" y="210.276" style="stroke: #000000; stroke-width: 0.6"/>
      </g>
     </g>
     <g id="text_6">
      <!-- 2026 -->
      <g transform="translate(352.313714 220.935375) scale(0.064 -0.064)">
       <use xlink:href="#ArialMT-15"/>
       <use xlink:href="#ArialMT-13" transform="translate(55.609375 0)"/>
       <use xlink:href="#ArialMT-15" transform="translate(111.21875 0)"/>
       <use xlink:href="#ArialMT-19" transform="translate(166.828125 0)"/>
      </g>
     </g>
    </g>
    <g id="text_7">
     <!-- Release date -->
     <g transform="translate(190.682438 231.524047) scale(0.072 -0.072)">
      <defs>
       <path id="ArialMT-35" d="M 503 0
L 503 4581
L 2534 4581
Q 3147 4581 3465 4457
Q 3784 4334 3975 4021
Q 4166 3709 4166 3331
Q 4166 2844 3850 2509
Q 3534 2175 2875 2084
Q 3116 1969 3241 1856
Q 3506 1613 3744 1247
L 4541 0
L 3778 0
L 3172 953
Q 2906 1366 2734 1584
Q 2563 1803 2427 1890
Q 2291 1978 2150 2013
Q 2047 2034 1813 2034
L 1109 2034
L 1109 0
L 503 0
z
M 1109 2559
L 2413 2559
Q 2828 2559 3062 2645
Q 3297 2731 3419 2920
Q 3541 3109 3541 3331
Q 3541 3656 3305 3865
Q 3069 4075 2559 4075
L 1109 4075
L 1109 2559
z
" transform="scale(0.015625)"/>
       <path id="ArialMT-48" d="M 2694 1069
L 3275 997
Q 3138 488 2766 206
Q 2394 -75 1816 -75
Q 1088 -75 661 373
Q 234 822 234 1631
Q 234 2469 665 2931
Q 1097 3394 1784 3394
Q 2450 3394 2872 2941
Q 3294 2488 3294 1666
Q 3294 1616 3291 1516
L 816 1516
Q 847 969 1125 678
Q 1403 388 1819 388
Q 2128 388 2347 550
Q 2566 713 2694 1069
z
M 847 1978
L 2700 1978
Q 2663 2397 2488 2606
Q 2219 2931 1791 2931
Q 1403 2931 1139 2672
Q 875 2413 847 1978
z
" transform="scale(0.015625)"/>
       <path id="ArialMT-4f" d="M 409 0
L 409 4581
L 972 4581
L 972 0
L 409 0
z
" transform="scale(0.015625)"/>
       <path id="ArialMT-44" d="M 2588 409
Q 2275 144 1986 34
Q 1697 -75 1366 -75
Q 819 -75 525 192
Q 231 459 231 875
Q 231 1119 342 1320
Q 453 1522 633 1644
Q 813 1766 1038 1828
Q 1203 1872 1538 1913
Q 2219 1994 2541 2106
Q 2544 2222 2544 2253
Q 2544 2597 2384 2738
Q 2169 2928 1744 2928
Q 1347 2928 1158 2789
Q 969 2650 878 2297
L 328 2372
Q 403 2725 575 2942
Q 747 3159 1072 3276
Q 1397 3394 1825 3394
Q 2250 3394 2515 3294
Q 2781 3194 2906 3042
Q 3031 2891 3081 2659
Q 3109 2516 3109 2141
L 3109 1391
Q 3109 606 3145 398
Q 3181 191 3288 0
L 2700 0
Q 2613 175 2588 409
z
M 2541 1666
Q 2234 1541 1622 1453
Q 1275 1403 1131 1340
Q 988 1278 909 1158
Q 831 1038 831 891
Q 831 666 1001 516
Q 1172 366 1500 366
Q 1825 366 2078 508
Q 2331 650 2450 897
Q 2541 1088 2541 1459
L 2541 1666
z
" transform="scale(0.015625)"/>
       <path id="ArialMT-56" d="M 197 991
L 753 1078
Q 800 744 1014 566
Q 1228 388 1613 388
Q 2000 388 2187 545
Q 2375 703 2375 916
Q 2375 1106 2209 1216
Q 2094 1291 1634 1406
Q 1016 1563 777 1677
Q 538 1791 414 1992
Q 291 2194 291 2438
Q 291 2659 392 2848
Q 494 3038 669 3163
Q 800 3259 1026 3326
Q 1253 3394 1513 3394
Q 1903 3394 2198 3281
Q 2494 3169 2634 2976
Q 2775 2784 2828 2463
L 2278 2388
Q 2241 2644 2061 2787
Q 1881 2931 1553 2931
Q 1166 2931 1000 2803
Q 834 2675 834 2503
Q 834 2394 903 2306
Q 972 2216 1119 2156
Q 1203 2125 1616 2013
Q 2213 1853 2448 1751
Q 2684 1650 2818 1456
Q 2953 1263 2953 975
Q 2953 694 2789 445
Q 2625 197 2315 61
Q 2006 -75 1616 -75
Q 969 -75 630 194
Q 291 463 197 991
z
" transform="scale(0.015625)"/>
       <path id="ArialMT-3" transform="scale(0.015625)"/>
       <path id="ArialMT-47" d="M 2575 0
L 2575 419
Q 2259 -75 1647 -75
Q 1250 -75 917 144
Q 584 363 401 755
Q 219 1147 219 1656
Q 219 2153 384 2558
Q 550 2963 881 3178
Q 1213 3394 1622 3394
Q 1922 3394 2156 3267
Q 2391 3141 2538 2938
L 2538 4581
L 3097 4581
L 3097 0
L 2575 0
z
M 797 1656
Q 797 1019 1065 703
Q 1334 388 1700 388
Q 2069 388 2326 689
Q 2584 991 2584 1609
Q 2584 2291 2321 2609
Q 2059 2928 1675 2928
Q 1300 2928 1048 2622
Q 797 2316 797 1656
z
" transform="scale(0.015625)"/>
       <path id="ArialMT-57" d="M 1650 503
L 1731 6
Q 1494 -44 1306 -44
Q 1000 -44 831 53
Q 663 150 594 308
Q 525 466 525 972
L 525 2881
L 113 2881
L 113 3319
L 525 3319
L 525 4141
L 1084 4478
L 1084 3319
L 1650 3319
L 1650 2881
L 1084 2881
L 1084 941
Q 1084 700 1114 631
Q 1144 563 1211 522
Q 1278 481 1403 481
Q 1497 481 1650 503
z
" transform="scale(0.015625)"/>
      </defs>
      <use xlink:href="#ArialMT-35"/>
      <use xlink:href="#ArialMT-48" transform="translate(72.21875 0)"/>
      <use xlink:href="#ArialMT-4f" transform="translate(127.828125 0)"/>
      <use xlink:href="#ArialMT-48" transform="translate(150.046875 0)"/>
      <use xlink:href="#ArialMT-44" transform="translate(205.65625 0)"/>
      <use xlink:href="#ArialMT-56" transform="translate(261.265625 0)"/>
      <use xlink:href="#ArialMT-48" transform="translate(311.265625 0)"/>
      <use xlink:href="#ArialMT-3" transform="translate(366.875 0)"/>
      <use xlink:href="#ArialMT-47" transform="translate(394.65625 0)"/>
      <use xlink:href="#ArialMT-44" transform="translate(450.265625 0)"/>
      <use xlink:href="#ArialMT-57" transform="translate(505.875 0)"/>
      <use xlink:href="#ArialMT-48" transform="translate(533.65625 0)"/>
     </g>
    </g>
   </g>
   <g id="matplotlib.axis_2">
    <g id="ytick_1">
     <g id="line2d_7">
      <path d="M 46.656 165.045841
L 377.136 165.045841
" clip-path="url(#p85bf96ad23)" style="fill: none; stroke: #e4e8ed; stroke-width: 0.4; stroke-linecap: square"/>
     </g>
     <g id="line2d_8">
      <defs>
       <path id="m7436ae20d9" d="M 0 0
L -2.5 0
" style="stroke: #000000; stroke-width: 0.6"/>
      </defs>
      <g>
       <use xlink:href="#m7436ae20d9" x="46.656" y="165.045841" style="stroke: #000000; stroke-width: 0.6"/>
      </g>
     </g>
     <g id="text_8">
      <!-- $\mathdefault{10^{11}}$ -->
      <g transform="translate(28.624 167.989841) scale(0.064 -0.064)">
       <use xlink:href="#ArialMT-14" transform="translate(0 0.3875)"/>
       <use xlink:href="#ArialMT-13" transform="translate(55.615234 0.3875)"/>
       <use xlink:href="#ArialMT-14" transform="translate(112.1875 41.6875) scale(0.7)"/>
       <use xlink:href="#ArialMT-14" transform="translate(146.218164 41.6875) scale(0.7)"/>
      </g>
     </g>
    </g>
    <g id="ytick_2">
     <g id="line2d_9">
      <path d="M 46.656 100.336114
L 377.136 100.336114
" clip-path="url(#p85bf96ad23)" style="fill: none; stroke: #e4e8ed; stroke-width: 0.4; stroke-linecap: square"/>
     </g>
     <g id="line2d_10">
      <g>
       <use xlink:href="#m7436ae20d9" x="46.656" y="100.336114" style="stroke: #000000; stroke-width: 0.6"/>
      </g>
     </g>
     <g id="text_9">
      <!-- $\mathdefault{10^{12}}$ -->
      <g transform="translate(28.304 103.280114) scale(0.064 -0.064)">
       <use xlink:href="#ArialMT-14" transform="translate(0 0.3875)"/>
       <use xlink:href="#ArialMT-13" transform="translate(55.615234 0.3875)"/>
       <use xlink:href="#ArialMT-14" transform="translate(112.1875 41.6875) scale(0.7)"/>
       <use xlink:href="#ArialMT-15" transform="translate(151.118164 41.6875) scale(0.7)"/>
      </g>
     </g>
    </g>
    <g id="ytick_3">
     <g id="line2d_11">
      <path d="M 46.656 35.626386
L 377.136 35.626386
" clip-path="url(#p85bf96ad23)" style="fill: none; stroke: #e4e8ed; stroke-width: 0.4; stroke-linecap: square"/>
     </g>
     <g id="line2d_12">
      <g>
       <use xlink:href="#m7436ae20d9" x="46.656" y="35.626386" style="stroke: #000000; stroke-width: 0.6"/>
      </g>
     </g>
     <g id="text_10">
      <!-- $\mathdefault{10^{13}}$ -->
      <g transform="translate(28.304 38.570386) scale(0.064 -0.064)">
       <defs>
        <path id="ArialMT-16" d="M 269 1209
L 831 1284
Q 928 806 1161 595
Q 1394 384 1728 384
Q 2125 384 2398 659
Q 2672 934 2672 1341
Q 2672 1728 2419 1979
Q 2166 2231 1775 2231
Q 1616 2231 1378 2169
L 1441 2663
Q 1497 2656 1531 2656
Q 1891 2656 2178 2843
Q 2466 3031 2466 3422
Q 2466 3731 2256 3934
Q 2047 4138 1716 4138
Q 1388 4138 1169 3931
Q 950 3725 888 3313
L 325 3413
Q 428 3978 793 4289
Q 1159 4600 1703 4600
Q 2078 4600 2393 4439
Q 2709 4278 2876 4000
Q 3044 3722 3044 3409
Q 3044 3113 2884 2869
Q 2725 2625 2413 2481
Q 2819 2388 3044 2092
Q 3269 1797 3269 1353
Q 3269 753 2831 336
Q 2394 -81 1725 -81
Q 1122 -81 723 278
Q 325 638 269 1209
z
" transform="scale(0.015625)"/>
       </defs>
       <use xlink:href="#ArialMT-14" transform="translate(0 0.3875)"/>
       <use xlink:href="#ArialMT-13" transform="translate(55.615234 0.3875)"/>
       <use xlink:href="#ArialMT-14" transform="translate(112.1875 41.6875) scale(0.7)"/>
       <use xlink:href="#ArialMT-16" transform="translate(151.118164 41.6875) scale(0.7)"/>
      </g>
     </g>
    </g>
    <g id="ytick_4">
     <g id="line2d_13">
      <defs>
       <path id="ma09ab065da" d="M 0 0
L -2 0
" style="stroke: #000000; stroke-width: 0.6"/>
      </defs>
      <g>
       <use xlink:href="#ma09ab065da" x="46.656" y="210.276" style="stroke: #000000; stroke-width: 0.6"/>
      </g>
     </g>
    </g>
    <g id="ytick_5">
     <g id="line2d_14">
      <g>
       <use xlink:href="#ma09ab065da" x="46.656" y="198.881183" style="stroke: #000000; stroke-width: 0.6"/>
      </g>
     </g>
    </g>
    <g id="ytick_6">
     <g id="line2d_15">
      <g>
       <use xlink:href="#ma09ab065da" x="46.656" y="190.796431" style="stroke: #000000; stroke-width: 0.6"/>
      </g>
     </g>
    </g>
    <g id="ytick_7">
     <g id="line2d_16">
      <g>
       <use xlink:href="#ma09ab065da" x="46.656" y="184.52541" style="stroke: #000000; stroke-width: 0.6"/>
      </g>
     </g>
    </g>
    <g id="ytick_8">
     <g id="line2d_17">
      <g>
       <use xlink:href="#ma09ab065da" x="46.656" y="179.401614" style="stroke: #000000; stroke-width: 0.6"/>
      </g>
     </g>
    </g>
    <g id="ytick_9">
     <g id="line2d_18">
      <g>
       <use xlink:href="#ma09ab065da" x="46.656" y="175.069505" style="stroke: #000000; stroke-width: 0.6"/>
      </g>
     </g>
    </g>
    <g id="ytick_10">
     <g id="line2d_19">
      <g>
       <use xlink:href="#ma09ab065da" x="46.656" y="171.316862" style="stroke: #000000; stroke-width: 0.6"/>
      </g>
     </g>
    </g>
    <g id="ytick_11">
     <g id="line2d_20">
      <g>
       <use xlink:href="#ma09ab065da" x="46.656" y="168.006796" style="stroke: #000000; stroke-width: 0.6"/>
      </g>
     </g>
    </g>
    <g id="ytick_12">
     <g id="line2d_21">
      <g>
       <use xlink:href="#ma09ab065da" x="46.656" y="145.566272" style="stroke: #000000; stroke-width: 0.6"/>
      </g>
     </g>
    </g>
    <g id="ytick_13">
     <g id="line2d_22">
      <g>
       <use xlink:href="#ma09ab065da" x="46.656" y="134.171455" style="stroke: #000000; stroke-width: 0.6"/>
      </g>
     </g>
    </g>
    <g id="ytick_14">
     <g id="line2d_23">
      <g>
       <use xlink:href="#ma09ab065da" x="46.656" y="126.086703" style="stroke: #000000; stroke-width: 0.6"/>
      </g>
     </g>
    </g>
    <g id="ytick_15">
     <g id="line2d_24">
      <g>
       <use xlink:href="#ma09ab065da" x="46.656" y="119.815683" style="stroke: #000000; stroke-width: 0.6"/>
      </g>
     </g>
    </g>
    <g id="ytick_16">
     <g id="line2d_25">
      <g>
       <use xlink:href="#ma09ab065da" x="46.656" y="114.691886" style="stroke: #000000; stroke-width: 0.6"/>
      </g>
     </g>
    </g>
    <g id="ytick_17">
     <g id="line2d_26">
      <g>
       <use xlink:href="#ma09ab065da" x="46.656" y="110.359778" style="stroke: #000000; stroke-width: 0.6"/>
      </g>
     </g>
    </g>
    <g id="ytick_18">
     <g id="line2d_27">
      <g>
       <use xlink:href="#ma09ab065da" x="46.656" y="106.607134" style="stroke: #000000; stroke-width: 0.6"/>
      </g>
     </g>
    </g>
    <g id="ytick_19">
     <g id="line2d_28">
      <g>
       <use xlink:href="#ma09ab065da" x="46.656" y="103.297069" style="stroke: #000000; stroke-width: 0.6"/>
      </g>
     </g>
    </g>
    <g id="ytick_20">
     <g id="line2d_29">
      <g>
       <use xlink:href="#ma09ab065da" x="46.656" y="80.856545" style="stroke: #000000; stroke-width: 0.6"/>
      </g>
     </g>
    </g>
    <g id="ytick_21">
     <g id="line2d_30">
      <g>
       <use xlink:href="#ma09ab065da" x="46.656" y="69.461728" style="stroke: #000000; stroke-width: 0.6"/>
      </g>
     </g>
    </g>
    <g id="ytick_22">
     <g id="line2d_31">
      <g>
       <use xlink:href="#ma09ab065da" x="46.656" y="61.376976" style="stroke: #000000; stroke-width: 0.6"/>
      </g>
     </g>
    </g>
    <g id="ytick_23">
     <g id="line2d_32">
      <g>
       <use xlink:href="#ma09ab065da" x="46.656" y="55.105955" style="stroke: #000000; stroke-width: 0.6"/>
      </g>
     </g>
    </g>
    <g id="ytick_24">
     <g id="line2d_33">
      <g>
       <use xlink:href="#ma09ab065da" x="46.656" y="49.982159" style="stroke: #000000; stroke-width: 0.6"/>
      </g>
     </g>
    </g>
    <g id="ytick_25">
     <g id="line2d_34">
      <g>
       <use xlink:href="#ma09ab065da" x="46.656" y="45.65005" style="stroke: #000000; stroke-width: 0.6"/>
      </g>
     </g>
    </g>
    <g id="ytick_26">
     <g id="line2d_35">
      <g>
       <use xlink:href="#ma09ab065da" x="46.656" y="41.897407" style="stroke: #000000; stroke-width: 0.6"/>
      </g>
     </g>
    </g>
    <g id="ytick_27">
     <g id="line2d_36">
      <g>
       <use xlink:href="#ma09ab065da" x="46.656" y="38.587341" style="stroke: #000000; stroke-width: 0.6"/>
      </g>
     </g>
    </g>
    <g id="ytick_28">
     <g id="line2d_37">
      <g>
       <use xlink:href="#ma09ab065da" x="46.656" y="16.146817" style="stroke: #000000; stroke-width: 0.6"/>
      </g>
     </g>
    </g>
    <g id="ytick_29">
     <g id="line2d_38">
      <g>
       <use xlink:href="#ma09ab065da" x="46.656" y="4.752" style="stroke: #000000; stroke-width: 0.6"/>
      </g>
     </g>
    </g>
    <g id="text_11">
     <!-- Energy efficiency (bit-OP/s per watt, log) -->
     <g transform="translate(22.788625 171.869062) rotate(-90) scale(0.072 -0.072)">
      <defs>
       <path id="ArialMT-28" d="M 506 0
L 506 4581
L 3819 4581
L 3819 4041
L 1113 4041
L 1113 2638
L 3647 2638
L 3647 2100
L 1113 2100
L 1113 541
L 3925 541
L 3925 0
L 506 0
z
" transform="scale(0.015625)"/>
       <path id="ArialMT-51" d="M 422 0
L 422 3319
L 928 3319
L 928 2847
Q 1294 3394 1984 3394
Q 2284 3394 2536 3286
Q 2788 3178 2913 3003
Q 3038 2828 3088 2588
Q 3119 2431 3119 2041
L 3119 0
L 2556 0
L 2556 2019
Q 2556 2363 2490 2533
Q 2425 2703 2258 2804
Q 2091 2906 1866 2906
Q 1506 2906 1245 2678
Q 984 2450 984 1813
L 984 0
L 422 0
z
" transform="scale(0.015625)"/>
       <path id="ArialMT-55" d="M 416 0
L 416 3319
L 922 3319
L 922 2816
Q 1116 3169 1280 3281
Q 1444 3394 1641 3394
Q 1925 3394 2219 3213
L 2025 2691
Q 1819 2813 1613 2813
Q 1428 2813 1281 2702
Q 1134 2591 1072 2394
Q 978 2094 978 1738
L 978 0
L 416 0
z
" transform="scale(0.015625)"/>
       <path id="ArialMT-4a" d="M 319 -275
L 866 -356
Q 900 -609 1056 -725
Q 1266 -881 1628 -881
Q 2019 -881 2231 -725
Q 2444 -569 2519 -288
Q 2563 -116 2559 434
Q 2191 0 1641 0
Q 956 0 581 494
Q 206 988 206 1678
Q 206 2153 378 2554
Q 550 2956 876 3175
Q 1203 3394 1644 3394
Q 2231 3394 2613 2919
L 2613 3319
L 3131 3319
L 3131 450
Q 3131 -325 2973 -648
Q 2816 -972 2473 -1159
Q 2131 -1347 1631 -1347
Q 1038 -1347 672 -1080
Q 306 -813 319 -275
z
M 784 1719
Q 784 1066 1043 766
Q 1303 466 1694 466
Q 2081 466 2343 764
Q 2606 1063 2606 1700
Q 2606 2309 2336 2618
Q 2066 2928 1684 2928
Q 1309 2928 1046 2623
Q 784 2319 784 1719
z
" transform="scale(0.015625)"/>
       <path id="ArialMT-5c" d="M 397 -1278
L 334 -750
Q 519 -800 656 -800
Q 844 -800 956 -737
Q 1069 -675 1141 -563
Q 1194 -478 1313 -144
Q 1328 -97 1363 -6
L 103 3319
L 709 3319
L 1400 1397
Q 1534 1031 1641 628
Q 1738 1016 1872 1384
L 2581 3319
L 3144 3319
L 1881 -56
Q 1678 -603 1566 -809
Q 1416 -1088 1222 -1217
Q 1028 -1347 759 -1347
Q 597 -1347 397 -1278
z
" transform="scale(0.015625)"/>
       <path id="ArialMT-49" d="M 556 0
L 556 2881
L 59 2881
L 59 3319
L 556 3319
L 556 3672
Q 556 4006 616 4169
Q 697 4388 901 4523
Q 1106 4659 1475 4659
Q 1713 4659 2000 4603
L 1916 4113
Q 1741 4144 1584 4144
Q 1328 4144 1222 4034
Q 1116 3925 1116 3625
L 1116 3319
L 1763 3319
L 1763 2881
L 1116 2881
L 1116 0
L 556 0
z
" transform="scale(0.015625)"/>
       <path id="ArialMT-4c" d="M 425 3934
L 425 4581
L 988 4581
L 988 3934
L 425 3934
z
M 425 0
L 425 3319
L 988 3319
L 988 0
L 425 0
z
" transform="scale(0.015625)"/>
       <path id="ArialMT-46" d="M 2588 1216
L 3141 1144
Q 3050 572 2676 248
Q 2303 -75 1759 -75
Q 1078 -75 664 370
Q 250 816 250 1647
Q 250 2184 428 2587
Q 606 2991 970 3192
Q 1334 3394 1763 3394
Q 2303 3394 2647 3120
Q 2991 2847 3088 2344
L 2541 2259
Q 2463 2594 2264 2762
Q 2066 2931 1784 2931
Q 1359 2931 1093 2626
Q 828 2322 828 1663
Q 828 994 1084 691
Q 1341 388 1753 388
Q 2084 388 2306 591
Q 2528 794 2588 1216
z
" transform="scale(0.015625)"/>
       <path id="ArialMT-b" d="M 1497 -1347
Q 1031 -759 709 28
Q 388 816 388 1659
Q 388 2403 628 3084
Q 909 3875 1497 4659
L 1900 4659
Q 1522 4009 1400 3731
Q 1209 3300 1100 2831
Q 966 2247 966 1656
Q 966 153 1900 -1347
L 1497 -1347
z
" transform="scale(0.015625)"/>
       <path id="ArialMT-45" d="M 941 0
L 419 0
L 419 4581
L 981 4581
L 981 2947
Q 1338 3394 1891 3394
Q 2197 3394 2470 3270
Q 2744 3147 2920 2923
Q 3097 2700 3197 2384
Q 3297 2069 3297 1709
Q 3297 856 2875 390
Q 2453 -75 1863 -75
Q 1275 -75 941 416
L 941 0
z
M 934 1684
Q 934 1088 1097 822
Q 1363 388 1816 388
Q 2184 388 2453 708
Q 2722 1028 2722 1663
Q 2722 2313 2464 2622
Q 2206 2931 1841 2931
Q 1472 2931 1203 2611
Q 934 2291 934 1684
z
" transform="scale(0.015625)"/>
       <path id="ArialMT-10" d="M 203 1375
L 203 1941
L 1931 1941
L 1931 1375
L 203 1375
z
" transform="scale(0.015625)"/>
       <path id="ArialMT-32" d="M 309 2231
Q 309 3372 921 4017
Q 1534 4663 2503 4663
Q 3138 4663 3647 4359
Q 4156 4056 4423 3514
Q 4691 2972 4691 2284
Q 4691 1588 4409 1038
Q 4128 488 3612 205
Q 3097 -78 2500 -78
Q 1853 -78 1343 234
Q 834 547 571 1087
Q 309 1628 309 2231
z
M 934 2222
Q 934 1394 1379 917
Q 1825 441 2497 441
Q 3181 441 3623 922
Q 4066 1403 4066 2288
Q 4066 2847 3877 3264
Q 3688 3681 3323 3911
Q 2959 4141 2506 4141
Q 1863 4141 1398 3698
Q 934 3256 934 2222
z
" transform="scale(0.015625)"/>
       <path id="ArialMT-33" d="M 494 0
L 494 4581
L 2222 4581
Q 2678 4581 2919 4538
Q 3256 4481 3484 4323
Q 3713 4166 3852 3881
Q 3991 3597 3991 3256
Q 3991 2672 3619 2267
Q 3247 1863 2275 1863
L 1100 1863
L 1100 0
L 494 0
z
M 1100 2403
L 2284 2403
Q 2872 2403 3119 2622
Q 3366 2841 3366 3238
Q 3366 3525 3220 3729
Q 3075 3934 2838 4000
Q 2684 4041 2272 4041
L 1100 4041
L 1100 2403
z
" transform="scale(0.015625)"/>
       <path id="ArialMT-12" d="M 0 -78
L 1328 4659
L 1778 4659
L 453 -78
L 0 -78
z
" transform="scale(0.015625)"/>
       <path id="ArialMT-53" d="M 422 -1272
L 422 3319
L 934 3319
L 934 2888
Q 1116 3141 1344 3267
Q 1572 3394 1897 3394
Q 2322 3394 2647 3175
Q 2972 2956 3137 2557
Q 3303 2159 3303 1684
Q 3303 1175 3120 767
Q 2938 359 2589 142
Q 2241 -75 1856 -75
Q 1575 -75 1351 44
Q 1128 163 984 344
L 984 -1272
L 422 -1272
z
M 931 1641
Q 931 1000 1190 694
Q 1450 388 1819 388
Q 2194 388 2461 705
Q 2728 1022 2728 1688
Q 2728 2322 2467 2637
Q 2206 2953 1844 2953
Q 1484 2953 1207 2617
Q 931 2281 931 1641
z
" transform="scale(0.015625)"/>
       <path id="ArialMT-5a" d="M 1034 0
L 19 3319
L 600 3319
L 1128 1403
L 1325 691
Q 1338 744 1497 1375
L 2025 3319
L 2603 3319
L 3100 1394
L 3266 759
L 3456 1400
L 4025 3319
L 4572 3319
L 3534 0
L 2950 0
L 2422 1988
L 2294 2553
L 1622 0
L 1034 0
z
" transform="scale(0.015625)"/>
       <path id="ArialMT-f" d="M 569 0
L 569 641
L 1209 641
L 1209 0
Q 1209 -353 1084 -570
Q 959 -788 688 -906
L 531 -666
Q 709 -588 793 -436
Q 878 -284 888 0
L 569 0
z
" transform="scale(0.015625)"/>
       <path id="ArialMT-52" d="M 213 1659
Q 213 2581 725 3025
Q 1153 3394 1769 3394
Q 2453 3394 2887 2945
Q 3322 2497 3322 1706
Q 3322 1066 3130 698
Q 2938 331 2570 128
Q 2203 -75 1769 -75
Q 1072 -75 642 372
Q 213 819 213 1659
z
M 791 1659
Q 791 1022 1069 705
Q 1347 388 1769 388
Q 2188 388 2466 706
Q 2744 1025 2744 1678
Q 2744 2294 2464 2611
Q 2184 2928 1769 2928
Q 1347 2928 1069 2612
Q 791 2297 791 1659
z
" transform="scale(0.015625)"/>
       <path id="ArialMT-c" d="M 791 -1347
L 388 -1347
Q 1322 153 1322 1656
Q 1322 2244 1188 2822
Q 1081 3291 891 3722
Q 769 4003 388 4659
L 791 4659
Q 1378 3875 1659 3084
Q 1900 2403 1900 1659
Q 1900 816 1576 28
Q 1253 -759 791 -1347
z
" transform="scale(0.015625)"/>
      </defs>
      <use xlink:href="#ArialMT-28"/>
      <use xlink:href="#ArialMT-51" transform="translate(66.703125 0)"/>
      <use xlink:href="#ArialMT-48" transform="translate(122.3125 0)"/>
      <use xlink:href="#ArialMT-55" transform="translate(177.921875 0)"/>
      <use xlink:href="#ArialMT-4a" transform="translate(211.21875 0)"/>
      <use xlink:href="#ArialMT-5c" transform="translate(266.828125 0)"/>
      <use xlink:href="#ArialMT-3" transform="translate(316.828125 0)"/>
      <use xlink:href="#ArialMT-48" transform="translate(344.609375 0)"/>
      <use xlink:href="#ArialMT-49" transform="translate(400.21875 0)"/>
      <use xlink:href="#ArialMT-49" transform="translate(426.1875 0)"/>
      <use xlink:href="#ArialMT-4c" transform="translate(453.96875 0)"/>
      <use xlink:href="#ArialMT-46" transform="translate(476.1875 0)"/>
      <use xlink:href="#ArialMT-4c" transform="translate(526.1875 0)"/>
      <use xlink:href="#ArialMT-48" transform="translate(548.40625 0)"/>
      <use xlink:href="#ArialMT-51" transform="translate(604.015625 0)"/>
      <use xlink:href="#ArialMT-46" transform="translate(659.625 0)"/>
      <use xlink:href="#ArialMT-5c" transform="translate(709.625 0)"/>
      <use xlink:href="#ArialMT-3" transform="translate(759.625 0)"/>
      <use xlink:href="#ArialMT-b" transform="translate(787.40625 0)"/>
      <use xlink:href="#ArialMT-45" transform="translate(820.703125 0)"/>
      <use xlink:href="#ArialMT-4c" transform="translate(876.3125 0)"/>
      <use xlink:href="#ArialMT-57" transform="translate(898.53125 0)"/>
      <use xlink:href="#ArialMT-10" transform="translate(926.3125 0)"/>
      <use xlink:href="#ArialMT-32" transform="translate(959.609375 0)"/>
      <use xlink:href="#ArialMT-33" transform="translate(1037.390625 0)"/>
      <use xlink:href="#ArialMT-12" transform="translate(1104.09375 0)"/>
      <use xlink:href="#ArialMT-56" transform="translate(1131.875 0)"/>
      <use xlink:href="#ArialMT-3" transform="translate(1181.875 0)"/>
      <use xlink:href="#ArialMT-53" transform="translate(1209.65625 0)"/>
      <use xlink:href="#ArialMT-48" transform="translate(1265.265625 0)"/>
      <use xlink:href="#ArialMT-55" transform="translate(1320.875 0)"/>
      <use xlink:href="#ArialMT-3" transform="translate(1354.171875 0)"/>
      <use xlink:href="#ArialMT-5a" transform="translate(1381.953125 0)"/>
      <use xlink:href="#ArialMT-44" transform="translate(1454.171875 0)"/>
      <use xlink:href="#ArialMT-57" transform="translate(1509.78125 0)"/>
      <use xlink:href="#ArialMT-57" transform="translate(1537.5625 0)"/>
      <use xlink:href="#ArialMT-f" transform="translate(1565.34375 0)"/>
      <use xlink:href="#ArialMT-3" transform="translate(1593.125 0)"/>
      <use xlink:href="#ArialMT-4f" transform="translate(1620.90625 0)"/>
      <use xlink:href="#ArialMT-52" transform="translate(1643.125 0)"/>
      <use xlink:href="#ArialMT-4a" transform="translate(1698.734375 0)"/>
      <use xlink:href="#ArialMT-c" transform="translate(1754.34375 0)"/>
     </g>
    </g>
   </g>
   <g id="PathCollection_1">
    <defs>
     <path id="m53233c9726" d="M 0 1.581139
C 0.419323 1.581139 0.821528 1.41454 1.118034 1.118034
C 1.41454 0.821528 1.581139 0.419323 1.581139 0
C 1.581139 -0.419323 1.41454 -0.821528 1.118034 -1.118034
C 0.821528 -1.41454 0.419323 -1.581139 0 -1.581139
C -0.419323 -1.581139 -0.821528 -1.41454 -1.118034 -1.118034
C -1.41454 -0.821528 -1.581139 -0.419323 -1.581139 0
C -1.581139 0.419323 -1.41454 0.821528 -1.118034 1.118034
C -0.821528 1.41454 -0.419323 1.581139 0 1.581139
z
" style="stroke: #d5dee3; stroke-width: 0.6"/>
    </defs>
    <g clip-path="url(#p85bf96ad23)">
     <use xlink:href="#m53233c9726" x="37.034369" y="203.362878" style="fill: #ffffff; stroke: #d5dee3; stroke-width: 0.6"/>
     <use xlink:href="#m53233c9726" x="40.912104" y="202.088859" style="fill: #ffffff; stroke: #d5dee3; stroke-width: 0.6"/>
     <use xlink:href="#m53233c9726" x="45.678488" y="94.594642" style="fill: #ffffff; stroke: #d5dee3; stroke-width: 0.6"/>
     <use xlink:href="#m53233c9726" x="49.313864" y="208.319919" style="fill: #ffffff; stroke: #d5dee3; stroke-width: 0.6"/>
     <use xlink:href="#m53233c9726" x="54.322606" y="196.921461" style="fill: #ffffff; stroke: #d5dee3; stroke-width: 0.6"/>
     <use xlink:href="#m53233c9726" x="60.139209" y="201.502794" style="fill: #ffffff; stroke: #d5dee3; stroke-width: 0.6"/>
     <use xlink:href="#m53233c9726" x="72.03497" y="174.776623" style="fill: #ffffff; stroke: #d5dee3; stroke-width: 0.6"/>
     <use xlink:href="#m53233c9726" x="72.03497" y="173.205635" style="fill: #ffffff; stroke: #d5dee3; stroke-width: 0.6"/>
     <use xlink:href="#m53233c9726" x="72.03497" y="174.776623" style="fill: #ffffff; stroke: #d5dee3; stroke-width: 0.6"/>
     <use xlink:href="#m53233c9726" x="76.23585" y="184.924801" style="fill: #ffffff; stroke: #d5dee3; stroke-width: 0.6"/>
     <use xlink:href="#m53233c9726" x="78.174718" y="172.684503" style="fill: #ffffff; stroke: #d5dee3; stroke-width: 0.6"/>
     <use xlink:href="#m53233c9726" x="78.174718" y="172.684503" style="fill: #ffffff; stroke: #d5dee3; stroke-width: 0.6"/>
     <use xlink:href="#m53233c9726" x="78.174718" y="172.610838" style="fill: #ffffff; stroke: #d5dee3; stroke-width: 0.6"/>
     <use xlink:href="#m53233c9726" x="85.041541" y="186.240392" style="fill: #ffffff; stroke: #d5dee3; stroke-width: 0.6"/>
     <use xlink:href="#m53233c9726" x="85.041541" y="134.803011" style="fill: #ffffff; stroke: #d5dee3; stroke-width: 0.6"/>
     <use xlink:href="#m53233c9726" x="86.495692" y="184.924801" style="fill: #ffffff; stroke: #d5dee3; stroke-width: 0.6"/>
     <use xlink:href="#m53233c9726" x="86.495692" y="184.234648" style="fill: #ffffff; stroke: #d5dee3; stroke-width: 0.6"/>
     <use xlink:href="#m53233c9726" x="93.867429" y="209.582062" style="fill: #ffffff; stroke: #d5dee3; stroke-width: 0.6"/>
     <use xlink:href="#m53233c9726" x="96.77573" y="184.237827" style="fill: #ffffff; stroke: #d5dee3; stroke-width: 0.6"/>
     <use xlink:href="#m53233c9726" x="96.856516" y="198.975016" style="fill: #ffffff; stroke: #d5dee3; stroke-width: 0.6"/>
     <use xlink:href="#m53233c9726" x="99.360887" y="187.262435" style="fill: #ffffff; stroke: #d5dee3; stroke-width: 0.6"/>
     <use xlink:href="#m53233c9726" x="101.542113" y="185.323523" style="fill: #ffffff; stroke: #d5dee3; stroke-width: 0.6"/>
     <use xlink:href="#m53233c9726" x="103.561767" y="151.094437" style="fill: #ffffff; stroke: #d5dee3; stroke-width: 0.6"/>
     <use xlink:href="#m53233c9726" x="106.066138" y="168.285737" style="fill: #ffffff; stroke: #d5dee3; stroke-width: 0.6"/>
     <use xlink:href="#m53233c9726" x="107.681861" y="124.93948" style="fill: #ffffff; stroke: #d5dee3; stroke-width: 0.6"/>
     <use xlink:href="#m53233c9726" x="107.681861" y="122.901819" style="fill: #ffffff; stroke: #d5dee3; stroke-width: 0.6"/>
     <use xlink:href="#m53233c9726" x="107.681861" y="124.93948" style="fill: #ffffff; stroke: #d5dee3; stroke-width: 0.6"/>
     <use xlink:href="#m53233c9726" x="108.489722" y="124.93948" style="fill: #ffffff; stroke: #d5dee3; stroke-width: 0.6"/>
     <use xlink:href="#m53233c9726" x="120.850004" y="160.110026" style="fill: #ffffff; stroke: #d5dee3; stroke-width: 0.6"/>
     <use xlink:href="#m53233c9726" x="130.241395" y="119.815683" style="fill: #ffffff; stroke: #d5dee3; stroke-width: 0.6"/>
     <use xlink:href="#m53233c9726" x="130.241395" y="122.901819" style="fill: #ffffff; stroke: #d5dee3; stroke-width: 0.6"/>
     <use xlink:href="#m53233c9726" x="130.241395" y="119.815683" style="fill: #ffffff; stroke: #d5dee3; stroke-width: 0.6"/>
     <use xlink:href="#m53233c9726" x="130.241395" y="124.93948" style="fill: #ffffff; stroke: #d5dee3; stroke-width: 0.6"/>
     <use xlink:href="#m53233c9726" x="130.241395" y="124.93948" style="fill: #ffffff; stroke: #d5dee3; stroke-width: 0.6"/>
     <use xlink:href="#m53233c9726" x="134.442275" y="136.787582" style="fill: #ffffff; stroke: #d5dee3; stroke-width: 0.6"/>
     <use xlink:href="#m53233c9726" x="141.47067" y="158.671247" style="fill: #ffffff; stroke: #d5dee3; stroke-width: 0.6"/>
     <use xlink:href="#m53233c9726" x="141.47067" y="165.914438" style="fill: #ffffff; stroke: #d5dee3; stroke-width: 0.6"/>
     <use xlink:href="#m53233c9726" x="141.47067" y="158.671247" style="fill: #ffffff; stroke: #d5dee3; stroke-width: 0.6"/>
     <use xlink:href="#m53233c9726" x="143.975041" y="102.362626" style="fill: #ffffff; stroke: #d5dee3; stroke-width: 0.6"/>
     <use xlink:href="#m53233c9726" x="144.540544" y="102.961839" style="fill: #ffffff; stroke: #d5dee3; stroke-width: 0.6"/>
     <use xlink:href="#m53233c9726" x="146.156267" y="80.856545" style="fill: #ffffff; stroke: #d5dee3; stroke-width: 0.6"/>
     <use xlink:href="#m53233c9726" x="148.902996" y="168.3208" style="fill: #ffffff; stroke: #d5dee3; stroke-width: 0.6"/>
     <use xlink:href="#m53233c9726" x="152.881714" y="85.313834" style="fill: #ffffff; stroke: #d5dee3; stroke-width: 0.6"/>
     <use xlink:href="#m53233c9726" x="166.615361" y="85.313834" style="fill: #ffffff; stroke: #d5dee3; stroke-width: 0.6"/>
     <use xlink:href="#m53233c9726" x="166.615361" y="63.895353" style="fill: #ffffff; stroke: #d5dee3; stroke-width: 0.6"/>
     <use xlink:href="#m53233c9726" x="171.785674" y="105.714898" style="fill: #ffffff; stroke: #d5dee3; stroke-width: 0.6"/>
     <use xlink:href="#m53233c9726" x="171.785674" y="86.235329" style="fill: #ffffff; stroke: #d5dee3; stroke-width: 0.6"/>
     <use xlink:href="#m53233c9726" x="171.785674" y="79.964309" style="fill: #ffffff; stroke: #d5dee3; stroke-width: 0.6"/>
     <use xlink:href="#m53233c9726" x="174.451617" y="69.563735" style="fill: #ffffff; stroke: #d5dee3; stroke-width: 0.6"/>
     <use xlink:href="#m53233c9726" x="179.460359" y="118.71346" style="fill: #ffffff; stroke: #d5dee3; stroke-width: 0.6"/>
     <use xlink:href="#m53233c9726" x="182.388857" y="107.011502" style="fill: #ffffff; stroke: #d5dee3; stroke-width: 0.6"/>
     <use xlink:href="#m53233c9726" x="182.388857" y="85.313834" style="fill: #ffffff; stroke: #d5dee3; stroke-width: 0.6"/>
     <use xlink:href="#m53233c9726" x="187.236026" y="87.839074" style="fill: #ffffff; stroke: #d5dee3; stroke-width: 0.6"/>
     <use xlink:href="#m53233c9726" x="193.214202" y="87.839074" style="fill: #ffffff; stroke: #d5dee3; stroke-width: 0.6"/>
     <use xlink:href="#m53233c9726" x="196.364862" y="79.754322" style="fill: #ffffff; stroke: #d5dee3; stroke-width: 0.6"/>
     <use xlink:href="#m53233c9726" x="202.100679" y="167.07586" style="fill: #ffffff; stroke: #d5dee3; stroke-width: 0.6"/>
     <use xlink:href="#m53233c9726" x="202.100679" y="106.208503" style="fill: #ffffff; stroke: #d5dee3; stroke-width: 0.6"/>
     <use xlink:href="#m53233c9726" x="204.847408" y="157.889611" style="fill: #ffffff; stroke: #d5dee3; stroke-width: 0.6"/>
     <use xlink:href="#m53233c9726" x="204.847408" y="100.401764" style="fill: #ffffff; stroke: #d5dee3; stroke-width: 0.6"/>
     <use xlink:href="#m53233c9726" x="208.240427" y="87.839074" style="fill: #ffffff; stroke: #d5dee3; stroke-width: 0.6"/>
     <use xlink:href="#m53233c9726" x="213.511723" y="89.645943" style="fill: #ffffff; stroke: #d5dee3; stroke-width: 0.6"/>
     <use xlink:href="#m53233c9726" x="219.085968" y="99.669607" style="fill: #ffffff; stroke: #d5dee3; stroke-width: 0.6"/>
     <use xlink:href="#m53233c9726" x="220.055402" y="156.213347" style="fill: #ffffff; stroke: #d5dee3; stroke-width: 0.6"/>
     <use xlink:href="#m53233c9726" x="220.055402" y="144.195119" style="fill: #ffffff; stroke: #d5dee3; stroke-width: 0.6"/>
     <use xlink:href="#m53233c9726" x="220.055402" y="159.749477" style="fill: #ffffff; stroke: #d5dee3; stroke-width: 0.6"/>
     <use xlink:href="#m53233c9726" x="220.055402" y="85.980342" style="fill: #ffffff; stroke: #d5dee3; stroke-width: 0.6"/>
     <use xlink:href="#m53233c9726" x="223.125275" y="106.298871" style="fill: #ffffff; stroke: #d5dee3; stroke-width: 0.6"/>
     <use xlink:href="#m53233c9726" x="226.518294" y="175.069505" style="fill: #ffffff; stroke: #d5dee3; stroke-width: 0.6"/>
     <use xlink:href="#m53233c9726" x="230.396029" y="85.313834" style="fill: #ffffff; stroke: #d5dee3; stroke-width: 0.6"/>
     <use xlink:href="#m53233c9726" x="230.638388" y="103.141373" style="fill: #ffffff; stroke: #d5dee3; stroke-width: 0.6"/>
     <use xlink:href="#m53233c9726" x="236.616563" y="73.919017" style="fill: #ffffff; stroke: #d5dee3; stroke-width: 0.6"/>
     <use xlink:href="#m53233c9726" x="236.616563" y="85.313834" style="fill: #ffffff; stroke: #d5dee3; stroke-width: 0.6"/>
     <use xlink:href="#m53233c9726" x="236.616563" y="73.919017" style="fill: #ffffff; stroke: #d5dee3; stroke-width: 0.6"/>
     <use xlink:href="#m53233c9726" x="236.616563" y="73.919017" style="fill: #ffffff; stroke: #d5dee3; stroke-width: 0.6"/>
     <use xlink:href="#m53233c9726" x="237.020494" y="107.827639" style="fill: #ffffff; stroke: #d5dee3; stroke-width: 0.6"/>
     <use xlink:href="#m53233c9726" x="241.403143" y="85.313834" style="fill: #ffffff; stroke: #d5dee3; stroke-width: 0.6"/>
     <use xlink:href="#m53233c9726" x="241.403143" y="85.423827" style="fill: #ffffff; stroke: #d5dee3; stroke-width: 0.6"/>
     <use xlink:href="#m53233c9726" x="241.403143" y="85.313834" style="fill: #ffffff; stroke: #d5dee3; stroke-width: 0.6"/>
     <use xlink:href="#m53233c9726" x="241.403143" y="87.127565" style="fill: #ffffff; stroke: #d5dee3; stroke-width: 0.6"/>
     <use xlink:href="#m53233c9726" x="247.462104" y="102.075003" style="fill: #ffffff; stroke: #d5dee3; stroke-width: 0.6"/>
     <use xlink:href="#m53233c9726" x="247.785249" y="99.669607" style="fill: #ffffff; stroke: #d5dee3; stroke-width: 0.6"/>
     <use xlink:href="#m53233c9726" x="248.431538" y="109.9172" style="fill: #ffffff; stroke: #d5dee3; stroke-width: 0.6"/>
     <use xlink:href="#m53233c9726" x="251.824557" y="90.056012" style="fill: #ffffff; stroke: #d5dee3; stroke-width: 0.6"/>
     <use xlink:href="#m53233c9726" x="256.025437" y="184.37214" style="fill: #ffffff; stroke: #d5dee3; stroke-width: 0.6"/>
     <use xlink:href="#m53233c9726" x="259.337669" y="87.839074" style="fill: #ffffff; stroke: #d5dee3; stroke-width: 0.6"/>
     <use xlink:href="#m53233c9726" x="260.226317" y="63.388978" style="fill: #ffffff; stroke: #d5dee3; stroke-width: 0.6"/>
     <use xlink:href="#m53233c9726" x="262.569115" y="78.693703" style="fill: #ffffff; stroke: #d5dee3; stroke-width: 0.6"/>
     <use xlink:href="#m53233c9726" x="262.569115" y="89.547316" style="fill: #ffffff; stroke: #d5dee3; stroke-width: 0.6"/>
     <use xlink:href="#m53233c9726" x="262.569115" y="71.129524" style="fill: #ffffff; stroke: #d5dee3; stroke-width: 0.6"/>
     <use xlink:href="#m53233c9726" x="262.569115" y="94.776602" style="fill: #ffffff; stroke: #d5dee3; stroke-width: 0.6"/>
     <use xlink:href="#m53233c9726" x="264.427197" y="95.056621" style="fill: #ffffff; stroke: #d5dee3; stroke-width: 0.6"/>
     <use xlink:href="#m53233c9726" x="264.588769" y="65.22314" style="fill: #ffffff; stroke: #d5dee3; stroke-width: 0.6"/>
     <use xlink:href="#m53233c9726" x="266.123706" y="128.539618" style="fill: #ffffff; stroke: #d5dee3; stroke-width: 0.6"/>
     <use xlink:href="#m53233c9726" x="266.123706" y="74.630525" style="fill: #ffffff; stroke: #d5dee3; stroke-width: 0.6"/>
     <use xlink:href="#m53233c9726" x="266.527637" y="94.128115" style="fill: #ffffff; stroke: #d5dee3; stroke-width: 0.6"/>
     <use xlink:href="#m53233c9726" x="270.910286" y="81.29226" style="fill: #ffffff; stroke: #d5dee3; stroke-width: 0.6"/>
     <use xlink:href="#m53233c9726" x="270.910286" y="94.190274" style="fill: #ffffff; stroke: #d5dee3; stroke-width: 0.6"/>
     <use xlink:href="#m53233c9726" x="271.152644" y="112.951436" style="fill: #ffffff; stroke: #d5dee3; stroke-width: 0.6"/>
     <use xlink:href="#m53233c9726" x="271.152644" y="73.694583" style="fill: #ffffff; stroke: #d5dee3; stroke-width: 0.6"/>
     <use xlink:href="#m53233c9726" x="271.637361" y="173.482515" style="fill: #ffffff; stroke: #d5dee3; stroke-width: 0.6"/>
     <use xlink:href="#m53233c9726" x="271.637361" y="165.397763" style="fill: #ffffff; stroke: #d5dee3; stroke-width: 0.6"/>
     <use xlink:href="#m53233c9726" x="271.637361" y="168.83598" style="fill: #ffffff; stroke: #d5dee3; stroke-width: 0.6"/>
     <use xlink:href="#m53233c9726" x="273.98016" y="105.997499" style="fill: #ffffff; stroke: #d5dee3; stroke-width: 0.6"/>
     <use xlink:href="#m53233c9726" x="277.292392" y="71.129524" style="fill: #ffffff; stroke: #d5dee3; stroke-width: 0.6"/>
     <use xlink:href="#m53233c9726" x="277.292392" y="71.129524" style="fill: #ffffff; stroke: #d5dee3; stroke-width: 0.6"/>
     <use xlink:href="#m53233c9726" x="277.292392" y="46.787982" style="fill: #ffffff; stroke: #d5dee3; stroke-width: 0.6"/>
     <use xlink:href="#m53233c9726" x="281.977989" y="60.710469" style="fill: #ffffff; stroke: #d5dee3; stroke-width: 0.6"/>
     <use xlink:href="#m53233c9726" x="284.078429" y="91.459674" style="fill: #ffffff; stroke: #d5dee3; stroke-width: 0.6"/>
     <use xlink:href="#m53233c9726" x="288.602454" y="71.129524" style="fill: #ffffff; stroke: #d5dee3; stroke-width: 0.6"/>
     <use xlink:href="#m53233c9726" x="290.298963" y="84.662769" style="fill: #ffffff; stroke: #d5dee3; stroke-width: 0.6"/>
     <use xlink:href="#m53233c9726" x="291.753114" y="104.279188" style="fill: #ffffff; stroke: #d5dee3; stroke-width: 0.6"/>
     <use xlink:href="#m53233c9726" x="296.115566" y="108.798094" style="fill: #ffffff; stroke: #d5dee3; stroke-width: 0.6"/>
     <use xlink:href="#m53233c9726" x="298.296792" y="85.423827" style="fill: #ffffff; stroke: #d5dee3; stroke-width: 0.6"/>
     <use xlink:href="#m53233c9726" x="298.296792" y="65.237958" style="fill: #ffffff; stroke: #d5dee3; stroke-width: 0.6"/>
     <use xlink:href="#m53233c9726" x="298.296792" y="104.19817" style="fill: #ffffff; stroke: #d5dee3; stroke-width: 0.6"/>
     <use xlink:href="#m53233c9726" x="299.347012" y="123.125749" style="fill: #ffffff; stroke: #d5dee3; stroke-width: 0.6"/>
     <use xlink:href="#m53233c9726" x="306.314818" y="79.636348" style="fill: #ffffff; stroke: #d5dee3; stroke-width: 0.6"/>
     <use xlink:href="#m53233c9726" x="308.496044" y="61.849308" style="fill: #ffffff; stroke: #d5dee3; stroke-width: 0.6"/>
     <use xlink:href="#m53233c9726" x="311.242773" y="56.068896" style="fill: #ffffff; stroke: #d5dee3; stroke-width: 0.6"/>
     <use xlink:href="#m53233c9726" x="319.725319" y="87.127565" style="fill: #ffffff; stroke: #d5dee3; stroke-width: 0.6"/>
     <use xlink:href="#m53233c9726" x="321.987332" y="82.828933" style="fill: #ffffff; stroke: #d5dee3; stroke-width: 0.6"/>
     <use xlink:href="#m53233c9726" x="323.27991" y="73.483302" style="fill: #ffffff; stroke: #d5dee3; stroke-width: 0.6"/>
     <use xlink:href="#m53233c9726" x="323.683841" y="78.842791" style="fill: #ffffff; stroke: #d5dee3; stroke-width: 0.6"/>
     <use xlink:href="#m53233c9726" x="324.976419" y="73.919017" style="fill: #ffffff; stroke: #d5dee3; stroke-width: 0.6"/>
     <use xlink:href="#m53233c9726" x="326.188212" y="38.587341" style="fill: #ffffff; stroke: #d5dee3; stroke-width: 0.6"/>
     <use xlink:href="#m53233c9726" x="326.43057" y="71.129524" style="fill: #ffffff; stroke: #d5dee3; stroke-width: 0.6"/>
     <use xlink:href="#m53233c9726" x="327.642363" y="73.504928" style="fill: #ffffff; stroke: #d5dee3; stroke-width: 0.6"/>
     <use xlink:href="#m53233c9726" x="333.559948" y="40.750183" style="fill: #ffffff; stroke: #d5dee3; stroke-width: 0.6"/>
     <use xlink:href="#m53233c9726" x="336.064319" y="66.287997" style="fill: #ffffff; stroke: #d5dee3; stroke-width: 0.6"/>
     <use xlink:href="#m53233c9726" x="343.011928" y="44.896583" style="fill: #ffffff; stroke: #d5dee3; stroke-width: 0.6"/>
     <use xlink:href="#m53233c9726" x="343.011928" y="37.885788" style="fill: #ffffff; stroke: #d5dee3; stroke-width: 0.6"/>
     <use xlink:href="#m53233c9726" x="348.747745" y="33.687474" style="fill: #ffffff; stroke: #d5dee3; stroke-width: 0.6"/>
     <use xlink:href="#m53233c9726" x="348.747745" y="28.84899" style="fill: #ffffff; stroke: #d5dee3; stroke-width: 0.6"/>
     <use xlink:href="#m53233c9726" x="354.887493" y="56.21661" style="fill: #ffffff; stroke: #d5dee3; stroke-width: 0.6"/>
     <use xlink:href="#m53233c9726" x="356.987933" y="64.371407" style="fill: #ffffff; stroke: #d5dee3; stroke-width: 0.6"/>
     <use xlink:href="#m53233c9726" x="361.451368" y="27.137066" style="fill: #ffffff; stroke: #d5dee3; stroke-width: 0.6"/>
     <use xlink:href="#m53233c9726" x="365.005959" y="88.941297" style="fill: #ffffff; stroke: #d5dee3; stroke-width: 0.6"/>
    </g>
   </g>
   <g id="line2d_39">
    <path d="M 49.606714 149.597666
L 374.185286 14.938281
" clip-path="url(#p85bf96ad23)" style="fill: none; stroke-dasharray: 6,3.6; stroke-dashoffset: 0; stroke: #de3d3c; stroke-width: 1.2"/>
   </g>
   <g id="patch_3">
    <path d="M 46.656 210.276
L 46.656 4.752
" style="fill: none; stroke: #000000; stroke-width: 0.7; stroke-linejoin: miter; stroke-linecap: square"/>
   </g>
   <g id="patch_4">
    <path d="M 46.656 210.276
L 377.136 210.276
" style="fill: none; stroke: #000000; stroke-width: 0.7; stroke-linejoin: miter; stroke-linecap: square"/>
   </g>
   <g id="line2d_40">
    <path d="M 37.034369 203.362878
L 40.912104 202.088859
L 45.678488 94.594642
L 146.156267 80.856545
L 166.615361 63.895353
L 260.226317 63.388978
L 277.292392 46.787982
L 326.188212 38.587341
L 343.011928 37.885788
L 348.747745 33.687474
L 348.747745 28.84899
L 361.451368 27.137066
" clip-path="url(#p85bf96ad23)" style="fill: none; stroke: #1683a6; stroke-width: 1.5; stroke-linecap: square"/>
   </g>
   <g id="text_12">
    <!-- ~1.5× / year -->
    <g style="fill: #c62a2a" transform="translate(111.571714 90.459976) rotate(-17) scale(0.066 -0.066)">
     <defs>
      <path id="Arial-BoldMT-61" d="M 209 1622
L 209 2431
Q 606 2863 1134 2863
Q 1331 2863 1497 2823
Q 1663 2784 2092 2611
Q 2522 2438 2675 2438
Q 2850 2438 3079 2545
Q 3309 2653 3528 2888
L 3528 2044
Q 3384 1894 3126 1762
Q 2869 1631 2594 1631
Q 2438 1631 2289 1668
Q 2141 1706 1819 1847
Q 1338 2056 1063 2056
Q 625 2056 209 1622
z
" transform="scale(0.015625)"/>
      <path id="Arial-BoldMT-14" d="M 2519 0
L 1641 0
L 1641 3309
Q 1159 2859 506 2644
L 506 3441
Q 850 3553 1253 3867
Q 1656 4181 1806 4600
L 2519 4600
L 2519 0
z
" transform="scale(0.015625)"/>
      <path id="Arial-BoldMT-11" d="M 459 0
L 459 878
L 1338 878
L 1338 0
L 459 0
z
" transform="scale(0.015625)"/>
      <path id="Arial-BoldMT-18" d="M 284 1178
L 1159 1269
Q 1197 972 1381 798
Q 1566 625 1806 625
Q 2081 625 2272 848
Q 2463 1072 2463 1522
Q 2463 1944 2273 2155
Q 2084 2366 1781 2366
Q 1403 2366 1103 2031
L 391 2134
L 841 4519
L 3163 4519
L 3163 3697
L 1506 3697
L 1369 2919
Q 1663 3066 1969 3066
Q 2553 3066 2959 2641
Q 3366 2216 3366 1538
Q 3366 972 3038 528
Q 2591 -78 1797 -78
Q 1163 -78 763 262
Q 363 603 284 1178
z
" transform="scale(0.015625)"/>
      <path id="Arial-BoldMT-ee" d="M 347 1313
L 1291 2256
L 341 3203
L 922 3784
L 1872 2838
L 2816 3781
L 3381 3213
L 2438 2269
L 3391 1316
L 2809 734
L 1856 1688
L 913 744
L 347 1313
z
" transform="scale(0.015625)"/>
      <path id="Arial-BoldMT-3" transform="scale(0.015625)"/>
      <path id="Arial-BoldMT-12" d="M -9 -78
L 1125 4659
L 1784 4659
L 638 -78
L -9 -78
z
" transform="scale(0.015625)"/>
      <path id="Arial-BoldMT-5c" d="M 44 3319
L 978 3319
L 1772 963
L 2547 3319
L 3456 3319
L 2284 125
L 2075 -453
Q 1959 -744 1854 -897
Q 1750 -1050 1614 -1145
Q 1478 -1241 1279 -1294
Q 1081 -1347 831 -1347
Q 578 -1347 334 -1294
L 256 -606
Q 463 -647 628 -647
Q 934 -647 1081 -467
Q 1228 -288 1306 -9
L 44 3319
z
" transform="scale(0.015625)"/>
      <path id="Arial-BoldMT-48" d="M 2381 1056
L 3256 909
Q 3088 428 2723 176
Q 2359 -75 1813 -75
Q 947 -75 531 491
Q 203 944 203 1634
Q 203 2459 634 2926
Q 1066 3394 1725 3394
Q 2466 3394 2894 2905
Q 3322 2416 3303 1406
L 1103 1406
Q 1113 1016 1316 798
Q 1519 581 1822 581
Q 2028 581 2168 693
Q 2309 806 2381 1056
z
M 2431 1944
Q 2422 2325 2234 2523
Q 2047 2722 1778 2722
Q 1491 2722 1303 2513
Q 1116 2303 1119 1944
L 2431 1944
z
" transform="scale(0.015625)"/>
      <path id="Arial-BoldMT-44" d="M 1116 2306
L 319 2450
Q 453 2931 781 3162
Q 1109 3394 1756 3394
Q 2344 3394 2631 3255
Q 2919 3116 3036 2902
Q 3153 2688 3153 2116
L 3144 1091
Q 3144 653 3186 445
Q 3228 238 3344 0
L 2475 0
Q 2441 88 2391 259
Q 2369 338 2359 363
Q 2134 144 1878 34
Q 1622 -75 1331 -75
Q 819 -75 523 203
Q 228 481 228 906
Q 228 1188 362 1408
Q 497 1628 739 1745
Q 981 1863 1438 1950
Q 2053 2066 2291 2166
L 2291 2253
Q 2291 2506 2166 2614
Q 2041 2722 1694 2722
Q 1459 2722 1328 2630
Q 1197 2538 1116 2306
z
M 2291 1594
Q 2122 1538 1756 1459
Q 1391 1381 1278 1306
Q 1106 1184 1106 997
Q 1106 813 1243 678
Q 1381 544 1594 544
Q 1831 544 2047 700
Q 2206 819 2256 991
Q 2291 1103 2291 1419
L 2291 1594
z
" transform="scale(0.015625)"/>
      <path id="Arial-BoldMT-55" d="M 1300 0
L 422 0
L 422 3319
L 1238 3319
L 1238 2847
Q 1447 3181 1614 3287
Q 1781 3394 1994 3394
Q 2294 3394 2572 3228
L 2300 2463
Q 2078 2606 1888 2606
Q 1703 2606 1575 2504
Q 1447 2403 1373 2137
Q 1300 1872 1300 1025
L 1300 0
z
" transform="scale(0.015625)"/>
     </defs>
     <use xlink:href="#Arial-BoldMT-61"/>
     <use xlink:href="#Arial-BoldMT-14" transform="translate(58.40625 0)"/>
     <use xlink:href="#Arial-BoldMT-11" transform="translate(114.015625 0)"/>
     <use xlink:href="#Arial-BoldMT-18" transform="translate(141.796875 0)"/>
     <use xlink:href="#Arial-BoldMT-ee" transform="translate(197.40625 0)"/>
     <use xlink:href="#Arial-BoldMT-3" transform="translate(255.8125 0)"/>
     <use xlink:href="#Arial-BoldMT-12" transform="translate(283.59375 0)"/>
     <use xlink:href="#Arial-BoldMT-3" transform="translate(311.375 0)"/>
     <use xlink:href="#Arial-BoldMT-5c" transform="translate(339.15625 0)"/>
     <use xlink:href="#Arial-BoldMT-48" transform="translate(394.765625 0)"/>
     <use xlink:href="#Arial-BoldMT-44" transform="translate(450.375 0)"/>
     <use xlink:href="#Arial-BoldMT-55" transform="translate(505.984375 0)"/>
    </g>
   </g>
   <g id="PathCollection_2">
    <defs>
     <path id="mb9febe1c33" d="M 0 2.236068
C 0.593012 2.236068 1.161816 2.000462 1.581139 1.581139
C 2.000462 1.161816 2.236068 0.593012 2.236068 0
C 2.236068 -0.593012 2.000462 -1.161816 1.581139 -1.581139
C 1.161816 -2.000462 0.593012 -2.236068 0 -2.236068
C -0.593012 -2.236068 -1.161816 -2.000462 -1.581139 -1.581139
C -2.000462 -1.161816 -2.236068 -0.593012 -2.236068 0
C -2.236068 0.593012 -2.000462 1.161816 -1.581139 1.581139
C -1.161816 2.000462 -0.593012 2.236068 0 2.236068
z
" style="stroke: #136680; stroke-width: 0.4"/>
    </defs>
    <g clip-path="url(#p85bf96ad23)">
     <use xlink:href="#mb9febe1c33" x="37.034369" y="203.362878" style="fill: #1683a6; stroke: #136680; stroke-width: 0.4"/>
     <use xlink:href="#mb9febe1c33" x="40.912104" y="202.088859" style="fill: #1683a6; stroke: #136680; stroke-width: 0.4"/>
     <use xlink:href="#mb9febe1c33" x="45.678488" y="94.594642" style="fill: #1683a6; stroke: #136680; stroke-width: 0.4"/>
     <use xlink:href="#mb9febe1c33" x="146.156267" y="80.856545" style="fill: #1683a6; stroke: #136680; stroke-width: 0.4"/>
     <use xlink:href="#mb9febe1c33" x="166.615361" y="63.895353" style="fill: #1683a6; stroke: #136680; stroke-width: 0.4"/>
     <use xlink:href="#mb9febe1c33" x="260.226317" y="63.388978" style="fill: #1683a6; stroke: #136680; stroke-width: 0.4"/>
     <use xlink:href="#mb9febe1c33" x="277.292392" y="46.787982" style="fill: #1683a6; stroke: #136680; stroke-width: 0.4"/>
     <use xlink:href="#mb9febe1c33" x="326.188212" y="38.587341" style="fill: #1683a6; stroke: #136680; stroke-width: 0.4"/>
     <use xlink:href="#mb9febe1c33" x="343.011928" y="37.885788" style="fill: #1683a6; stroke: #136680; stroke-width: 0.4"/>
     <use xlink:href="#mb9febe1c33" x="348.747745" y="33.687474" style="fill: #1683a6; stroke: #136680; stroke-width: 0.4"/>
     <use xlink:href="#mb9febe1c33" x="348.747745" y="28.84899" style="fill: #1683a6; stroke: #136680; stroke-width: 0.4"/>
     <use xlink:href="#mb9febe1c33" x="361.451368" y="27.137066" style="fill: #1683a6; stroke: #136680; stroke-width: 0.4"/>
    </g>
   </g>
   <g id="legend_1">
    <g id="PathCollection_3">
     <g>
      <use xlink:href="#m53233c9726" x="318.030375" y="194.607328" style="fill: #ffffff; stroke: #d5dee3; stroke-width: 0.6"/>
     </g>
    </g>
    <g id="text_13">
     <!-- AI accelerators -->
     <g transform="translate(325.830375 196.182328) scale(0.06 -0.06)">
      <defs>
       <path id="ArialMT-24" d="M -9 0
L 1750 4581
L 2403 4581
L 4278 0
L 3588 0
L 3053 1388
L 1138 1388
L 634 0
L -9 0
z
M 1313 1881
L 2866 1881
L 2388 3150
Q 2169 3728 2063 4100
Q 1975 3659 1816 3225
L 1313 1881
z
" transform="scale(0.015625)"/>
       <path id="ArialMT-2c" d="M 597 0
L 597 4581
L 1203 4581
L 1203 0
L 597 0
z
" transform="scale(0.015625)"/>
      </defs>
      <use xlink:href="#ArialMT-24"/>
      <use xlink:href="#ArialMT-2c" transform="translate(66.703125 0)"/>
      <use xlink:href="#ArialMT-3" transform="translate(94.484375 0)"/>
      <use xlink:href="#ArialMT-44" transform="translate(122.265625 0)"/>
      <use xlink:href="#ArialMT-46" transform="translate(177.875 0)"/>
      <use xlink:href="#ArialMT-46" transform="translate(227.875 0)"/>
      <use xlink:href="#ArialMT-48" transform="translate(277.875 0)"/>
      <use xlink:href="#ArialMT-4f" transform="translate(333.484375 0)"/>
      <use xlink:href="#ArialMT-48" transform="translate(355.703125 0)"/>
      <use xlink:href="#ArialMT-55" transform="translate(411.3125 0)"/>
      <use xlink:href="#ArialMT-44" transform="translate(444.609375 0)"/>
      <use xlink:href="#ArialMT-57" transform="translate(500.21875 0)"/>
      <use xlink:href="#ArialMT-52" transform="translate(528 0)"/>
      <use xlink:href="#ArialMT-55" transform="translate(583.609375 0)"/>
      <use xlink:href="#ArialMT-56" transform="translate(616.90625 0)"/>
     </g>
    </g>
    <g id="PathCollection_4">
     <g>
      <use xlink:href="#mb9febe1c33" x="318.030375" y="202.038187" style="fill: #1683a6; stroke: #136680; stroke-width: 0.4"/>
     </g>
    </g>
    <g id="text_14">
     <!-- Efficiency frontier -->
     <g transform="translate(325.830375 203.613187) scale(0.06 -0.06)">
      <use xlink:href="#ArialMT-28"/>
      <use xlink:href="#ArialMT-49" transform="translate(66.703125 0)"/>
      <use xlink:href="#ArialMT-49" transform="translate(92.671875 0)"/>
      <use xlink:href="#ArialMT-4c" transform="translate(120.453125 0)"/>
      <use xlink:href="#ArialMT-46" transform="translate(142.671875 0)"/>
      <use xlink:href="#ArialMT-4c" transform="translate(192.671875 0)"/>
      <use xlink:href="#ArialMT-48" transform="translate(214.890625 0)"/>
      <use xlink:href="#ArialMT-51" transform="translate(270.5 0)"/>
      <use xlink:href="#ArialMT-46" transform="translate(326.109375 0)"/>
      <use xlink:href="#ArialMT-5c" transform="translate(376.109375 0)"/>
      <use xlink:href="#ArialMT-3" transform="translate(426.109375 0)"/>
      <use xlink:href="#ArialMT-49" transform="translate(453.890625 0)"/>
      <use xlink:href="#ArialMT-55" transform="translate(481.671875 0)"/>
      <use xlink:href="#ArialMT-52" transform="translate(514.96875 0)"/>
      <use xlink:href="#ArialMT-51" transform="translate(570.578125 0)"/>
      <use xlink:href="#ArialMT-57" transform="translate(626.1875 0)"/>
      <use xlink:href="#ArialMT-4c" transform="translate(653.96875 0)"/>
      <use xlink:href="#ArialMT-48" transform="translate(676.1875 0)"/>
      <use xlink:href="#ArialMT-55" transform="translate(731.796875 0)"/>
     </g>
    </g>
   </g>
   <g id="patch_5">
    <path d="M 190.214202 82.642921
Q 191.464446 84.808408 192.71469 86.973894
" style="fill: none; stroke: #8a95a0; stroke-width: 0.45; stroke-linecap: round"/>
   </g>
   <g id="patch_6">
    <path d="M 323.188212 33.391189
Q 324.438456 35.556675 325.6887 37.722161
" style="fill: none; stroke: #8a95a0; stroke-width: 0.45; stroke-linecap: round"/>
   </g>
   <g id="patch_7">
    <path d="M 217.929123 103.298871
Q 220.094609 104.549115 222.260096 105.799359
" style="fill: none; stroke: #8a95a0; stroke-width: 0.45; stroke-linecap: round"/>
   </g>
   <g id="text_15">
    <!-- A100 -->
    <g style="fill: #20252b" transform="translate(175.261858 76.394523) scale(0.05 -0.05)">
     <defs>
      <path id="Arial-BoldMT-24" d="M 4597 0
L 3591 0
L 3191 1041
L 1359 1041
L 981 0
L 0 0
L 1784 4581
L 2763 4581
L 4597 0
z
M 2894 1813
L 2263 3513
L 1644 1813
L 2894 1813
z
" transform="scale(0.015625)"/>
      <path id="Arial-BoldMT-13" d="M 1756 4600
Q 2422 4600 2797 4125
Q 3244 3563 3244 2259
Q 3244 959 2794 391
Q 2422 -78 1756 -78
Q 1088 -78 678 436
Q 269 950 269 2269
Q 269 3563 719 4131
Q 1091 4600 1756 4600
z
M 1756 3872
Q 1597 3872 1472 3770
Q 1347 3669 1278 3406
Q 1188 3066 1188 2259
Q 1188 1453 1269 1151
Q 1350 850 1473 750
Q 1597 650 1756 650
Q 1916 650 2041 751
Q 2166 853 2234 1116
Q 2325 1453 2325 2259
Q 2325 3066 2244 3367
Q 2163 3669 2039 3770
Q 1916 3872 1756 3872
z
" transform="scale(0.015625)"/>
     </defs>
     <use xlink:href="#Arial-BoldMT-24"/>
     <use xlink:href="#Arial-BoldMT-14" transform="translate(72.21875 0)"/>
     <use xlink:href="#Arial-BoldMT-13" transform="translate(127.828125 0)"/>
     <use xlink:href="#Arial-BoldMT-13" transform="translate(183.4375 0)"/>
    </g>
   </g>
   <g id="text_16">
    <!-- B200 -->
    <g style="fill: #20252b" transform="translate(308.235868 27.14279) scale(0.05 -0.05)">
     <defs>
      <path id="Arial-BoldMT-25" d="M 469 4581
L 2300 4581
Q 2844 4581 3111 4536
Q 3378 4491 3589 4347
Q 3800 4203 3940 3964
Q 4081 3725 4081 3428
Q 4081 3106 3907 2837
Q 3734 2569 3438 2434
Q 3856 2313 4081 2019
Q 4306 1725 4306 1328
Q 4306 1016 4161 720
Q 4016 425 3764 248
Q 3513 72 3144 31
Q 2913 6 2028 0
L 469 0
L 469 4581
z
M 1394 3819
L 1394 2759
L 2000 2759
Q 2541 2759 2672 2775
Q 2909 2803 3045 2939
Q 3181 3075 3181 3297
Q 3181 3509 3064 3642
Q 2947 3775 2716 3803
Q 2578 3819 1925 3819
L 1394 3819
z
M 1394 1997
L 1394 772
L 2250 772
Q 2750 772 2884 800
Q 3091 838 3220 983
Q 3350 1128 3350 1372
Q 3350 1578 3250 1722
Q 3150 1866 2961 1931
Q 2772 1997 2141 1997
L 1394 1997
z
" transform="scale(0.015625)"/>
      <path id="Arial-BoldMT-15" d="M 3238 816
L 3238 0
L 159 0
Q 209 463 459 877
Q 709 1291 1447 1975
Q 2041 2528 2175 2725
Q 2356 2997 2356 3263
Q 2356 3556 2198 3714
Q 2041 3872 1763 3872
Q 1488 3872 1325 3706
Q 1163 3541 1138 3156
L 263 3244
Q 341 3969 753 4284
Q 1166 4600 1784 4600
Q 2463 4600 2850 4234
Q 3238 3869 3238 3325
Q 3238 3016 3127 2736
Q 3016 2456 2775 2150
Q 2616 1947 2200 1565
Q 1784 1184 1673 1059
Q 1563 934 1494 816
L 3238 816
z
" transform="scale(0.015625)"/>
     </defs>
     <use xlink:href="#Arial-BoldMT-25"/>
     <use xlink:href="#Arial-BoldMT-15" transform="translate(72.21875 0)"/>
     <use xlink:href="#Arial-BoldMT-13" transform="translate(127.828125 0)"/>
     <use xlink:href="#Arial-BoldMT-13" transform="translate(183.4375 0)"/>
    </g>
   </g>
   <g id="text_17">
    <!-- TPU v4 -->
    <g style="fill: #20252b" transform="translate(195.782971 99.246625) scale(0.05 -0.05)">
     <defs>
      <path id="Arial-BoldMT-37" d="M 1497 0
L 1497 3806
L 138 3806
L 138 4581
L 3778 4581
L 3778 3806
L 2422 3806
L 2422 0
L 1497 0
z
" transform="scale(0.015625)"/>
      <path id="Arial-BoldMT-33" d="M 466 0
L 466 4581
L 1950 4581
Q 2794 4581 3050 4513
Q 3444 4409 3709 4064
Q 3975 3719 3975 3172
Q 3975 2750 3822 2462
Q 3669 2175 3433 2011
Q 3197 1847 2953 1794
Q 2622 1728 1994 1728
L 1391 1728
L 1391 0
L 466 0
z
M 1391 3806
L 1391 2506
L 1897 2506
Q 2444 2506 2628 2578
Q 2813 2650 2917 2803
Q 3022 2956 3022 3159
Q 3022 3409 2875 3571
Q 2728 3734 2503 3775
Q 2338 3806 1838 3806
L 1391 3806
z
" transform="scale(0.015625)"/>
      <path id="Arial-BoldMT-38" d="M 459 4581
L 1384 4581
L 1384 2100
Q 1384 1509 1419 1334
Q 1478 1053 1701 883
Q 1925 713 2313 713
Q 2706 713 2906 873
Q 3106 1034 3147 1268
Q 3188 1503 3188 2047
L 3188 4581
L 4113 4581
L 4113 2175
Q 4113 1350 4038 1009
Q 3963 669 3761 434
Q 3559 200 3221 61
Q 2884 -78 2341 -78
Q 1684 -78 1345 73
Q 1006 225 809 467
Q 613 709 550 975
Q 459 1369 459 2138
L 459 4581
z
" transform="scale(0.015625)"/>
      <path id="Arial-BoldMT-59" d="M 1372 0
L 34 3319
L 956 3319
L 1581 1625
L 1763 1059
Q 1834 1275 1853 1344
Q 1897 1484 1947 1625
L 2578 3319
L 3481 3319
L 2163 0
L 1372 0
z
" transform="scale(0.015625)"/>
      <path id="Arial-BoldMT-17" d="M 1994 0
L 1994 922
L 119 922
L 119 1691
L 2106 4600
L 2844 4600
L 2844 1694
L 3413 1694
L 3413 922
L 2844 922
L 2844 0
L 1994 0
z
M 1994 1694
L 1994 3259
L 941 1694
L 1994 1694
z
" transform="scale(0.015625)"/>
     </defs>
     <use xlink:href="#Arial-BoldMT-37"/>
     <use xlink:href="#Arial-BoldMT-33" transform="translate(61.078125 0)"/>
     <use xlink:href="#Arial-BoldMT-38" transform="translate(127.78125 0)"/>
     <use xlink:href="#Arial-BoldMT-3" transform="translate(200 0)"/>
     <use xlink:href="#Arial-BoldMT-59" transform="translate(227.78125 0)"/>
     <use xlink:href="#Arial-BoldMT-17" transform="translate(283.390625 0)"/>
    </g>
   </g>
  </g>
 </g>
 <defs>
  <clipPath id="p85bf96ad23">
   <rect x="46.656" y="4.752" width="330.48" height="205.524"/>
  </clipPath>
 </defs>
</svg>
