<?xml version="1.0" encoding="utf-8" standalone="no"?>
<!DOCTYPE svg PUBLIC "-//W3C//DTD SVG 1.1//EN"
  "http://www.w3.org/Graphics/SVG/1.1/DTD/svg11.dtd">
<svg xmlns:xlink="http://www.w3.org/1999/xlink" width="377.76pt" height="224.64pt" viewBox="0 0 377.76 224.64" xmlns="http://www.w3.org/2000/svg" version="1.1">
 <metadata>
  <rdf:RDF xmlns:dc="http://purl.org/dc/elements/1.1/" xmlns:cc="http://creativecommons.org/ns#" xmlns:rdf="http://www.w3.org/1999/02/22-rdf-syntax-ns#">
   <cc:Work>
    <dc:type rdf:resource="http://purl.org/dc/dcmitype/StillImage"/>
    <dc:date>2026-07-20T18:50:39.108586</dc:date>
    <dc:format>image/svg+xml</dc:format>
    <dc:creator>
     <cc:Agent>
      <dc:title>Matplotlib v3.11.0, https://matplotlib.org/</dc:title>
     </cc:Agent>
    </dc:creator>
   </cc:Work>
  </rdf:RDF>
 </metadata>
 <defs>
  <style type="text/css">*{stroke-linejoin: round; stroke-linecap: butt}</style>
 </defs>
 <g id="figure_1">
  <g id="patch_1">
   <path d="M 0 224.64
L 377.76 224.64
L 377.76 0
L 0 0
z
" style="fill: #ffffff"/>
  </g>
  <g id="patch_2">
   <path d="M 37.776 217.9008
L 339.984 217.9008
L 339.984 193.1904
L 37.776 193.1904
z
" style="fill: #e4f1f6; stroke: #136680; stroke-width: 0.6; stroke-linejoin: miter"/>
  </g>
  <g id="axes_1">
   <g id="patch_3">
    <path d="M 45.3312 161.7408
L 324.8736 161.7408
L 324.8736 40.4352
L 45.3312 40.4352
z
" style="fill: #ffffff"/>
   </g>
   <g id="patch_4">
    <path d="M 45.3312 161.7408
L 324.8736 161.7408
L 324.8736 135.452365
L 45.3312 135.452365
z
" clip-path="url(#p1cdb1a3ea3)" style="fill: #de3d3c; opacity: 0.08; stroke: #de3d3c; stroke-linejoin: miter"/>
   </g>
   <g id="line2d_1">
    <path d="M 45.3312 48.124074
L 324.8736 48.124074
" clip-path="url(#p1cdb1a3ea3)" style="fill: none; stroke-dasharray: 3.2,2.4; stroke-dashoffset: 0; stroke: #20252b; stroke-width: 0.8"/>
   </g>
   <g id="line2d_2">
    <path d="M 45.3312 135.452365
L 324.8736 135.452365
" clip-path="url(#p1cdb1a3ea3)" style="fill: none; stroke: #3e474b; stroke-width: 0.7; stroke-linecap: square"/>
   </g>
   <g id="matplotlib.axis_1">
    <g id="xtick_1">
     <g id="line2d_3">
      <path d="M 45.3312 161.7408
L 45.3312 40.4352
" clip-path="url(#p1cdb1a3ea3)" style="fill: none; stroke: #d5dee3; stroke-width: 0.5; stroke-linecap: square"/>
     </g>
     <g id="line2d_4">
      <defs>
       <path id="m4e47e02f49" d="M 0 0
L 0 2.5
" style="stroke: #000000; stroke-width: 0.6"/>
      </defs>
      <g>
       <use xlink:href="#m4e47e02f49" x="45.3312" y="161.7408" style="stroke: #000000; stroke-width: 0.6"/>
      </g>
     </g>
     <g id="text_1">
      <!-- $\mathdefault{10^{0}}$ -->
      <g transform="translate(40.4032 172.1288) scale(0.064 -0.064)">
       <defs>
        <path id="ArialMT-14" d="M 2384 0
L 1822 0
L 1822 3584
Q 1619 3391 1289 3197
Q 959 3003 697 2906
L 697 3450
Q 1169 3672 1522 3987
Q 1875 4303 2022 4600
L 2384 4600
L 2384 0
z
" transform="scale(0.015625)"/>
        <path id="ArialMT-13" d="M 266 2259
Q 266 3072 433 3567
Q 600 4063 929 4331
Q 1259 4600 1759 4600
Q 2128 4600 2406 4451
Q 2684 4303 2865 4023
Q 3047 3744 3150 3342
Q 3253 2941 3253 2259
Q 3253 1453 3087 958
Q 2922 463 2592 192
Q 2263 -78 1759 -78
Q 1097 -78 719 397
Q 266 969 266 2259
z
M 844 2259
Q 844 1131 1108 757
Q 1372 384 1759 384
Q 2147 384 2411 759
Q 2675 1134 2675 2259
Q 2675 3391 2411 3762
Q 2147 4134 1753 4134
Q 1366 4134 1134 3806
Q 844 3388 844 2259
z
" transform="scale(0.015625)"/>
       </defs>
       <use xlink:href="#ArialMT-14" transform="translate(0 0.3875)"/>
       <use xlink:href="#ArialMT-13" transform="translate(55.615234 0.3875)"/>
       <use xlink:href="#ArialMT-13" transform="translate(112.1875 41.6875) scale(0.7)"/>
      </g>
     </g>
    </g>
    <g id="xtick_2">
     <g id="line2d_5">
      <path d="M 91.9216 161.7408
L 91.9216 40.4352
" clip-path="url(#p1cdb1a3ea3)" style="fill: none; stroke: #d5dee3; stroke-width: 0.5; stroke-linecap: square"/>
     </g>
     <g id="line2d_6">
      <g>
       <use xlink:href="#m4e47e02f49" x="91.9216" y="161.7408" style="stroke: #000000; stroke-width: 0.6"/>
      </g>
     </g>
     <g id="text_2">
      <!-- $\mathdefault{10^{1}}$ -->
      <g transform="translate(86.9936 172.1288) scale(0.064 -0.064)">
       <use xlink:href="#ArialMT-14" transform="translate(0 0.3875)"/>
       <use xlink:href="#ArialMT-13" transform="translate(55.615234 0.3875)"/>
       <use xlink:href="#ArialMT-14" transform="translate(112.1875 41.6875) scale(0.7)"/>
      </g>
     </g>
    </g>
    <g id="xtick_3">
     <g id="line2d_7">
      <path d="M 138.512 161.7408
L 138.512 40.4352
" clip-path="url(#p1cdb1a3ea3)" style="fill: none; stroke: #d5dee3; stroke-width: 0.5; stroke-linecap: square"/>
     </g>
     <g id="line2d_8">
      <g>
       <use xlink:href="#m4e47e02f49" x="138.512" y="161.7408" style="stroke: #000000; stroke-width: 0.6"/>
      </g>
     </g>
     <g id="text_3">
      <!-- $\mathdefault{10^{2}}$ -->
      <g transform="translate(133.584 172.1288) scale(0.064 -0.064)">
       <defs>
        <path id="ArialMT-15" d="M 3222 541
L 3222 0
L 194 0
Q 188 203 259 391
Q 375 700 629 1000
Q 884 1300 1366 1694
Q 2113 2306 2375 2664
Q 2638 3022 2638 3341
Q 2638 3675 2398 3904
Q 2159 4134 1775 4134
Q 1369 4134 1125 3890
Q 881 3647 878 3216
L 300 3275
Q 359 3922 746 4261
Q 1134 4600 1788 4600
Q 2447 4600 2831 4234
Q 3216 3869 3216 3328
Q 3216 3053 3103 2787
Q 2991 2522 2730 2228
Q 2469 1934 1863 1422
Q 1356 997 1212 845
Q 1069 694 975 541
L 3222 541
z
" transform="scale(0.015625)"/>
       </defs>
       <use xlink:href="#ArialMT-14" transform="translate(0 0.3875)"/>
       <use xlink:href="#ArialMT-13" transform="translate(55.615234 0.3875)"/>
       <use xlink:href="#ArialMT-15" transform="translate(112.1875 41.6875) scale(0.7)"/>
      </g>
     </g>
    </g>
    <g id="xtick_4">
     <g id="line2d_9">
      <path d="M 185.1024 161.7408
L 185.1024 40.4352
" clip-path="url(#p1cdb1a3ea3)" style="fill: none; stroke: #d5dee3; stroke-width: 0.5; stroke-linecap: square"/>
     </g>
     <g id="line2d_10">
      <g>
       <use xlink:href="#m4e47e02f49" x="185.1024" y="161.7408" style="stroke: #000000; stroke-width: 0.6"/>
      </g>
     </g>
     <g id="text_4">
      <!-- $\mathdefault{10^{3}}$ -->
      <g transform="translate(180.1744 172.1288) scale(0.064 -0.064)">
       <defs>
        <path id="ArialMT-16" d="M 269 1209
L 831 1284
Q 928 806 1161 595
Q 1394 384 1728 384
Q 2125 384 2398 659
Q 2672 934 2672 1341
Q 2672 1728 2419 1979
Q 2166 2231 1775 2231
Q 1616 2231 1378 2169
L 1441 2663
Q 1497 2656 1531 2656
Q 1891 2656 2178 2843
Q 2466 3031 2466 3422
Q 2466 3731 2256 3934
Q 2047 4138 1716 4138
Q 1388 4138 1169 3931
Q 950 3725 888 3313
L 325 3413
Q 428 3978 793 4289
Q 1159 4600 1703 4600
Q 2078 4600 2393 4439
Q 2709 4278 2876 4000
Q 3044 3722 3044 3409
Q 3044 3113 2884 2869
Q 2725 2625 2413 2481
Q 2819 2388 3044 2092
Q 3269 1797 3269 1353
Q 3269 753 2831 336
Q 2394 -81 1725 -81
Q 1122 -81 723 278
Q 325 638 269 1209
z
" transform="scale(0.015625)"/>
       </defs>
       <use xlink:href="#ArialMT-14" transform="translate(0 0.3875)"/>
       <use xlink:href="#ArialMT-13" transform="translate(55.615234 0.3875)"/>
       <use xlink:href="#ArialMT-16" transform="translate(112.1875 41.6875) scale(0.7)"/>
      </g>
     </g>
    </g>
    <g id="xtick_5">
     <g id="line2d_11">
      <path d="M 231.6928 161.7408
L 231.6928 40.4352
" clip-path="url(#p1cdb1a3ea3)" style="fill: none; stroke: #d5dee3; stroke-width: 0.5; stroke-linecap: square"/>
     </g>
     <g id="line2d_12">
      <g>
       <use xlink:href="#m4e47e02f49" x="231.6928" y="161.7408" style="stroke: #000000; stroke-width: 0.6"/>
      </g>
     </g>
     <g id="text_5">
      <!-- $\mathdefault{10^{4}}$ -->
      <g transform="translate(226.7648 172.1288) scale(0.064 -0.064)">
       <defs>
        <path id="ArialMT-17" d="M 2069 0
L 2069 1097
L 81 1097
L 81 1613
L 2172 4581
L 2631 4581
L 2631 1613
L 3250 1613
L 3250 1097
L 2631 1097
L 2631 0
L 2069 0
z
M 2069 1613
L 2069 3678
L 634 1613
L 2069 1613
z
" transform="scale(0.015625)"/>
       </defs>
       <use xlink:href="#ArialMT-14" transform="translate(0 0.595313)"/>
       <use xlink:href="#ArialMT-13" transform="translate(55.615234 0.595313)"/>
       <use xlink:href="#ArialMT-17" transform="translate(112.1875 41.895313) scale(0.7)"/>
      </g>
     </g>
    </g>
    <g id="xtick_6">
     <g id="line2d_13">
      <path d="M 278.2832 161.7408
L 278.2832 40.4352
" clip-path="url(#p1cdb1a3ea3)" style="fill: none; stroke: #d5dee3; stroke-width: 0.5; stroke-linecap: square"/>
     </g>
     <g id="line2d_14">
      <g>
       <use xlink:href="#m4e47e02f49" x="278.2832" y="161.7408" style="stroke: #000000; stroke-width: 0.6"/>
      </g>
     </g>
     <g id="text_6">
      <!-- $\mathdefault{10^{5}}$ -->
      <g transform="translate(273.3552 172.0648) scale(0.064 -0.064)">
       <defs>
        <path id="ArialMT-18" d="M 266 1200
L 856 1250
Q 922 819 1161 601
Q 1400 384 1738 384
Q 2144 384 2425 690
Q 2706 997 2706 1503
Q 2706 1984 2436 2262
Q 2166 2541 1728 2541
Q 1456 2541 1237 2417
Q 1019 2294 894 2097
L 366 2166
L 809 4519
L 3088 4519
L 3088 3981
L 1259 3981
L 1013 2750
Q 1425 3038 1878 3038
Q 2478 3038 2890 2622
Q 3303 2206 3303 1553
Q 3303 931 2941 478
Q 2500 -78 1738 -78
Q 1113 -78 717 272
Q 322 622 266 1200
z
" transform="scale(0.015625)"/>
       </defs>
       <use xlink:href="#ArialMT-14" transform="translate(0 0.273438)"/>
       <use xlink:href="#ArialMT-13" transform="translate(55.615234 0.273438)"/>
       <use xlink:href="#ArialMT-18" transform="translate(112.1875 41.573437) scale(0.7)"/>
      </g>
     </g>
    </g>
    <g id="xtick_7">
     <g id="line2d_15">
      <path d="M 324.8736 161.7408
L 324.8736 40.4352
" clip-path="url(#p1cdb1a3ea3)" style="fill: none; stroke: #d5dee3; stroke-width: 0.5; stroke-linecap: square"/>
     </g>
     <g id="line2d_16">
      <g>
       <use xlink:href="#m4e47e02f49" x="324.8736" y="161.7408" style="stroke: #000000; stroke-width: 0.6"/>
      </g>
     </g>
     <g id="text_7">
      <!-- $\mathdefault{10^{6}}$ -->
      <g transform="translate(319.9456 172.1288) scale(0.064 -0.064)">
       <defs>
        <path id="ArialMT-19" d="M 3184 3459
L 2625 3416
Q 2550 3747 2413 3897
Q 2184 4138 1850 4138
Q 1581 4138 1378 3988
Q 1113 3794 959 3422
Q 806 3050 800 2363
Q 1003 2672 1297 2822
Q 1591 2972 1913 2972
Q 2475 2972 2870 2558
Q 3266 2144 3266 1488
Q 3266 1056 3080 686
Q 2894 316 2569 119
Q 2244 -78 1831 -78
Q 1128 -78 684 439
Q 241 956 241 2144
Q 241 3472 731 4075
Q 1159 4600 1884 4600
Q 2425 4600 2770 4297
Q 3116 3994 3184 3459
z
M 888 1484
Q 888 1194 1011 928
Q 1134 663 1356 523
Q 1578 384 1822 384
Q 2178 384 2434 671
Q 2691 959 2691 1453
Q 2691 1928 2437 2201
Q 2184 2475 1800 2475
Q 1419 2475 1153 2201
Q 888 1928 888 1484
z
" transform="scale(0.015625)"/>
       </defs>
       <use xlink:href="#ArialMT-14" transform="translate(0 0.3875)"/>
       <use xlink:href="#ArialMT-13" transform="translate(55.615234 0.3875)"/>
       <use xlink:href="#ArialMT-19" transform="translate(112.1875 41.6875) scale(0.7)"/>
      </g>
     </g>
    </g>
    <g id="xtick_8">
     <g id="line2d_17">
      <defs>
       <path id="mde58326097" d="M 0 0
L 0 2
" style="stroke: #000000; stroke-width: 0.6"/>
      </defs>
      <g>
       <use xlink:href="#mde58326097" x="59.356308" y="161.7408" style="stroke: #000000; stroke-width: 0.6"/>
      </g>
     </g>
    </g>
    <g id="xtick_9">
     <g id="line2d_18">
      <g>
       <use xlink:href="#mde58326097" x="67.56047" y="161.7408" style="stroke: #000000; stroke-width: 0.6"/>
      </g>
     </g>
    </g>
    <g id="xtick_10">
     <g id="line2d_19">
      <g>
       <use xlink:href="#mde58326097" x="73.381416" y="161.7408" style="stroke: #000000; stroke-width: 0.6"/>
      </g>
     </g>
    </g>
    <g id="xtick_11">
     <g id="line2d_20">
      <g>
       <use xlink:href="#mde58326097" x="77.896492" y="161.7408" style="stroke: #000000; stroke-width: 0.6"/>
      </g>
     </g>
    </g>
    <g id="xtick_12">
     <g id="line2d_21">
      <g>
       <use xlink:href="#mde58326097" x="81.585578" y="161.7408" style="stroke: #000000; stroke-width: 0.6"/>
      </g>
     </g>
    </g>
    <g id="xtick_13">
     <g id="line2d_22">
      <g>
       <use xlink:href="#mde58326097" x="84.704656" y="161.7408" style="stroke: #000000; stroke-width: 0.6"/>
      </g>
     </g>
    </g>
    <g id="xtick_14">
     <g id="line2d_23">
      <g>
       <use xlink:href="#mde58326097" x="87.406524" y="161.7408" style="stroke: #000000; stroke-width: 0.6"/>
      </g>
     </g>
    </g>
    <g id="xtick_15">
     <g id="line2d_24">
      <g>
       <use xlink:href="#mde58326097" x="89.78974" y="161.7408" style="stroke: #000000; stroke-width: 0.6"/>
      </g>
     </g>
    </g>
    <g id="xtick_16">
     <g id="line2d_25">
      <g>
       <use xlink:href="#mde58326097" x="105.946708" y="161.7408" style="stroke: #000000; stroke-width: 0.6"/>
      </g>
     </g>
    </g>
    <g id="xtick_17">
     <g id="line2d_26">
      <g>
       <use xlink:href="#mde58326097" x="114.15087" y="161.7408" style="stroke: #000000; stroke-width: 0.6"/>
      </g>
     </g>
    </g>
    <g id="xtick_18">
     <g id="line2d_27">
      <g>
       <use xlink:href="#mde58326097" x="119.971816" y="161.7408" style="stroke: #000000; stroke-width: 0.6"/>
      </g>
     </g>
    </g>
    <g id="xtick_19">
     <g id="line2d_28">
      <g>
       <use xlink:href="#mde58326097" x="124.486892" y="161.7408" style="stroke: #000000; stroke-width: 0.6"/>
      </g>
     </g>
    </g>
    <g id="xtick_20">
     <g id="line2d_29">
      <g>
       <use xlink:href="#mde58326097" x="128.175978" y="161.7408" style="stroke: #000000; stroke-width: 0.6"/>
      </g>
     </g>
    </g>
    <g id="xtick_21">
     <g id="line2d_30">
      <g>
       <use xlink:href="#mde58326097" x="131.295056" y="161.7408" style="stroke: #000000; stroke-width: 0.6"/>
      </g>
     </g>
    </g>
    <g id="xtick_22">
     <g id="line2d_31">
      <g>
       <use xlink:href="#mde58326097" x="133.996924" y="161.7408" style="stroke: #000000; stroke-width: 0.6"/>
      </g>
     </g>
    </g>
    <g id="xtick_23">
     <g id="line2d_32">
      <g>
       <use xlink:href="#mde58326097" x="136.38014" y="161.7408" style="stroke: #000000; stroke-width: 0.6"/>
      </g>
     </g>
    </g>
    <g id="xtick_24">
     <g id="line2d_33">
      <g>
       <use xlink:href="#mde58326097" x="152.537108" y="161.7408" style="stroke: #000000; stroke-width: 0.6"/>
      </g>
     </g>
    </g>
    <g id="xtick_25">
     <g id="line2d_34">
      <g>
       <use xlink:href="#mde58326097" x="160.74127" y="161.7408" style="stroke: #000000; stroke-width: 0.6"/>
      </g>
     </g>
    </g>
    <g id="xtick_26">
     <g id="line2d_35">
      <g>
       <use xlink:href="#mde58326097" x="166.562216" y="161.7408" style="stroke: #000000; stroke-width: 0.6"/>
      </g>
     </g>
    </g>
    <g id="xtick_27">
     <g id="line2d_36">
      <g>
       <use xlink:href="#mde58326097" x="171.077292" y="161.7408" style="stroke: #000000; stroke-width: 0.6"/>
      </g>
     </g>
    </g>
    <g id="xtick_28">
     <g id="line2d_37">
      <g>
       <use xlink:href="#mde58326097" x="174.766378" y="161.7408" style="stroke: #000000; stroke-width: 0.6"/>
      </g>
     </g>
    </g>
    <g id="xtick_29">
     <g id="line2d_38">
      <g>
       <use xlink:href="#mde58326097" x="177.885456" y="161.7408" style="stroke: #000000; stroke-width: 0.6"/>
      </g>
     </g>
    </g>
    <g id="xtick_30">
     <g id="line2d_39">
      <g>
       <use xlink:href="#mde58326097" x="180.587324" y="161.7408" style="stroke: #000000; stroke-width: 0.6"/>
      </g>
     </g>
    </g>
    <g id="xtick_31">
     <g id="line2d_40">
      <g>
       <use xlink:href="#mde58326097" x="182.97054" y="161.7408" style="stroke: #000000; stroke-width: 0.6"/>
      </g>
     </g>
    </g>
    <g id="xtick_32">
     <g id="line2d_41">
      <g>
       <use xlink:href="#mde58326097" x="199.127508" y="161.7408" style="stroke: #000000; stroke-width: 0.6"/>
      </g>
     </g>
    </g>
    <g id="xtick_33">
     <g id="line2d_42">
      <g>
       <use xlink:href="#mde58326097" x="207.33167" y="161.7408" style="stroke: #000000; stroke-width: 0.6"/>
      </g>
     </g>
    </g>
    <g id="xtick_34">
     <g id="line2d_43">
      <g>
       <use xlink:href="#mde58326097" x="213.152616" y="161.7408" style="stroke: #000000; stroke-width: 0.6"/>
      </g>
     </g>
    </g>
    <g id="xtick_35">
     <g id="line2d_44">
      <g>
       <use xlink:href="#mde58326097" x="217.667692" y="161.7408" style="stroke: #000000; stroke-width: 0.6"/>
      </g>
     </g>
    </g>
    <g id="xtick_36">
     <g id="line2d_45">
      <g>
       <use xlink:href="#mde58326097" x="221.356778" y="161.7408" style="stroke: #000000; stroke-width: 0.6"/>
      </g>
     </g>
    </g>
    <g id="xtick_37">
     <g id="line2d_46">
      <g>
       <use xlink:href="#mde58326097" x="224.475856" y="161.7408" style="stroke: #000000; stroke-width: 0.6"/>
      </g>
     </g>
    </g>
    <g id="xtick_38">
     <g id="line2d_47">
      <g>
       <use xlink:href="#mde58326097" x="227.177724" y="161.7408" style="stroke: #000000; stroke-width: 0.6"/>
      </g>
     </g>
    </g>
    <g id="xtick_39">
     <g id="line2d_48">
      <g>
       <use xlink:href="#mde58326097" x="229.56094" y="161.7408" style="stroke: #000000; stroke-width: 0.6"/>
      </g>
     </g>
    </g>
    <g id="xtick_40">
     <g id="line2d_49">
      <g>
       <use xlink:href="#mde58326097" x="245.717908" y="161.7408" style="stroke: #000000; stroke-width: 0.6"/>
      </g>
     </g>
    </g>
    <g id="xtick_41">
     <g id="line2d_50">
      <g>
       <use xlink:href="#mde58326097" x="253.92207" y="161.7408" style="stroke: #000000; stroke-width: 0.6"/>
      </g>
     </g>
    </g>
    <g id="xtick_42">
     <g id="line2d_51">
      <g>
       <use xlink:href="#mde58326097" x="259.743016" y="161.7408" style="stroke: #000000; stroke-width: 0.6"/>
      </g>
     </g>
    </g>
    <g id="xtick_43">
     <g id="line2d_52">
      <g>
       <use xlink:href="#mde58326097" x="264.258092" y="161.7408" style="stroke: #000000; stroke-width: 0.6"/>
      </g>
     </g>
    </g>
    <g id="xtick_44">
     <g id="line2d_53">
      <g>
       <use xlink:href="#mde58326097" x="267.947178" y="161.7408" style="stroke: #000000; stroke-width: 0.6"/>
      </g>
     </g>
    </g>
    <g id="xtick_45">
     <g id="line2d_54">
      <g>
       <use xlink:href="#mde58326097" x="271.066256" y="161.7408" style="stroke: #000000; stroke-width: 0.6"/>
      </g>
     </g>
    </g>
    <g id="xtick_46">
     <g id="line2d_55">
      <g>
       <use xlink:href="#mde58326097" x="273.768124" y="161.7408" style="stroke: #000000; stroke-width: 0.6"/>
      </g>
     </g>
    </g>
    <g id="xtick_47">
     <g id="line2d_56">
      <g>
       <use xlink:href="#mde58326097" x="276.15134" y="161.7408" style="stroke: #000000; stroke-width: 0.6"/>
      </g>
     </g>
    </g>
    <g id="xtick_48">
     <g id="line2d_57">
      <g>
       <use xlink:href="#mde58326097" x="292.308308" y="161.7408" style="stroke: #000000; stroke-width: 0.6"/>
      </g>
     </g>
    </g>
    <g id="xtick_49">
     <g id="line2d_58">
      <g>
       <use xlink:href="#mde58326097" x="300.51247" y="161.7408" style="stroke: #000000; stroke-width: 0.6"/>
      </g>
     </g>
    </g>
    <g id="xtick_50">
     <g id="line2d_59">
      <g>
       <use xlink:href="#mde58326097" x="306.333416" y="161.7408" style="stroke: #000000; stroke-width: 0.6"/>
      </g>
     </g>
    </g>
    <g id="xtick_51">
     <g id="line2d_60">
      <g>
       <use xlink:href="#mde58326097" x="310.848492" y="161.7408" style="stroke: #000000; stroke-width: 0.6"/>
      </g>
     </g>
    </g>
    <g id="xtick_52">
     <g id="line2d_61">
      <g>
       <use xlink:href="#mde58326097" x="314.537578" y="161.7408" style="stroke: #000000; stroke-width: 0.6"/>
      </g>
     </g>
    </g>
    <g id="xtick_53">
     <g id="line2d_62">
      <g>
       <use xlink:href="#mde58326097" x="317.656656" y="161.7408" style="stroke: #000000; stroke-width: 0.6"/>
      </g>
     </g>
    </g>
    <g id="xtick_54">
     <g id="line2d_63">
      <g>
       <use xlink:href="#mde58326097" x="320.358524" y="161.7408" style="stroke: #000000; stroke-width: 0.6"/>
      </g>
     </g>
    </g>
    <g id="xtick_55">
     <g id="line2d_64">
      <g>
       <use xlink:href="#mde58326097" x="322.74174" y="161.7408" style="stroke: #000000; stroke-width: 0.6"/>
      </g>
     </g>
    </g>
    <g id="text_8">
     <!-- operation granularity  (work amortized per offload) -->
     <g transform="translate(107.746384 182.571866) scale(0.07 -0.07)">
      <defs>
       <path id="ArialMT-52" d="M 213 1659
Q 213 2581 725 3025
Q 1153 3394 1769 3394
Q 2453 3394 2887 2945
Q 3322 2497 3322 1706
Q 3322 1066 3130 698
Q 2938 331 2570 128
Q 2203 -75 1769 -75
Q 1072 -75 642 372
Q 213 819 213 1659
z
M 791 1659
Q 791 1022 1069 705
Q 1347 388 1769 388
Q 2188 388 2466 706
Q 2744 1025 2744 1678
Q 2744 2294 2464 2611
Q 2184 2928 1769 2928
Q 1347 2928 1069 2612
Q 791 2297 791 1659
z
" transform="scale(0.015625)"/>
       <path id="ArialMT-53" d="M 422 -1272
L 422 3319
L 934 3319
L 934 2888
Q 1116 3141 1344 3267
Q 1572 3394 1897 3394
Q 2322 3394 2647 3175
Q 2972 2956 3137 2557
Q 3303 2159 3303 1684
Q 3303 1175 3120 767
Q 2938 359 2589 142
Q 2241 -75 1856 -75
Q 1575 -75 1351 44
Q 1128 163 984 344
L 984 -1272
L 422 -1272
z
M 931 1641
Q 931 1000 1190 694
Q 1450 388 1819 388
Q 2194 388 2461 705
Q 2728 1022 2728 1688
Q 2728 2322 2467 2637
Q 2206 2953 1844 2953
Q 1484 2953 1207 2617
Q 931 2281 931 1641
z
" transform="scale(0.015625)"/>
       <path id="ArialMT-48" d="M 2694 1069
L 3275 997
Q 3138 488 2766 206
Q 2394 -75 1816 -75
Q 1088 -75 661 373
Q 234 822 234 1631
Q 234 2469 665 2931
Q 1097 3394 1784 3394
Q 2450 3394 2872 2941
Q 3294 2488 3294 1666
Q 3294 1616 3291 1516
L 816 1516
Q 847 969 1125 678
Q 1403 388 1819 388
Q 2128 388 2347 550
Q 2566 713 2694 1069
z
M 847 1978
L 2700 1978
Q 2663 2397 2488 2606
Q 2219 2931 1791 2931
Q 1403 2931 1139 2672
Q 875 2413 847 1978
z
" transform="scale(0.015625)"/>
       <path id="ArialMT-55" d="M 416 0
L 416 3319
L 922 3319
L 922 2816
Q 1116 3169 1280 3281
Q 1444 3394 1641 3394
Q 1925 3394 2219 3213
L 2025 2691
Q 1819 2813 1613 2813
Q 1428 2813 1281 2702
Q 1134 2591 1072 2394
Q 978 2094 978 1738
L 978 0
L 416 0
z
" transform="scale(0.015625)"/>
       <path id="ArialMT-44" d="M 2588 409
Q 2275 144 1986 34
Q 1697 -75 1366 -75
Q 819 -75 525 192
Q 231 459 231 875
Q 231 1119 342 1320
Q 453 1522 633 1644
Q 813 1766 1038 1828
Q 1203 1872 1538 1913
Q 2219 1994 2541 2106
Q 2544 2222 2544 2253
Q 2544 2597 2384 2738
Q 2169 2928 1744 2928
Q 1347 2928 1158 2789
Q 969 2650 878 2297
L 328 2372
Q 403 2725 575 2942
Q 747 3159 1072 3276
Q 1397 3394 1825 3394
Q 2250 3394 2515 3294
Q 2781 3194 2906 3042
Q 3031 2891 3081 2659
Q 3109 2516 3109 2141
L 3109 1391
Q 3109 606 3145 398
Q 3181 191 3288 0
L 2700 0
Q 2613 175 2588 409
z
M 2541 1666
Q 2234 1541 1622 1453
Q 1275 1403 1131 1340
Q 988 1278 909 1158
Q 831 1038 831 891
Q 831 666 1001 516
Q 1172 366 1500 366
Q 1825 366 2078 508
Q 2331 650 2450 897
Q 2541 1088 2541 1459
L 2541 1666
z
" transform="scale(0.015625)"/>
       <path id="ArialMT-57" d="M 1650 503
L 1731 6
Q 1494 -44 1306 -44
Q 1000 -44 831 53
Q 663 150 594 308
Q 525 466 525 972
L 525 2881
L 113 2881
L 113 3319
L 525 3319
L 525 4141
L 1084 4478
L 1084 3319
L 1650 3319
L 1650 2881
L 1084 2881
L 1084 941
Q 1084 700 1114 631
Q 1144 563 1211 522
Q 1278 481 1403 481
Q 1497 481 1650 503
z
" transform="scale(0.015625)"/>
       <path id="ArialMT-4c" d="M 425 3934
L 425 4581
L 988 4581
L 988 3934
L 425 3934
z
M 425 0
L 425 3319
L 988 3319
L 988 0
L 425 0
z
" transform="scale(0.015625)"/>
       <path id="ArialMT-51" d="M 422 0
L 422 3319
L 928 3319
L 928 2847
Q 1294 3394 1984 3394
Q 2284 3394 2536 3286
Q 2788 3178 2913 3003
Q 3038 2828 3088 2588
Q 3119 2431 3119 2041
L 3119 0
L 2556 0
L 2556 2019
Q 2556 2363 2490 2533
Q 2425 2703 2258 2804
Q 2091 2906 1866 2906
Q 1506 2906 1245 2678
Q 984 2450 984 1813
L 984 0
L 422 0
z
" transform="scale(0.015625)"/>
       <path id="ArialMT-3" transform="scale(0.015625)"/>
       <path id="ArialMT-4a" d="M 319 -275
L 866 -356
Q 900 -609 1056 -725
Q 1266 -881 1628 -881
Q 2019 -881 2231 -725
Q 2444 -569 2519 -288
Q 2563 -116 2559 434
Q 2191 0 1641 0
Q 956 0 581 494
Q 206 988 206 1678
Q 206 2153 378 2554
Q 550 2956 876 3175
Q 1203 3394 1644 3394
Q 2231 3394 2613 2919
L 2613 3319
L 3131 3319
L 3131 450
Q 3131 -325 2973 -648
Q 2816 -972 2473 -1159
Q 2131 -1347 1631 -1347
Q 1038 -1347 672 -1080
Q 306 -813 319 -275
z
M 784 1719
Q 784 1066 1043 766
Q 1303 466 1694 466
Q 2081 466 2343 764
Q 2606 1063 2606 1700
Q 2606 2309 2336 2618
Q 2066 2928 1684 2928
Q 1309 2928 1046 2623
Q 784 2319 784 1719
z
" transform="scale(0.015625)"/>
       <path id="ArialMT-58" d="M 2597 0
L 2597 488
Q 2209 -75 1544 -75
Q 1250 -75 995 37
Q 741 150 617 320
Q 494 491 444 738
Q 409 903 409 1263
L 409 3319
L 972 3319
L 972 1478
Q 972 1038 1006 884
Q 1059 663 1231 536
Q 1403 409 1656 409
Q 1909 409 2131 539
Q 2353 669 2445 892
Q 2538 1116 2538 1541
L 2538 3319
L 3100 3319
L 3100 0
L 2597 0
z
" transform="scale(0.015625)"/>
       <path id="ArialMT-4f" d="M 409 0
L 409 4581
L 972 4581
L 972 0
L 409 0
z
" transform="scale(0.015625)"/>
       <path id="ArialMT-5c" d="M 397 -1278
L 334 -750
Q 519 -800 656 -800
Q 844 -800 956 -737
Q 1069 -675 1141 -563
Q 1194 -478 1313 -144
Q 1328 -97 1363 -6
L 103 3319
L 709 3319
L 1400 1397
Q 1534 1031 1641 628
Q 1738 1016 1872 1384
L 2581 3319
L 3144 3319
L 1881 -56
Q 1678 -603 1566 -809
Q 1416 -1088 1222 -1217
Q 1028 -1347 759 -1347
Q 597 -1347 397 -1278
z
" transform="scale(0.015625)"/>
       <path id="ArialMT-b" d="M 1497 -1347
Q 1031 -759 709 28
Q 388 816 388 1659
Q 388 2403 628 3084
Q 909 3875 1497 4659
L 1900 4659
Q 1522 4009 1400 3731
Q 1209 3300 1100 2831
Q 966 2247 966 1656
Q 966 153 1900 -1347
L 1497 -1347
z
" transform="scale(0.015625)"/>
       <path id="ArialMT-5a" d="M 1034 0
L 19 3319
L 600 3319
L 1128 1403
L 1325 691
Q 1338 744 1497 1375
L 2025 3319
L 2603 3319
L 3100 1394
L 3266 759
L 3456 1400
L 4025 3319
L 4572 3319
L 3534 0
L 2950 0
L 2422 1988
L 2294 2553
L 1622 0
L 1034 0
z
" transform="scale(0.015625)"/>
       <path id="ArialMT-4e" d="M 425 0
L 425 4581
L 988 4581
L 988 1969
L 2319 3319
L 3047 3319
L 1778 2088
L 3175 0
L 2481 0
L 1384 1697
L 988 1316
L 988 0
L 425 0
z
" transform="scale(0.015625)"/>
       <path id="ArialMT-50" d="M 422 0
L 422 3319
L 925 3319
L 925 2853
Q 1081 3097 1340 3245
Q 1600 3394 1931 3394
Q 2300 3394 2536 3241
Q 2772 3088 2869 2813
Q 3263 3394 3894 3394
Q 4388 3394 4653 3120
Q 4919 2847 4919 2278
L 4919 0
L 4359 0
L 4359 2091
Q 4359 2428 4304 2576
Q 4250 2725 4106 2815
Q 3963 2906 3769 2906
Q 3419 2906 3187 2673
Q 2956 2441 2956 1928
L 2956 0
L 2394 0
L 2394 2156
Q 2394 2531 2256 2718
Q 2119 2906 1806 2906
Q 1569 2906 1367 2781
Q 1166 2656 1075 2415
Q 984 2175 984 1722
L 984 0
L 422 0
z
" transform="scale(0.015625)"/>
       <path id="ArialMT-5d" d="M 125 0
L 125 456
L 2238 2881
Q 1878 2863 1603 2863
L 250 2863
L 250 3319
L 2963 3319
L 2963 2947
L 1166 841
L 819 456
Q 1197 484 1528 484
L 3063 484
L 3063 0
L 125 0
z
" transform="scale(0.015625)"/>
       <path id="ArialMT-47" d="M 2575 0
L 2575 419
Q 2259 -75 1647 -75
Q 1250 -75 917 144
Q 584 363 401 755
Q 219 1147 219 1656
Q 219 2153 384 2558
Q 550 2963 881 3178
Q 1213 3394 1622 3394
Q 1922 3394 2156 3267
Q 2391 3141 2538 2938
L 2538 4581
L 3097 4581
L 3097 0
L 2575 0
z
M 797 1656
Q 797 1019 1065 703
Q 1334 388 1700 388
Q 2069 388 2326 689
Q 2584 991 2584 1609
Q 2584 2291 2321 2609
Q 2059 2928 1675 2928
Q 1300 2928 1048 2622
Q 797 2316 797 1656
z
" transform="scale(0.015625)"/>
       <path id="ArialMT-49" d="M 556 0
L 556 2881
L 59 2881
L 59 3319
L 556 3319
L 556 3672
Q 556 4006 616 4169
Q 697 4388 901 4523
Q 1106 4659 1475 4659
Q 1713 4659 2000 4603
L 1916 4113
Q 1741 4144 1584 4144
Q 1328 4144 1222 4034
Q 1116 3925 1116 3625
L 1116 3319
L 1763 3319
L 1763 2881
L 1116 2881
L 1116 0
L 556 0
z
" transform="scale(0.015625)"/>
       <path id="ArialMT-c" d="M 791 -1347
L 388 -1347
Q 1322 153 1322 1656
Q 1322 2244 1188 2822
Q 1081 3291 891 3722
Q 769 4003 388 4659
L 791 4659
Q 1378 3875 1659 3084
Q 1900 2403 1900 1659
Q 1900 816 1576 28
Q 1253 -759 791 -1347
z
" transform="scale(0.015625)"/>
      </defs>
      <use xlink:href="#ArialMT-52"/>
      <use xlink:href="#ArialMT-53" transform="translate(55.609375 0)"/>
      <use xlink:href="#ArialMT-48" transform="translate(111.21875 0)"/>
      <use xlink:href="#ArialMT-55" transform="translate(166.828125 0)"/>
      <use xlink:href="#ArialMT-44" transform="translate(200.125 0)"/>
      <use xlink:href="#ArialMT-57" transform="translate(255.734375 0)"/>
      <use xlink:href="#ArialMT-4c" transform="translate(283.515625 0)"/>
      <use xlink:href="#ArialMT-52" transform="translate(305.734375 0)"/>
      <use xlink:href="#ArialMT-51" transform="translate(361.34375 0)"/>
      <use xlink:href="#ArialMT-3" transform="translate(416.953125 0)"/>
      <use xlink:href="#ArialMT-4a" transform="translate(444.734375 0)"/>
      <use xlink:href="#ArialMT-55" transform="translate(500.34375 0)"/>
      <use xlink:href="#ArialMT-44" transform="translate(533.640625 0)"/>
      <use xlink:href="#ArialMT-51" transform="translate(589.25 0)"/>
      <use xlink:href="#ArialMT-58" transform="translate(644.859375 0)"/>
      <use xlink:href="#ArialMT-4f" transform="translate(700.46875 0)"/>
      <use xlink:href="#ArialMT-44" transform="translate(722.6875 0)"/>
      <use xlink:href="#ArialMT-55" transform="translate(778.296875 0)"/>
      <use xlink:href="#ArialMT-4c" transform="translate(811.59375 0)"/>
      <use xlink:href="#ArialMT-57" transform="translate(833.8125 0)"/>
      <use xlink:href="#ArialMT-5c" transform="translate(861.59375 0)"/>
      <use xlink:href="#ArialMT-3" transform="translate(911.59375 0)"/>
      <use xlink:href="#ArialMT-3" transform="translate(939.375 0)"/>
      <use xlink:href="#ArialMT-b" transform="translate(967.15625 0)"/>
      <use xlink:href="#ArialMT-5a" transform="translate(1000.453125 0)"/>
      <use xlink:href="#ArialMT-52" transform="translate(1072.671875 0)"/>
      <use xlink:href="#ArialMT-55" transform="translate(1128.28125 0)"/>
      <use xlink:href="#ArialMT-4e" transform="translate(1161.578125 0)"/>
      <use xlink:href="#ArialMT-3" transform="translate(1211.578125 0)"/>
      <use xlink:href="#ArialMT-44" transform="translate(1239.359375 0)"/>
      <use xlink:href="#ArialMT-50" transform="translate(1294.96875 0)"/>
      <use xlink:href="#ArialMT-52" transform="translate(1378.265625 0)"/>
      <use xlink:href="#ArialMT-55" transform="translate(1433.875 0)"/>
      <use xlink:href="#ArialMT-57" transform="translate(1467.171875 0)"/>
      <use xlink:href="#ArialMT-4c" transform="translate(1494.953125 0)"/>
      <use xlink:href="#ArialMT-5d" transform="translate(1517.171875 0)"/>
      <use xlink:href="#ArialMT-48" transform="translate(1567.171875 0)"/>
      <use xlink:href="#ArialMT-47" transform="translate(1622.78125 0)"/>
      <use xlink:href="#ArialMT-3" transform="translate(1678.390625 0)"/>
      <use xlink:href="#ArialMT-53" transform="translate(1706.171875 0)"/>
      <use xlink:href="#ArialMT-48" transform="translate(1761.78125 0)"/>
      <use xlink:href="#ArialMT-55" transform="translate(1817.390625 0)"/>
      <use xlink:href="#ArialMT-3" transform="translate(1850.6875 0)"/>
      <use xlink:href="#ArialMT-52" transform="translate(1878.46875 0)"/>
      <use xlink:href="#ArialMT-49" transform="translate(1934.078125 0)"/>
      <use xlink:href="#ArialMT-49" transform="translate(1960.046875 0)"/>
      <use xlink:href="#ArialMT-4f" transform="translate(1987.828125 0)"/>
      <use xlink:href="#ArialMT-52" transform="translate(2010.046875 0)"/>
      <use xlink:href="#ArialMT-44" transform="translate(2065.65625 0)"/>
      <use xlink:href="#ArialMT-47" transform="translate(2121.265625 0)"/>
      <use xlink:href="#ArialMT-c" transform="translate(2176.875 0)"/>
     </g>
    </g>
   </g>
   <g id="matplotlib.axis_2">
    <g id="ytick_1">
     <g id="line2d_65">
      <path d="M 45.3312 158.283419
L 324.8736 158.283419
" clip-path="url(#p1cdb1a3ea3)" style="fill: none; stroke: #d5dee3; stroke-width: 0.5; stroke-linecap: square"/>
     </g>
     <g id="line2d_66">
      <defs>
       <path id="m70727619d2" d="M 0 0
L -2.5 0
" style="stroke: #000000; stroke-width: 0.6"/>
      </defs>
      <g>
       <use xlink:href="#m70727619d2" x="45.3312" y="158.283419" style="stroke: #000000; stroke-width: 0.6"/>
      </g>
     </g>
     <g id="text_9">
      <!-- 0.3$\times$ -->
      <g transform="translate(26.5592 160.613106) scale(0.064 -0.064)">
       <defs>
        <path id="ArialMT-11" d="M 581 0
L 581 641
L 1222 641
L 1222 0
L 581 0
z
" transform="scale(0.015625)"/>
        <path id="DejaVuSans-99" d="M 4488 3438
L 3059 2003
L 4488 575
L 4116 197
L 2681 1631
L 1247 197
L 878 575
L 2303 2003
L 878 3438
L 1247 3816
L 2681 2381
L 4116 3816
L 4488 3438
z
" transform="scale(0.015625)"/>
       </defs>
       <use xlink:href="#ArialMT-13" transform="translate(0 0.125)"/>
       <use xlink:href="#ArialMT-11" transform="translate(55.615234 0.125)"/>
       <use xlink:href="#ArialMT-16" transform="translate(83.398438 0.125)"/>
       <use xlink:href="#DejaVuSans-99" transform="translate(139.013672 0.125)"/>
      </g>
     </g>
    </g>
    <g id="ytick_2">
     <g id="line2d_67">
      <path d="M 45.3312 135.452365
L 324.8736 135.452365
" clip-path="url(#p1cdb1a3ea3)" style="fill: none; stroke: #d5dee3; stroke-width: 0.5; stroke-linecap: square"/>
     </g>
     <g id="line2d_68">
      <g>
       <use xlink:href="#m70727619d2" x="45.3312" y="135.452365" style="stroke: #000000; stroke-width: 0.6"/>
      </g>
     </g>
     <g id="text_10">
      <!-- 1$\times$ -->
      <g transform="translate(31.8712 137.782053) scale(0.064 -0.064)">
       <use xlink:href="#ArialMT-14" transform="translate(0 0.125)"/>
       <use xlink:href="#DejaVuSans-99" transform="translate(55.615234 0.125)"/>
      </g>
     </g>
    </g>
    <g id="ytick_3">
     <g id="line2d_69">
      <path d="M 45.3312 114.619273
L 324.8736 114.619273
" clip-path="url(#p1cdb1a3ea3)" style="fill: none; stroke: #d5dee3; stroke-width: 0.5; stroke-linecap: square"/>
     </g>
     <g id="line2d_70">
      <g>
       <use xlink:href="#m70727619d2" x="45.3312" y="114.619273" style="stroke: #000000; stroke-width: 0.6"/>
      </g>
     </g>
     <g id="text_11">
      <!-- 3$\times$ -->
      <g transform="translate(31.8712 116.948961) scale(0.064 -0.064)">
       <use xlink:href="#ArialMT-16" transform="translate(0 0.125)"/>
       <use xlink:href="#DejaVuSans-99" transform="translate(55.615234 0.125)"/>
      </g>
     </g>
    </g>
    <g id="ytick_4">
     <g id="line2d_71">
      <path d="M 45.3312 91.78822
L 324.8736 91.78822
" clip-path="url(#p1cdb1a3ea3)" style="fill: none; stroke: #d5dee3; stroke-width: 0.5; stroke-linecap: square"/>
     </g>
     <g id="line2d_72">
      <g>
       <use xlink:href="#m70727619d2" x="45.3312" y="91.78822" style="stroke: #000000; stroke-width: 0.6"/>
      </g>
     </g>
     <g id="text_12">
      <!-- 10$\times$ -->
      <g transform="translate(28.2872 94.117907) scale(0.064 -0.064)">
       <use xlink:href="#ArialMT-14" transform="translate(0 0.125)"/>
       <use xlink:href="#ArialMT-13" transform="translate(55.615234 0.125)"/>
       <use xlink:href="#DejaVuSans-99" transform="translate(111.230469 0.125)"/>
      </g>
     </g>
    </g>
    <g id="ytick_5">
     <g id="line2d_73">
      <path d="M 45.3312 70.955128
L 324.8736 70.955128
" clip-path="url(#p1cdb1a3ea3)" style="fill: none; stroke: #d5dee3; stroke-width: 0.5; stroke-linecap: square"/>
     </g>
     <g id="line2d_74">
      <g>
       <use xlink:href="#m70727619d2" x="45.3312" y="70.955128" style="stroke: #000000; stroke-width: 0.6"/>
      </g>
     </g>
     <g id="text_13">
      <!-- 30$\times$ -->
      <g transform="translate(28.2872 73.284815) scale(0.064 -0.064)">
       <use xlink:href="#ArialMT-16" transform="translate(0 0.125)"/>
       <use xlink:href="#ArialMT-13" transform="translate(55.615234 0.125)"/>
       <use xlink:href="#DejaVuSans-99" transform="translate(111.230469 0.125)"/>
      </g>
     </g>
    </g>
    <g id="ytick_6">
     <g id="line2d_75">
      <path d="M 45.3312 48.124074
L 324.8736 48.124074
" clip-path="url(#p1cdb1a3ea3)" style="fill: none; stroke: #d5dee3; stroke-width: 0.5; stroke-linecap: square"/>
     </g>
     <g id="line2d_76">
      <g>
       <use xlink:href="#m70727619d2" x="45.3312" y="48.124074" style="stroke: #000000; stroke-width: 0.6"/>
      </g>
     </g>
     <g id="text_14">
      <!-- 100$\times$ -->
      <g transform="translate(24.7672 50.453762) scale(0.064 -0.064)">
       <use xlink:href="#ArialMT-14" transform="translate(0 0.125)"/>
       <use xlink:href="#ArialMT-13" transform="translate(55.615234 0.125)"/>
       <use xlink:href="#ArialMT-13" transform="translate(111.230469 0.125)"/>
       <use xlink:href="#DejaVuSans-99" transform="translate(166.845703 0.125)"/>
      </g>
     </g>
    </g>
    <g id="ytick_7">
     <g id="line2d_77">
      <defs>
       <path id="m462c22171d" d="M 0 0
L -2 0
" style="stroke: #000000; stroke-width: 0.6"/>
      </defs>
      <g>
       <use xlink:href="#m462c22171d" x="45.3312" y="152.828075" style="stroke: #000000; stroke-width: 0.6"/>
      </g>
     </g>
    </g>
    <g id="ytick_8">
     <g id="line2d_78">
      <g>
       <use xlink:href="#m462c22171d" x="45.3312" y="148.596583" style="stroke: #000000; stroke-width: 0.6"/>
      </g>
     </g>
    </g>
    <g id="ytick_9">
     <g id="line2d_79">
      <g>
       <use xlink:href="#m462c22171d" x="45.3312" y="145.139201" style="stroke: #000000; stroke-width: 0.6"/>
      </g>
     </g>
    </g>
    <g id="ytick_10">
     <g id="line2d_80">
      <g>
       <use xlink:href="#m462c22171d" x="45.3312" y="142.216027" style="stroke: #000000; stroke-width: 0.6"/>
      </g>
     </g>
    </g>
    <g id="ytick_11">
     <g id="line2d_81">
      <g>
       <use xlink:href="#m462c22171d" x="45.3312" y="139.683858" style="stroke: #000000; stroke-width: 0.6"/>
      </g>
     </g>
    </g>
    <g id="ytick_12">
     <g id="line2d_82">
      <g>
       <use xlink:href="#m462c22171d" x="45.3312" y="137.450327" style="stroke: #000000; stroke-width: 0.6"/>
      </g>
     </g>
    </g>
    <g id="ytick_13">
     <g id="line2d_83">
      <g>
       <use xlink:href="#m462c22171d" x="45.3312" y="122.308148" style="stroke: #000000; stroke-width: 0.6"/>
      </g>
     </g>
    </g>
    <g id="ytick_14">
     <g id="line2d_84">
      <g>
       <use xlink:href="#m462c22171d" x="45.3312" y="109.16393" style="stroke: #000000; stroke-width: 0.6"/>
      </g>
     </g>
    </g>
    <g id="ytick_15">
     <g id="line2d_85">
      <g>
       <use xlink:href="#m462c22171d" x="45.3312" y="104.932437" style="stroke: #000000; stroke-width: 0.6"/>
      </g>
     </g>
    </g>
    <g id="ytick_16">
     <g id="line2d_86">
      <g>
       <use xlink:href="#m462c22171d" x="45.3312" y="101.475056" style="stroke: #000000; stroke-width: 0.6"/>
      </g>
     </g>
    </g>
    <g id="ytick_17">
     <g id="line2d_87">
      <g>
       <use xlink:href="#m462c22171d" x="45.3312" y="98.551881" style="stroke: #000000; stroke-width: 0.6"/>
      </g>
     </g>
    </g>
    <g id="ytick_18">
     <g id="line2d_88">
      <g>
       <use xlink:href="#m462c22171d" x="45.3312" y="96.019713" style="stroke: #000000; stroke-width: 0.6"/>
      </g>
     </g>
    </g>
    <g id="ytick_19">
     <g id="line2d_89">
      <g>
       <use xlink:href="#m462c22171d" x="45.3312" y="93.786181" style="stroke: #000000; stroke-width: 0.6"/>
      </g>
     </g>
    </g>
    <g id="ytick_20">
     <g id="line2d_90">
      <g>
       <use xlink:href="#m462c22171d" x="45.3312" y="78.644002" style="stroke: #000000; stroke-width: 0.6"/>
      </g>
     </g>
    </g>
    <g id="ytick_21">
     <g id="line2d_91">
      <g>
       <use xlink:href="#m462c22171d" x="45.3312" y="65.499785" style="stroke: #000000; stroke-width: 0.6"/>
      </g>
     </g>
    </g>
    <g id="ytick_22">
     <g id="line2d_92">
      <g>
       <use xlink:href="#m462c22171d" x="45.3312" y="61.268292" style="stroke: #000000; stroke-width: 0.6"/>
      </g>
     </g>
    </g>
    <g id="ytick_23">
     <g id="line2d_93">
      <g>
       <use xlink:href="#m462c22171d" x="45.3312" y="57.81091" style="stroke: #000000; stroke-width: 0.6"/>
      </g>
     </g>
    </g>
    <g id="ytick_24">
     <g id="line2d_94">
      <g>
       <use xlink:href="#m462c22171d" x="45.3312" y="54.887736" style="stroke: #000000; stroke-width: 0.6"/>
      </g>
     </g>
    </g>
    <g id="ytick_25">
     <g id="line2d_95">
      <g>
       <use xlink:href="#m462c22171d" x="45.3312" y="52.355567" style="stroke: #000000; stroke-width: 0.6"/>
      </g>
     </g>
    </g>
    <g id="ytick_26">
     <g id="line2d_96">
      <g>
       <use xlink:href="#m462c22171d" x="45.3312" y="50.122036" style="stroke: #000000; stroke-width: 0.6"/>
      </g>
     </g>
    </g>
    <g id="text_15">
     <!-- end-to-end speedup -->
     <g transform="translate(19.294055 132.415734) rotate(-90) scale(0.07 -0.07)">
      <defs>
       <path id="ArialMT-10" d="M 203 1375
L 203 1941
L 1931 1941
L 1931 1375
L 203 1375
z
" transform="scale(0.015625)"/>
       <path id="ArialMT-56" d="M 197 991
L 753 1078
Q 800 744 1014 566
Q 1228 388 1613 388
Q 2000 388 2187 545
Q 2375 703 2375 916
Q 2375 1106 2209 1216
Q 2094 1291 1634 1406
Q 1016 1563 777 1677
Q 538 1791 414 1992
Q 291 2194 291 2438
Q 291 2659 392 2848
Q 494 3038 669 3163
Q 800 3259 1026 3326
Q 1253 3394 1513 3394
Q 1903 3394 2198 3281
Q 2494 3169 2634 2976
Q 2775 2784 2828 2463
L 2278 2388
Q 2241 2644 2061 2787
Q 1881 2931 1553 2931
Q 1166 2931 1000 2803
Q 834 2675 834 2503
Q 834 2394 903 2306
Q 972 2216 1119 2156
Q 1203 2125 1616 2013
Q 2213 1853 2448 1751
Q 2684 1650 2818 1456
Q 2953 1263 2953 975
Q 2953 694 2789 445
Q 2625 197 2315 61
Q 2006 -75 1616 -75
Q 969 -75 630 194
Q 291 463 197 991
z
" transform="scale(0.015625)"/>
      </defs>
      <use xlink:href="#ArialMT-48"/>
      <use xlink:href="#ArialMT-51" transform="translate(55.609375 0)"/>
      <use xlink:href="#ArialMT-47" transform="translate(111.21875 0)"/>
      <use xlink:href="#ArialMT-10" transform="translate(166.828125 0)"/>
      <use xlink:href="#ArialMT-57" transform="translate(200.125 0)"/>
      <use xlink:href="#ArialMT-52" transform="translate(227.90625 0)"/>
      <use xlink:href="#ArialMT-10" transform="translate(283.515625 0)"/>
      <use xlink:href="#ArialMT-48" transform="translate(316.8125 0)"/>
      <use xlink:href="#ArialMT-51" transform="translate(372.421875 0)"/>
      <use xlink:href="#ArialMT-47" transform="translate(428.03125 0)"/>
      <use xlink:href="#ArialMT-3" transform="translate(483.640625 0)"/>
      <use xlink:href="#ArialMT-56" transform="translate(511.421875 0)"/>
      <use xlink:href="#ArialMT-53" transform="translate(561.421875 0)"/>
      <use xlink:href="#ArialMT-48" transform="translate(617.03125 0)"/>
      <use xlink:href="#ArialMT-48" transform="translate(672.640625 0)"/>
      <use xlink:href="#ArialMT-47" transform="translate(728.25 0)"/>
      <use xlink:href="#ArialMT-58" transform="translate(783.859375 0)"/>
      <use xlink:href="#ArialMT-53" transform="translate(839.46875 0)"/>
     </g>
    </g>
   </g>
   <g id="patch_5">
    <path d="M 45.3312 161.7408
L 45.3312 40.4352
" style="fill: none; stroke: #20252b; stroke-width: 0.7; stroke-linejoin: miter; stroke-linecap: square"/>
   </g>
   <g id="patch_6">
    <path d="M 45.3312 161.7408
L 324.8736 161.7408
" style="fill: none; stroke: #20252b; stroke-width: 0.7; stroke-linejoin: miter; stroke-linecap: square"/>
   </g>
   <g id="text_16">
    <!-- peak acceleration A -->
    <g style="fill: #20252b" transform="translate(51.403502 45.359869) scale(0.062 -0.062)">
     <defs>
      <path id="ArialMT-46" d="M 2588 1216
L 3141 1144
Q 3050 572 2676 248
Q 2303 -75 1759 -75
Q 1078 -75 664 370
Q 250 816 250 1647
Q 250 2184 428 2587
Q 606 2991 970 3192
Q 1334 3394 1763 3394
Q 2303 3394 2647 3120
Q 2991 2847 3088 2344
L 2541 2259
Q 2463 2594 2264 2762
Q 2066 2931 1784 2931
Q 1359 2931 1093 2626
Q 828 2322 828 1663
Q 828 994 1084 691
Q 1341 388 1753 388
Q 2084 388 2306 591
Q 2528 794 2588 1216
z
" transform="scale(0.015625)"/>
      <path id="ArialMT-24" d="M -9 0
L 1750 4581
L 2403 4581
L 4278 0
L 3588 0
L 3053 1388
L 1138 1388
L 634 0
L -9 0
z
M 1313 1881
L 2866 1881
L 2388 3150
Q 2169 3728 2063 4100
Q 1975 3659 1816 3225
L 1313 1881
z
" transform="scale(0.015625)"/>
     </defs>
     <use xlink:href="#ArialMT-53"/>
     <use xlink:href="#ArialMT-48" transform="translate(55.609375 0)"/>
     <use xlink:href="#ArialMT-44" transform="translate(111.21875 0)"/>
     <use xlink:href="#ArialMT-4e" transform="translate(166.828125 0)"/>
     <use xlink:href="#ArialMT-3" transform="translate(216.828125 0)"/>
     <use xlink:href="#ArialMT-44" transform="translate(244.609375 0)"/>
     <use xlink:href="#ArialMT-46" transform="translate(300.21875 0)"/>
     <use xlink:href="#ArialMT-46" transform="translate(350.21875 0)"/>
     <use xlink:href="#ArialMT-48" transform="translate(400.21875 0)"/>
     <use xlink:href="#ArialMT-4f" transform="translate(455.828125 0)"/>
     <use xlink:href="#ArialMT-48" transform="translate(478.046875 0)"/>
     <use xlink:href="#ArialMT-55" transform="translate(533.65625 0)"/>
     <use xlink:href="#ArialMT-44" transform="translate(566.953125 0)"/>
     <use xlink:href="#ArialMT-57" transform="translate(622.5625 0)"/>
     <use xlink:href="#ArialMT-4c" transform="translate(650.34375 0)"/>
     <use xlink:href="#ArialMT-52" transform="translate(672.5625 0)"/>
     <use xlink:href="#ArialMT-51" transform="translate(728.171875 0)"/>
     <use xlink:href="#ArialMT-3" transform="translate(783.78125 0)"/>
     <use xlink:href="#ArialMT-24" transform="translate(806.046875 0)"/>
    </g>
   </g>
   <g id="text_17">
    <!-- break-even -->
    <g style="fill: #3e474b" transform="translate(289.037654 132.382293) scale(0.06 -0.06)">
     <defs>
      <path id="ArialMT-45" d="M 941 0
L 419 0
L 419 4581
L 981 4581
L 981 2947
Q 1338 3394 1891 3394
Q 2197 3394 2470 3270
Q 2744 3147 2920 2923
Q 3097 2700 3197 2384
Q 3297 2069 3297 1709
Q 3297 856 2875 390
Q 2453 -75 1863 -75
Q 1275 -75 941 416
L 941 0
z
M 934 1684
Q 934 1088 1097 822
Q 1363 388 1816 388
Q 2184 388 2453 708
Q 2722 1028 2722 1663
Q 2722 2313 2464 2622
Q 2206 2931 1841 2931
Q 1472 2931 1203 2611
Q 934 2291 934 1684
z
" transform="scale(0.015625)"/>
      <path id="ArialMT-59" d="M 1344 0
L 81 3319
L 675 3319
L 1388 1331
Q 1503 1009 1600 663
Q 1675 925 1809 1294
L 2547 3319
L 3125 3319
L 1869 0
L 1344 0
z
" transform="scale(0.015625)"/>
     </defs>
     <use xlink:href="#ArialMT-45"/>
     <use xlink:href="#ArialMT-55" transform="translate(55.609375 0)"/>
     <use xlink:href="#ArialMT-48" transform="translate(88.90625 0)"/>
     <use xlink:href="#ArialMT-44" transform="translate(144.515625 0)"/>
     <use xlink:href="#ArialMT-4e" transform="translate(200.125 0)"/>
     <use xlink:href="#ArialMT-10" transform="translate(250.125 0)"/>
     <use xlink:href="#ArialMT-48" transform="translate(283.421875 0)"/>
     <use xlink:href="#ArialMT-59" transform="translate(339.03125 0)"/>
     <use xlink:href="#ArialMT-48" transform="translate(389.03125 0)"/>
     <use xlink:href="#ArialMT-51" transform="translate(444.640625 0)"/>
    </g>
   </g>
   <g id="text_18">
    <!-- offload loses -->
    <g style="fill: #de3d3c" transform="translate(53.535362 155.362279) scale(0.06 -0.06)">
     <defs>
      <path id="Arial-ItalicMT-52" d="M 313 1259
Q 313 2231 884 2869
Q 1356 3394 2122 3394
Q 2722 3394 3089 3019
Q 3456 2644 3456 2006
Q 3456 1434 3225 942
Q 2994 450 2567 187
Q 2141 -75 1669 -75
Q 1281 -75 964 90
Q 647 256 480 559
Q 313 863 313 1259
z
M 878 1316
Q 878 847 1103 605
Q 1328 363 1675 363
Q 1856 363 2034 436
Q 2213 509 2366 659
Q 2519 809 2626 1001
Q 2734 1194 2800 1416
Q 2897 1725 2897 2009
Q 2897 2459 2670 2707
Q 2444 2956 2100 2956
Q 1834 2956 1615 2829
Q 1397 2703 1220 2459
Q 1044 2216 961 1892
Q 878 1569 878 1316
z
" transform="scale(0.015625)"/>
      <path id="Arial-ItalicMT-49" d="M 291 0
L 894 2881
L 388 2881
L 478 3319
L 984 3319
L 1081 3791
Q 1156 4144 1236 4300
Q 1316 4456 1495 4557
Q 1675 4659 1984 4659
Q 2200 4659 2609 4569
L 2506 4075
Q 2219 4150 2025 4150
Q 1859 4150 1773 4067
Q 1688 3984 1625 3675
L 1550 3319
L 2181 3319
L 2091 2881
L 1459 2881
L 856 0
L 291 0
z
" transform="scale(0.015625)"/>
      <path id="Arial-ItalicMT-4f" d="M 169 0
L 1125 4581
L 1691 4581
L 734 0
L 169 0
z
" transform="scale(0.015625)"/>
      <path id="Arial-ItalicMT-44" d="M 2450 413
Q 2156 159 1884 42
Q 1613 -75 1303 -75
Q 844 -75 562 195
Q 281 466 281 888
Q 281 1166 407 1380
Q 534 1594 743 1723
Q 953 1853 1256 1909
Q 1447 1947 1980 1969
Q 2513 1991 2744 2081
Q 2809 2313 2809 2466
Q 2809 2663 2666 2775
Q 2469 2931 2091 2931
Q 1734 2931 1507 2773
Q 1281 2616 1178 2325
L 606 2375
Q 781 2869 1161 3131
Q 1541 3394 2119 3394
Q 2734 3394 3094 3100
Q 3369 2881 3369 2531
Q 3369 2266 3291 1916
L 3106 1091
Q 3019 697 3019 450
Q 3019 294 3088 0
L 2516 0
Q 2469 163 2450 413
z
M 2659 1681
Q 2541 1634 2405 1609
Q 2269 1584 1950 1556
Q 1456 1513 1253 1445
Q 1050 1378 947 1231
Q 844 1084 844 906
Q 844 669 1008 516
Q 1172 363 1475 363
Q 1756 363 2015 511
Q 2275 659 2425 925
Q 2575 1191 2659 1681
z
" transform="scale(0.015625)"/>
      <path id="Arial-ItalicMT-47" d="M 2450 481
Q 1966 -75 1438 -75
Q 966 -75 652 273
Q 338 622 338 1284
Q 338 1891 586 2392
Q 834 2894 1207 3144
Q 1581 3394 1956 3394
Q 2575 3394 2891 2797
L 3266 4581
L 3828 4581
L 2872 0
L 2350 0
L 2450 481
z
M 900 1391
Q 900 1044 969 844
Q 1038 644 1203 511
Q 1369 378 1600 378
Q 1984 378 2297 778
Q 2716 1309 2716 2091
Q 2716 2484 2509 2706
Q 2303 2928 1991 2928
Q 1788 2928 1620 2837
Q 1453 2747 1289 2530
Q 1125 2313 1012 1978
Q 900 1644 900 1391
z
" transform="scale(0.015625)"/>
      <path id="Arial-ItalicMT-3" transform="scale(0.015625)"/>
      <path id="Arial-ItalicMT-56" d="M 266 1134
L 831 1169
Q 831 925 906 753
Q 981 581 1182 472
Q 1384 363 1653 363
Q 2028 363 2215 513
Q 2403 663 2403 866
Q 2403 1013 2291 1144
Q 2175 1275 1726 1467
Q 1278 1659 1153 1738
Q 944 1866 837 2039
Q 731 2213 731 2438
Q 731 2831 1043 3112
Q 1356 3394 1919 3394
Q 2544 3394 2870 3105
Q 3197 2816 3209 2344
L 2656 2306
Q 2644 2606 2444 2781
Q 2244 2956 1878 2956
Q 1584 2956 1421 2822
Q 1259 2688 1259 2531
Q 1259 2375 1400 2256
Q 1494 2175 1884 2006
Q 2534 1725 2703 1563
Q 2972 1303 2972 931
Q 2972 684 2820 446
Q 2669 209 2358 67
Q 2047 -75 1625 -75
Q 1050 -75 647 209
Q 244 494 266 1134
z
" transform="scale(0.015625)"/>
      <path id="Arial-ItalicMT-48" d="M 2650 1128
L 3200 1072
Q 3081 663 2654 294
Q 2228 -75 1638 -75
Q 1269 -75 961 95
Q 653 266 492 591
Q 331 916 331 1331
Q 331 1875 582 2386
Q 834 2897 1234 3145
Q 1634 3394 2100 3394
Q 2694 3394 3048 3025
Q 3403 2656 3403 2019
Q 3403 1775 3359 1519
L 916 1519
Q 903 1422 903 1344
Q 903 878 1117 633
Q 1331 388 1641 388
Q 1931 388 2212 578
Q 2494 769 2650 1128
z
M 1006 1950
L 2869 1950
Q 2872 2038 2872 2075
Q 2872 2500 2659 2726
Q 2447 2953 2113 2953
Q 1750 2953 1451 2703
Q 1153 2453 1006 1950
z
" transform="scale(0.015625)"/>
     </defs>
     <use xlink:href="#Arial-ItalicMT-52"/>
     <use xlink:href="#Arial-ItalicMT-49" transform="translate(55.609375 0)"/>
     <use xlink:href="#Arial-ItalicMT-49" transform="translate(83.390625 0)"/>
     <use xlink:href="#Arial-ItalicMT-4f" transform="translate(111.171875 0)"/>
     <use xlink:href="#Arial-ItalicMT-52" transform="translate(133.390625 0)"/>
     <use xlink:href="#Arial-ItalicMT-44" transform="translate(189 0)"/>
     <use xlink:href="#Arial-ItalicMT-47" transform="translate(244.609375 0)"/>
     <use xlink:href="#Arial-ItalicMT-3" transform="translate(300.21875 0)"/>
     <use xlink:href="#Arial-ItalicMT-4f" transform="translate(328 0)"/>
     <use xlink:href="#Arial-ItalicMT-52" transform="translate(350.21875 0)"/>
     <use xlink:href="#Arial-ItalicMT-56" transform="translate(405.828125 0)"/>
     <use xlink:href="#Arial-ItalicMT-48" transform="translate(455.828125 0)"/>
     <use xlink:href="#Arial-ItalicMT-56" transform="translate(511.4375 0)"/>
    </g>
   </g>
   <g id="line2d_97">
    <path d="M 45.3312 148.691162
L 73.355501 122.707478
L 89.469474 108.052419
L 100.679194 98.132965
L 109.787092 90.353349
L 117.493774 84.055936
L 123.799242 79.16131
L 130.10471 74.555466
L 135.70957 70.747885
L 140.613823 67.666949
L 145.518075 64.841205
L 150.422328 62.285151
L 155.32658 60.006171
L 160.230833 58.003712
L 165.135086 56.269343
L 170.039338 54.787691
L 174.943591 53.538033
L 180.548451 52.362859
L 186.153311 51.420816
L 192.458779 50.592776
L 199.464854 49.902926
L 207.872144 49.31666
L 217.68065 48.867354
L 230.291585 48.526236
L 247.806773 48.294339
L 276.531681 48.165385
L 324.8736 48.127867
L 324.8736 48.127867
" clip-path="url(#p1cdb1a3ea3)" style="fill: none; stroke: #e68a17; stroke-width: 1.9; stroke-linecap: square"/>
   </g>
   <g id="line2d_98">
    <path d="M 45.3312 205.409686
L 118.194382 137.291055
L 139.913215 117.264831
L 153.925365 104.620608
L 164.434478 95.416833
L 172.841768 88.327628
L 179.847844 82.680657
L 186.153311 77.860213
L 191.758171 73.828762
L 197.363032 70.075466
L 202.267284 67.047024
L 207.171537 64.277369
L 212.075789 61.779601
L 216.980042 59.559464
L 221.884295 57.614701
L 226.788547 55.935307
L 231.6928 54.50463
L 236.597053 53.301054
L 242.201913 52.171963
L 247.806773 51.268893
L 254.112241 50.476674
L 261.118316 49.81783
L 269.525606 49.258774
L 279.334111 48.83087
L 291.945047 48.506328
L 310.160842 48.280377
L 324.8736 48.199775
L 324.8736 48.199775
" clip-path="url(#p1cdb1a3ea3)" style="fill: none; stroke: #1e9e48; stroke-width: 1.9; stroke-linecap: square"/>
   </g>
   <g id="line2d_99">
    <path d="M 97.076533 225.64
L 189.656349 139.030988
L 212.776397 117.695376
L 226.788547 105.040338
L 237.29766 95.822669
L 245.70495 88.717073
L 252.711026 83.051856
L 259.016493 78.210886
L 264.621353 74.15775
L 270.226214 70.379639
L 275.130466 67.327239
L 280.034719 64.532024
L 284.938971 62.007739
L 289.843224 59.760877
L 294.747477 57.789953
L 299.651729 56.085672
L 304.555982 54.631955
L 309.460235 53.407579
L 315.065095 52.257716
L 320.669955 51.3371
L 324.8736 50.774394
L 324.8736 50.774394
" clip-path="url(#p1cdb1a3ea3)" style="fill: none; stroke: #de3d3c; stroke-width: 1.9; stroke-linecap: square"/>
   </g>
   <g id="PathCollection_1">
    <defs>
     <path id="m4620ea1b81" d="M 0 2.345208
C 0.621956 2.345208 1.218523 2.098102 1.658312 1.658312
C 2.098102 1.218523 2.345208 0.621956 2.345208 0
C 2.345208 -0.621956 2.098102 -1.218523 1.658312 -1.658312
C 1.218523 -2.098102 0.621956 -2.345208 0 -2.345208
C -0.621956 -2.345208 -1.218523 -2.098102 -1.658312 -1.658312
C -2.098102 -1.218523 -2.345208 -0.621956 -2.345208 0
C -2.345208 0.621956 -2.098102 1.218523 -1.658312 1.658312
C -1.218523 2.098102 -0.621956 2.345208 0 2.345208
z
" style="stroke: #e68a17; stroke-width: 1.3"/>
    </defs>
    <g>
     <use xlink:href="#m4620ea1b81" x="59.559666" y="135.452365" style="fill: #e4f1f6; stroke: #e68a17; stroke-width: 1.3"/>
    </g>
   </g>
   <g id="PathCollection_2">
    <defs>
     <path id="m76739d01ec" d="M 0 2.345208
C 0.621956 2.345208 1.218523 2.098102 1.658312 1.658312
C 2.098102 1.218523 2.345208 0.621956 2.345208 0
C 2.345208 -0.621956 2.098102 -1.218523 1.658312 -1.658312
C 1.218523 -2.098102 0.621956 -2.345208 0 -2.345208
C -0.621956 -2.345208 -1.218523 -2.098102 -1.658312 -1.658312
C -2.098102 -1.218523 -2.345208 -0.621956 -2.345208 0
C -2.345208 0.621956 -2.098102 1.218523 -1.658312 1.658312
C -1.218523 2.098102 -0.621956 2.345208 0 2.345208
z
" style="stroke: #1e9e48; stroke-width: 1.3"/>
    </defs>
    <g>
     <use xlink:href="#m76739d01ec" x="120.175174" y="135.452365" style="fill: #e4f1f6; stroke: #1e9e48; stroke-width: 1.3"/>
    </g>
   </g>
   <g id="PathCollection_3">
    <defs>
     <path id="m573a1cf1a7" d="M 0 2.345208
C 0.621956 2.345208 1.218523 2.098102 1.658312 1.658312
C 2.098102 1.218523 2.345208 0.621956 2.345208 0
C 2.345208 -0.621956 2.098102 -1.218523 1.658312 -1.658312
C 1.218523 -2.098102 0.621956 -2.345208 0 -2.345208
C -0.621956 -2.345208 -1.218523 -2.098102 -1.658312 -1.658312
C -2.098102 -1.218523 -2.345208 -0.621956 -2.345208 0
C -2.345208 0.621956 -2.098102 1.218523 -1.658312 1.658312
C -1.218523 2.098102 -0.621956 2.345208 0 2.345208
z
" style="stroke: #de3d3c; stroke-width: 1.3"/>
    </defs>
    <g>
     <use xlink:href="#m573a1cf1a7" x="193.50992" y="135.452365" style="fill: #e4f1f6; stroke: #de3d3c; stroke-width: 1.3"/>
    </g>
   </g>
  </g>
  <g id="text_19">
   <!-- Simplified LogCA-style view: the farther the accelerator sits from the host, the larger -->
   <g style="fill: #136680" transform="translate(78.556875 204.000793) scale(0.055 -0.055)">
    <defs>
     <path id="Arial-BoldMT-36" d="M 231 1491
L 1131 1578
Q 1213 1125 1461 912
Q 1709 700 2131 700
Q 2578 700 2804 889
Q 3031 1078 3031 1331
Q 3031 1494 2936 1608
Q 2841 1722 2603 1806
Q 2441 1863 1863 2006
Q 1119 2191 819 2459
Q 397 2838 397 3381
Q 397 3731 595 4036
Q 794 4341 1167 4500
Q 1541 4659 2069 4659
Q 2931 4659 3367 4281
Q 3803 3903 3825 3272
L 2900 3231
Q 2841 3584 2645 3739
Q 2450 3894 2059 3894
Q 1656 3894 1428 3728
Q 1281 3622 1281 3444
Q 1281 3281 1419 3166
Q 1594 3019 2269 2859
Q 2944 2700 3267 2529
Q 3591 2359 3773 2064
Q 3956 1769 3956 1334
Q 3956 941 3737 597
Q 3519 253 3119 86
Q 2719 -81 2122 -81
Q 1253 -81 787 320
Q 322 722 231 1491
z
" transform="scale(0.015625)"/>
     <path id="Arial-BoldMT-4c" d="M 459 3769
L 459 4581
L 1338 4581
L 1338 3769
L 459 3769
z
M 459 0
L 459 3319
L 1338 3319
L 1338 0
L 459 0
z
" transform="scale(0.015625)"/>
     <path id="Arial-BoldMT-50" d="M 394 3319
L 1203 3319
L 1203 2866
Q 1638 3394 2238 3394
Q 2556 3394 2790 3262
Q 3025 3131 3175 2866
Q 3394 3131 3647 3262
Q 3900 3394 4188 3394
Q 4553 3394 4806 3245
Q 5059 3097 5184 2809
Q 5275 2597 5275 2122
L 5275 0
L 4397 0
L 4397 1897
Q 4397 2391 4306 2534
Q 4184 2722 3931 2722
Q 3747 2722 3584 2609
Q 3422 2497 3350 2280
Q 3278 2063 3278 1594
L 3278 0
L 2400 0
L 2400 1819
Q 2400 2303 2353 2443
Q 2306 2584 2207 2653
Q 2109 2722 1941 2722
Q 1738 2722 1575 2612
Q 1413 2503 1342 2297
Q 1272 2091 1272 1613
L 1272 0
L 394 0
L 394 3319
z
" transform="scale(0.015625)"/>
     <path id="Arial-BoldMT-53" d="M 434 3319
L 1253 3319
L 1253 2831
Q 1413 3081 1684 3237
Q 1956 3394 2288 3394
Q 2866 3394 3269 2941
Q 3672 2488 3672 1678
Q 3672 847 3265 386
Q 2859 -75 2281 -75
Q 2006 -75 1782 34
Q 1559 144 1313 409
L 1313 -1263
L 434 -1263
L 434 3319
z
M 1303 1716
Q 1303 1156 1525 889
Q 1747 622 2066 622
Q 2372 622 2575 867
Q 2778 1113 2778 1672
Q 2778 2194 2568 2447
Q 2359 2700 2050 2700
Q 1728 2700 1515 2451
Q 1303 2203 1303 1716
z
" transform="scale(0.015625)"/>
     <path id="Arial-BoldMT-4f" d="M 459 0
L 459 4581
L 1338 4581
L 1338 0
L 459 0
z
" transform="scale(0.015625)"/>
     <path id="Arial-BoldMT-49" d="M 75 3319
L 563 3319
L 563 3569
Q 563 3988 652 4194
Q 741 4400 980 4529
Q 1219 4659 1584 4659
Q 1959 4659 2319 4547
L 2200 3934
Q 1991 3984 1797 3984
Q 1606 3984 1523 3895
Q 1441 3806 1441 3553
L 1441 3319
L 2097 3319
L 2097 2628
L 1441 2628
L 1441 0
L 563 0
L 563 2628
L 75 2628
L 75 3319
z
" transform="scale(0.015625)"/>
     <path id="Arial-BoldMT-48" d="M 2381 1056
L 3256 909
Q 3088 428 2723 176
Q 2359 -75 1813 -75
Q 947 -75 531 491
Q 203 944 203 1634
Q 203 2459 634 2926
Q 1066 3394 1725 3394
Q 2466 3394 2894 2905
Q 3322 2416 3303 1406
L 1103 1406
Q 1113 1016 1316 798
Q 1519 581 1822 581
Q 2028 581 2168 693
Q 2309 806 2381 1056
z
M 2431 1944
Q 2422 2325 2234 2523
Q 2047 2722 1778 2722
Q 1491 2722 1303 2513
Q 1116 2303 1119 1944
L 2431 1944
z
" transform="scale(0.015625)"/>
     <path id="Arial-BoldMT-47" d="M 3503 0
L 2688 0
L 2688 488
Q 2484 203 2207 64
Q 1931 -75 1650 -75
Q 1078 -75 670 386
Q 263 847 263 1672
Q 263 2516 659 2955
Q 1056 3394 1663 3394
Q 2219 3394 2625 2931
L 2625 4581
L 3503 4581
L 3503 0
z
M 1159 1731
Q 1159 1200 1306 963
Q 1519 619 1900 619
Q 2203 619 2415 876
Q 2628 1134 2628 1647
Q 2628 2219 2422 2470
Q 2216 2722 1894 2722
Q 1581 2722 1370 2473
Q 1159 2225 1159 1731
z
" transform="scale(0.015625)"/>
     <path id="Arial-BoldMT-3" transform="scale(0.015625)"/>
     <path id="Arial-BoldMT-2f" d="M 491 0
L 491 4544
L 1416 4544
L 1416 772
L 3716 772
L 3716 0
L 491 0
z
" transform="scale(0.015625)"/>
     <path id="Arial-BoldMT-52" d="M 256 1706
Q 256 2144 472 2553
Q 688 2963 1083 3178
Q 1478 3394 1966 3394
Q 2719 3394 3200 2905
Q 3681 2416 3681 1669
Q 3681 916 3195 420
Q 2709 -75 1972 -75
Q 1516 -75 1102 131
Q 688 338 472 736
Q 256 1134 256 1706
z
M 1156 1659
Q 1156 1166 1390 903
Q 1625 641 1969 641
Q 2313 641 2545 903
Q 2778 1166 2778 1666
Q 2778 2153 2545 2415
Q 2313 2678 1969 2678
Q 1625 2678 1390 2415
Q 1156 2153 1156 1659
z
" transform="scale(0.015625)"/>
     <path id="Arial-BoldMT-4a" d="M 378 -219
L 1381 -341
Q 1406 -516 1497 -581
Q 1622 -675 1891 -675
Q 2234 -675 2406 -572
Q 2522 -503 2581 -350
Q 2622 -241 2622 53
L 2622 538
Q 2228 0 1628 0
Q 959 0 569 566
Q 263 1013 263 1678
Q 263 2513 664 2953
Q 1066 3394 1663 3394
Q 2278 3394 2678 2853
L 2678 3319
L 3500 3319
L 3500 341
Q 3500 -247 3403 -537
Q 3306 -828 3131 -993
Q 2956 -1159 2664 -1253
Q 2372 -1347 1925 -1347
Q 1081 -1347 728 -1058
Q 375 -769 375 -325
Q 375 -281 378 -219
z
M 1163 1728
Q 1163 1200 1367 954
Q 1572 709 1872 709
Q 2194 709 2416 961
Q 2638 1213 2638 1706
Q 2638 2222 2425 2472
Q 2213 2722 1888 2722
Q 1572 2722 1367 2476
Q 1163 2231 1163 1728
z
" transform="scale(0.015625)"/>
     <path id="Arial-BoldMT-26" d="M 3397 1684
L 4294 1400
Q 4088 650 3608 286
Q 3128 -78 2391 -78
Q 1478 -78 890 545
Q 303 1169 303 2250
Q 303 3394 893 4026
Q 1484 4659 2447 4659
Q 3288 4659 3813 4163
Q 4125 3869 4281 3319
L 3366 3100
Q 3284 3456 3026 3662
Q 2769 3869 2400 3869
Q 1891 3869 1573 3503
Q 1256 3138 1256 2319
Q 1256 1450 1568 1081
Q 1881 713 2381 713
Q 2750 713 3015 947
Q 3281 1181 3397 1684
z
" transform="scale(0.015625)"/>
     <path id="Arial-BoldMT-24" d="M 4597 0
L 3591 0
L 3191 1041
L 1359 1041
L 981 0
L 0 0
L 1784 4581
L 2763 4581
L 4597 0
z
M 2894 1813
L 2263 3513
L 1644 1813
L 2894 1813
z
" transform="scale(0.015625)"/>
     <path id="Arial-BoldMT-10" d="M 359 1222
L 359 2100
L 2084 2100
L 2084 1222
L 359 1222
z
" transform="scale(0.015625)"/>
     <path id="Arial-BoldMT-56" d="M 150 947
L 1031 1081
Q 1088 825 1259 692
Q 1431 559 1741 559
Q 2081 559 2253 684
Q 2369 772 2369 919
Q 2369 1019 2306 1084
Q 2241 1147 2013 1200
Q 950 1434 666 1628
Q 272 1897 272 2375
Q 272 2806 612 3100
Q 953 3394 1669 3394
Q 2350 3394 2681 3172
Q 3013 2950 3138 2516
L 2309 2363
Q 2256 2556 2107 2659
Q 1959 2763 1684 2763
Q 1338 2763 1188 2666
Q 1088 2597 1088 2488
Q 1088 2394 1175 2328
Q 1294 2241 1995 2081
Q 2697 1922 2975 1691
Q 3250 1456 3250 1038
Q 3250 581 2869 253
Q 2488 -75 1741 -75
Q 1063 -75 667 200
Q 272 475 150 947
z
" transform="scale(0.015625)"/>
     <path id="Arial-BoldMT-57" d="M 1981 3319
L 1981 2619
L 1381 2619
L 1381 1281
Q 1381 875 1398 808
Q 1416 741 1477 697
Q 1538 653 1625 653
Q 1747 653 1978 738
L 2053 56
Q 1747 -75 1359 -75
Q 1122 -75 931 4
Q 741 84 652 211
Q 563 338 528 553
Q 500 706 500 1172
L 500 2619
L 97 2619
L 97 3319
L 500 3319
L 500 3978
L 1381 4491
L 1381 3319
L 1981 3319
z
" transform="scale(0.015625)"/>
     <path id="Arial-BoldMT-5c" d="M 44 3319
L 978 3319
L 1772 963
L 2547 3319
L 3456 3319
L 2284 125
L 2075 -453
Q 1959 -744 1854 -897
Q 1750 -1050 1614 -1145
Q 1478 -1241 1279 -1294
Q 1081 -1347 831 -1347
Q 578 -1347 334 -1294
L 256 -606
Q 463 -647 628 -647
Q 934 -647 1081 -467
Q 1228 -288 1306 -9
L 44 3319
z
" transform="scale(0.015625)"/>
     <path id="Arial-BoldMT-59" d="M 1372 0
L 34 3319
L 956 3319
L 1581 1625
L 1763 1059
Q 1834 1275 1853 1344
Q 1897 1484 1947 1625
L 2578 3319
L 3481 3319
L 2163 0
L 1372 0
z
" transform="scale(0.015625)"/>
     <path id="Arial-BoldMT-5a" d="M 1078 0
L 28 3319
L 881 3319
L 1503 1144
L 2075 3319
L 2922 3319
L 3475 1144
L 4109 3319
L 4975 3319
L 3909 0
L 3066 0
L 2494 2134
L 1931 0
L 1078 0
z
" transform="scale(0.015625)"/>
     <path id="Arial-BoldMT-1d" d="M 628 2441
L 628 3319
L 1506 3319
L 1506 2441
L 628 2441
z
M 628 0
L 628 878
L 1506 878
L 1506 0
L 628 0
z
" transform="scale(0.015625)"/>
     <path id="Arial-BoldMT-4b" d="M 1334 4581
L 1334 2897
Q 1759 3394 2350 3394
Q 2653 3394 2897 3281
Q 3141 3169 3264 2994
Q 3388 2819 3433 2606
Q 3478 2394 3478 1947
L 3478 0
L 2600 0
L 2600 1753
Q 2600 2275 2550 2415
Q 2500 2556 2373 2639
Q 2247 2722 2056 2722
Q 1838 2722 1666 2615
Q 1494 2509 1414 2295
Q 1334 2081 1334 1663
L 1334 0
L 456 0
L 456 4581
L 1334 4581
z
" transform="scale(0.015625)"/>
     <path id="Arial-BoldMT-44" d="M 1116 2306
L 319 2450
Q 453 2931 781 3162
Q 1109 3394 1756 3394
Q 2344 3394 2631 3255
Q 2919 3116 3036 2902
Q 3153 2688 3153 2116
L 3144 1091
Q 3144 653 3186 445
Q 3228 238 3344 0
L 2475 0
Q 2441 88 2391 259
Q 2369 338 2359 363
Q 2134 144 1878 34
Q 1622 -75 1331 -75
Q 819 -75 523 203
Q 228 481 228 906
Q 228 1188 362 1408
Q 497 1628 739 1745
Q 981 1863 1438 1950
Q 2053 2066 2291 2166
L 2291 2253
Q 2291 2506 2166 2614
Q 2041 2722 1694 2722
Q 1459 2722 1328 2630
Q 1197 2538 1116 2306
z
M 2291 1594
Q 2122 1538 1756 1459
Q 1391 1381 1278 1306
Q 1106 1184 1106 997
Q 1106 813 1243 678
Q 1381 544 1594 544
Q 1831 544 2047 700
Q 2206 819 2256 991
Q 2291 1103 2291 1419
L 2291 1594
z
" transform="scale(0.015625)"/>
     <path id="Arial-BoldMT-55" d="M 1300 0
L 422 0
L 422 3319
L 1238 3319
L 1238 2847
Q 1447 3181 1614 3287
Q 1781 3394 1994 3394
Q 2294 3394 2572 3228
L 2300 2463
Q 2078 2606 1888 2606
Q 1703 2606 1575 2504
Q 1447 2403 1373 2137
Q 1300 1872 1300 1025
L 1300 0
z
" transform="scale(0.015625)"/>
     <path id="Arial-BoldMT-46" d="M 3353 2338
L 2488 2181
Q 2444 2441 2289 2572
Q 2134 2703 1888 2703
Q 1559 2703 1364 2476
Q 1169 2250 1169 1719
Q 1169 1128 1367 884
Q 1566 641 1900 641
Q 2150 641 2309 783
Q 2469 925 2534 1272
L 3397 1125
Q 3263 531 2881 228
Q 2500 -75 1859 -75
Q 1131 -75 698 384
Q 266 844 266 1656
Q 266 2478 700 2936
Q 1134 3394 1875 3394
Q 2481 3394 2839 3133
Q 3197 2872 3353 2338
z
" transform="scale(0.015625)"/>
     <path id="Arial-BoldMT-f" d="M 438 878
L 1316 878
L 1316 250
Q 1316 -131 1250 -351
Q 1184 -572 1001 -747
Q 819 -922 538 -1022
L 366 -659
Q 631 -572 743 -419
Q 856 -266 863 0
L 438 0
L 438 878
z
" transform="scale(0.015625)"/>
    </defs>
    <use xlink:href="#Arial-BoldMT-36"/>
    <use xlink:href="#Arial-BoldMT-4c" transform="translate(66.703125 0)"/>
    <use xlink:href="#Arial-BoldMT-50" transform="translate(94.484375 0)"/>
    <use xlink:href="#Arial-BoldMT-53" transform="translate(183.40625 0)"/>
    <use xlink:href="#Arial-BoldMT-4f" transform="translate(244.484375 0)"/>
    <use xlink:href="#Arial-BoldMT-4c" transform="translate(272.265625 0)"/>
    <use xlink:href="#Arial-BoldMT-49" transform="translate(300.046875 0)"/>
    <use xlink:href="#Arial-BoldMT-4c" transform="translate(333.34375 0)"/>
    <use xlink:href="#Arial-BoldMT-48" transform="translate(361.125 0)"/>
    <use xlink:href="#Arial-BoldMT-47" transform="translate(416.734375 0)"/>
    <use xlink:href="#Arial-BoldMT-3" transform="translate(477.8125 0)"/>
    <use xlink:href="#Arial-BoldMT-2f" transform="translate(505.59375 0)"/>
    <use xlink:href="#Arial-BoldMT-52" transform="translate(566.671875 0)"/>
    <use xlink:href="#Arial-BoldMT-4a" transform="translate(627.75 0)"/>
    <use xlink:href="#Arial-BoldMT-26" transform="translate(688.828125 0)"/>
    <use xlink:href="#Arial-BoldMT-24" transform="translate(761.046875 0)"/>
    <use xlink:href="#Arial-BoldMT-10" transform="translate(833.265625 0)"/>
    <use xlink:href="#Arial-BoldMT-56" transform="translate(866.5625 0)"/>
    <use xlink:href="#Arial-BoldMT-57" transform="translate(922.171875 0)"/>
    <use xlink:href="#Arial-BoldMT-5c" transform="translate(955.46875 0)"/>
    <use xlink:href="#Arial-BoldMT-4f" transform="translate(1011.078125 0)"/>
    <use xlink:href="#Arial-BoldMT-48" transform="translate(1038.859375 0)"/>
    <use xlink:href="#Arial-BoldMT-3" transform="translate(1094.46875 0)"/>
    <use xlink:href="#Arial-BoldMT-59" transform="translate(1122.25 0)"/>
    <use xlink:href="#Arial-BoldMT-4c" transform="translate(1177.859375 0)"/>
    <use xlink:href="#Arial-BoldMT-48" transform="translate(1205.640625 0)"/>
    <use xlink:href="#Arial-BoldMT-5a" transform="translate(1261.25 0)"/>
    <use xlink:href="#Arial-BoldMT-1d" transform="translate(1339.03125 0)"/>
    <use xlink:href="#Arial-BoldMT-3" transform="translate(1372.328125 0)"/>
    <use xlink:href="#Arial-BoldMT-57" transform="translate(1400.109375 0)"/>
    <use xlink:href="#Arial-BoldMT-4b" transform="translate(1433.40625 0)"/>
    <use xlink:href="#Arial-BoldMT-48" transform="translate(1494.484375 0)"/>
    <use xlink:href="#Arial-BoldMT-3" transform="translate(1550.09375 0)"/>
    <use xlink:href="#Arial-BoldMT-49" transform="translate(1577.875 0)"/>
    <use xlink:href="#Arial-BoldMT-44" transform="translate(1611.171875 0)"/>
    <use xlink:href="#Arial-BoldMT-55" transform="translate(1666.78125 0)"/>
    <use xlink:href="#Arial-BoldMT-57" transform="translate(1705.703125 0)"/>
    <use xlink:href="#Arial-BoldMT-4b" transform="translate(1739 0)"/>
    <use xlink:href="#Arial-BoldMT-48" transform="translate(1800.078125 0)"/>
    <use xlink:href="#Arial-BoldMT-55" transform="translate(1855.6875 0)"/>
    <use xlink:href="#Arial-BoldMT-3" transform="translate(1894.609375 0)"/>
    <use xlink:href="#Arial-BoldMT-57" transform="translate(1922.390625 0)"/>
    <use xlink:href="#Arial-BoldMT-4b" transform="translate(1955.6875 0)"/>
    <use xlink:href="#Arial-BoldMT-48" transform="translate(2016.765625 0)"/>
    <use xlink:href="#Arial-BoldMT-3" transform="translate(2072.375 0)"/>
    <use xlink:href="#Arial-BoldMT-44" transform="translate(2100.15625 0)"/>
    <use xlink:href="#Arial-BoldMT-46" transform="translate(2155.765625 0)"/>
    <use xlink:href="#Arial-BoldMT-46" transform="translate(2211.375 0)"/>
    <use xlink:href="#Arial-BoldMT-48" transform="translate(2266.984375 0)"/>
    <use xlink:href="#Arial-BoldMT-4f" transform="translate(2322.59375 0)"/>
    <use xlink:href="#Arial-BoldMT-48" transform="translate(2350.375 0)"/>
    <use xlink:href="#Arial-BoldMT-55" transform="translate(2405.984375 0)"/>
    <use xlink:href="#Arial-BoldMT-44" transform="translate(2444.90625 0)"/>
    <use xlink:href="#Arial-BoldMT-57" transform="translate(2500.515625 0)"/>
    <use xlink:href="#Arial-BoldMT-52" transform="translate(2533.8125 0)"/>
    <use xlink:href="#Arial-BoldMT-55" transform="translate(2594.890625 0)"/>
    <use xlink:href="#Arial-BoldMT-3" transform="translate(2633.8125 0)"/>
    <use xlink:href="#Arial-BoldMT-56" transform="translate(2661.59375 0)"/>
    <use xlink:href="#Arial-BoldMT-4c" transform="translate(2717.203125 0)"/>
    <use xlink:href="#Arial-BoldMT-57" transform="translate(2744.984375 0)"/>
    <use xlink:href="#Arial-BoldMT-56" transform="translate(2778.28125 0)"/>
    <use xlink:href="#Arial-BoldMT-3" transform="translate(2833.890625 0)"/>
    <use xlink:href="#Arial-BoldMT-49" transform="translate(2861.671875 0)"/>
    <use xlink:href="#Arial-BoldMT-55" transform="translate(2894.96875 0)"/>
    <use xlink:href="#Arial-BoldMT-52" transform="translate(2933.890625 0)"/>
    <use xlink:href="#Arial-BoldMT-50" transform="translate(2994.96875 0)"/>
    <use xlink:href="#Arial-BoldMT-3" transform="translate(3083.890625 0)"/>
    <use xlink:href="#Arial-BoldMT-57" transform="translate(3111.671875 0)"/>
    <use xlink:href="#Arial-BoldMT-4b" transform="translate(3144.96875 0)"/>
    <use xlink:href="#Arial-BoldMT-48" transform="translate(3206.046875 0)"/>
    <use xlink:href="#Arial-BoldMT-3" transform="translate(3261.65625 0)"/>
    <use xlink:href="#Arial-BoldMT-4b" transform="translate(3289.4375 0)"/>
    <use xlink:href="#Arial-BoldMT-52" transform="translate(3350.515625 0)"/>
    <use xlink:href="#Arial-BoldMT-56" transform="translate(3411.59375 0)"/>
    <use xlink:href="#Arial-BoldMT-57" transform="translate(3467.203125 0)"/>
    <use xlink:href="#Arial-BoldMT-f" transform="translate(3500.5 0)"/>
    <use xlink:href="#Arial-BoldMT-3" transform="translate(3528.28125 0)"/>
    <use xlink:href="#Arial-BoldMT-57" transform="translate(3556.0625 0)"/>
    <use xlink:href="#Arial-BoldMT-4b" transform="translate(3589.359375 0)"/>
    <use xlink:href="#Arial-BoldMT-48" transform="translate(3650.4375 0)"/>
    <use xlink:href="#Arial-BoldMT-3" transform="translate(3706.046875 0)"/>
    <use xlink:href="#Arial-BoldMT-4f" transform="translate(3733.828125 0)"/>
    <use xlink:href="#Arial-BoldMT-44" transform="translate(3761.609375 0)"/>
    <use xlink:href="#Arial-BoldMT-55" transform="translate(3817.21875 0)"/>
    <use xlink:href="#Arial-BoldMT-4a" transform="translate(3856.140625 0)"/>
    <use xlink:href="#Arial-BoldMT-48" transform="translate(3917.21875 0)"/>
    <use xlink:href="#Arial-BoldMT-55" transform="translate(3972.828125 0)"/>
   </g>
   <!-- the granularity needed before offload breaks even. -->
   <g style="fill: #136680" transform="translate(122.867969 209.936657) scale(0.055 -0.055)">
    <defs>
     <path id="Arial-BoldMT-51" d="M 3478 0
L 2600 0
L 2600 1694
Q 2600 2231 2544 2389
Q 2488 2547 2361 2634
Q 2234 2722 2056 2722
Q 1828 2722 1647 2597
Q 1466 2472 1398 2265
Q 1331 2059 1331 1503
L 1331 0
L 453 0
L 453 3319
L 1269 3319
L 1269 2831
Q 1703 3394 2363 3394
Q 2653 3394 2893 3289
Q 3134 3184 3257 3021
Q 3381 2859 3429 2653
Q 3478 2447 3478 2063
L 3478 0
z
" transform="scale(0.015625)"/>
     <path id="Arial-BoldMT-58" d="M 2644 0
L 2644 497
Q 2463 231 2167 78
Q 1872 -75 1544 -75
Q 1209 -75 943 72
Q 678 219 559 484
Q 441 750 441 1219
L 441 3319
L 1319 3319
L 1319 1794
Q 1319 1094 1367 936
Q 1416 778 1544 686
Q 1672 594 1869 594
Q 2094 594 2272 717
Q 2450 841 2515 1023
Q 2581 1206 2581 1919
L 2581 3319
L 3459 3319
L 3459 0
L 2644 0
z
" transform="scale(0.015625)"/>
     <path id="Arial-BoldMT-45" d="M 422 0
L 422 4581
L 1300 4581
L 1300 2931
Q 1706 3394 2263 3394
Q 2869 3394 3266 2955
Q 3663 2516 3663 1694
Q 3663 844 3258 384
Q 2853 -75 2275 -75
Q 1991 -75 1714 67
Q 1438 209 1238 488
L 1238 0
L 422 0
z
M 1294 1731
Q 1294 1216 1456 969
Q 1684 619 2063 619
Q 2353 619 2558 867
Q 2763 1116 2763 1650
Q 2763 2219 2556 2470
Q 2350 2722 2028 2722
Q 1713 2722 1503 2476
Q 1294 2231 1294 1731
z
" transform="scale(0.015625)"/>
     <path id="Arial-BoldMT-4e" d="M 428 0
L 428 4581
L 1306 4581
L 1306 2150
L 2334 3319
L 3416 3319
L 2281 2106
L 3497 0
L 2550 0
L 1716 1491
L 1306 1063
L 1306 0
L 428 0
z
" transform="scale(0.015625)"/>
     <path id="Arial-BoldMT-11" d="M 459 0
L 459 878
L 1338 878
L 1338 0
L 459 0
z
" transform="scale(0.015625)"/>
    </defs>
    <use xlink:href="#Arial-BoldMT-57"/>
    <use xlink:href="#Arial-BoldMT-4b" transform="translate(33.296875 0)"/>
    <use xlink:href="#Arial-BoldMT-48" transform="translate(94.375 0)"/>
    <use xlink:href="#Arial-BoldMT-3" transform="translate(149.984375 0)"/>
    <use xlink:href="#Arial-BoldMT-4a" transform="translate(177.765625 0)"/>
    <use xlink:href="#Arial-BoldMT-55" transform="translate(238.84375 0)"/>
    <use xlink:href="#Arial-BoldMT-44" transform="translate(277.765625 0)"/>
    <use xlink:href="#Arial-BoldMT-51" transform="translate(333.375 0)"/>
    <use xlink:href="#Arial-BoldMT-58" transform="translate(394.453125 0)"/>
    <use xlink:href="#Arial-BoldMT-4f" transform="translate(455.53125 0)"/>
    <use xlink:href="#Arial-BoldMT-44" transform="translate(483.3125 0)"/>
    <use xlink:href="#Arial-BoldMT-55" transform="translate(538.921875 0)"/>
    <use xlink:href="#Arial-BoldMT-4c" transform="translate(577.84375 0)"/>
    <use xlink:href="#Arial-BoldMT-57" transform="translate(605.625 0)"/>
    <use xlink:href="#Arial-BoldMT-5c" transform="translate(638.921875 0)"/>
    <use xlink:href="#Arial-BoldMT-3" transform="translate(694.53125 0)"/>
    <use xlink:href="#Arial-BoldMT-51" transform="translate(722.3125 0)"/>
    <use xlink:href="#Arial-BoldMT-48" transform="translate(783.390625 0)"/>
    <use xlink:href="#Arial-BoldMT-48" transform="translate(839 0)"/>
    <use xlink:href="#Arial-BoldMT-47" transform="translate(894.609375 0)"/>
    <use xlink:href="#Arial-BoldMT-48" transform="translate(955.6875 0)"/>
    <use xlink:href="#Arial-BoldMT-47" transform="translate(1011.296875 0)"/>
    <use xlink:href="#Arial-BoldMT-3" transform="translate(1072.375 0)"/>
    <use xlink:href="#Arial-BoldMT-45" transform="translate(1100.15625 0)"/>
    <use xlink:href="#Arial-BoldMT-48" transform="translate(1161.234375 0)"/>
    <use xlink:href="#Arial-BoldMT-49" transform="translate(1216.84375 0)"/>
    <use xlink:href="#Arial-BoldMT-52" transform="translate(1250.140625 0)"/>
    <use xlink:href="#Arial-BoldMT-55" transform="translate(1311.21875 0)"/>
    <use xlink:href="#Arial-BoldMT-48" transform="translate(1350.140625 0)"/>
    <use xlink:href="#Arial-BoldMT-3" transform="translate(1405.75 0)"/>
    <use xlink:href="#Arial-BoldMT-52" transform="translate(1433.53125 0)"/>
    <use xlink:href="#Arial-BoldMT-49" transform="translate(1494.609375 0)"/>
    <use xlink:href="#Arial-BoldMT-49" transform="translate(1527.90625 0)"/>
    <use xlink:href="#Arial-BoldMT-4f" transform="translate(1561.203125 0)"/>
    <use xlink:href="#Arial-BoldMT-52" transform="translate(1588.984375 0)"/>
    <use xlink:href="#Arial-BoldMT-44" transform="translate(1650.0625 0)"/>
    <use xlink:href="#Arial-BoldMT-47" transform="translate(1705.671875 0)"/>
    <use xlink:href="#Arial-BoldMT-3" transform="translate(1766.75 0)"/>
    <use xlink:href="#Arial-BoldMT-45" transform="translate(1794.53125 0)"/>
    <use xlink:href="#Arial-BoldMT-55" transform="translate(1855.609375 0)"/>
    <use xlink:href="#Arial-BoldMT-48" transform="translate(1894.53125 0)"/>
    <use xlink:href="#Arial-BoldMT-44" transform="translate(1950.140625 0)"/>
    <use xlink:href="#Arial-BoldMT-4e" transform="translate(2005.75 0)"/>
    <use xlink:href="#Arial-BoldMT-56" transform="translate(2061.359375 0)"/>
    <use xlink:href="#Arial-BoldMT-3" transform="translate(2116.96875 0)"/>
    <use xlink:href="#Arial-BoldMT-48" transform="translate(2144.75 0)"/>
    <use xlink:href="#Arial-BoldMT-59" transform="translate(2200.359375 0)"/>
    <use xlink:href="#Arial-BoldMT-48" transform="translate(2255.96875 0)"/>
    <use xlink:href="#Arial-BoldMT-51" transform="translate(2311.578125 0)"/>
    <use xlink:href="#Arial-BoldMT-11" transform="translate(2372.65625 0)"/>
   </g>
  </g>
  <g id="legend_1">
   <g id="line2d_100">
    <path d="M 60.460313 7.668164
L 63.460313 7.668164
L 66.460313 7.668164
" style="fill: none; stroke: #e68a17; stroke-width: 1.9; stroke-linecap: square"/>
   </g>
   <g id="text_20">
    <!-- tightly coupled accelerator -->
    <g style="fill: #20252b" transform="translate(71.260313 9.768164) scale(0.06 -0.06)">
     <defs>
      <path id="ArialMT-4b" d="M 422 0
L 422 4581
L 984 4581
L 984 2938
Q 1378 3394 1978 3394
Q 2347 3394 2619 3248
Q 2891 3103 3008 2847
Q 3125 2591 3125 2103
L 3125 0
L 2563 0
L 2563 2103
Q 2563 2525 2380 2717
Q 2197 2909 1863 2909
Q 1613 2909 1392 2779
Q 1172 2650 1078 2428
Q 984 2206 984 1816
L 984 0
L 422 0
z
" transform="scale(0.015625)"/>
     </defs>
     <use xlink:href="#ArialMT-57"/>
     <use xlink:href="#ArialMT-4c" transform="translate(27.78125 0)"/>
     <use xlink:href="#ArialMT-4a" transform="translate(50 0)"/>
     <use xlink:href="#ArialMT-4b" transform="translate(105.609375 0)"/>
     <use xlink:href="#ArialMT-57" transform="translate(161.21875 0)"/>
     <use xlink:href="#ArialMT-4f" transform="translate(189 0)"/>
     <use xlink:href="#ArialMT-5c" transform="translate(211.21875 0)"/>
     <use xlink:href="#ArialMT-3" transform="translate(261.21875 0)"/>
     <use xlink:href="#ArialMT-46" transform="translate(289 0)"/>
     <use xlink:href="#ArialMT-52" transform="translate(339 0)"/>
     <use xlink:href="#ArialMT-58" transform="translate(394.609375 0)"/>
     <use xlink:href="#ArialMT-53" transform="translate(450.21875 0)"/>
     <use xlink:href="#ArialMT-4f" transform="translate(505.828125 0)"/>
     <use xlink:href="#ArialMT-48" transform="translate(528.046875 0)"/>
     <use xlink:href="#ArialMT-47" transform="translate(583.65625 0)"/>
     <use xlink:href="#ArialMT-3" transform="translate(639.265625 0)"/>
     <use xlink:href="#ArialMT-44" transform="translate(667.046875 0)"/>
     <use xlink:href="#ArialMT-46" transform="translate(722.65625 0)"/>
     <use xlink:href="#ArialMT-46" transform="translate(772.65625 0)"/>
     <use xlink:href="#ArialMT-48" transform="translate(822.65625 0)"/>
     <use xlink:href="#ArialMT-4f" transform="translate(878.265625 0)"/>
     <use xlink:href="#ArialMT-48" transform="translate(900.484375 0)"/>
     <use xlink:href="#ArialMT-55" transform="translate(956.09375 0)"/>
     <use xlink:href="#ArialMT-44" transform="translate(989.390625 0)"/>
     <use xlink:href="#ArialMT-57" transform="translate(1045 0)"/>
     <use xlink:href="#ArialMT-52" transform="translate(1072.78125 0)"/>
     <use xlink:href="#ArialMT-55" transform="translate(1128.390625 0)"/>
    </g>
   </g>
   <g id="line2d_101">
    <path d="M 149.361563 7.668164
L 152.361563 7.668164
L 155.361563 7.668164
" style="fill: none; stroke: #1e9e48; stroke-width: 1.9; stroke-linecap: square"/>
   </g>
   <g id="text_21">
    <!-- shared-memory SoC block -->
    <g style="fill: #20252b" transform="translate(160.161563 9.768164) scale(0.06 -0.06)">
     <defs>
      <path id="ArialMT-36" d="M 288 1472
L 859 1522
Q 900 1178 1048 958
Q 1197 738 1509 602
Q 1822 466 2213 466
Q 2559 466 2825 569
Q 3091 672 3220 851
Q 3350 1031 3350 1244
Q 3350 1459 3225 1620
Q 3100 1781 2813 1891
Q 2628 1963 1997 2114
Q 1366 2266 1113 2400
Q 784 2572 623 2826
Q 463 3081 463 3397
Q 463 3744 659 4045
Q 856 4347 1234 4503
Q 1613 4659 2075 4659
Q 2584 4659 2973 4495
Q 3363 4331 3572 4012
Q 3781 3694 3797 3291
L 3216 3247
Q 3169 3681 2898 3903
Q 2628 4125 2100 4125
Q 1550 4125 1298 3923
Q 1047 3722 1047 3438
Q 1047 3191 1225 3031
Q 1400 2872 2139 2705
Q 2878 2538 3153 2413
Q 3553 2228 3743 1945
Q 3934 1663 3934 1294
Q 3934 928 3725 604
Q 3516 281 3123 101
Q 2731 -78 2241 -78
Q 1619 -78 1198 103
Q 778 284 539 648
Q 300 1013 288 1472
z
" transform="scale(0.015625)"/>
      <path id="ArialMT-26" d="M 3763 1606
L 4369 1453
Q 4178 706 3683 314
Q 3188 -78 2472 -78
Q 1731 -78 1267 223
Q 803 525 561 1097
Q 319 1669 319 2325
Q 319 3041 592 3573
Q 866 4106 1370 4382
Q 1875 4659 2481 4659
Q 3169 4659 3637 4309
Q 4106 3959 4291 3325
L 3694 3184
Q 3534 3684 3231 3912
Q 2928 4141 2469 4141
Q 1941 4141 1586 3887
Q 1231 3634 1087 3207
Q 944 2781 944 2328
Q 944 1744 1114 1308
Q 1284 872 1643 656
Q 2003 441 2422 441
Q 2931 441 3284 734
Q 3638 1028 3763 1606
z
" transform="scale(0.015625)"/>
     </defs>
     <use xlink:href="#ArialMT-56"/>
     <use xlink:href="#ArialMT-4b" transform="translate(50 0)"/>
     <use xlink:href="#ArialMT-44" transform="translate(105.609375 0)"/>
     <use xlink:href="#ArialMT-55" transform="translate(161.21875 0)"/>
     <use xlink:href="#ArialMT-48" transform="translate(194.515625 0)"/>
     <use xlink:href="#ArialMT-47" transform="translate(250.125 0)"/>
     <use xlink:href="#ArialMT-10" transform="translate(305.734375 0)"/>
     <use xlink:href="#ArialMT-50" transform="translate(339.03125 0)"/>
     <use xlink:href="#ArialMT-48" transform="translate(422.328125 0)"/>
     <use xlink:href="#ArialMT-50" transform="translate(477.9375 0)"/>
     <use xlink:href="#ArialMT-52" transform="translate(561.234375 0)"/>
     <use xlink:href="#ArialMT-55" transform="translate(616.84375 0)"/>
     <use xlink:href="#ArialMT-5c" transform="translate(650.140625 0)"/>
     <use xlink:href="#ArialMT-3" transform="translate(700.140625 0)"/>
     <use xlink:href="#ArialMT-36" transform="translate(727.921875 0)"/>
     <use xlink:href="#ArialMT-52" transform="translate(794.625 0)"/>
     <use xlink:href="#ArialMT-26" transform="translate(850.234375 0)"/>
     <use xlink:href="#ArialMT-3" transform="translate(922.453125 0)"/>
     <use xlink:href="#ArialMT-45" transform="translate(950.234375 0)"/>
     <use xlink:href="#ArialMT-4f" transform="translate(1005.84375 0)"/>
     <use xlink:href="#ArialMT-52" transform="translate(1028.0625 0)"/>
     <use xlink:href="#ArialMT-46" transform="translate(1083.671875 0)"/>
     <use xlink:href="#ArialMT-4e" transform="translate(1133.671875 0)"/>
    </g>
   </g>
   <g id="line2d_102">
    <path d="M 239.581875 7.668164
L 242.581875 7.668164
L 245.581875 7.668164
" style="fill: none; stroke: #de3d3c; stroke-width: 1.9; stroke-linecap: square"/>
   </g>
   <g id="text_22">
    <!-- off-chip / discrete module -->
    <g style="fill: #20252b" transform="translate(250.381875 9.768164) scale(0.06 -0.06)">
     <defs>
      <path id="ArialMT-12" d="M 0 -78
L 1328 4659
L 1778 4659
L 453 -78
L 0 -78
z
" transform="scale(0.015625)"/>
     </defs>
     <use xlink:href="#ArialMT-52"/>
     <use xlink:href="#ArialMT-49" transform="translate(55.609375 0)"/>
     <use xlink:href="#ArialMT-49" transform="translate(81.578125 0)"/>
     <use xlink:href="#ArialMT-10" transform="translate(109.359375 0)"/>
     <use xlink:href="#ArialMT-46" transform="translate(142.65625 0)"/>
     <use xlink:href="#ArialMT-4b" transform="translate(192.65625 0)"/>
     <use xlink:href="#ArialMT-4c" transform="translate(248.265625 0)"/>
     <use xlink:href="#ArialMT-53" transform="translate(270.484375 0)"/>
     <use xlink:href="#ArialMT-3" transform="translate(326.09375 0)"/>
     <use xlink:href="#ArialMT-12" transform="translate(353.875 0)"/>
     <use xlink:href="#ArialMT-3" transform="translate(381.65625 0)"/>
     <use xlink:href="#ArialMT-47" transform="translate(409.4375 0)"/>
     <use xlink:href="#ArialMT-4c" transform="translate(465.046875 0)"/>
     <use xlink:href="#ArialMT-56" transform="translate(487.265625 0)"/>
     <use xlink:href="#ArialMT-46" transform="translate(537.265625 0)"/>
     <use xlink:href="#ArialMT-55" transform="translate(587.265625 0)"/>
     <use xlink:href="#ArialMT-48" transform="translate(620.5625 0)"/>
     <use xlink:href="#ArialMT-57" transform="translate(676.171875 0)"/>
     <use xlink:href="#ArialMT-48" transform="translate(703.953125 0)"/>
     <use xlink:href="#ArialMT-3" transform="translate(759.5625 0)"/>
     <use xlink:href="#ArialMT-50" transform="translate(787.34375 0)"/>
     <use xlink:href="#ArialMT-52" transform="translate(870.640625 0)"/>
     <use xlink:href="#ArialMT-47" transform="translate(926.25 0)"/>
     <use xlink:href="#ArialMT-58" transform="translate(981.859375 0)"/>
     <use xlink:href="#ArialMT-4f" transform="translate(1037.46875 0)"/>
     <use xlink:href="#ArialMT-48" transform="translate(1059.6875 0)"/>
    </g>
   </g>
  </g>
 </g>
 <defs>
  <clipPath id="p1cdb1a3ea3">
   <rect x="45.3312" y="40.4352" width="279.5424" height="121.3056"/>
  </clipPath>
 </defs>
</svg>
