<svg xmlns="http://www.w3.org/2000/svg" viewBox="0 0 720 360" role="img">
  <title>Tools become environments preview</title>
  <desc>Side-by-side diagram contrasting an opaque tool wrapper with an architecture environment contract that exposes legal actions, observations, costs, provenance, invalid-action semantics, and failure signals. The environment produces interpretable feedback, while the bounded study must relate that feedback to a claim and comparison before treating it as evidence.</desc>
  <defs>
    <marker id="arrow" viewBox="0 0 10 10" refX="9" refY="5" markerWidth="8" markerHeight="8" orient="auto">
      <path d="M 0 0 L 10 5 L 0 10 z" fill="#333333"/>
    </marker>
    <marker id="arrow-blue" viewBox="0 0 10 10" refX="9" refY="5" markerWidth="8" markerHeight="8" orient="auto">
      <path d="M 0 0 L 10 5 L 0 10 z" fill="#1683A6"/>
    </marker>
    <style>
      .font { font-family: sans-serif; }
      .title { font-size: 17px; font-weight: 700; fill: #222222; }
      .label { font-size: 13.5px; font-weight: 700; fill: #222222; }
      .small { font-size: 11.4px; fill: #444444; }
      .note { font-size: 12px; font-weight: 700; fill: #1683A6; }
      .left-panel { fill: #FBF0DE; stroke: #E68A17; stroke-width: 1.5; }
      .right-panel { fill: #E7F5EC; stroke: #1E9E48; stroke-width: 1.5; }
      .tool-box { fill: #FFFFFF; stroke: #E68A17; stroke-width: 1.2; }
      .contract-box { fill: #FFFFFF; stroke: #1E9E48; stroke-width: 1.2; }
      .warn-box { fill: #FDECEC; stroke: #DE3D3C; stroke-width: 1.2; }
      .feedback-box { fill: #E7F5EC; stroke: #1E9E48; stroke-width: 1.2; }
      .evidence-box { fill: #E4F1F6; stroke: #1683A6; stroke-width: 1.2; }
      .arrow { stroke: #333333; stroke-width: 1.8; fill: none; stroke-linecap: square; }
      .blue-arrow { stroke: #1683A6; stroke-width: 2.1; fill: none; stroke-linecap: square; }
      .glyph { fill: none; stroke: currentColor; stroke-width: 1.7; stroke-linecap: round; stroke-linejoin: round; }
      .glyph-tool { color: #E68A17; }
      .glyph-env { color: #1E9E48; }
    </style>
  </defs>

  <rect width="720" height="360" fill="#FFFFFF"/>
  <g class="font">
    <rect class="left-panel" x="45" y="42" width="250" height="224"/>
    <g class="glyph glyph-tool" transform="translate(78 56)">
      <path d="M 17 3 L 21 7 L 10 18 L 6 18 L 6 14 Z"/>
      <path d="M 5 21 L 2 24"/>
      <path d="M 13 7 L 17 11"/>
    </g>
    <text class="title" x="112" y="72">tool wrapper</text>
    <text class="small" x="112" y="94">connects a method to a tool</text>

    <rect class="tool-box" x="88" y="116" width="164" height="38"/>
    <text class="label" x="170" y="140" text-anchor="middle">call tool</text>

    <rect class="tool-box" x="88" y="170" width="164" height="38"/>
    <text class="label" x="170" y="194" text-anchor="middle">get score or log</text>

    <rect class="warn-box" x="76" y="224" width="188" height="28"/>
    <text class="small" x="170" y="243" text-anchor="middle">hidden semantics stay hidden</text>

    <line class="arrow" x1="170" y1="154" x2="170" y2="170" marker-end="url(#arrow)"/>
    <line class="arrow" x1="170" y1="208" x2="170" y2="224" marker-end="url(#arrow)"/>

    <line class="blue-arrow" x1="312" y1="154" x2="388" y2="154" marker-end="url(#arrow-blue)"/>
    <text class="note" x="353" y="136" text-anchor="middle">expose</text>
    <text class="note" x="353" y="174" text-anchor="middle">contract</text>

    <rect class="right-panel" x="400" y="30" width="295" height="260"/>
    <g class="glyph glyph-env" transform="translate(424 43)">
      <rect x="0" y="0" width="22" height="24"/>
      <path d="M 5 9 L 9 13 L 17 5"/>
      <path d="M 5 19 L 17 19"/>
    </g>
    <text class="title" x="460" y="60">architecture environment</text>
    <text class="small" x="460" y="82">makes tool feedback interpretable</text>

    <rect class="contract-box" x="428" y="105" width="112" height="38"/>
    <text class="label" x="484" y="129" text-anchor="middle">legal actions</text>

    <rect class="contract-box" x="555" y="105" width="112" height="38"/>
    <text class="label" x="611" y="129" text-anchor="middle">observations</text>

    <rect class="contract-box" x="428" y="155" width="112" height="38"/>
    <text class="label" x="484" y="179" text-anchor="middle">cost/fidelity</text>

    <rect class="contract-box" x="555" y="155" width="112" height="38"/>
    <text class="label" x="611" y="179" text-anchor="middle">provenance</text>

    <rect class="contract-box" x="428" y="205" width="112" height="48"/>
    <text class="label" x="484" y="225" text-anchor="middle">invalid-action</text>
    <text class="label" x="484" y="241" text-anchor="middle">semantics</text>

    <rect class="contract-box" x="555" y="205" width="112" height="48"/>
    <text class="label" x="611" y="225" text-anchor="middle">failure / stop</text>
    <text class="label" x="611" y="241" text-anchor="middle">signals</text>

    <rect class="feedback-box" x="96" y="306" width="222" height="42"/>
    <text class="label" x="207" y="324" text-anchor="middle">interpretable feedback</text>
    <text class="small" x="207" y="340" text-anchor="middle">contract gives results meaning</text>

    <line class="blue-arrow" x1="330" y1="327" x2="390" y2="327" marker-end="url(#arrow-blue)"/>
    <text class="small" x="360" y="317" text-anchor="middle">study context</text>

    <rect class="evidence-box" x="402" y="306" width="222" height="42"/>
    <text class="label" x="513" y="324" text-anchor="middle">evidence for a claim</text>
    <text class="small" x="513" y="340" text-anchor="middle">comparison + scope + review</text>
  </g>
</svg>
