<?xml version="1.0" encoding="utf-8"?>
<svg xmlns="http://www.w3.org/2000/svg" viewBox="0 54 900 466" role="img">
  <title>Hardware/software co-evolution study</title>
  <desc>A two-lane Architecture 2.0 study in which hardware target state and software code paths evolve together through a shared study record and accountable review of an architectural claim.</desc>
  <defs>
    <marker id="arrow" viewBox="0 0 10 10" refX="9" refY="5" markerWidth="8" markerHeight="8" orient="auto">
      <path d="M 0 0 L 10 5 L 0 10 z" fill="#333333"/>
    </marker>
    <marker id="arrow-blue" viewBox="0 0 10 10" refX="9" refY="5" markerWidth="7" markerHeight="7" orient="auto">
      <path d="M 0 0 L 10 5 L 0 10 z" fill="#1683A6"/>
    </marker>
    <style>
      .font { font-family: Arial, Helvetica, sans-serif; }
      .lane-label { font-size: 14px; font-weight: 700; fill: #66717A; letter-spacing: 0; }
      .label { font-size: 15.5px; font-weight: 700; fill: #222222; }
      .body { font-size: 13.2px; fill: #444444; }
      .micro { font-size: 13.2px; fill: #555555; }
      .note { font-size: 14px; font-weight: 700; fill: #1683A6; }
      .hw-panel { fill: #F0ECFA; stroke: #1683A6; stroke-width: 1.2; }
      .sw-panel { fill: #F0ECFA; stroke: #1683A6; stroke-width: 1.2; }
      .hw { fill: #E4F1F6; stroke: #1683A6; stroke-width: 1.4; }
      .sw { fill: #E4F1F6; stroke: #1683A6; stroke-width: 1.4; }
      .evidence { fill: #E4F1F6; stroke: #1683A6; stroke-width: 1.5; }
      .gate { fill: #FDECEC; stroke: #DE3D3C; stroke-width: 1.4; }
      .takeaway { fill: #F5F8FA; stroke: #9AA8B5; stroke-width: 1.3; }
      .arrow { stroke: #333333; stroke-width: 1.8; fill: none; stroke-linecap: square; stroke-linejoin: miter; }
      .blue-arrow { stroke: #1683A6; stroke-width: 1.55; fill: none; stroke-linecap: square; stroke-linejoin: miter; opacity: 0.92; }
      .pin { stroke: #1683A6; stroke-width: 1.3; fill: none; stroke-linecap: square; }
      .code { stroke: #1683A6; stroke-width: 1.4; fill: none; stroke-linecap: square; stroke-linejoin: miter; }
    </style>
  </defs>
  <rect y="54" width="900" height="466" fill="#FFFFFF"/>
  <g class="font">
    <rect class="hw-panel" x="54" y="86" width="348" height="248" rx="5"/>
    <text class="lane-label" x="80" y="112" style="white-space: pre;">HARDWARE TARGET STATE</text>
    <g>
      <rect x="354" y="108" width="24" height="24" rx="3" fill="#FFFFFF" stroke="#1683A6" stroke-width="1.5"/>
      <line class="pin" x1="348" y1="114" x2="354" y2="114"/>
      <line class="pin" x1="348" y1="126" x2="354" y2="126"/>
      <line class="pin" x1="378" y1="114" x2="384" y2="114"/>
      <line class="pin" x1="378" y1="126" x2="384" y2="126"/>
      <line class="pin" x1="360" y1="102" x2="360" y2="108"/>
      <line class="pin" x1="372" y1="102" x2="372" y2="108"/>
      <line class="pin" x1="360" y1="132" x2="360" y2="138"/>
      <line class="pin" x1="372" y1="132" x2="372" y2="138"/>
    </g>
    <rect class="hw" x="92" y="136" width="236" height="46" rx="4"/>
    <text class="label" x="210" y="154" text-anchor="middle" style="white-space: pre;">target spec</text>
    <text class="body" x="210" y="171" text-anchor="middle" style="white-space: pre;">workload, budget, legal knobs</text>
    <rect class="hw" x="92" y="206" width="236" height="46" rx="4"/>
    <text class="label" x="210" y="224" text-anchor="middle" style="white-space: pre;">hardware snapshot</text>
    <text class="body" x="210" y="241" text-anchor="middle" style="white-space: pre;">ISA, memory, timing state</text>
    <rect class="hw" x="92" y="276" width="236" height="46" rx="4"/>
    <text class="label" x="210" y="294" text-anchor="middle" style="white-space: pre;">implementation hooks</text>
    <text class="body" x="210" y="311" text-anchor="middle" style="white-space: pre;">simulator, RTL, counters</text>
    <rect class="sw-panel" x="498" y="86" width="348" height="248" rx="5"/>
    <text class="lane-label" x="524" y="112" style="white-space: pre;">SOFTWARE PATH STATE</text>
    <g>
      <rect x="794" y="100" width="44" height="28" rx="4" fill="#FFFFFF" stroke="#1683A6" stroke-width="1.5"/>
      <path class="code" d="M 807 108 L 801 114 L 807 120"/>
      <path class="code" d="M 825 108 L 831 114 L 825 120"/>
      <line class="code" x1="812" y1="122" x2="820" y2="106"/>
    </g>
    <rect class="sw" x="572" y="136" width="236" height="46" rx="4"/>
    <text class="label" x="690" y="154" text-anchor="middle" style="white-space: pre;">software interface</text>
    <text class="body" x="690" y="171" text-anchor="middle" style="white-space: pre;">compiler, runtime, API</text>
    <rect class="sw" x="572" y="206" width="236" height="46" rx="4"/>
    <text class="label" x="690" y="224" text-anchor="middle" style="white-space: pre;">generated path</text>
    <text class="body" x="690" y="241" text-anchor="middle" style="white-space: pre;">kernels, schedules, libraries</text>
    <rect class="sw" x="572" y="276" width="236" height="46" rx="4"/>
    <text class="label" x="690" y="294" text-anchor="middle" style="white-space: pre;">workload feedback</text>
    <text class="body" x="690" y="311" text-anchor="middle" style="white-space: pre;">tests, profiles, failures</text>
    <line class="arrow" x1="328" y1="159" x2="572" y2="159" marker-end="url(#arrow)"/>
    <rect x="395" y="135" width="110" height="26" fill="#FFFFFF" opacity="0.94"/>
    <text class="micro" x="450" y="151" text-anchor="middle" style="white-space: pre;">exposes knobs</text>
    <line class="blue-arrow" x1="572" y1="229" x2="328" y2="229" marker-end="url(#arrow-blue)"/>
    <rect x="390" y="228" width="120" height="26" fill="#FFFFFF" opacity="0.94"/>
    <text class="micro" x="450" y="244" text-anchor="middle" fill="#1683A6" style="white-space: pre;">changes target</text>
    <rect class="evidence" x="178" y="354" width="544" height="58" rx="5"/>
    <text class="label" x="450" y="377" text-anchor="middle" style="white-space: pre;">shared study record</text>
    <text class="body" x="450" y="396" text-anchor="middle" style="white-space: pre;">hardware snapshot, software artifact, tests, metrics, rejected variants</text>
    <line class="arrow" x1="210" y1="322" x2="210" y2="354" marker-end="url(#arrow)"/>
    <line class="arrow" x1="690" y1="322" x2="690" y2="354" marker-end="url(#arrow)"/>
    <rect class="gate" x="340" y="425" width="220" height="42" rx="4"/>
    <text class="label" x="450" y="443" text-anchor="middle" style="white-space: pre;">accountable claim review</text>
    <text class="body" x="450" y="459" text-anchor="middle" style="white-space: pre;">accept / reject / revise</text>
    <line class="arrow" x1="450" y1="412" x2="450" y2="425" marker-end="url(#arrow)"/>
    <path class="blue-arrow" d="M 340 446 L 42 446 L 42 159 L 92 159" marker-end="url(#arrow-blue)"/>
    <path class="blue-arrow" d="M 560 446 L 858 446 L 858 159 L 808 159" marker-end="url(#arrow-blue)"/>
    <rect class="takeaway" x="118" y="482" width="664" height="30" rx="2"/>
    <text class="note" x="450" y="502" text-anchor="middle" style="white-space: pre;">version both sides, then record the claim and decision</text>
  </g>
</svg>
