<svg xmlns="http://www.w3.org/2000/svg" viewBox="0 0 720 486" role="img">
  <title>Architecture 2.0 ontology chain</title>
  <desc>A page-native Architecture 2.0 ontology loop showing intent, task, and design space; representation and world model; tools and environment; compound methods; feedback and evidence; and the artifact or revised loop.</desc>
  <defs>
    <marker id="arrow" viewBox="0 0 10 10" refX="9" refY="5" markerWidth="8" markerHeight="8" orient="auto-start-reverse">
      <path d="M 0 0 L 10 5 L 0 10 z" fill="#333333"/>
    </marker>
    <marker id="arrow-blue" viewBox="0 0 10 10" refX="9" refY="5" markerWidth="8" markerHeight="8" orient="auto-start-reverse">
      <path d="M 0 0 L 10 5 L 0 10 z" fill="#356C8C"/>
    </marker>
    <style>
      .font { font-family: Arial, Helvetica, sans-serif; }
      .box { fill: #ffffff; stroke: #333333; stroke-width: 1.5; }
      .intent { stroke: #4C78A8; fill: #F2F7FC; }
      .rep { stroke: #54A24B; fill: #F4FAF2; }
      .env { stroke: #D88A30; fill: #FFF8EE; }
      .method { stroke: #7E6AA8; fill: #F8F5FC; }
      .evidence { stroke: #C44E52; fill: #FFF4F4; }
      .artifact { stroke: #6A6A6A; fill: #F6F6F6; }
      .label { font-size: 20px; font-weight: 700; fill: #222222; }
      .small { font-size: 13px; fill: #444444; }
      .tag { font-size: 12px; font-weight: 700; fill: #666666; letter-spacing: 0; }
      .arrow { stroke: #333333; stroke-width: 1.8; fill: none; stroke-linecap: square; stroke-linejoin: miter; }
      .feedback { stroke: #356C8C; stroke-width: 2; fill: none; stroke-linecap: square; stroke-linejoin: miter; }
      .feedback-text { font-size: 12px; fill: #356C8C; font-weight: 700; }
    </style>
  </defs>

  <rect width="720" height="486" fill="#ffffff"/>
  <g class="font" transform="translate(0,-54)">

    <rect class="box intent" x="70" y="92" width="520" height="58"/>
    <text class="tag" x="92" y="116">1</text>
    <text class="label" x="130" y="116">Intent + task + design space</text>
    <text class="small" x="130" y="137">goals, legal choices, constraints, risk, and bounded work</text>

    <rect class="box rep" x="70" y="176" width="520" height="58"/>
    <text class="tag" x="92" y="200">2</text>
    <text class="label" x="130" y="200">Representation + world model</text>
    <text class="small" x="130" y="221">encoded state and beliefs about how actions change outcomes</text>

    <rect class="box env" x="70" y="260" width="520" height="58"/>
    <text class="tag" x="92" y="284">3</text>
    <text class="label" x="130" y="284">Tools + environment</text>
    <text class="small" x="130" y="305">valid actions, observations, feedback latency, and failures</text>

    <rect class="box method" x="70" y="344" width="520" height="58"/>
    <text class="tag" x="92" y="368">4</text>
    <text class="label" x="130" y="368">Compound method system</text>
    <text class="small" x="130" y="389">generator, predictor, optimizer, critic, verifier, and coordinator roles</text>

    <rect class="box evidence" x="70" y="428" width="520" height="58"/>
    <text class="tag" x="92" y="452">5</text>
    <text class="label" x="130" y="452">Feedback + evidence + decision</text>
    <text class="small" x="130" y="473">provenance, fidelity, uncertainty, rejection, and commitment</text>

    <rect class="box artifact" x="205" y="506" width="250" height="25"/>
    <text class="small" x="330" y="523" text-anchor="middle">artifact accepted or loop revised</text>

    <line class="arrow" x1="330" y1="150" x2="330" y2="176" marker-end="url(#arrow)"/>
    <line class="arrow" x1="330" y1="234" x2="330" y2="260" marker-end="url(#arrow)"/>
    <line class="arrow" x1="330" y1="318" x2="330" y2="344" marker-end="url(#arrow)"/>
    <line class="arrow" x1="330" y1="402" x2="330" y2="428" marker-end="url(#arrow)"/>
    <line class="arrow" x1="330" y1="486" x2="330" y2="506" marker-end="url(#arrow)"/>

    <path class="feedback" d="M 590 457 L 650 457 L 650 205 L 590 205" marker-end="url(#arrow-blue)"/>
    <rect x="596" y="302" width="108" height="40" fill="#ffffff" opacity="0.95"/>
    <text class="feedback-text" x="650" y="319" text-anchor="middle">rejection</text>
    <text class="feedback-text" x="650" y="335" text-anchor="middle">revises state</text>
  </g>
</svg>
