<svg xmlns="http://www.w3.org/2000/svg" width="64" height="64" viewBox="0 0 64 64" fill="none">
  <g transform="rotate(0.00 32.0 32.0)"><rect x="29.30" y="14.50" width="5.40" height="5.20" rx="1.4" fill="none" stroke="#6E851C" stroke-width="2.80" stroke-linejoin="round"/></g><g transform="rotate(45.00 32.0 32.0)"><rect x="29.30" y="14.50" width="5.40" height="5.20" rx="1.4" fill="none" stroke="#6E851C" stroke-width="2.80" stroke-linejoin="round"/></g><g transform="rotate(90.00 32.0 32.0)"><rect x="29.30" y="14.50" width="5.40" height="5.20" rx="1.4" fill="none" stroke="#6E851C" stroke-width="2.80" stroke-linejoin="round"/></g><g transform="rotate(135.00 32.0 32.0)"><rect x="29.30" y="14.50" width="5.40" height="5.20" rx="1.4" fill="none" stroke="#6E851C" stroke-width="2.80" stroke-linejoin="round"/></g><g transform="rotate(180.00 32.0 32.0)"><rect x="29.30" y="14.50" width="5.40" height="5.20" rx="1.4" fill="none" stroke="#6E851C" stroke-width="2.80" stroke-linejoin="round"/></g><g transform="rotate(225.00 32.0 32.0)"><rect x="29.30" y="14.50" width="5.40" height="5.20" rx="1.4" fill="none" stroke="#6E851C" stroke-width="2.80" stroke-linejoin="round"/></g><g transform="rotate(270.00 32.0 32.0)"><rect x="29.30" y="14.50" width="5.40" height="5.20" rx="1.4" fill="none" stroke="#6E851C" stroke-width="2.80" stroke-linejoin="round"/></g><g transform="rotate(315.00 32.0 32.0)"><rect x="29.30" y="14.50" width="5.40" height="5.20" rx="1.4" fill="none" stroke="#6E851C" stroke-width="2.80" stroke-linejoin="round"/></g><circle cx="32.0" cy="32.0" r="13.5" fill="none" stroke="#6E851C" stroke-width="2.80"/><circle cx="32.0" cy="32.0" r="5.7" fill="none" stroke="#6E851C" stroke-width="2.80"/>
</svg>
