<?xml version="1.0" encoding="utf-8"?>
<svg xmlns="http://www.w3.org/2000/svg" viewBox="0 84 820 295" role="img">
  <title>F6b Chipyard framework</title>
  <desc>A bounded flow diagram showing the Chipyard configuration system, Chisel generators, FIRRTL compiler, and simulation, synthesis, and emulation backends.</desc>
  <defs>
    <marker id="arrow" viewBox="0 0 10 10" refX="9" refY="5" markerWidth="7" markerHeight="7" orient="auto-start-reverse">
      <path d="M 0 0 L 10 5 L 0 10 z" fill="#333333"/>
    </marker>
    <style>
      .font { font-family: sans-serif; }
      .label { font-size: 14px; font-weight: 700; fill: #202020; }
      .small { font-size: 12px; fill: #303030; }
      .micro { font-size: 11px; fill: #555555; }
      .panel { fill: #F5F8FA; stroke: #9AA8B5; stroke-width: 1.4; }
      .config { fill: #FBF0DE; stroke: #E68A17; stroke-width: 1.3; }
      .generator { fill: #FBF0DE; stroke: #E68A17; stroke-width: 1.3; }
      .compiler { fill: #FBF0DE; stroke: #E68A17; stroke-width: 1.3; }
      .backend { fill: #FBF0DE; stroke: #E68A17; stroke-width: 1.3; }
      .line { stroke: #333333; stroke-width: 1.45; fill: none; stroke-linecap: round; stroke-linejoin: round; marker-end: url(#arrow); }
      .tag { fill: #FFFFFF; stroke: #1683A6; stroke-width: 0.8; }
      .tagtext { font-size: 11px; font-weight: 700; fill: #303030; }
    </style>
  </defs>
  <rect x="0" y="84" width="820" height="295" fill="#FFFFFF"/>
  <rect class="panel" x="48" y="112" width="724" height="239"/>
  <g class="font">
    <rect class="config" x="72" y="148" width="166" height="76"/>
    <text class="label" x="155" y="178" text-anchor="middle" style="white-space: pre;">Configuration</text>
    <text class="label" x="155" y="198" text-anchor="middle" style="white-space: pre;">system</text>
    <rect class="generator" x="312" y="138.491" width="174" height="90.395" style=""/>
    <text class="label" x="399" y="162" text-anchor="middle" style="white-space: pre;">Chisel generators</text>
    <text class="small" x="399" y="183" text-anchor="middle" style="white-space: pre; font-size: 12px;">Rocket</text>
    <text class="small" x="399" y="202" text-anchor="middle" style="white-space: pre; font-size: 12px;">BOOM</text>
    <text class="small" x="399" y="221" text-anchor="middle" style="white-space: pre; font-size: 12px;">Hwacha</text>
    <rect class="compiler" x="560" y="148" width="150" height="76"/>
    <text class="label" x="635" y="178" text-anchor="middle" style="white-space: pre;">FIRRTL</text>
    <text class="label" x="635" y="198" text-anchor="middle" style="white-space: pre;">compiler</text>
    <path class="line" d="M 238 186 C 266 186, 284 186, 312 186"/>
    <rect class="tag" x="240" y="157" width="70" height="22"/>
    <text class="tagtext" x="275" y="172" text-anchor="middle" style="white-space: pre; font-size: 11px;">parameters</text>
    <path class="line" d="M 486 186 C 514 186, 532 186, 560 186"/>
    <rect class="backend" x="160" y="270" width="150" height="54"/>
    <text class="label" x="235" y="292" text-anchor="middle" style="white-space: pre;">RTL simulation</text>
    <text class="micro" x="235" y="310" text-anchor="middle" style="white-space: pre;">Verilator, VCS</text>
    <rect class="backend" x="338" y="270" width="150" height="54"/>
    <text class="label" x="413" y="292" text-anchor="middle" style="white-space: pre;">VLSI flow</text>
    <text class="micro" x="413" y="310" text-anchor="middle" style="white-space: pre;">Hammer</text>
    <rect class="backend" x="516" y="270" width="150" height="54"/>
    <text class="label" x="591" y="292" text-anchor="middle" style="white-space: pre;">FPGA emulation</text>
    <text class="micro" x="591" y="310" text-anchor="middle" style="white-space: pre;">FireSim</text>
    <polyline points="635,224 635,236 235,236" fill="none" stroke="#333333" stroke-width="1.45" stroke-linecap="round" stroke-linejoin="round"/>
    <line class="line" x1="235" y1="236" x2="235" y2="270" marker-end="url(#arrow)"/>
    <line class="line" x1="413" y1="236" x2="413" y2="270" marker-end="url(#arrow)"/>
    <line class="line" x1="591" y1="236" x2="591" y2="270" marker-end="url(#arrow)"/>
    <rect class="tag" x="207" y="240" width="56" height="22"/>
    <text class="tagtext" x="235" y="255" text-anchor="middle" style="white-space: pre; font-size: 11px;">simulate</text>
    <rect class="tag" x="375" y="240" width="76" height="22"/>
    <text class="tagtext" x="413" y="255" text-anchor="middle" style="white-space: pre; font-size: 11px;">synthesize</text>
    <rect class="tag" x="562" y="240" width="58" height="22"/>
    <text class="tagtext" x="591" y="255" text-anchor="middle" style="white-space: pre; font-size: 11px;">emulate</text>
  </g>
</svg>
