<svg xmlns="http://www.w3.org/2000/svg" viewBox="0 0 720 360" role="img">
  <title>Runnable receipt bundle</title>
  <desc>Diagram showing a runnable receipt as a reviewable bundle of task, input, candidate, run, evidence, and decision artifacts rather than only a winning candidate.</desc>
  <defs>
    <style>
      .font { font-family: Arial, Helvetica, sans-serif; }
      .title { font-size: 17px; font-weight: 700; fill: #222222; }
      .label { font-size: 13.4px; font-weight: 700; fill: #222222; }
      .small { font-size: 11.2px; fill: #444444; }
      .note { font-size: 12px; font-weight: 700; fill: #1683A6; }
      .bundle { fill: #F5F8FA; stroke: #9AA8B5; stroke-width: 1.5; }
      .folder { fill: #F5F8FA; stroke: #9AA8B5; stroke-width: 1.1; }
      .file { fill: #F5F8FA; stroke: #9AA8B5; stroke-width: 1.1; }
      .decision { fill: #FDECEC; stroke: #DE3D3C; stroke-width: 1.1; }
      .bar { fill: #F5F8FA; stroke: #9AA8B5; stroke-width: 1.1; }
      .glyph { fill: none; stroke: currentColor; stroke-width: 1.45; stroke-linecap: round; stroke-linejoin: round; }
      .glyph-bundle { color: #9AA8B5; }
      .glyph-file { color: #9AA8B5; }
      .glyph-folder { color: #9AA8B5; }
      .glyph-decision { color: #DE3D3C; }
    </style>
  </defs>

  <rect width="720" height="360" fill="#FFFFFF"/>
  <g class="font">
    <rect class="bundle" x="70" y="42" width="580" height="238"/>
    <g class="glyph glyph-bundle" transform="translate(260 58)">
      <rect x="0" y="0" width="22" height="24"/>
      <path d="M 5 8 L 17 8"/>
      <path d="M 5 14 L 17 14"/>
      <path d="M 5 20 L 13 20"/>
    </g>
    <text class="title" x="294" y="75" text-anchor="start">runnable receipt bundle</text>
    <text class="small" x="294" y="96" text-anchor="start">the reviewable residue of one loop turn</text>

    <rect class="file" x="88" y="122" width="124" height="42"/>
    <g class="glyph glyph-file" transform="translate(100 132)">
      <rect x="0" y="0" width="13" height="18"/>
      <path d="M 4 7 L 10 7"/>
      <path d="M 4 12 L 9 12"/>
    </g>
    <text class="label" x="124" y="140">README.md</text>
    <text class="small" x="124" y="156">claim boundary</text>

    <rect class="folder" x="224" y="122" width="124" height="42"/>
    <g class="glyph glyph-folder" transform="translate(236 133)">
      <path d="M 0 4 L 7 4 L 10 7 L 19 7 L 19 18 L 0 18 Z"/>
    </g>
    <text class="label" x="260" y="140">inputs/</text>
    <text class="small" x="260" y="156">workload state</text>

    <rect class="folder" x="360" y="122" width="132" height="42"/>
    <g class="glyph glyph-folder" transform="translate(372 133)">
      <path d="M 0 4 L 7 4 L 10 7 L 19 7 L 19 18 L 0 18 Z"/>
    </g>
    <text class="label" x="396" y="140">prompts/</text>
    <text class="small" x="396" y="156">agent trace</text>

    <rect class="folder" x="496" y="122" width="148" height="42"/>
    <g class="glyph glyph-folder" transform="translate(508 133)">
      <path d="M 0 4 L 7 4 L 10 7 L 19 7 L 19 18 L 0 18 Z"/>
    </g>
    <text class="label" x="532" y="140">candidates/</text>
    <text class="small" x="532" y="156">records and rejects</text>

    <rect class="folder" x="88" y="205" width="124" height="42"/>
    <g class="glyph glyph-folder" transform="translate(100 216)">
      <path d="M 0 4 L 7 4 L 10 7 L 19 7 L 19 18 L 0 18 Z"/>
    </g>
    <text class="label" x="124" y="223">runs/proxy/</text>
    <text class="small" x="124" y="239">cheap screens</text>

    <rect class="folder" x="224" y="205" width="124" height="42"/>
    <g class="glyph glyph-folder" transform="translate(236 216)">
      <path d="M 0 4 L 7 4 L 10 7 L 19 7 L 19 18 L 0 18 Z"/>
    </g>
    <text class="label" x="260" y="223">runs/sim/</text>
    <text class="small" x="259" y="239">stronger checks</text>

    <rect class="folder" x="356" y="205" width="136" height="42"/>
    <g class="glyph glyph-folder" transform="translate(368 216)">
      <path d="M 0 4 L 7 4 L 10 7 L 19 7 L 19 18 L 0 18 Z"/>
    </g>
    <text class="label" x="392" y="223">evidence/</text>
    <text class="small" x="392" y="239">support + limits</text>

    <rect class="decision" x="496" y="205" width="124" height="42"/>
    <g class="glyph glyph-decision" transform="translate(508 216)">
      <path d="M 2 9 L 7 14 L 17 3"/>
      <path d="M 2 18 L 16 18"/>
    </g>
    <text class="label" x="532" y="223">decisions/</text>
    <text class="small" x="532" y="239">owner and next</text>

    <rect class="bar" x="76" y="302" width="568" height="42"/>
    <text class="note" x="360" y="320" text-anchor="middle">the reusable artifact is not the winner alone</text>
    <text class="note" x="360" y="336" text-anchor="middle">it is the inputs, failures, evidence, and decision path</text>
  </g>
</svg>
