<?xml version="1.0" encoding="utf-8"?>
<svg xmlns="http://www.w3.org/2000/svg" viewBox="50 20 650 330" role="img">
  <title>F8 Loop Beat</title>
  
  <defs>
    <marker id="arrow" viewBox="0 0 10 10" refX="9" refY="5" markerWidth="6" markerHeight="6" orient="auto-start-reverse">
      <path d="M 0 0 L 10 5 L 0 10 z" fill="#444444"/>
    </marker>

    <style>
      .font { font-family: sans-serif; }
      .title { font-size: 16px; font-weight: 700; fill: #202020; }
      .label { font-size: 14.4px; font-weight: 700; fill: #202020; }
      .label-white { font-size: 14.4px; font-weight: 700; fill: #FFFFFF; }
      .small { font-size: 9.2px; fill: #303030; }
      .center { font-size: 12.0px; font-weight: 700; fill: #202020; }
      .center-white { font-size: 12.0px; font-weight: 700; fill: #FFFFFF; }
      .note { font-size: 10.4px; font-weight: 700; fill: #1F5F7A; }
      .muted { font-size: 8.8px; fill: #555555; }
      .label-bg { fill: #FFFFFF; opacity: 0.94; }
      .line { stroke: #444444; stroke-width: 1.15; fill: none; }
      .line-dashed { stroke: #444444; stroke-width: 1.15; fill: none; stroke-dasharray: 4,4; }
      .thin { stroke: #6F7E86; stroke-width: 1.05; fill: none; }
      .arrow-end { marker-end: url(#arrow); }
      .glyph { fill: none; stroke: currentColor; stroke-width: 1.4; stroke-linecap: round; stroke-linejoin: round; }
      .glyph-agent { color: #6F5AA8; }
      .glyph-env { color: #D88A30; }
      .glyph-human { color: #C44E52; }
    </style>
  </defs>
  <rect x="50" y="20" width="650" height="330" fill="#FFFFFF"/>
  
  <g class="font">
    
    <!-- Entities -->
    <g class="glyph glyph-agent" transform="translate(181 24)">
      <rect x="0" y="4" width="18" height="14"/>
      <path d="M 4 0 L 4 4"/>
      <path d="M 9 0 L 9 4"/>
      <path d="M 14 0 L 14 4"/>
      <path d="M 4 18 L 4 22"/>
      <path d="M 9 18 L 9 22"/>
      <path d="M 14 18 L 14 22"/>
    </g>
    <rect x="150" y="50" width="80" height="30" fill="#6F5AA8" stroke="#6F5AA8"/>
    <text class="center-white" x="190" y="70" text-anchor="middle">AI Agent</text>
    
    <g class="glyph glyph-env" transform="translate(331 24)">
      <rect x="0" y="0" width="18" height="22"/>
      <path d="M 4 8 L 8 12 L 15 5"/>
      <path d="M 4 17 L 14 17"/>
    </g>
    <rect x="300" y="50" width="80" height="30" fill="#6F5AA8" stroke="#6F5AA8"/>
    <text class="center-white" x="340" y="70" text-anchor="middle">Environment</text>
    
    <g class="glyph glyph-human" transform="translate(482 24)">
      <circle cx="8" cy="5" r="3.8"/>
      <path d="M 2 21 C 4 14, 6 12, 8 12 C 10 12, 12 14, 14 21"/>
    </g>
    <rect x="450" y="50" width="80" height="30" fill="#C44E52" stroke="#C44E52"/>
    <text class="center-white" x="490" y="70" text-anchor="middle">Architect</text>
    
    <!-- Lifelines -->
    <path class="line-dashed" d="M 190 80 L 190 320"/>
    <path class="line-dashed" d="M 340 80 L 340 320"/>
    <path class="line-dashed" d="M 490 80 L 490 320"/>
    
    <!-- Messages -->
    <path class="line arrow-end" d="M 490 100 L 190 100"/>
    <path class="label-bg" d="M 256 86 H 424 V 100 H 256 Z"/>
    <text class="small" x="340" y="95" text-anchor="middle">High-Level Prompt / Boundaries</text>
    
    <path class="line arrow-end" d="M 190 140 L 340 140"/>
    <path class="label-bg" d="M 212 126 H 318 V 140 H 212 Z"/>
    <text class="small" x="265" y="135" text-anchor="middle">Propose Action/Code</text>
    
    <path class="line arrow-end" d="M 340 180 L 190 180"/>
    <path class="label-bg" d="M 197 166 H 333 V 180 H 197 Z"/>
    <text class="small" x="265" y="175" text-anchor="middle">Feedback / Metrics / Error</text>
    
    <path class="line arrow-end" d="M 190 220 L 340 220"/>
    <path class="label-bg" d="M 220 206 H 310 V 220 H 220 Z"/>
    <text class="small" x="265" y="215" text-anchor="middle">Revise Action</text>

    <path class="line arrow-end" d="M 340 260 L 490 260"/>
    <path class="label-bg" d="M 365 246 H 465 V 260 H 365 Z"/>
    <text class="small" x="415" y="255" text-anchor="middle">Escalate to Review</text>

    <path class="line arrow-end" d="M 490 300 L 190 300"/>
    <path class="label-bg" d="M 287 286 H 393 V 300 H 287 Z"/>
    <text class="small" x="340" y="295" text-anchor="middle">Reject or Approve</text>
  </g>
</svg>
