<svg xmlns="http://www.w3.org/2000/svg" viewBox="0 0 900 713" role="img">
  <title>Comparing a foundation-model pattern with an AI-assisted architecture study</title>
  <desc>A two-panel comparison between a general foundation-model stack and a bounded AI-assisted architecture study that connects architecture inputs to study outputs through representations, tools, experiments, evidence, and architectural judgment.</desc>
  <defs>
    <marker id="arrow" viewBox="0 0 10 10" refX="9" refY="5" markerWidth="7" markerHeight="7" orient="auto-start-reverse">
      <path d="M 0 0 L 10 5 L 0 10 z" fill="#333333"/>
    </marker>
    <style>
      .font { font-family: sans-serif; }
      .title { font-size: 27.6px; font-weight: 700; fill: #202020; }
      .subtitle { font-size: 16.1px; fill: #555555; }
      .label { font-size: 16.1px; font-weight: 700; fill: #202020; }
      .small { font-size: 13.8px; fill: #303030; }
      .micro { font-size: 12.6px; fill: #555555; }
      .panel { fill: #F5F8FA; stroke: #9AA8B5; stroke-width: 1.5; }
      .box-blue { fill: #E4F1F6; stroke: #1683A6; stroke-width: 1.2; }
      .box-green { fill: #F0ECFA; stroke: #6A4FC7; stroke-width: 1.2; }
      .wall { fill: #F5F8FA; stroke: #9AA8B5; stroke-width: 1.6; }
      .line { stroke: #333333; stroke-width: 1.5; fill: none; stroke-linecap: round; stroke-linejoin: round; }
    </style>
  </defs>

  <rect width="900" height="713" fill="#FFFFFF"/>

  <g transform="translate(0,-47)">

  <rect class="panel" x="50" y="82" width="800" height="268"/>
  <text class="font label" x="76" y="112">A. General foundation-model pattern</text>
  <text class="font micro" x="76" y="132">Heterogeneous inputs are embedded into a central foundation and adapted to many downstream tasks.</text>

  <g class="font">
    <text class="label" x="78" y="170">Inputs</text>
    <rect class="box-blue" x="78" y="184" width="210" height="28"/>
    <text class="small" x="96" y="203">Images and video</text>
    <rect class="box-blue" x="78" y="220" width="210" height="28"/>
    <text class="small" x="96" y="239">Text and documents</text>
    <rect class="box-blue" x="78" y="256" width="210" height="28"/>
    <text class="small" x="96" y="275">Audio and speech</text>
    <rect class="box-blue" x="78" y="292" width="210" height="28"/>
    <text class="small" x="96" y="311">Code and structured data</text>

    <rect class="wall" x="354" y="172" width="190" height="126"/>
    <g transform="translate(423,188)">
      <rect x="0" y="12" width="52" height="24" fill="#F0ECFA" stroke="#333333" stroke-width="1.1"/>
      <rect x="8" y="6" width="52" height="24" fill="#FFFFFF" stroke="#333333" stroke-width="1.1"/>
      <rect x="16" y="0" width="52" height="24" fill="#F0ECFA" stroke="#333333" stroke-width="1.1"/>
    </g>
    <text class="label" x="449" y="239" text-anchor="middle">Foundation</text>
    <text class="label" x="449" y="260" text-anchor="middle">model</text>
    <text class="micro" x="449" y="282" text-anchor="middle">shared learned substrate</text>

    <text class="label" x="616" y="170">Downstream use cases</text>
    <rect class="box-green" x="616" y="184" width="206" height="28"/>
    <text class="small" x="634" y="203">Question answering</text>
    <rect class="box-green" x="616" y="220" width="206" height="28"/>
    <text class="small" x="634" y="239">Coding assistance</text>
    <rect class="box-green" x="616" y="256" width="206" height="28"/>
    <text class="small" x="634" y="275">Summarization</text>
    <rect class="box-green" x="616" y="292" width="206" height="28"/>
    <text class="small" x="634" y="311">Planning and retrieval</text>
  </g>

  <line class="line" x1="296" y1="235" x2="344" y2="235" marker-end="url(#arrow)"/>
  <line class="line" x1="554" y1="235" x2="606" y2="235" marker-end="url(#arrow)"/>

  <rect class="panel" x="50" y="386" width="800" height="304"/>
  <text class="font label" x="76" y="416">B. Bounded AI-assisted architecture study</text>
  <text class="font micro" x="76" y="436">The center connects architectural representations to tools and experiments under evidence and architect judgment.</text>

  <g class="font">
    <text class="label" x="78" y="472">Architecture inputs</text>
    <rect class="box-blue" x="78" y="482" width="220" height="38"/>
    <text class="small" x="96" y="498">Workload traces</text>
    <text class="small" x="96" y="512">and benchmarks</text>
    <rect class="box-blue" x="78" y="522" width="220" height="38"/>
    <text class="small" x="96" y="538">Specs, constraints,</text>
    <text class="small" x="96" y="552">and budgets</text>
    <rect class="box-blue" x="78" y="562" width="220" height="38"/>
    <text class="small" x="96" y="578">RTL, IP, configs,</text>
    <text class="small" x="96" y="592">and libraries</text>
    <rect class="box-blue" x="78" y="602" width="220" height="38"/>
    <text class="small" x="96" y="618">PDK, EDA, and simulator</text>
    <text class="small" x="96" y="632">assumptions</text>
    <rect class="box-blue" x="78" y="642" width="220" height="38"/>
    <text class="small" x="96" y="658">Verification and</text>
    <text class="small" x="96" y="672">evidence logs</text>

    <rect class="wall" x="350" y="498" width="200" height="172"/>
    <g transform="translate(423,510)">
      <rect x="0" y="0" width="54" height="34" fill="#F0ECFA" stroke="#333333" stroke-width="1.2"/>
      <line x1="-7" y1="8" x2="0" y2="8" stroke="#333333" stroke-width="1.2"/>
      <line x1="-7" y1="17" x2="0" y2="17" stroke="#333333" stroke-width="1.2"/>
      <line x1="-7" y1="26" x2="0" y2="26" stroke="#333333" stroke-width="1.2"/>
      <line x1="54" y1="8" x2="61" y2="8" stroke="#333333" stroke-width="1.2"/>
      <line x1="54" y1="17" x2="61" y2="17" stroke="#333333" stroke-width="1.2"/>
      <line x1="54" y1="26" x2="61" y2="26" stroke="#333333" stroke-width="1.2"/>
      <rect x="17" y="9" width="20" height="16" fill="#FFFFFF" stroke="#333333" stroke-width="1"/>
      <path d="M 20 18 L 25 23 L 36 12" fill="none" stroke="#1683A6" stroke-width="2"/>
    </g>
    <text class="label" x="450" y="566" text-anchor="middle">AI-assisted</text>
    <text class="label" x="450" y="587" text-anchor="middle">architecture study</text>
    <text class="micro" x="450" y="611" text-anchor="middle">representations + tools</text>
    <text class="micro" x="450" y="628" text-anchor="middle">experiments + evidence</text>
    <text class="micro" x="450" y="645" text-anchor="middle">architect judgment</text>

    <text class="label" x="610" y="472">Study outputs</text>
    <rect class="box-green" x="610" y="482" width="220" height="38"/>
    <text class="small" x="628" y="498">ISA and extension</text>
    <text class="small" x="628" y="512">exploration</text>
    <rect class="box-green" x="610" y="522" width="220" height="38"/>
    <text class="small" x="628" y="538">Microarchitecture</text>
    <text class="small" x="628" y="552">proposals</text>
    <rect class="box-green" x="610" y="562" width="220" height="38"/>
    <text class="small" x="628" y="586">Accelerator and SoC options</text>
    <rect class="box-green" x="610" y="602" width="220" height="38"/>
    <text class="small" x="628" y="626">RTL and testbench fragments</text>
    <rect class="box-green" x="610" y="642" width="220" height="38"/>
    <text class="small" x="628" y="658">DSE and verification</text>
    <text class="small" x="628" y="672">packages</text>
  </g>

  <line class="line" x1="306" y1="584" x2="340" y2="584" marker-end="url(#arrow)"/>
  <line class="line" x1="560" y1="584" x2="600" y2="584" marker-end="url(#arrow)"/>

  <rect x="50" y="710" width="800" height="34" fill="#F0ECFA" stroke="#333333" stroke-width="1.1"/>
  <text class="font small" x="450" y="732" text-anchor="middle">AI-assisted studies connect representations, tools, experiments, evidence, and architectural judgment.</text>
  </g>
</svg>
