<?xml version="1.0" encoding="utf-8"?>
<svg xmlns="http://www.w3.org/2000/svg" viewBox="0 0 900 360" role="img">
  <title>Tacit extraction bridge</title>
  <desc>A clean three-column diagram showing how tacit human expertise is extracted by a human architect into explicit loop state that an AI agent can use.</desc>

  <defs>
    <marker id="arrow" viewBox="0 0 10 10" refX="9" refY="5" markerWidth="7" markerHeight="7" orient="auto">
      <path d="M 0 0 L 10 5 L 0 10 z" fill="#333333"/>
    </marker>
    <marker id="arrow-muted" viewBox="0 0 10 10" refX="9" refY="5" markerWidth="7" markerHeight="7" orient="auto">
      <path d="M 0 0 L 10 5 L 0 10 z" fill="#555555"/>
    </marker>

    <style>
      .font { font-family: sans-serif; }
      .label { font-size: 14px; font-weight: 700; fill: #222222; }
      .small { font-size: 11.5px; fill: #444444; }
      .micro { font-size: 10.5px; fill: #555555; }
      .note { font-size: 12px; font-weight: 700; fill: #1F5F7A; }
      .tacit { fill: #F8FAFC; stroke: #9AA8B5; stroke-width: 1.35; }
      .bridge { fill: #F8FAFC; stroke: #9AA8B5; stroke-width: 1.5; }
      .state { fill: #EAF4F8; stroke: #1F5F7A; stroke-width: 1.35; }
      .record { fill: #EAF4F8; stroke: #1F5F7A; stroke-width: 1.25; }
      .warning { fill: #FFF1F2; stroke: #C44E52; stroke-width: 1.25; stroke-dasharray: 5,4; }
      .arrow { stroke: #333333; stroke-width: 2; fill: none; stroke-linecap: square; stroke-linejoin: miter; }
      .muted-arrow { stroke: #555555; stroke-width: 1.45; fill: none; stroke-linecap: square; stroke-linejoin: miter; stroke-dasharray: 4,4; }
      .thin { stroke: #555555; stroke-width: 1.25; fill: none; stroke-linecap: square; stroke-linejoin: miter; }
      .glyph { fill: none; stroke: currentColor; stroke-width: 1.7; stroke-linecap: round; stroke-linejoin: round; }
      .glyph-tacit { color: #9AA8B5; }
      .glyph-bridge { color: #9AA8B5; }
      .glyph-state { color: #1F5F7A; }
      .glyph-record { color: #1F5F7A; }
    </style>
  </defs>

  <rect width="900" height="360" fill="#FFFFFF"/>

  <g class="font">
    <text class="note" x="55" y="42">tacit expertise</text>
    <text class="micro" x="55" y="60">human judgment not yet in the loop state</text>

    <text class="note" x="450" y="42" text-anchor="middle">extraction bridge</text>
    <text class="micro" x="450" y="60" text-anchor="middle">owned by the architect</text>

    <text class="note" x="615" y="42">explicit loop state</text>
    <text class="micro" x="615" y="60">machine-readable constraints and evidence</text>

    <rect class="tacit" x="55" y="84" width="250" height="54"/>
    <g class="glyph glyph-tacit" transform="translate(74 99)">
      <circle cx="9" cy="6" r="4.4"/>
      <path d="M 2 22 C 4 15, 6.5 13, 9 13 C 11.5 13, 14 15, 16 22"/>
      <path d="M 5 22 L 13 22"/>
    </g>
    <text class="label" x="103" y="107">compiler lead</text>
    <text class="small" x="103" y="125">backend legality, lowering limits</text>

    <rect class="tacit" x="55" y="157" width="250" height="54"/>
    <g class="glyph glyph-tacit" transform="translate(74 172)">
      <circle cx="9" cy="6" r="4.4"/>
      <path d="M 2 22 C 4 15, 6.5 13, 9 13 C 11.5 13, 14 15, 16 22"/>
      <path d="M 5 22 L 13 22"/>
    </g>
    <text class="label" x="103" y="180">packaging engineer</text>
    <text class="small" x="103" y="198">power, thermals, manufacturability</text>

    <rect class="tacit" x="55" y="230" width="250" height="54"/>
    <g class="glyph glyph-tacit" transform="translate(74 245)">
      <circle cx="9" cy="6" r="4.4"/>
      <path d="M 2 22 C 4 15, 6.5 13, 9 13 C 11.5 13, 14 15, 16 22"/>
      <path d="M 5 22 L 13 22"/>
    </g>
    <text class="label" x="103" y="253">senior architect</text>
    <text class="small" x="103" y="271">traffic, QoS, product commitments</text>

    <rect class="bridge" x="360" y="111" width="180" height="126"/>
    <g class="glyph glyph-bridge" transform="translate(440 124)">
      <circle cx="10" cy="6" r="4.2"/>
      <path d="M 3 22 C 5 15.5, 7.2 13, 10 13 C 12.8 13, 15 15.5, 17 22"/>
      <path d="M 6 22 L 14 22"/>
    </g>
    <text class="label" x="450" y="158" text-anchor="middle">human architect</text>
    <text class="small" x="450" y="180" text-anchor="middle">elicits assumptions</text>
    <text class="small" x="450" y="199" text-anchor="middle">tests the judgment</text>
    <text class="small" x="450" y="218" text-anchor="middle">formalizes constraints</text>

    <path class="muted-arrow" d="M 305 111 L 360 143" marker-end="url(#arrow-muted)"/>
    <path class="muted-arrow" d="M 305 184 L 360 174" marker-end="url(#arrow-muted)"/>
    <path class="muted-arrow" d="M 305 257 L 360 205" marker-end="url(#arrow-muted)"/>
    <text class="micro" x="332" y="76" text-anchor="middle">interview, review, challenge</text>

    <line class="arrow" x1="540" y1="174" x2="615" y2="174" marker-end="url(#arrow)"/>
    <text class="small" x="577" y="160" text-anchor="middle">codify</text>

    <rect class="state" x="615" y="84" width="245" height="54"/>
    <g class="glyph glyph-state" transform="translate(637 97)">
      <rect x="1" y="1" width="16" height="21"/>
      <path d="M 5 8 L 8 11 L 14 5"/>
      <path d="M 5 16 L 13 16"/>
    </g>
    <text class="label" x="668" y="107">environment contracts</text>
    <text class="micro" x="668" y="125">interfaces, invariants, legal moves</text>

    <rect class="state" x="615" y="157" width="245" height="54"/>
    <g class="glyph glyph-state" transform="translate(636 170)">
      <path d="M 9 1 L 17 9 L 17 20 L 1 20 L 1 9 Z"/>
      <path d="M 6 11 L 12 11"/>
    </g>
    <text class="label" x="668" y="180">rejection gates</text>
    <text class="micro" x="668" y="198">what fails before evaluation</text>

    <rect class="state" x="615" y="230" width="245" height="54"/>
    <g class="glyph glyph-state" transform="translate(637 242)">
      <rect x="2" y="2" width="16" height="22"/>
      <path d="M 6 7 L 15 7"/>
      <path d="M 6 12 L 15 12"/>
      <path d="M 6 17 L 12 17"/>
    </g>
    <text class="label" x="668" y="253">evidence ledgers</text>
    <text class="micro" x="668" y="271">provenance, uncertainty, decisions</text>

    <line class="thin" x1="737.5" y1="284" x2="737.5" y2="303" marker-end="url(#arrow-muted)"/>
    <rect class="record" x="640" y="303" width="195" height="34"/>
    <g class="glyph glyph-record" transform="translate(660 312)">
      <rect x="2" y="2" width="16" height="14"/>
      <path d="M 6 0 L 6 2"/>
      <path d="M 10 0 L 10 2"/>
      <path d="M 14 0 L 14 2"/>
      <path d="M 6 16 L 6 18"/>
      <path d="M 10 16 L 10 18"/>
      <path d="M 14 16 L 14 18"/>
      <path d="M 0 6 L 2 6"/>
      <path d="M 0 12 L 2 12"/>
      <path d="M 18 6 L 20 6"/>
      <path d="M 18 12 L 20 12"/>
    </g>
    <text class="small" x="690" y="324">agent reads state</text>

    <rect class="warning" x="55" y="306" width="500" height="31"/>
    <text class="small" x="305" y="326" text-anchor="middle">no direct query path: tacit judgment must become explicit state first</text>
  </g>
</svg>
