<svg xmlns="http://www.w3.org/2000/svg" viewBox="0 0 720 446" role="img">
  <title>What the architect owns</title>
  <desc>A clean rectangular diagram separating assistable Architecture 2.0 loop work from nondelegable architectural responsibility.</desc>
  <defs>
    <marker id="arrow" viewBox="0 0 10 10" refX="9" refY="5" markerWidth="6" markerHeight="6" orient="auto">
      <path d="M 0 0 L 10 5 L 0 10 z" fill="#333333"/>
    </marker>
    <style>
      .font { font-family: Arial, Helvetica, sans-serif; }
      .label { font-size: 14px; font-weight: 700; fill: #222222; }
      .small { font-size: 11.5px; fill: #444444; }
      .micro { font-size: 10.5px; fill: #555555; }
      .note { font-size: 12px; font-weight: 700; fill: #356C8C; }
      .assist { fill: #F0F7FF; stroke: #4E79A7; stroke-width: 1.4; }
      .record { fill: #F8FAFC; stroke: #9AA8B5; stroke-width: 1.3; }
      .own { fill: #FFF4F4; stroke: #C44E52; stroke-width: 1.4; }
      .field { fill: #F4FAF2; stroke: #54A24B; stroke-width: 1.4; }
      .boundary { fill: #F8F5FC; stroke: #7E6AA8; stroke-width: 1.5; }
      .arrow { stroke: #333333; stroke-width: 1.5; fill: none; stroke-linecap: square; stroke-linejoin: miter; }
      .thin { stroke: #555555; stroke-width: 1.4; fill: none; stroke-linecap: square; stroke-linejoin: miter; }
    </style>
  </defs>

  <rect width="720" height="446" fill="#ffffff"/>
  <g class="font" transform="translate(0,-54)">


    <text class="note" x="70" y="116">assistable loop work</text>
    <rect class="assist" x="70" y="134" width="100" height="54"/>
    <text class="label" x="120" y="156" text-anchor="middle">represent</text>
    <text class="micro" x="120" y="174" text-anchor="middle">state + traces</text>

    <rect class="assist" x="190" y="134" width="100" height="54"/>
    <text class="label" x="240" y="156" text-anchor="middle">generate</text>
    <text class="micro" x="240" y="174" text-anchor="middle">candidates</text>

    <rect class="assist" x="310" y="134" width="100" height="54"/>
    <text class="label" x="360" y="156" text-anchor="middle">evaluate</text>
    <text class="micro" x="360" y="174" text-anchor="middle">tools + proxies</text>

    <rect class="assist" x="430" y="134" width="100" height="54"/>
    <text class="label" x="480" y="156" text-anchor="middle">critique</text>
    <text class="micro" x="480" y="174" text-anchor="middle">find failures</text>

    <rect class="assist" x="550" y="134" width="100" height="54"/>
    <text class="label" x="600" y="156" text-anchor="middle">record</text>
    <text class="micro" x="600" y="174" text-anchor="middle">evidence</text>

    <line class="arrow" x1="170" y1="161" x2="190" y2="161" marker-end="url(#arrow)"/>
    <line class="arrow" x1="290" y1="161" x2="310" y2="161" marker-end="url(#arrow)"/>
    <line class="arrow" x1="410" y1="161" x2="430" y2="161" marker-end="url(#arrow)"/>
    <line class="arrow" x1="530" y1="161" x2="550" y2="161" marker-end="url(#arrow)"/>

    <rect class="record" x="94" y="215" width="532" height="48"/>
    <text class="label" x="360" y="236" text-anchor="middle">evidence record</text>
    <text class="small" x="360" y="254" text-anchor="middle">assumptions, tool versions, uncertainty, failures, rejected alternatives, provenance</text>

    <line class="thin" x1="600" y1="188" x2="600" y2="215"/>
    <line class="thin" x1="360" y1="263" x2="360" y2="294"/>

    <rect class="boundary" x="70" y="294" width="580" height="124"/>
    <text class="note" x="360" y="318" text-anchor="middle">architect-owned accountability boundary</text>

    <rect class="own" x="92" y="338" width="102" height="52"/>
    <text class="label" x="143" y="358" text-anchor="middle">intent</text>
    <text class="micro" x="143" y="376" text-anchor="middle">and constraints</text>

    <rect class="own" x="206" y="338" width="112" height="52"/>
    <text class="label" x="262" y="358" text-anchor="middle">abstraction</text>
    <text class="micro" x="262" y="376" text-anchor="middle">and representation</text>

    <rect class="own" x="330" y="338" width="112" height="52"/>
    <text class="label" x="386" y="358" text-anchor="middle">evidence</text>
    <text class="micro" x="386" y="376" text-anchor="middle">standard</text>

    <rect class="own" x="454" y="338" width="88" height="52"/>
    <text class="label" x="498" y="358" text-anchor="middle">reject</text>
    <text class="micro" x="498" y="376" text-anchor="middle">or commit</text>

    <rect class="own" x="554" y="338" width="74" height="52"/>
    <text class="label" x="591" y="358" text-anchor="middle">answer</text>
    <text class="micro" x="591" y="376" text-anchor="middle">for result</text>

    <line class="arrow" x1="194" y1="364" x2="206" y2="364" marker-end="url(#arrow)"/>
    <line class="arrow" x1="318" y1="364" x2="330" y2="364" marker-end="url(#arrow)"/>
    <line class="arrow" x1="442" y1="364" x2="454" y2="364" marker-end="url(#arrow)"/>
    <line class="arrow" x1="542" y1="364" x2="554" y2="364" marker-end="url(#arrow)"/>

    <rect class="field" x="145" y="454" width="430" height="28"/>
    <text class="small" x="360" y="473" text-anchor="middle">community infrastructure: schemas, benchmarks, provenance, shared tasks</text>
  </g>
</svg>
