<svg xmlns="http://www.w3.org/2000/svg" viewBox="0 0 720 446" role="img">
  <title>Architecture representation and world model</title>
  <desc>A clean diagram showing representation records, world models, tool feedback, evidence, and negative traces in an Architecture 2.0 loop.</desc>
  <defs>
    <marker id="arrow" viewBox="0 0 10 10" refX="9" refY="5" markerWidth="8" markerHeight="8" orient="auto-start-reverse">
      <path d="M 0 0 L 10 5 L 0 10 z" fill="#333333"/>
    </marker>
    <marker id="arrow-blue" viewBox="0 0 10 10" refX="9" refY="5" markerWidth="8" markerHeight="8" orient="auto-start-reverse">
      <path d="M 0 0 L 10 5 L 0 10 z" fill="#356C8C"/>
    </marker>
    <style>
      .font { font-family: Arial, Helvetica, sans-serif; }
      .panel-title { font-size: 19px; font-weight: 700; fill: #222222; }
      .label { font-size: 15px; font-weight: 700; fill: #222222; }
      .small { font-size: 12px; fill: #444444; }
      .note { font-size: 12px; font-weight: 700; fill: #356C8C; }
      .panel { fill: #ffffff; stroke: #333333; stroke-width: 1.5; }
      .rep { fill: #F4FAF2; stroke: #54A24B; stroke-width: 1.4; }
      .world { fill: #F8F5FC; stroke: #7E6AA8; stroke-width: 1.4; }
      .tool { fill: #FFF8EE; stroke: #D88A30; stroke-width: 1.4; }
      .evidence { fill: #FFF4F4; stroke: #C44E52; stroke-width: 1.4; }
      .arrow { stroke: #333333; stroke-width: 2.1; fill: none; stroke-linecap: square; stroke-linejoin: miter; }
      .feedback { stroke: #356C8C; stroke-width: 2; fill: none; stroke-linecap: square; stroke-linejoin: miter; }
    </style>
  </defs>

  <rect width="720" height="446" fill="#ffffff"/>
  <g class="font" transform="translate(0,-54)">

    <rect class="panel rep" x="40" y="95" width="285" height="255"/>
    <text class="panel-title" x="62" y="125">Representation record</text>
    <text class="small" x="62" y="146">What the loop can read, compare, and replay.</text>

    <rect class="rep" x="62" y="170" width="238" height="31"/>
    <text class="label" x="78" y="191">workload traces + metadata</text>
    <rect class="rep" x="62" y="210" width="238" height="31"/>
    <text class="label" x="78" y="231">architecture description</text>
    <rect class="rep" x="62" y="250" width="238" height="31"/>
    <text class="label" x="78" y="271">tool configs + logs</text>
    <rect class="rep" x="62" y="290" width="238" height="31"/>
    <text class="label" x="78" y="311">constraints + objectives</text>

    <rect class="panel world" x="395" y="95" width="285" height="255"/>
    <text class="panel-title" x="417" y="125">Architecture world model</text>
    <text class="small" x="417" y="146">What the loop believes actions will change.</text>

    <rect class="world" x="417" y="170" width="238" height="31"/>
    <text class="label" x="433" y="191">state + action space</text>
    <rect class="world" x="417" y="210" width="238" height="31"/>
    <text class="label" x="433" y="231">dynamics + costs</text>
    <rect class="world" x="417" y="250" width="238" height="31"/>
    <text class="label" x="433" y="271">constraints + invalid actions</text>
    <rect class="world" x="417" y="290" width="238" height="31"/>
    <text class="label" x="433" y="311">uncertainty + decision policy</text>

    <line class="arrow" x1="325" y1="223" x2="395" y2="223" marker-end="url(#arrow)"/>
    <text class="small" x="360" y="212" text-anchor="middle">conditions</text>
    <text class="small" x="360" y="238" text-anchor="middle">prediction</text>

    <rect class="tool" x="145" y="385" width="190" height="48"/>
    <text class="label" x="240" y="407" text-anchor="middle">tools return feedback</text>
    <text class="small" x="240" y="423" text-anchor="middle">simulation, synthesis, runtime</text>

    <rect class="evidence" x="385" y="385" width="190" height="48"/>
    <text class="label" x="480" y="407" text-anchor="middle">evidence updates state</text>
    <text class="small" x="480" y="423" text-anchor="middle">including rejected candidates</text>

    <line class="arrow" x1="335" y1="409" x2="385" y2="409" marker-end="url(#arrow)"/>
    <path class="feedback" d="M 480 385 L 480 360 L 537 360 L 537 350" marker-end="url(#arrow-blue)"/>
    <path class="feedback" d="M 480 433 L 480 462 L 90 462 L 90 350" marker-end="url(#arrow-blue)"/>
    <text class="note" x="360" y="482" text-anchor="middle">provenance, coverage, labels, and negative traces make feedback reusable</text>
  </g>
</svg>
