<svg xmlns="http://www.w3.org/2000/svg" viewBox="-30 0 960 1080" role="img">
  <title>F1 moonshot prompt to architecture stack</title>
  <desc>The lighthouse prompt expands into architecture obligations and design-loop requirements rather than a direct prompt-to-chip path.</desc>
  <defs>
    <marker id="arrow" viewBox="0 0 10 10" refX="9" refY="5" markerWidth="8" markerHeight="8" orient="auto-start-reverse">
      <path d="M 0 0 L 10 5 L 0 10 z" fill="#333333"/>
    </marker>
    <marker id="arrow-blue" viewBox="0 0 10 10" refX="9" refY="5" markerWidth="7" markerHeight="7" orient="auto-start-reverse">
      <path d="M 0 0 L 10 5 L 0 10 z" fill="#356C8C"/>
    </marker>
    <marker id="arrow-red" viewBox="0 0 10 10" refX="9" refY="5" markerWidth="7" markerHeight="7" orient="auto-start-reverse">
      <path d="M 0 0 L 10 5 L 0 10 z" fill="#A33A3A"/>
    </marker>
    <style>
      .font { font-family: Arial, Helvetica, sans-serif; }
      .panel-title { font-size: 27.5px; font-weight: 700; fill: #202020; }
      .panel-subtitle { font-size: 16.5px; fill: #555555; }
      .body { font-size: 20.9px; fill: #242424; }
      .body-bold { font-size: 20.9px; font-weight: 700; fill: #242424; }
      .chip { font-size: 18.7px; font-weight: 700; fill: #242424; }
      .small { font-size: 15.4px; fill: #444444; }
      .boundary-body { font-size: 18.4px; fill: #242424; }
      .prompt-line { font-size: 17.2px; fill: #242424; }
      .prompt-strong { font-weight: 700; }
      .micro { font-size: 13.2px; fill: #666666; }
      .panel { fill: #ffffff; stroke: #333333; stroke-width: 1.6; }
      .prompt-fill { fill: #F7FAFC; }
      .obligation-fill { fill: #F9FBF7; }
      .loop-fill { fill: #FAF8F4; }
      .line { stroke: #333333; stroke-width: 1.8; fill: none; stroke-linecap: square; stroke-linejoin: miter; }
      .soft-line { stroke: #879098; stroke-width: 1.5; fill: none; stroke-linecap: square; stroke-linejoin: miter; }
      .blue-line { stroke: #356C8C; stroke-width: 1.8; fill: none; stroke-linecap: square; stroke-linejoin: miter; }
    </style>
  </defs>

  <rect x="-30" width="960" height="1080" fill="#ffffff"/>

  <rect class="panel prompt-fill" x="50" y="35" width="800" height="235"/>
  <text class="font panel-title" x="82" y="76">Lighthouse prompt</text>
  <text class="font panel-subtitle" x="82" y="100">A compact request with large hidden state</text>
  <rect x="82" y="124" width="736" height="134" fill="#ffffff" stroke="#9EADB8" stroke-width="1.4"/>
  <g class="font">
    <text class="prompt-line" x="110" y="150">
      Design a low-power <tspan class="prompt-strong" fill="#54A24B">64-bit RISC-V-based</tspan>
      <tspan class="prompt-strong" fill="#D88A30">compute subsystem</tspan>
    </text>
    <text class="prompt-line" x="110" y="174">
      for an <tspan class="prompt-strong" fill="#4C78A8">XRBench-class real-time mobile XR workload</tspan>,
    </text>
    <text class="prompt-line" x="110" y="198">
      decide whether it is a <tspan class="prompt-strong" fill="#D88A30">vector-capable CPU, accelerator, or SoC block</tspan>,
    </text>
    <text class="prompt-line" x="110" y="222">
      meet a <tspan class="prompt-strong" fill="#C44E52">3 W TDP target in a 3 nm-class LP mobile process</tspan>,
    </text>
    <text class="prompt-line" x="110" y="244">
      and produce a <tspan class="prompt-strong" fill="#7E6AA8">design-space report with evidence and rejected alternatives</tspan>.
    </text>
  </g>

  <line class="line" x1="450" y1="285" x2="450" y2="322" marker-end="url(#arrow)"/>

  <rect class="panel obligation-fill" x="50" y="335" width="800" height="345"/>
  <text class="font panel-title" x="82" y="376">Architecture obligations</text>
  <text class="font panel-subtitle" x="82" y="400">What the prompt immediately forces an architect to define</text>

  <g class="font">
    <rect x="82" y="424" width="350" height="54" fill="#ffffff" stroke="#4C78A8"/>
    <text class="body-bold" x="102" y="447">XRBench workload</text>
    <text class="small" x="102" y="468">RT-MTMM, streams, deadlines</text>

    <rect x="468" y="424" width="350" height="54" fill="#ffffff" stroke="#54A24B"/>
    <text class="body-bold" x="488" y="447">ISA and ABI contract</text>
    <text class="small" x="488" y="468">RISC-V baseline, extensions, compatibility</text>

    <rect x="82" y="486" width="350" height="54" fill="#ffffff" stroke="#D88A30"/>
    <text class="body-bold" x="102" y="509">CPU / accelerator / SoC block</text>
    <text class="small" x="102" y="530">partitioning, vector support, interfaces</text>

    <rect x="468" y="486" width="350" height="54" fill="#ffffff" stroke="#B9C8B4"/>
    <text class="body-bold" x="488" y="509">Memory and data movement</text>
    <text class="small" x="488" y="530">locality, hierarchy, interconnect energy</text>

    <rect x="82" y="548" width="350" height="54" fill="#ffffff" stroke="#C44E52"/>
    <text class="body-bold" x="102" y="571">3 W power envelope</text>
    <text class="small" x="102" y="592">activity, thermal, energy/QoE tradeoff</text>

    <rect x="468" y="548" width="350" height="54" fill="#ffffff" stroke="#B9C8B4"/>
    <text class="body-bold" x="488" y="571">Compiler/runtime stack</text>
    <text class="small" x="488" y="592">codegen, libraries, deployment</text>

    <rect x="82" y="610" width="350" height="54" fill="#ffffff" stroke="#C44E52"/>
    <text class="body-bold" x="102" y="633">3 nm-class physical constraints</text>
    <text class="small" x="102" y="654">process, timing, leakage, signoff</text>

    <rect x="468" y="610" width="350" height="54" fill="#ffffff" stroke="#B9C8B4"/>
    <text class="body-bold" x="488" y="633">Reliability and verification</text>
    <text class="small" x="488" y="654">correctness, corner cases, rejection</text>
  </g>

  <line class="line" x1="450" y1="697" x2="450" y2="734" marker-end="url(#arrow)"/>

  <rect class="panel loop-fill" x="50" y="747" width="800" height="235"/>
  <text class="font panel-title" x="82" y="788">Design-loop requirements</text>
  <text class="font panel-subtitle" x="82" y="812">One design turn: represent, act, gather evidence, reject, decide, revise</text>

  <g class="font">
    <rect x="82" y="836" width="180" height="42" fill="#ffffff" stroke="#CABEA8"/>
    <text class="chip" x="172" y="862" text-anchor="middle">Intent / task</text>

    <rect x="286" y="836" width="260" height="42" fill="#ffffff" stroke="#CABEA8"/>
    <text class="chip" x="416" y="862" text-anchor="middle">Representation / model</text>

    <rect x="570" y="836" width="248" height="42" fill="#ffffff" stroke="#CABEA8"/>
    <text class="chip" x="694" y="862" text-anchor="middle">Tool / environment</text>

    <line class="soft-line" x1="262" y1="857" x2="286" y2="857" marker-end="url(#arrow)"/>
    <line class="soft-line" x1="546" y1="857" x2="570" y2="857" marker-end="url(#arrow)"/>
    <path class="soft-line" d="M 694 878 L 694 886 L 197 886 L 197 894" marker-end="url(#arrow)"/>

    <rect x="82" y="894" width="230" height="42" fill="#ffffff" stroke="#CABEA8"/>
    <text class="chip" x="197" y="920" text-anchor="middle">Compound methods</text>

    <rect x="336" y="894" width="190" height="42" fill="#ffffff" stroke="#CABEA8"/>
    <text class="chip" x="431" y="920" text-anchor="middle">Evidence</text>

    <rect x="550" y="894" width="128" height="42" fill="#ffffff" stroke="#CABEA8"/>
    <text class="chip" x="614" y="920" text-anchor="middle">Reject</text>

    <rect x="702" y="894" width="116" height="42" fill="#ffffff" stroke="#CABEA8"/>
    <text class="chip" x="760" y="920" text-anchor="middle">Decide</text>

    <line class="soft-line" x1="312" y1="915" x2="336" y2="915" marker-end="url(#arrow)"/>
    <line class="soft-line" x1="526" y1="915" x2="550" y2="915" marker-end="url(#arrow)"/>
    <line class="soft-line" x1="678" y1="915" x2="702" y2="915" marker-end="url(#arrow)"/>

    <path class="blue-line" d="M 760 936 L 760 965 L 172 965 L 172 878" marker-end="url(#arrow-blue)"/>
    <rect x="360" y="946" width="240" height="24" fill="#FAF8F4"/>
    <text class="font micro" x="480" y="962" text-anchor="middle">decision revises the next loop turn</text>
  </g>

  <line class="blue-line" x1="431" y1="894" x2="431" y2="880" marker-end="url(#arrow-blue)"/>
  <rect x="448" y="874" width="182" height="24" fill="#FAF8F4"/>
  <text class="font micro" x="539" y="890" text-anchor="middle">feedback updates model</text>

  <rect x="50" y="985" width="800" height="82" fill="#F4F6F7" stroke="#333333" stroke-width="1.3"/>
  <text class="font body-bold" x="82" y="1018">Boundary condition</text>
  <text class="font boundary-body" x="82" y="1040">Prompt-to-loop design with evidence, rejection, and judgment,</text>
  <text class="font boundary-body" x="82" y="1056">not prompt-to-chip automation.</text>
</svg>
