<svg xmlns="http://www.w3.org/2000/svg" viewBox="0 0 980 560" role="img">
<title>F2 corpus pilot topic shift</title>
<desc>Pilot title-level topic signals across selected ISCA, MICRO, HPCA, and ASPLOS years.</desc>
<rect width="100%" height="100%" fill="#ffffff"/>
<text x="34.0" y="38.0" font-family="Arial, Helvetica, sans-serif" font-size="22" font-weight="700" text-anchor="start" fill="#222">Pilot topic signals in architecture conference titles</text>
<text x="34.0" y="62.0" font-family="Arial, Helvetica, sans-serif" font-size="12" font-weight="400" text-anchor="start" fill="#222">DBLP title metadata only; heuristic categories; use as directional evidence, not a final claim.</text>
<line x1="88" y1="432.0" x2="944" y2="432.0" stroke="#DDE5EA"/>
<text x="76.0" y="436.0" font-family="Arial, Helvetica, sans-serif" font-size="12" font-weight="400" text-anchor="end" fill="#222">0%</text>
<line x1="88" y1="345.0" x2="944" y2="345.0" stroke="#DDE5EA"/>
<text x="76.0" y="349.0" font-family="Arial, Helvetica, sans-serif" font-size="12" font-weight="400" text-anchor="end" fill="#222">10%</text>
<line x1="88" y1="258.0" x2="944" y2="258.0" stroke="#DDE5EA"/>
<text x="76.0" y="262.0" font-family="Arial, Helvetica, sans-serif" font-size="12" font-weight="400" text-anchor="end" fill="#222">20%</text>
<line x1="88" y1="171.0" x2="944" y2="171.0" stroke="#DDE5EA"/>
<text x="76.0" y="175.0" font-family="Arial, Helvetica, sans-serif" font-size="12" font-weight="400" text-anchor="end" fill="#222">30%</text>
<line x1="88" y1="84.0" x2="944" y2="84.0" stroke="#DDE5EA"/>
<text x="76.0" y="88.0" font-family="Arial, Helvetica, sans-serif" font-size="12" font-weight="400" text-anchor="end" fill="#222">40%</text>
<line x1="88" y1="84" x2="88" y2="432" stroke="#5A646B" stroke-width="1.1"/>
<line x1="88" y1="432" x2="944" y2="432" stroke="#5A646B" stroke-width="1.1"/>
<rect x="121.0" y="273.1" width="24" height="158.9" fill="#4E79A7"/>
<text x="133.0" y="267.1" font-family="Arial, Helvetica, sans-serif" font-size="10" font-weight="400" text-anchor="middle" fill="#222">18%</text>
<rect x="152.0" y="423.6" width="24" height="8.4" fill="#D88A30"/>
<rect x="183.0" y="432.0" width="24" height="0.0" fill="#54A24B"/>
<text x="195.0" y="445.0" font-family="Arial, Helvetica, sans-serif" font-size="9" font-weight="400" text-anchor="middle" fill="#222">0%</text>
<rect x="214.0" y="373.4" width="24" height="58.6" fill="#7E6AA8"/>
<text x="226.0" y="367.4" font-family="Arial, Helvetica, sans-serif" font-size="10" font-weight="400" text-anchor="middle" fill="#222">7%</text>
<rect x="245.0" y="415.3" width="24" height="16.7" fill="#C44E52"/>
<text x="195.0" y="460.0" font-family="Arial, Helvetica, sans-serif" font-size="14" font-weight="700" text-anchor="middle" fill="#222">1970s-1990s</text>
<rect x="335.0" y="226.0" width="24" height="206.0" fill="#4E79A7"/>
<text x="347.0" y="220.0" font-family="Arial, Helvetica, sans-serif" font-size="10" font-weight="400" text-anchor="middle" fill="#222">24%</text>
<rect x="366.0" y="403.4" width="24" height="28.6" fill="#D88A30"/>
<text x="378.0" y="397.4" font-family="Arial, Helvetica, sans-serif" font-size="10" font-weight="400" text-anchor="middle" fill="#222">3%</text>
<rect x="397.0" y="432.0" width="24" height="0.0" fill="#54A24B"/>
<text x="409.0" y="445.0" font-family="Arial, Helvetica, sans-serif" font-size="9" font-weight="400" text-anchor="middle" fill="#222">0%</text>
<rect x="428.0" y="391.9" width="24" height="40.1" fill="#7E6AA8"/>
<text x="440.0" y="385.9" font-family="Arial, Helvetica, sans-serif" font-size="10" font-weight="400" text-anchor="middle" fill="#222">5%</text>
<rect x="459.0" y="414.9" width="24" height="17.1" fill="#C44E52"/>
<text x="409.0" y="460.0" font-family="Arial, Helvetica, sans-serif" font-size="14" font-weight="700" text-anchor="middle" fill="#222">2005-2006</text>
<rect x="549.0" y="136.8" width="24" height="295.2" fill="#4E79A7"/>
<text x="561.0" y="130.8" font-family="Arial, Helvetica, sans-serif" font-size="10" font-weight="400" text-anchor="middle" fill="#222">34%</text>
<rect x="580.0" y="272.8" width="24" height="159.2" fill="#D88A30"/>
<text x="592.0" y="266.8" font-family="Arial, Helvetica, sans-serif" font-size="10" font-weight="400" text-anchor="middle" fill="#222">18%</text>
<rect x="611.0" y="404.9" width="24" height="27.1" fill="#54A24B"/>
<text x="623.0" y="398.9" font-family="Arial, Helvetica, sans-serif" font-size="10" font-weight="400" text-anchor="middle" fill="#222">3%</text>
<rect x="642.0" y="393.2" width="24" height="38.8" fill="#7E6AA8"/>
<text x="654.0" y="387.2" font-family="Arial, Helvetica, sans-serif" font-size="10" font-weight="400" text-anchor="middle" fill="#222">4%</text>
<rect x="673.0" y="350.4" width="24" height="81.6" fill="#C44E52"/>
<text x="685.0" y="344.4" font-family="Arial, Helvetica, sans-serif" font-size="10" font-weight="400" text-anchor="middle" fill="#222">9%</text>
<text x="623.0" y="460.0" font-family="Arial, Helvetica, sans-serif" font-size="14" font-weight="700" text-anchor="middle" fill="#222">2015</text>
<rect x="763.0" y="243.4" width="24" height="188.6" fill="#4E79A7"/>
<text x="775.0" y="237.4" font-family="Arial, Helvetica, sans-serif" font-size="10" font-weight="400" text-anchor="middle" fill="#222">22%</text>
<rect x="794.0" y="144.2" width="24" height="287.8" fill="#D88A30"/>
<text x="806.0" y="138.2" font-family="Arial, Helvetica, sans-serif" font-size="10" font-weight="400" text-anchor="middle" fill="#222">33%</text>
<rect x="825.0" y="183.2" width="24" height="248.8" fill="#54A24B"/>
<text x="837.0" y="177.2" font-family="Arial, Helvetica, sans-serif" font-size="10" font-weight="400" text-anchor="middle" fill="#222">29%</text>
<rect x="856.0" y="334.5" width="24" height="97.5" fill="#7E6AA8"/>
<text x="868.0" y="328.5" font-family="Arial, Helvetica, sans-serif" font-size="10" font-weight="400" text-anchor="middle" fill="#222">11%</text>
<rect x="887.0" y="339.3" width="24" height="92.7" fill="#C44E52"/>
<text x="899.0" y="333.3" font-family="Arial, Helvetica, sans-serif" font-size="10" font-weight="400" text-anchor="middle" fill="#222">11%</text>
<text x="837.0" y="460.0" font-family="Arial, Helvetica, sans-serif" font-size="14" font-weight="700" text-anchor="middle" fill="#222">2025-2026</text>
<rect x="88" y="490" width="14" height="14" fill="#4E79A7"/>
<text x="110.0" y="502.0" font-family="Arial, Helvetica, sans-serif" font-size="12" font-weight="400" text-anchor="start" fill="#222">Memory</text>
<rect x="258" y="490" width="14" height="14" fill="#D88A30"/>
<text x="280.0" y="502.0" font-family="Arial, Helvetica, sans-serif" font-size="12" font-weight="400" text-anchor="start" fill="#222">Accelerators</text>
<rect x="428" y="490" width="14" height="14" fill="#54A24B"/>
<text x="450.0" y="502.0" font-family="Arial, Helvetica, sans-serif" font-size="12" font-weight="400" text-anchor="start" fill="#222">AI/ML</text>
<rect x="598" y="490" width="14" height="14" fill="#7E6AA8"/>
<text x="620.0" y="502.0" font-family="Arial, Helvetica, sans-serif" font-size="12" font-weight="400" text-anchor="start" fill="#222">Verification/tools</text>
<rect x="768" y="490" width="14" height="14" fill="#C44E52"/>
<text x="790.0" y="502.0" font-family="Arial, Helvetica, sans-serif" font-size="12" font-weight="400" text-anchor="start" fill="#222">Datacenter/cloud</text>
<text x="944.0" y="536.0" font-family="Arial, Helvetica, sans-serif" font-size="11" font-weight="400" text-anchor="end" fill="#222">Source: DBLP pilot metadata; see data/processed/corpus-pilot</text>
</svg>
