<?xml version="1.0" encoding="utf-8"?>
<svg xmlns="http://www.w3.org/2000/svg" viewBox="50 0 700 250" role="img">
  <title>F3 Architecture Tuple Mapping</title>
  
  <defs>
    <marker id="arrow" viewBox="0 0 10 10" refX="9" refY="5" markerWidth="6" markerHeight="6" orient="auto-start-reverse">
      <path d="M 0 0 L 10 5 L 0 10 z" fill="#444444"/>
    </marker>

    <style>
      .font { font-family: Arial, Helvetica, sans-serif; }
      .title { font-size: 16px; font-weight: 700; fill: #202020; }
      .label { font-size: 14.4px; font-weight: 700; fill: #202020; }
      .label-white { font-size: 14.4px; font-weight: 700; fill: #ffffff; }
      .small { font-size: 9.2px; fill: #303030; }
      .center { font-size: 12.0px; font-weight: 700; fill: #202020; }
      .note { font-size: 10.4px; font-weight: 700; fill: #285F7A; }
      .muted { font-size: 8.8px; fill: #555555; }
      .line { stroke: #444444; stroke-width: 1.15; fill: none; }
      .line-dashed { stroke: #444444; stroke-width: 1.15; fill: none; stroke-dasharray: 4,4; }
      .thin { stroke: #6F7E86; stroke-width: 1.05; fill: none; }
      .arrow-end { marker-end: url(#arrow); }
    </style>
  </defs>
  <rect x="50" y="0" width="700" height="250" fill="#ffffff"/>

  <g class="font">
    <!-- State -->
    <rect x="80" y="80" width="90" height="60" rx="5" fill="#9ECBE1" stroke="#356C8C"/>
    <text class="label" x="125" y="105" text-anchor="middle">S</text>
    <text class="small" x="125" y="125" text-anchor="middle">State</text>

    <!-- Action -->
    <rect x="230" y="80" width="90" height="60" rx="5" fill="#B8D7A8" stroke="#5F8F4E"/>
    <text class="label" x="275" y="105" text-anchor="middle">A</text>
    <text class="small" x="275" y="125" text-anchor="middle">Action</text>

    <!-- Transition -->
    <rect x="380" y="80" width="90" height="60" rx="5" fill="#F0C27B" stroke="#B07021"/>
    <text class="label" x="425" y="105" text-anchor="middle">T</text>
    <text class="small" x="425" y="125" text-anchor="middle">Transition</text>

    <!-- Observation -->
    <rect x="530" y="30" width="90" height="60" rx="5" fill="#E8D1D1" stroke="#A35656"/>
    <text class="label" x="575" y="55" text-anchor="middle">O</text>
    <text class="small" x="575" y="75" text-anchor="middle">Observation</text>

    <!-- Reward -->
    <rect x="530" y="130" width="90" height="60" rx="5" fill="#EAD9FA" stroke="#8A66C2"/>
    <text class="label" x="575" y="155" text-anchor="middle">R</text>
    <text class="small" x="575" y="175" text-anchor="middle">Reward/Cost</text>

    <!-- Arrows -->
    <path class="line arrow-end" d="M 170 110 L 230 110"/>
    <path class="line arrow-end" d="M 320 110 L 380 110"/>
    <path class="line arrow-end" d="M 470 95 L 530 75"/>
    <path class="line arrow-end" d="M 470 125 L 530 145"/>

    <!-- Loop back -->
    <path class="line-dashed arrow-end" d="M 575 190 Q 575 220 325 220 Q 125 220 125 140"/>
    <text class="small" x="325" y="215" text-anchor="middle">Loop Iteration</text>
  </g>
</svg>
