<svg xmlns="http://www.w3.org/2000/svg" viewBox="0 0 820 570" role="img">
  <title>Autonomy stages with human and agent boundaries</title>
  <desc>A clean staged diagram showing how agent action increases only when evidence strength, rollback safety, and human decision boundaries are explicit.</desc>
  <defs>
    <marker id="arrow" viewBox="0 0 10 10" refX="9" refY="5" markerWidth="7" markerHeight="7" orient="auto-start-reverse">
      <path d="M 0 0 L 10 5 L 0 10 z" fill="#333333"/>
    </marker>
    <style>
      .font { font-family: Arial, Helvetica, sans-serif; }
      .label { font-size: 17.1px; font-weight: 700; fill: #202020; }
      .small { font-size: 13.7px; fill: #303030; }
      .micro { font-size: 12.3px; fill: #555555; }
      .panel { fill: #ffffff; stroke: #333333; stroke-width: 1.4; }
      .human { fill: #F2F7FC; stroke: #356C8C; stroke-width: 1.4; }
      .agent { fill: #F8F5FC; stroke: #7E6AA8; stroke-width: 1.4; }
      .gate { fill: #FFF4F4; stroke: #C44E52; stroke-width: 1.2; }
      .level { fill: #F8FAFC; stroke: #7B8794; stroke-width: 1.1; }
      .level-hi { fill: #F4FAF2; stroke: #54A24B; stroke-width: 1.2; }
      .line { stroke: #333333; stroke-width: 1.5; fill: none; stroke-linecap: square; stroke-linejoin: miter; }
      .thin { stroke: #8A939D; stroke-width: 1.1; fill: none; stroke-linecap: square; stroke-linejoin: miter; }
    </style>
  </defs>

  <rect width="820" height="570" fill="#ffffff"/>
  <g class="font" transform="translate(0,-54)">

    <rect class="human" x="42" y="96" width="150" height="398"/>
    <text class="label" x="117" y="126" text-anchor="middle">Human architect</text>
    <circle cx="117" cy="174" r="22" fill="#ffffff" stroke="#356C8C" stroke-width="2"/>
    <path d="M 82 246 C 90 217, 103 202, 117 202 C 131 202, 144 217, 152 246" fill="#ffffff" stroke="#356C8C" stroke-width="2"/>
    <path d="M 96 246 L 138 246" fill="none" stroke="#356C8C" stroke-width="2"/>
    <text class="small" x="117" y="365" text-anchor="middle">owns intent</text>
    <text class="small" x="117" y="386" text-anchor="middle">sets evidence</text>
    <text class="small" x="117" y="407" text-anchor="middle">rejects or commits</text>
    <text class="small" x="117" y="428" text-anchor="middle">answers for result</text>

    <rect class="agent" x="628" y="96" width="150" height="398"/>
    <text class="label" x="703" y="138" text-anchor="middle">Agent system</text>
    <rect x="672" y="174" width="62" height="58" fill="#ffffff" stroke="#7E6AA8" stroke-width="2"/>
    <circle cx="692" cy="201" r="5" fill="#7E6AA8"/>
    <circle cx="714" cy="201" r="5" fill="#7E6AA8"/>
    <rect x="690" y="217" width="26" height="4" fill="#7E6AA8"/>
    <line class="thin" x1="703" y1="174" x2="703" y2="156"/>
    <circle cx="703" cy="152" r="4" fill="#7E6AA8"/>
    <text class="small" x="703" y="286" text-anchor="middle">generates</text>
    <text class="small" x="703" y="307" text-anchor="middle">predicts</text>
    <text class="small" x="703" y="328" text-anchor="middle">optimizes</text>
    <text class="small" x="703" y="349" text-anchor="middle">calls tools</text>
    <text class="small" x="703" y="370" text-anchor="middle">records evidence</text>

    <text class="label" x="410" y="104" text-anchor="middle">Allowed loop authority</text>

    <rect class="level" x="232" y="126" width="356" height="70"/>
    <text class="label" x="252" y="151">1. Assisted exploration</text>
    <text class="small" x="252" y="171">Summarize, draft, explain, and suggest candidates.</text>
    <text class="micro" x="252" y="188">Human drives actions and decides every commitment.</text>

    <rect class="level" x="232" y="214" width="356" height="70"/>
    <text class="label" x="252" y="239">2. Coordinated intelligence</text>
    <text class="small" x="252" y="259">Track state, call tools, compare alternatives.</text>
    <text class="micro" x="252" y="276">Human approves escalation and evidence use.</text>

    <rect class="level-hi" x="232" y="302" width="356" height="70"/>
    <text class="label" x="252" y="327">3. Semiautonomous bounded task</text>
    <text class="small" x="252" y="347">Search or tune within constraints and budget.</text>
    <text class="micro" x="252" y="364">Loop logs failures; human reviews before commitment.</text>

    <rect class="level-hi" x="232" y="390" width="356" height="70"/>
    <text class="label" x="252" y="415">4. Bounded autonomous ecosystem</text>
    <text class="small" x="252" y="435">Allocate methods and feedback in a domain.</text>
    <text class="micro" x="252" y="452">Architect sets boundary, audit, rollback, signoff.</text>

    <line class="line" x1="410" y1="196" x2="410" y2="214" marker-end="url(#arrow)"/>
    <line class="line" x1="410" y1="284" x2="410" y2="302" marker-end="url(#arrow)"/>
    <line class="line" x1="410" y1="372" x2="410" y2="390" marker-end="url(#arrow)"/>

    <line class="line" x1="192" y1="160" x2="232" y2="160" marker-end="url(#arrow)"/>
    <line class="line" x1="588" y1="160" x2="628" y2="160" marker-end="url(#arrow)"/>
    <line class="line" x1="192" y1="425" x2="232" y2="425" marker-end="url(#arrow)"/>
    <line class="line" x1="588" y1="425" x2="628" y2="425" marker-end="url(#arrow)"/>

    <rect class="gate" x="232" y="484" width="356" height="66"/>
    <text class="label" x="410" y="504" text-anchor="middle">Promotion gate</text>
    <text class="micro" x="410" y="523" text-anchor="middle">stronger action needs stronger evidence,</text>
    <text class="micro" x="410" y="538" text-anchor="middle">low rollback risk, and rejection authority</text>
  </g>
</svg>
