<svg xmlns="http://www.w3.org/2000/svg" viewBox="0 84 820 282" role="img">
  <title>F6b Chipyard framework</title>
  <desc>A bounded flow diagram showing the Chipyard configuration system, Chisel generators, FIRRTL compiler, and simulation, synthesis, and emulation backends.</desc>
  <defs>
    <marker id="arrow" viewBox="0 0 10 10" refX="9" refY="5" markerWidth="7" markerHeight="7" orient="auto-start-reverse">
      <path d="M 0 0 L 10 5 L 0 10 z" fill="#333333"/>
    </marker>
    <style>
      .font { font-family: Arial, Helvetica, sans-serif; }
      .label { font-size: 14px; font-weight: 700; fill: #202020; }
      .small { font-size: 12px; fill: #303030; }
      .micro { font-size: 11px; fill: #555555; }
      .panel { fill: #FFFDEB; stroke: #A6A33B; stroke-width: 1.4; }
      .config { fill: #F4F8FB; stroke: #356C8C; stroke-width: 1.3; }
      .generator { fill: #F8F5FC; stroke: #7E6AA8; stroke-width: 1.3; }
      .compiler { fill: #F6FBF5; stroke: #5F8F4E; stroke-width: 1.3; }
      .backend { fill: #FFFAF3; stroke: #B07021; stroke-width: 1.3; }
      .line { stroke: #333333; stroke-width: 1.45; fill: none; stroke-linecap: round; stroke-linejoin: round; marker-end: url(#arrow); }
      .tag { fill: #ffffff; stroke: #C9D2D8; stroke-width: 0.8; }
      .tagtext { font-size: 11px; font-weight: 700; fill: #303030; }
    </style>
  </defs>

  <rect x="0" y="84" width="820" height="282" fill="#ffffff"/>
  <rect class="panel" x="48" y="112" width="724" height="226"/>

  <g class="font">
    <rect class="config" x="72" y="148" width="166" height="76"/>
    <text class="label" x="155" y="178" text-anchor="middle">Configuration</text>
    <text class="label" x="155" y="198" text-anchor="middle">system</text>

    <rect class="generator" x="312" y="132" width="174" height="108"/>
    <text class="label" x="399" y="162" text-anchor="middle">Chisel generators</text>
    <text class="small" x="399" y="187" text-anchor="middle">Rocket</text>
    <text class="small" x="399" y="206" text-anchor="middle">BOOM</text>
    <text class="small" x="399" y="225" text-anchor="middle">Hwacha</text>

    <rect class="compiler" x="560" y="148" width="150" height="76"/>
    <text class="label" x="635" y="178" text-anchor="middle">FIRRTL</text>
    <text class="label" x="635" y="198" text-anchor="middle">compiler</text>

    <path class="line" d="M 238 186 C 266 186, 284 186, 312 186"/>
    <rect class="tag" x="252" y="168" width="70" height="22"/>
    <text class="tagtext" x="287" y="183" text-anchor="middle">parameters</text>

    <path class="line" d="M 486 186 C 514 186, 532 186, 560 186"/>

    <rect class="backend" x="160" y="270" width="150" height="54"/>
    <text class="label" x="235" y="292" text-anchor="middle">RTL simulation</text>
    <text class="micro" x="235" y="310" text-anchor="middle">Verilator, VCS</text>

    <rect class="backend" x="338" y="270" width="150" height="54"/>
    <text class="label" x="413" y="292" text-anchor="middle">VLSI flow</text>
    <text class="micro" x="413" y="310" text-anchor="middle">Hammer</text>

    <rect class="backend" x="516" y="270" width="150" height="54"/>
    <text class="label" x="591" y="292" text-anchor="middle">FPGA emulation</text>
    <text class="micro" x="591" y="310" text-anchor="middle">FireSim</text>

    <!-- FIRRTL output distributed to the three backends via a clean trunk + bus -->
    <polyline points="635,224 635,236 235,236" fill="none" stroke="#333333" stroke-width="1.45" stroke-linecap="round" stroke-linejoin="round"/>
    <line class="line" x1="235" y1="236" x2="235" y2="270" marker-end="url(#arrow)"/>
    <line class="line" x1="413" y1="236" x2="413" y2="270" marker-end="url(#arrow)"/>
    <line class="line" x1="591" y1="236" x2="591" y2="270" marker-end="url(#arrow)"/>
    <rect class="tag" x="207" y="242" width="56" height="22"/>
    <text class="tagtext" x="235" y="257" text-anchor="middle">simulate</text>
    <rect class="tag" x="375" y="242" width="76" height="22"/>
    <text class="tagtext" x="413" y="257" text-anchor="middle">synthesize</text>
    <rect class="tag" x="562" y="242" width="58" height="22"/>
    <text class="tagtext" x="591" y="257" text-anchor="middle">emulate</text>
  </g>
</svg>
