<svg xmlns="http://www.w3.org/2000/svg" viewBox="0 0 720 446" role="img">
  <title>Method roles inside an Architecture 2.0 loop</title>
  <desc>A clean diagram mapping method roles such as generation, prediction, optimization, critique, repair, verification, and explanation to loop outputs and human decision.</desc>
  <defs>
    <marker id="arrow" viewBox="0 0 10 10" refX="9" refY="5" markerWidth="8" markerHeight="8" orient="auto">
      <path d="M 0 0 L 10 5 L 0 10 z" fill="#333333"/>
    </marker>
    <style>
      .font { font-family: Arial, Helvetica, sans-serif; }
      .panel-title { font-size: 17px; font-weight: 700; fill: #222222; }
      .label { font-size: 14px; font-weight: 700; fill: #222222; }
      .small { font-size: 12px; fill: #444444; }
      .note { font-size: 12px; font-weight: 700; fill: #356C8C; }
      .state { fill: #F0F7FF; stroke: #4E79A7; stroke-width: 1.4; }
      .method { fill: #F4FAF2; stroke: #54A24B; stroke-width: 1.4; }
      .output { fill: #F8F5FC; stroke: #7E6AA8; stroke-width: 1.4; }
      .decision { fill: #FFF8EE; stroke: #D88A30; stroke-width: 1.4; }
      .arrow { stroke: #333333; stroke-width: 2; fill: none; stroke-linecap: square; stroke-linejoin: miter; }
    </style>
  </defs>

  <rect width="720" height="446" fill="#ffffff"/>
  <g class="font" transform="translate(0,-54)">


    <rect class="state" x="65" y="130" width="175" height="225"/>
    <text class="panel-title" x="152.5" y="160" text-anchor="middle">loop state</text>
    <text class="small" x="152.5" y="187" text-anchor="middle">task and intent</text>
    <text class="small" x="152.5" y="215" text-anchor="middle">representation</text>
    <text class="small" x="152.5" y="243" text-anchor="middle">environment</text>
    <text class="small" x="152.5" y="271" text-anchor="middle">feedback budget</text>
    <text class="small" x="152.5" y="299" text-anchor="middle">constraints</text>
    <text class="small" x="152.5" y="327" text-anchor="middle">commitment level</text>

    <rect class="method" x="290" y="115" width="160" height="42"/>
    <text class="label" x="370" y="141" text-anchor="middle">generate</text>
    <rect class="method" x="290" y="170" width="160" height="42"/>
    <text class="label" x="370" y="196" text-anchor="middle">predict</text>
    <rect class="method" x="290" y="225" width="160" height="42"/>
    <text class="label" x="370" y="251" text-anchor="middle">optimize</text>
    <rect class="method" x="290" y="280" width="160" height="42"/>
    <text class="label" x="370" y="306" text-anchor="middle">critique / repair</text>
    <rect class="method" x="290" y="335" width="160" height="42"/>
    <text class="label" x="370" y="361" text-anchor="middle">verify / explain</text>

    <rect class="output" x="505" y="115" width="135" height="42"/>
    <text class="small" x="572.5" y="140" text-anchor="middle">candidates</text>
    <rect class="output" x="505" y="170" width="135" height="42"/>
    <text class="small" x="572.5" y="195" text-anchor="middle">estimates</text>
    <rect class="output" x="505" y="225" width="135" height="42"/>
    <text class="small" x="572.5" y="250" text-anchor="middle">next experiment</text>
    <rect class="output" x="505" y="280" width="135" height="42"/>
    <text class="small" x="572.5" y="305" text-anchor="middle">revisions</text>
    <rect class="output" x="505" y="335" width="135" height="42"/>
    <text class="small" x="572.5" y="360" text-anchor="middle">evidence</text>

    <rect class="decision" x="270" y="405" width="390" height="28"/>
    <text class="label" x="465" y="424" text-anchor="middle">architect decision: accept, reject, escalate, or revise</text>

    <line class="arrow" x1="240" y1="243" x2="290" y2="243" marker-end="url(#arrow)"/>

    <line class="arrow" x1="450" y1="136" x2="505" y2="136" marker-end="url(#arrow)"/>
    <line class="arrow" x1="450" y1="191" x2="505" y2="191" marker-end="url(#arrow)"/>
    <line class="arrow" x1="450" y1="246" x2="505" y2="246" marker-end="url(#arrow)"/>
    <line class="arrow" x1="450" y1="301" x2="505" y2="301" marker-end="url(#arrow)"/>
    <line class="arrow" x1="450" y1="356" x2="505" y2="356" marker-end="url(#arrow)"/>

    <polyline class="arrow" points="572.5,377 572.5,391 465,391 465,405" marker-end="url(#arrow)"/>

    <text class="note" x="360" y="469" text-anchor="middle">method choice follows task, representation, environment, feedback, evidence, and risk</text>
  </g>
</svg>
