<?xml version="1.0" encoding="utf-8"?>
<svg xmlns="http://www.w3.org/2000/svg" viewBox="50 0 650 350" role="img">
  <title>F8 Loop Beat</title>
  
  <defs>
    <marker id="arrow" viewBox="0 0 10 10" refX="9" refY="5" markerWidth="6" markerHeight="6" orient="auto-start-reverse">
      <path d="M 0 0 L 10 5 L 0 10 z" fill="#444444"/>
    </marker>

    <style>
      .font { font-family: Arial, Helvetica, sans-serif; }
      .title { font-size: 16px; font-weight: 700; fill: #202020; }
      .label { font-size: 14.4px; font-weight: 700; fill: #202020; }
      .label-white { font-size: 14.4px; font-weight: 700; fill: #ffffff; }
      .small { font-size: 9.2px; fill: #303030; }
      .center { font-size: 12.0px; font-weight: 700; fill: #202020; }
      .note { font-size: 10.4px; font-weight: 700; fill: #285F7A; }
      .muted { font-size: 8.8px; fill: #555555; }
      .line { stroke: #444444; stroke-width: 1.15; fill: none; }
      .line-dashed { stroke: #444444; stroke-width: 1.15; fill: none; stroke-dasharray: 4,4; }
      .thin { stroke: #6F7E86; stroke-width: 1.05; fill: none; }
      .arrow-end { marker-end: url(#arrow); }
    </style>
  </defs>
  <rect x="50" y="0" width="650" height="350" fill="#ffffff"/>
  
  <g class="font">
    <text class="title" x="350" y="30" text-anchor="middle">The Beat of the Loop</text>
    
    <!-- Entities -->
    <rect x="150" y="50" width="80" height="30" fill="#9ECBE1" stroke="#356C8C"/>
    <text class="center" x="190" y="70" text-anchor="middle">AI Agent</text>
    
    <rect x="300" y="50" width="80" height="30" fill="#B8D7A8" stroke="#5F8F4E"/>
    <text class="center" x="340" y="70" text-anchor="middle">Environment</text>
    
    <rect x="450" y="50" width="80" height="30" fill="#F0C27B" stroke="#B07021"/>
    <text class="center" x="490" y="70" text-anchor="middle">Architect</text>
    
    <!-- Lifelines -->
    <path class="line-dashed" d="M 190 80 L 190 320"/>
    <path class="line-dashed" d="M 340 80 L 340 320"/>
    <path class="line-dashed" d="M 490 80 L 490 320"/>
    
    <!-- Messages -->
    <path class="line arrow-end" d="M 490 100 L 190 100"/>
    <text class="small" x="340" y="95" text-anchor="middle">High-Level Prompt / Boundaries</text>
    
    <path class="line arrow-end" d="M 190 140 L 340 140"/>
    <text class="small" x="265" y="135" text-anchor="middle">Propose Action/Code</text>
    
    <path class="line arrow-end" d="M 340 180 L 190 180"/>
    <text class="small" x="265" y="175" text-anchor="middle">Feedback / Metrics / Error</text>
    
    <path class="line arrow-end" d="M 190 220 L 340 220"/>
    <text class="small" x="265" y="215" text-anchor="middle">Revise Action</text>

    <path class="line arrow-end" d="M 340 260 L 490 260"/>
    <text class="small" x="415" y="255" text-anchor="middle">Escalate to Review</text>

    <path class="line arrow-end" d="M 490 300 L 190 300"/>
    <text class="small" x="340" y="295" text-anchor="middle">Reject or Approve</text>
  </g>
</svg>
